<?xml version="1.0" encoding="UTF-8" standalone="no"?>
<!DOCTYPE svg PUBLIC "-//W3C//DTD SVG 1.1//EN" "http://www.w3.org/Graphics/SVG/1.1/DTD/svg11.dtd">
<!-- Created with Vectornator (http://vectornator.io/) -->
<svg height="1447.0px" stroke-miterlimit="10" style="fill-rule:nonzero;clip-rule:evenodd;stroke-linecap:round;stroke-linejoin:round;" version="1.1" viewBox="0 0 586 1447" width="586.0px" xml:space="preserve" xmlns="http://www.w3.org/2000/svg" xmlns:xlink="http://www.w3.org/1999/xlink">
<defs/>
<g id="Untitled">
<g opacity="1">
<path d="M370.5 160.5C369.833 160.5 369.5 163.833 369.5 170.5C369.5 177.167 353 180.5 320 180.5C287 180.5 270.5 187.167 270.5 200.5" fill="none" opacity="1" stroke="#1f6286" stroke-linecap="butt" stroke-linejoin="miter" stroke-width="1"/>
<text fill="#000000" font-family="Helvetica" font-size="19.2" opacity="1" stroke="none" text-anchor="middle" transform="matrix(1 0 0 1 292.084 118)" x="0" y="0">
<tspan textLength="155.831" x="79.4156" y="19">Big Data Engineer</tspan>
</text>
<path d="M365.5 0.5C392.167 13.8333 395.5 28.8333 375.5 45.5C355.5 62.1667 353.833 80.5 370.5 100.5" fill="none" opacity="1" stroke="#1f6286" stroke-dasharray="3.0" stroke-linecap="butt" stroke-linejoin="miter" stroke-width="1"/>
<path d="M193.5 203.5L351.5 203.5C354.814 203.5 357.5 206.186 357.5 209.5L357.5 237.5C357.5 240.814 354.814 243.5 351.5 243.5L193.5 243.5C190.186 243.5 187.5 240.814 187.5 237.5L187.5 209.5C187.5 206.186 190.186 203.5 193.5 203.5Z" fill="#000000" fill-rule="nonzero" opacity="0.25" stroke="#000000" stroke-linecap="butt" stroke-linejoin="miter" stroke-width="1"/>
<path d="M191.5 200.5L349.5 200.5C352.814 200.5 355.5 203.186 355.5 206.5L355.5 234.5C355.5 237.814 352.814 240.5 349.5 240.5L191.5 240.5C188.186 240.5 185.5 237.814 185.5 234.5L185.5 206.5C185.5 203.186 188.186 200.5 191.5 200.5Z" fill="#1f6286" fill-rule="nonzero" opacity="1" stroke="#000000" stroke-linecap="butt" stroke-linejoin="miter" stroke-width="1"/>
<text fill="#ffffff" font-family="Helvetica" font-size="9.6" opacity="1" stroke="none" text-anchor="middle" transform="matrix(1 0 0 1 205.973 215)" x="0" y="0">
<tspan textLength="128.053" x="65.5266" y="9">Architectural Patterns &amp; Bes...</tspan>
</text>
<path d="M270.5 240.5C270.5 260.7 292.167 270.8 335.5 270.8C378.833 270.8 400.5 280.867 400.5 301" fill="none" opacity="1" stroke="#1f6286" stroke-linecap="butt" stroke-linejoin="miter" stroke-width="1"/>
<path d="M322 304L483 304C485.485 304 487.5 306.015 487.5 308.5L487.5 329.5C487.5 331.985 485.485 334 483 334L322 334C319.515 334 317.5 331.985 317.5 329.5L317.5 308.5C317.5 306.015 319.515 304 322 304Z" fill="#000000" fill-rule="nonzero" opacity="0.25" stroke="#000000" stroke-linecap="butt" stroke-linejoin="miter" stroke-width="1"/>
<path d="M320 301L481 301C483.485 301 485.5 303.015 485.5 305.5L485.5 326.5C485.5 328.985 483.485 331 481 331L320 331C317.515 331 315.5 328.985 315.5 326.5L315.5 305.5C315.5 303.015 317.515 301 320 301Z" fill="#1f6286" fill-rule="nonzero" opacity="1" stroke="#000000" stroke-linecap="butt" stroke-linejoin="miter" stroke-width="1"/>
<text fill="#ffffff" font-family="Helvetica" font-size="9.6" opacity="1" stroke="none" text-anchor="middle" transform="matrix(1 0 0 1 340.783 310)" x="0" y="0">
<tspan textLength="118.434" x="60.7172" y="9">Horizontal vs vertical scali...</tspan>
</text>
<path d="M322 345.5L483 345.5C485.485 345.5 487.5 347.515 487.5 350L487.5 371C487.5 373.485 485.485 375.5 483 375.5L322 375.5C319.515 375.5 317.5 373.485 317.5 371L317.5 350C317.5 347.515 319.515 345.5 322 345.5Z" fill="#000000" fill-rule="nonzero" opacity="0.25" stroke="#000000" stroke-linecap="butt" stroke-linejoin="miter" stroke-width="1"/>
<path d="M320 342.5L481 342.5C483.485 342.5 485.5 344.515 485.5 347L485.5 368C485.5 370.485 483.485 372.5 481 372.5L320 372.5C317.515 372.5 315.5 370.485 315.5 368L315.5 347C315.5 344.515 317.515 342.5 320 342.5Z" fill="#1f6286" fill-rule="nonzero" opacity="1" stroke="#000000" stroke-linecap="butt" stroke-linejoin="miter" stroke-width="1"/>
<text fill="#ffffff" font-family="Helvetica" font-size="9.6" opacity="1" stroke="none" text-anchor="middle" transform="matrix(1 0 0 1 372.784 352)" x="0" y="0">
<tspan textLength="54.4313" x="28.7156" y="9">Map Reduce</tspan>
</text>
<path d="M322 386.5L483 386.5C485.485 386.5 487.5 388.515 487.5 391L487.5 412C487.5 414.485 485.485 416.5 483 416.5L322 416.5C319.515 416.5 317.5 414.485 317.5 412L317.5 391C317.5 388.515 319.515 386.5 322 386.5Z" fill="#000000" fill-rule="nonzero" opacity="0.25" stroke="#000000" stroke-linecap="butt" stroke-linejoin="miter" stroke-width="1"/>
<path d="M320 383.5L481 383.5C483.485 383.5 485.5 385.515 485.5 388L485.5 409C485.5 411.485 483.485 413.5 481 413.5L320 413.5C317.515 413.5 315.5 411.485 315.5 409L315.5 388C315.5 385.515 317.515 383.5 320 383.5Z" fill="#1f6286" fill-rule="nonzero" opacity="1" stroke="#000000" stroke-linecap="butt" stroke-linejoin="miter" stroke-width="1"/>
<text fill="#ffffff" font-family="Helvetica" font-size="9.6" opacity="1" stroke="none" text-anchor="middle" transform="matrix(1 0 0 1 364.78 393)" x="0" y="0">
<tspan textLength="70.4391" x="36.7195" y="9">Data Replication</tspan>
</text>
<path d="M322 468.5L483 468.5C485.485 468.5 487.5 470.515 487.5 473L487.5 494C487.5 496.485 485.485 498.5 483 498.5L322 498.5C319.515 498.5 317.5 496.485 317.5 494L317.5 473C317.5 470.515 319.515 468.5 322 468.5Z" fill="#000000" fill-rule="nonzero" opacity="0.25" stroke="#000000" stroke-linecap="butt" stroke-linejoin="miter" stroke-width="1"/>
<path d="M320 465.5L481 465.5C483.485 465.5 485.5 467.515 485.5 470L485.5 491C485.5 493.485 483.485 495.5 481 495.5L320 495.5C317.515 495.5 315.5 493.485 315.5 491L315.5 470C315.5 467.515 317.515 465.5 320 465.5Z" fill="#1f6286" fill-rule="nonzero" opacity="1" stroke="#000000" stroke-linecap="butt" stroke-linejoin="miter" stroke-width="1"/>
<text fill="#ffffff" font-family="Helvetica" font-size="9.6" opacity="1" stroke="none" text-anchor="middle" transform="matrix(1 0 0 1 359.266 475)" x="0" y="0">
<tspan textLength="81.4688" x="42.2344" y="9">Job &amp; Task Tracker</tspan>
</text>
<path d="M322 427.5L483 427.5C485.485 427.5 487.5 429.515 487.5 432L487.5 453C487.5 455.485 485.485 457.5 483 457.5L322 457.5C319.515 457.5 317.5 455.485 317.5 453L317.5 432C317.5 429.515 319.515 427.5 322 427.5Z" fill="#000000" fill-rule="nonzero" opacity="0.25" stroke="#000000" stroke-linecap="butt" stroke-linejoin="miter" stroke-width="1"/>
<path d="M320 424.5L481 424.5C483.485 424.5 485.5 426.515 485.5 429L485.5 450C485.5 452.485 483.485 454.5 481 454.5L320 454.5C317.515 454.5 315.5 452.485 315.5 450L315.5 429C315.5 426.515 317.515 424.5 320 424.5Z" fill="#1f6286" fill-rule="nonzero" opacity="1" stroke="#000000" stroke-linecap="butt" stroke-linejoin="miter" stroke-width="1"/>
<text fill="#ffffff" font-family="Helvetica" font-size="9.6" opacity="1" stroke="none" text-anchor="middle" transform="matrix(1 0 0 1 355.98 434)" x="0" y="0">
<tspan textLength="88.0406" x="45.5203" y="9">Name &amp; Data Nodes</tspan>
</text>
<path d="M400.5 495.5C400.5 515.833 378.833 526 335.5 526C292.167 526 270.5 536.167 270.5 556.5" fill="none" opacity="1" stroke="#1f6286" stroke-linecap="butt" stroke-linejoin="miter" stroke-width="1"/>
<path d="M192 559.5L353 559.5C355.485 559.5 357.5 561.515 357.5 564L357.5 585C357.5 587.485 355.485 589.5 353 589.5L192 589.5C189.515 589.5 187.5 587.485 187.5 585L187.5 564C187.5 561.515 189.515 559.5 192 559.5Z" fill="#000000" fill-rule="nonzero" opacity="0.25" stroke="#000000" stroke-linecap="butt" stroke-linejoin="miter" stroke-width="1"/>
<path d="M190 556.5L351 556.5C353.485 556.5 355.5 558.515 355.5 561L355.5 582C355.5 584.485 353.485 586.5 351 586.5L190 586.5C187.515 586.5 185.5 584.485 185.5 582L185.5 561C185.5 558.515 187.515 556.5 190 556.5Z" fill="#1f6286" fill-rule="nonzero" opacity="1" stroke="#000000" stroke-linecap="butt" stroke-linejoin="miter" stroke-width="1"/>
<text fill="#ffffff" font-family="Helvetica" font-size="9.6" opacity="1" stroke="none" text-anchor="middle" transform="matrix(1 0 0 1 198.579 566)" x="0" y="0">
<tspan textLength="142.842" x="72.9211" y="9">Check the Awesome Big Data L...</tspan>
</text>
<path d="M192 599.5L353 599.5C355.485 599.5 357.5 601.515 357.5 604L357.5 625C357.5 627.485 355.485 629.5 353 629.5L192 629.5C189.515 629.5 187.5 627.485 187.5 625L187.5 604C187.5 601.515 189.515 599.5 192 599.5Z" fill="#000000" fill-rule="nonzero" opacity="0.25" stroke="#000000" stroke-linecap="butt" stroke-linejoin="miter" stroke-width="1"/>
<path d="M190 596.5L351 596.5C353.485 596.5 355.5 598.515 355.5 601L355.5 622C355.5 624.485 353.485 626.5 351 626.5L190 626.5C187.515 626.5 185.5 624.485 185.5 622L185.5 601C185.5 598.515 187.515 596.5 190 596.5Z" fill="#1f6286" fill-rule="nonzero" opacity="1" stroke="#000000" stroke-linecap="butt" stroke-linejoin="miter" stroke-width="1"/>
<text fill="#ffffff" font-family="Helvetica" font-size="9.6" opacity="1" stroke="none" text-anchor="middle" transform="matrix(1 0 0 1 227.306 606)" x="0" y="0">
<tspan textLength="85.3875" x="44.1938" y="9">Hadoop (large data)</tspan>
</text>
<path d="M192 639.5L353 639.5C355.485 639.5 357.5 641.515 357.5 644L357.5 665C357.5 667.485 355.485 669.5 353 669.5L192 669.5C189.515 669.5 187.5 667.485 187.5 665L187.5 644C187.5 641.515 189.515 639.5 192 639.5Z" fill="#000000" fill-rule="nonzero" opacity="0.25" stroke="#000000" stroke-linecap="butt" stroke-linejoin="miter" stroke-width="1"/>
<path d="M190 636.5L351 636.5C353.485 636.5 355.5 638.515 355.5 641L355.5 662C355.5 664.485 353.485 666.5 351 666.5L190 666.5C187.515 666.5 185.5 664.485 185.5 662L185.5 641C185.5 638.515 187.515 636.5 190 636.5Z" fill="#1f6286" fill-rule="nonzero" opacity="1" stroke="#000000" stroke-linecap="butt" stroke-linejoin="miter" stroke-width="1"/>
<text fill="#ffffff" font-family="Helvetica" font-size="9.6" opacity="1" stroke="none" text-anchor="middle" transform="matrix(1 0 0 1 230.527 646)" x="0" y="0">
<tspan textLength="78.9469" x="40.9734" y="9">Spark (in memory)</tspan>
</text>
<path d="M400.5 582.5C385.5 582.5 378 587.333 378 597C378 606.667 370.5 611.5 355.5 611.5" fill="none" opacity="1" stroke="#1f6286" stroke-dasharray="1.0,2.0,1.0,2.0" stroke-linecap="butt" stroke-linejoin="miter" stroke-width="1"/>
<path d="M405.5 575.5L574.5 575.5C576.157 575.5 577.5 576.843 577.5 578.5L577.5 592.5C577.5 594.157 576.157 595.5 574.5 595.5L405.5 595.5C403.843 595.5 402.5 594.157 402.5 592.5L402.5 578.5C402.5 576.843 403.843 575.5 405.5 575.5Z" fill="#000000" fill-rule="nonzero" opacity="0.25" stroke="#000000" stroke-linecap="butt" stroke-linejoin="miter" stroke-width="1"/>
<path d="M403.5 572.5L572.5 572.5C574.157 572.5 575.5 573.843 575.5 575.5L575.5 589.5C575.5 591.157 574.157 592.5 572.5 592.5L403.5 592.5C401.843 592.5 400.5 591.157 400.5 589.5L400.5 575.5C400.5 573.843 401.843 572.5 403.5 572.5Z" fill="#878787" fill-rule="nonzero" opacity="1" stroke="#000000" stroke-linecap="butt" stroke-linejoin="miter" stroke-width="1"/>
<text fill="#ffffff" font-family="Helvetica" font-size="8.8" opacity="1" stroke="none" text-anchor="middle" transform="matrix(1 0 0 1 476.022 576)" x="0" y="0">
<tspan textLength="23.9551" x="13.4775" y="9">HDFS</tspan>
</text>
<path d="M400.5 612.5C385.833 612.5 378.5 612.333 378.5 612C378.5 611.667 370.833 611.5 355.5 611.5" fill="none" opacity="1" stroke="#1f6286" stroke-dasharray="1.0,2.0,1.0,2.0" stroke-linecap="butt" stroke-linejoin="miter" stroke-width="1"/>
<path d="M405.5 605.5L574.5 605.5C576.157 605.5 577.5 606.843 577.5 608.5L577.5 622.5C577.5 624.157 576.157 625.5 574.5 625.5L405.5 625.5C403.843 625.5 402.5 624.157 402.5 622.5L402.5 608.5C402.5 606.843 403.843 605.5 405.5 605.5Z" fill="#000000" fill-rule="nonzero" opacity="0.25" stroke="#000000" stroke-linecap="butt" stroke-linejoin="miter" stroke-width="1"/>
<path d="M403.5 602.5L572.5 602.5C574.157 602.5 575.5 603.843 575.5 605.5L575.5 619.5C575.5 621.157 574.157 622.5 572.5 622.5L403.5 622.5C401.843 622.5 400.5 621.157 400.5 619.5L400.5 605.5C400.5 603.843 401.843 602.5 403.5 602.5Z" fill="#878787" fill-rule="nonzero" opacity="1" stroke="#000000" stroke-linecap="butt" stroke-linejoin="miter" stroke-width="1"/>
<text fill="#ffffff" font-family="Helvetica" font-size="8.8" opacity="1" stroke="none" text-anchor="middle" transform="matrix(1 0 0 1 423.416 606)" x="0" y="0">
<tspan textLength="129.168" x="66.0842" y="9">Loading data with Sqoop and Pig</tspan>
</text>
<text fill="#ffffff" font-family="Helvetica" font-size="12.8" opacity="1" stroke="none" text-anchor="middle" transform="matrix(1 0 0 1 111.678 177)" x="0" y="0">
<tspan textLength="126.644" x="64.8219" y="12">Big Data Architectures</tspan>
</text>
<text fill="#ffffff" font-family="Helvetica" font-size="12.8" opacity="1" stroke="none" text-anchor="middle" transform="matrix(1 0 0 1 423.256 275)" x="0" y="0">
<tspan textLength="55.4875" x="29.2438" y="12">Principles</tspan>
</text>
<text fill="#ffffff" font-family="Helvetica" font-size="12.8" opacity="1" stroke="none" text-anchor="middle" transform="matrix(1 0 0 1 190.059 532)" x="0" y="0">
<tspan textLength="29.8813" x="16.4406" y="12">Tools</tspan>
</text>
<path d="M192 679.5L353 679.5C355.485 679.5 357.5 681.515 357.5 684L357.5 705C357.5 707.485 355.485 709.5 353 709.5L192 709.5C189.515 709.5 187.5 707.485 187.5 705L187.5 684C187.5 681.515 189.515 679.5 192 679.5Z" fill="#000000" fill-rule="nonzero" opacity="0.25" stroke="#000000" stroke-linecap="butt" stroke-linejoin="miter" stroke-width="1"/>
<path d="M190 676.5L351 676.5C353.485 676.5 355.5 678.515 355.5 681L355.5 702C355.5 704.485 353.485 706.5 351 706.5L190 706.5C187.515 706.5 185.5 704.485 185.5 702L185.5 681C185.5 678.515 187.515 676.5 190 676.5Z" fill="#1f6286" fill-rule="nonzero" opacity="1" stroke="#000000" stroke-linecap="butt" stroke-linejoin="miter" stroke-width="1"/>
<text fill="#ffffff" font-family="Helvetica" font-size="9.6" opacity="1" stroke="none" text-anchor="middle" transform="matrix(1 0 0 1 230.524 686)" x="0" y="0">
<tspan textLength="78.9516" x="40.9758" y="9">RAPIDS (on GPU)</tspan>
</text>
<path d="M192 719.5L353 719.5C355.485 719.5 357.5 721.515 357.5 724L357.5 745C357.5 747.485 355.485 749.5 353 749.5L192 749.5C189.515 749.5 187.5 747.485 187.5 745L187.5 724C187.5 721.515 189.515 719.5 192 719.5Z" fill="#000000" fill-rule="nonzero" opacity="0.25" stroke="#000000" stroke-linecap="butt" stroke-linejoin="miter" stroke-width="1"/>
<path d="M190 716.5L351 716.5C353.485 716.5 355.5 718.515 355.5 721L355.5 742C355.5 744.485 353.485 746.5 351 746.5L190 746.5C187.515 746.5 185.5 744.485 185.5 742L185.5 721C185.5 718.515 187.515 716.5 190 716.5Z" fill="#1f6286" fill-rule="nonzero" opacity="1" stroke="#000000" stroke-linecap="butt" stroke-linejoin="miter" stroke-width="1"/>
<text fill="#ffffff" font-family="Helvetica" font-size="9.6" opacity="1" stroke="none" text-anchor="middle" transform="matrix(1 0 0 1 207.319 726)" x="0" y="0">
<tspan textLength="125.363" x="64.1813" y="9">Flume, Scribe: For Unstruct...</tspan>
</text>
<path d="M192 759.5L353 759.5C355.485 759.5 357.5 761.515 357.5 764L357.5 785C357.5 787.485 355.485 789.5 353 789.5L192 789.5C189.515 789.5 187.5 787.485 187.5 785L187.5 764C187.5 761.515 189.515 759.5 192 759.5Z" fill="#000000" fill-rule="nonzero" opacity="0.25" stroke="#000000" stroke-linecap="butt" stroke-linejoin="miter" stroke-width="1"/>
<path d="M190 756.5L351 756.5C353.485 756.5 355.5 758.515 355.5 761L355.5 782C355.5 784.485 353.485 786.5 351 786.5L190 786.5C187.515 786.5 185.5 784.485 185.5 782L185.5 761C185.5 758.515 187.515 756.5 190 756.5Z" fill="#1f6286" fill-rule="nonzero" opacity="1" stroke="#000000" stroke-linecap="butt" stroke-linejoin="miter" stroke-width="1"/>
<text fill="#ffffff" font-family="Helvetica" font-size="9.6" opacity="1" stroke="none" text-anchor="middle" transform="matrix(1 0 0 1 213.352 766)" x="0" y="0">
<tspan textLength="113.297" x="58.1484" y="9">Data Warehouse with Hive</tspan>
</text>
<path d="M192 799.5L353 799.5C355.485 799.5 357.5 801.515 357.5 804L357.5 825C357.5 827.485 355.485 829.5 353 829.5L192 829.5C189.515 829.5 187.5 827.485 187.5 825L187.5 804C187.5 801.515 189.515 799.5 192 799.5Z" fill="#000000" fill-rule="nonzero" opacity="0.25" stroke="#000000" stroke-linecap="butt" stroke-linejoin="miter" stroke-width="1"/>
<path d="M190 796.5L351 796.5C353.485 796.5 355.5 798.515 355.5 801L355.5 822C355.5 824.485 353.485 826.5 351 826.5L190 826.5C187.515 826.5 185.5 824.485 185.5 822L185.5 801C185.5 798.515 187.515 796.5 190 796.5Z" fill="#1f6286" fill-rule="nonzero" opacity="1" stroke="#000000" stroke-linecap="butt" stroke-linejoin="miter" stroke-width="1"/>
<text fill="#ffffff" font-family="Helvetica" font-size="9.6" opacity="1" stroke="none" text-anchor="middle" transform="matrix(1 0 0 1 228.921 806)" x="0" y="0">
<tspan textLength="82.1578" x="42.5789" y="9">Elastic (EKL) Stack</tspan>
</text>
<path d="M192 839.5L353 839.5C355.485 839.5 357.5 841.515 357.5 844L357.5 865C357.5 867.485 355.485 869.5 353 869.5L192 869.5C189.515 869.5 187.5 867.485 187.5 865L187.5 844C187.5 841.515 189.515 839.5 192 839.5Z" fill="#000000" fill-rule="nonzero" opacity="0.25" stroke="#000000" stroke-linecap="butt" stroke-linejoin="miter" stroke-width="1"/>
<path d="M190 836.5L351 836.5C353.485 836.5 355.5 838.515 355.5 841L355.5 862C355.5 864.485 353.485 866.5 351 866.5L190 866.5C187.515 866.5 185.5 864.485 185.5 862L185.5 841C185.5 838.515 187.515 836.5 190 836.5Z" fill="#1f6286" fill-rule="nonzero" opacity="1" stroke="#000000" stroke-linecap="butt" stroke-linejoin="miter" stroke-width="1"/>
<text fill="#ffffff" font-family="Helvetica" font-size="9.6" opacity="1" stroke="none" text-anchor="middle" transform="matrix(1 0 0 1 260.215 846)" x="0" y="0">
<tspan textLength="19.5703" x="11.2852" y="9">Avro</tspan>
</text>
<path d="M192 879.5L353 879.5C355.485 879.5 357.5 881.515 357.5 884L357.5 905C357.5 907.485 355.485 909.5 353 909.5L192 909.5C189.515 909.5 187.5 907.485 187.5 905L187.5 884C187.5 881.515 189.515 879.5 192 879.5Z" fill="#000000" fill-rule="nonzero" opacity="0.25" stroke="#000000" stroke-linecap="butt" stroke-linejoin="miter" stroke-width="1"/>
<path d="M190 876.5L351 876.5C353.485 876.5 355.5 878.515 355.5 881L355.5 902C355.5 904.485 353.485 906.5 351 906.5L190 906.5C187.515 906.5 185.5 904.485 185.5 902L185.5 881C185.5 878.515 187.515 876.5 190 876.5Z" fill="#1f6286" fill-rule="nonzero" opacity="1" stroke="#000000" stroke-linecap="butt" stroke-linejoin="miter" stroke-width="1"/>
<text fill="#ffffff" font-family="Helvetica" font-size="9.6" opacity="1" stroke="none" text-anchor="middle" transform="matrix(1 0 0 1 259.866 886)" x="0" y="0">
<tspan textLength="20.2688" x="11.6344" y="9">Flink</tspan>
</text>
<path d="M192 1079.5L353 1079.5C355.485 1079.5 357.5 1081.51 357.5 1084L357.5 1105C357.5 1107.49 355.485 1109.5 353 1109.5L192 1109.5C189.515 1109.5 187.5 1107.49 187.5 1105L187.5 1084C187.5 1081.51 189.515 1079.5 192 1079.5Z" fill="#000000" fill-rule="nonzero" opacity="0.25" stroke="#000000" stroke-linecap="butt" stroke-linejoin="miter" stroke-width="1"/>
<path d="M190 1076.5L351 1076.5C353.485 1076.5 355.5 1078.51 355.5 1081L355.5 1102C355.5 1104.49 353.485 1106.5 351 1106.5L190 1106.5C187.515 1106.5 185.5 1104.49 185.5 1102L185.5 1081C185.5 1078.51 187.515 1076.5 190 1076.5Z" fill="#1f6286" fill-rule="nonzero" opacity="1" stroke="#000000" stroke-linecap="butt" stroke-linejoin="miter" stroke-width="1"/>
<text fill="#ffffff" font-family="Helvetica" font-size="9.6" opacity="1" stroke="none" text-anchor="middle" transform="matrix(1 0 0 1 253.198 1086)" x="0" y="0">
<tspan textLength="33.6047" x="18.3023" y="9">MLFlow</tspan>
</text>
<path d="M192 1119.5L353 1119.5C355.485 1119.5 357.5 1121.51 357.5 1124L357.5 1145C357.5 1147.49 355.485 1149.5 353 1149.5L192 1149.5C189.515 1149.5 187.5 1147.49 187.5 1145L187.5 1124C187.5 1121.51 189.515 1119.5 192 1119.5Z" fill="#000000" fill-rule="nonzero" opacity="0.25" stroke="#000000" stroke-linecap="butt" stroke-linejoin="miter" stroke-width="1"/>
<path d="M190 1116.5L351 1116.5C353.485 1116.5 355.5 1118.51 355.5 1121L355.5 1142C355.5 1144.49 353.485 1146.5 351 1146.5L190 1146.5C187.515 1146.5 185.5 1144.49 185.5 1142L185.5 1121C185.5 1118.51 187.515 1116.5 190 1116.5Z" fill="#1f6286" fill-rule="nonzero" opacity="1" stroke="#000000" stroke-linecap="butt" stroke-linejoin="miter" stroke-width="1"/>
<text fill="#ffffff" font-family="Helvetica" font-size="9.6" opacity="1" stroke="none" text-anchor="middle" transform="matrix(1 0 0 1 239.051 1126)" x="0" y="0">
<tspan textLength="61.8984" x="32.4492" y="9">Kafka &amp; KSQL</tspan>
</text>
<path d="M192 1159.5L353 1159.5C355.485 1159.5 357.5 1161.51 357.5 1164L357.5 1185C357.5 1187.49 355.485 1189.5 353 1189.5L192 1189.5C189.515 1189.5 187.5 1187.49 187.5 1185L187.5 1164C187.5 1161.51 189.515 1159.5 192 1159.5Z" fill="#000000" fill-rule="nonzero" opacity="0.25" stroke="#000000" stroke-linecap="butt" stroke-linejoin="miter" stroke-width="1"/>
<path d="M190 1156.5L351 1156.5C353.485 1156.5 355.5 1158.51 355.5 1161L355.5 1182C355.5 1184.49 353.485 1186.5 351 1186.5L190 1186.5C187.515 1186.5 185.5 1184.49 185.5 1182L185.5 1161C185.5 1158.51 187.515 1156.5 190 1156.5Z" fill="#1f6286" fill-rule="nonzero" opacity="1" stroke="#000000" stroke-linecap="butt" stroke-linejoin="miter" stroke-width="1"/>
<text fill="#ffffff" font-family="Helvetica" font-size="9.6" opacity="1" stroke="none" text-anchor="middle" transform="matrix(1 0 0 1 247.052 1166)" x="0" y="0">
<tspan textLength="45.8953" x="24.4477" y="9">Databases</tspan>
</text>
<path d="M405.5 634.5L574.5 634.5C576.157 634.5 577.5 635.843 577.5 637.5L577.5 651.5C577.5 653.157 576.157 654.5 574.5 654.5L405.5 654.5C403.843 654.5 402.5 653.157 402.5 651.5L402.5 637.5C402.5 635.843 403.843 634.5 405.5 634.5Z" fill="#000000" fill-rule="nonzero" opacity="0.25" stroke="#000000" stroke-linecap="butt" stroke-linejoin="miter" stroke-width="1"/>
<path d="M403.5 631.5L572.5 631.5C574.157 631.5 575.5 632.843 575.5 634.5L575.5 648.5C575.5 650.157 574.157 651.5 572.5 651.5L403.5 651.5C401.843 651.5 400.5 650.157 400.5 648.5L400.5 634.5C400.5 632.843 401.843 631.5 403.5 631.5Z" fill="#878787" fill-rule="nonzero" opacity="1" stroke="#000000" stroke-linecap="butt" stroke-linejoin="miter" stroke-width="1"/>
<text fill="#ffffff" font-family="Helvetica" font-size="8.8" opacity="1" stroke="none" text-anchor="middle" transform="matrix(1 0 0 1 439.823 635)" x="0" y="0">
<tspan textLength="96.3531" x="49.6766" y="9">Storm: Hadoop Realtime</tspan>
</text>
<path d="M400.5 641.5C385.5 641.5 378 636.5 378 626.5C378 616.5 370.5 611.5 355.5 611.5" fill="none" opacity="1" stroke="#1f6286" stroke-dasharray="1.0,2.0,1.0,2.0" stroke-linecap="butt" stroke-linejoin="miter" stroke-width="1"/>
<path d="M442.7 768.25C404.567 768.283 385.5 775.5 385.5 789.9C385.5 804.3 375.5 811.5 355.5 811.5" fill="none" opacity="1" stroke="#000000" stroke-dasharray="3.0" stroke-linecap="butt" stroke-linejoin="miter" stroke-width="1"/>
<path d="M458 736.75C424 736.75 415.5 763 442.7 768.25C415.5 779.8 446.1 805 468.2 794.5C483.5 815.5 534.5 815.5 551.5 794.5C585.5 794.5 585.5 773.5 564.25 763C585.5 742 551.5 721 521.75 731.5C500.5 715.75 466.5 715.75 458 736.75Z" fill="#ffffff" fill-rule="nonzero" opacity="1" stroke="#000000" stroke-linecap="butt" stroke-linejoin="miter" stroke-width="1"/>
<text fill="#000000" font-family="Helvetica" font-size="9.6" opacity="1" stroke="none" text-anchor="middle" transform="matrix(1 0 0 1 442.63 757)" x="0" y="0">
<tspan textLength="114.741" x="58.8703" y="9">to get data (e.g. logging),...</tspan>
</text>
<path d="M6.36 1149L155.36 1149C157.017 1149 158.36 1150.34 158.36 1152L158.36 1166C158.36 1167.66 157.017 1169 155.36 1169L6.36 1169C4.70315 1169 3.36 1167.66 3.36 1166L3.36 1152C3.36 1150.34 4.70315 1149 6.36 1149Z" fill="#000000" fill-rule="nonzero" opacity="0.25" stroke="#000000" stroke-linecap="butt" stroke-linejoin="miter" stroke-width="1"/>
<path d="M4.36 1146L153.36 1146C155.017 1146 156.36 1147.34 156.36 1149L156.36 1163C156.36 1164.66 155.017 1166 153.36 1166L4.36 1166C2.70315 1166 1.36 1164.66 1.36 1163L1.36 1149C1.36 1147.34 2.70315 1146 4.36 1146Z" fill="#878787" fill-rule="nonzero" opacity="1" stroke="#000000" stroke-linecap="butt" stroke-linejoin="miter" stroke-width="1"/>
<text fill="#ffffff" font-family="Helvetica" font-size="8.8" opacity="1" stroke="none" text-anchor="middle" transform="matrix(1 0 0 1 56.7219 1150)" x="0" y="0">
<tspan textLength="42.5563" x="22.7781" y="9">Cassandra</tspan>
</text>
<path d="M6.36 1177.5L155.36 1177.5C157.017 1177.5 158.36 1178.84 158.36 1180.5L158.36 1194.5C158.36 1196.16 157.017 1197.5 155.36 1197.5L6.36 1197.5C4.70315 1197.5 3.36 1196.16 3.36 1194.5L3.36 1180.5C3.36 1178.84 4.70315 1177.5 6.36 1177.5Z" fill="#000000" fill-rule="nonzero" opacity="0.25" stroke="#000000" stroke-linecap="butt" stroke-linejoin="miter" stroke-width="1"/>
<path d="M4.36 1174.5L153.36 1174.5C155.017 1174.5 156.36 1175.84 156.36 1177.5L156.36 1191.5C156.36 1193.16 155.017 1194.5 153.36 1194.5L4.36 1194.5C2.70315 1194.5 1.36 1193.16 1.36 1191.5L1.36 1177.5C1.36 1175.84 2.70315 1174.5 4.36 1174.5Z" fill="#878787" fill-rule="nonzero" opacity="1" stroke="#000000" stroke-linecap="butt" stroke-linejoin="miter" stroke-width="1"/>
<text fill="#ffffff" font-family="Helvetica" font-size="8.8" opacity="1" stroke="none" text-anchor="middle" transform="matrix(1 0 0 1 44.493 1178)" x="0" y="0">
<tspan textLength="67.0141" x="35.007" y="9">MongoDB, Neo4j</tspan>
</text>
<path d="M185.5 1171.5C185.5 1170.83 183.833 1170.5 180.5 1170.5C177.167 1170.5 175.5 1168.08 175.5 1163.25C175.5 1158.42 169.12 1156 156.36 1156" fill="none" opacity="1" stroke="#1f6286" stroke-dasharray="1.0,2.0,1.0,2.0" stroke-linecap="butt" stroke-linejoin="miter" stroke-width="1"/>
<path d="M184.14 1171.47C178.38 1170.82 175.5 1173 175.5 1178C175.5 1183 169.12 1185.17 156.36 1184.5" fill="none" opacity="1" stroke="#1f6286" stroke-dasharray="1.0,2.0,1.0,2.0" stroke-linecap="butt" stroke-linejoin="miter" stroke-width="1"/>
<path d="M192 1199.5L353 1199.5C355.485 1199.5 357.5 1201.51 357.5 1204L357.5 1225C357.5 1227.49 355.485 1229.5 353 1229.5L192 1229.5C189.515 1229.5 187.5 1227.49 187.5 1225L187.5 1204C187.5 1201.51 189.515 1199.5 192 1199.5Z" fill="#000000" fill-rule="nonzero" opacity="0.25" stroke="#000000" stroke-linecap="butt" stroke-linejoin="miter" stroke-width="1"/>
<path d="M190 1196.5L351 1196.5C353.485 1196.5 355.5 1198.51 355.5 1201L355.5 1222C355.5 1224.49 353.485 1226.5 351 1226.5L190 1226.5C187.515 1226.5 185.5 1224.49 185.5 1222L185.5 1201C185.5 1198.51 187.515 1196.5 190 1196.5Z" fill="#1f6286" fill-rule="nonzero" opacity="1" stroke="#000000" stroke-linecap="butt" stroke-linejoin="miter" stroke-width="1"/>
<text fill="#ffffff" font-family="Helvetica" font-size="9.6" opacity="1" stroke="none" text-anchor="middle" transform="matrix(1 0 0 1 248.391 1206)" x="0" y="0">
<tspan textLength="43.2188" x="23.1094" y="9">Scalability</tspan>
</text>
<path d="M405.36 1189L554.36 1189C556.017 1189 557.36 1190.34 557.36 1192L557.36 1206C557.36 1207.66 556.017 1209 554.36 1209L405.36 1209C403.703 1209 402.36 1207.66 402.36 1206L402.36 1192C402.36 1190.34 403.703 1189 405.36 1189Z" fill="#000000" fill-rule="nonzero" opacity="0.25" stroke="#000000" stroke-linecap="butt" stroke-linejoin="miter" stroke-width="1"/>
<path d="M403.36 1186L552.36 1186C554.017 1186 555.36 1187.34 555.36 1189L555.36 1203C555.36 1204.66 554.017 1206 552.36 1206L403.36 1206C401.703 1206 400.36 1204.66 400.36 1203L400.36 1189C400.36 1187.34 401.703 1186 403.36 1186Z" fill="#878787" fill-rule="nonzero" opacity="1" stroke="#000000" stroke-linecap="butt" stroke-linejoin="miter" stroke-width="1"/>
<text fill="#ffffff" font-family="Helvetica" font-size="8.8" opacity="1" stroke="none" text-anchor="middle" transform="matrix(1 0 0 1 455.23 1190)" x="0" y="0">
<tspan textLength="43.5402" x="23.2701" y="9">ZooKeeper</tspan>
</text>
<path d="M405.36 1217.5L554.36 1217.5C556.017 1217.5 557.36 1218.84 557.36 1220.5L557.36 1234.5C557.36 1236.16 556.017 1237.5 554.36 1237.5L405.36 1237.5C403.703 1237.5 402.36 1236.16 402.36 1234.5L402.36 1220.5C402.36 1218.84 403.703 1217.5 405.36 1217.5Z" fill="#000000" fill-rule="nonzero" opacity="0.25" stroke="#000000" stroke-linecap="butt" stroke-linejoin="miter" stroke-width="1"/>
<path d="M403.36 1214.5L552.36 1214.5C554.017 1214.5 555.36 1215.84 555.36 1217.5L555.36 1231.5C555.36 1233.16 554.017 1234.5 552.36 1234.5L403.36 1234.5C401.703 1234.5 400.36 1233.16 400.36 1231.5L400.36 1217.5C400.36 1215.84 401.703 1214.5 403.36 1214.5Z" fill="#878787" fill-rule="nonzero" opacity="1" stroke="#000000" stroke-linecap="butt" stroke-linejoin="miter" stroke-width="1"/>
<text fill="#ffffff" font-family="Helvetica" font-size="8.8" opacity="1" stroke="none" text-anchor="middle" transform="matrix(1 0 0 1 454.495 1218)" x="0" y="0">
<tspan textLength="45.0098" x="24.0049" y="9">Kubernetes</tspan>
</text>
<path d="M400.36 1196C385.453 1196 378 1198.58 378 1203.75C378 1208.92 370.5 1211.5 355.5 1211.5" fill="none" opacity="1" stroke="#1f6286" stroke-dasharray="1.0,2.0,1.0,2.0" stroke-linecap="butt" stroke-linejoin="miter" stroke-width="1"/>
<path d="M400.36 1224.5C385.453 1224.5 378 1222.33 378 1218C378 1213.67 370.5 1211.5 355.5 1211.5" fill="none" opacity="1" stroke="#1f6286" stroke-dasharray="1.0,2.0,1.0,2.0" stroke-linecap="butt" stroke-linejoin="miter" stroke-width="1"/>
<path d="M192 1239.5L353 1239.5C355.485 1239.5 357.5 1241.51 357.5 1244L357.5 1265C357.5 1267.49 355.485 1269.5 353 1269.5L192 1269.5C189.515 1269.5 187.5 1267.49 187.5 1265L187.5 1244C187.5 1241.51 189.515 1239.5 192 1239.5Z" fill="#000000" fill-rule="nonzero" opacity="0.25" stroke="#000000" stroke-linecap="butt" stroke-linejoin="miter" stroke-width="1"/>
<path d="M190 1236.5L351 1236.5C353.485 1236.5 355.5 1238.51 355.5 1241L355.5 1262C355.5 1264.49 353.485 1266.5 351 1266.5L190 1266.5C187.515 1266.5 185.5 1264.49 185.5 1262L185.5 1241C185.5 1238.51 187.515 1236.5 190 1236.5Z" fill="#1f6286" fill-rule="nonzero" opacity="1" stroke="#000000" stroke-linecap="butt" stroke-linejoin="miter" stroke-width="1"/>
<text fill="#ffffff" font-family="Helvetica" font-size="9.6" opacity="1" stroke="none" text-anchor="middle" transform="matrix(1 0 0 1 237.72 1246)" x="0" y="0">
<tspan textLength="64.5609" x="33.7805" y="9">Cloud Services</tspan>
</text>
<path d="M5.5 1216L154.5 1216C156.157 1216 157.5 1217.34 157.5 1219L157.5 1233C157.5 1234.66 156.157 1236 154.5 1236L5.5 1236C3.84315 1236 2.5 1234.66 2.5 1233L2.5 1219C2.5 1217.34 3.84315 1216 5.5 1216Z" fill="#000000" fill-rule="nonzero" opacity="0.25" stroke="#000000" stroke-linecap="butt" stroke-linejoin="miter" stroke-width="1"/>
<path d="M3.5 1213L152.5 1213C154.157 1213 155.5 1214.34 155.5 1216L155.5 1230C155.5 1231.66 154.157 1233 152.5 1233L3.5 1233C1.84315 1233 0.5 1231.66 0.5 1230L0.5 1216C0.5 1214.34 1.84315 1213 3.5 1213Z" fill="#878787" fill-rule="nonzero" opacity="1" stroke="#000000" stroke-linecap="butt" stroke-linejoin="miter" stroke-width="1"/>
<text fill="#ffffff" font-family="Helvetica" font-size="8.8" opacity="1" stroke="none" text-anchor="middle" transform="matrix(1 0 0 1 44.4156 1217)" x="0" y="0">
<tspan textLength="67.1688" x="35.0844" y="9">AWS SageMaker</tspan>
</text>
<path d="M5.5 1244L154.5 1244C156.157 1244 157.5 1245.34 157.5 1247L157.5 1261C157.5 1262.66 156.157 1264 154.5 1264L5.5 1264C3.84315 1264 2.5 1262.66 2.5 1261L2.5 1247C2.5 1245.34 3.84315 1244 5.5 1244Z" fill="#000000" fill-rule="nonzero" opacity="0.25" stroke="#000000" stroke-linecap="butt" stroke-linejoin="miter" stroke-width="1"/>
<path d="M3.5 1241L152.5 1241C154.157 1241 155.5 1242.34 155.5 1244L155.5 1258C155.5 1259.66 154.157 1261 152.5 1261L3.5 1261C1.84315 1261 0.5 1259.66 0.5 1258L0.5 1244C0.5 1242.34 1.84315 1241 3.5 1241Z" fill="#878787" fill-rule="nonzero" opacity="1" stroke="#000000" stroke-linecap="butt" stroke-linejoin="miter" stroke-width="1"/>
<text fill="#ffffff" font-family="Helvetica" font-size="8.8" opacity="1" stroke="none" text-anchor="middle" transform="matrix(1 0 0 1 41.715 1245)" x="0" y="0">
<tspan textLength="72.5699" x="37.785" y="9">Google ML Engine</tspan>
</text>
<path d="M6.55 1271.5L153.45 1271.5C155.687 1271.5 157.5 1273.31 157.5 1275.55L157.5 1294.45C157.5 1296.69 155.687 1298.5 153.45 1298.5L6.55 1298.5C4.31325 1298.5 2.5 1296.69 2.5 1294.45L2.5 1275.55C2.5 1273.31 4.31325 1271.5 6.55 1271.5Z" fill="#000000" fill-rule="nonzero" opacity="0.25" stroke="#000000" stroke-linecap="butt" stroke-linejoin="miter" stroke-width="1"/>
<path d="M4.55 1268.5L151.45 1268.5C153.687 1268.5 155.5 1270.31 155.5 1272.55L155.5 1291.45C155.5 1293.69 153.687 1295.5 151.45 1295.5L4.55 1295.5C2.31325 1295.5 0.5 1293.69 0.5 1291.45L0.5 1272.55C0.5 1270.31 2.31325 1268.5 4.55 1268.5Z" fill="#878787" fill-rule="nonzero" opacity="1" stroke="#000000" stroke-linecap="butt" stroke-linejoin="miter" stroke-width="1"/>
<text fill="#ffffff" font-family="Helvetica" font-size="8.8" opacity="1" stroke="none" text-anchor="middle" transform="matrix(1 0 0 1 44.0096 1276)" x="0" y="0">
<tspan textLength="67.9809" x="35.4904" y="9">Microsoft Azure...</tspan>
</text>
<path d="M185.5 1251.5C185.5 1250.83 183.667 1250.5 180 1250.5C176.333 1250.5 174.5 1245.67 174.5 1236C174.5 1226.33 171.333 1221.5 165 1221.5C158.667 1221.5 155.5 1222 155.5 1223" fill="none" opacity="1" stroke="#1f6286" stroke-dasharray="1.0,2.0,1.0,2.0" stroke-linecap="butt" stroke-linejoin="miter" stroke-width="1"/>
<path d="M185.5 1251.5C185.5 1251.17 175.5 1251 155.5 1251" fill="none" opacity="1" stroke="#1f6286" stroke-dasharray="1.0,2.0,1.0,2.0" stroke-linecap="butt" stroke-linejoin="miter" stroke-width="1"/>
<path d="M185.5 1251.5C185.5 1250.83 183.833 1250.5 180.5 1250.5C177.167 1250.5 175.5 1256 175.5 1267C175.5 1278 172.167 1283.5 165.5 1283.5C158.833 1283.5 155.5 1283 155.5 1282" fill="none" opacity="1" stroke="#1f6286" stroke-dasharray="1.0,2.0,1.0,2.0" stroke-linecap="butt" stroke-linejoin="miter" stroke-width="1"/>
<path d="M270.5 1306.5C270.5 1330.17 293.667 1342 340 1342C386.333 1342 409.5 1353.83 409.5 1377.5" fill="none" opacity="1" stroke="#1f6286" stroke-dasharray="3.0" stroke-linecap="butt" stroke-linejoin="miter" stroke-width="1"/>
<text fill="#000000" font-family="Helvetica" font-size="16.8" opacity="1" stroke="none" text-anchor="middle" transform="matrix(1 0 0 1 322.145 1397)" x="0" y="0">
<tspan textLength="173.709" x="88.3547" y="16">keep exploring and st...</tspan>
</text>
<path d="M192 1279.5L353 1279.5C355.485 1279.5 357.5 1281.51 357.5 1284L357.5 1305C357.5 1307.49 355.485 1309.5 353 1309.5L192 1309.5C189.515 1309.5 187.5 1307.49 187.5 1305L187.5 1284C187.5 1281.51 189.515 1279.5 192 1279.5Z" fill="#000000" fill-rule="nonzero" opacity="0.25" stroke="#000000" stroke-linecap="butt" stroke-linejoin="miter" stroke-width="1"/>
<path d="M190 1276.5L351 1276.5C353.485 1276.5 355.5 1278.51 355.5 1281L355.5 1302C355.5 1304.49 353.485 1306.5 351 1306.5L190 1306.5C187.515 1306.5 185.5 1304.49 185.5 1302L185.5 1281C185.5 1278.51 187.515 1276.5 190 1276.5Z" fill="#1f6286" fill-rule="nonzero" opacity="1" stroke="#000000" stroke-linecap="butt" stroke-linejoin="miter" stroke-width="1"/>
<text fill="#ffffff" font-family="Helvetica" font-size="9.6" opacity="1" stroke="none" text-anchor="middle" transform="matrix(1 0 0 1 216.727 1286)" x="0" y="0">
<tspan textLength="106.547" x="54.7734" y="9">Awesome Production ML</tspan>
</text>
<path d="M192 919.5L353 919.5C355.485 919.5 357.5 921.515 357.5 924L357.5 945C357.5 947.485 355.485 949.5 353 949.5L192 949.5C189.515 949.5 187.5 947.485 187.5 945L187.5 924C187.5 921.515 189.515 919.5 192 919.5Z" fill="#000000" fill-rule="nonzero" opacity="0.25" stroke="#000000" stroke-linecap="butt" stroke-linejoin="miter" stroke-width="1"/>
<path d="M190 916.5L351 916.5C353.485 916.5 355.5 918.515 355.5 921L355.5 942C355.5 944.485 353.485 946.5 351 946.5L190 946.5C187.515 946.5 185.5 944.485 185.5 942L185.5 921C185.5 918.515 187.515 916.5 190 916.5Z" fill="#1f6286" fill-rule="nonzero" opacity="1" stroke="#000000" stroke-linecap="butt" stroke-linejoin="miter" stroke-width="1"/>
<text fill="#ffffff" font-family="Helvetica" font-size="9.6" opacity="1" stroke="none" text-anchor="middle" transform="matrix(1 0 0 1 259.064 926)" x="0" y="0">
<tspan textLength="21.8719" x="12.4359" y="9">Dask</tspan>
</text>
<path d="M192 959.5L353 959.5C355.485 959.5 357.5 961.515 357.5 964L357.5 985C357.5 987.485 355.485 989.5 353 989.5L192 989.5C189.515 989.5 187.5 987.485 187.5 985L187.5 964C187.5 961.515 189.515 959.5 192 959.5Z" fill="#000000" fill-rule="nonzero" opacity="0.25" stroke="#000000" stroke-linecap="butt" stroke-linejoin="miter" stroke-width="1"/>
<path d="M190 956.5L351 956.5C353.485 956.5 355.5 958.515 355.5 961L355.5 982C355.5 984.485 353.485 986.5 351 986.5L190 986.5C187.515 986.5 185.5 984.485 185.5 982L185.5 961C185.5 958.515 187.515 956.5 190 956.5Z" fill="#1f6286" fill-rule="nonzero" opacity="1" stroke="#000000" stroke-linecap="butt" stroke-linejoin="miter" stroke-width="1"/>
<text fill="#ffffff" font-family="Helvetica" font-size="9.6" opacity="1" stroke="none" text-anchor="middle" transform="matrix(1 0 0 1 254.527 966)" x="0" y="0">
<tspan textLength="30.9469" x="16.9734" y="9">Numba</tspan>
</text>
<path d="M192 999.5L353 999.5C355.485 999.5 357.5 1001.51 357.5 1004L357.5 1025C357.5 1027.49 355.485 1029.5 353 1029.5L192 1029.5C189.515 1029.5 187.5 1027.49 187.5 1025L187.5 1004C187.5 1001.51 189.515 999.5 192 999.5Z" fill="#000000" fill-rule="nonzero" opacity="0.25" stroke="#000000" stroke-linecap="butt" stroke-linejoin="miter" stroke-width="1"/>
<path d="M190 996.5L351 996.5C353.485 996.5 355.5 998.515 355.5 1001L355.5 1022C355.5 1024.49 353.485 1026.5 351 1026.5L190 1026.5C187.515 1026.5 185.5 1024.49 185.5 1022L185.5 1001C185.5 998.515 187.515 996.5 190 996.5Z" fill="#1f6286" fill-rule="nonzero" opacity="1" stroke="#000000" stroke-linecap="butt" stroke-linejoin="miter" stroke-width="1"/>
<text fill="#ffffff" font-family="Helvetica" font-size="9.6" opacity="1" stroke="none" text-anchor="middle" transform="matrix(1 0 0 1 258.527 1006)" x="0" y="0">
<tspan textLength="22.9453" x="12.9727" y="9">Onnx</tspan>
</text>
<path d="M192 1039.5L353 1039.5C355.485 1039.5 357.5 1041.51 357.5 1044L357.5 1065C357.5 1067.49 355.485 1069.5 353 1069.5L192 1069.5C189.515 1069.5 187.5 1067.49 187.5 1065L187.5 1044C187.5 1041.51 189.515 1039.5 192 1039.5Z" fill="#000000" fill-rule="nonzero" opacity="0.25" stroke="#000000" stroke-linecap="butt" stroke-linejoin="miter" stroke-width="1"/>
<path d="M190 1036.5L351 1036.5C353.485 1036.5 355.5 1038.51 355.5 1041L355.5 1062C355.5 1064.49 353.485 1066.5 351 1066.5L190 1066.5C187.515 1066.5 185.5 1064.49 185.5 1062L185.5 1041C185.5 1038.51 187.515 1036.5 190 1036.5Z" fill="#1f6286" fill-rule="nonzero" opacity="1" stroke="#000000" stroke-linecap="butt" stroke-linejoin="miter" stroke-width="1"/>
<text fill="#ffffff" font-family="Helvetica" font-size="9.6" opacity="1" stroke="none" text-anchor="middle" transform="matrix(1 0 0 1 248.735 1046)" x="0" y="0">
<tspan textLength="42.5297" x="22.7648" y="9">OpenVino</tspan>
</text>
</g>
</g>
</svg>
