<?xml version="1.0" encoding="UTF-8" standalone="no"?>
<!DOCTYPE svg PUBLIC "-//W3C//DTD SVG 1.1//EN" "http://www.w3.org/Graphics/SVG/1.1/DTD/svg11.dtd">
<!-- Created with Vectornator (http://vectornator.io/) -->
<svg height="1220.0px" stroke-miterlimit="10" style="fill-rule:nonzero;clip-rule:evenodd;stroke-linecap:round;stroke-linejoin:round;" version="1.1" viewBox="0 0 813 1220" width="813.0px" xml:space="preserve" xmlns="http://www.w3.org/2000/svg" xmlns:xlink="http://www.w3.org/1999/xlink">
<defs/>
<clipPath id="ArtboardFrame">
<rect height="1220" width="813" x="0" y="0"/>
</clipPath>
<g clip-path="url(#ArtboardFrame)" id="Untitled">
<g opacity="1">
<text fill="#000000" font-family="Helvetica" font-size="19.2" opacity="1" stroke="none" text-anchor="middle" transform="matrix(1 0 0 1 306.773 97)" x="0" y="0">
<tspan textLength="118.453" x="60.7266" y="19">Data Scientist</tspan>
</text>
<path d="M363 0.5C383.667 17.1667 386.5 29.6667 371.5 38C356.5 46.3333 354.833 60.1667 366.5 79.5" fill="none" opacity="1" stroke="#1f6286" stroke-dasharray="3.0" stroke-linecap="butt" stroke-linejoin="miter" stroke-width="1"/>
<path d="M366.5 139.5C366.5 186.367 381.333 209.8 411 209.8C440.667 209.8 455.5 233.2 455.5 280" fill="none" opacity="1" stroke="#1f6286" stroke-linecap="butt" stroke-linejoin="miter" stroke-width="1"/>
<path d="M377 283L538 283C540.485 283 542.5 285.015 542.5 287.5L542.5 308.5C542.5 310.985 540.485 313 538 313L377 313C374.515 313 372.5 310.985 372.5 308.5L372.5 287.5C372.5 285.015 374.515 283 377 283Z" fill="#000000" fill-rule="nonzero" opacity="0.25" stroke="#000000" stroke-linecap="butt" stroke-linejoin="miter" stroke-width="1"/>
<path d="M375 280L536 280C538.485 280 540.5 282.015 540.5 284.5L540.5 305.5C540.5 307.985 538.485 310 536 310L375 310C372.515 310 370.5 307.985 370.5 305.5L370.5 284.5C370.5 282.015 372.515 280 375 280Z" fill="#1f6286" fill-rule="nonzero" opacity="1" stroke="#000000" stroke-linecap="butt" stroke-linejoin="miter" stroke-width="1"/>
<text fill="#ffffff" font-family="Helvetica" font-size="9.6" opacity="1" stroke="none" text-anchor="middle" transform="matrix(1 0 0 1 416.401 289)" x="0" y="0">
<tspan textLength="77.1984" x="40.0992" y="9">Probability Theory</tspan>
</text>
<path d="M250.5 297.5C290.5 297.5 310.5 297.083 310.5 296.25C310.5 295.417 330.5 295 370.5 295" fill="none" opacity="1" stroke="#1f6286" stroke-dasharray="1.0,2.0,1.0,2.0" stroke-linecap="butt" stroke-linejoin="miter" stroke-width="1"/>
<path d="M25.5 290.5L249.5 290.5C251.157 290.5 252.5 291.843 252.5 293.5L252.5 307.5C252.5 309.157 251.157 310.5 249.5 310.5L25.5 310.5C23.8431 310.5 22.5 309.157 22.5 307.5L22.5 293.5C22.5 291.843 23.8431 290.5 25.5 290.5Z" fill="#000000" fill-rule="nonzero" opacity="0.25" stroke="#000000" stroke-linecap="butt" stroke-linejoin="miter" stroke-width="1"/>
<path d="M23.5 287.5L247.5 287.5C249.157 287.5 250.5 288.843 250.5 290.5L250.5 304.5C250.5 306.157 249.157 307.5 247.5 307.5L23.5 307.5C21.8431 307.5 20.5 306.157 20.5 304.5L20.5 290.5C20.5 288.843 21.8431 287.5 23.5 287.5Z" fill="#878787" fill-rule="nonzero" opacity="1" stroke="#000000" stroke-linecap="butt" stroke-linejoin="miter" stroke-width="1"/>
<text fill="#ffffff" font-family="Helvetica" font-size="8.8" opacity="1" stroke="none" text-anchor="middle" transform="matrix(1 0 0 1 91.9561 291)" x="0" y="0">
<tspan textLength="86.0879" x="44.5439" y="9">Probability distribution</tspan>
</text>
<path d="M250.5 264C290.5 264 310.5 269.167 310.5 279.5C310.5 289.833 330.5 295 370.5 295" fill="none" opacity="1" stroke="#1f6286" stroke-dasharray="1.0,2.0,1.0,2.0" stroke-linecap="butt" stroke-linejoin="miter" stroke-width="1"/>
<path d="M27 252L248 252C250.485 252 252.5 254.015 252.5 256.5L252.5 277.5C252.5 279.985 250.485 282 248 282L27 282C24.5147 282 22.5 279.985 22.5 277.5L22.5 256.5C22.5 254.015 24.5147 252 27 252Z" fill="#000000" fill-rule="nonzero" opacity="0.25" stroke="#000000" stroke-linecap="butt" stroke-linejoin="miter" stroke-width="1"/>
<path d="M25 249L246 249C248.485 249 250.5 251.015 250.5 253.5L250.5 274.5C250.5 276.985 248.485 279 246 279L25 279C22.5147 279 20.5 276.985 20.5 274.5L20.5 253.5C20.5 251.015 22.5147 249 25 249Z" fill="#878787" fill-rule="nonzero" opacity="1" stroke="#000000" stroke-linecap="butt" stroke-linejoin="miter" stroke-width="1"/>
<text fill="#ffffff" font-family="Helvetica" font-size="8.8" opacity="1" stroke="none" text-anchor="middle" transform="matrix(1 0 0 1 62.849 258)" x="0" y="0">
<tspan textLength="144.302" x="73.651" y="9">Randomness, random variable and...</tspan>
</text>
<path d="M250.5 330.5C290.5 330.5 310.5 324.583 310.5 312.75C310.5 300.917 330.5 295 370.5 295" fill="none" opacity="1" stroke="#1f6286" stroke-dasharray="1.0,2.0,1.0,2.0" stroke-linecap="butt" stroke-linejoin="miter" stroke-width="1"/>
<path d="M27 318.5L248 318.5C250.485 318.5 252.5 320.515 252.5 323L252.5 344C252.5 346.485 250.485 348.5 248 348.5L27 348.5C24.5147 348.5 22.5 346.485 22.5 344L22.5 323C22.5 320.515 24.5147 318.5 27 318.5Z" fill="#000000" fill-rule="nonzero" opacity="0.25" stroke="#000000" stroke-linecap="butt" stroke-linejoin="miter" stroke-width="1"/>
<path d="M25 315.5L246 315.5C248.485 315.5 250.5 317.515 250.5 320L250.5 341C250.5 343.485 248.485 345.5 246 345.5L25 345.5C22.5147 345.5 20.5 343.485 20.5 341L20.5 320C20.5 317.515 22.5147 315.5 25 315.5Z" fill="#878787" fill-rule="nonzero" opacity="1" stroke="#000000" stroke-linecap="butt" stroke-linejoin="miter" stroke-width="1"/>
<text fill="#ffffff" font-family="Helvetica" font-size="8.8" opacity="1" stroke="none" text-anchor="middle" transform="matrix(1 0 0 1 79.4758 324)" x="0" y="0">
<tspan textLength="111.048" x="57.0242" y="9">Conditional probability and...</tspan>
</text>
<path d="M250.5 363.5C290.5 363.5 310.5 352.083 310.5 329.25C310.5 306.417 330.5 295 370.5 295" fill="none" opacity="1" stroke="#1f6286" stroke-dasharray="1.0,2.0,1.0,2.0" stroke-linecap="butt" stroke-linejoin="miter" stroke-width="1"/>
<path d="M25.5 356.5L249.5 356.5C251.157 356.5 252.5 357.843 252.5 359.5L252.5 373.5C252.5 375.157 251.157 376.5 249.5 376.5L25.5 376.5C23.8431 376.5 22.5 375.157 22.5 373.5L22.5 359.5C22.5 357.843 23.8431 356.5 25.5 356.5Z" fill="#000000" fill-rule="nonzero" opacity="0.25" stroke="#000000" stroke-linecap="butt" stroke-linejoin="miter" stroke-width="1"/>
<path d="M23.5 353.5L247.5 353.5C249.157 353.5 250.5 354.843 250.5 356.5L250.5 370.5C250.5 372.157 249.157 373.5 247.5 373.5L23.5 373.5C21.8431 373.5 20.5 372.157 20.5 370.5L20.5 356.5C20.5 354.843 21.8431 353.5 23.5 353.5Z" fill="#878787" fill-rule="nonzero" opacity="1" stroke="#000000" stroke-linecap="butt" stroke-linejoin="miter" stroke-width="1"/>
<text fill="#ffffff" font-family="Helvetica" font-size="8.8" opacity="1" stroke="none" text-anchor="middle" transform="matrix(1 0 0 1 84.3699 357)" x="0" y="0">
<tspan textLength="101.26" x="52.1301" y="9">(Statistical) independence</tspan>
</text>
<path d="M250.5 394.5C290.5 394.5 310.5 377.917 310.5 344.75C310.5 311.583 330.5 295 370.5 295" fill="none" opacity="1" stroke="#1f6286" stroke-dasharray="1.0,2.0,1.0,2.0" stroke-linecap="butt" stroke-linejoin="miter" stroke-width="1"/>
<path d="M25.5 387.5L249.5 387.5C251.157 387.5 252.5 388.843 252.5 390.5L252.5 404.5C252.5 406.157 251.157 407.5 249.5 407.5L25.5 407.5C23.8431 407.5 22.5 406.157 22.5 404.5L22.5 390.5C22.5 388.843 23.8431 387.5 25.5 387.5Z" fill="#000000" fill-rule="nonzero" opacity="0.25" stroke="#000000" stroke-linecap="butt" stroke-linejoin="miter" stroke-width="1"/>
<path d="M23.5 384.5L247.5 384.5C249.157 384.5 250.5 385.843 250.5 387.5L250.5 401.5C250.5 403.157 249.157 404.5 247.5 404.5L23.5 404.5C21.8431 404.5 20.5 403.157 20.5 401.5L20.5 387.5C20.5 385.843 21.8431 384.5 23.5 384.5Z" fill="#878787" fill-rule="nonzero" opacity="1" stroke="#000000" stroke-linecap="butt" stroke-linejoin="miter" stroke-width="1"/>
<text fill="#ffffff" font-family="Helvetica" font-size="8.8" opacity="1" stroke="none" text-anchor="middle" transform="matrix(1 0 0 1 130.598 388)" x="0" y="0">
<tspan textLength="8.8043" x="5.90215" y="9">iid</tspan>
</text>
<path d="M250.5 424.5C290.5 424.5 310.5 402.917 310.5 359.75C310.5 316.583 330.5 295 370.5 295" fill="none" opacity="1" stroke="#1f6286" stroke-dasharray="1.0,2.0,1.0,2.0" stroke-linecap="butt" stroke-linejoin="miter" stroke-width="1"/>
<path d="M23.5 414.5L247.5 414.5C249.157 414.5 250.5 415.843 250.5 417.5L250.5 431.5C250.5 433.157 249.157 434.5 247.5 434.5L23.5 434.5C21.8431 434.5 20.5 433.157 20.5 431.5L20.5 417.5C20.5 415.843 21.8431 414.5 23.5 414.5Z" fill="#878787" fill-rule="nonzero" opacity="1" stroke="#000000" stroke-linecap="butt" stroke-linejoin="miter" stroke-width="1"/>
<text fill="#ffffff" font-family="Helvetica" font-size="8.8" opacity="1" stroke="none" text-anchor="middle" transform="matrix(1 0 0 1 110.789 418)" x="0" y="0">
<tspan textLength="48.4215" x="25.7107" y="9">cdf, pdf, pmf</tspan>
</text>
<path d="M540.5 344.5C540.5 345.167 548 345.5 563 345.5C578 345.5 585.5 296.167 585.5 197.5C585.5 98.8333 620.333 49.5 690 49.5" fill="none" opacity="1" stroke="#1f6286" stroke-dasharray="1.0,2.0,1.0,2.0" stroke-linecap="butt" stroke-linejoin="miter" stroke-width="1"/>
<path d="M540.5 344.5C540.5 345.167 548 345.5 563 345.5C578 345.5 585.5 300.333 585.5 210C585.5 119.667 620.333 74.5 690 74.5" fill="none" opacity="1" stroke="#1f6286" stroke-dasharray="1.0,2.0,1.0,2.0" stroke-linecap="butt" stroke-linejoin="miter" stroke-width="1"/>
<path d="M377 332.5L538 332.5C540.485 332.5 542.5 334.515 542.5 337L542.5 358C542.5 360.485 540.485 362.5 538 362.5L377 362.5C374.515 362.5 372.5 360.485 372.5 358L372.5 337C372.5 334.515 374.515 332.5 377 332.5Z" fill="#000000" fill-rule="nonzero" opacity="0.25" stroke="#000000" stroke-linecap="butt" stroke-linejoin="miter" stroke-width="1"/>
<path d="M375 329.5L536 329.5C538.485 329.5 540.5 331.515 540.5 334L540.5 355C540.5 357.485 538.485 359.5 536 359.5L375 359.5C372.515 359.5 370.5 357.485 370.5 355L370.5 334C370.5 331.515 372.515 329.5 375 329.5Z" fill="#1f6286" fill-rule="nonzero" opacity="1" stroke="#000000" stroke-linecap="butt" stroke-linejoin="miter" stroke-width="1"/>
<text fill="#ffffff" font-family="Helvetica" font-size="9.6" opacity="1" stroke="none" text-anchor="middle" transform="matrix(1 0 0 1 391.498 339)" x="0" y="0">
<tspan textLength="127.003" x="65.0016" y="9">Continuous distributions (pd...</tspan>
</text>
<path d="M70.5 449.5C27.1667 449.5 5.5 445.333 5.5 437C5.5 428.667 10.5 424.5 20.5 424.5" fill="none" opacity="1" stroke="#1b3cb3" stroke-dasharray="1.0,2.0,1.0,2.0" stroke-linecap="butt" stroke-linejoin="miter" stroke-width="1"/>
<path d="M74.75 445L250.25 445C251.493 445 252.5 446.007 252.5 447.25L252.5 457.75C252.5 458.993 251.493 460 250.25 460L74.75 460C73.5074 460 72.5 458.993 72.5 457.75L72.5 447.25C72.5 446.007 73.5074 445 74.75 445Z" fill="#000000" fill-rule="nonzero" opacity="0.25" stroke="#000000" stroke-linecap="butt" stroke-linejoin="miter" stroke-width="1"/>
<path d="M72.75 442L248.25 442C249.493 442 250.5 443.007 250.5 444.25L250.5 454.75C250.5 455.993 249.493 457 248.25 457L72.75 457C71.5074 457 70.5 455.993 70.5 454.75L70.5 444.25C70.5 443.007 71.5074 442 72.75 442Z" fill="#878787" fill-rule="nonzero" opacity="1" stroke="#000000" stroke-linecap="butt" stroke-linejoin="miter" stroke-width="1"/>
<text fill="#ffffff" font-family="Helvetica" font-size="8" opacity="1" stroke="none" text-anchor="middle" transform="matrix(1 0 0 1 94.4141 444)" x="0" y="0">
<tspan textLength="131.172" x="67.0859" y="8">Cumulative distribution function (cd...</tspan>
</text>
<path d="M70.5 469.5C23.8333 469.5 0.5 462 0.5 447C0.5 432 7.16667 424.5 20.5 424.5" fill="none" opacity="1" stroke="#1b3cb3" stroke-dasharray="1.0,2.0,1.0,2.0" stroke-linecap="butt" stroke-linejoin="miter" stroke-width="1"/>
<path d="M74.75 465L250.25 465C251.493 465 252.5 466.007 252.5 467.25L252.5 477.75C252.5 478.993 251.493 480 250.25 480L74.75 480C73.5074 480 72.5 478.993 72.5 477.75L72.5 467.25C72.5 466.007 73.5074 465 74.75 465Z" fill="#000000" fill-rule="nonzero" opacity="0.25" stroke="#000000" stroke-linecap="butt" stroke-linejoin="miter" stroke-width="1"/>
<path d="M72.75 462L248.25 462C249.493 462 250.5 463.007 250.5 464.25L250.5 474.75C250.5 475.993 249.493 477 248.25 477L72.75 477C71.5074 477 70.5 475.993 70.5 474.75L70.5 464.25C70.5 463.007 71.5074 462 72.75 462Z" fill="#878787" fill-rule="nonzero" opacity="1" stroke="#000000" stroke-linecap="butt" stroke-linejoin="miter" stroke-width="1"/>
<text fill="#ffffff" font-family="Helvetica" font-size="8" opacity="1" stroke="none" text-anchor="middle" transform="matrix(1 0 0 1 103.082 464)" x="0" y="0">
<tspan textLength="113.836" x="58.418" y="8">Probability density function (pdf)</tspan>
</text>
<path d="M70.5 489.5C23.8333 489.5 0.5 478.667 0.5 457C0.5 435.333 7.16667 424.5 20.5 424.5" fill="none" opacity="1" stroke="#1b3cb3" stroke-dasharray="1.0,2.0,1.0,2.0" stroke-linecap="butt" stroke-linejoin="miter" stroke-width="1"/>
<path d="M74.75 485L250.25 485C251.493 485 252.5 486.007 252.5 487.25L252.5 497.75C252.5 498.993 251.493 500 250.25 500L74.75 500C73.5074 500 72.5 498.993 72.5 497.75L72.5 487.25C72.5 486.007 73.5074 485 74.75 485Z" fill="#000000" fill-rule="nonzero" opacity="0.25" stroke="#000000" stroke-linecap="butt" stroke-linejoin="miter" stroke-width="1"/>
<path d="M72.75 482L248.25 482C249.493 482 250.5 483.007 250.5 484.25L250.5 494.75C250.5 495.993 249.493 497 248.25 497L72.75 497C71.5074 497 70.5 495.993 70.5 494.75L70.5 484.25C70.5 483.007 71.5074 482 72.75 482Z" fill="#878787" fill-rule="nonzero" opacity="1" stroke="#000000" stroke-linecap="butt" stroke-linejoin="miter" stroke-width="1"/>
<text fill="#ffffff" font-family="Helvetica" font-size="8" opacity="1" stroke="none" text-anchor="middle" transform="matrix(1 0 0 1 105.092 484)" x="0" y="0">
<tspan textLength="109.816" x="56.4082" y="8">Probability mass function (pmf)</tspan>
</text>
<path d="M695 42.5L809 42.5C810.657 42.5 812 43.8431 812 45.5L812 59.5C812 61.1569 810.657 62.5 809 62.5L695 62.5C693.343 62.5 692 61.1569 692 59.5L692 45.5C692 43.8431 693.343 42.5 695 42.5Z" fill="#000000" fill-rule="nonzero" opacity="0.25" stroke="#000000" stroke-linecap="butt" stroke-linejoin="miter" stroke-width="1"/>
<path d="M693 39.5L807 39.5C808.657 39.5 810 40.8431 810 42.5L810 56.5C810 58.1569 808.657 59.5 807 59.5L693 59.5C691.343 59.5 690 58.1569 690 56.5L690 42.5C690 40.8431 691.343 39.5 693 39.5Z" fill="#878787" fill-rule="nonzero" opacity="1" stroke="#000000" stroke-linecap="butt" stroke-linejoin="miter" stroke-width="1"/>
<text fill="#ffffff" font-family="Helvetica" font-size="8.8" opacity="1" stroke="none" text-anchor="middle" transform="matrix(1 0 0 1 713.565 43)" x="0" y="0">
<tspan textLength="72.8707" x="37.9354" y="9">Normal / Gaussian</tspan>
</text>
<path d="M695 67.5L809 67.5C810.657 67.5 812 68.8431 812 70.5L812 84.5C812 86.1569 810.657 87.5 809 87.5L695 87.5C693.343 87.5 692 86.1569 692 84.5L692 70.5C692 68.8431 693.343 67.5 695 67.5Z" fill="#000000" fill-rule="nonzero" opacity="0.25" stroke="#000000" stroke-linecap="butt" stroke-linejoin="miter" stroke-width="1"/>
<path d="M693 64.5L807 64.5C808.657 64.5 810 65.8431 810 67.5L810 81.5C810 83.1569 808.657 84.5 807 84.5L693 84.5C691.343 84.5 690 83.1569 690 81.5L690 67.5C690 65.8431 691.343 64.5 693 64.5Z" fill="#878787" fill-rule="nonzero" opacity="1" stroke="#000000" stroke-linecap="butt" stroke-linejoin="miter" stroke-width="1"/>
<text fill="#ffffff" font-family="Helvetica" font-size="8.8" opacity="1" stroke="none" text-anchor="middle" transform="matrix(1 0 0 1 709.162 68)" x="0" y="0">
<tspan textLength="81.675" x="42.3375" y="9">Uniform (continuous)</tspan>
</text>
<path d="M690 99.5C620.333 99.5 585.5 140.5 585.5 222.5C585.5 304.5 570.5 345.167 540.5 344.5" fill="none" opacity="1" stroke="#1f6286" stroke-dasharray="1.0,2.0,1.0,2.0" stroke-linecap="butt" stroke-linejoin="miter" stroke-width="1"/>
<path d="M695 92.5L809 92.5C810.657 92.5 812 93.8431 812 95.5L812 109.5C812 111.157 810.657 112.5 809 112.5L695 112.5C693.343 112.5 692 111.157 692 109.5L692 95.5C692 93.8431 693.343 92.5 695 92.5Z" fill="#000000" fill-rule="nonzero" opacity="0.25" stroke="#000000" stroke-linecap="butt" stroke-linejoin="miter" stroke-width="1"/>
<path d="M693 89.5L807 89.5C808.657 89.5 810 90.8431 810 92.5L810 106.5C810 108.157 808.657 109.5 807 109.5L693 109.5C691.343 109.5 690 108.157 690 106.5L690 92.5C690 90.8431 691.343 89.5 693 89.5Z" fill="#878787" fill-rule="nonzero" opacity="1" stroke="#000000" stroke-linecap="butt" stroke-linejoin="miter" stroke-width="1"/>
<text fill="#ffffff" font-family="Helvetica" font-size="8.8" opacity="1" stroke="none" text-anchor="middle" transform="matrix(1 0 0 1 740.949 93)" x="0" y="0">
<tspan textLength="18.1027" x="10.5514" y="9">Beta</tspan>
</text>
<path d="M690 124.5C620.333 124.5 585.5 161.333 585.5 235C585.5 308.667 570.5 345.167 540.5 344.5" fill="none" opacity="1" stroke="#1f6286" stroke-dasharray="1.0,2.0,1.0,2.0" stroke-linecap="butt" stroke-linejoin="miter" stroke-width="1"/>
<path d="M695 117.5L809 117.5C810.657 117.5 812 118.843 812 120.5L812 134.5C812 136.157 810.657 137.5 809 137.5L695 137.5C693.343 137.5 692 136.157 692 134.5L692 120.5C692 118.843 693.343 117.5 695 117.5Z" fill="#000000" fill-rule="nonzero" opacity="0.25" stroke="#000000" stroke-linecap="butt" stroke-linejoin="miter" stroke-width="1"/>
<path d="M693 114.5L807 114.5C808.657 114.5 810 115.843 810 117.5L810 131.5C810 133.157 808.657 134.5 807 134.5L693 134.5C691.343 134.5 690 133.157 690 131.5L690 117.5C690 115.843 691.343 114.5 693 114.5Z" fill="#878787" fill-rule="nonzero" opacity="1" stroke="#000000" stroke-linecap="butt" stroke-linejoin="miter" stroke-width="1"/>
<text fill="#ffffff" font-family="Helvetica" font-size="8.8" opacity="1" stroke="none" text-anchor="middle" transform="matrix(1 0 0 1 734.108 118)" x="0" y="0">
<tspan textLength="31.784" x="17.392" y="9">Dirichlet</tspan>
</text>
<path d="M690.5 149.5C620.5 149.5 585.5 182.167 585.5 247.5C585.5 312.833 570.5 345.167 540.5 344.5" fill="none" opacity="1" stroke="#1f6286" stroke-dasharray="1.0,2.0,1.0,2.0" stroke-linecap="butt" stroke-linejoin="miter" stroke-width="1"/>
<path d="M695.5 142.5L809.5 142.5C811.157 142.5 812.5 143.843 812.5 145.5L812.5 159.5C812.5 161.157 811.157 162.5 809.5 162.5L695.5 162.5C693.843 162.5 692.5 161.157 692.5 159.5L692.5 145.5C692.5 143.843 693.843 142.5 695.5 142.5Z" fill="#000000" fill-rule="nonzero" opacity="0.25" stroke="#000000" stroke-linecap="butt" stroke-linejoin="miter" stroke-width="1"/>
<path d="M693.5 139.5L807.5 139.5C809.157 139.5 810.5 140.843 810.5 142.5L810.5 156.5C810.5 158.157 809.157 159.5 807.5 159.5L693.5 159.5C691.843 159.5 690.5 158.157 690.5 156.5L690.5 142.5C690.5 140.843 691.843 139.5 693.5 139.5Z" fill="#878787" fill-rule="nonzero" opacity="1" stroke="#000000" stroke-linecap="butt" stroke-linejoin="miter" stroke-width="1"/>
<text fill="#ffffff" font-family="Helvetica" font-size="8.8" opacity="1" stroke="none" text-anchor="middle" transform="matrix(1 0 0 1 727.005 143)" x="0" y="0">
<tspan textLength="45.9895" x="24.4947" y="9">Exponential</tspan>
</text>
<path d="M690 174.5C620.333 174.5 585.5 203 585.5 260C585.5 317 570.5 345.167 540.5 344.5" fill="none" opacity="1" stroke="#1f6286" stroke-dasharray="1.0,2.0,1.0,2.0" stroke-linecap="butt" stroke-linejoin="miter" stroke-width="1"/>
<path d="M695 213.5L809 213.5C810.657 213.5 812 214.843 812 216.5L812 230.5C812 232.157 810.657 233.5 809 233.5L695 233.5C693.343 233.5 692 232.157 692 230.5L692 216.5C692 214.843 693.343 213.5 695 213.5Z" fill="#000000" fill-rule="nonzero" opacity="0.25" stroke="#000000" stroke-linecap="butt" stroke-linejoin="miter" stroke-width="1"/>
<path d="M693 210.5L807 210.5C808.657 210.5 810 211.843 810 213.5L810 227.5C810 229.157 808.657 230.5 807 230.5L693 230.5C691.343 230.5 690 229.157 690 227.5L690 213.5C690 211.843 691.343 210.5 693 210.5Z" fill="#878787" fill-rule="nonzero" opacity="1" stroke="#000000" stroke-linecap="butt" stroke-linejoin="miter" stroke-width="1"/>
<text fill="#ffffff" font-family="Helvetica" font-size="8.8" opacity="1" stroke="none" text-anchor="middle" transform="matrix(1 0 0 1 715.038 214)" x="0" y="0">
<tspan textLength="69.923" x="36.4615" y="9">Uniform (discrete)</tspan>
</text>
<path d="M540.5 394.5C590.367 394.5 615.3 365.5 615.3 307.5C615.3 249.5 640.2 220.5 690 220.5" fill="none" opacity="1" stroke="#1f6286" stroke-dasharray="1.0,2.0,1.0,2.0" stroke-linecap="butt" stroke-linejoin="miter" stroke-width="1"/>
<path d="M377 382.5L538 382.5C540.485 382.5 542.5 384.515 542.5 387L542.5 408C542.5 410.485 540.485 412.5 538 412.5L377 412.5C374.515 412.5 372.5 410.485 372.5 408L372.5 387C372.5 384.515 374.515 382.5 377 382.5Z" fill="#000000" fill-rule="nonzero" opacity="0.25" stroke="#000000" stroke-linecap="butt" stroke-linejoin="miter" stroke-width="1"/>
<path d="M375 379.5L536 379.5C538.485 379.5 540.5 381.515 540.5 384L540.5 405C540.5 407.485 538.485 409.5 536 409.5L375 409.5C372.515 409.5 370.5 407.485 370.5 405L370.5 384C370.5 381.515 372.515 379.5 375 379.5Z" fill="#1f6286" fill-rule="nonzero" opacity="1" stroke="#000000" stroke-linecap="butt" stroke-linejoin="miter" stroke-width="1"/>
<text fill="#ffffff" font-family="Helvetica" font-size="9.6" opacity="1" stroke="none" text-anchor="middle" transform="matrix(1 0 0 1 394.599 389)" x="0" y="0">
<tspan textLength="120.802" x="61.9008" y="9">Discrete distributions (pmf&#x27;...</tspan>
</text>
<path d="M695 167.5L809 167.5C810.657 167.5 812 168.843 812 170.5L812 184.5C812 186.157 810.657 187.5 809 187.5L695 187.5C693.343 187.5 692 186.157 692 184.5L692 170.5C692 168.843 693.343 167.5 695 167.5Z" fill="#000000" fill-rule="nonzero" opacity="0.25" stroke="#000000" stroke-linecap="butt" stroke-linejoin="miter" stroke-width="1"/>
<path d="M693 164.5L807 164.5C808.657 164.5 810 165.843 810 167.5L810 181.5C810 183.157 808.657 184.5 807 184.5L693 184.5C691.343 184.5 690 183.157 690 181.5L690 167.5C690 165.843 691.343 164.5 693 164.5Z" fill="#878787" fill-rule="nonzero" opacity="1" stroke="#000000" stroke-linecap="butt" stroke-linejoin="miter" stroke-width="1"/>
<text fill="#ffffff" font-family="Helvetica" font-size="8.8" opacity="1" stroke="none" text-anchor="middle" transform="matrix(1 0 0 1 717.962 168)" x="0" y="0">
<tspan textLength="64.075" x="33.5375" y="9">χ2 (chi-squared)</tspan>
</text>
<path d="M690 246C640.2 246 615.3 270.75 615.3 320.25C615.3 369.75 590.367 394.5 540.5 394.5" fill="none" opacity="1" stroke="#1f6286" stroke-dasharray="1.0,2.0,1.0,2.0" stroke-linecap="butt" stroke-linejoin="miter" stroke-width="1"/>
<path d="M695 239L809 239C810.657 239 812 240.343 812 242L812 256C812 257.657 810.657 259 809 259L695 259C693.343 259 692 257.657 692 256L692 242C692 240.343 693.343 239 695 239Z" fill="#000000" fill-rule="nonzero" opacity="0.25" stroke="#000000" stroke-linecap="butt" stroke-linejoin="miter" stroke-width="1"/>
<path d="M693 236L807 236C808.657 236 810 237.343 810 239L810 253C810 254.657 808.657 256 807 256L693 256C691.343 256 690 254.657 690 253L690 239C690 237.343 691.343 236 693 236Z" fill="#878787" fill-rule="nonzero" opacity="1" stroke="#000000" stroke-linecap="butt" stroke-linejoin="miter" stroke-width="1"/>
<text fill="#ffffff" font-family="Helvetica" font-size="8.8" opacity="1" stroke="none" text-anchor="middle" transform="matrix(1 0 0 1 733.126 240)" x="0" y="0">
<tspan textLength="33.7477" x="18.3738" y="9">Binomial</tspan>
</text>
<path d="M690 271C640.2 271 615.3 291.583 615.3 332.75C615.3 373.917 590.367 394.5 540.5 394.5" fill="none" opacity="1" stroke="#1f6286" stroke-dasharray="1.0,2.0,1.0,2.0" stroke-linecap="butt" stroke-linejoin="miter" stroke-width="1"/>
<path d="M695 264L809 264C810.657 264 812 265.343 812 267L812 281C812 282.657 810.657 284 809 284L695 284C693.343 284 692 282.657 692 281L692 267C692 265.343 693.343 264 695 264Z" fill="#000000" fill-rule="nonzero" opacity="0.25" stroke="#000000" stroke-linecap="butt" stroke-linejoin="miter" stroke-width="1"/>
<path d="M693 261L807 261C808.657 261 810 262.343 810 264L810 278C810 279.657 808.657 281 807 281L693 281C691.343 281 690 279.657 690 278L690 264C690 262.343 691.343 261 693 261Z" fill="#878787" fill-rule="nonzero" opacity="1" stroke="#000000" stroke-linecap="butt" stroke-linejoin="miter" stroke-width="1"/>
<text fill="#ffffff" font-family="Helvetica" font-size="8.8" opacity="1" stroke="none" text-anchor="middle" transform="matrix(1 0 0 1 727.749 265)" x="0" y="0">
<tspan textLength="44.5027" x="23.7514" y="9">Multinomial</tspan>
</text>
<path d="M690 296C640.2 296 615.3 312.417 615.3 345.25C615.3 378.083 590.367 394.5 540.5 394.5" fill="none" opacity="1" stroke="#1f6286" stroke-dasharray="1.0,2.0,1.0,2.0" stroke-linecap="butt" stroke-linejoin="miter" stroke-width="1"/>
<path d="M695 289L809 289C810.657 289 812 290.343 812 292L812 306C812 307.657 810.657 309 809 309L695 309C693.343 309 692 307.657 692 306L692 292C692 290.343 693.343 289 695 289Z" fill="#000000" fill-rule="nonzero" opacity="0.25" stroke="#000000" stroke-linecap="butt" stroke-linejoin="miter" stroke-width="1"/>
<path d="M693 286L807 286C808.657 286 810 287.343 810 289L810 303C810 304.657 808.657 306 807 306L693 306C691.343 306 690 304.657 690 303L690 289C690 287.343 691.343 286 693 286Z" fill="#878787" fill-rule="nonzero" opacity="1" stroke="#000000" stroke-linecap="butt" stroke-linejoin="miter" stroke-width="1"/>
<text fill="#ffffff" font-family="Helvetica" font-size="8.8" opacity="1" stroke="none" text-anchor="middle" transform="matrix(1 0 0 1 718.944 290)" x="0" y="0">
<tspan textLength="62.1113" x="32.5557" y="9">Hypergeometric</tspan>
</text>
<path d="M690 321C640.2 321 615.3 333.25 615.3 357.75C615.3 382.25 590.367 394.5 540.5 394.5" fill="none" opacity="1" stroke="#1f6286" stroke-dasharray="1.0,2.0,1.0,2.0" stroke-linecap="butt" stroke-linejoin="miter" stroke-width="1"/>
<path d="M695 314L809 314C810.657 314 812 315.343 812 317L812 331C812 332.657 810.657 334 809 334L695 334C693.343 334 692 332.657 692 331L692 317C692 315.343 693.343 314 695 314Z" fill="#000000" fill-rule="nonzero" opacity="0.25" stroke="#000000" stroke-linecap="butt" stroke-linejoin="miter" stroke-width="1"/>
<path d="M693 311L807 311C808.657 311 810 312.343 810 314L810 328C810 329.657 808.657 331 807 331L693 331C691.343 331 690 329.657 690 328L690 314C690 312.343 691.343 311 693 311Z" fill="#878787" fill-rule="nonzero" opacity="1" stroke="#000000" stroke-linecap="butt" stroke-linejoin="miter" stroke-width="1"/>
<text fill="#ffffff" font-family="Helvetica" font-size="8.8" opacity="1" stroke="none" text-anchor="middle" transform="matrix(1 0 0 1 734.346 315)" x="0" y="0">
<tspan textLength="31.307" x="17.1535" y="9">Poisson</tspan>
</text>
<path d="M630.5 387.5L808.5 387.5C810.157 387.5 811.5 388.843 811.5 390.5L811.5 404.5C811.5 406.157 810.157 407.5 808.5 407.5L630.5 407.5C628.843 407.5 627.5 406.157 627.5 404.5L627.5 390.5C627.5 388.843 628.843 387.5 630.5 387.5Z" fill="#000000" fill-rule="nonzero" opacity="0.25" stroke="#000000" stroke-linecap="butt" stroke-linejoin="miter" stroke-width="1"/>
<path d="M628.5 384.5L806.5 384.5C808.157 384.5 809.5 385.843 809.5 387.5L809.5 401.5C809.5 403.157 808.157 404.5 806.5 404.5L628.5 404.5C626.843 404.5 625.5 403.157 625.5 401.5L625.5 387.5C625.5 385.843 626.843 384.5 628.5 384.5Z" fill="#878787" fill-rule="nonzero" opacity="1" stroke="#000000" stroke-linecap="butt" stroke-linejoin="miter" stroke-width="1"/>
<text fill="#ffffff" font-family="Helvetica" font-size="8.8" opacity="1" stroke="none" text-anchor="middle" transform="matrix(1 0 0 1 673.215 388)" x="0" y="0">
<tspan textLength="87.5703" x="45.2852" y="9">Expectation and mean</tspan>
</text>
<path d="M375 479.5L536 479.5C538.485 479.5 540.5 481.515 540.5 484L540.5 505C540.5 507.485 538.485 509.5 536 509.5L375 509.5C372.515 509.5 370.5 507.485 370.5 505L370.5 484C370.5 481.515 372.515 479.5 375 479.5Z" fill="#1f6286" fill-rule="nonzero" opacity="1" stroke="#000000" stroke-linecap="butt" stroke-linejoin="miter" stroke-width="1"/>
<text fill="#ffffff" font-family="Helvetica" font-size="9.6" opacity="1" stroke="none" text-anchor="middle" transform="matrix(1 0 0 1 422.185 489)" x="0" y="0">
<tspan textLength="65.6297" x="34.3148" y="9">Important Laws</tspan>
</text>
<path d="M540.5 444.5C568.833 444.5 583 436.167 583 419.5C583 402.833 597.167 394.5 625.5 394.5" fill="none" opacity="1" stroke="#1f6286" stroke-dasharray="1.0,2.0,1.0,2.0" stroke-linecap="butt" stroke-linejoin="miter" stroke-width="1"/>
<path d="M377 432.5L538 432.5C540.485 432.5 542.5 434.515 542.5 437L542.5 458C542.5 460.485 540.485 462.5 538 462.5L377 462.5C374.515 462.5 372.5 460.485 372.5 458L372.5 437C372.5 434.515 374.515 432.5 377 432.5Z" fill="#000000" fill-rule="nonzero" opacity="0.25" stroke="#000000" stroke-linecap="butt" stroke-linejoin="miter" stroke-width="1"/>
<path d="M375 429.5L536 429.5C538.485 429.5 540.5 431.515 540.5 434L540.5 455C540.5 457.485 538.485 459.5 536 459.5L375 459.5C372.515 459.5 370.5 457.485 370.5 455L370.5 434C370.5 431.515 372.515 429.5 375 429.5Z" fill="#1f6286" fill-rule="nonzero" opacity="1" stroke="#000000" stroke-linecap="butt" stroke-linejoin="miter" stroke-width="1"/>
<text fill="#ffffff" font-family="Helvetica" font-size="9.6" opacity="1" stroke="none" text-anchor="middle" transform="matrix(1 0 0 1 414.727 439)" x="0" y="0">
<tspan textLength="80.5453" x="41.7727" y="9">Summary statistics</tspan>
</text>
<path d="M370.5 544.5C370.5 548.5 366.333 550.5 358 550.5C349.667 550.5 345.5 567 345.5 600C345.5 633 329.833 649.5 298.5 649.5" fill="none" opacity="1" stroke="#1f6286" stroke-dasharray="1.0,2.0,1.0,2.0" stroke-linecap="butt" stroke-linejoin="miter" stroke-width="1"/>
<path d="M370.5 544.5C370.5 548.5 366.333 550.5 358 550.5C349.667 550.5 345.5 572 345.5 615C345.5 658 329.833 679.5 298.5 679.5" fill="none" opacity="1" stroke="#1f6286" stroke-dasharray="1.0,2.0,1.0,2.0" stroke-linecap="butt" stroke-linejoin="miter" stroke-width="1"/>
<path d="M377 532.5L538 532.5C540.485 532.5 542.5 534.515 542.5 537L542.5 558C542.5 560.485 540.485 562.5 538 562.5L377 562.5C374.515 562.5 372.5 560.485 372.5 558L372.5 537C372.5 534.515 374.515 532.5 377 532.5Z" fill="#000000" fill-rule="nonzero" opacity="0.25" stroke="#000000" stroke-linecap="butt" stroke-linejoin="miter" stroke-width="1"/>
<path d="M375 529.5L536 529.5C538.485 529.5 540.5 531.515 540.5 534L540.5 555C540.5 557.485 538.485 559.5 536 559.5L375 559.5C372.515 559.5 370.5 557.485 370.5 555L370.5 534C370.5 531.515 372.515 529.5 375 529.5Z" fill="#1f6286" fill-rule="nonzero" opacity="1" stroke="#000000" stroke-linecap="butt" stroke-linejoin="miter" stroke-width="1"/>
<text fill="#ffffff" font-family="Helvetica" font-size="9.6" opacity="1" stroke="none" text-anchor="middle" transform="matrix(1 0 0 1 432.591 539)" x="0" y="0">
<tspan textLength="44.8172" x="23.9086" y="9">Estimation</tspan>
</text>
<path d="M540.5 594.5C540.5 594.5 573.667 594.5 640 594.5" fill="none" opacity="1" stroke="#1f6286" stroke-dasharray="1.0,2.0,1.0,2.0" stroke-linecap="butt" stroke-linejoin="miter" stroke-width="1"/>
<path d="M377 582.5L538 582.5C540.485 582.5 542.5 584.515 542.5 587L542.5 608C542.5 610.485 540.485 612.5 538 612.5L377 612.5C374.515 612.5 372.5 610.485 372.5 608L372.5 587C372.5 584.515 374.515 582.5 377 582.5Z" fill="#000000" fill-rule="nonzero" opacity="0.25" stroke="#000000" stroke-linecap="butt" stroke-linejoin="miter" stroke-width="1"/>
<path d="M375 579.5L536 579.5C538.485 579.5 540.5 581.515 540.5 584L540.5 605C540.5 607.485 538.485 609.5 536 609.5L375 609.5C372.515 609.5 370.5 607.485 370.5 605L370.5 584C370.5 581.515 372.515 579.5 375 579.5Z" fill="#1f6286" fill-rule="nonzero" opacity="1" stroke="#000000" stroke-linecap="butt" stroke-linejoin="miter" stroke-width="1"/>
<text fill="#ffffff" font-family="Helvetica" font-size="9.6" opacity="1" stroke="none" text-anchor="middle" transform="matrix(1 0 0 1 414.798 589)" x="0" y="0">
<tspan textLength="80.4047" x="41.7023" y="9">Hypothesis Testing</tspan>
</text>
<path d="M377 632.5L538 632.5C540.485 632.5 542.5 634.515 542.5 637L542.5 658C542.5 660.485 540.485 662.5 538 662.5L377 662.5C374.515 662.5 372.5 660.485 372.5 658L372.5 637C372.5 634.515 374.515 632.5 377 632.5Z" fill="#000000" fill-rule="nonzero" opacity="0.25" stroke="#000000" stroke-linecap="butt" stroke-linejoin="miter" stroke-width="1"/>
<path d="M375 629.5L536 629.5C538.485 629.5 540.5 631.515 540.5 634L540.5 655C540.5 657.485 538.485 659.5 536 659.5L375 659.5C372.515 659.5 370.5 657.485 370.5 655L370.5 634C370.5 631.515 372.515 629.5 375 629.5Z" fill="#1f6286" fill-rule="nonzero" opacity="1" stroke="#000000" stroke-linecap="butt" stroke-linejoin="miter" stroke-width="1"/>
<text fill="#ffffff" font-family="Helvetica" font-size="9.6" opacity="1" stroke="none" text-anchor="middle" transform="matrix(1 0 0 1 385.909 639)" x="0" y="0">
<tspan textLength="138.183" x="70.5914" y="9">Confidence Interval (CI)%3Cm...</tspan>
</text>
<path d="M377 682.5L538 682.5C540.485 682.5 542.5 684.515 542.5 687L542.5 708C542.5 710.485 540.485 712.5 538 712.5L377 712.5C374.515 712.5 372.5 710.485 372.5 708L372.5 687C372.5 684.515 374.515 682.5 377 682.5Z" fill="#000000" fill-rule="nonzero" opacity="0.25" stroke="#000000" stroke-linecap="butt" stroke-linejoin="miter" stroke-width="1"/>
<path d="M375 679.5L536 679.5C538.485 679.5 540.5 681.515 540.5 684L540.5 705C540.5 707.485 538.485 709.5 536 709.5L375 709.5C372.515 709.5 370.5 707.485 370.5 705L370.5 684C370.5 681.515 372.515 679.5 375 679.5Z" fill="#1f6286" fill-rule="nonzero" opacity="1" stroke="#000000" stroke-linecap="butt" stroke-linejoin="miter" stroke-width="1"/>
<text fill="#ffffff" font-family="Helvetica" font-size="9.6" opacity="1" stroke="none" text-anchor="middle" transform="matrix(1 0 0 1 411.512 689)" x="0" y="0">
<tspan textLength="86.9766" x="44.9883" y="9">Monte Carlo Method</tspan>
</text>
<path d="M690 346C640.2 346 615.3 354.083 615.3 370.25C615.3 386.417 590.367 394.5 540.5 394.5" fill="none" opacity="1" stroke="#1f6286" stroke-dasharray="1.0,2.0,1.0,2.0" stroke-linecap="butt" stroke-linejoin="miter" stroke-width="1"/>
<path d="M695 339L809 339C810.657 339 812 340.343 812 342L812 356C812 357.657 810.657 359 809 359L695 359C693.343 359 692 357.657 692 356L692 342C692 340.343 693.343 339 695 339Z" fill="#000000" fill-rule="nonzero" opacity="0.25" stroke="#000000" stroke-linecap="butt" stroke-linejoin="miter" stroke-width="1"/>
<path d="M693 336L807 336C808.657 336 810 337.343 810 339L810 353C810 354.657 808.657 356 807 356L693 356C691.343 356 690 354.657 690 353L690 339C690 337.343 691.343 336 693 336Z" fill="#878787" fill-rule="nonzero" opacity="1" stroke="#000000" stroke-linecap="butt" stroke-linejoin="miter" stroke-width="1"/>
<text fill="#ffffff" font-family="Helvetica" font-size="8.8" opacity="1" stroke="none" text-anchor="middle" transform="matrix(1 0 0 1 729.706 340)" x="0" y="0">
<tspan textLength="40.5883" x="21.7941" y="9">Geometric</tspan>
</text>
<path d="M625.5 419.5C597.167 419.5 583 423.667 583 432C583 440.333 568.833 444.5 540.5 444.5" fill="none" opacity="1" stroke="#1f6286" stroke-dasharray="1.0,2.0,1.0,2.0" stroke-linecap="butt" stroke-linejoin="miter" stroke-width="1"/>
<path d="M630.5 412.5L808.5 412.5C810.157 412.5 811.5 413.843 811.5 415.5L811.5 429.5C811.5 431.157 810.157 432.5 808.5 432.5L630.5 432.5C628.843 432.5 627.5 431.157 627.5 429.5L627.5 415.5C627.5 413.843 628.843 412.5 630.5 412.5Z" fill="#000000" fill-rule="nonzero" opacity="0.25" stroke="#000000" stroke-linecap="butt" stroke-linejoin="miter" stroke-width="1"/>
<path d="M628.5 409.5L806.5 409.5C808.157 409.5 809.5 410.843 809.5 412.5L809.5 426.5C809.5 428.157 808.157 429.5 806.5 429.5L628.5 429.5C626.843 429.5 625.5 428.157 625.5 426.5L625.5 412.5C625.5 410.843 626.843 409.5 628.5 409.5Z" fill="#878787" fill-rule="nonzero" opacity="1" stroke="#000000" stroke-linecap="butt" stroke-linejoin="miter" stroke-width="1"/>
<text fill="#ffffff" font-family="Helvetica" font-size="8.8" opacity="1" stroke="none" text-anchor="middle" transform="matrix(1 0 0 1 647.859 413)" x="0" y="0">
<tspan textLength="138.282" x="70.641" y="9">Variance and standard deviation (...</tspan>
</text>
<path d="M625.5 444.5C625.5 444.5 597.167 444.5 540.5 444.5" fill="none" opacity="1" stroke="#1f6286" stroke-dasharray="1.0,2.0,1.0,2.0" stroke-linecap="butt" stroke-linejoin="miter" stroke-width="1"/>
<path d="M630.5 437.5L809.5 437.5C811.157 437.5 812.5 438.843 812.5 440.5L812.5 454.5C812.5 456.157 811.157 457.5 809.5 457.5L630.5 457.5C628.843 457.5 627.5 456.157 627.5 454.5L627.5 440.5C627.5 438.843 628.843 437.5 630.5 437.5Z" fill="#000000" fill-rule="nonzero" opacity="0.25" stroke="#000000" stroke-linecap="butt" stroke-linejoin="miter" stroke-width="1"/>
<path d="M628.5 434.5L807.5 434.5C809.157 434.5 810.5 435.843 810.5 437.5L810.5 451.5C810.5 453.157 809.157 454.5 807.5 454.5L628.5 454.5C626.843 454.5 625.5 453.157 625.5 451.5L625.5 437.5C625.5 435.843 626.843 434.5 628.5 434.5Z" fill="#878787" fill-rule="nonzero" opacity="1" stroke="#000000" stroke-linecap="butt" stroke-linejoin="miter" stroke-width="1"/>
<text fill="#ffffff" font-family="Helvetica" font-size="8.8" opacity="1" stroke="none" text-anchor="middle" transform="matrix(1 0 0 1 665.415 438)" x="0" y="0">
<tspan textLength="105.17" x="54.0852" y="9">Covariance and correlation</tspan>
</text>
<path d="M625.5 469.5C597.167 469.5 583 465.333 583 457C583 448.667 568.833 444.5 540.5 444.5" fill="none" opacity="1" stroke="#1f6286" stroke-dasharray="1.0,2.0,1.0,2.0" stroke-linecap="butt" stroke-linejoin="miter" stroke-width="1"/>
<path d="M630.5 462.5L809.5 462.5C811.157 462.5 812.5 463.843 812.5 465.5L812.5 479.5C812.5 481.157 811.157 482.5 809.5 482.5L630.5 482.5C628.843 482.5 627.5 481.157 627.5 479.5L627.5 465.5C627.5 463.843 628.843 462.5 630.5 462.5Z" fill="#000000" fill-rule="nonzero" opacity="0.25" stroke="#000000" stroke-linecap="butt" stroke-linejoin="miter" stroke-width="1"/>
<path d="M628.5 459.5L807.5 459.5C809.157 459.5 810.5 460.843 810.5 462.5L810.5 476.5C810.5 478.157 809.157 479.5 807.5 479.5L628.5 479.5C626.843 479.5 625.5 478.157 625.5 476.5L625.5 462.5C625.5 460.843 626.843 459.5 628.5 459.5Z" fill="#878787" fill-rule="nonzero" opacity="1" stroke="#000000" stroke-linecap="butt" stroke-linejoin="miter" stroke-width="1"/>
<text fill="#ffffff" font-family="Helvetica" font-size="8.8" opacity="1" stroke="none" text-anchor="middle" transform="matrix(1 0 0 1 686.693 463)" x="0" y="0">
<tspan textLength="62.6141" x="32.807" y="9">Median, quartile</tspan>
</text>
<path d="M625.5 494.5C597.167 494.5 583 486.167 583 469.5C583 452.833 568.833 444.5 540.5 444.5" fill="none" opacity="1" stroke="#1f6286" stroke-dasharray="1.0,2.0,1.0,2.0" stroke-linecap="butt" stroke-linejoin="miter" stroke-width="1"/>
<path d="M630.5 487.5L808.5 487.5C810.157 487.5 811.5 488.843 811.5 490.5L811.5 504.5C811.5 506.157 810.157 507.5 808.5 507.5L630.5 507.5C628.843 507.5 627.5 506.157 627.5 504.5L627.5 490.5C627.5 488.843 628.843 487.5 630.5 487.5Z" fill="#000000" fill-rule="nonzero" opacity="0.25" stroke="#000000" stroke-linecap="butt" stroke-linejoin="miter" stroke-width="1"/>
<path d="M628.5 484.5L806.5 484.5C808.157 484.5 809.5 485.843 809.5 487.5L809.5 501.5C809.5 503.157 808.157 504.5 806.5 504.5L628.5 504.5C626.843 504.5 625.5 503.157 625.5 501.5L625.5 487.5C625.5 485.843 626.843 484.5 628.5 484.5Z" fill="#878787" fill-rule="nonzero" opacity="1" stroke="#000000" stroke-linecap="butt" stroke-linejoin="miter" stroke-width="1"/>
<text fill="#ffffff" font-family="Helvetica" font-size="8.8" opacity="1" stroke="none" text-anchor="middle" transform="matrix(1 0 0 1 681.289 488)" x="0" y="0">
<tspan textLength="71.4227" x="37.2113" y="9">Interquartile range</tspan>
</text>
<path d="M625.5 519.5C597.167 519.5 583 507 583 482C583 457 568.833 444.5 540.5 444.5" fill="none" opacity="1" stroke="#1f6286" stroke-dasharray="1.0,2.0,1.0,2.0" stroke-linecap="butt" stroke-linejoin="miter" stroke-width="1"/>
<path d="M630.5 512.5L808.5 512.5C810.157 512.5 811.5 513.843 811.5 515.5L811.5 529.5C811.5 531.157 810.157 532.5 808.5 532.5L630.5 532.5C628.843 532.5 627.5 531.157 627.5 529.5L627.5 515.5C627.5 513.843 628.843 512.5 630.5 512.5Z" fill="#000000" fill-rule="nonzero" opacity="0.25" stroke="#000000" stroke-linecap="butt" stroke-linejoin="miter" stroke-width="1"/>
<path d="M628.5 509.5L806.5 509.5C808.157 509.5 809.5 510.843 809.5 512.5L809.5 526.5C809.5 528.157 808.157 529.5 806.5 529.5L628.5 529.5C626.843 529.5 625.5 528.157 625.5 526.5L625.5 512.5C625.5 510.843 626.843 509.5 628.5 509.5Z" fill="#878787" fill-rule="nonzero" opacity="1" stroke="#000000" stroke-linecap="butt" stroke-linejoin="miter" stroke-width="1"/>
<text fill="#ffffff" font-family="Helvetica" font-size="8.8" opacity="1" stroke="none" text-anchor="middle" transform="matrix(1 0 0 1 678.354 513)" x="0" y="0">
<tspan textLength="77.2922" x="40.1461" y="9">Percentile / quantile</tspan>
</text>
<path d="M625.5 544.5C597.167 544.5 583 527.833 583 494.5C583 461.167 568.833 444.5 540.5 444.5" fill="none" opacity="1" stroke="#1f6286" stroke-dasharray="1.0,2.0,1.0,2.0" stroke-linecap="butt" stroke-linejoin="miter" stroke-width="1"/>
<path d="M630.5 537.5L808.5 537.5C810.157 537.5 811.5 538.843 811.5 540.5L811.5 554.5C811.5 556.157 810.157 557.5 808.5 557.5L630.5 557.5C628.843 557.5 627.5 556.157 627.5 554.5L627.5 540.5C627.5 538.843 628.843 537.5 630.5 537.5Z" fill="#000000" fill-rule="nonzero" opacity="0.25" stroke="#000000" stroke-linecap="butt" stroke-linejoin="miter" stroke-width="1"/>
<path d="M628.5 534.5L806.5 534.5C808.157 534.5 809.5 535.843 809.5 537.5L809.5 551.5C809.5 553.157 808.157 554.5 806.5 554.5L628.5 554.5C626.843 554.5 625.5 553.157 625.5 551.5L625.5 537.5C625.5 535.843 626.843 534.5 628.5 534.5Z" fill="#878787" fill-rule="nonzero" opacity="1" stroke="#000000" stroke-linecap="butt" stroke-linejoin="miter" stroke-width="1"/>
<text fill="#ffffff" font-family="Helvetica" font-size="8.8" opacity="1" stroke="none" text-anchor="middle" transform="matrix(1 0 0 1 705.994 538)" x="0" y="0">
<tspan textLength="22.0129" x="12.5064" y="9">Mode</tspan>
</text>
<path d="M298.5 554.5C322.5 554.5 334.5 544.5 334.5 524.5C334.5 504.5 346.5 494.5 370.5 494.5" fill="none" opacity="1" stroke="#1f6286" stroke-dasharray="1.0,2.0,1.0,2.0" stroke-linecap="butt" stroke-linejoin="miter" stroke-width="1"/>
<path d="M163.5 547.5L297.5 547.5C299.157 547.5 300.5 548.843 300.5 550.5L300.5 564.5C300.5 566.157 299.157 567.5 297.5 567.5L163.5 567.5C161.843 567.5 160.5 566.157 160.5 564.5L160.5 550.5C160.5 548.843 161.843 547.5 163.5 547.5Z" fill="#000000" fill-rule="nonzero" opacity="0.25" stroke="#000000" stroke-linecap="butt" stroke-linejoin="miter" stroke-width="1"/>
<path d="M161.5 544.5L295.5 544.5C297.157 544.5 298.5 545.843 298.5 547.5L298.5 561.5C298.5 563.157 297.157 564.5 295.5 564.5L161.5 564.5C159.843 564.5 158.5 563.157 158.5 561.5L158.5 547.5C158.5 545.843 159.843 544.5 161.5 544.5Z" fill="#878787" fill-rule="nonzero" opacity="1" stroke="#000000" stroke-linecap="butt" stroke-linejoin="miter" stroke-width="1"/>
<text fill="#ffffff" font-family="Helvetica" font-size="8.8" opacity="1" stroke="none" text-anchor="middle" transform="matrix(1 0 0 1 173.464 548)" x="0" y="0">
<tspan textLength="109.072" x="56.0359" y="9">Law of large numbers (LLN)</tspan>
</text>
<path d="M298.5 584.5C322.5 584.5 334.5 569.5 334.5 539.5C334.5 509.5 346.5 494.5 370.5 494.5" fill="none" opacity="1" stroke="#1f6286" stroke-dasharray="1.0,2.0,1.0,2.0" stroke-linecap="butt" stroke-linejoin="miter" stroke-width="1"/>
<path d="M163.5 577.5L297.5 577.5C299.157 577.5 300.5 578.843 300.5 580.5L300.5 594.5C300.5 596.157 299.157 597.5 297.5 597.5L163.5 597.5C161.843 597.5 160.5 596.157 160.5 594.5L160.5 580.5C160.5 578.843 161.843 577.5 163.5 577.5Z" fill="#000000" fill-rule="nonzero" opacity="0.25" stroke="#000000" stroke-linecap="butt" stroke-linejoin="miter" stroke-width="1"/>
<path d="M161.5 574.5L295.5 574.5C297.157 574.5 298.5 575.843 298.5 577.5L298.5 591.5C298.5 593.157 297.157 594.5 295.5 594.5L161.5 594.5C159.843 594.5 158.5 593.157 158.5 591.5L158.5 577.5C158.5 575.843 159.843 574.5 161.5 574.5Z" fill="#878787" fill-rule="nonzero" opacity="1" stroke="#000000" stroke-linecap="butt" stroke-linejoin="miter" stroke-width="1"/>
<text fill="#ffffff" font-family="Helvetica" font-size="8.8" opacity="1" stroke="none" text-anchor="middle" transform="matrix(1 0 0 1 175.43 578)" x="0" y="0">
<tspan textLength="105.14" x="54.0701" y="9">Central limit theorem (CL...</tspan>
</text>
<path d="M118.5 642.5L297.5 642.5C299.157 642.5 300.5 643.843 300.5 645.5L300.5 659.5C300.5 661.157 299.157 662.5 297.5 662.5L118.5 662.5C116.843 662.5 115.5 661.157 115.5 659.5L115.5 645.5C115.5 643.843 116.843 642.5 118.5 642.5Z" fill="#000000" fill-rule="nonzero" opacity="0.25" stroke="#000000" stroke-linecap="butt" stroke-linejoin="miter" stroke-width="1"/>
<path d="M116.5 639.5L295.5 639.5C297.157 639.5 298.5 640.843 298.5 642.5L298.5 656.5C298.5 658.157 297.157 659.5 295.5 659.5L116.5 659.5C114.843 659.5 113.5 658.157 113.5 656.5L113.5 642.5C113.5 640.843 114.843 639.5 116.5 639.5Z" fill="#878787" fill-rule="nonzero" opacity="1" stroke="#000000" stroke-linecap="butt" stroke-linejoin="miter" stroke-width="1"/>
<text fill="#ffffff" font-family="Helvetica" font-size="8.8" opacity="1" stroke="none" text-anchor="middle" transform="matrix(1 0 0 1 131.664 643)" x="0" y="0">
<tspan textLength="148.672" x="75.8359" y="9">Maximum Likelihood Estimation (ML...</tspan>
</text>
<path d="M118.5 672.5L297.5 672.5C299.157 672.5 300.5 673.843 300.5 675.5L300.5 689.5C300.5 691.157 299.157 692.5 297.5 692.5L118.5 692.5C116.843 692.5 115.5 691.157 115.5 689.5L115.5 675.5C115.5 673.843 116.843 672.5 118.5 672.5Z" fill="#000000" fill-rule="nonzero" opacity="0.25" stroke="#000000" stroke-linecap="butt" stroke-linejoin="miter" stroke-width="1"/>
<path d="M116.5 669.5L295.5 669.5C297.157 669.5 298.5 670.843 298.5 672.5L298.5 686.5C298.5 688.157 297.157 689.5 295.5 689.5L116.5 689.5C114.843 689.5 113.5 688.157 113.5 686.5L113.5 672.5C113.5 670.843 114.843 669.5 116.5 669.5Z" fill="#878787" fill-rule="nonzero" opacity="1" stroke="#000000" stroke-linecap="butt" stroke-linejoin="miter" stroke-width="1"/>
<text fill="#ffffff" font-family="Helvetica" font-size="8.8" opacity="1" stroke="none" text-anchor="middle" transform="matrix(1 0 0 1 142.423 673)" x="0" y="0">
<tspan textLength="127.153" x="65.0766" y="9">Kernel Density Estimation (KDE)</tspan>
</text>
<path d="M645 587.5L809 587.5C810.657 587.5 812 588.843 812 590.5L812 604.5C812 606.157 810.657 607.5 809 607.5L645 607.5C643.343 607.5 642 606.157 642 604.5L642 590.5C642 588.843 643.343 587.5 645 587.5Z" fill="#000000" fill-rule="nonzero" opacity="0.25" stroke="#000000" stroke-linecap="butt" stroke-linejoin="miter" stroke-width="1"/>
<path d="M643 584.5L807 584.5C808.657 584.5 810 585.843 810 587.5L810 601.5C810 603.157 808.657 604.5 807 604.5L643 604.5C641.343 604.5 640 603.157 640 601.5L640 587.5C640 585.843 641.343 584.5 643 584.5Z" fill="#878787" fill-rule="nonzero" opacity="1" stroke="#000000" stroke-linecap="butt" stroke-linejoin="miter" stroke-width="1"/>
<text fill="#ffffff" font-family="Helvetica" font-size="8.8" opacity="1" stroke="none" text-anchor="middle" transform="matrix(1 0 0 1 710.159 588)" x="0" y="0">
<tspan textLength="29.6828" x="16.3414" y="9">p-Value</tspan>
</text>
<path d="M640 619.5C606.867 619.5 590.3 615.333 590.3 607C590.3 598.667 573.7 594.5 540.5 594.5" fill="none" opacity="1" stroke="#1f6286" stroke-dasharray="1.0,2.0,1.0,2.0" stroke-linecap="butt" stroke-linejoin="miter" stroke-width="1"/>
<path d="M645 612.5L809 612.5C810.657 612.5 812 613.843 812 615.5L812 629.5C812 631.157 810.657 632.5 809 632.5L645 632.5C643.343 632.5 642 631.157 642 629.5L642 615.5C642 613.843 643.343 612.5 645 612.5Z" fill="#000000" fill-rule="nonzero" opacity="0.25" stroke="#000000" stroke-linecap="butt" stroke-linejoin="miter" stroke-width="1"/>
<path d="M643 609.5L807 609.5C808.657 609.5 810 610.843 810 612.5L810 626.5C810 628.157 808.657 629.5 807 629.5L643 629.5C641.343 629.5 640 628.157 640 626.5L640 612.5C640 610.843 641.343 609.5 643 609.5Z" fill="#878787" fill-rule="nonzero" opacity="1" stroke="#000000" stroke-linecap="butt" stroke-linejoin="miter" stroke-width="1"/>
<text fill="#ffffff" font-family="Helvetica" font-size="8.8" opacity="1" stroke="none" text-anchor="middle" transform="matrix(1 0 0 1 707.636 613)" x="0" y="0">
<tspan textLength="34.7273" x="18.8637" y="9">Chi2 test</tspan>
</text>
<path d="M640 644.5C606.867 644.5 590.3 636.167 590.3 619.5C590.3 602.833 573.7 594.5 540.5 594.5" fill="none" opacity="1" stroke="#1f6286" stroke-dasharray="1.0,2.0,1.0,2.0" stroke-linecap="butt" stroke-linejoin="miter" stroke-width="1"/>
<path d="M645 637.5L809 637.5C810.657 637.5 812 638.843 812 640.5L812 654.5C812 656.157 810.657 657.5 809 657.5L645 657.5C643.343 657.5 642 656.157 642 654.5L642 640.5C642 638.843 643.343 637.5 645 637.5Z" fill="#000000" fill-rule="nonzero" opacity="0.25" stroke="#000000" stroke-linecap="butt" stroke-linejoin="miter" stroke-width="1"/>
<path d="M643 634.5L807 634.5C808.657 634.5 810 635.843 810 637.5L810 651.5C810 653.157 808.657 654.5 807 654.5L643 654.5C641.343 654.5 640 653.157 640 651.5L640 637.5C640 635.843 641.343 634.5 643 634.5Z" fill="#878787" fill-rule="nonzero" opacity="1" stroke="#000000" stroke-linecap="butt" stroke-linejoin="miter" stroke-width="1"/>
<text fill="#ffffff" font-family="Helvetica" font-size="8.8" opacity="1" stroke="none" text-anchor="middle" transform="matrix(1 0 0 1 713.755 638)" x="0" y="0">
<tspan textLength="22.4898" x="12.7449" y="9">F-test</tspan>
</text>
<path d="M640.5 669.5C607.167 669.5 590.5 657 590.5 632C590.5 607 573.833 594.5 540.5 594.5" fill="none" opacity="1" stroke="#1f6286" stroke-dasharray="1.0,2.0,1.0,2.0" stroke-linecap="butt" stroke-linejoin="miter" stroke-width="1"/>
<path d="M645.5 662.5L809.5 662.5C811.157 662.5 812.5 663.843 812.5 665.5L812.5 679.5C812.5 681.157 811.157 682.5 809.5 682.5L645.5 682.5C643.843 682.5 642.5 681.157 642.5 679.5L642.5 665.5C642.5 663.843 643.843 662.5 645.5 662.5Z" fill="#000000" fill-rule="nonzero" opacity="0.25" stroke="#000000" stroke-linecap="butt" stroke-linejoin="miter" stroke-width="1"/>
<path d="M643.5 659.5L807.5 659.5C809.157 659.5 810.5 660.843 810.5 662.5L810.5 676.5C810.5 678.157 809.157 679.5 807.5 679.5L643.5 679.5C641.843 679.5 640.5 678.157 640.5 676.5L640.5 662.5C640.5 660.843 641.843 659.5 643.5 659.5Z" fill="#878787" fill-rule="nonzero" opacity="1" stroke="#000000" stroke-linecap="butt" stroke-linejoin="miter" stroke-width="1"/>
<text fill="#ffffff" font-family="Helvetica" font-size="8.8" opacity="1" stroke="none" text-anchor="middle" transform="matrix(1 0 0 1 715.22 663)" x="0" y="0">
<tspan textLength="19.5594" x="11.2797" y="9">t-test</tspan>
</text>
<text fill="#ffffff" font-family="Helvetica" font-size="12.8" opacity="1" stroke="none" text-anchor="middle" transform="matrix(1 0 0 1 480.394 254)" x="0" y="0">
<tspan textLength="51.2125" x="27.1063" y="12">Statistics</tspan>
</text>
<path d="M263 822.5L424 822.5C426.485 822.5 428.5 824.515 428.5 827L428.5 848C428.5 850.485 426.485 852.5 424 852.5L263 852.5C260.515 852.5 258.5 850.485 258.5 848L258.5 827C258.5 824.515 260.515 822.5 263 822.5Z" fill="#000000" fill-rule="nonzero" opacity="0.25" stroke="#000000" stroke-linecap="butt" stroke-linejoin="miter" stroke-width="1"/>
<path d="M261 819.5L422 819.5C424.485 819.5 426.5 821.515 426.5 824L426.5 845C426.5 847.485 424.485 849.5 422 849.5L261 849.5C258.515 849.5 256.5 847.485 256.5 845L256.5 824C256.5 821.515 258.515 819.5 261 819.5Z" fill="#1f6286" fill-rule="nonzero" opacity="1" stroke="#000000" stroke-linecap="butt" stroke-linejoin="miter" stroke-width="1"/>
<text fill="#ffffff" font-family="Helvetica" font-size="9.6" opacity="1" stroke="none" text-anchor="middle" transform="matrix(1 0 0 1 275.094 829)" x="0" y="0">
<tspan textLength="131.813" x="67.4063" y="9">Chart Suggestions thought st...</tspan>
</text>
<path d="M426.5 875.5C440.5 875.5 447.5 861.167 447.5 832.5C447.5 803.833 454.5 789.5 468.5 789.5" fill="none" opacity="1" stroke="#1f6286" stroke-dasharray="1.0,2.0,1.0,2.0" stroke-linecap="butt" stroke-linejoin="miter" stroke-width="1"/>
<path d="M426.5 875.5C440.5 875.5 447.5 865.5 447.5 845.5C447.5 825.5 454.5 815.5 468.5 815.5" fill="none" opacity="1" stroke="#1f6286" stroke-dasharray="1.0,2.0,1.0,2.0" stroke-linecap="butt" stroke-linejoin="miter" stroke-width="1"/>
<path d="M261 860.5L422 860.5C424.485 860.5 426.5 862.515 426.5 865L426.5 886C426.5 888.485 424.485 890.5 422 890.5L261 890.5C258.515 890.5 256.5 888.485 256.5 886L256.5 865C256.5 862.515 258.515 860.5 261 860.5Z" fill="#1f6286" fill-rule="nonzero" opacity="1" stroke="#000000" stroke-linecap="butt" stroke-linejoin="miter" stroke-width="1"/>
<text fill="#ffffff" font-family="Helvetica" font-size="9.6" opacity="1" stroke="none" text-anchor="middle" transform="matrix(1 0 0 1 326.056 870)" x="0" y="0">
<tspan textLength="29.8875" x="16.4438" y="9">Python</tspan>
</text>
<path d="M473.5 782.5L607.5 782.5C609.157 782.5 610.5 783.843 610.5 785.5L610.5 799.5C610.5 801.157 609.157 802.5 607.5 802.5L473.5 802.5C471.843 802.5 470.5 801.157 470.5 799.5L470.5 785.5C470.5 783.843 471.843 782.5 473.5 782.5Z" fill="#000000" fill-rule="nonzero" opacity="0.25" stroke="#000000" stroke-linecap="butt" stroke-linejoin="miter" stroke-width="1"/>
<path d="M471.5 779.5L605.5 779.5C607.157 779.5 608.5 780.843 608.5 782.5L608.5 796.5C608.5 798.157 607.157 799.5 605.5 799.5L471.5 799.5C469.843 799.5 468.5 798.157 468.5 796.5L468.5 782.5C468.5 780.843 469.843 779.5 471.5 779.5Z" fill="#878787" fill-rule="nonzero" opacity="1" stroke="#000000" stroke-linecap="butt" stroke-linejoin="miter" stroke-width="1"/>
<text fill="#ffffff" font-family="Helvetica" font-size="8.8" opacity="1" stroke="none" text-anchor="middle" transform="matrix(1 0 0 1 519.169 783)" x="0" y="0">
<tspan textLength="37.6621" x="20.3311" y="9">Matplotlib</tspan>
</text>
<path d="M473.5 808.5L607.5 808.5C609.157 808.5 610.5 809.843 610.5 811.5L610.5 825.5C610.5 827.157 609.157 828.5 607.5 828.5L473.5 828.5C471.843 828.5 470.5 827.157 470.5 825.5L470.5 811.5C470.5 809.843 471.843 808.5 473.5 808.5Z" fill="#000000" fill-rule="nonzero" opacity="0.25" stroke="#000000" stroke-linecap="butt" stroke-linejoin="miter" stroke-width="1"/>
<path d="M471.5 805.5L605.5 805.5C607.157 805.5 608.5 806.843 608.5 808.5L608.5 822.5C608.5 824.157 607.157 825.5 605.5 825.5L471.5 825.5C469.843 825.5 468.5 824.157 468.5 822.5L468.5 808.5C468.5 806.843 469.843 805.5 471.5 805.5Z" fill="#878787" fill-rule="nonzero" opacity="1" stroke="#000000" stroke-linecap="butt" stroke-linejoin="miter" stroke-width="1"/>
<text fill="#ffffff" font-family="Helvetica" font-size="8.8" opacity="1" stroke="none" text-anchor="middle" transform="matrix(1 0 0 1 491.772 809)" x="0" y="0">
<tspan textLength="92.4559" x="47.7279" y="9">plotnine (like ggplot in...</tspan>
</text>
<path d="M468.5 929.5C454.5 929.5 447.5 927 447.5 922C447.5 917 440.5 914.5 426.5 914.5" fill="none" opacity="1" stroke="#1f6286" stroke-dasharray="1.0,2.0,1.0,2.0" stroke-linecap="butt" stroke-linejoin="miter" stroke-width="1"/>
<path d="M473.5 922.5L607.5 922.5C609.157 922.5 610.5 923.843 610.5 925.5L610.5 939.5C610.5 941.157 609.157 942.5 607.5 942.5L473.5 942.5C471.843 942.5 470.5 941.157 470.5 939.5L470.5 925.5C470.5 923.843 471.843 922.5 473.5 922.5Z" fill="#000000" fill-rule="nonzero" opacity="0.25" stroke="#000000" stroke-linecap="butt" stroke-linejoin="miter" stroke-width="1"/>
<path d="M471.5 919.5L605.5 919.5C607.157 919.5 608.5 920.843 608.5 922.5L608.5 936.5C608.5 938.157 607.157 939.5 605.5 939.5L471.5 939.5C469.843 939.5 468.5 938.157 468.5 936.5L468.5 922.5C468.5 920.843 469.843 919.5 471.5 919.5Z" fill="#878787" fill-rule="nonzero" opacity="1" stroke="#000000" stroke-linecap="butt" stroke-linejoin="miter" stroke-width="1"/>
<text fill="#ffffff" font-family="Helvetica" font-size="8.8" opacity="1" stroke="none" text-anchor="middle" transform="matrix(1 0 0 1 519.405 923)" x="0" y="0">
<tspan textLength="37.1895" x="20.0947" y="9">Vega-Lite</tspan>
</text>
<path d="M468.5 959.5C454.5 959.5 447.5 952 447.5 937C447.5 922 440.5 914.5 426.5 914.5" fill="none" opacity="1" stroke="#1f6286" stroke-dasharray="1.0,2.0,1.0,2.0" stroke-linecap="butt" stroke-linejoin="miter" stroke-width="1"/>
<path d="M473.5 952.5L607.5 952.5C609.157 952.5 610.5 953.843 610.5 955.5L610.5 969.5C610.5 971.157 609.157 972.5 607.5 972.5L473.5 972.5C471.843 972.5 470.5 971.157 470.5 969.5L470.5 955.5C470.5 953.843 471.843 952.5 473.5 952.5Z" fill="#000000" fill-rule="nonzero" opacity="0.25" stroke="#000000" stroke-linecap="butt" stroke-linejoin="miter" stroke-width="1"/>
<path d="M471.5 949.5L605.5 949.5C607.157 949.5 608.5 950.843 608.5 952.5L608.5 966.5C608.5 968.157 607.157 969.5 605.5 969.5L471.5 969.5C469.843 969.5 468.5 968.157 468.5 966.5L468.5 952.5C468.5 950.843 469.843 949.5 471.5 949.5Z" fill="#878787" fill-rule="nonzero" opacity="1" stroke="#000000" stroke-linecap="butt" stroke-linejoin="miter" stroke-width="1"/>
<text fill="#ffffff" font-family="Helvetica" font-size="8.8" opacity="1" stroke="none" text-anchor="middle" transform="matrix(1 0 0 1 527.975 953)" x="0" y="0">
<tspan textLength="20.0492" x="11.5246" y="9">D3.js</tspan>
</text>
<path d="M468.5 1023.5C454.5 1023.5 447.5 1018.67 447.5 1009C447.5 999.333 440.5 994.5 426.5 994.5" fill="none" opacity="1" stroke="#1f6286" stroke-dasharray="1.0,2.0,1.0,2.0" stroke-linecap="butt" stroke-linejoin="miter" stroke-width="1"/>
<path d="M473.5 1016.5L607.5 1016.5C609.157 1016.5 610.5 1017.84 610.5 1019.5L610.5 1033.5C610.5 1035.16 609.157 1036.5 607.5 1036.5L473.5 1036.5C471.843 1036.5 470.5 1035.16 470.5 1033.5L470.5 1019.5C470.5 1017.84 471.843 1016.5 473.5 1016.5Z" fill="#000000" fill-rule="nonzero" opacity="0.25" stroke="#000000" stroke-linecap="butt" stroke-linejoin="miter" stroke-width="1"/>
<path d="M471.5 1013.5L605.5 1013.5C607.157 1013.5 608.5 1014.84 608.5 1016.5L608.5 1030.5C608.5 1032.16 607.157 1033.5 605.5 1033.5L471.5 1033.5C469.843 1033.5 468.5 1032.16 468.5 1030.5L468.5 1016.5C468.5 1014.84 469.843 1013.5 471.5 1013.5Z" fill="#878787" fill-rule="nonzero" opacity="1" stroke="#000000" stroke-linecap="butt" stroke-linejoin="miter" stroke-width="1"/>
<text fill="#ffffff" font-family="Helvetica" font-size="8.8" opacity="1" stroke="none" text-anchor="middle" transform="matrix(1 0 0 1 522.587 1017)" x="0" y="0">
<tspan textLength="30.8258" x="16.9129" y="9">Tableau</tspan>
</text>
<path d="M468.5 989.5C454.5 989.5 447.5 983.667 447.5 972C447.5 960.333 440.5 954.5 426.5 954.5" fill="none" opacity="1" stroke="#1f6286" stroke-dasharray="1.0,2.0,1.0,2.0" stroke-linecap="butt" stroke-linejoin="miter" stroke-width="1"/>
<path d="M473.5 982.5L607.5 982.5C609.157 982.5 610.5 983.843 610.5 985.5L610.5 999.5C610.5 1001.16 609.157 1002.5 607.5 1002.5L473.5 1002.5C471.843 1002.5 470.5 1001.16 470.5 999.5L470.5 985.5C470.5 983.843 471.843 982.5 473.5 982.5Z" fill="#000000" fill-rule="nonzero" opacity="0.25" stroke="#000000" stroke-linecap="butt" stroke-linejoin="miter" stroke-width="1"/>
<path d="M471.5 979.5L605.5 979.5C607.157 979.5 608.5 980.843 608.5 982.5L608.5 996.5C608.5 998.157 607.157 999.5 605.5 999.5L471.5 999.5C469.843 999.5 468.5 998.157 468.5 996.5L468.5 982.5C468.5 980.843 469.843 979.5 471.5 979.5Z" fill="#878787" fill-rule="nonzero" opacity="1" stroke="#000000" stroke-linecap="butt" stroke-linejoin="miter" stroke-width="1"/>
<text fill="#ffffff" font-family="Helvetica" font-size="8.8" opacity="1" stroke="none" text-anchor="middle" transform="matrix(1 0 0 1 527.728 983)" x="0" y="0">
<tspan textLength="20.5434" x="11.7717" y="9">Dash</tspan>
</text>
<text fill="#ffffff" font-family="Helvetica" font-size="12.8" opacity="1" stroke="none" text-anchor="middle" transform="matrix(1 0 0 1 245.181 791)" x="0" y="0">
<tspan textLength="71.6375" x="37.3188" y="12">Visualization</tspan>
</text>
<text fill="#000000" font-family="Helvetica" font-size="19.2" opacity="1" stroke="none" text-anchor="middle" transform="matrix(1 0 0 1 284.683 1177)" x="0" y="0">
<tspan textLength="152.634" x="77.8172" y="19">Machine Learning</tspan>
</text>
<path d="M341.5 1009.5C341.5 1082.83 348 1137.83 361 1174.5" fill="none" opacity="1" stroke="#1f6286" stroke-dasharray="3.0" stroke-linecap="butt" stroke-linejoin="miter" stroke-width="1"/>
<path d="M261 899.5L422 899.5C424.485 899.5 426.5 901.515 426.5 904L426.5 925C426.5 927.485 424.485 929.5 422 929.5L261 929.5C258.515 929.5 256.5 927.485 256.5 925L256.5 904C256.5 901.515 258.515 899.5 261 899.5Z" fill="#1f6286" fill-rule="nonzero" opacity="1" stroke="#000000" stroke-linecap="butt" stroke-linejoin="miter" stroke-width="1"/>
<text fill="#ffffff" font-family="Helvetica" font-size="9.6" opacity="1" stroke="none" text-anchor="middle" transform="matrix(1 0 0 1 331.215 909)" x="0" y="0">
<tspan textLength="19.5703" x="11.2852" y="9">Web</tspan>
</text>
<path d="M261 939.5L422 939.5C424.485 939.5 426.5 941.515 426.5 944L426.5 965C426.5 967.485 424.485 969.5 422 969.5L261 969.5C258.515 969.5 256.5 967.485 256.5 965L256.5 944C256.5 941.515 258.515 939.5 261 939.5Z" fill="#1f6286" fill-rule="nonzero" opacity="1" stroke="#000000" stroke-linecap="butt" stroke-linejoin="miter" stroke-width="1"/>
<text fill="#ffffff" font-family="Helvetica" font-size="9.6" opacity="1" stroke="none" text-anchor="middle" transform="matrix(1 0 0 1 315.118 949)" x="0" y="0">
<tspan textLength="51.7641" x="27.382" y="9">Dashboards</tspan>
</text>
<path d="M261 979.5L422 979.5C424.485 979.5 426.5 981.515 426.5 984L426.5 1005C426.5 1007.49 424.485 1009.5 422 1009.5L261 1009.5C258.515 1009.5 256.5 1007.49 256.5 1005L256.5 984C256.5 981.515 258.515 979.5 261 979.5Z" fill="#1f6286" fill-rule="nonzero" opacity="1" stroke="#000000" stroke-linecap="butt" stroke-linejoin="miter" stroke-width="1"/>
<text fill="#ffffff" font-family="Helvetica" font-size="9.6" opacity="1" stroke="none" text-anchor="middle" transform="matrix(1 0 0 1 336.465 989)" x="0" y="0">
<tspan textLength="9.07031" x="6.03516" y="9">BI</tspan>
</text>
<path d="M473.5 1046.5L607.5 1046.5C609.157 1046.5 610.5 1047.84 610.5 1049.5L610.5 1063.5C610.5 1065.16 609.157 1066.5 607.5 1066.5L473.5 1066.5C471.843 1066.5 470.5 1065.16 470.5 1063.5L470.5 1049.5C470.5 1047.84 471.843 1046.5 473.5 1046.5Z" fill="#000000" fill-rule="nonzero" opacity="0.25" stroke="#000000" stroke-linecap="butt" stroke-linejoin="miter" stroke-width="1"/>
<path d="M471.5 1043.5L605.5 1043.5C607.157 1043.5 608.5 1044.84 608.5 1046.5L608.5 1060.5C608.5 1062.16 607.157 1063.5 605.5 1063.5L471.5 1063.5C469.843 1063.5 468.5 1062.16 468.5 1060.5L468.5 1046.5C468.5 1044.84 469.843 1043.5 471.5 1043.5Z" fill="#878787" fill-rule="nonzero" opacity="1" stroke="#000000" stroke-linecap="butt" stroke-linejoin="miter" stroke-width="1"/>
<text fill="#ffffff" font-family="Helvetica" font-size="8.8" opacity="1" stroke="none" text-anchor="middle" transform="matrix(1 0 0 1 521.371 1047)" x="0" y="0">
<tspan textLength="33.2578" x="18.1289" y="9">PowerBI</tspan>
</text>
<path d="M468.5 1053.5C454.5 1053.5 447.5 1043.67 447.5 1024C447.5 1004.33 440.5 994.5 426.5 994.5" fill="none" opacity="1" stroke="#1f6286" stroke-dasharray="1.0,2.0,1.0,2.0" stroke-linecap="butt" stroke-linejoin="miter" stroke-width="1"/>
<path d="M471.5 855.5L605.5 855.5C607.157 855.5 608.5 856.843 608.5 858.5L608.5 872.5C608.5 874.157 607.157 875.5 605.5 875.5L471.5 875.5C469.843 875.5 468.5 874.157 468.5 872.5L468.5 858.5C468.5 856.843 469.843 855.5 471.5 855.5Z" fill="#878787" fill-rule="nonzero" opacity="1" stroke="#000000" stroke-linecap="butt" stroke-linejoin="miter" stroke-width="1"/>
<text fill="#ffffff" font-family="Helvetica" font-size="8.8" opacity="1" stroke="none" text-anchor="middle" transform="matrix(1 0 0 1 522.099 859)" x="0" y="0">
<tspan textLength="31.8012" x="17.4006" y="9">seaborn</tspan>
</text>
<path d="M426.5 875.5C439.833 875.5 446.5 873.667 446.5 870C446.5 866.333 453.833 864.833 468.5 865.5" fill="none" opacity="1" stroke="#1f6286" stroke-dasharray="1.0,2.0,1.0,2.0" stroke-linecap="butt" stroke-linejoin="miter" stroke-width="1"/>
<path d="M473.5 882.5L607.5 882.5C609.157 882.5 610.5 883.843 610.5 885.5L610.5 899.5C610.5 901.157 609.157 902.5 607.5 902.5L473.5 902.5C471.843 902.5 470.5 901.157 470.5 899.5L470.5 885.5C470.5 883.843 471.843 882.5 473.5 882.5Z" fill="#000000" fill-rule="nonzero" opacity="0.25" stroke="#000000" stroke-linecap="butt" stroke-linejoin="miter" stroke-width="1"/>
<path d="M471.5 879.5L605.5 879.5C607.157 879.5 608.5 880.843 608.5 882.5L608.5 896.5C608.5 898.157 607.157 899.5 605.5 899.5L471.5 899.5C469.843 899.5 468.5 898.157 468.5 896.5L468.5 882.5C468.5 880.843 469.843 879.5 471.5 879.5Z" fill="#878787" fill-rule="nonzero" opacity="1" stroke="#000000" stroke-linecap="butt" stroke-linejoin="miter" stroke-width="1"/>
<text fill="#ffffff" font-family="Helvetica" font-size="8.8" opacity="1" stroke="none" text-anchor="middle" transform="matrix(1 0 0 1 498.628 883)" x="0" y="0">
<tspan textLength="78.7445" x="40.8723" y="9">ipyvolume (3D data)</tspan>
</text>
<path d="M426.5 875.5C454.5 875.5 468.5 880.167 468.5 889.5" fill="none" opacity="1" stroke="#1f6286" stroke-dasharray="1.0,2.0,1.0,2.0" stroke-linecap="butt" stroke-linejoin="miter" stroke-width="1"/>
<path d="M56.5 907.5L195.5 907.5C197.157 907.5 198.5 908.843 198.5 910.5L198.5 924.5C198.5 926.157 197.157 927.5 195.5 927.5L56.5 927.5C54.8431 927.5 53.5 926.157 53.5 924.5L53.5 910.5C53.5 908.843 54.8431 907.5 56.5 907.5Z" fill="#000000" fill-rule="nonzero" opacity="0.25" stroke="#000000" stroke-linecap="butt" stroke-linejoin="miter" stroke-width="1"/>
<path d="M54.5 904.5L193.5 904.5C195.157 904.5 196.5 905.843 196.5 907.5L196.5 921.5C196.5 923.157 195.157 924.5 193.5 924.5L54.5 924.5C52.8431 924.5 51.5 923.157 51.5 921.5L51.5 907.5C51.5 905.843 52.8431 904.5 54.5 904.5Z" fill="#878787" fill-rule="nonzero" opacity="1" stroke="#000000" stroke-linecap="butt" stroke-linejoin="miter" stroke-width="1"/>
<text fill="#ffffff" font-family="Helvetica" font-size="8.8" opacity="1" stroke="none" text-anchor="middle" transform="matrix(1 0 0 1 107.375 908)" x="0" y="0">
<tspan textLength="33.2492" x="18.1246" y="9">streamlit</tspan>
</text>
<path d="M196.5 914.5C216.5 914.5 226.5 908 226.5 895C226.5 882 236.5 875.5 256.5 875.5" fill="none" opacity="1" stroke="#1f6286" stroke-dasharray="1.0,2.0,1.0,2.0" stroke-linecap="butt" stroke-linejoin="miter" stroke-width="1"/>
<path d="M196.5 914.5C196.5 914.5 216.5 914.5 256.5 914.5" fill="none" opacity="1" stroke="#1f6286" stroke-dasharray="1.0,2.0,1.0,2.0" stroke-linecap="butt" stroke-linejoin="miter" stroke-width="1"/>
<path d="M196.5 914.5C216.5 914.5 226.5 921.167 226.5 934.5C226.5 947.833 236.5 954.5 256.5 954.5" fill="none" opacity="1" stroke="#1f6286" stroke-dasharray="1.0,2.0,1.0,2.0" stroke-linecap="butt" stroke-linejoin="miter" stroke-width="1"/>
<path d="M455.5 709.5C455.5 746.167 436.5 764.5 398.5 764.5C360.5 764.5 341.5 782.833 341.5 819.5" fill="none" opacity="1" stroke="#1f6286" stroke-linecap="butt" stroke-linejoin="miter" stroke-width="1"/>
<path d="M473.5 833.5L607.5 833.5C609.157 833.5 610.5 834.843 610.5 836.5L610.5 850.5C610.5 852.157 609.157 853.5 607.5 853.5L473.5 853.5C471.843 853.5 470.5 852.157 470.5 850.5L470.5 836.5C470.5 834.843 471.843 833.5 473.5 833.5Z" fill="#000000" fill-rule="nonzero" opacity="0.25" stroke="#000000" stroke-linecap="butt" stroke-linejoin="miter" stroke-width="1"/>
<path d="M471.5 830.5L605.5 830.5C607.157 830.5 608.5 831.843 608.5 833.5L608.5 847.5C608.5 849.157 607.157 850.5 605.5 850.5L471.5 850.5C469.843 850.5 468.5 849.157 468.5 847.5L468.5 833.5C468.5 831.843 469.843 830.5 471.5 830.5Z" fill="#878787" fill-rule="nonzero" opacity="1" stroke="#000000" stroke-linecap="butt" stroke-linejoin="miter" stroke-width="1"/>
<text fill="#ffffff" font-family="Helvetica" font-size="8.8" opacity="1" stroke="none" text-anchor="middle" transform="matrix(1 0 0 1 525.524 834)" x="0" y="0">
<tspan textLength="24.952" x="13.976" y="9">Bokeh</tspan>
</text>
<path d="M426.5 875.5C439.833 875.5 446.5 869.667 446.5 858C446.5 846.333 453.833 840.5 468.5 840.5" fill="none" opacity="1" stroke="#1f6286" stroke-dasharray="1.0,2.0,1.0,2.0" stroke-linecap="butt" stroke-linejoin="miter" stroke-width="1"/>
</g>
<text fill="#000000" font-family="Helvetica" font-size="8" opacity="1" stroke="none" text-anchor="middle" transform="matrix(1 0 0 1 -15.0215 87.5)" x="0" y="0">
<tspan textLength="131.043" x="67.0215" y="8">Viewer does not support full SVG 1.1</tspan>
</text>
</g>
</svg>
