<?xml version="1.0" encoding="UTF-8" standalone="no"?>
<!DOCTYPE svg PUBLIC "-//W3C//DTD SVG 1.1//EN" "http://www.w3.org/Graphics/SVG/1.1/DTD/svg11.dtd">
<!-- Created with Vectornator (http://vectornator.io/) -->
<svg height="1699.0px" stroke-miterlimit="10" style="fill-rule:nonzero;clip-rule:evenodd;stroke-linecap:round;stroke-linejoin:round;" version="1.1" viewBox="0 0 707 1699" width="707.0px" xml:space="preserve" xmlns="http://www.w3.org/2000/svg" xmlns:xlink="http://www.w3.org/1999/xlink">
<defs/>
<g id="Untitled">
<g opacity="1">
<path d="M408 139.5C408 160.167 391.583 170.5 358.75 170.5C325.917 170.5 309.5 180.5 309.5 200.5" fill="none" opacity="1" stroke="#1f6286" stroke-linecap="butt" stroke-linejoin="miter" stroke-width="1"/>
<text fill="#000000" font-family="Helvetica" font-size="19.2" opacity="1" stroke="none" text-anchor="middle" transform="matrix(1 0 0 1 347.166 97)" x="0" y="0">
<tspan textLength="121.669" x="62.3344" y="19">Fundamentals</tspan>
</text>
<path d="M404.5 0.5C425.167 17.1667 428 29.6667 413 38C398 46.3333 396.333 60.1667 408 79.5" fill="none" opacity="1" stroke="#1f6286" stroke-dasharray="3.0" stroke-linecap="butt" stroke-linejoin="miter" stroke-width="1"/>
<path d="M232.5 203.5L390.5 203.5C393.814 203.5 396.5 206.186 396.5 209.5L396.5 237.5C396.5 240.814 393.814 243.5 390.5 243.5L232.5 243.5C229.186 243.5 226.5 240.814 226.5 237.5L226.5 209.5C226.5 206.186 229.186 203.5 232.5 203.5Z" fill="#000000" fill-rule="nonzero" opacity="0.25" stroke="#000000" stroke-linecap="butt" stroke-linejoin="miter" stroke-width="1"/>
<path d="M230.5 200.5L388.5 200.5C391.814 200.5 394.5 203.186 394.5 206.5L394.5 234.5C394.5 237.814 391.814 240.5 388.5 240.5L230.5 240.5C227.186 240.5 224.5 237.814 224.5 234.5L224.5 206.5C224.5 203.186 227.186 200.5 230.5 200.5Z" fill="#1f6286" fill-rule="nonzero" opacity="1" stroke="#000000" stroke-linecap="butt" stroke-linejoin="miter" stroke-width="1"/>
<text fill="#ffffff" font-family="Helvetica" font-size="9.6" opacity="1" stroke="none" text-anchor="middle" transform="matrix(1 0 0 1 243.101 215)" x="0" y="0">
<tspan textLength="131.798" x="67.3992" y="9">Matrices &amp; Linear Algebra Fu...</tspan>
</text>
<path d="M394.5 265.5C412.833 265.5 422 261.333 422 253C422 244.667 431.167 240.5 449.5 240.5" fill="none" opacity="1" stroke="#1f6286" stroke-dasharray="1.0,2.0,1.0,2.0" stroke-linecap="butt" stroke-linejoin="miter" stroke-width="1"/>
<path d="M229 250.5L390 250.5C392.485 250.5 394.5 252.515 394.5 255L394.5 276C394.5 278.485 392.485 280.5 390 280.5L229 280.5C226.515 280.5 224.5 278.485 224.5 276L224.5 255C224.5 252.515 226.515 250.5 229 250.5Z" fill="#1f6286" fill-rule="nonzero" opacity="1" stroke="#000000" stroke-linecap="butt" stroke-linejoin="miter" stroke-width="1"/>
<text fill="#ffffff" font-family="Helvetica" font-size="9.6" opacity="1" stroke="none" text-anchor="middle" transform="matrix(1 0 0 1 272.981 260)" x="0" y="0">
<tspan textLength="72.0375" x="37.5188" y="9">Database Basics</tspan>
</text>
<path d="M454.5 233.5L658.5 233.5C660.157 233.5 661.5 234.843 661.5 236.5L661.5 250.5C661.5 252.157 660.157 253.5 658.5 253.5L454.5 253.5C452.843 253.5 451.5 252.157 451.5 250.5L451.5 236.5C451.5 234.843 452.843 233.5 454.5 233.5Z" fill="#000000" fill-rule="nonzero" opacity="0.25" stroke="#000000" stroke-linecap="butt" stroke-linejoin="miter" stroke-width="1"/>
<path d="M452.5 230.5L656.5 230.5C658.157 230.5 659.5 231.843 659.5 233.5L659.5 247.5C659.5 249.157 658.157 250.5 656.5 250.5L452.5 250.5C450.843 250.5 449.5 249.157 449.5 247.5L449.5 233.5C449.5 231.843 450.843 230.5 452.5 230.5Z" fill="#878787" fill-rule="nonzero" opacity="1" stroke="#000000" stroke-linecap="butt" stroke-linejoin="miter" stroke-width="1"/>
<text fill="#ffffff" font-family="Helvetica" font-size="8.8" opacity="1" stroke="none" text-anchor="middle" transform="matrix(1 0 0 1 478.175 234)" x="0" y="0">
<tspan textLength="151.65" x="77.3248" y="9">Relational vs. non-relational databases</tspan>
</text>
<path d="M449.5 265.5C449.5 265.5 431.167 265.5 394.5 265.5" fill="none" opacity="1" stroke="#1f6286" stroke-dasharray="1.0,2.0,1.0,2.0" stroke-linecap="butt" stroke-linejoin="miter" stroke-width="1"/>
<path d="M454.5 258.5L658.5 258.5C660.157 258.5 661.5 259.843 661.5 261.5L661.5 275.5C661.5 277.157 660.157 278.5 658.5 278.5L454.5 278.5C452.843 278.5 451.5 277.157 451.5 275.5L451.5 261.5C451.5 259.843 452.843 258.5 454.5 258.5Z" fill="#000000" fill-rule="nonzero" opacity="0.25" stroke="#000000" stroke-linecap="butt" stroke-linejoin="miter" stroke-width="1"/>
<path d="M452.5 255.5L656.5 255.5C658.157 255.5 659.5 256.843 659.5 258.5L659.5 272.5C659.5 274.157 658.157 275.5 656.5 275.5L452.5 275.5C450.843 275.5 449.5 274.157 449.5 272.5L449.5 258.5C449.5 256.843 450.843 255.5 452.5 255.5Z" fill="#878787" fill-rule="nonzero" opacity="1" stroke="#000000" stroke-linecap="butt" stroke-linejoin="miter" stroke-width="1"/>
<text fill="#ffffff" font-family="Helvetica" font-size="8.8" opacity="1" stroke="none" text-anchor="middle" transform="matrix(1 0 0 1 475.612 259)" x="0" y="0">
<tspan textLength="156.776" x="79.8879" y="9">SQL + Joins (Inner, Outer, Cross, Thet...</tspan>
</text>
<path d="M449.5 290.5C431.167 290.5 422 286.333 422 278C422 269.667 412.833 265.5 394.5 265.5" fill="none" opacity="1" stroke="#1f6286" stroke-dasharray="1.0,2.0,1.0,2.0" stroke-linecap="butt" stroke-linejoin="miter" stroke-width="1"/>
<path d="M454.5 283.5L658.5 283.5C660.157 283.5 661.5 284.843 661.5 286.5L661.5 300.5C661.5 302.157 660.157 303.5 658.5 303.5L454.5 303.5C452.843 303.5 451.5 302.157 451.5 300.5L451.5 286.5C451.5 284.843 452.843 283.5 454.5 283.5Z" fill="#000000" fill-rule="nonzero" opacity="0.25" stroke="#000000" stroke-linecap="butt" stroke-linejoin="miter" stroke-width="1"/>
<path d="M452.5 280.5L656.5 280.5C658.157 280.5 659.5 281.843 659.5 283.5L659.5 297.5C659.5 299.157 658.157 300.5 656.5 300.5L452.5 300.5C450.843 300.5 449.5 299.157 449.5 297.5L449.5 283.5C449.5 281.843 450.843 280.5 452.5 280.5Z" fill="#878787" fill-rule="nonzero" opacity="1" stroke="#000000" stroke-linecap="butt" stroke-linejoin="miter" stroke-width="1"/>
<text fill="#ffffff" font-family="Helvetica" font-size="8.8" opacity="1" stroke="none" text-anchor="middle" transform="matrix(1 0 0 1 539.571 284)" x="0" y="0">
<tspan textLength="28.8578" x="15.9289" y="9">NoSQL</tspan>
</text>
<path d="M229 290.5L390 290.5C392.485 290.5 394.5 292.515 394.5 295L394.5 316C394.5 318.485 392.485 320.5 390 320.5L229 320.5C226.515 320.5 224.5 318.485 224.5 316L224.5 295C224.5 292.515 226.515 290.5 229 290.5Z" fill="#1f6286" fill-rule="nonzero" opacity="1" stroke="#000000" stroke-linecap="butt" stroke-linejoin="miter" stroke-width="1"/>
<text fill="#ffffff" font-family="Helvetica" font-size="9.6" opacity="1" stroke="none" text-anchor="middle" transform="matrix(1 0 0 1 281.784 300)" x="0" y="0">
<tspan textLength="54.4313" x="28.7156" y="9">Tabular Data</tspan>
</text>
<path d="M229 330.5L390 330.5C392.485 330.5 394.5 332.515 394.5 335L394.5 356C394.5 358.485 392.485 360.5 390 360.5L229 360.5C226.515 360.5 224.5 358.485 224.5 356L224.5 335C224.5 332.515 226.515 330.5 229 330.5Z" fill="#1f6286" fill-rule="nonzero" opacity="1" stroke="#000000" stroke-linecap="butt" stroke-linejoin="miter" stroke-width="1"/>
<text fill="#ffffff" font-family="Helvetica" font-size="9.6" opacity="1" stroke="none" text-anchor="middle" transform="matrix(1 0 0 1 232.98 340)" x="0" y="0">
<tspan textLength="152.039" x="77.5195" y="9">Data Frames &amp; Series%3CmxGra...</tspan>
</text>
<path d="M231 373.5L392 373.5C394.485 373.5 396.5 375.515 396.5 378L396.5 399C396.5 401.485 394.485 403.5 392 403.5L231 403.5C228.515 403.5 226.5 401.485 226.5 399L226.5 378C226.5 375.515 228.515 373.5 231 373.5Z" fill="#000000" fill-rule="nonzero" opacity="0.25" stroke="#000000" stroke-linecap="butt" stroke-linejoin="miter" stroke-width="1"/>
<path d="M229 370.5L390 370.5C392.485 370.5 394.5 372.515 394.5 375L394.5 396C394.5 398.485 392.485 400.5 390 400.5L229 400.5C226.515 400.5 224.5 398.485 224.5 396L224.5 375C224.5 372.515 226.515 370.5 229 370.5Z" fill="#1f6286" fill-rule="nonzero" opacity="1" stroke="#000000" stroke-linecap="butt" stroke-linejoin="miter" stroke-width="1"/>
<text fill="#ffffff" font-family="Helvetica" font-size="9.6" opacity="1" stroke="none" text-anchor="middle" transform="matrix(1 0 0 1 243.907 380)" x="0" y="0">
<tspan textLength="130.186" x="66.593" y="9">Extract, Transform, Load (ET...</tspan>
</text>
<path d="M229 410.5L390 410.5C392.485 410.5 394.5 412.515 394.5 415L394.5 436C394.5 438.485 392.485 440.5 390 440.5L229 440.5C226.515 440.5 224.5 438.485 224.5 436L224.5 415C224.5 412.515 226.515 410.5 229 410.5Z" fill="#1f6286" fill-rule="nonzero" opacity="1" stroke="#000000" stroke-linecap="butt" stroke-linejoin="miter" stroke-width="1"/>
<text fill="#ffffff" font-family="Helvetica" font-size="9.6" opacity="1" stroke="none" text-anchor="middle" transform="matrix(1 0 0 1 249.773 420)" x="0" y="0">
<tspan textLength="118.453" x="60.7266" y="9">Reporting vs BI vs Analytics</tspan>
</text>
<path d="M229 450.5L390 450.5C392.485 450.5 394.5 452.515 394.5 455L394.5 476C394.5 478.485 392.485 480.5 390 480.5L229 480.5C226.515 480.5 224.5 478.485 224.5 476L224.5 455C224.5 452.515 226.515 450.5 229 450.5Z" fill="#1f6286" fill-rule="nonzero" opacity="1" stroke="#000000" stroke-linecap="butt" stroke-linejoin="miter" stroke-width="1"/>
<text fill="#ffffff" font-family="Helvetica" font-size="9.6" opacity="1" stroke="none" text-anchor="middle" transform="matrix(1 0 0 1 279.926 460)" x="0" y="0">
<tspan textLength="58.1484" x="30.5742" y="9">Data Formats</tspan>
</text>
<path d="M174.5 439.5C191.167 439.5 199.5 443.833 199.5 452.5C199.5 461.167 207.833 465.5 224.5 465.5" fill="none" opacity="1" stroke="#1f6286" stroke-dasharray="1.0,2.0,1.0,2.0" stroke-linecap="butt" stroke-linejoin="miter" stroke-width="1"/>
<path d="M129.5 432.5L173.5 432.5C175.157 432.5 176.5 433.843 176.5 435.5L176.5 449.5C176.5 451.157 175.157 452.5 173.5 452.5L129.5 452.5C127.843 452.5 126.5 451.157 126.5 449.5L126.5 435.5C126.5 433.843 127.843 432.5 129.5 432.5Z" fill="#000000" fill-rule="nonzero" opacity="0.25" stroke="#000000" stroke-linecap="butt" stroke-linejoin="miter" stroke-width="1"/>
<path d="M127.5 429.5L171.5 429.5C173.157 429.5 174.5 430.843 174.5 432.5L174.5 446.5C174.5 448.157 173.157 449.5 171.5 449.5L127.5 449.5C125.843 449.5 124.5 448.157 124.5 446.5L124.5 432.5C124.5 430.843 125.843 429.5 127.5 429.5Z" fill="#878787" fill-rule="nonzero" opacity="1" stroke="#000000" stroke-linecap="butt" stroke-linejoin="miter" stroke-width="1"/>
<text fill="#ffffff" font-family="Helvetica" font-size="8.8" opacity="1" stroke="none" text-anchor="middle" transform="matrix(1 0 0 1 137.265 433)" x="0" y="0">
<tspan textLength="23.4695" x="13.2348" y="9">JSON</tspan>
</text>
<path d="M174.5 465.5C174.5 465.5 191.167 465.5 224.5 465.5" fill="none" opacity="1" stroke="#1f6286" stroke-dasharray="1.0,2.0,1.0,2.0" stroke-linecap="butt" stroke-linejoin="miter" stroke-width="1"/>
<path d="M129.5 458.5L173.5 458.5C175.157 458.5 176.5 459.843 176.5 461.5L176.5 475.5C176.5 477.157 175.157 478.5 173.5 478.5L129.5 478.5C127.843 478.5 126.5 477.157 126.5 475.5L126.5 461.5C126.5 459.843 127.843 458.5 129.5 458.5Z" fill="#000000" fill-rule="nonzero" opacity="0.25" stroke="#000000" stroke-linecap="butt" stroke-linejoin="miter" stroke-width="1"/>
<path d="M127.5 455.5L171.5 455.5C173.157 455.5 174.5 456.843 174.5 458.5L174.5 472.5C174.5 474.157 173.157 475.5 171.5 475.5L127.5 475.5C125.843 475.5 124.5 474.157 124.5 472.5L124.5 458.5C124.5 456.843 125.843 455.5 127.5 455.5Z" fill="#878787" fill-rule="nonzero" opacity="1" stroke="#000000" stroke-linecap="butt" stroke-linejoin="miter" stroke-width="1"/>
<text fill="#ffffff" font-family="Helvetica" font-size="8.8" opacity="1" stroke="none" text-anchor="middle" transform="matrix(1 0 0 1 139.953 459)" x="0" y="0">
<tspan textLength="18.0941" x="10.5471" y="9">XML</tspan>
</text>
<path d="M231 493.5L392 493.5C394.485 493.5 396.5 495.515 396.5 498L396.5 519C396.5 521.485 394.485 523.5 392 523.5L231 523.5C228.515 523.5 226.5 521.485 226.5 519L226.5 498C226.5 495.515 228.515 493.5 231 493.5Z" fill="#000000" fill-rule="nonzero" opacity="0.25" stroke="#000000" stroke-linecap="butt" stroke-linejoin="miter" stroke-width="1"/>
<path d="M229 490.5L390 490.5C392.485 490.5 394.5 492.515 394.5 495L394.5 516C394.5 518.485 392.485 520.5 390 520.5L229 520.5C226.515 520.5 224.5 518.485 224.5 516L224.5 495C224.5 492.515 226.515 490.5 229 490.5Z" fill="#1f6286" fill-rule="nonzero" opacity="1" stroke="#000000" stroke-linecap="butt" stroke-linejoin="miter" stroke-width="1"/>
<text fill="#ffffff" font-family="Helvetica" font-size="9.6" opacity="1" stroke="none" text-anchor="middle" transform="matrix(1 0 0 1 245.775 500)" x="0" y="0">
<tspan textLength="126.45" x="64.725" y="9">Regular Expressions (RegEx)</tspan>
</text>
<path d="M309.5 520.5C309.5 562.033 331.667 582.8 376 582.8C420.333 582.8 442.5 603.533 442.5 645" fill="none" opacity="1" stroke="#1f6286" stroke-linecap="butt" stroke-linejoin="miter" stroke-width="1"/>
<path d="M357.5 660C336.833 660 326.5 652.583 326.5 637.75C326.5 622.917 321.5 615.5 311.5 615.5" fill="none" opacity="1" stroke="#1f6286" stroke-dasharray="1.0,2.0,1.0,2.0" stroke-linecap="butt" stroke-linejoin="miter" stroke-width="1"/>
<path d="M364 648L525 648C527.485 648 529.5 650.015 529.5 652.5L529.5 673.5C529.5 675.985 527.485 678 525 678L364 678C361.515 678 359.5 675.985 359.5 673.5L359.5 652.5C359.5 650.015 361.515 648 364 648Z" fill="#000000" fill-rule="nonzero" opacity="0.25" stroke="#000000" stroke-linecap="butt" stroke-linejoin="miter" stroke-width="1"/>
<path d="M362 645L523 645C525.485 645 527.5 647.015 527.5 649.5L527.5 670.5C527.5 672.985 525.485 675 523 675L362 675C359.515 675 357.5 672.985 357.5 670.5L357.5 649.5C357.5 647.015 359.515 645 362 645Z" fill="#1f6286" fill-rule="nonzero" opacity="1" stroke="#000000" stroke-linecap="butt" stroke-linejoin="miter" stroke-width="1"/>
<text fill="#ffffff" font-family="Helvetica" font-size="9.6" opacity="1" stroke="none" text-anchor="middle" transform="matrix(1 0 0 1 411.585 654)" x="0" y="0">
<tspan textLength="60.8297" x="31.9148" y="9">Python Basics</tspan>
</text>
<path d="M364 688L525 688C527.485 688 529.5 690.015 529.5 692.5L529.5 713.5C529.5 715.985 527.485 718 525 718L364 718C361.515 718 359.5 715.985 359.5 713.5L359.5 692.5C359.5 690.015 361.515 688 364 688Z" fill="#000000" fill-rule="nonzero" opacity="0.25" stroke="#000000" stroke-linecap="butt" stroke-linejoin="miter" stroke-width="1"/>
<path d="M362 685L523 685C525.485 685 527.5 687.015 527.5 689.5L527.5 710.5C527.5 712.985 525.485 715 523 715L362 715C359.515 715 357.5 712.985 357.5 710.5L357.5 689.5C357.5 687.015 359.515 685 362 685Z" fill="#1f6286" fill-rule="nonzero" opacity="1" stroke="#000000" stroke-linecap="butt" stroke-linejoin="miter" stroke-width="1"/>
<text fill="#ffffff" font-family="Helvetica" font-size="9.6" opacity="1" stroke="none" text-anchor="middle" transform="matrix(1 0 0 1 403.586 694)" x="0" y="0">
<tspan textLength="76.8281" x="39.9141" y="9">Important libraries</tspan>
</text>
<path d="M441.5 796.5C441.5 819.5 457.167 831 488.5 831C519.833 831 535.5 842.5 535.5 865.5" fill="none" opacity="1" stroke="#1f6286" stroke-linecap="butt" stroke-linejoin="miter" stroke-width="1"/>
<path d="M364 728L525 728C527.485 728 529.5 730.015 529.5 732.5L529.5 753.5C529.5 755.985 527.485 758 525 758L364 758C361.515 758 359.5 755.985 359.5 753.5L359.5 732.5C359.5 730.015 361.515 728 364 728Z" fill="#000000" fill-rule="nonzero" opacity="0.25" stroke="#000000" stroke-linecap="butt" stroke-linejoin="miter" stroke-width="1"/>
<path d="M362 725L523 725C525.485 725 527.5 727.015 527.5 729.5L527.5 750.5C527.5 752.985 525.485 755 523 755L362 755C359.515 755 357.5 752.985 357.5 750.5L357.5 729.5C357.5 727.015 359.515 725 362 725Z" fill="#1f6286" fill-rule="nonzero" opacity="1" stroke="#000000" stroke-linecap="butt" stroke-linejoin="miter" stroke-width="1"/>
<text fill="#ffffff" font-family="Helvetica" font-size="9.6" opacity="1" stroke="none" text-anchor="middle" transform="matrix(1 0 0 1 397.799 734)" x="0" y="0">
<tspan textLength="88.4016" x="45.7008" y="9">Virtual Environments</tspan>
</text>
<path d="M103.5 605.5L308.5 605.5C310.157 605.5 311.5 606.843 311.5 608.5L311.5 622.5C311.5 624.157 310.157 625.5 308.5 625.5L103.5 625.5C101.843 625.5 100.5 624.157 100.5 622.5L100.5 608.5C100.5 606.843 101.843 605.5 103.5 605.5Z" fill="#878787" fill-rule="nonzero" opacity="1" stroke="#000000" stroke-linecap="butt" stroke-linejoin="miter" stroke-width="1"/>
<text fill="#ffffff" font-family="Helvetica" font-size="8.8" opacity="1" stroke="none" text-anchor="middle" transform="matrix(1 0 0 1 182.034 609)" x="0" y="0">
<tspan textLength="47.9316" x="25.4658" y="9">Expressions</tspan>
</text>
<path d="M311.5 646.5C321.5 646.5 326.5 648.75 326.5 653.25C326.5 657.75 336.833 660 357.5 660" fill="none" opacity="1" stroke="#1f6286" stroke-dasharray="1.0,2.0,1.0,2.0" stroke-linecap="butt" stroke-linejoin="miter" stroke-width="1"/>
<path d="M103.5 636.5L308.5 636.5C310.157 636.5 311.5 637.843 311.5 639.5L311.5 653.5C311.5 655.157 310.157 656.5 308.5 656.5L103.5 656.5C101.843 656.5 100.5 655.157 100.5 653.5L100.5 639.5C100.5 637.843 101.843 636.5 103.5 636.5Z" fill="#878787" fill-rule="nonzero" opacity="1" stroke="#000000" stroke-linecap="butt" stroke-linejoin="miter" stroke-width="1"/>
<text fill="#ffffff" font-family="Helvetica" font-size="8.8" opacity="1" stroke="none" text-anchor="middle" transform="matrix(1 0 0 1 187.981 640)" x="0" y="0">
<tspan textLength="36.0379" x="19.5189" y="9">Variables</tspan>
</text>
<path d="M311.5 676.5C321.5 676.5 326.5 673.75 326.5 668.25C326.5 662.75 336.833 660 357.5 660" fill="none" opacity="1" stroke="#1f6286" stroke-dasharray="1.0,2.0,1.0,2.0" stroke-linecap="butt" stroke-linejoin="miter" stroke-width="1"/>
<path d="M103.5 666.5L308.5 666.5C310.157 666.5 311.5 667.843 311.5 669.5L311.5 683.5C311.5 685.157 310.157 686.5 308.5 686.5L103.5 686.5C101.843 686.5 100.5 685.157 100.5 683.5L100.5 669.5C100.5 667.843 101.843 666.5 103.5 666.5Z" fill="#878787" fill-rule="nonzero" opacity="1" stroke="#000000" stroke-linecap="butt" stroke-linejoin="miter" stroke-width="1"/>
<text fill="#ffffff" font-family="Helvetica" font-size="8.8" opacity="1" stroke="none" text-anchor="middle" transform="matrix(1 0 0 1 175.432 670)" x="0" y="0">
<tspan textLength="61.1359" x="32.068" y="9">Data Structures</tspan>
</text>
<path d="M311.5 706.5C321.5 706.5 326.5 698.75 326.5 683.25C326.5 667.75 336.833 660 357.5 660" fill="none" opacity="1" stroke="#1f6286" stroke-dasharray="1.0,2.0,1.0,2.0" stroke-linecap="butt" stroke-linejoin="miter" stroke-width="1"/>
<path d="M103.5 696.5L308.5 696.5C310.157 696.5 311.5 697.843 311.5 699.5L311.5 713.5C311.5 715.157 310.157 716.5 308.5 716.5L103.5 716.5C101.843 716.5 100.5 715.157 100.5 713.5L100.5 699.5C100.5 697.843 101.843 696.5 103.5 696.5Z" fill="#878787" fill-rule="nonzero" opacity="1" stroke="#000000" stroke-linecap="butt" stroke-linejoin="miter" stroke-width="1"/>
<text fill="#ffffff" font-family="Helvetica" font-size="8.8" opacity="1" stroke="none" text-anchor="middle" transform="matrix(1 0 0 1 186.924 700)" x="0" y="0">
<tspan textLength="38.152" x="20.576" y="9">Functions</tspan>
</text>
<path d="M311.5 736.5C321.5 736.5 326.5 723.75 326.5 698.25C326.5 672.75 336.833 660 357.5 660" fill="none" opacity="1" stroke="#1f6286" stroke-dasharray="1.0,2.0,1.0,2.0" stroke-linecap="butt" stroke-linejoin="miter" stroke-width="1"/>
<path d="M103.5 726.5L308.5 726.5C310.157 726.5 311.5 727.843 311.5 729.5L311.5 743.5C311.5 745.157 310.157 746.5 308.5 746.5L103.5 746.5C101.843 746.5 100.5 745.157 100.5 743.5L100.5 729.5C100.5 727.843 101.843 726.5 103.5 726.5Z" fill="#878787" fill-rule="nonzero" opacity="1" stroke="#000000" stroke-linecap="butt" stroke-linejoin="miter" stroke-width="1"/>
<text fill="#ffffff" font-family="Helvetica" font-size="8.8" opacity="1" stroke="none" text-anchor="middle" transform="matrix(1 0 0 1 131.406 730)" x="0" y="0">
<tspan textLength="149.188" x="76.0938" y="9">Install packages (via pip, conda or si...</tspan>
</text>
<path d="M311.5 766.5C321.5 766.5 326.5 748.75 326.5 713.25C326.5 677.75 336.833 660 357.5 660" fill="none" opacity="1" stroke="#1f6286" stroke-dasharray="1.0,2.0,1.0,2.0" stroke-linecap="butt" stroke-linejoin="miter" stroke-width="1"/>
<path d="M105.5 759.5L310.5 759.5C312.157 759.5 313.5 760.843 313.5 762.5L313.5 776.5C313.5 778.157 312.157 779.5 310.5 779.5L105.5 779.5C103.843 779.5 102.5 778.157 102.5 776.5L102.5 762.5C102.5 760.843 103.843 759.5 105.5 759.5Z" fill="#000000" fill-rule="nonzero" opacity="0.25" stroke="#000000" stroke-linecap="butt" stroke-linejoin="miter" stroke-width="1"/>
<path d="M103.5 756.5L308.5 756.5C310.157 756.5 311.5 757.843 311.5 759.5L311.5 773.5C311.5 775.157 310.157 776.5 308.5 776.5L103.5 776.5C101.843 776.5 100.5 775.157 100.5 773.5L100.5 759.5C100.5 757.843 101.843 756.5 103.5 756.5Z" fill="#878787" fill-rule="nonzero" opacity="1" stroke="#000000" stroke-linecap="butt" stroke-linejoin="miter" stroke-width="1"/>
<text fill="#ffffff" font-family="Helvetica" font-size="8.8" opacity="1" stroke="none" text-anchor="middle" transform="matrix(1 0 0 1 164.176 760)" x="0" y="0">
<tspan textLength="83.6473" x="43.3236" y="9">Codestyle, e.g. PEP8</tspan>
</text>
<path d="M564 686.5C549 686.5 541.5 688.75 541.5 693.25C541.5 697.75 536.833 700 527.5 700" fill="none" opacity="1" stroke="#1b3cb3" stroke-dasharray="1.0,2.0,1.0,2.0" stroke-linecap="butt" stroke-linejoin="miter" stroke-width="1"/>
<path d="M569 679.5L703 679.5C704.657 679.5 706 680.843 706 682.5L706 696.5C706 698.157 704.657 699.5 703 699.5L569 699.5C567.343 699.5 566 698.157 566 696.5L566 682.5C566 680.843 567.343 679.5 569 679.5Z" fill="#000000" fill-rule="nonzero" opacity="0.25" stroke="#000000" stroke-linecap="butt" stroke-linejoin="miter" stroke-width="1"/>
<path d="M567 676.5L701 676.5C702.657 676.5 704 677.843 704 679.5L704 693.5C704 695.157 702.657 696.5 701 696.5L567 696.5C565.343 696.5 564 695.157 564 693.5L564 679.5C564 677.843 565.343 676.5 567 676.5Z" fill="#878787" fill-rule="nonzero" opacity="1" stroke="#000000" stroke-linecap="butt" stroke-linejoin="miter" stroke-width="1"/>
<text fill="#ffffff" font-family="Helvetica" font-size="8.8" opacity="1" stroke="none" text-anchor="middle" transform="matrix(1 0 0 1 620.063 680)" x="0" y="0">
<tspan textLength="27.8738" x="15.4369" y="9">Numpy</tspan>
</text>
<path d="M564 716.5C551 716.5 544.5 713.75 544.5 708.25C544.5 702.75 538.833 700 527.5 700" fill="none" opacity="1" stroke="#1b3cb3" stroke-dasharray="1.0,2.0,1.0,2.0" stroke-linecap="butt" stroke-linejoin="miter" stroke-width="1"/>
<path d="M569 709.5L703 709.5C704.657 709.5 706 710.843 706 712.5L706 726.5C706 728.157 704.657 729.5 703 729.5L569 729.5C567.343 729.5 566 728.157 566 726.5L566 712.5C566 710.843 567.343 709.5 569 709.5Z" fill="#000000" fill-rule="nonzero" opacity="0.25" stroke="#000000" stroke-linecap="butt" stroke-linejoin="miter" stroke-width="1"/>
<path d="M567 706.5L701 706.5C702.657 706.5 704 707.843 704 709.5L704 723.5C704 725.157 702.657 726.5 701 726.5L567 726.5C565.343 726.5 564 725.157 564 723.5L564 709.5C564 707.843 565.343 706.5 567 706.5Z" fill="#878787" fill-rule="nonzero" opacity="1" stroke="#000000" stroke-linecap="butt" stroke-linejoin="miter" stroke-width="1"/>
<text fill="#ffffff" font-family="Helvetica" font-size="8.8" opacity="1" stroke="none" text-anchor="middle" transform="matrix(1 0 0 1 619.077 710)" x="0" y="0">
<tspan textLength="29.8461" x="16.423" y="9">Pandas</tspan>
</text>
<text fill="#ffffff" font-family="Helvetica" font-size="12.8" opacity="1" stroke="none" text-anchor="middle" transform="matrix(1 0 0 1 231.15 175)" x="0" y="0">
<tspan textLength="37.7" x="20.35" y="12">Basics</tspan>
</text>
<text fill="#ffffff" font-family="Helvetica" font-size="12.8" opacity="1" stroke="none" text-anchor="start" transform="matrix(1 0 0 1 380 620)" x="0" y="0">
<tspan textLength="127.344" x="0" y="12">Python   Programming</tspan>
</text>
<text fill="#ffffff" font-family="Helvetica" font-size="12.8" opacity="1" stroke="none" text-anchor="middle" transform="matrix(1 0 0 1 154.184 1064)" x="0" y="0">
<tspan textLength="163.631" x="83.3156" y="12">Exploratory Data Analysis /...</tspan>
</text>
<path d="M543.49 1000.5C543.497 1033.83 514.833 1050.5 457.5 1050.5C400.167 1050.5 371.5 1067.17 371.5 1100.5" fill="none" opacity="1" stroke="#1f6286" stroke-linecap="butt" stroke-linejoin="miter" stroke-width="1"/>
<path d="M293 1147.5L454 1147.5C456.485 1147.5 458.5 1149.51 458.5 1152L458.5 1173C458.5 1175.49 456.485 1177.5 454 1177.5L293 1177.5C290.515 1177.5 288.5 1175.49 288.5 1173L288.5 1152C288.5 1149.51 290.515 1147.5 293 1147.5Z" fill="#000000" fill-rule="nonzero" opacity="0.25" stroke="#000000" stroke-linecap="butt" stroke-linejoin="miter" stroke-width="1"/>
<path d="M291 1144.5L452 1144.5C454.485 1144.5 456.5 1146.51 456.5 1149L456.5 1170C456.5 1172.49 454.485 1174.5 452 1174.5L291 1174.5C288.515 1174.5 286.5 1172.49 286.5 1170L286.5 1149C286.5 1146.51 288.515 1144.5 291 1144.5Z" fill="#1f6286" fill-rule="nonzero" opacity="1" stroke="#000000" stroke-linecap="butt" stroke-linejoin="miter" stroke-width="1"/>
<text fill="#ffffff" font-family="Helvetica" font-size="9.6" opacity="1" stroke="none" text-anchor="middle" transform="matrix(1 0 0 1 306.001 1154)" x="0" y="0">
<tspan textLength="129.998" x="66.4992" y="9">Dimensionality &amp; Numerosity...</tspan>
</text>
<path d="M293 1192.5L454 1192.5C456.485 1192.5 458.5 1194.51 458.5 1197L458.5 1218C458.5 1220.49 456.485 1222.5 454 1222.5L293 1222.5C290.515 1222.5 288.5 1220.49 288.5 1218L288.5 1197C288.5 1194.51 290.515 1192.5 293 1192.5Z" fill="#000000" fill-rule="nonzero" opacity="0.25" stroke="#000000" stroke-linecap="butt" stroke-linejoin="miter" stroke-width="1"/>
<path d="M291 1189.5L452 1189.5C454.485 1189.5 456.5 1191.51 456.5 1194L456.5 1215C456.5 1217.49 454.485 1219.5 452 1219.5L291 1219.5C288.515 1219.5 286.5 1217.49 286.5 1215L286.5 1194C286.5 1191.51 288.515 1189.5 291 1189.5Z" fill="#1f6286" fill-rule="nonzero" opacity="1" stroke="#000000" stroke-linecap="butt" stroke-linejoin="miter" stroke-width="1"/>
<text fill="#ffffff" font-family="Helvetica" font-size="9.6" opacity="1" stroke="none" text-anchor="middle" transform="matrix(1 0 0 1 341.656 1199)" x="0" y="0">
<tspan textLength="58.6875" x="30.8438" y="9">Normalization</tspan>
</text>
<path d="M293 1236.5L454 1236.5C456.485 1236.5 458.5 1238.51 458.5 1241L458.5 1262C458.5 1264.49 456.485 1266.5 454 1266.5L293 1266.5C290.515 1266.5 288.5 1264.49 288.5 1262L288.5 1241C288.5 1238.51 290.515 1236.5 293 1236.5Z" fill="#000000" fill-rule="nonzero" opacity="0.25" stroke="#000000" stroke-linecap="butt" stroke-linejoin="miter" stroke-width="1"/>
<path d="M291 1233.5L452 1233.5C454.485 1233.5 456.5 1235.51 456.5 1238L456.5 1259C456.5 1261.49 454.485 1263.5 452 1263.5L291 1263.5C288.515 1263.5 286.5 1261.49 286.5 1259L286.5 1238C286.5 1235.51 288.515 1233.5 291 1233.5Z" fill="#1f6286" fill-rule="nonzero" opacity="1" stroke="#000000" stroke-linecap="butt" stroke-linejoin="miter" stroke-width="1"/>
<text fill="#ffffff" font-family="Helvetica" font-size="9.6" opacity="1" stroke="none" text-anchor="middle" transform="matrix(1 0 0 1 332.579 1243)" x="0" y="0">
<tspan textLength="76.8422" x="39.9211" y="9">Data Scrubbing,...</tspan>
</text>
<path d="M293 1281.5L454 1281.5C456.485 1281.5 458.5 1283.51 458.5 1286L458.5 1307C458.5 1309.49 456.485 1311.5 454 1311.5L293 1311.5C290.515 1311.5 288.5 1309.49 288.5 1307L288.5 1286C288.5 1283.51 290.515 1281.5 293 1281.5Z" fill="#000000" fill-rule="nonzero" opacity="0.25" stroke="#000000" stroke-linecap="butt" stroke-linejoin="miter" stroke-width="1"/>
<path d="M291 1278.5L452 1278.5C454.485 1278.5 456.5 1280.51 456.5 1283L456.5 1304C456.5 1306.49 454.485 1308.5 452 1308.5L291 1308.5C288.515 1308.5 286.5 1306.49 286.5 1304L286.5 1283C286.5 1280.51 288.515 1278.5 291 1278.5Z" fill="#1f6286" fill-rule="nonzero" opacity="1" stroke="#000000" stroke-linecap="butt" stroke-linejoin="miter" stroke-width="1"/>
<text fill="#ffffff" font-family="Helvetica" font-size="9.6" opacity="1" stroke="none" text-anchor="middle" transform="matrix(1 0 0 1 326.715 1288)" x="0" y="0">
<tspan textLength="88.5703" x="45.7852" y="9">Unbiased Estimators</tspan>
</text>
<path d="M293 1325.5L454 1325.5C456.485 1325.5 458.5 1327.51 458.5 1330L458.5 1351C458.5 1353.49 456.485 1355.5 454 1355.5L293 1355.5C290.515 1355.5 288.5 1353.49 288.5 1351L288.5 1330C288.5 1327.51 290.515 1325.5 293 1325.5Z" fill="#000000" fill-rule="nonzero" opacity="0.25" stroke="#000000" stroke-linecap="butt" stroke-linejoin="miter" stroke-width="1"/>
<path d="M291 1322.5L452 1322.5C454.485 1322.5 456.5 1324.51 456.5 1327L456.5 1348C456.5 1350.49 454.485 1352.5 452 1352.5L291 1352.5C288.515 1352.5 286.5 1350.49 286.5 1348L286.5 1327C286.5 1324.51 288.515 1322.5 291 1322.5Z" fill="#1f6286" fill-rule="nonzero" opacity="1" stroke="#000000" stroke-linecap="butt" stroke-linejoin="miter" stroke-width="1"/>
<text fill="#ffffff" font-family="Helvetica" font-size="9.6" opacity="1" stroke="none" text-anchor="middle" transform="matrix(1 0 0 1 324.038 1332)" x="0" y="0">
<tspan textLength="93.9234" x="48.4617" y="9">Binning sparse values</tspan>
</text>
<path d="M293 1369.5L454 1369.5C456.485 1369.5 458.5 1371.51 458.5 1374L458.5 1395C458.5 1397.49 456.485 1399.5 454 1399.5L293 1399.5C290.515 1399.5 288.5 1397.49 288.5 1395L288.5 1374C288.5 1371.51 290.515 1369.5 293 1369.5Z" fill="#000000" fill-rule="nonzero" opacity="0.25" stroke="#000000" stroke-linecap="butt" stroke-linejoin="miter" stroke-width="1"/>
<path d="M291 1366.5L452 1366.5C454.485 1366.5 456.5 1368.51 456.5 1371L456.5 1392C456.5 1394.49 454.485 1396.5 452 1396.5L291 1396.5C288.515 1396.5 286.5 1394.49 286.5 1392L286.5 1371C286.5 1368.51 288.515 1366.5 291 1366.5Z" fill="#1f6286" fill-rule="nonzero" opacity="1" stroke="#000000" stroke-linecap="butt" stroke-linejoin="miter" stroke-width="1"/>
<text fill="#ffffff" font-family="Helvetica" font-size="9.6" opacity="1" stroke="none" text-anchor="middle" transform="matrix(1 0 0 1 331.782 1376)" x="0" y="0">
<tspan textLength="78.4359" x="40.718" y="9">Feature Extraction</tspan>
</text>
<path d="M293 1414.5L454 1414.5C456.485 1414.5 458.5 1416.51 458.5 1419L458.5 1440C458.5 1442.49 456.485 1444.5 454 1444.5L293 1444.5C290.515 1444.5 288.5 1442.49 288.5 1440L288.5 1419C288.5 1416.51 290.515 1414.5 293 1414.5Z" fill="#000000" fill-rule="nonzero" opacity="0.25" stroke="#000000" stroke-linecap="butt" stroke-linejoin="miter" stroke-width="1"/>
<path d="M291 1411.5L452 1411.5C454.485 1411.5 456.5 1413.51 456.5 1416L456.5 1437C456.5 1439.49 454.485 1441.5 452 1441.5L291 1441.5C288.515 1441.5 286.5 1439.49 286.5 1437L286.5 1416C286.5 1413.51 288.515 1411.5 291 1411.5Z" fill="#1f6286" fill-rule="nonzero" opacity="1" stroke="#000000" stroke-linecap="butt" stroke-linejoin="miter" stroke-width="1"/>
<text fill="#ffffff" font-family="Helvetica" font-size="9.6" opacity="1" stroke="none" text-anchor="middle" transform="matrix(1 0 0 1 349.653 1421)" x="0" y="0">
<tspan textLength="42.6938" x="22.8469" y="9">Denoising</tspan>
</text>
<path d="M293 1458.5L454 1458.5C456.485 1458.5 458.5 1460.51 458.5 1463L458.5 1484C458.5 1486.49 456.485 1488.5 454 1488.5L293 1488.5C290.515 1488.5 288.5 1486.49 288.5 1484L288.5 1463C288.5 1460.51 290.515 1458.5 293 1458.5Z" fill="#000000" fill-rule="nonzero" opacity="0.25" stroke="#000000" stroke-linecap="butt" stroke-linejoin="miter" stroke-width="1"/>
<path d="M291 1455.5L452 1455.5C454.485 1455.5 456.5 1457.51 456.5 1460L456.5 1481C456.5 1483.49 454.485 1485.5 452 1485.5L291 1485.5C288.515 1485.5 286.5 1483.49 286.5 1481L286.5 1460C286.5 1457.51 288.515 1455.5 291 1455.5Z" fill="#1f6286" fill-rule="nonzero" opacity="1" stroke="#000000" stroke-linecap="butt" stroke-linejoin="miter" stroke-width="1"/>
<text fill="#ffffff" font-family="Helvetica" font-size="9.6" opacity="1" stroke="none" text-anchor="middle" transform="matrix(1 0 0 1 350.989 1465)" x="0" y="0">
<tspan textLength="40.0219" x="21.5109" y="9">Sampling</tspan>
</text>
<path d="M293 1103.5L454 1103.5C456.485 1103.5 458.5 1105.51 458.5 1108L458.5 1129C458.5 1131.49 456.485 1133.5 454 1133.5L293 1133.5C290.515 1133.5 288.5 1131.49 288.5 1129L288.5 1108C288.5 1105.51 290.515 1103.5 293 1103.5Z" fill="#000000" fill-rule="nonzero" opacity="0.25" stroke="#000000" stroke-linecap="butt" stroke-linejoin="miter" stroke-width="1"/>
<path d="M291 1100.5L452 1100.5C454.485 1100.5 456.5 1102.51 456.5 1105L456.5 1126C456.5 1128.49 454.485 1130.5 452 1130.5L291 1130.5C288.515 1130.5 286.5 1128.49 286.5 1126L286.5 1105C286.5 1102.51 288.515 1100.5 291 1100.5Z" fill="#1f6286" fill-rule="nonzero" opacity="1" stroke="#000000" stroke-linecap="butt" stroke-linejoin="miter" stroke-width="1"/>
<text fill="#ffffff" font-family="Helvetica" font-size="9.6" opacity="1" stroke="none" text-anchor="middle" transform="matrix(1 0 0 1 303.498 1110)" x="0" y="0">
<tspan textLength="135.005" x="69.0023" y="9">Principal Component Analysis...</tspan>
</text>
<path d="M371.5 1485.5C374.167 1538.83 354.333 1568.83 312 1575.5C269.667 1582.17 246.747 1608.17 243.24 1653.5" fill="none" opacity="1" stroke="#1f6286" stroke-dasharray="3.0" stroke-linecap="butt" stroke-linejoin="miter" stroke-width="1"/>
<path d="M371.5 1485.5C371.5 1538.83 393 1568.83 436 1575.5C479 1582.17 501.833 1608.17 504.5 1653.5" fill="none" opacity="1" stroke="#1f6286" stroke-dasharray="3.0" stroke-linecap="butt" stroke-linejoin="miter" stroke-width="1"/>
<path d="M129.5 485.5L173.5 485.5C175.157 485.5 176.5 486.843 176.5 488.5L176.5 502.5C176.5 504.157 175.157 505.5 173.5 505.5L129.5 505.5C127.843 505.5 126.5 504.157 126.5 502.5L126.5 488.5C126.5 486.843 127.843 485.5 129.5 485.5Z" fill="#000000" fill-rule="nonzero" opacity="0.25" stroke="#000000" stroke-linecap="butt" stroke-linejoin="miter" stroke-width="1"/>
<path d="M127.5 482.5L171.5 482.5C173.157 482.5 174.5 483.843 174.5 485.5L174.5 499.5C174.5 501.157 173.157 502.5 171.5 502.5L127.5 502.5C125.843 502.5 124.5 501.157 124.5 499.5L124.5 485.5C124.5 483.843 125.843 482.5 127.5 482.5Z" fill="#878787" fill-rule="nonzero" opacity="1" stroke="#000000" stroke-linecap="butt" stroke-linejoin="miter" stroke-width="1"/>
<text fill="#ffffff" font-family="Helvetica" font-size="8.8" opacity="1" stroke="none" text-anchor="middle" transform="matrix(1 0 0 1 139.953 486)" x="0" y="0">
<tspan textLength="18.0941" x="10.5471" y="9">CSV</tspan>
</text>
<path d="M174.5 492.5C191.167 492.5 199.5 488 199.5 479C199.5 470 207.833 465.5 224.5 465.5" fill="none" opacity="1" stroke="#1f6286" stroke-dasharray="1.0,2.0,1.0,2.0" stroke-linecap="butt" stroke-linejoin="miter" stroke-width="1"/>
<path d="M457 938.5L618 938.5C620.485 938.5 622.5 940.515 622.5 943L622.5 964C622.5 966.485 620.485 968.5 618 968.5L457 968.5C454.515 968.5 452.5 966.485 452.5 964L452.5 943C452.5 940.515 454.515 938.5 457 938.5Z" fill="#000000" fill-rule="nonzero" opacity="0.25" stroke="#000000" stroke-linecap="butt" stroke-linejoin="miter" stroke-width="1"/>
<path d="M455 935.5L616 935.5C618.485 935.5 620.5 937.515 620.5 940L620.5 961C620.5 963.485 618.485 965.5 616 965.5L455 965.5C452.515 965.5 450.5 963.485 450.5 961L450.5 940C450.5 937.515 452.515 935.5 455 935.5Z" fill="#1f6286" fill-rule="nonzero" opacity="1" stroke="#000000" stroke-linecap="butt" stroke-linejoin="miter" stroke-width="1"/>
<text fill="#ffffff" font-family="Helvetica" font-size="9.6" opacity="1" stroke="none" text-anchor="middle" transform="matrix(1 0 0 1 479.327 945)" x="0" y="0">
<tspan textLength="111.347" x="57.1734" y="9">Awesome Public Datasets</tspan>
</text>
<path d="M457 973.5L618 973.5C620.485 973.5 622.5 975.515 622.5 978L622.5 999C622.5 1001.49 620.485 1003.5 618 1003.5L457 1003.5C454.515 1003.5 452.5 1001.49 452.5 999L452.5 978C452.5 975.515 454.515 973.5 457 973.5Z" fill="#000000" fill-rule="nonzero" opacity="0.25" stroke="#000000" stroke-linecap="butt" stroke-linejoin="miter" stroke-width="1"/>
<path d="M455 970.5L616 970.5C618.485 970.5 620.5 972.515 620.5 975L620.5 996C620.5 998.485 618.485 1000.5 616 1000.5L455 1000.5C452.515 1000.5 450.5 998.485 450.5 996L450.5 975C450.5 972.515 452.515 970.5 455 970.5Z" fill="#1f6286" fill-rule="nonzero" opacity="1" stroke="#000000" stroke-linecap="butt" stroke-linejoin="miter" stroke-width="1"/>
<text fill="#ffffff" font-family="Helvetica" font-size="9.6" opacity="1" stroke="none" text-anchor="middle" transform="matrix(1 0 0 1 520.054 980)" x="0" y="0">
<tspan textLength="29.8922" x="16.4461" y="9">Kaggle</tspan>
</text>
<path d="M361 766.5L522 766.5C524.485 766.5 526.5 768.515 526.5 771L526.5 792C526.5 794.485 524.485 796.5 522 796.5L361 796.5C358.515 796.5 356.5 794.485 356.5 792L356.5 771C356.5 768.515 358.515 766.5 361 766.5Z" fill="#1f6286" fill-rule="nonzero" opacity="1" stroke="#000000" stroke-linecap="butt" stroke-linejoin="miter" stroke-width="1"/>
<text fill="#ffffff" font-family="Helvetica" font-size="9.6" opacity="1" stroke="none" text-anchor="middle" transform="matrix(1 0 0 1 388.969 776)" x="0" y="0">
<tspan textLength="104.063" x="53.5313" y="9">Jupyter Notebooks / Lab</tspan>
</text>
<text fill="#ffffff" font-family="Helvetica" font-size="12.8" opacity="1" stroke="none" text-anchor="middle" transform="matrix(1 0 0 1 571.225 837)" x="0" y="0">
<tspan textLength="77.55" x="40.275" y="12">Data Sources</tspan>
</text>
<text fill="#ff8000" font-family="Helvetica" font-size="9.6" opacity="1" stroke="none" text-anchor="middle" transform="matrix(1 0 0 1 24.8906 253)" x="0" y="0">
<tspan textLength="154.219" x="78.6094" y="9">Some boxes link to additional reso...</tspan>
</text>
<path d="M105.5 310.5L105.5 385.5L215.76 385.5" fill="none" opacity="1" stroke="#ff8000" stroke-dasharray="1.0,2.0,1.0,2.0" stroke-linecap="butt" stroke-linejoin="miter" stroke-width="1"/>
<path d="M215.76 385.5C215.76 383.843 217.103 382.5 218.76 382.5C220.417 382.5 221.76 383.843 221.76 385.5C221.76 387.157 220.417 388.5 218.76 388.5C217.103 388.5 215.76 387.157 215.76 385.5Z" fill="#ff8000" fill-rule="nonzero" opacity="1" stroke="#ff8000" stroke-linecap="butt" stroke-linejoin="miter" stroke-width="1"/>
<text fill="#ff8000" font-family="Helvetica" font-size="9.6" opacity="1" stroke="none" text-anchor="middle" transform="matrix(1 0 0 1 52.3758 280)" x="0" y="0">
<tspan textLength="99.2484" x="51.1242" y="9">Interactive version on...</tspan>
</text>
<text fill="#ffffff" font-family="Helvetica" font-size="12.8" opacity="1" stroke="none" text-anchor="middle" transform="matrix(1 0 0 1 201.516 1667)" x="0" y="0">
<tspan textLength="78.9688" x="40.9844" y="12">Data Scientist</tspan>
</text>
<text fill="#ffffff" font-family="Helvetica" font-size="12.8" opacity="1" stroke="none" text-anchor="middle" transform="matrix(1 0 0 1 463.084 1667)" x="0" y="0">
<tspan textLength="81.8313" x="42.4156" y="12">Data Engineer</tspan>
</text>
<path d="M457 868.5L618 868.5C620.485 868.5 622.5 870.515 622.5 873L622.5 894C622.5 896.485 620.485 898.5 618 898.5L457 898.5C454.515 898.5 452.5 896.485 452.5 894L452.5 873C452.5 870.515 454.515 868.5 457 868.5Z" fill="#000000" fill-rule="nonzero" opacity="0.25" stroke="#000000" stroke-linecap="butt" stroke-linejoin="miter" stroke-width="1"/>
<path d="M455 865.5L616 865.5C618.485 865.5 620.5 867.515 620.5 870L620.5 891C620.5 893.485 618.485 895.5 616 895.5L455 895.5C452.515 895.5 450.5 893.485 450.5 891L450.5 870C450.5 867.515 452.515 865.5 455 865.5Z" fill="#1f6286" fill-rule="nonzero" opacity="1" stroke="#000000" stroke-linecap="butt" stroke-linejoin="miter" stroke-width="1"/>
<text fill="#ffffff" font-family="Helvetica" font-size="9.6" opacity="1" stroke="none" text-anchor="middle" transform="matrix(1 0 0 1 509.387 875)" x="0" y="0">
<tspan textLength="51.225" x="27.1125" y="9">Data Mining</tspan>
</text>
<path d="M457 903.5L618 903.5C620.485 903.5 622.5 905.515 622.5 908L622.5 929C622.5 931.485 620.485 933.5 618 933.5L457 933.5C454.515 933.5 452.5 931.485 452.5 929L452.5 908C452.5 905.515 454.515 903.5 457 903.5Z" fill="#000000" fill-rule="nonzero" opacity="0.25" stroke="#000000" stroke-linecap="butt" stroke-linejoin="miter" stroke-width="1"/>
<path d="M455 900.5L616 900.5C618.485 900.5 620.5 902.515 620.5 905L620.5 926C620.5 928.485 618.485 930.5 616 930.5L455 930.5C452.515 930.5 450.5 928.485 450.5 926L450.5 905C450.5 902.515 452.515 900.5 455 900.5Z" fill="#1f6286" fill-rule="nonzero" opacity="1" stroke="#000000" stroke-linecap="butt" stroke-linejoin="miter" stroke-width="1"/>
<text fill="#ffffff" font-family="Helvetica" font-size="9.6" opacity="1" stroke="none" text-anchor="middle" transform="matrix(1 0 0 1 504.937 910)" x="0" y="0">
<tspan textLength="60.1266" x="31.5633" y="9">Web Scraping</tspan>
</text>
</g>
</g>
</svg>
