<?xml version="1.0" encoding="UTF-8" standalone="no"?>
<!DOCTYPE svg PUBLIC "-//W3C//DTD SVG 1.1//EN" "http://www.w3.org/Graphics/SVG/1.1/DTD/svg11.dtd">
<!-- Created with Vectornator (http://vectornator.io/) -->
<svg height="3233.0px" stroke-miterlimit="10" style="fill-rule:nonzero;clip-rule:evenodd;stroke-linecap:round;stroke-linejoin:round;" version="1.1" viewBox="0 0 1411 3233" width="1411.0px" xml:space="preserve" xmlns="http://www.w3.org/2000/svg" xmlns:xlink="http://www.w3.org/1999/xlink">
<defs/>
<clipPath id="ArtboardFrame">
<rect height="3233" width="1411" x="0" y="0"/>
</clipPath>
<g clip-path="url(#ArtboardFrame)" id="Untitled">
<g opacity="1">
<path d="M707.45 507.52C719.483 447.507 722.5 407.5 716.5 387.5C710.5 367.5 710.5 340.833 716.5 307.5C722.5 274.167 721.19 224.167 712.57 157.5" fill="none" opacity="1" stroke="#000000" stroke-linecap="butt" stroke-linejoin="miter" stroke-width="1"/>
<text fill="#000000" font-family="Helvetica" font-size="9.6" opacity="1" stroke="none" text-anchor="middle" transform="matrix(1 0 0 1 630.887 6)" x="0" y="0">
<tspan textLength="146.227" x="74.6133" y="9">Laravel Developer Roadmap 2020</tspan>
</text>
<path d="M687 217.5L738 217.5C740.485 217.5 742.5 219.515 742.5 222L742.5 243C742.5 245.485 740.485 247.5 738 247.5L687 247.5C684.515 247.5 682.5 245.485 682.5 243L682.5 222C682.5 219.515 684.515 217.5 687 217.5Z" fill="#5a67d8" fill-rule="nonzero" opacity="1" stroke="#4c51bf" stroke-linecap="butt" stroke-linejoin="miter" stroke-width="1"/>
<text fill="#ffffff" font-family="Helvetica" font-size="12.8" opacity="1" stroke="none" text-anchor="middle" transform="matrix(1 0 0 1 698.847 224)" x="0" y="0">
<tspan textLength="26.3063" x="14.6531" y="12">Html</tspan>
</text>
<path d="M620.5 137.5L800.5 137.5L800.5 137.5L800.5 157.5L800.5 157.5L620.5 157.5L620.5 157.5L620.5 137.5L620.5 137.5Z" fill="#ffffff" fill-rule="nonzero" opacity="1" stroke="none"/>
<text fill="#ffffff" font-family="Helvetica" font-size="12.8" opacity="1" stroke="none" text-anchor="middle" transform="matrix(1 0 0 1 641.694 139)" x="0" y="0">
<tspan textLength="136.613" x="69.8063" y="12">Learn the Prerequisite...</tspan>
</text>
<path d="M694 267.5L735 267.5C737.485 267.5 739.5 269.515 739.5 272L739.5 293C739.5 295.485 737.485 297.5 735 297.5L694 297.5C691.515 297.5 689.5 295.485 689.5 293L689.5 272C689.5 269.515 691.515 267.5 694 267.5Z" fill="#5a67d8" fill-rule="nonzero" opacity="1" stroke="#4c51bf" stroke-linecap="butt" stroke-linejoin="miter" stroke-width="1"/>
<text fill="#ffffff" font-family="Helvetica" font-size="12.8" opacity="1" stroke="none" text-anchor="middle" transform="matrix(1 0 0 1 702.978 274)" x="0" y="0">
<tspan textLength="22.0438" x="12.5219" y="12">Css</tspan>
</text>
<path d="M671 317.5L752 317.5C754.485 317.5 756.5 319.515 756.5 322L756.5 343C756.5 345.485 754.485 347.5 752 347.5L671 347.5C668.515 347.5 666.5 345.485 666.5 343L666.5 322C666.5 319.515 668.515 317.5 671 317.5Z" fill="#5a67d8" fill-rule="nonzero" opacity="1" stroke="#4c51bf" stroke-linecap="butt" stroke-linejoin="miter" stroke-width="1"/>
<text fill="#ffffff" font-family="Helvetica" font-size="12.8" opacity="1" stroke="none" text-anchor="middle" transform="matrix(1 0 0 1 682.191 324)" x="0" y="0">
<tspan textLength="57.6188" x="30.3094" y="12">Javascript</tspan>
</text>
<path d="M695 367.5L736 367.5C738.485 367.5 740.5 369.515 740.5 372L740.5 393C740.5 395.485 738.485 397.5 736 397.5L695 397.5C692.515 397.5 690.5 395.485 690.5 393L690.5 372C690.5 369.515 692.515 367.5 695 367.5Z" fill="#5a67d8" fill-rule="nonzero" opacity="1" stroke="#4c51bf" stroke-linecap="butt" stroke-linejoin="miter" stroke-width="1"/>
<text fill="#ffffff" font-family="Helvetica" font-size="12.8" opacity="1" stroke="none" text-anchor="middle" transform="matrix(1 0 0 1 703.612 374)" x="0" y="0">
<tspan textLength="22.775" x="12.8875" y="12">Php</tspan>
</text>
<path d="M669 417.5L750 417.5C752.485 417.5 754.5 419.515 754.5 422L754.5 443C754.5 445.485 752.485 447.5 750 447.5L669 447.5C666.515 447.5 664.5 445.485 664.5 443L664.5 422C664.5 419.515 666.515 417.5 669 417.5Z" fill="#5a67d8" fill-rule="nonzero" opacity="1" stroke="#4c51bf" stroke-linecap="butt" stroke-linejoin="miter" stroke-width="1"/>
<text fill="#ffffff" font-family="Helvetica" font-size="12.8" opacity="1" stroke="none" text-anchor="middle" transform="matrix(1 0 0 1 681.603 424)" x="0" y="0">
<tspan textLength="54.7938" x="28.8969" y="12">Database</tspan>
</text>
<path d="M609 507.5L810 507.5C812.485 507.5 814.5 509.515 814.5 512L814.5 533C814.5 535.485 812.485 537.5 810 537.5L609 537.5C606.515 537.5 604.5 535.485 604.5 533L604.5 512C604.5 509.515 606.515 507.5 609 507.5Z" fill="#5a67d8" fill-rule="nonzero" opacity="1" stroke="#4c51bf" stroke-linecap="butt" stroke-linejoin="miter" stroke-width="1"/>
<text fill="#ffffff" font-family="Helvetica" font-size="12.8" opacity="1" stroke="none" text-anchor="middle" transform="matrix(1 0 0 1 633.231 514)" x="0" y="0">
<tspan textLength="151.538" x="77.2688" y="12">General Development Skill</tspan>
</text>
<path d="M668 597.5L739 597.5C741.485 597.5 743.5 599.515 743.5 602L743.5 623C743.5 625.485 741.485 627.5 739 627.5L668 627.5C665.515 627.5 663.5 625.485 663.5 623L663.5 602C663.5 599.515 665.515 597.5 668 597.5Z" fill="#ffffff" fill-rule="nonzero" opacity="1" stroke="#667eea" stroke-linecap="butt" stroke-linejoin="miter" stroke-width="2"/>
<text fill="#667eea" font-family="Helvetica" font-size="12.8" opacity="1" stroke="none" text-anchor="middle" transform="matrix(1 0 0 1 682.009 604)" x="0" y="0">
<tspan textLength="41.9813" x="22.4906" y="12">Laravel</tspan>
</text>
<path d="M700.5 748.5C700.5 742.425 705.425 737.5 711.5 737.5C717.575 737.5 722.5 742.425 722.5 748.5C722.5 754.575 717.575 759.5 711.5 759.5C705.425 759.5 700.5 754.575 700.5 748.5Z" fill="#ffffff" fill-rule="nonzero" opacity="1" stroke="#000000" stroke-linecap="butt" stroke-linejoin="miter" stroke-width="1"/>
<path d="M610.5 761.5C643.833 768.167 673.833 765.167 700.5 752.5" fill="none" opacity="1" stroke="#000000" stroke-linecap="butt" stroke-linejoin="miter" stroke-width="1"/>
<path d="M534 745.5L605 745.5C607.485 745.5 609.5 747.515 609.5 750L609.5 771C609.5 773.485 607.485 775.5 605 775.5L534 775.5C531.515 775.5 529.5 773.485 529.5 771L529.5 750C529.5 747.515 531.515 745.5 534 745.5Z" fill="#5a67d8" fill-rule="nonzero" opacity="1" stroke="#4c51bf" stroke-linecap="butt" stroke-linejoin="miter" stroke-width="1"/>
<text fill="#ffffff" font-family="Helvetica" font-size="12.8" opacity="1" stroke="none" text-anchor="middle" transform="matrix(1 0 0 1 546.941 752)" x="0" y="0">
<tspan textLength="44.1188" x="23.5594" y="12">Routing</tspan>
</text>
<path d="M706.5 818.5C706.5 812.425 711.425 807.5 717.5 807.5C723.575 807.5 728.5 812.425 728.5 818.5C728.5 824.575 723.575 829.5 717.5 829.5C711.425 829.5 706.5 824.575 706.5 818.5Z" fill="#ffffff" fill-rule="nonzero" opacity="1" stroke="#000000" stroke-linecap="butt" stroke-linejoin="miter" stroke-width="1"/>
<path d="M818.5 807.5C787.167 800.833 757.167 803.833 728.5 816.5" fill="none" opacity="1" stroke="#000000" stroke-linecap="butt" stroke-linejoin="miter" stroke-width="1"/>
<path d="M818 792.5L899 792.5C901.485 792.5 903.5 794.515 903.5 797L903.5 818C903.5 820.485 901.485 822.5 899 822.5L818 822.5C815.515 822.5 813.5 820.485 813.5 818L813.5 797C813.5 794.515 815.515 792.5 818 792.5Z" fill="#5a67d8" fill-rule="nonzero" opacity="1" stroke="#4c51bf" stroke-linecap="butt" stroke-linejoin="miter" stroke-width="1"/>
<text fill="#ffffff" font-family="Helvetica" font-size="12.8" opacity="1" stroke="none" text-anchor="middle" transform="matrix(1 0 0 1 830.256 799)" x="0" y="0">
<tspan textLength="55.4875" x="29.2438" y="12">Controller</tspan>
</text>
<path d="M690.5 896.5C690.5 890.425 695.425 885.5 701.5 885.5C707.575 885.5 712.5 890.425 712.5 896.5C712.5 902.575 707.575 907.5 701.5 907.5C695.425 907.5 690.5 902.575 690.5 896.5Z" fill="#ffffff" fill-rule="nonzero" opacity="1" stroke="#000000" stroke-linecap="butt" stroke-linejoin="miter" stroke-width="1"/>
<path d="M600.5 906.5C633.833 913.167 663.833 910.167 690.5 897.5" fill="none" opacity="1" stroke="#000000" stroke-linecap="butt" stroke-linejoin="miter" stroke-width="1"/>
<path d="M544 891.5L595 891.5C597.485 891.5 599.5 893.515 599.5 896L599.5 917C599.5 919.485 597.485 921.5 595 921.5L544 921.5C541.515 921.5 539.5 919.485 539.5 917L539.5 896C539.5 893.515 541.515 891.5 544 891.5Z" fill="#5a67d8" fill-rule="nonzero" opacity="1" stroke="#4c51bf" stroke-linecap="butt" stroke-linejoin="miter" stroke-width="1"/>
<text fill="#ffffff" font-family="Helvetica" font-size="12.8" opacity="1" stroke="none" text-anchor="middle" transform="matrix(1 0 0 1 555.241 898)" x="0" y="0">
<tspan textLength="27.5188" x="15.2594" y="12">View</tspan>
</text>
<path d="M712.5 1008.5C712.5 1002.42 717.425 997.5 723.5 997.5C729.575 997.5 734.5 1002.42 734.5 1008.5C734.5 1014.58 729.575 1019.5 723.5 1019.5C717.425 1019.5 712.5 1014.58 712.5 1008.5Z" fill="#ffffff" fill-rule="nonzero" opacity="1" stroke="#000000" stroke-linecap="butt" stroke-linejoin="miter" stroke-width="1"/>
<path d="M825.48 1053.51C788.827 1056.17 758.5 1044.17 734.5 1017.5" fill="none" opacity="1" stroke="#000000" stroke-linecap="butt" stroke-linejoin="miter" stroke-width="1"/>
<path d="M830.5 1037.5L883.5 1037.5C885.985 1037.5 888 1039.51 888 1042L888 1063C888 1065.49 885.985 1067.5 883.5 1067.5L830.5 1067.5C828.015 1067.5 826 1065.49 826 1063L826 1042C826 1039.51 828.015 1037.5 830.5 1037.5Z" fill="#5a67d8" fill-rule="nonzero" opacity="1" stroke="#4c51bf" stroke-linecap="butt" stroke-linejoin="miter" stroke-width="1"/>
<text fill="#ffffff" font-family="Helvetica" font-size="12.8" opacity="1" stroke="none" text-anchor="middle" transform="matrix(1 0 0 1 839.569 1044)" x="0" y="0">
<tspan textLength="34.8625" x="18.9313" y="12">Model</tspan>
</text>
<path d="M690.5 686.5C690.5 680.425 695.425 675.5 701.5 675.5C707.575 675.5 712.5 680.425 712.5 686.5C712.5 692.575 707.575 697.5 701.5 697.5C695.425 697.5 690.5 692.575 690.5 686.5Z" fill="#ffffff" fill-rule="nonzero" opacity="1" stroke="#000000" stroke-linecap="butt" stroke-linejoin="miter" stroke-width="1"/>
<path d="M802.5 675.5C771.167 668.833 741.167 671.833 712.5 684.5" fill="none" opacity="1" stroke="#000000" stroke-linecap="butt" stroke-linejoin="miter" stroke-width="1"/>
<path d="M807 659.5L1046 659.5C1048.49 659.5 1050.5 661.515 1050.5 664L1050.5 685C1050.5 687.485 1048.49 689.5 1046 689.5L807 689.5C804.515 689.5 802.5 687.485 802.5 685L802.5 664C802.5 661.515 804.515 659.5 807 659.5Z" fill="#5a67d8" fill-rule="nonzero" opacity="1" stroke="#4c51bf" stroke-linecap="butt" stroke-linejoin="miter" stroke-width="1"/>
<text fill="#ffffff" font-family="Helvetica" font-size="12.8" opacity="1" stroke="none" text-anchor="middle" transform="matrix(1 0 0 1 833.506 666)" x="0" y="0">
<tspan textLength="184.988" x="93.9938" y="12">Local Development Environment</tspan>
</text>
<path d="M713.5 1108.5C713.5 1102.42 718.425 1097.5 724.5 1097.5C730.575 1097.5 735.5 1102.42 735.5 1108.5C735.5 1114.58 730.575 1119.5 724.5 1119.5C718.425 1119.5 713.5 1114.58 713.5 1108.5Z" fill="#ffffff" fill-rule="nonzero" opacity="1" stroke="#000000" stroke-linecap="butt" stroke-linejoin="miter" stroke-width="1"/>
<path d="M631.5 1118.5C664.833 1125.17 693.24 1124.43 716.72 1116.28" fill="none" opacity="1" stroke="#000000" stroke-linecap="butt" stroke-linejoin="miter" stroke-width="1"/>
<path d="M561 1102.5L627 1102.5C629.485 1102.5 631.5 1104.51 631.5 1107L631.5 1128C631.5 1130.49 629.485 1132.5 627 1132.5L561 1132.5C558.515 1132.5 556.5 1130.49 556.5 1128L556.5 1107C556.5 1104.51 558.515 1102.5 561 1102.5Z" fill="#5a67d8" fill-rule="nonzero" opacity="1" stroke="#4c51bf" stroke-linecap="butt" stroke-linejoin="miter" stroke-width="1"/>
<text fill="#ffffff" font-family="Helvetica" font-size="12.8" opacity="1" stroke="none" text-anchor="middle" transform="matrix(1 0 0 1 571.222 1109)" x="0" y="0">
<tspan textLength="45.5563" x="24.2781" y="12">Logging</tspan>
</text>
<path d="M701.5 1209.5C701.5 1203.42 706.425 1198.5 712.5 1198.5C718.575 1198.5 723.5 1203.42 723.5 1209.5C723.5 1215.58 718.575 1220.5 712.5 1220.5C706.425 1220.5 701.5 1215.58 701.5 1209.5Z" fill="#ffffff" fill-rule="nonzero" opacity="1" stroke="#000000" stroke-linecap="butt" stroke-linejoin="miter" stroke-width="1"/>
<path d="M829.5 1194.5C798.167 1187.83 762.833 1192.83 723.5 1209.5" fill="none" opacity="1" stroke="#000000" stroke-linecap="butt" stroke-linejoin="miter" stroke-width="1"/>
<path d="M834 1179.5L946 1179.5C948.485 1179.5 950.5 1181.51 950.5 1184L950.5 1205C950.5 1207.49 948.485 1209.5 946 1209.5L834 1209.5C831.515 1209.5 829.5 1207.49 829.5 1205L829.5 1184C829.5 1181.51 831.515 1179.5 834 1179.5Z" fill="#5a67d8" fill-rule="nonzero" opacity="1" stroke="#4c51bf" stroke-linecap="butt" stroke-linejoin="miter" stroke-width="1"/>
<text fill="#ffffff" font-family="Helvetica" font-size="12.8" opacity="1" stroke="none" text-anchor="middle" transform="matrix(1 0 0 1 848.737 1186)" x="0" y="0">
<tspan textLength="82.525" x="42.7625" y="12">Error Handling</tspan>
</text>
<path d="M739.5 1333.5C739.5 1327.42 744.425 1322.5 750.5 1322.5C756.575 1322.5 761.5 1327.42 761.5 1333.5C761.5 1339.58 756.575 1344.5 750.5 1344.5C744.425 1344.5 739.5 1339.58 739.5 1333.5Z" fill="#ffffff" fill-rule="nonzero" opacity="1" stroke="#000000" stroke-linecap="butt" stroke-linejoin="miter" stroke-width="1"/>
<path d="M652.5 1348.5C685.833 1355.17 715.833 1352.17 742.5 1339.5" fill="none" opacity="1" stroke="#000000" stroke-linecap="butt" stroke-linejoin="miter" stroke-width="1"/>
<path d="M503 1484.5L613 1484.5C615.485 1484.5 617.5 1486.51 617.5 1489L617.5 1510C617.5 1512.49 615.485 1514.5 613 1514.5L503 1514.5C500.515 1514.5 498.5 1512.49 498.5 1510L498.5 1489C498.5 1486.51 500.515 1484.5 503 1484.5Z" fill="#5a67d8" fill-rule="nonzero" opacity="1" stroke="#4c51bf" stroke-linecap="butt" stroke-linejoin="miter" stroke-width="1"/>
<text fill="#ffffff" font-family="Helvetica" font-size="12.8" opacity="1" stroke="none" text-anchor="middle" transform="matrix(1 0 0 1 517.437 1491)" x="0" y="0">
<tspan textLength="81.125" x="42.0625" y="12">Authentication</tspan>
</text>
<path d="M749.5 1407.5C749.5 1401.42 754.425 1396.5 760.5 1396.5C766.575 1396.5 771.5 1401.42 771.5 1407.5C771.5 1413.58 766.575 1418.5 760.5 1418.5C754.425 1418.5 749.5 1413.58 749.5 1407.5Z" fill="#ffffff" fill-rule="nonzero" opacity="1" stroke="#000000" stroke-linecap="butt" stroke-linejoin="miter" stroke-width="1"/>
<path d="M888.38 1440.48C849.793 1411.83 810.167 1399.83 769.5 1404.5" fill="none" opacity="1" stroke="#000000" stroke-linecap="butt" stroke-linejoin="miter" stroke-width="1"/>
<path d="M580 1333.5L648 1333.5C650.485 1333.5 652.5 1335.51 652.5 1338L652.5 1359C652.5 1361.49 650.485 1363.5 648 1363.5L580 1363.5C577.515 1363.5 575.5 1361.49 575.5 1359L575.5 1338C575.5 1335.51 577.515 1333.5 580 1333.5Z" fill="#5a67d8" fill-rule="nonzero" opacity="1" stroke="#4c51bf" stroke-linecap="butt" stroke-linejoin="miter" stroke-width="1"/>
<text fill="#ffffff" font-family="Helvetica" font-size="12.8" opacity="1" stroke="none" text-anchor="middle" transform="matrix(1 0 0 1 590.162 1340)" x="0" y="0">
<tspan textLength="47.675" x="25.3375" y="12">Request</tspan>
</text>
<path d="M707.5 1487.5C707.5 1481.42 712.425 1476.5 718.5 1476.5C724.575 1476.5 729.5 1481.42 729.5 1487.5C729.5 1493.58 724.575 1498.5 718.5 1498.5C712.425 1498.5 707.5 1493.58 707.5 1487.5Z" fill="#ffffff" fill-rule="nonzero" opacity="1" stroke="#000000" stroke-linecap="butt" stroke-linejoin="miter" stroke-width="1"/>
<path d="M618.5 1499C651.833 1505.67 681.833 1502.67 708.5 1490" fill="none" opacity="1" stroke="#000000" stroke-linecap="butt" stroke-linejoin="miter" stroke-width="1"/>
<path d="M894 1427.5L975 1427.5C977.485 1427.5 979.5 1429.51 979.5 1432L979.5 1453C979.5 1455.49 977.485 1457.5 975 1457.5L894 1457.5C891.515 1457.5 889.5 1455.49 889.5 1453L889.5 1432C889.5 1429.51 891.515 1427.5 894 1427.5Z" fill="#5a67d8" fill-rule="nonzero" opacity="1" stroke="#4c51bf" stroke-linecap="butt" stroke-linejoin="miter" stroke-width="1"/>
<text fill="#ffffff" font-family="Helvetica" font-size="12.8" opacity="1" stroke="none" text-anchor="middle" transform="matrix(1 0 0 1 905.181 1434)" x="0" y="0">
<tspan textLength="57.6375" x="30.3188" y="12">Response</tspan>
</text>
<path d="M703.5 1555.5C703.5 1549.42 708.425 1544.5 714.5 1544.5C720.575 1544.5 725.5 1549.42 725.5 1555.5C725.5 1561.58 720.575 1566.5 714.5 1566.5C708.425 1566.5 703.5 1561.58 703.5 1555.5Z" fill="#ffffff" fill-rule="nonzero" opacity="1" stroke="#000000" stroke-linecap="butt" stroke-linejoin="miter" stroke-width="1"/>
<path d="M820.46 1551.5C785.153 1538.83 753.167 1538.83 724.5 1551.5" fill="none" opacity="1" stroke="#000000" stroke-linecap="butt" stroke-linejoin="miter" stroke-width="1"/>
<path d="M826 1536.5L916 1536.5C918.485 1536.5 920.5 1538.51 920.5 1541L920.5 1562C920.5 1564.49 918.485 1566.5 916 1566.5L826 1566.5C823.515 1566.5 821.5 1564.49 821.5 1562L821.5 1541C821.5 1538.51 823.515 1536.5 826 1536.5Z" fill="#5a67d8" fill-rule="nonzero" opacity="1" stroke="#4c51bf" stroke-linecap="butt" stroke-linejoin="miter" stroke-width="1"/>
<text fill="#ffffff" font-family="Helvetica" font-size="12.8" opacity="1" stroke="none" text-anchor="middle" transform="matrix(1 0 0 1 838.275 1543)" x="0" y="0">
<tspan textLength="65.45" x="34.225" y="12">Middleware</tspan>
</text>
<path d="M732.5 1633.5C732.5 1627.42 737.425 1622.5 743.5 1622.5C749.575 1622.5 754.5 1627.42 754.5 1633.5C754.5 1639.58 749.575 1644.5 743.5 1644.5C737.425 1644.5 732.5 1639.58 732.5 1633.5Z" fill="#ffffff" fill-rule="nonzero" opacity="1" stroke="#000000" stroke-linecap="butt" stroke-linejoin="miter" stroke-width="1"/>
<path d="M643.5 1645.5C676.833 1652.17 706.833 1649.17 733.5 1636.5" fill="none" opacity="1" stroke="#000000" stroke-linecap="butt" stroke-linejoin="miter" stroke-width="1"/>
<path d="M561 1630.5L639 1630.5C641.485 1630.5 643.5 1632.51 643.5 1635L643.5 1656C643.5 1658.49 641.485 1660.5 639 1660.5L561 1660.5C558.515 1660.5 556.5 1658.49 556.5 1656L556.5 1635C556.5 1632.51 558.515 1630.5 561 1630.5Z" fill="#5a67d8" fill-rule="nonzero" opacity="1" stroke="#4c51bf" stroke-linecap="butt" stroke-linejoin="miter" stroke-width="1"/>
<text fill="#ffffff" font-family="Helvetica" font-size="12.8" opacity="1" stroke="none" text-anchor="middle" transform="matrix(1 0 0 1 572.362 1637)" x="0" y="0">
<tspan textLength="55.275" x="29.1375" y="12">Validation</tspan>
</text>
<path d="M777.5 1713.5C777.5 1707.42 782.425 1702.5 788.5 1702.5C794.575 1702.5 799.5 1707.42 799.5 1713.5C799.5 1719.58 794.575 1724.5 788.5 1724.5C782.425 1724.5 777.5 1719.58 777.5 1713.5Z" fill="#ffffff" fill-rule="nonzero" opacity="1" stroke="#000000" stroke-linecap="butt" stroke-linejoin="miter" stroke-width="1"/>
<path d="M888.5 1700.5C857.167 1693.83 827.167 1696.83 798.5 1709.5" fill="none" opacity="1" stroke="#000000" stroke-linecap="butt" stroke-linejoin="miter" stroke-width="1"/>
<path d="M894 1685.5L951 1685.5C953.485 1685.5 955.5 1687.51 955.5 1690L955.5 1711C955.5 1713.49 953.485 1715.5 951 1715.5L894 1715.5C891.515 1715.5 889.5 1713.49 889.5 1711L889.5 1690C889.5 1687.51 891.515 1685.5 894 1685.5Z" fill="#5a67d8" fill-rule="nonzero" opacity="1" stroke="#4c51bf" stroke-linecap="butt" stroke-linejoin="miter" stroke-width="1"/>
<text fill="#ffffff" font-family="Helvetica" font-size="12.8" opacity="1" stroke="none" text-anchor="middle" transform="matrix(1 0 0 1 902.434 1692)" x="0" y="0">
<tspan textLength="39.1313" x="21.0656" y="12">Events</tspan>
</text>
<path d="M746.5 1781.5C746.5 1775.42 751.425 1770.5 757.5 1770.5C763.575 1770.5 768.5 1775.42 768.5 1781.5C768.5 1787.58 763.575 1792.5 757.5 1792.5C751.425 1792.5 746.5 1787.58 746.5 1781.5Z" fill="#ffffff" fill-rule="nonzero" opacity="1" stroke="#000000" stroke-linecap="butt" stroke-linejoin="miter" stroke-width="1"/>
<path d="M656.5 1791.5C689.833 1798.17 719.833 1795.17 746.5 1782.5" fill="none" opacity="1" stroke="#000000" stroke-linecap="butt" stroke-linejoin="miter" stroke-width="1"/>
<path d="M615 1930.5L672 1930.5C674.485 1930.5 676.5 1932.51 676.5 1935L676.5 1956C676.5 1958.49 674.485 1960.5 672 1960.5L615 1960.5C612.515 1960.5 610.5 1958.49 610.5 1956L610.5 1935C610.5 1932.51 612.515 1930.5 615 1930.5Z" fill="#5a67d8" fill-rule="nonzero" opacity="1" stroke="#4c51bf" stroke-linecap="butt" stroke-linejoin="miter" stroke-width="1"/>
<text fill="#ffffff" font-family="Helvetica" font-size="12.8" opacity="1" stroke="none" text-anchor="middle" transform="matrix(1 0 0 1 623.784 1937)" x="0" y="0">
<tspan textLength="38.4313" x="20.7156" y="12">Queue</tspan>
</text>
<path d="M782.5 1861.5C782.5 1855.42 787.425 1850.5 793.5 1850.5C799.575 1850.5 804.5 1855.42 804.5 1861.5C804.5 1867.58 799.575 1872.5 793.5 1872.5C787.425 1872.5 782.5 1867.58 782.5 1861.5Z" fill="#ffffff" fill-rule="nonzero" opacity="1" stroke="#000000" stroke-linecap="butt" stroke-linejoin="miter" stroke-width="1"/>
<path d="M894.5 1850.5C863.167 1843.83 833.167 1846.83 804.5 1859.5" fill="none" opacity="1" stroke="#000000" stroke-linecap="butt" stroke-linejoin="miter" stroke-width="1"/>
<path d="M617 1776.5L655 1776.5C657.485 1776.5 659.5 1778.51 659.5 1781L659.5 1802C659.5 1804.49 657.485 1806.5 655 1806.5L617 1806.5C614.515 1806.5 612.5 1804.49 612.5 1802L612.5 1781C612.5 1778.51 614.515 1776.5 617 1776.5Z" fill="#5a67d8" fill-rule="nonzero" opacity="1" stroke="#4c51bf" stroke-linecap="butt" stroke-linejoin="miter" stroke-width="1"/>
<text fill="#ffffff" font-family="Helvetica" font-size="12.8" opacity="1" stroke="none" text-anchor="middle" transform="matrix(1 0 0 1 624.266 1783)" x="0" y="0">
<tspan textLength="23.4688" x="13.2344" y="12">Mail</tspan>
</text>
<path d="M766.5 1933.5C766.5 1927.42 771.425 1922.5 777.5 1922.5C783.575 1922.5 788.5 1927.42 788.5 1933.5C788.5 1939.58 783.575 1944.5 777.5 1944.5C771.425 1944.5 766.5 1939.58 766.5 1933.5Z" fill="#ffffff" fill-rule="nonzero" opacity="1" stroke="#000000" stroke-linecap="butt" stroke-linejoin="miter" stroke-width="1"/>
<path d="M676.5 1946.5C709.833 1953.17 739.833 1950.17 766.5 1937.5" fill="none" opacity="1" stroke="#000000" stroke-linecap="butt" stroke-linejoin="miter" stroke-width="1"/>
<path d="M900 1837.5L996 1837.5C998.485 1837.5 1000.5 1839.51 1000.5 1842L1000.5 1863C1000.5 1865.49 998.485 1867.5 996 1867.5L900 1867.5C897.515 1867.5 895.5 1865.49 895.5 1863L895.5 1842C895.5 1839.51 897.515 1837.5 900 1837.5Z" fill="#5a67d8" fill-rule="nonzero" opacity="1" stroke="#4c51bf" stroke-linecap="butt" stroke-linejoin="miter" stroke-width="1"/>
<text fill="#ffffff" font-family="Helvetica" font-size="12.8" opacity="1" stroke="none" text-anchor="middle" transform="matrix(1 0 0 1 913.141 1844)" x="0" y="0">
<tspan textLength="69.7188" x="36.3594" y="12">Notifications</tspan>
</text>
<path d="M725.5 2003.5C725.5 1997.42 730.425 1992.5 736.5 1992.5C742.575 1992.5 747.5 1997.42 747.5 2003.5C747.5 2009.58 742.575 2014.5 736.5 2014.5C730.425 2014.5 725.5 2009.58 725.5 2003.5Z" fill="#ffffff" fill-rule="nonzero" opacity="1" stroke="#000000" stroke-linecap="butt" stroke-linejoin="miter" stroke-width="1"/>
<path d="M836.5 1990.5C805.167 1983.83 775.167 1986.83 746.5 1999.5" fill="none" opacity="1" stroke="#000000" stroke-linecap="butt" stroke-linejoin="miter" stroke-width="1"/>
<path d="M842 1975.5L944 1975.5C946.485 1975.5 948.5 1977.51 948.5 1980L948.5 2001C948.5 2003.49 946.485 2005.5 944 2005.5L842 2005.5C839.515 2005.5 837.5 2003.49 837.5 2001L837.5 1980C837.5 1977.51 839.515 1975.5 842 1975.5Z" fill="#5a67d8" fill-rule="nonzero" opacity="1" stroke="#4c51bf" stroke-linecap="butt" stroke-linejoin="miter" stroke-width="1"/>
<text fill="#ffffff" font-family="Helvetica" font-size="12.8" opacity="1" stroke="none" text-anchor="middle" transform="matrix(1 0 0 1 855.644 1982)" x="0" y="0">
<tspan textLength="74.7125" x="38.8563" y="12">Broadcasting</tspan>
</text>
<path d="M692.5 2081.5C692.5 2075.42 697.425 2070.5 703.5 2070.5C709.575 2070.5 714.5 2075.42 714.5 2081.5C714.5 2087.58 709.575 2092.5 703.5 2092.5C697.425 2092.5 692.5 2087.58 692.5 2081.5Z" fill="#ffffff" fill-rule="nonzero" opacity="1" stroke="#000000" stroke-linecap="butt" stroke-linejoin="miter" stroke-width="1"/>
<path d="M603.5 2093.5C636.833 2100.17 666.833 2097.17 693.5 2084.5" fill="none" opacity="1" stroke="#000000" stroke-linecap="butt" stroke-linejoin="miter" stroke-width="1"/>
<path d="M473 2078.5L599 2078.5C601.485 2078.5 603.5 2080.51 603.5 2083L603.5 2104C603.5 2106.49 601.485 2108.5 599 2108.5L473 2108.5C470.515 2108.5 468.5 2106.49 468.5 2104L468.5 2083C468.5 2080.51 470.515 2078.5 473 2078.5Z" fill="#5a67d8" fill-rule="nonzero" opacity="1" stroke="#4c51bf" stroke-linecap="butt" stroke-linejoin="miter" stroke-width="1"/>
<text fill="#ffffff" font-family="Helvetica" font-size="12.8" opacity="1" stroke="none" text-anchor="middle" transform="matrix(1 0 0 1 489.394 2085)" x="0" y="0">
<tspan textLength="93.2125" x="48.1063" y="12">Task Scheduling</tspan>
</text>
<path d="M689.5 2210.5C689.5 2204.42 694.425 2199.5 700.5 2199.5C706.575 2199.5 711.5 2204.42 711.5 2210.5C711.5 2216.58 706.575 2221.5 700.5 2221.5C694.425 2221.5 689.5 2216.58 689.5 2210.5Z" fill="#ffffff" fill-rule="nonzero" opacity="1" stroke="#000000" stroke-linecap="butt" stroke-linejoin="miter" stroke-width="1"/>
<path d="M800.5 2197.5C769.167 2190.83 739.167 2193.83 710.5 2206.5" fill="none" opacity="1" stroke="#000000" stroke-linecap="butt" stroke-linejoin="miter" stroke-width="1"/>
<path d="M806 2182.5L908 2182.5C910.485 2182.5 912.5 2184.51 912.5 2187L912.5 2208C912.5 2210.49 910.485 2212.5 908 2212.5L806 2212.5C803.515 2212.5 801.5 2210.49 801.5 2208L801.5 2187C801.5 2184.51 803.515 2182.5 806 2182.5Z" fill="#5a67d8" fill-rule="nonzero" opacity="1" stroke="#4c51bf" stroke-linecap="butt" stroke-linejoin="miter" stroke-width="1"/>
<text fill="#ffffff" font-family="Helvetica" font-size="12.8" opacity="1" stroke="none" text-anchor="middle" transform="matrix(1 0 0 1 819.644 2189)" x="0" y="0">
<tspan textLength="74.7125" x="38.8563" y="12">Authorization</tspan>
</text>
<path d="M711.5 2264.5C711.5 2258.42 716.425 2253.5 722.5 2253.5C728.575 2253.5 733.5 2258.42 733.5 2264.5C733.5 2270.58 728.575 2275.5 722.5 2275.5C716.425 2275.5 711.5 2270.58 711.5 2264.5Z" fill="#ffffff" fill-rule="nonzero" opacity="1" stroke="#000000" stroke-linecap="butt" stroke-linejoin="miter" stroke-width="1"/>
<path d="M621.5 2274.5C654.833 2281.17 684.833 2278.17 711.5 2265.5" fill="none" opacity="1" stroke="#000000" stroke-linecap="butt" stroke-linejoin="miter" stroke-width="1"/>
<path d="M501 2450.5L638 2450.5C640.485 2450.5 642.5 2452.51 642.5 2455L642.5 2476C642.5 2478.49 640.485 2480.5 638 2480.5L501 2480.5C498.515 2480.5 496.5 2478.49 496.5 2476L496.5 2455C496.5 2452.51 498.515 2450.5 501 2450.5Z" fill="#5a67d8" fill-rule="nonzero" opacity="1" stroke="#4c51bf" stroke-linecap="butt" stroke-linejoin="miter" stroke-width="1"/>
<text fill="#ffffff" font-family="Helvetica" font-size="12.8" opacity="1" stroke="none" text-anchor="middle" transform="matrix(1 0 0 1 518.131 2457)" x="0" y="0">
<tspan textLength="101.738" x="52.3688" y="12">Service Container</tspan>
</text>
<path d="M742.5 2331.5C742.5 2325.42 747.425 2320.5 753.5 2320.5C759.575 2320.5 764.5 2325.42 764.5 2331.5C764.5 2337.58 759.575 2342.5 753.5 2342.5C747.425 2342.5 742.5 2337.58 742.5 2331.5Z" fill="#ffffff" fill-rule="nonzero" opacity="1" stroke="#000000" stroke-linecap="butt" stroke-linejoin="miter" stroke-width="1"/>
<path d="M854.5 2320.5C823.167 2313.83 793.167 2316.83 764.5 2329.5" fill="none" opacity="1" stroke="#000000" stroke-linecap="butt" stroke-linejoin="miter" stroke-width="1"/>
<path d="M551 2259.5L618 2259.5C620.485 2259.5 622.5 2261.51 622.5 2264L622.5 2285C622.5 2287.49 620.485 2289.5 618 2289.5L551 2289.5C548.515 2289.5 546.5 2287.49 546.5 2285L546.5 2264C546.5 2261.51 548.515 2259.5 551 2259.5Z" fill="#5a67d8" fill-rule="nonzero" opacity="1" stroke="#4c51bf" stroke-linecap="butt" stroke-linejoin="miter" stroke-width="1"/>
<text fill="#ffffff" font-family="Helvetica" font-size="12.8" opacity="1" stroke="none" text-anchor="middle" transform="matrix(1 0 0 1 560.519 2266)" x="0" y="0">
<tspan textLength="46.9625" x="24.9813" y="12">Caching</tspan>
</text>
<path d="M732.5 2453.5C732.5 2447.42 737.425 2442.5 743.5 2442.5C749.575 2442.5 754.5 2447.42 754.5 2453.5C754.5 2459.58 749.575 2464.5 743.5 2464.5C737.425 2464.5 732.5 2459.58 732.5 2453.5Z" fill="#ffffff" fill-rule="nonzero" opacity="1" stroke="#000000" stroke-linecap="butt" stroke-linejoin="miter" stroke-width="1"/>
<path d="M642.5 2466.5C675.833 2473.17 705.833 2470.17 732.5 2457.5" fill="none" opacity="1" stroke="#000000" stroke-linecap="butt" stroke-linejoin="miter" stroke-width="1"/>
<path d="M859 2306.5L952 2306.5C954.485 2306.5 956.5 2308.51 956.5 2311L956.5 2332C956.5 2334.49 954.485 2336.5 952 2336.5L859 2336.5C856.515 2336.5 854.5 2334.49 854.5 2332L854.5 2311C854.5 2308.51 856.515 2306.5 859 2306.5Z" fill="#5a67d8" fill-rule="nonzero" opacity="1" stroke="#4c51bf" stroke-linecap="butt" stroke-linejoin="miter" stroke-width="1"/>
<text fill="#ffffff" font-family="Helvetica" font-size="12.8" opacity="1" stroke="none" text-anchor="middle" transform="matrix(1 0 0 1 871.206 2313)" x="0" y="0">
<tspan textLength="67.5875" x="35.2938" y="12">Text Search</tspan>
</text>
<path d="M689.5 2523.5C689.5 2517.42 694.425 2512.5 700.5 2512.5C706.575 2512.5 711.5 2517.42 711.5 2523.5C711.5 2529.58 706.575 2534.5 700.5 2534.5C694.425 2534.5 689.5 2529.58 689.5 2523.5Z" fill="#ffffff" fill-rule="nonzero" opacity="1" stroke="#000000" stroke-linecap="butt" stroke-linejoin="miter" stroke-width="1"/>
<path d="M800.5 2510.5C769.167 2503.83 739.167 2506.83 710.5 2519.5" fill="none" opacity="1" stroke="#000000" stroke-linecap="butt" stroke-linejoin="miter" stroke-width="1"/>
<path d="M805 2495.5L931 2495.5C933.485 2495.5 935.5 2497.51 935.5 2500L935.5 2521C935.5 2523.49 933.485 2525.5 931 2525.5L805 2525.5C802.515 2525.5 800.5 2523.49 800.5 2521L800.5 2500C800.5 2497.51 802.515 2495.5 805 2495.5Z" fill="#5a67d8" fill-rule="nonzero" opacity="1" stroke="#4c51bf" stroke-linecap="butt" stroke-linejoin="miter" stroke-width="1"/>
<text fill="#ffffff" font-family="Helvetica" font-size="12.8" opacity="1" stroke="none" text-anchor="middle" transform="matrix(1 0 0 1 821.05 2502)" x="0" y="0">
<tspan textLength="93.9" x="48.45" y="12">Service Provider</tspan>
</text>
<path d="M652.5 2581.5C652.5 2575.42 657.425 2570.5 663.5 2570.5C669.575 2570.5 674.5 2575.42 674.5 2581.5C674.5 2587.58 669.575 2592.5 663.5 2592.5C657.425 2592.5 652.5 2587.58 652.5 2581.5Z" fill="#ffffff" fill-rule="nonzero" opacity="1" stroke="#000000" stroke-linecap="butt" stroke-linejoin="miter" stroke-width="1"/>
<path d="M563.5 2593.5C596.833 2600.17 626.833 2597.17 653.5 2584.5" fill="none" opacity="1" stroke="#000000" stroke-linecap="butt" stroke-linejoin="miter" stroke-width="1"/>
<path d="M489 2578.5L559 2578.5C561.485 2578.5 563.5 2580.51 563.5 2583L563.5 2604C563.5 2606.49 561.485 2608.5 559 2608.5L489 2608.5C486.515 2608.5 484.5 2606.49 484.5 2604L484.5 2583C484.5 2580.51 486.515 2578.5 489 2578.5Z" fill="#5a67d8" fill-rule="nonzero" opacity="1" stroke="#4c51bf" stroke-linecap="butt" stroke-linejoin="miter" stroke-width="1"/>
<text fill="#ffffff" font-family="Helvetica" font-size="12.8" opacity="1" stroke="none" text-anchor="middle" transform="matrix(1 0 0 1 499.453 2585)" x="0" y="0">
<tspan textLength="49.0938" x="26.0469" y="12">Facades</tspan>
</text>
<path d="M656.5 2680.5C656.5 2674.42 661.425 2669.5 667.5 2669.5C673.575 2669.5 678.5 2674.42 678.5 2680.5C678.5 2686.58 673.575 2691.5 667.5 2691.5C661.425 2691.5 656.5 2686.58 656.5 2680.5Z" fill="#ffffff" fill-rule="nonzero" opacity="1" stroke="#000000" stroke-linecap="butt" stroke-linejoin="miter" stroke-width="1"/>
<path d="M767.5 2667.5C736.167 2660.83 706.167 2663.83 677.5 2676.5" fill="none" opacity="1" stroke="#000000" stroke-linecap="butt" stroke-linejoin="miter" stroke-width="1"/>
<path d="M773 2652.5L833 2652.5C835.485 2652.5 837.5 2654.51 837.5 2657L837.5 2678C837.5 2680.49 835.485 2682.5 833 2682.5L773 2682.5C770.515 2682.5 768.5 2680.49 768.5 2678L768.5 2657C768.5 2654.51 770.515 2652.5 773 2652.5Z" fill="#5a67d8" fill-rule="nonzero" opacity="1" stroke="#4c51bf" stroke-linecap="butt" stroke-linejoin="miter" stroke-width="1"/>
<text fill="#ffffff" font-family="Helvetica" font-size="12.8" opacity="1" stroke="none" text-anchor="middle" transform="matrix(1 0 0 1 782.722 2659)" x="0" y="0">
<tspan textLength="40.5563" x="21.7781" y="12">Testing</tspan>
</text>
<path d="M689.5 2751.5C689.5 2745.42 694.425 2740.5 700.5 2740.5C706.575 2740.5 711.5 2745.42 711.5 2751.5C711.5 2757.58 706.575 2762.5 700.5 2762.5C694.425 2762.5 689.5 2757.58 689.5 2751.5Z" fill="#ffffff" fill-rule="nonzero" opacity="1" stroke="#000000" stroke-linecap="butt" stroke-linejoin="miter" stroke-width="1"/>
<path d="M600.5 2763.5C633.833 2770.17 663.833 2767.17 690.5 2754.5" fill="none" opacity="1" stroke="#000000" stroke-linecap="butt" stroke-linejoin="miter" stroke-width="1"/>
<path d="M525 2748.5L596 2748.5C598.485 2748.5 600.5 2750.51 600.5 2753L600.5 2774C600.5 2776.49 598.485 2778.5 596 2778.5L525 2778.5C522.515 2778.5 520.5 2776.49 520.5 2774L520.5 2753C520.5 2750.51 522.515 2748.5 525 2748.5Z" fill="#5a67d8" fill-rule="nonzero" opacity="1" stroke="#4c51bf" stroke-linecap="butt" stroke-linejoin="miter" stroke-width="1"/>
<text fill="#ffffff" font-family="Helvetica" font-size="12.8" opacity="1" stroke="none" text-anchor="middle" transform="matrix(1 0 0 1 535.094 2755)" x="0" y="0">
<tspan textLength="49.8125" x="26.4063" y="12">Package</tspan>
</text>
<path d="M736.5 2830.5C736.5 2824.42 741.425 2819.5 747.5 2819.5C753.575 2819.5 758.5 2824.42 758.5 2830.5C758.5 2836.58 753.575 2841.5 747.5 2841.5C741.425 2841.5 736.5 2836.58 736.5 2830.5Z" fill="#ffffff" fill-rule="nonzero" opacity="1" stroke="#000000" stroke-linecap="butt" stroke-linejoin="miter" stroke-width="1"/>
<path d="M847.5 2817.5C816.167 2810.83 786.167 2813.83 757.5 2826.5" fill="none" opacity="1" stroke="#000000" stroke-linecap="butt" stroke-linejoin="miter" stroke-width="1"/>
<path d="M853 2802.5L920 2802.5C922.485 2802.5 924.5 2804.51 924.5 2807L924.5 2828C924.5 2830.49 922.485 2832.5 920 2832.5L853 2832.5C850.515 2832.5 848.5 2830.49 848.5 2828L848.5 2807C848.5 2804.51 850.515 2802.5 853 2802.5Z" fill="#5a67d8" fill-rule="nonzero" opacity="1" stroke="#4c51bf" stroke-linecap="butt" stroke-linejoin="miter" stroke-width="1"/>
<text fill="#ffffff" font-family="Helvetica" font-size="12.8" opacity="1" stroke="none" text-anchor="middle" transform="matrix(1 0 0 1 862.881 2809)" x="0" y="0">
<tspan textLength="46.2375" x="24.6188" y="12">Security</tspan>
</text>
<path d="M748.5 2911.5C748.5 2905.42 753.425 2900.5 759.5 2900.5C765.575 2900.5 770.5 2905.42 770.5 2911.5C770.5 2917.58 765.575 2922.5 759.5 2922.5C753.425 2922.5 748.5 2917.58 748.5 2911.5Z" fill="#ffffff" fill-rule="nonzero" opacity="1" stroke="#000000" stroke-linecap="butt" stroke-linejoin="miter" stroke-width="1"/>
<path d="M659.5 2923.5C692.833 2930.17 722.833 2927.17 749.5 2914.5" fill="none" opacity="1" stroke="#000000" stroke-linecap="butt" stroke-linejoin="miter" stroke-width="1"/>
<path d="M561 2908.5L655 2908.5C657.485 2908.5 659.5 2910.51 659.5 2913L659.5 2934C659.5 2936.49 657.485 2938.5 655 2938.5L561 2938.5C558.515 2938.5 556.5 2936.49 556.5 2934L556.5 2913C556.5 2910.51 558.515 2908.5 561 2908.5Z" fill="#5a67d8" fill-rule="nonzero" opacity="1" stroke="#4c51bf" stroke-linecap="butt" stroke-linejoin="miter" stroke-width="1"/>
<text fill="#ffffff" font-family="Helvetica" font-size="12.8" opacity="1" stroke="none" text-anchor="middle" transform="matrix(1 0 0 1 573.85 2915)" x="0" y="0">
<tspan textLength="68.3" x="35.65" y="12">Deployment</tspan>
</text>
<path d="M729.5 2991.5C729.5 2985.42 734.425 2980.5 740.5 2980.5C746.575 2980.5 751.5 2985.42 751.5 2991.5C751.5 2997.58 746.575 3002.5 740.5 3002.5C734.425 3002.5 729.5 2997.58 729.5 2991.5Z" fill="#ffffff" fill-rule="nonzero" opacity="1" stroke="#000000" stroke-linecap="butt" stroke-linejoin="miter" stroke-width="1"/>
<path d="M840.5 2978.5C809.167 2971.83 779.167 2974.83 750.5 2987.5" fill="none" opacity="1" stroke="#000000" stroke-linecap="butt" stroke-linejoin="miter" stroke-width="1"/>
<path d="M845 2963.5L897 2963.5C899.485 2963.5 901.5 2965.51 901.5 2968L901.5 2989C901.5 2991.49 899.485 2993.5 897 2993.5L845 2993.5C842.515 2993.5 840.5 2991.49 840.5 2989L840.5 2968C840.5 2965.51 842.515 2963.5 845 2963.5Z" fill="#5a67d8" fill-rule="nonzero" opacity="1" stroke="#4c51bf" stroke-linecap="butt" stroke-linejoin="miter" stroke-width="1"/>
<text fill="#ffffff" font-family="Helvetica" font-size="12.8" opacity="1" stroke="none" text-anchor="middle" transform="matrix(1 0 0 1 853.578 2970)" x="0" y="0">
<tspan textLength="34.8438" x="18.9219" y="12">CI/CD</tspan>
</text>
<path d="M744.47 3201.48C763.157 3204.16 760.773 3190.05 737.32 3159.16" fill="none" opacity="1" stroke="#000000" stroke-dasharray="3.0" stroke-linecap="butt" stroke-linejoin="miter" stroke-width="1"/>
<path d="M687.5 3201.5L799.5 3201.5C801.985 3201.5 804 3203.51 804 3206L804 3227C804 3229.49 801.985 3231.5 799.5 3231.5L687.5 3231.5C685.015 3231.5 683 3229.49 683 3227L683 3206C683 3203.51 685.015 3201.5 687.5 3201.5Z" fill="#fff2cc" fill-rule="nonzero" opacity="1" stroke="#d6b656" stroke-linecap="butt" stroke-linejoin="miter" stroke-width="1"/>
<text fill="#000000" font-family="Helvetica" font-size="12.8" opacity="1" stroke="none" text-anchor="middle" transform="matrix(1 0 0 1 701.366 3208)" x="0" y="0">
<tspan textLength="83.2688" x="43.1344" y="12">Keep Learning</tspan>
</text>
<text fill="#000000" font-family="Verdana" font-size="6.4" opacity="1" stroke="none" text-anchor="start" transform="matrix(1 0 0 1 804 270)" x="0" y="0">
<tspan textLength="138.144" x="0" y="6">Responsive Web Design and Media Queries</tspan>
</text>
<text fill="#000000" font-family="Verdana" font-size="6.4" opacity="1" stroke="none" text-anchor="start" transform="matrix(1 0 0 1 804 257)" x="0" y="0">
<tspan textLength="54.45" x="0" y="6">Grid and Flexbox</tspan>
</text>
<text fill="#000000" font-family="Verdana" font-size="6.4" opacity="1" stroke="none" text-anchor="start" transform="matrix(1 0 0 1 804 245)" x="0" y="0">
<tspan textLength="76.2594" x="0" y="6">Learn the basics of CSS</tspan>
</text>
<path d="M741 277.5C755.333 259.5 775.833 250.333 802.5 250" fill="none" opacity="1" stroke="#000000" stroke-dasharray="3.0" stroke-linecap="butt" stroke-linejoin="miter" stroke-width="1"/>
<path d="M741 282.5C762 269.167 782.5 262.333 802.5 262" fill="none" opacity="1" stroke="#000000" stroke-dasharray="3.0" stroke-linecap="butt" stroke-linejoin="miter" stroke-width="1"/>
<path d="M741 287.5C768.667 279.5 789.167 275.333 802.5 275" fill="none" opacity="1" stroke="#000000" stroke-dasharray="3.0" stroke-linecap="butt" stroke-linejoin="miter" stroke-width="1"/>
<path d="M667 329.5C641.333 312.833 611.833 307 578.5 312" fill="none" opacity="1" stroke="#000000" stroke-dasharray="3.0" stroke-linecap="butt" stroke-linejoin="miter" stroke-width="1"/>
<path d="M667 329.5C634.667 319.5 605.167 318 578.5 325" fill="none" opacity="1" stroke="#000000" stroke-dasharray="3.0" stroke-linecap="butt" stroke-linejoin="miter" stroke-width="1"/>
<path d="M667 329.5C634.667 326.167 605.167 329.333 578.5 339" fill="none" opacity="1" stroke="#000000" stroke-dasharray="3.0" stroke-linecap="butt" stroke-linejoin="miter" stroke-width="1"/>
<path d="M667 329.5C628 332.833 598.5 340.333 578.5 352" fill="none" opacity="1" stroke="#000000" stroke-dasharray="3.0" stroke-linecap="butt" stroke-linejoin="miter" stroke-width="1"/>
<text fill="#000000" font-family="Verdana" font-size="6.4" opacity="1" stroke="none" text-anchor="end" transform="matrix(1 0 0 1 525.203 347)" x="0" y="0">
<tspan textLength="50.7969" x="53.7969" y="6">ECMA Script 6+</tspan>
</text>
<text fill="#000000" font-family="Verdana" font-size="6.4" opacity="1" stroke="none" text-anchor="end" transform="matrix(1 0 0 1 517.734 334)" x="0" y="0">
<tspan textLength="58.2656" x="61.2656" y="6">AJAX (XHR), fetch</tspan>
</text>
<text fill="#000000" font-family="Verdana" font-size="6.4" opacity="1" stroke="none" text-anchor="end" transform="matrix(1 0 0 1 516.662 320)" x="0" y="0">
<tspan textLength="59.3375" x="62.3375" y="6">DOM manipulation</tspan>
</text>
<text fill="#000000" font-family="Verdana" font-size="6.4" opacity="1" stroke="none" text-anchor="end" transform="matrix(1 0 0 1 485.147 307)" x="0" y="0">
<tspan textLength="90.8531" x="93.8531" y="6">Syntax and basic operations</tspan>
</text>
<text fill="#000000" font-family="Verdana" font-size="6.4" opacity="1" stroke="none" text-anchor="end" transform="matrix(1 0 0 1 530.181 183)" x="0" y="0">
<tspan textLength="80.8188" x="83.8188" y="6">Learn the basics of HTML</tspan>
</text>
<text fill="#000000" font-family="Verdana" font-size="6.4" opacity="1" stroke="none" text-anchor="end" transform="matrix(1 0 0 1 561.122 196)" x="0" y="0">
<tspan textLength="49.8781" x="52.8781" y="6">Semantic HTML</tspan>
</text>
<text fill="#000000" font-family="Verdana" font-size="6.4" opacity="1" stroke="none" text-anchor="end" transform="matrix(1 0 0 1 413.741 208)" x="0" y="0">
<tspan textLength="197.259" x="200.259" y="6">Dividing page into sections and structuring the DOM properly</tspan>
</text>
<path d="M682 229.5C669.667 206.167 646.833 192 613.5 187" fill="none" opacity="1" stroke="#000000" stroke-dasharray="3.0" stroke-linecap="butt" stroke-linejoin="miter" stroke-width="1"/>
<path d="M682 234.5C663 214.5 640.167 203 613.5 200" fill="none" opacity="1" stroke="#000000" stroke-dasharray="3.0" stroke-linecap="butt" stroke-linejoin="miter" stroke-width="1"/>
<path d="M682 239.5C656.333 221.5 633.5 212.333 613.5 212" fill="none" opacity="1" stroke="#000000" stroke-dasharray="3.0" stroke-linecap="butt" stroke-linejoin="miter" stroke-width="1"/>
<path d="M682.16 243.32C660.387 233.44 637.833 228.5 614.5 228.5" fill="none" opacity="1" stroke="#000000" stroke-dasharray="3.0" stroke-linecap="butt" stroke-linejoin="miter" stroke-width="1"/>
<text fill="#000000" font-family="Verdana" font-size="6.4" opacity="1" stroke="none" text-anchor="end" transform="matrix(1 0 0 1 553.278 223)" x="0" y="0">
<tspan textLength="57.7219" x="60.7219" y="6">Accessibility Basic</tspan>
</text>
<path d="M856.1 327.5L896.9 327.5C898.888 327.5 900.5 329.112 900.5 331.1L900.5 347.9C900.5 349.888 898.888 351.5 896.9 351.5L856.1 351.5C854.112 351.5 852.5 349.888 852.5 347.9L852.5 331.1C852.5 329.112 854.112 327.5 856.1 327.5Z" fill="#5a67d8" fill-rule="nonzero" opacity="1" stroke="#4c51bf" stroke-linecap="butt" stroke-linejoin="miter" stroke-width="1"/>
<text fill="#ffffff" font-family="Helvetica" font-size="12.8" opacity="1" stroke="none" text-anchor="middle" transform="matrix(1 0 0 1 860.35 331)" x="0" y="0">
<tspan textLength="31.3" x="17.15" y="12">Basic</tspan>
</text>
<path d="M743 377.5C757.333 359.5 793.407 346.597 851.22 338.79" fill="none" opacity="1" stroke="#000000" stroke-dasharray="3.0" stroke-linecap="butt" stroke-linejoin="miter" stroke-width="1"/>
<path d="M743 382.5C764 369.167 804.46 378.027 864.38 409.08" fill="none" opacity="1" stroke="#000000" stroke-dasharray="3.0" stroke-linecap="butt" stroke-linejoin="miter" stroke-width="1"/>
<path d="M743 387.5C770.667 379.5 823.387 410.163 901.16 479.49" fill="none" opacity="1" stroke="#000000" stroke-dasharray="3.0" stroke-linecap="butt" stroke-linejoin="miter" stroke-width="1"/>
<path d="M902 332.5C916.333 314.5 936.833 305.333 963.5 305" fill="none" opacity="1" stroke="#000000" stroke-dasharray="3.0" stroke-linecap="butt" stroke-linejoin="miter" stroke-width="1"/>
<path d="M902 337.5C923 324.167 943.5 317.333 963.5 317" fill="none" opacity="1" stroke="#000000" stroke-dasharray="3.0" stroke-linecap="butt" stroke-linejoin="miter" stroke-width="1"/>
<path d="M902 342.5C929.667 334.5 950.167 330.333 963.5 330" fill="none" opacity="1" stroke="#000000" stroke-dasharray="3.0" stroke-linecap="butt" stroke-linejoin="miter" stroke-width="1"/>
<text fill="#000000" font-family="Verdana" font-size="6.4" opacity="1" stroke="none" text-anchor="start" transform="matrix(1 0 0 1 967 325)" x="0" y="0">
<tspan textLength="95.3156" x="0" y="6">Array, Array &amp; String function</tspan>
</text>
<text fill="#000000" font-family="Verdana" font-size="6.4" opacity="1" stroke="none" text-anchor="start" transform="matrix(1 0 0 1 967 312)" x="0" y="0">
<tspan textLength="143.431" x="0" y="6">Controls, Conditional, Functions, Parameters</tspan>
</text>
<text fill="#000000" font-family="Verdana" font-size="6.4" opacity="1" stroke="none" text-anchor="start" transform="matrix(1 0 0 1 967 300)" x="0" y="0">
<tspan textLength="88.2969" x="0" y="6">Variables, Types, Operators</tspan>
</text>
<text fill="#000000" font-family="Verdana" font-size="6.4" opacity="1" stroke="none" text-anchor="start" transform="matrix(1 0 0 1 967 338)" x="0" y="0">
<tspan textLength="120.691" x="0" y="6">Math, File, Datetime, Cookie, Session</tspan>
</text>
<path d="M902 346.5C902 346.5 922.56 345.437 963.68 343.31" fill="none" opacity="1" stroke="#000000" stroke-dasharray="3.0" stroke-linecap="butt" stroke-linejoin="miter" stroke-width="1"/>
<path d="M909 404.5C923.333 386.5 943.833 377.333 970.5 377" fill="none" opacity="1" stroke="#000000" stroke-dasharray="3.0" stroke-linecap="butt" stroke-linejoin="miter" stroke-width="1"/>
<path d="M909 409.5C930 396.167 950.5 389.333 970.5 389" fill="none" opacity="1" stroke="#000000" stroke-dasharray="3.0" stroke-linecap="butt" stroke-linejoin="miter" stroke-width="1"/>
<path d="M909 414.5C936.667 406.5 957.167 402.333 970.5 402" fill="none" opacity="1" stroke="#000000" stroke-dasharray="3.0" stroke-linecap="butt" stroke-linejoin="miter" stroke-width="1"/>
<path d="M909 418.5C909 418.5 929.56 417.437 970.68 415.31" fill="none" opacity="1" stroke="#000000" stroke-dasharray="3.0" stroke-linecap="butt" stroke-linejoin="miter" stroke-width="1"/>
<text fill="#000000" font-family="Verdana" font-size="6.4" opacity="1" stroke="none" text-anchor="start" transform="matrix(1 0 0 1 972 372)" x="0" y="0">
<tspan textLength="102.303" x="0" y="6">Class, Object, Method, Property</tspan>
</text>
<text fill="#000000" font-family="Verdana" font-size="6.4" opacity="1" stroke="none" text-anchor="start" transform="matrix(1 0 0 1 972 384)" x="0" y="0">
<tspan textLength="128.231" x="0" y="6">Interface, Inheritance,Trait, Namespace</tspan>
</text>
<text fill="#000000" font-family="Verdana" font-size="6.4" opacity="1" stroke="none" text-anchor="start" transform="matrix(1 0 0 1 972 397)" x="0" y="0">
<tspan textLength="60.5375" x="0" y="6">Iterator, Generator</tspan>
</text>
<text fill="#000000" font-family="Verdana" font-size="6.4" opacity="1" stroke="none" text-anchor="start" transform="matrix(1 0 0 1 972 410)" x="0" y="0">
<tspan textLength="113.959" x="0" y="6">MVC, SOLID, Dependency Injection</tspan>
</text>
<path d="M947 490.5C970.667 483.833 991.5 480.333 1009.5 480" fill="none" opacity="1" stroke="#000000" stroke-dasharray="3.0" stroke-linecap="butt" stroke-linejoin="miter" stroke-width="1"/>
<path d="M947 494.5C968 491.167 988.833 491.333 1009.5 495" fill="none" opacity="1" stroke="#000000" stroke-dasharray="3.0" stroke-linecap="butt" stroke-linejoin="miter" stroke-width="1"/>
<text fill="#000000" font-family="Verdana" font-size="6.4" opacity="1" stroke="none" text-anchor="start" transform="matrix(1 0 0 1 1011 476)" x="0" y="0">
<tspan textLength="83.3563" x="0" y="6">Dependency Management</tspan>
</text>
<text fill="#000000" font-family="Verdana" font-size="6.4" opacity="1" stroke="none" text-anchor="start" transform="matrix(1 0 0 1 1011 491)" x="0" y="0">
<tspan textLength="65.5938" x="0" y="6">Semantic Versioning</tspan>
</text>
<path d="M868.1 397.5L905.9 397.5C907.888 397.5 909.5 399.112 909.5 401.1L909.5 417.9C909.5 419.888 907.888 421.5 905.9 421.5L868.1 421.5C866.112 421.5 864.5 419.888 864.5 417.9L864.5 401.1C864.5 399.112 866.112 397.5 868.1 397.5Z" fill="#5a67d8" fill-rule="nonzero" opacity="1" stroke="#4c51bf" stroke-linecap="butt" stroke-linejoin="miter" stroke-width="1"/>
<text fill="#ffffff" font-family="Helvetica" font-size="12.8" opacity="1" stroke="none" text-anchor="middle" transform="matrix(1 0 0 1 872.775 401)" x="0" y="0">
<tspan textLength="28.45" x="15.725" y="12">OOP</tspan>
</text>
<path d="M867.1 479.5L938.9 479.5C940.888 479.5 942.5 481.112 942.5 483.1L942.5 499.9C942.5 501.888 940.888 503.5 938.9 503.5L867.1 503.5C865.112 503.5 863.5 501.888 863.5 499.9L863.5 483.1C863.5 481.112 865.112 479.5 867.1 479.5Z" fill="#5a67d8" fill-rule="nonzero" opacity="1" stroke="#4c51bf" stroke-linecap="butt" stroke-linejoin="miter" stroke-width="1"/>
<text fill="#ffffff" font-family="Helvetica" font-size="12.8" opacity="1" stroke="none" text-anchor="middle" transform="matrix(1 0 0 1 873.478 483)" x="0" y="0">
<tspan textLength="59.0438" x="31.0219" y="12">Composer</tspan>
</text>
<path d="M605 518.5C576 495.167 541.5 486 501.5 491" fill="none" opacity="1" stroke="#000000" stroke-dasharray="3.0" stroke-linecap="butt" stroke-linejoin="miter" stroke-width="1"/>
<path d="M605 518.5C576 505.167 541.5 501 501.5 506" fill="none" opacity="1" stroke="#000000" stroke-dasharray="3.0" stroke-linecap="butt" stroke-linejoin="miter" stroke-width="1"/>
<path d="M605 523.5C569.333 510.167 534.833 509.333 501.5 521" fill="none" opacity="1" stroke="#000000" stroke-dasharray="3.0" stroke-linecap="butt" stroke-linejoin="miter" stroke-width="1"/>
<path d="M605 528.5C562.667 525.167 528.167 532.667 501.5 551" fill="none" opacity="1" stroke="#000000" stroke-dasharray="3.0" stroke-linecap="butt" stroke-linejoin="miter" stroke-width="1"/>
<path d="M605 523.5C569.333 516.833 534.833 521 501.5 536" fill="none" opacity="1" stroke="#000000" stroke-dasharray="3.0" stroke-linecap="butt" stroke-linejoin="miter" stroke-width="1"/>
<text fill="#000000" font-family="Verdana" font-size="6.4" opacity="1" stroke="none" text-anchor="end" transform="matrix(1 0 0 1 375.547 486)" x="0" y="0">
<tspan textLength="123.453" x="126.453" y="6">GIT - Version Control (GitHub, GitLab)</tspan>
</text>
<text fill="#000000" font-family="Verdana" font-size="6.4" opacity="1" stroke="none" text-anchor="end" transform="matrix(1 0 0 1 430.809 501)" x="0" y="0">
<tspan textLength="68.1906" x="71.1906" y="6">HTTP/HTTPS protocol</tspan>
</text>
<text fill="#000000" font-family="Verdana" font-size="6.4" opacity="1" stroke="none" text-anchor="end" transform="matrix(1 0 0 1 407.05 516)" x="0" y="0">
<tspan textLength="91.95" x="94.95" y="6">Learn to search for solutions</tspan>
</text>
<text fill="#000000" font-family="Verdana" font-size="6.4" opacity="1" stroke="none" text-anchor="end" transform="matrix(1 0 0 1 450.291 531)" x="0" y="0">
<tspan textLength="48.7094" x="51.7094" y="6">Terminal usage</tspan>
</text>
<text fill="#000000" font-family="Verdana" font-size="6.4" opacity="1" stroke="none" text-anchor="end" transform="matrix(1 0 0 1 397.144 546)" x="0" y="0">
<tspan textLength="101.856" x="104.856" y="6">Data Structures and Algorithms</tspan>
</text>
<path d="M1050.5 665.5C1082.5 636.833 1115.83 622.5 1150.5 622.5" fill="none" opacity="1" stroke="#000000" stroke-dasharray="3.0" stroke-linecap="butt" stroke-linejoin="miter" stroke-width="1"/>
<path d="M1157.1 609.5L1202.9 609.5C1204.89 609.5 1206.5 611.112 1206.5 613.1L1206.5 629.9C1206.5 631.888 1204.89 633.5 1202.9 633.5L1157.1 633.5C1155.11 633.5 1153.5 631.888 1153.5 629.9L1153.5 613.1C1153.5 611.112 1155.11 609.5 1157.1 609.5Z" fill="#5a67d8" fill-rule="nonzero" opacity="1" stroke="#4c51bf" stroke-linecap="butt" stroke-linejoin="miter" stroke-width="1"/>
<text fill="#ffffff" font-family="Helvetica" font-size="12.8" opacity="1" stroke="none" text-anchor="middle" transform="matrix(1 0 0 1 1161.86 613)" x="0" y="0">
<tspan textLength="36.2813" x="19.6406" y="12">Native</tspan>
</text>
<path d="M1158.1 651.5L1212.9 651.5C1214.89 651.5 1216.5 653.112 1216.5 655.1L1216.5 671.9C1216.5 673.888 1214.89 675.5 1212.9 675.5L1158.1 675.5C1156.11 675.5 1154.5 673.888 1154.5 671.9L1154.5 655.1C1154.5 653.112 1156.11 651.5 1158.1 651.5Z" fill="#5a67d8" fill-rule="nonzero" opacity="1" stroke="#4c51bf" stroke-linecap="butt" stroke-linejoin="miter" stroke-width="1"/>
<text fill="#ffffff" font-family="Helvetica" font-size="12.8" opacity="1" stroke="none" text-anchor="middle" transform="matrix(1 0 0 1 1163.06 655)" x="0" y="0">
<tspan textLength="43.8875" x="23.4438" y="12">Vagrant</tspan>
</text>
<path d="M1152.1 693.5L1202.9 693.5C1204.89 693.5 1206.5 695.112 1206.5 697.1L1206.5 713.9C1206.5 715.888 1204.89 717.5 1202.9 717.5L1152.1 717.5C1150.11 717.5 1148.5 715.888 1148.5 713.9L1148.5 697.1C1148.5 695.112 1150.11 693.5 1152.1 693.5Z" fill="#5a67d8" fill-rule="nonzero" opacity="1" stroke="#4c51bf" stroke-linecap="butt" stroke-linejoin="miter" stroke-width="1"/>
<text fill="#ffffff" font-family="Helvetica" font-size="12.8" opacity="1" stroke="none" text-anchor="middle" transform="matrix(1 0 0 1 1156.73 697)" x="0" y="0">
<tspan textLength="40.5438" x="21.7719" y="12">Docker</tspan>
</text>
<path d="M1050.72 673.06C1084.57 666.02 1118.43 662.02 1152.3 661.06" fill="none" opacity="1" stroke="#000000" stroke-dasharray="3.0" stroke-linecap="butt" stroke-linejoin="miter" stroke-width="1"/>
<path d="M1050.19 682.23C1086.4 682.41 1118.95 690.503 1147.86 706.51" fill="none" opacity="1" stroke="#000000" stroke-dasharray="3.0" stroke-linecap="butt" stroke-linejoin="miter" stroke-width="1"/>
<path d="M1181.49 609.49C1221.5 588.83 1257.12 576.313 1288.36 571.94" fill="none" opacity="1" stroke="#000000" stroke-dasharray="3.0" stroke-linecap="butt" stroke-linejoin="miter" stroke-width="1"/>
<path d="M1291.8 561.5L1322.2 561.5C1324.02 561.5 1325.5 562.977 1325.5 564.8L1325.5 580.2C1325.5 582.023 1324.02 583.5 1322.2 583.5L1291.8 583.5C1289.98 583.5 1288.5 582.023 1288.5 580.2L1288.5 564.8C1288.5 562.977 1289.98 561.5 1291.8 561.5Z" fill="#5a67d8" fill-rule="nonzero" opacity="1" stroke="#4c51bf" stroke-linecap="butt" stroke-linejoin="miter" stroke-width="1"/>
<text fill="#ffffff" font-family="Helvetica" font-size="12.8" opacity="1" stroke="none" text-anchor="middle" transform="matrix(1 0 0 1 1292.88 564)" x="0" y="0">
<tspan textLength="28.2313" x="15.6156" y="12">Valet</tspan>
</text>
<path d="M1303.8 621.5L1345.2 621.5C1347.02 621.5 1348.5 622.977 1348.5 624.8L1348.5 640.2C1348.5 642.023 1347.02 643.5 1345.2 643.5L1303.8 643.5C1301.98 643.5 1300.5 642.023 1300.5 640.2L1300.5 624.8C1300.5 622.977 1301.98 621.5 1303.8 621.5Z" fill="#5a67d8" fill-rule="nonzero" opacity="1" stroke="#4c51bf" stroke-linecap="butt" stroke-linejoin="miter" stroke-width="1"/>
<text fill="#ffffff" font-family="Helvetica" font-size="12.8" opacity="1" stroke="none" text-anchor="middle" transform="matrix(1 0 0 1 1303.72 624)" x="0" y="0">
<tspan textLength="40.5563" x="21.7781" y="12">Xampp</tspan>
</text>
<path d="M1206.5 626.5C1243.83 618.5 1275.16 620.833 1300.48 633.5" fill="none" opacity="1" stroke="#000000" stroke-dasharray="3.0" stroke-linecap="butt" stroke-linejoin="miter" stroke-width="1"/>
<path d="M1282.8 659.5L1347.2 659.5C1349.02 659.5 1350.5 660.977 1350.5 662.8L1350.5 678.2C1350.5 680.023 1349.02 681.5 1347.2 681.5L1282.8 681.5C1280.98 681.5 1279.5 680.023 1279.5 678.2L1279.5 662.8C1279.5 660.977 1280.98 659.5 1282.8 659.5Z" fill="#5a67d8" fill-rule="nonzero" opacity="1" stroke="#4c51bf" stroke-linecap="butt" stroke-linejoin="miter" stroke-width="1"/>
<text fill="#ffffff" font-family="Helvetica" font-size="12.8" opacity="1" stroke="none" text-anchor="middle" transform="matrix(1 0 0 1 1282.27 662)" x="0" y="0">
<tspan textLength="65.4563" x="34.2281" y="12">Homestead</tspan>
</text>
<path d="M1216.5 663.5C1240.5 659.5 1261.08 661.713 1278.24 670.14" fill="none" opacity="1" stroke="#000000" stroke-dasharray="3.0" stroke-linecap="butt" stroke-linejoin="miter" stroke-width="1"/>
<path d="M1168.36 610.2C1195.13 561.733 1222.37 535.647 1250.1 531.94" fill="none" opacity="1" stroke="#000000" stroke-dasharray="3.0" stroke-linecap="butt" stroke-linejoin="miter" stroke-width="1"/>
<path d="M1250.81 521.5L1298.21 521.5C1300.03 521.5 1301.51 522.977 1301.51 524.8L1301.51 540.2C1301.51 542.023 1300.03 543.5 1298.21 543.5L1250.81 543.5C1248.99 543.5 1247.51 542.023 1247.51 540.2L1247.51 524.8C1247.51 522.977 1248.99 521.5 1250.81 521.5Z" fill="#5a67d8" fill-rule="nonzero" opacity="1" stroke="#4c51bf" stroke-linecap="butt" stroke-linejoin="miter" stroke-width="1"/>
<text fill="#ffffff" font-family="Helvetica" font-size="12.8" opacity="1" stroke="none" text-anchor="middle" transform="matrix(1 0 0 1 1250.51 524)" x="0" y="0">
<tspan textLength="46.975" x="24.9875" y="12">Laragon</tspan>
</text>
<path d="M1288.8 706.5L1341.2 706.5C1343.02 706.5 1344.5 707.977 1344.5 709.8L1344.5 725.2C1344.5 727.023 1343.02 728.5 1341.2 728.5L1288.8 728.5C1286.98 728.5 1285.5 727.023 1285.5 725.2L1285.5 709.8C1285.5 707.977 1286.98 706.5 1288.8 706.5Z" fill="#5a67d8" fill-rule="nonzero" opacity="1" stroke="#4c51bf" stroke-linecap="butt" stroke-linejoin="miter" stroke-width="1"/>
<text fill="#ffffff" font-family="Helvetica" font-size="12.8" opacity="1" stroke="none" text-anchor="middle" transform="matrix(1 0 0 1 1288.67 709)" x="0" y="0">
<tspan textLength="52.6563" x="27.8281" y="12">Laradock</tspan>
</text>
<path d="M1206.53 704.49C1237.18 704.497 1262.73 708.713 1283.2 717.14" fill="none" opacity="1" stroke="#000000" stroke-dasharray="3.0" stroke-linecap="butt" stroke-linejoin="miter" stroke-width="1"/>
<path d="M1248.8 776.5L1293.2 776.5C1295.02 776.5 1296.5 777.977 1296.5 779.8L1296.5 795.2C1296.5 797.023 1295.02 798.5 1293.2 798.5L1248.8 798.5C1246.98 798.5 1245.5 797.023 1245.5 795.2L1245.5 779.8C1245.5 777.977 1246.98 776.5 1248.8 776.5Z" fill="#5a67d8" fill-rule="nonzero" opacity="1" stroke="#4c51bf" stroke-linecap="butt" stroke-linejoin="miter" stroke-width="1"/>
<text fill="#ffffff" font-family="Helvetica" font-size="12.8" opacity="1" stroke="none" text-anchor="middle" transform="matrix(1 0 0 1 1248.95 779)" x="0" y="0">
<tspan textLength="44.1" x="23.55" y="12">Custom</tspan>
</text>
<path d="M1173.47 717.09C1196.82 755.363 1219.83 778.713 1242.5 787.14" fill="none" opacity="1" stroke="#000000" stroke-dasharray="3.0" stroke-linecap="butt" stroke-linejoin="miter" stroke-width="1"/>
<path d="M1260.81 740.91L1354.21 740.91C1356.03 740.91 1357.51 742.387 1357.51 744.21L1357.51 759.61C1357.51 761.433 1356.03 762.91 1354.21 762.91L1260.81 762.91C1258.99 762.91 1257.51 761.433 1257.51 759.61L1257.51 744.21C1257.51 742.387 1258.99 740.91 1260.81 740.91Z" fill="#5a67d8" fill-rule="nonzero" opacity="1" stroke="#4c51bf" stroke-linecap="butt" stroke-linejoin="miter" stroke-width="1"/>
<text fill="#ffffff" font-family="Helvetica" font-size="12.8" opacity="1" stroke="none" text-anchor="middle" transform="matrix(1 0 0 1 1260.05 744)" x="0" y="0">
<tspan textLength="93.8938" x="48.4469" y="12">Docker-compo...</tspan>
</text>
<path d="M1192.93 721.08C1221.31 741.36 1243.26 751.517 1258.78 751.55" fill="none" opacity="1" stroke="#000000" stroke-dasharray="3.0" stroke-linecap="butt" stroke-linejoin="miter" stroke-width="1"/>
<path d="M29.1 1.5L326.9 1.5C328.888 1.5 330.5 3.11177 330.5 5.1L330.5 21.9C330.5 23.8882 328.888 25.5 326.9 25.5L29.1 25.5C27.1118 25.5 25.5 23.8882 25.5 21.9L25.5 5.1C25.5 3.11177 27.1118 1.5 29.1 1.5Z" fill="#ebf4ff" fill-rule="nonzero" opacity="1" stroke="none"/>
<text fill="#667eea" font-family="Helvetica" font-size="9.6" opacity="1" stroke="none" text-anchor="middle" transform="matrix(1 0 0 1 82.743 8)" x="0" y="0">
<tspan textLength="190.514" x="96.757" y="9">Hasnayeen/laravel-developer-roadmap-2020</tspan>
</text>
<path d="M698.5 3071.5C698.5 3065.42 703.425 3060.5 709.5 3060.5C715.575 3060.5 720.5 3065.42 720.5 3071.5C720.5 3077.58 715.575 3082.5 709.5 3082.5C703.425 3082.5 698.5 3077.58 698.5 3071.5Z" fill="#ffffff" fill-rule="nonzero" opacity="1" stroke="#000000" stroke-linecap="butt" stroke-linejoin="miter" stroke-width="1"/>
<path d="M609.5 3083.5C642.833 3090.17 672.833 3087.17 699.5 3074.5" fill="none" opacity="1" stroke="#000000" stroke-linecap="butt" stroke-linejoin="miter" stroke-width="1"/>
<path d="M522 3068.5L606 3068.5C608.485 3068.5 610.5 3070.51 610.5 3073L610.5 3094C610.5 3096.49 608.485 3098.5 606 3098.5L522 3098.5C519.515 3098.5 517.5 3096.49 517.5 3094L517.5 3073C517.5 3070.51 519.515 3068.5 522 3068.5Z" fill="#5a67d8" fill-rule="nonzero" opacity="1" stroke="#4c51bf" stroke-linecap="butt" stroke-linejoin="miter" stroke-width="1"/>
<text fill="#ffffff" font-family="Helvetica" font-size="12.8" opacity="1" stroke="none" text-anchor="middle" transform="matrix(1 0 0 1 534.119 3075)" x="0" y="0">
<tspan textLength="59.7625" x="31.3813" y="12">Monitoring</tspan>
</text>
<path d="M569.4 745.28C538.8 714.093 505.837 698.407 470.51 698.22" fill="none" opacity="1" stroke="#000000" stroke-dasharray="3.0" stroke-linecap="butt" stroke-linejoin="miter" stroke-width="1"/>
<path d="M309.55 675.5L461.45 675.5C465.344 675.5 468.5 678.656 468.5 682.55L468.5 715.45C468.5 719.344 465.344 722.5 461.45 722.5L309.55 722.5C305.656 722.5 302.5 719.344 302.5 715.45L302.5 682.55C302.5 678.656 305.656 675.5 309.55 675.5Z" fill="#f8cecc" fill-rule="nonzero" opacity="1" stroke="#b85450" stroke-linecap="butt" stroke-linejoin="miter" stroke-width="1"/>
<text fill="#000000" font-family="Helvetica" font-size="12.8" opacity="1" stroke="none" text-anchor="middle" transform="matrix(1 0 0 1 318.122 691)" x="0" y="0">
<tspan textLength="133.756" x="68.3781" y="12">Router methods, view...</tspan>
</text>
<path d="M528.73 763.24C511.243 752.08 486.833 750.5 455.5 758.5" fill="none" opacity="1" stroke="#000000" stroke-dasharray="3.0" stroke-linecap="butt" stroke-linejoin="miter" stroke-width="1"/>
<path d="M295.55 737L448.45 737C452.344 737 455.5 740.156 455.5 744.05L455.5 776.95C455.5 780.844 452.344 784 448.45 784L295.55 784C291.656 784 288.5 780.844 288.5 776.95L288.5 744.05C288.5 740.156 291.656 737 295.55 737Z" fill="#fff2cc" fill-rule="nonzero" opacity="1" stroke="#d6b656" stroke-linecap="butt" stroke-linejoin="miter" stroke-width="1"/>
<text fill="#000000" font-family="Helvetica" font-size="12.8" opacity="1" stroke="none" text-anchor="middle" transform="matrix(1 0 0 1 302.619 752)" x="0" y="0">
<tspan textLength="138.763" x="70.8813" y="12">Route group, group op...</tspan>
</text>
<path d="M570.77 775.62C566.59 801.54 527.417 816.48 453.25 820.44" fill="none" opacity="1" stroke="#000000" stroke-dasharray="3.0" stroke-linecap="butt" stroke-linejoin="miter" stroke-width="1"/>
<path d="M332.55 798.5L442.45 798.5C446.344 798.5 449.5 801.656 449.5 805.55L449.5 838.45C449.5 842.344 446.344 845.5 442.45 845.5L332.55 845.5C328.656 845.5 325.5 842.344 325.5 838.45L325.5 805.55C325.5 801.656 328.656 798.5 332.55 798.5Z" fill="#d5e8d4" fill-rule="nonzero" opacity="1" stroke="#82b366" stroke-linecap="butt" stroke-linejoin="miter" stroke-width="1"/>
<text fill="#000000" font-family="Helvetica" font-size="12.8" opacity="1" stroke="none" text-anchor="middle" transform="matrix(1 0 0 1 344.675 814)" x="0" y="0">
<tspan textLength="84.65" x="43.825" y="12">Rate limiting,...</tspan>
</text>
<path d="M967.55 733.5L1072.45 733.5C1076.34 733.5 1079.5 736.656 1079.5 740.55L1079.5 773.45C1079.5 777.344 1076.34 780.5 1072.45 780.5L967.55 780.5C963.656 780.5 960.5 777.344 960.5 773.45L960.5 740.55C960.5 736.656 963.656 733.5 967.55 733.5Z" fill="#f8cecc" fill-rule="nonzero" opacity="1" stroke="#b85450" stroke-linecap="butt" stroke-linejoin="miter" stroke-width="1"/>
<text fill="#000000" font-family="Helvetica" font-size="12.8" opacity="1" stroke="none" text-anchor="middle" transform="matrix(1 0 0 1 966.994 749)" x="0" y="0">
<tspan textLength="106.013" x="54.5063" y="12">Action, namespa...</tspan>
</text>
<path d="M974.55 797.5L1134.45 797.5C1138.34 797.5 1141.5 800.656 1141.5 804.55L1141.5 837.45C1141.5 841.344 1138.34 844.5 1134.45 844.5L974.55 844.5C970.656 844.5 967.5 841.344 967.5 837.45L967.5 804.55C967.5 800.656 970.656 797.5 974.55 797.5Z" fill="#fff2cc" fill-rule="nonzero" opacity="1" stroke="#d6b656" stroke-linecap="butt" stroke-linejoin="miter" stroke-width="1"/>
<text fill="#000000" font-family="Helvetica" font-size="12.8" opacity="1" stroke="none" text-anchor="middle" transform="matrix(1 0 0 1 981.072 813)" x="0" y="0">
<tspan textLength="145.856" x="74.4281" y="12">Middleware, nested con...</tspan>
</text>
<path d="M934.55 866.5L1058.45 866.5C1062.34 866.5 1065.5 869.656 1065.5 873.55L1065.5 906.45C1065.5 910.344 1062.34 913.5 1058.45 913.5L934.55 913.5C930.656 913.5 927.5 910.344 927.5 906.45L927.5 873.55C927.5 869.656 930.656 866.5 934.55 866.5Z" fill="#d5e8d4" fill-rule="nonzero" opacity="1" stroke="#82b366" stroke-linecap="butt" stroke-linejoin="miter" stroke-width="1"/>
<text fill="#000000" font-family="Helvetica" font-size="12.8" opacity="1" stroke="none" text-anchor="middle" transform="matrix(1 0 0 1 941.922 882)" x="0" y="0">
<tspan textLength="108.156" x="55.5781" y="12">Single action con...</tspan>
</text>
<path d="M855.8 793.63C890.267 764.21 925.18 752.497 960.54 758.49" fill="none" opacity="1" stroke="#000000" stroke-dasharray="3.0" stroke-linecap="butt" stroke-linejoin="miter" stroke-width="1"/>
<path d="M848.46 822.52C855.153 852.507 864.667 870.5 877 876.5C889.333 882.5 906.183 885.507 927.55 885.52" fill="none" opacity="1" stroke="#000000" stroke-dasharray="3.0" stroke-linecap="butt" stroke-linejoin="miter" stroke-width="1"/>
<path d="M903.5 809.5C926.167 809.5 947.507 814.503 967.52 824.51" fill="none" opacity="1" stroke="#000000" stroke-dasharray="3.0" stroke-linecap="butt" stroke-linejoin="miter" stroke-width="1"/>
<text fill="#000000" font-family="Verdana" font-size="9.6" opacity="1" stroke="none" text-anchor="end" transform="matrix(1 0 0 1 1368.18 11)" x="0" y="0">
<tspan textLength="39.8203" x="42.8203" y="10">Legends</tspan>
</text>
<path d="M1263.6 31.5L1405.4 31.5C1408.22 31.5 1410.5 33.7833 1410.5 36.6L1410.5 60.4C1410.5 63.2167 1408.22 65.5 1405.4 65.5L1263.6 65.5C1260.78 65.5 1258.5 63.2167 1258.5 60.4L1258.5 36.6C1258.5 33.7833 1260.78 31.5 1263.6 31.5Z" fill="#f8cecc" fill-rule="nonzero" opacity="1" stroke="#b85450" stroke-linecap="butt" stroke-linejoin="miter" stroke-width="1"/>
<text fill="#000000" font-family="Verdana" font-size="8" opacity="1" stroke="none" text-anchor="middle" transform="matrix(1 0 0 1 1270 43)" x="0" y="0">
<tspan textLength="128" x="65.5" y="8">Primary, must learn this befor...</tspan>
</text>
<path d="M1263.6 79.5L1405.4 79.5C1408.22 79.5 1410.5 81.7833 1410.5 84.6L1410.5 108.4C1410.5 111.217 1408.22 113.5 1405.4 113.5L1263.6 113.5C1260.78 113.5 1258.5 111.217 1258.5 108.4L1258.5 84.6C1258.5 81.7833 1260.78 79.5 1263.6 79.5Z" fill="#fff2cc" fill-rule="nonzero" opacity="1" stroke="#d6b656" stroke-linecap="butt" stroke-linejoin="miter" stroke-width="1"/>
<text fill="#000000" font-family="Verdana" font-size="8" opacity="1" stroke="none" text-anchor="middle" transform="matrix(1 0 0 1 1267.13 91)" x="0" y="0">
<tspan textLength="133.734" x="68.3672" y="8">Secondary, learn this when oth...</tspan>
</text>
<path d="M1263.6 127.5L1405.4 127.5C1408.22 127.5 1410.5 129.783 1410.5 132.6L1410.5 156.4C1410.5 159.217 1408.22 161.5 1405.4 161.5L1263.6 161.5C1260.78 161.5 1258.5 159.217 1258.5 156.4L1258.5 132.6C1258.5 129.783 1260.78 127.5 1263.6 127.5Z" fill="#d5e8d4" fill-rule="nonzero" opacity="1" stroke="#82b366" stroke-linecap="butt" stroke-linejoin="miter" stroke-width="1"/>
<text fill="#000000" font-family="Verdana" font-size="8" opacity="1" stroke="none" text-anchor="middle" transform="matrix(1 0 0 1 1277.92 139)" x="0" y="0">
<tspan textLength="112.164" x="57.582" y="8">Tertiary, learn when needed</tspan>
</text>
<path d="M409 894.5L454 894.5C456.485 894.5 458.5 896.515 458.5 899L458.5 920C458.5 922.485 456.485 924.5 454 924.5L409 924.5C406.515 924.5 404.5 922.485 404.5 920L404.5 899C404.5 896.515 406.515 894.5 409 894.5Z" fill="#f8cecc" fill-rule="nonzero" opacity="1" stroke="#b85450" stroke-linecap="butt" stroke-linejoin="miter" stroke-width="1"/>
<text fill="#000000" font-family="Helvetica" font-size="12.8" opacity="1" stroke="none" text-anchor="middle" transform="matrix(1 0 0 1 414.631 901)" x="0" y="0">
<tspan textLength="32.7375" x="17.8688" y="12">Blade</tspan>
</text>
<path d="M459 908.35C488 897.783 514.833 896.167 539.5 903.5" fill="none" opacity="1" stroke="#000000" stroke-dasharray="3.0" stroke-linecap="butt" stroke-linejoin="miter" stroke-width="1"/>
<path d="M107.55 816.5L254.45 816.5C258.344 816.5 261.5 819.656 261.5 823.55L261.5 856.45C261.5 860.344 258.344 863.5 254.45 863.5L107.55 863.5C103.656 863.5 100.5 860.344 100.5 856.45L100.5 823.55C100.5 819.656 103.656 816.5 107.55 816.5Z" fill="#f8cecc" fill-rule="nonzero" opacity="1" stroke="#b85450" stroke-linecap="butt" stroke-linejoin="miter" stroke-width="1"/>
<text fill="#000000" font-family="Helvetica" font-size="12.8" opacity="1" stroke="none" text-anchor="middle" transform="matrix(1 0 0 1 116.6 832)" x="0" y="0">
<tspan textLength="128.8" x="65.9" y="12">Loading view, passin...</tspan>
</text>
<path d="M404.5 910.56C386.5 889.853 339.09 867.243 262.27 842.73" fill="none" opacity="1" stroke="#000000" stroke-dasharray="3.0" stroke-linecap="butt" stroke-linejoin="miter" stroke-width="1"/>
<path d="M104.55 886.5L260.45 886.5C262.687 886.5 264.5 888.313 264.5 890.55L264.5 909.45C264.5 911.687 262.687 913.5 260.45 913.5L104.55 913.5C102.313 913.5 100.5 911.687 100.5 909.45L100.5 890.55C100.5 888.313 102.313 886.5 104.55 886.5Z" fill="#fff2cc" fill-rule="nonzero" opacity="1" stroke="#d6b656" stroke-linecap="butt" stroke-linejoin="miter" stroke-width="1"/>
<text fill="#000000" font-family="Helvetica" font-size="12.8" opacity="1" stroke="none" text-anchor="middle" transform="matrix(1 0 0 1 112.997 892)" x="0" y="0">
<tspan textLength="138.006" x="70.5031" y="12">Form, components, su...</tspan>
</text>
<path d="M136.55 921.5L228.45 921.5C232.344 921.5 235.5 924.656 235.5 928.55L235.5 961.45C235.5 965.344 232.344 968.5 228.45 968.5L136.55 968.5C132.656 968.5 129.5 965.344 129.5 961.45L129.5 928.55C129.5 924.656 132.656 921.5 136.55 921.5Z" fill="#d5e8d4" fill-rule="nonzero" opacity="1" stroke="#82b366" stroke-linecap="butt" stroke-linejoin="miter" stroke-width="1"/>
<text fill="#000000" font-family="Helvetica" font-size="12.8" opacity="1" stroke="none" text-anchor="middle" transform="matrix(1 0 0 1 140.028 937)" x="0" y="0">
<tspan textLength="83.9438" x="43.4719" y="12">Service Injec...</tspan>
</text>
<path d="M404.5 910.5C349.833 925.833 302.89 923.173 263.67 902.52" fill="none" opacity="1" stroke="#000000" stroke-dasharray="3.0" stroke-linecap="butt" stroke-linejoin="miter" stroke-width="1"/>
<path d="M403.5 915.5C358.167 958.833 302.15 968.903 235.45 945.71" fill="none" opacity="1" stroke="#000000" stroke-dasharray="3.0" stroke-linecap="butt" stroke-linejoin="miter" stroke-width="1"/>
<path d="M970 1085.5L1034 1085.5C1036.49 1085.5 1038.5 1087.51 1038.5 1090L1038.5 1111C1038.5 1113.49 1036.49 1115.5 1034 1115.5L970 1115.5C967.515 1115.5 965.5 1113.49 965.5 1111L965.5 1090C965.5 1087.51 967.515 1085.5 970 1085.5Z" fill="#f8cecc" fill-rule="nonzero" opacity="1" stroke="#b85450" stroke-linecap="butt" stroke-linejoin="miter" stroke-width="1"/>
<text fill="#000000" font-family="Helvetica" font-size="12.8" opacity="1" stroke="none" text-anchor="middle" transform="matrix(1 0 0 1 976.734 1092)" x="0" y="0">
<tspan textLength="50.5313" x="26.7656" y="12">Eloquent</tspan>
</text>
<path d="M1140.55 1045.5L1278.45 1045.5C1282.34 1045.5 1285.5 1048.66 1285.5 1052.55L1285.5 1085.45C1285.5 1089.34 1282.34 1092.5 1278.45 1092.5L1140.55 1092.5C1136.66 1092.5 1133.5 1089.34 1133.5 1085.45L1133.5 1052.55C1133.5 1048.66 1136.66 1045.5 1140.55 1045.5Z" fill="#f8cecc" fill-rule="nonzero" opacity="1" stroke="#b85450" stroke-linecap="butt" stroke-linejoin="miter" stroke-width="1"/>
<text fill="#000000" font-family="Helvetica" font-size="12.8" opacity="1" stroke="none" text-anchor="middle" transform="matrix(1 0 0 1 1162.41 1061)" x="0" y="0">
<tspan textLength="93.175" x="48.0875" y="12">Model, CRUD,...</tspan>
</text>
<path d="M1140.55 1105.5L1328.45 1105.5C1332.34 1105.5 1335.5 1108.66 1335.5 1112.55L1335.5 1145.45C1335.5 1149.34 1332.34 1152.5 1328.45 1152.5L1140.55 1152.5C1136.66 1152.5 1133.5 1149.34 1133.5 1145.45L1133.5 1112.55C1133.5 1108.66 1136.66 1105.5 1140.55 1105.5Z" fill="#fff2cc" fill-rule="nonzero" opacity="1" stroke="#d6b656" stroke-linecap="butt" stroke-linejoin="miter" stroke-width="1"/>
<text fill="#000000" font-family="Helvetica" font-size="12.8" opacity="1" stroke="none" text-anchor="middle" transform="matrix(1 0 0 1 1157.52 1121)" x="0" y="0">
<tspan textLength="152.963" x="77.9813" y="12">Query scopes, n:n relatio...</tspan>
</text>
<path d="M1140.55 1166.5L1351.45 1166.5C1355.34 1166.5 1358.5 1169.66 1358.5 1173.55L1358.5 1206.45C1358.5 1210.34 1355.34 1213.5 1351.45 1213.5L1140.55 1213.5C1136.66 1213.5 1133.5 1210.34 1133.5 1206.45L1133.5 1173.55C1133.5 1169.66 1136.66 1166.5 1140.55 1166.5Z" fill="#d5e8d4" fill-rule="nonzero" opacity="1" stroke="#82b366" stroke-linecap="butt" stroke-linejoin="miter" stroke-width="1"/>
<text fill="#000000" font-family="Helvetica" font-size="12.8" opacity="1" stroke="none" text-anchor="middle" transform="matrix(1 0 0 1 1161.7 1182)" x="0" y="0">
<tspan textLength="168.606" x="85.8031" y="12">Polymorphic relation, queryi...</tspan>
</text>
<path d="M966.15 1101.99C930.383 1101.66 904.267 1085.55 887.8 1053.65" fill="none" opacity="1" stroke="#000000" stroke-dasharray="3.0" stroke-linecap="butt" stroke-linejoin="miter" stroke-width="1"/>
<path d="M1038.5 1101.5C1063.17 1076.17 1094.5 1063.5 1132.5 1063.5" fill="none" opacity="1" stroke="#000000" stroke-dasharray="3.0" stroke-linecap="butt" stroke-linejoin="miter" stroke-width="1"/>
<path d="M1038.22 1103C1063.74 1100 1095.36 1107.65 1133.08 1125.94" fill="none" opacity="1" stroke="#000000" stroke-dasharray="3.0" stroke-linecap="butt" stroke-linejoin="miter" stroke-width="1"/>
<path d="M1040.13 1107.27C1064.66 1152.09 1095.78 1180.16 1133.49 1191.49" fill="none" opacity="1" stroke="#000000" stroke-dasharray="3.0" stroke-linecap="butt" stroke-linejoin="miter" stroke-width="1"/>
<path d="M231 1006.5L329 1006.5C331.485 1006.5 333.5 1008.51 333.5 1011L333.5 1032C333.5 1034.49 331.485 1036.5 329 1036.5L231 1036.5C228.515 1036.5 226.5 1034.49 226.5 1032L226.5 1011C226.5 1008.51 228.515 1006.5 231 1006.5Z" fill="#fff2cc" fill-rule="nonzero" opacity="1" stroke="#d6b656" stroke-linecap="butt" stroke-linejoin="miter" stroke-width="1"/>
<text fill="#000000" font-family="Helvetica" font-size="12.8" opacity="1" stroke="none" text-anchor="middle" transform="matrix(1 0 0 1 238.75 1013)" x="0" y="0">
<tspan textLength="82.5" x="42.75" y="12">JS Framework</tspan>
</text>
<path d="M376.5 1006.5L486.5 1006.5C488.985 1006.5 491 1008.51 491 1011L491 1032C491 1034.49 488.985 1036.5 486.5 1036.5L376.5 1036.5C374.015 1036.5 372 1034.49 372 1032L372 1011C372 1008.51 374.015 1006.5 376.5 1006.5Z" fill="#fff2cc" fill-rule="nonzero" opacity="1" stroke="#d6b656" stroke-linecap="butt" stroke-linejoin="miter" stroke-width="1"/>
<text fill="#000000" font-family="Helvetica" font-size="12.8" opacity="1" stroke="none" text-anchor="middle" transform="matrix(1 0 0 1 381.553 1013)" x="0" y="0">
<tspan textLength="98.8938" x="50.9469" y="12">Compiling Asse...</tspan>
</text>
<path d="M281.38 1003.98C349.46 965.66 434.657 933.503 536.97 907.51" fill="none" opacity="1" stroke="#000000" stroke-dasharray="3.0" stroke-linecap="butt" stroke-linejoin="miter" stroke-width="1"/>
<path d="M432.18 1008.16C455.06 965.72 491.16 933.16 540.48 910.48" fill="none" opacity="1" stroke="#000000" stroke-dasharray="3.0" stroke-linecap="butt" stroke-linejoin="miter" stroke-width="1"/>
<path d="M721.5 3149.5C721.5 3143.42 726.425 3138.5 732.5 3138.5C738.575 3138.5 743.5 3143.42 743.5 3149.5C743.5 3155.58 738.575 3160.5 732.5 3160.5C726.425 3160.5 721.5 3155.58 721.5 3149.5Z" fill="#ffffff" fill-rule="nonzero" opacity="1" stroke="#000000" stroke-linecap="butt" stroke-linejoin="miter" stroke-width="1"/>
<path d="M725.14 3141.32C712.047 3126.77 706.833 3107.17 709.5 3082.5" fill="none" opacity="1" stroke="#000000" stroke-linecap="butt" stroke-linejoin="miter" stroke-width="1"/>
<path d="M833.5 3137.5C802.167 3130.83 772.167 3133.83 743.5 3146.5" fill="none" opacity="1" stroke="#000000" stroke-linecap="butt" stroke-linejoin="miter" stroke-width="1"/>
<path d="M837 3124.5L931 3124.5C933.485 3124.5 935.5 3126.51 935.5 3129L935.5 3150C935.5 3152.49 933.485 3154.5 931 3154.5L837 3154.5C834.515 3154.5 832.5 3152.49 832.5 3150L832.5 3129C832.5 3126.51 834.515 3124.5 837 3124.5Z" fill="#5a67d8" fill-rule="nonzero" opacity="1" stroke="#4c51bf" stroke-linecap="butt" stroke-linejoin="miter" stroke-width="1"/>
<text fill="#ffffff" font-family="Helvetica" font-size="12.8" opacity="1" stroke="none" text-anchor="middle" transform="matrix(1 0 0 1 849.853 3131)" x="0" y="0">
<tspan textLength="68.2938" x="35.6469" y="12">Architecture</tspan>
</text>
<path d="M279.55 1143.5L476.45 1143.5C478.687 1143.5 480.5 1145.31 480.5 1147.55L480.5 1166.45C480.5 1168.69 478.687 1170.5 476.45 1170.5L279.55 1170.5C277.313 1170.5 275.5 1168.69 275.5 1166.45L275.5 1147.55C275.5 1145.31 277.313 1143.5 279.55 1143.5Z" fill="#f8cecc" fill-rule="nonzero" opacity="1" stroke="#b85450" stroke-linecap="butt" stroke-linejoin="miter" stroke-width="1"/>
<text fill="#000000" font-family="Helvetica" font-size="12.8" opacity="1" stroke="none" text-anchor="middle" transform="matrix(1 0 0 1 302.222 1149)" x="0" y="0">
<tspan textLength="151.556" x="77.2781" y="12">Configure, basic logging,...</tspan>
</text>
<path d="M481.25 1157C489.417 1143.33 497.833 1134.33 506.5 1130C515.167 1125.67 530.663 1122.44 552.99 1120.32" fill="none" opacity="1" stroke="#000000" stroke-dasharray="3.0" stroke-linecap="butt" stroke-linejoin="miter" stroke-width="1"/>
<path d="M714 1270.25C714 1263.21 719.708 1257.5 726.75 1257.5C733.792 1257.5 739.5 1263.21 739.5 1270.25C739.5 1277.29 733.792 1283 726.75 1283C719.708 1283 714 1277.29 714 1270.25Z" fill="#3399ff" fill-rule="nonzero" opacity="1" stroke="none"/>
<path d="M720.37 1266.09C722.43 1265.37 724.69 1265.37 726.75 1266.09C728.81 1266.82 731.07 1266.82 733.13 1266.09L733.13 1271.8C731.07 1272.52 728.81 1272.52 726.75 1271.8C724.69 1271.07 722.43 1271.07 720.37 1271.8L720.37 1278.13L720.37 1266.09Z" fill="#ffffff" fill-rule="nonzero" opacity="1" stroke="#ffffff" stroke-linecap="butt" stroke-linejoin="miter" stroke-width="2"/>
<path d="M761.5 1675.25C761.5 1668.21 767.208 1662.5 774.25 1662.5C781.292 1662.5 787 1668.21 787 1675.25C787 1682.29 781.292 1688 774.25 1688C767.208 1688 761.5 1682.29 761.5 1675.25Z" fill="#3399ff" fill-rule="nonzero" opacity="1" stroke="none"/>
<path d="M767.87 1671.09C769.93 1670.37 772.19 1670.37 774.25 1671.09C776.31 1671.82 778.57 1671.82 780.63 1671.09L780.63 1676.8C778.57 1677.52 776.31 1677.52 774.25 1676.8C772.19 1676.07 769.93 1676.07 767.87 1676.8L767.87 1683.13L767.87 1671.09Z" fill="#ffffff" fill-rule="nonzero" opacity="1" stroke="#ffffff" stroke-linecap="butt" stroke-linejoin="miter" stroke-width="2"/>
<path d="M673.5 2141.25C673.5 2134.21 679.208 2128.5 686.25 2128.5C693.292 2128.5 699 2134.21 699 2141.25C699 2148.29 693.292 2154 686.25 2154C679.208 2154 673.5 2148.29 673.5 2141.25Z" fill="#3399ff" fill-rule="nonzero" opacity="1" stroke="none"/>
<path d="M679.87 2137.09C681.93 2136.37 684.19 2136.37 686.25 2137.09C688.31 2137.82 690.57 2137.82 692.63 2137.09L692.63 2142.8C690.57 2143.52 688.31 2143.52 686.25 2142.8C684.19 2142.07 681.93 2142.07 679.87 2142.8L679.87 2149.13L679.87 2137.09Z" fill="#ffffff" fill-rule="nonzero" opacity="1" stroke="#ffffff" stroke-linecap="butt" stroke-linejoin="miter" stroke-width="2"/>
<path d="M757.5 2390.25C757.5 2383.21 763.208 2377.5 770.25 2377.5C777.292 2377.5 783 2383.21 783 2390.25C783 2397.29 777.292 2403 770.25 2403C763.208 2403 757.5 2397.29 757.5 2390.25Z" fill="#3399ff" fill-rule="nonzero" opacity="1" stroke="none"/>
<path d="M763.87 2386.09C765.93 2385.37 768.19 2385.37 770.25 2386.09C772.31 2386.82 774.57 2386.82 776.63 2386.09L776.63 2391.8C774.57 2392.52 772.31 2392.52 770.25 2391.8C768.19 2391.07 765.93 2391.07 763.87 2391.8L763.87 2398.13L763.87 2386.09Z" fill="#ffffff" fill-rule="nonzero" opacity="1" stroke="#ffffff" stroke-linecap="butt" stroke-linejoin="miter" stroke-width="2"/>
<path d="M635.5 2635.25C635.5 2628.21 641.208 2622.5 648.25 2622.5C655.292 2622.5 661 2628.21 661 2635.25C661 2642.29 655.292 2648 648.25 2648C641.208 2648 635.5 2642.29 635.5 2635.25Z" fill="#3399ff" fill-rule="nonzero" opacity="1" stroke="none"/>
<path d="M641.87 2631.09C643.93 2630.37 646.19 2630.37 648.25 2631.09C650.31 2631.82 652.57 2631.82 654.63 2631.09L654.63 2636.8C652.57 2637.52 650.31 2637.52 648.25 2636.8C646.19 2636.07 643.93 2636.07 641.87 2636.8L641.87 2643.13L641.87 2631.09Z" fill="#ffffff" fill-rule="nonzero" opacity="1" stroke="#ffffff" stroke-linecap="butt" stroke-linejoin="miter" stroke-width="2"/>
<path d="M1110.56 1226.5L1294.46 1226.5C1298.35 1226.5 1301.51 1229.66 1301.51 1233.55L1301.51 1266.45C1301.51 1270.34 1298.35 1273.5 1294.46 1273.5L1110.56 1273.5C1106.67 1273.5 1103.51 1270.34 1103.51 1266.45L1103.51 1233.55C1103.51 1229.66 1106.67 1226.5 1110.56 1226.5Z" fill="#f8cecc" fill-rule="nonzero" opacity="1" stroke="#b85450" stroke-linecap="butt" stroke-linejoin="miter" stroke-width="1"/>
<text fill="#000000" font-family="Helvetica" font-size="12.8" opacity="1" stroke="none" text-anchor="middle" transform="matrix(1 0 0 1 1129.91 1242)" x="0" y="0">
<tspan textLength="144.181" x="73.5906" y="12">Using Exception in try......</tspan>
</text>
<path d="M950.46 1198.48C981.82 1198.49 1032.93 1215.23 1103.8 1248.7" fill="none" opacity="1" stroke="#000000" stroke-dasharray="3.0" stroke-linecap="butt" stroke-linejoin="miter" stroke-width="1"/>
<path d="M1091.55 1283L1289.45 1283C1293.34 1283 1296.5 1286.16 1296.5 1290.05L1296.5 1322.95C1296.5 1326.84 1293.34 1330 1289.45 1330L1091.55 1330C1087.66 1330 1084.5 1326.84 1084.5 1322.95L1084.5 1290.05C1084.5 1286.16 1087.66 1283 1091.55 1283Z" fill="#fff2cc" fill-rule="nonzero" opacity="1" stroke="#d6b656" stroke-linecap="butt" stroke-linejoin="miter" stroke-width="1"/>
<text fill="#000000" font-family="Helvetica" font-size="12.8" opacity="1" stroke="none" text-anchor="middle" transform="matrix(1 0 0 1 1102.14 1298)" x="0" y="0">
<tspan textLength="175.725" x="89.3625" y="12">Customizing Renderable &amp; R...</tspan>
</text>
<path d="M1079.05 1340.5L1280.95 1340.5C1284.84 1340.5 1288 1343.66 1288 1347.55L1288 1380.45C1288 1384.34 1284.84 1387.5 1280.95 1387.5L1079.05 1387.5C1075.16 1387.5 1072 1384.34 1072 1380.45L1072 1347.55C1072 1343.66 1075.16 1340.5 1079.05 1340.5Z" fill="#d5e8d4" fill-rule="nonzero" opacity="1" stroke="#82b366" stroke-linecap="butt" stroke-linejoin="miter" stroke-width="1"/>
<text fill="#000000" font-family="Helvetica" font-size="12.8" opacity="1" stroke="none" text-anchor="middle" transform="matrix(1 0 0 1 1104.6 1356)" x="0" y="0">
<tspan textLength="150.8" x="76.9" y="12">Third party error tracking...</tspan>
</text>
<path d="M951.44 1203.28C958.147 1252.76 966.333 1289.17 976 1312.5C985.667 1335.83 1017.63 1354.63 1071.89 1368.88" fill="none" opacity="1" stroke="#000000" stroke-dasharray="3.0" stroke-linecap="butt" stroke-linejoin="miter" stroke-width="1"/>
<path d="M950.46 1199.68C995.153 1241.56 1039.59 1276.56 1083.78 1304.68" fill="none" opacity="1" stroke="#000000" stroke-dasharray="3.0" stroke-linecap="butt" stroke-linejoin="miter" stroke-width="1"/>
<path d="M717.28 3063.72C736.093 3048.24 743.833 3027.83 740.5 3002.5" fill="none" opacity="1" stroke="#000000" stroke-linecap="butt" stroke-linejoin="miter" stroke-width="1"/>
<path d="M736.83 2981.07C730.61 2957.36 736.64 2937.36 754.92 2921.07" fill="none" opacity="1" stroke="#000000" stroke-linecap="butt" stroke-linejoin="miter" stroke-width="1"/>
<path d="M767.28 2903.72C776.76 2878.91 772.76 2857.09 755.28 2838.28" fill="none" opacity="1" stroke="#000000" stroke-linecap="butt" stroke-linejoin="miter" stroke-width="1"/>
<path d="M739.72 2822.72C721.573 2805.91 708.5 2785.83 700.5 2762.5" fill="none" opacity="1" stroke="#000000" stroke-linecap="butt" stroke-linejoin="miter" stroke-width="1"/>
<path d="M664 432.5C638.333 415.833 608.833 410 575.5 415" fill="none" opacity="1" stroke="#000000" stroke-dasharray="3.0" stroke-linecap="butt" stroke-linejoin="miter" stroke-width="1"/>
<path d="M664 432.5C631.667 422.5 602.167 421 575.5 428" fill="none" opacity="1" stroke="#000000" stroke-dasharray="3.0" stroke-linecap="butt" stroke-linejoin="miter" stroke-width="1"/>
<text fill="#000000" font-family="Verdana" font-size="6.4" opacity="1" stroke="none" text-anchor="end" transform="matrix(1 0 0 1 493.869 422)" x="0" y="0">
<tspan textLength="82.1313" x="85.1313" y="6">Database Schema Design</tspan>
</text>
<text fill="#000000" font-family="Verdana" font-size="6.4" opacity="1" stroke="none" text-anchor="end" transform="matrix(1 0 0 1 517.544 409)" x="0" y="0">
<tspan textLength="55.4563" x="58.4563" y="6">Basic SQL syntax</tspan>
</text>
<path d="M971 962.5L1049 962.5C1051.49 962.5 1053.5 964.515 1053.5 967L1053.5 988C1053.5 990.485 1051.49 992.5 1049 992.5L971 992.5C968.515 992.5 966.5 990.485 966.5 988L966.5 967C966.5 964.515 968.515 962.5 971 962.5Z" fill="#f8cecc" fill-rule="nonzero" opacity="1" stroke="#b85450" stroke-linecap="butt" stroke-linejoin="miter" stroke-width="1"/>
<text fill="#000000" font-family="Helvetica" font-size="12.8" opacity="1" stroke="none" text-anchor="middle" transform="matrix(1 0 0 1 982.603 969)" x="0" y="0">
<tspan textLength="54.7938" x="28.8969" y="12">Database</tspan>
</text>
<path d="M1176.55 924.5L1313.45 924.5C1315.69 924.5 1317.5 926.313 1317.5 928.55L1317.5 947.45C1317.5 949.687 1315.69 951.5 1313.45 951.5L1176.55 951.5C1174.31 951.5 1172.5 949.687 1172.5 947.45L1172.5 928.55C1172.5 926.313 1174.31 924.5 1176.55 924.5Z" fill="#f8cecc" fill-rule="nonzero" opacity="1" stroke="#b85450" stroke-linecap="butt" stroke-linejoin="miter" stroke-width="1"/>
<text fill="#000000" font-family="Helvetica" font-size="12.8" opacity="1" stroke="none" text-anchor="middle" transform="matrix(1 0 0 1 1183.47 930)" x="0" y="0">
<tspan textLength="123.063" x="63.0313" y="12">Migrations, Raw Qu...</tspan>
</text>
<path d="M1171.55 962.5L1357.45 962.5C1359.69 962.5 1361.5 964.313 1361.5 966.55L1361.5 985.45C1361.5 987.687 1359.69 989.5 1357.45 989.5L1171.55 989.5C1169.31 989.5 1167.5 987.687 1167.5 985.45L1167.5 966.55C1167.5 964.313 1169.31 962.5 1171.55 962.5Z" fill="#fff2cc" fill-rule="nonzero" opacity="1" stroke="#d6b656" stroke-linecap="butt" stroke-linejoin="miter" stroke-width="1"/>
<text fill="#000000" font-family="Helvetica" font-size="12.8" opacity="1" stroke="none" text-anchor="middle" transform="matrix(1 0 0 1 1187.87 968)" x="0" y="0">
<tspan textLength="152.263" x="77.6313" y="12">Seeding, Factories, Quer...</tspan>
</text>
<path d="M1053.47 977.16C1085.49 952.72 1125.05 940.597 1172.14 940.79" fill="none" opacity="1" stroke="#000000" stroke-dasharray="3.0" stroke-linecap="butt" stroke-linejoin="miter" stroke-width="1"/>
<path d="M1053.47 978.84C1058.16 994.613 1096.49 995.167 1168.46 980.5" fill="none" opacity="1" stroke="#000000" stroke-dasharray="3.0" stroke-linecap="butt" stroke-linejoin="miter" stroke-width="1"/>
<path d="M704.56 133.5C695.853 96.1667 691.543 59.5 691.63 23.5" fill="none" opacity="1" stroke="#000000" stroke-linecap="butt" stroke-linejoin="miter" stroke-width="1"/>
<path d="M965.48 980.52C922.16 1018.51 897.173 1042.84 890.52 1053.51" fill="none" opacity="1" stroke="#000000" stroke-dasharray="3.0" stroke-linecap="butt" stroke-linejoin="miter" stroke-width="1"/>
<path d="M701.54 595.51C699.513 576.837 698.5 558.167 698.5 539.5" fill="none" opacity="1" stroke="#000000" stroke-linecap="butt" stroke-linejoin="miter" stroke-width="1"/>
<path d="M701.5 675.5C707.5 663.5 709.5 646.83 707.5 625.49" fill="none" opacity="1" stroke="#000000" stroke-linecap="butt" stroke-linejoin="miter" stroke-width="1"/>
<path d="M711.5 737.5C710.833 728.833 707.5 715.5 701.5 697.5" fill="none" opacity="1" stroke="#000000" stroke-linecap="butt" stroke-linejoin="miter" stroke-width="1"/>
<path d="M717.5 807.5C712.833 794.167 711.167 778.167 712.5 759.5" fill="none" opacity="1" stroke="#000000" stroke-linecap="butt" stroke-linejoin="miter" stroke-width="1"/>
<path d="M709.28 888.72C722.76 874.573 726.5 854.833 720.5 829.5" fill="none" opacity="1" stroke="#000000" stroke-linecap="butt" stroke-linejoin="miter" stroke-width="1"/>
<path d="M715.72 1000.72C692.24 975.24 687.5 944.167 701.5 907.5" fill="none" opacity="1" stroke="#000000" stroke-linecap="butt" stroke-linejoin="miter" stroke-width="1"/>
<path d="M732.28 1100.72C744.427 1078.57 742.093 1051.43 725.28 1019.28" fill="none" opacity="1" stroke="#000000" stroke-linecap="butt" stroke-linejoin="miter" stroke-width="1"/>
<path d="M710.5 1197.5C705.833 1182.17 710.5 1156.17 724.5 1119.5" fill="none" opacity="1" stroke="#000000" stroke-linecap="butt" stroke-linejoin="miter" stroke-width="1"/>
<path d="M726.75 1257.5C729.25 1244.17 726.833 1230.83 719.5 1217.5" fill="none" opacity="1" stroke="#000000" stroke-linecap="butt" stroke-linejoin="miter" stroke-width="1"/>
<path d="M749.75 1323C734.25 1310 726.583 1296.67 726.75 1283" fill="none" opacity="1" stroke="#000000" stroke-linecap="butt" stroke-linejoin="miter" stroke-width="1"/>
<path d="M764.7 1398.11C767.233 1375.7 764.833 1357.83 757.5 1344.5" fill="none" opacity="1" stroke="#000000" stroke-linecap="butt" stroke-linejoin="miter" stroke-width="1"/>
<path d="M726.28 1479.72C742.427 1464.91 753.25 1444.5 758.75 1418.5" fill="none" opacity="1" stroke="#000000" stroke-linecap="butt" stroke-linejoin="miter" stroke-width="1"/>
<path d="M717.78 1545.27C726.26 1526.76 727.687 1510.72 722.06 1497.16" fill="none" opacity="1" stroke="#000000" stroke-linecap="butt" stroke-linejoin="miter" stroke-width="1"/>
<path d="M735.72 1625.72C722.24 1606.91 715.5 1587.17 715.5 1566.5" fill="none" opacity="1" stroke="#000000" stroke-linecap="butt" stroke-linejoin="miter" stroke-width="1"/>
<path d="M771.83 1662.5C767.61 1659.17 760.76 1652.09 751.28 1641.28" fill="none" opacity="1" stroke="#000000" stroke-linecap="butt" stroke-linejoin="miter" stroke-width="1"/>
<path d="M788.5 1702.5C788.5 1702.5 786.757 1696.42 783.27 1684.27" fill="none" opacity="1" stroke="#000000" stroke-linecap="butt" stroke-linejoin="miter" stroke-width="1"/>
<path d="M765.28 1773.72C788.093 1762.91 796.833 1746.5 791.5 1724.5" fill="none" opacity="1" stroke="#000000" stroke-linecap="butt" stroke-linejoin="miter" stroke-width="1"/>
<path d="M785.72 1853.72C766.24 1836.24 756.833 1815.83 757.5 1792.5" fill="none" opacity="1" stroke="#000000" stroke-linecap="butt" stroke-linejoin="miter" stroke-width="1"/>
<path d="M785.28 1925.72C798.907 1912.24 803.247 1894.5 798.3 1872.5" fill="none" opacity="1" stroke="#000000" stroke-linecap="butt" stroke-linejoin="miter" stroke-width="1"/>
<path d="M742.31 1992.9C747.77 1975.97 757.373 1959.27 771.12 1942.81" fill="none" opacity="1" stroke="#000000" stroke-linecap="butt" stroke-linejoin="miter" stroke-width="1"/>
<path d="M711.28 2073.72C733.053 2056.24 742.84 2036.12 740.64 2013.36" fill="none" opacity="1" stroke="#000000" stroke-linecap="butt" stroke-linejoin="miter" stroke-width="1"/>
<path d="M683.5 2130.5C683.5 2120.5 687.573 2106.76 695.72 2089.28" fill="none" opacity="1" stroke="#000000" stroke-linecap="butt" stroke-linejoin="miter" stroke-width="1"/>
<path d="M695.51 2201.7C684.837 2191.57 680.467 2175.61 682.4 2153.82" fill="none" opacity="1" stroke="#000000" stroke-linecap="butt" stroke-linejoin="miter" stroke-width="1"/>
<path d="M722.5 2253.5C722.5 2242.83 717.76 2231.09 708.28 2218.28" fill="none" opacity="1" stroke="#000000" stroke-linecap="butt" stroke-linejoin="miter" stroke-width="1"/>
<path d="M745.72 2323.72C726.9 2313.36 718.493 2297.29 720.5 2275.5" fill="none" opacity="1" stroke="#000000" stroke-linecap="butt" stroke-linejoin="miter" stroke-width="1"/>
<path d="M775.5 2381.5C775.5 2363.5 771.1 2348.63 762.3 2336.89" fill="none" opacity="1" stroke="#000000" stroke-linecap="butt" stroke-linejoin="miter" stroke-width="1"/>
<path d="M751.28 2445.72C760.76 2434.91 768.323 2420.79 773.97 2403.36" fill="none" opacity="1" stroke="#000000" stroke-linecap="butt" stroke-linejoin="miter" stroke-width="1"/>
<path d="M708.28 2515.72C715.76 2497.57 726.23 2480.12 739.69 2463.36" fill="none" opacity="1" stroke="#000000" stroke-linecap="butt" stroke-linejoin="miter" stroke-width="1"/>
<path d="M673.09 2577.69C688.843 2564.99 699.14 2550.53 703.98 2534.3" fill="none" opacity="1" stroke="#000000" stroke-linecap="butt" stroke-linejoin="miter" stroke-width="1"/>
<path d="M648.25 2622.5C648.417 2610.5 651.5 2599.83 657.5 2590.5" fill="none" opacity="1" stroke="#000000" stroke-linecap="butt" stroke-linejoin="miter" stroke-width="1"/>
<path d="M663.5 2669.5C659.5 2665.5 655.727 2658.05 652.18 2647.16" fill="none" opacity="1" stroke="#000000" stroke-linecap="butt" stroke-linejoin="miter" stroke-width="1"/>
<path d="M702.83 2740.5C702.61 2717.17 694.17 2698.83 677.51 2685.49" fill="none" opacity="1" stroke="#000000" stroke-linecap="butt" stroke-linejoin="miter" stroke-width="1"/>
<path d="M616.4 1334.28C585.8 1303.09 551.913 1287.64 514.74 1287.92" fill="none" opacity="1" stroke="#000000" stroke-dasharray="3.0" stroke-linecap="butt" stroke-linejoin="miter" stroke-width="1"/>
<path d="M357 1273.5L508 1273.5C510.485 1273.5 512.5 1275.51 512.5 1278L512.5 1299C512.5 1301.49 510.485 1303.5 508 1303.5L357 1303.5C354.515 1303.5 352.5 1301.49 352.5 1299L352.5 1278C352.5 1275.51 354.515 1273.5 357 1273.5Z" fill="#f8cecc" fill-rule="nonzero" opacity="1" stroke="#b85450" stroke-linecap="butt" stroke-linejoin="miter" stroke-width="1"/>
<text fill="#000000" font-family="Helvetica" font-size="12.8" opacity="1" stroke="none" text-anchor="middle" transform="matrix(1 0 0 1 368.675 1280)" x="0" y="0">
<tspan textLength="126.65" x="64.825" y="12">Retrieve input &amp; que...</tspan>
</text>
<path d="M575.73 1352.24C558.243 1341.08 533.833 1339.5 502.5 1347.5" fill="none" opacity="1" stroke="#000000" stroke-dasharray="3.0" stroke-linecap="butt" stroke-linejoin="miter" stroke-width="1"/>
<path d="M296 1325L511 1325C515.142 1325 518.5 1328.36 518.5 1332.5L518.5 1367.5C518.5 1371.64 515.142 1375 511 1375L296 1375C291.858 1375 288.5 1371.64 288.5 1367.5L288.5 1332.5C288.5 1328.36 291.858 1325 296 1325Z" fill="#fff2cc" fill-rule="nonzero" opacity="1" stroke="#d6b656" stroke-linecap="butt" stroke-linejoin="miter" stroke-width="1"/>
<text fill="#000000" font-family="Helvetica" font-size="12.8" opacity="1" stroke="none" text-anchor="middle" transform="matrix(1 0 0 1 318.347 1342)" x="0" y="0">
<tspan textLength="169.306" x="86.1531" y="12">Retrieve &amp; store File, use re...</tspan>
</text>
</g>
<text fill="#000000" font-family="Helvetica" font-size="8" opacity="1" stroke="none" text-anchor="middle" transform="matrix(1 0 0 1 -6.19336 87.5)" x="0" y="0">
<tspan textLength="113.387" x="58.1934" y="8">Text is not SVG - cannot display</tspan>
</text>
</g>
</svg>
