<?xml version="1.0" encoding="UTF-8" standalone="no"?>
<!DOCTYPE svg PUBLIC "-//W3C//DTD SVG 1.1//EN" "http://www.w3.org/Graphics/SVG/1.1/DTD/svg11.dtd">
<!-- Created with Vectornator (http://vectornator.io/) -->
<svg height="1359.0px" stroke-miterlimit="10" style="fill-rule:nonzero;clip-rule:evenodd;stroke-linecap:round;stroke-linejoin:round;" version="1.1" viewBox="0 0 741 1359" width="741.0px" xml:space="preserve" xmlns="http://www.w3.org/2000/svg" xmlns:xlink="http://www.w3.org/1999/xlink">
<defs/>
<g id="Untitled">
<g opacity="1">
<text fill="#000000" font-family="Helvetica" font-size="19.2" opacity="1" stroke="none" text-anchor="middle" transform="matrix(1 0 0 1 256.683 108)" x="0" y="0">
<tspan textLength="152.634" x="77.8172" y="19">Machine Learning</tspan>
</text>
<path d="M330.5 0.5C357.167 13.8333 360.5 28.8333 340.5 45.5C320.5 62.1667 318.167 77.1667 333.5 90.5" fill="none" opacity="1" stroke="#1f6286" stroke-dasharray="3.0" stroke-linecap="butt" stroke-linejoin="miter" stroke-width="1"/>
<path d="M333.5 150.5C333.5 170.5 317.167 180.5 284.5 180.5C251.833 180.5 235.5 187.167 235.5 200.5" fill="none" opacity="1" stroke="#1f6286" stroke-linecap="butt" stroke-linejoin="miter" stroke-width="1"/>
<path d="M156.5 200.5L314.5 200.5C317.814 200.5 320.5 203.186 320.5 206.5L320.5 234.5C320.5 237.814 317.814 240.5 314.5 240.5L156.5 240.5C153.186 240.5 150.5 237.814 150.5 234.5L150.5 206.5C150.5 203.186 153.186 200.5 156.5 200.5Z" fill="#1f6286" fill-rule="nonzero" opacity="1" stroke="#000000" stroke-linecap="butt" stroke-linejoin="miter" stroke-width="1"/>
<text fill="#ffffff" font-family="Helvetica" font-size="9.6" opacity="1" stroke="none" text-anchor="middle" transform="matrix(1 0 0 1 173.097 215)" x="0" y="0">
<tspan textLength="123.806" x="63.4031" y="9">Concepts, Inputs &amp; Attributes</tspan>
</text>
<text fill="#ffffff" font-family="Helvetica" font-size="12.8" opacity="1" stroke="none" text-anchor="middle" transform="matrix(1 0 0 1 155.231 175)" x="0" y="0">
<tspan textLength="45.5375" x="24.2688" y="12">General</tspan>
</text>
<path d="M320.5 220.5C333.833 220.5 340.5 216.333 340.5 208C340.5 199.667 347.167 195.5 360.5 195.5" fill="none" opacity="1" stroke="#1f6286" stroke-dasharray="1.0,2.0,1.0,2.0" stroke-linecap="butt" stroke-linejoin="miter" stroke-width="1"/>
<path d="M360.5 185.5L570.5 185.5L570.5 185.5L570.5 205.5L570.5 205.5L360.5 205.5L360.5 205.5L360.5 185.5L360.5 185.5Z" fill="#878787" fill-rule="nonzero" opacity="1" stroke="#000000" stroke-linecap="butt" stroke-linejoin="miter" stroke-width="1"/>
<text fill="#ffffff" font-family="Helvetica" font-size="8.8" opacity="1" stroke="none" text-anchor="middle" transform="matrix(1 0 0 1 423.503 189)" x="0" y="0">
<tspan textLength="82.9941" x="42.9971" y="9">Categorical Variables</tspan>
</text>
<path d="M360.5 220.5C360.5 220.5 347.167 220.5 320.5 220.5" fill="none" opacity="1" stroke="#1f6286" stroke-dasharray="1.0,2.0,1.0,2.0" stroke-linecap="butt" stroke-linejoin="miter" stroke-width="1"/>
<path d="M360.5 210.5L570.5 210.5L570.5 210.5L570.5 230.5L570.5 230.5L360.5 230.5L360.5 230.5L360.5 210.5L360.5 210.5Z" fill="#878787" fill-rule="nonzero" opacity="1" stroke="#000000" stroke-linecap="butt" stroke-linejoin="miter" stroke-width="1"/>
<text fill="#ffffff" font-family="Helvetica" font-size="8.8" opacity="1" stroke="none" text-anchor="middle" transform="matrix(1 0 0 1 431.575 214)" x="0" y="0">
<tspan textLength="66.8508" x="34.9254" y="9">Ordinal Variables</tspan>
</text>
<path d="M360.5 245.5C347.167 245.5 340.5 241.333 340.5 233C340.5 224.667 333.833 220.5 320.5 220.5" fill="none" opacity="1" stroke="#1f6286" stroke-dasharray="1.0,2.0,1.0,2.0" stroke-linecap="butt" stroke-linejoin="miter" stroke-width="1"/>
<path d="M360.5 235.5L570.5 235.5L570.5 235.5L570.5 255.5L570.5 255.5L360.5 255.5L360.5 255.5L360.5 235.5L360.5 235.5Z" fill="#878787" fill-rule="nonzero" opacity="1" stroke="#000000" stroke-linecap="butt" stroke-linejoin="miter" stroke-width="1"/>
<text fill="#ffffff" font-family="Helvetica" font-size="8.8" opacity="1" stroke="none" text-anchor="middle" transform="matrix(1 0 0 1 425.954 239)" x="0" y="0">
<tspan textLength="78.0914" x="40.5457" y="9">Numerical Variables</tspan>
</text>
<path d="M158.5 253.5L316.5 253.5C319.814 253.5 322.5 256.186 322.5 259.5L322.5 287.5C322.5 290.814 319.814 293.5 316.5 293.5L158.5 293.5C155.186 293.5 152.5 290.814 152.5 287.5L152.5 259.5C152.5 256.186 155.186 253.5 158.5 253.5Z" fill="#000000" fill-rule="nonzero" opacity="0.25" stroke="#000000" stroke-linecap="butt" stroke-linejoin="miter" stroke-width="1"/>
<path d="M156.5 250.5L314.5 250.5C317.814 250.5 320.5 253.186 320.5 256.5L320.5 284.5C320.5 287.814 317.814 290.5 314.5 290.5L156.5 290.5C153.186 290.5 150.5 287.814 150.5 284.5L150.5 256.5C150.5 253.186 153.186 250.5 156.5 250.5Z" fill="#1f6286" fill-rule="nonzero" opacity="1" stroke="#000000" stroke-linecap="butt" stroke-linejoin="miter" stroke-width="1"/>
<text fill="#ffffff" font-family="Helvetica" font-size="9.6" opacity="1" stroke="none" text-anchor="middle" transform="matrix(1 0 0 1 191.242 265)" x="0" y="0">
<tspan textLength="87.5156" x="45.2578" y="9">Cost functions and...</tspan>
</text>
<path d="M158.5 303.5L316.5 303.5C319.814 303.5 322.5 306.186 322.5 309.5L322.5 337.5C322.5 340.814 319.814 343.5 316.5 343.5L158.5 343.5C155.186 343.5 152.5 340.814 152.5 337.5L152.5 309.5C152.5 306.186 155.186 303.5 158.5 303.5Z" fill="#000000" fill-rule="nonzero" opacity="0.25" stroke="#000000" stroke-linecap="butt" stroke-linejoin="miter" stroke-width="1"/>
<path d="M156.5 300.5L314.5 300.5C317.814 300.5 320.5 303.186 320.5 306.5L320.5 334.5C320.5 337.814 317.814 340.5 314.5 340.5L156.5 340.5C153.186 340.5 150.5 337.814 150.5 334.5L150.5 306.5C150.5 303.186 153.186 300.5 156.5 300.5Z" fill="#1f6286" fill-rule="nonzero" opacity="1" stroke="#000000" stroke-linecap="butt" stroke-linejoin="miter" stroke-width="1"/>
<text fill="#ffffff" font-family="Helvetica" font-size="9.6" opacity="1" stroke="none" text-anchor="middle" transform="matrix(1 0 0 1 184.579 315)" x="0" y="0">
<tspan textLength="100.842" x="51.9211" y="9">Overfitting / Underfitting</tspan>
</text>
<path d="M158.5 353.5L316.5 353.5C319.814 353.5 322.5 356.186 322.5 359.5L322.5 387.5C322.5 390.814 319.814 393.5 316.5 393.5L158.5 393.5C155.186 393.5 152.5 390.814 152.5 387.5L152.5 359.5C152.5 356.186 155.186 353.5 158.5 353.5Z" fill="#000000" fill-rule="nonzero" opacity="0.25" stroke="#000000" stroke-linecap="butt" stroke-linejoin="miter" stroke-width="1"/>
<path d="M156.5 350.5L314.5 350.5C317.814 350.5 320.5 353.186 320.5 356.5L320.5 384.5C320.5 387.814 317.814 390.5 314.5 390.5L156.5 390.5C153.186 390.5 150.5 387.814 150.5 384.5L150.5 356.5C150.5 353.186 153.186 350.5 156.5 350.5Z" fill="#1f6286" fill-rule="nonzero" opacity="1" stroke="#000000" stroke-linecap="butt" stroke-linejoin="miter" stroke-width="1"/>
<text fill="#ffffff" font-family="Helvetica" font-size="9.6" opacity="1" stroke="none" text-anchor="middle" transform="matrix(1 0 0 1 190.886 365)" x="0" y="0">
<tspan textLength="88.2281" x="45.6141" y="9">Training, validation...</tspan>
</text>
<path d="M158.5 403.5L316.5 403.5C319.814 403.5 322.5 406.186 322.5 409.5L322.5 437.5C322.5 440.814 319.814 443.5 316.5 443.5L158.5 443.5C155.186 443.5 152.5 440.814 152.5 437.5L152.5 409.5C152.5 406.186 155.186 403.5 158.5 403.5Z" fill="#000000" fill-rule="nonzero" opacity="0.25" stroke="#000000" stroke-linecap="butt" stroke-linejoin="miter" stroke-width="1"/>
<path d="M156.5 400.5L314.5 400.5C317.814 400.5 320.5 403.186 320.5 406.5L320.5 434.5C320.5 437.814 317.814 440.5 314.5 440.5L156.5 440.5C153.186 440.5 150.5 437.814 150.5 434.5L150.5 406.5C150.5 403.186 153.186 400.5 156.5 400.5Z" fill="#1f6286" fill-rule="nonzero" opacity="1" stroke="#000000" stroke-linecap="butt" stroke-linejoin="miter" stroke-width="1"/>
<text fill="#ffffff" font-family="Helvetica" font-size="9.6" opacity="1" stroke="none" text-anchor="middle" transform="matrix(1 0 0 1 194.453 415)" x="0" y="0">
<tspan textLength="81.0938" x="42.0469" y="9">Precision vs Recall</tspan>
</text>
<path d="M158.5 453.5L316.5 453.5C319.814 453.5 322.5 456.186 322.5 459.5L322.5 487.5C322.5 490.814 319.814 493.5 316.5 493.5L158.5 493.5C155.186 493.5 152.5 490.814 152.5 487.5L152.5 459.5C152.5 456.186 155.186 453.5 158.5 453.5Z" fill="#000000" fill-rule="nonzero" opacity="0.25" stroke="#000000" stroke-linecap="butt" stroke-linejoin="miter" stroke-width="1"/>
<path d="M156.5 450.5L314.5 450.5C317.814 450.5 320.5 453.186 320.5 456.5L320.5 484.5C320.5 487.814 317.814 490.5 314.5 490.5L156.5 490.5C153.186 490.5 150.5 487.814 150.5 484.5L150.5 456.5C150.5 453.186 153.186 450.5 156.5 450.5Z" fill="#1f6286" fill-rule="nonzero" opacity="1" stroke="#000000" stroke-linecap="butt" stroke-linejoin="miter" stroke-width="1"/>
<text fill="#ffffff" font-family="Helvetica" font-size="9.6" opacity="1" stroke="none" text-anchor="middle" transform="matrix(1 0 0 1 201.203 465)" x="0" y="0">
<tspan textLength="67.5938" x="35.2969" y="9">Bias &amp; Variance</tspan>
</text>
<path d="M158.5 503.5L316.5 503.5C319.814 503.5 322.5 506.186 322.5 509.5L322.5 537.5C322.5 540.814 319.814 543.5 316.5 543.5L158.5 543.5C155.186 543.5 152.5 540.814 152.5 537.5L152.5 509.5C152.5 506.186 155.186 503.5 158.5 503.5Z" fill="#000000" fill-rule="nonzero" opacity="0.25" stroke="#000000" stroke-linecap="butt" stroke-linejoin="miter" stroke-width="1"/>
<path d="M156.5 500.5L314.5 500.5C317.814 500.5 320.5 503.186 320.5 506.5L320.5 534.5C320.5 537.814 317.814 540.5 314.5 540.5L156.5 540.5C153.186 540.5 150.5 537.814 150.5 534.5L150.5 506.5C150.5 503.186 153.186 500.5 156.5 500.5Z" fill="#1f6286" fill-rule="nonzero" opacity="1" stroke="#000000" stroke-linecap="butt" stroke-linejoin="miter" stroke-width="1"/>
<text fill="#ffffff" font-family="Helvetica" font-size="9.6" opacity="1" stroke="none" text-anchor="middle" transform="matrix(1 0 0 1 228.597 515)" x="0" y="0">
<tspan textLength="12.8063" x="7.90313" y="9">Lift</tspan>
</text>
<path d="M235.5 540.5C235.5 560.5 257.167 570.5 300.5 570.5C343.833 570.5 365.5 580.5 365.5 600.5" fill="none" opacity="1" stroke="#1f6286" stroke-linecap="butt" stroke-linejoin="miter" stroke-width="1"/>
<path d="M288.5 603.5L446.5 603.5C449.814 603.5 452.5 606.186 452.5 609.5L452.5 637.5C452.5 640.814 449.814 643.5 446.5 643.5L288.5 643.5C285.186 643.5 282.5 640.814 282.5 637.5L282.5 609.5C282.5 606.186 285.186 603.5 288.5 603.5Z" fill="#000000" fill-rule="nonzero" opacity="0.25" stroke="#000000" stroke-linecap="butt" stroke-linejoin="miter" stroke-width="1"/>
<path d="M286.5 600.5L444.5 600.5C447.814 600.5 450.5 603.186 450.5 606.5L450.5 634.5C450.5 637.814 447.814 640.5 444.5 640.5L286.5 640.5C283.186 640.5 280.5 637.814 280.5 634.5L280.5 606.5C280.5 603.186 283.186 600.5 286.5 600.5Z" fill="#1f6286" fill-rule="nonzero" opacity="1" stroke="#000000" stroke-linecap="butt" stroke-linejoin="miter" stroke-width="1"/>
<text fill="#ffffff" font-family="Helvetica" font-size="9.6" opacity="1" stroke="none" text-anchor="middle" transform="matrix(1 0 0 1 320.97 615)" x="0" y="0">
<tspan textLength="88.0594" x="45.5297" y="9">Supervised Learning</tspan>
</text>
<text fill="#ffffff" font-family="Helvetica" font-size="12.8" opacity="1" stroke="none" text-anchor="middle" transform="matrix(1 0 0 1 385.453 574)" x="0" y="0">
<tspan textLength="49.0938" x="26.0469" y="12">Methods</tspan>
</text>
<path d="M288.5 653.5L446.5 653.5C449.814 653.5 452.5 656.186 452.5 659.5L452.5 687.5C452.5 690.814 449.814 693.5 446.5 693.5L288.5 693.5C285.186 693.5 282.5 690.814 282.5 687.5L282.5 659.5C282.5 656.186 285.186 653.5 288.5 653.5Z" fill="#000000" fill-rule="nonzero" opacity="0.25" stroke="#000000" stroke-linecap="butt" stroke-linejoin="miter" stroke-width="1"/>
<path d="M286.5 650.5L444.5 650.5C447.814 650.5 450.5 653.186 450.5 656.5L450.5 684.5C450.5 687.814 447.814 690.5 444.5 690.5L286.5 690.5C283.186 690.5 280.5 687.814 280.5 684.5L280.5 656.5C280.5 653.186 283.186 650.5 286.5 650.5Z" fill="#1f6286" fill-rule="nonzero" opacity="1" stroke="#000000" stroke-linecap="butt" stroke-linejoin="miter" stroke-width="1"/>
<text fill="#ffffff" font-family="Helvetica" font-size="9.6" opacity="1" stroke="none" text-anchor="middle" transform="matrix(1 0 0 1 315.636 665)" x="0" y="0">
<tspan textLength="98.7281" x="50.8641" y="9">Unsupervised Learning</tspan>
</text>
<path d="M286.5 700.5L444.5 700.5C447.814 700.5 450.5 703.186 450.5 706.5L450.5 734.5C450.5 737.814 447.814 740.5 444.5 740.5L286.5 740.5C283.186 740.5 280.5 737.814 280.5 734.5L280.5 706.5C280.5 703.186 283.186 700.5 286.5 700.5Z" fill="#1f6286" fill-rule="nonzero" opacity="1" stroke="#000000" stroke-linecap="butt" stroke-linejoin="miter" stroke-width="1"/>
<text fill="#ffffff" font-family="Helvetica" font-size="9.6" opacity="1" stroke="none" text-anchor="middle" transform="matrix(1 0 0 1 323.64 715)" x="0" y="0">
<tspan textLength="82.7203" x="42.8602" y="9">Ensemble Learning</tspan>
</text>
<path d="M286.5 750.5L444.5 750.5C447.814 750.5 450.5 753.186 450.5 756.5L450.5 784.5C450.5 787.814 447.814 790.5 444.5 790.5L286.5 790.5C283.186 790.5 280.5 787.814 280.5 784.5L280.5 756.5C280.5 753.186 283.186 750.5 286.5 750.5Z" fill="#1f6286" fill-rule="nonzero" opacity="1" stroke="#000000" stroke-linecap="butt" stroke-linejoin="miter" stroke-width="1"/>
<text fill="#ffffff" font-family="Helvetica" font-size="9.6" opacity="1" stroke="none" text-anchor="middle" transform="matrix(1 0 0 1 313.77 765)" x="0" y="0">
<tspan textLength="102.459" x="52.7297" y="9">Reinforcement Learning</tspan>
</text>
<path d="M200.5 583.5C227.167 583.5 240.5 589.667 240.5 602C240.5 614.333 253.833 620.5 280.5 620.5" fill="none" opacity="1" stroke="#1f6286" stroke-dasharray="1.0,2.0,1.0,2.0" stroke-linecap="butt" stroke-linejoin="miter" stroke-width="1"/>
<path d="M22.5 576.5L202.5 576.5L202.5 576.5L202.5 596.5L202.5 596.5L22.5 596.5L22.5 596.5L22.5 576.5L22.5 576.5Z" fill="#000000" fill-rule="nonzero" opacity="0.25" stroke="#000000" stroke-linecap="butt" stroke-linejoin="miter" stroke-width="1"/>
<path d="M20.5 573.5L200.5 573.5L200.5 573.5L200.5 593.5L200.5 593.5L20.5 593.5L20.5 593.5L20.5 573.5L20.5 573.5Z" fill="#878787" fill-rule="nonzero" opacity="1" stroke="#000000" stroke-linecap="butt" stroke-linejoin="miter" stroke-width="1"/>
<text fill="#ffffff" font-family="Helvetica" font-size="8.8" opacity="1" stroke="none" text-anchor="middle" transform="matrix(1 0 0 1 87.7443 577)" x="0" y="0">
<tspan textLength="44.5113" x="23.7557" y="9">Regression</tspan>
</text>
<path d="M200.5 659.5C227.167 659.5 240.5 653 240.5 640C240.5 627 253.833 620.5 280.5 620.5" fill="none" opacity="1" stroke="#1f6286" stroke-dasharray="1.0,2.0,1.0,2.0" stroke-linecap="butt" stroke-linejoin="miter" stroke-width="1"/>
<path d="M22.5 652.5L202.5 652.5L202.5 652.5L202.5 672.5L202.5 672.5L22.5 672.5L22.5 672.5L22.5 652.5L22.5 652.5Z" fill="#000000" fill-rule="nonzero" opacity="0.25" stroke="#000000" stroke-linecap="butt" stroke-linejoin="miter" stroke-width="1"/>
<path d="M20.5 649.5L200.5 649.5L200.5 649.5L200.5 669.5L200.5 669.5L20.5 669.5L20.5 669.5L20.5 649.5L20.5 649.5Z" fill="#878787" fill-rule="nonzero" opacity="1" stroke="#000000" stroke-linecap="butt" stroke-linejoin="miter" stroke-width="1"/>
<text fill="#ffffff" font-family="Helvetica" font-size="8.8" opacity="1" stroke="none" text-anchor="middle" transform="matrix(1 0 0 1 84.0791 653)" x="0" y="0">
<tspan textLength="51.8418" x="27.4209" y="9">Classification</tspan>
</text>
<path d="M60.5 674.5L190.5 674.5L190.5 674.5L190.5 689.5L190.5 689.5L60.5 689.5L60.5 689.5L60.5 674.5L60.5 674.5Z" fill="#878787" fill-rule="nonzero" opacity="1" stroke="#000000" stroke-linecap="butt" stroke-linejoin="miter" stroke-width="1"/>
<text fill="#ffffff" font-family="Helvetica" font-size="8" opacity="1" stroke="none" text-anchor="middle" transform="matrix(1 0 0 1 91.875 677)" x="0" y="0">
<tspan textLength="66.25" x="34.625" y="8">Classification Rate</tspan>
</text>
<path d="M60.5 702C20.5 702 0.5 694.917 0.5 680.75C0.5 666.583 7.16667 659.5 20.5 659.5" fill="none" opacity="1" stroke="#1f6286" stroke-dasharray="1.0,2.0,1.0,2.0" stroke-linecap="butt" stroke-linejoin="miter" stroke-width="1"/>
<path d="M62.5 697.5L192.5 697.5L192.5 697.5L192.5 712.5L192.5 712.5L62.5 712.5L62.5 712.5L62.5 697.5L62.5 697.5Z" fill="#000000" fill-rule="nonzero" opacity="0.25" stroke="#000000" stroke-linecap="butt" stroke-linejoin="miter" stroke-width="1"/>
<path d="M60.5 694.5L190.5 694.5L190.5 694.5L190.5 709.5L190.5 709.5L60.5 709.5L60.5 709.5L60.5 694.5L60.5 694.5Z" fill="#878787" fill-rule="nonzero" opacity="1" stroke="#000000" stroke-linecap="butt" stroke-linejoin="miter" stroke-width="1"/>
<text fill="#ffffff" font-family="Helvetica" font-size="8" opacity="1" stroke="none" text-anchor="middle" transform="matrix(1 0 0 1 98.541 697)" x="0" y="0">
<tspan textLength="52.918" x="27.959" y="8">Decision Trees</tspan>
</text>
<path d="M60.5 742C20.5 742 0.5 728.25 0.5 700.75C0.5 673.25 7.16667 659.5 20.5 659.5" fill="none" opacity="1" stroke="#1f6286" stroke-dasharray="1.0,2.0,1.0,2.0" stroke-linecap="butt" stroke-linejoin="miter" stroke-width="1"/>
<path d="M62.5 737.5L192.5 737.5L192.5 737.5L192.5 752.5L192.5 752.5L62.5 752.5L62.5 752.5L62.5 737.5L62.5 737.5Z" fill="#000000" fill-rule="nonzero" opacity="0.25" stroke="#000000" stroke-linecap="butt" stroke-linejoin="miter" stroke-width="1"/>
<path d="M60.5 734.5L190.5 734.5L190.5 734.5L190.5 749.5L190.5 749.5L60.5 749.5L60.5 749.5L60.5 734.5L60.5 734.5Z" fill="#878787" fill-rule="nonzero" opacity="1" stroke="#000000" stroke-linecap="butt" stroke-linejoin="miter" stroke-width="1"/>
<text fill="#ffffff" font-family="Helvetica" font-size="8" opacity="1" stroke="none" text-anchor="middle" transform="matrix(1 0 0 1 82.7637 737)" x="0" y="0">
<tspan textLength="84.4727" x="43.7363" y="8">Naïve Bayes Classifiers</tspan>
</text>
<path d="M60.5 607C47.1667 607 40.5 608.083 40.5 610.25C40.5 612.417 33.8333 613.5 20.5 613.5C7.16667 613.5 0.5 608.5 0.5 598.5C0.5 588.5 7.16667 583.5 20.5 583.5" fill="none" opacity="1" stroke="#1f6286" stroke-dasharray="1.0,2.0,1.0,2.0" stroke-linecap="butt" stroke-linejoin="miter" stroke-width="1"/>
<path d="M62.5 602.5L192.5 602.5L192.5 602.5L192.5 617.5L192.5 617.5L62.5 617.5L62.5 617.5L62.5 602.5L62.5 602.5Z" fill="#000000" fill-rule="nonzero" opacity="0.25" stroke="#000000" stroke-linecap="butt" stroke-linejoin="miter" stroke-width="1"/>
<path d="M60.5 599.5L190.5 599.5L190.5 599.5L190.5 614.5L190.5 614.5L60.5 614.5L60.5 614.5L60.5 599.5L60.5 599.5Z" fill="#878787" fill-rule="nonzero" opacity="1" stroke="#000000" stroke-linecap="butt" stroke-linejoin="miter" stroke-width="1"/>
<text fill="#ffffff" font-family="Helvetica" font-size="8" opacity="1" stroke="none" text-anchor="middle" transform="matrix(1 0 0 1 92.5371 602)" x="0" y="0">
<tspan textLength="64.9258" x="33.9629" y="8">Linear Regression</tspan>
</text>
<path d="M60.5 627C20.5 627 0.5 619.75 0.5 605.25C0.5 590.75 7.16667 583.5 20.5 583.5" fill="none" opacity="1" stroke="#1f6286" stroke-dasharray="1.0,2.0,1.0,2.0" stroke-linecap="butt" stroke-linejoin="miter" stroke-width="1"/>
<path d="M62.5 622.5L192.5 622.5L192.5 622.5L192.5 637.5L192.5 637.5L62.5 637.5L62.5 637.5L62.5 622.5L62.5 622.5Z" fill="#000000" fill-rule="nonzero" opacity="0.25" stroke="#000000" stroke-linecap="butt" stroke-linejoin="miter" stroke-width="1"/>
<path d="M60.5 619.5L190.5 619.5L190.5 619.5L190.5 634.5L190.5 634.5L60.5 634.5L60.5 634.5L60.5 619.5L60.5 619.5Z" fill="#878787" fill-rule="nonzero" opacity="1" stroke="#000000" stroke-linecap="butt" stroke-linejoin="miter" stroke-width="1"/>
<text fill="#ffffff" font-family="Helvetica" font-size="8" opacity="1" stroke="none" text-anchor="middle" transform="matrix(1 0 0 1 89.4258 622)" x="0" y="0">
<tspan textLength="71.1484" x="37.0742" y="8">Poisson Regression</tspan>
</text>
<path d="M60.5 762C20.5 762 0.5 744.917 0.5 710.75C0.5 676.583 7.16667 659.5 20.5 659.5" fill="none" opacity="1" stroke="#1f6286" stroke-dasharray="1.0,2.0,1.0,2.0" stroke-linecap="butt" stroke-linejoin="miter" stroke-width="1"/>
<path d="M62.5 757.5L192.5 757.5L192.5 757.5L192.5 772.5L192.5 772.5L62.5 772.5L62.5 772.5L62.5 757.5L62.5 757.5Z" fill="#000000" fill-rule="nonzero" opacity="0.25" stroke="#000000" stroke-linecap="butt" stroke-linejoin="miter" stroke-width="1"/>
<path d="M60.5 754.5L190.5 754.5L190.5 754.5L190.5 769.5L190.5 769.5L60.5 769.5L60.5 769.5L60.5 754.5L60.5 754.5Z" fill="#878787" fill-rule="nonzero" opacity="1" stroke="#000000" stroke-linecap="butt" stroke-linejoin="miter" stroke-width="1"/>
<text fill="#ffffff" font-family="Helvetica" font-size="8" opacity="1" stroke="none" text-anchor="middle" transform="matrix(1 0 0 1 87.4258 757)" x="0" y="0">
<tspan textLength="75.1484" x="39.0742" y="8">K-Nearest Neighbour</tspan>
</text>
<path d="M60.5 782C20.5 782 0.5 761.583 0.5 720.75C0.5 679.917 7.16667 659.5 20.5 659.5" fill="none" opacity="1" stroke="#1f6286" stroke-dasharray="1.0,2.0,1.0,2.0" stroke-linecap="butt" stroke-linejoin="miter" stroke-width="1"/>
<path d="M60.5 774.5L190.5 774.5L190.5 774.5L190.5 789.5L190.5 789.5L60.5 789.5L60.5 789.5L60.5 774.5L60.5 774.5Z" fill="#878787" fill-rule="nonzero" opacity="1" stroke="#000000" stroke-linecap="butt" stroke-linejoin="miter" stroke-width="1"/>
<text fill="#ffffff" font-family="Helvetica" font-size="8" opacity="1" stroke="none" text-anchor="middle" transform="matrix(1 0 0 1 116.332 777)" x="0" y="0">
<tspan textLength="17.3359" x="10.168" y="8">SVM</tspan>
</text>
<path d="M720.5 425C730.5 425 735.5 428.833 735.5 436.5C735.5 444.167 730.5 448 720.5 448C710.5 448 697.19 447.833 680.57 447.5" fill="none" opacity="1" stroke="#1f6286" stroke-dasharray="1.0,2.0,1.0,2.0" stroke-linecap="butt" stroke-linejoin="miter" stroke-width="1"/>
<path d="M490.5 425C480.5 425 475.5 465.75 475.5 547.25C475.5 628.75 467.167 669.833 450.5 670.5" fill="none" opacity="1" stroke="#1f6286" stroke-dasharray="1.0,2.0,1.0,2.0" stroke-linecap="butt" stroke-linejoin="miter" stroke-width="1"/>
<path d="M490.5 415L720.5 415L720.5 415L720.5 435L720.5 435L490.5 435L490.5 435L490.5 415L490.5 415Z" fill="#878787" fill-rule="nonzero" opacity="1" stroke="#000000" stroke-linecap="butt" stroke-linejoin="miter" stroke-width="1"/>
<text fill="#ffffff" font-family="Helvetica" font-size="8.8" opacity="1" stroke="none" text-anchor="middle" transform="matrix(1 0 0 1 585.191 419)" x="0" y="0">
<tspan textLength="39.6172" x="21.3086" y="9">Clustering</tspan>
</text>
<path d="M490.5 620C490.5 623.667 487.167 625.5 480.5 625.5C473.833 625.5 470.5 633 470.5 648C470.5 663 463.833 670.5 450.5 670.5" fill="none" opacity="1" stroke="#1f6286" stroke-dasharray="1.0,2.0,1.0,2.0" stroke-linecap="butt" stroke-linejoin="miter" stroke-width="1"/>
<path d="M490.5 610L720.5 610L720.5 610L720.5 630L720.5 630L490.5 630L490.5 630L490.5 610L490.5 610Z" fill="#878787" fill-rule="nonzero" opacity="1" stroke="#000000" stroke-linecap="butt" stroke-linejoin="miter" stroke-width="1"/>
<text fill="#ffffff" font-family="Helvetica" font-size="8.8" opacity="1" stroke="none" text-anchor="middle" transform="matrix(1 0 0 1 553.88 614)" x="0" y="0">
<tspan textLength="102.24" x="52.6199" y="9">Association Rule Learning</tspan>
</text>
<path d="M720.5 719.5C727.167 719.5 730.5 723.25 730.5 730.75C730.5 738.25 713.857 742 680.57 742" fill="none" opacity="1" stroke="#1f6286" stroke-dasharray="1.0,2.0,1.0,2.0" stroke-linecap="butt" stroke-linejoin="miter" stroke-width="1"/>
<path d="M490.5 719.5C480.5 719.5 475.5 711.333 475.5 695C475.5 678.667 467.167 670.5 450.5 670.5" fill="none" opacity="1" stroke="#1f6286" stroke-dasharray="1.0,2.0,1.0,2.0" stroke-linecap="butt" stroke-linejoin="miter" stroke-width="1"/>
<path d="M490.5 709.5L720.5 709.5L720.5 709.5L720.5 729.5L720.5 729.5L490.5 729.5L490.5 729.5L490.5 709.5L490.5 709.5Z" fill="#878787" fill-rule="nonzero" opacity="1" stroke="#000000" stroke-linecap="butt" stroke-linejoin="miter" stroke-width="1"/>
<text fill="#ffffff" font-family="Helvetica" font-size="8.8" opacity="1" stroke="none" text-anchor="middle" transform="matrix(1 0 0 1 555.354 713)" x="0" y="0">
<tspan textLength="99.2922" x="51.1461" y="9">Dimensionality Reduction</tspan>
</text>
<path d="M502.57 443L682.57 443L682.57 443L682.57 458L682.57 458L502.57 458L502.57 458L502.57 443L502.57 443Z" fill="#000000" fill-rule="nonzero" opacity="0.25" stroke="#000000" stroke-linecap="butt" stroke-linejoin="miter" stroke-width="1"/>
<path d="M500.57 440L680.57 440L680.57 440L680.57 455L680.57 455L500.57 455L500.57 455L500.57 440L500.57 440Z" fill="#878787" fill-rule="nonzero" opacity="1" stroke="#000000" stroke-linecap="butt" stroke-linejoin="miter" stroke-width="1"/>
<text fill="#ffffff" font-family="Helvetica" font-size="8" opacity="1" stroke="none" text-anchor="middle" transform="matrix(1 0 0 1 549.764 442)" x="0" y="0">
<tspan textLength="80.4727" x="41.7363" y="8">Hierarchical Clustering</tspan>
</text>
<path d="M680.57 467.5C720.523 467.5 740.5 460.417 740.5 446.25C740.5 432.083 733.833 425 720.5 425" fill="none" opacity="1" stroke="#1f6286" stroke-dasharray="1.0,2.0,1.0,2.0" stroke-linecap="butt" stroke-linejoin="miter" stroke-width="1"/>
<path d="M502.57 463L682.57 463L682.57 463L682.57 478L682.57 478L502.57 478L502.57 478L502.57 463L502.57 463Z" fill="#000000" fill-rule="nonzero" opacity="0.25" stroke="#000000" stroke-linecap="butt" stroke-linejoin="miter" stroke-width="1"/>
<path d="M500.57 460L680.57 460L680.57 460L680.57 475L680.57 475L500.57 475L500.57 475L500.57 460L500.57 460Z" fill="#878787" fill-rule="nonzero" opacity="1" stroke="#000000" stroke-linecap="butt" stroke-linejoin="miter" stroke-width="1"/>
<text fill="#ffffff" font-family="Helvetica" font-size="8" opacity="1" stroke="none" text-anchor="middle" transform="matrix(1 0 0 1 554.875 462)" x="0" y="0">
<tspan textLength="70.25" x="36.625" y="8">K-Means Clustering</tspan>
</text>
<path d="M680.57 487.5C720.523 487.5 740.5 477.083 740.5 456.25C740.5 435.417 733.833 425 720.5 425" fill="none" opacity="1" stroke="#1f6286" stroke-dasharray="1.0,2.0,1.0,2.0" stroke-linecap="butt" stroke-linejoin="miter" stroke-width="1"/>
<path d="M500.57 480L680.57 480L680.57 480L680.57 495L680.57 495L500.57 495L500.57 495L500.57 480L500.57 480Z" fill="#878787" fill-rule="nonzero" opacity="1" stroke="#000000" stroke-linecap="butt" stroke-linejoin="miter" stroke-width="1"/>
<text fill="#ffffff" font-family="Helvetica" font-size="8" opacity="1" stroke="none" text-anchor="middle" transform="matrix(1 0 0 1 573.33 482)" x="0" y="0">
<tspan textLength="33.3398" x="18.1699" y="8">DBSCAN</tspan>
</text>
<path d="M680.57 525C720.523 525 740.5 508.333 740.5 475C740.5 441.667 733.833 425 720.5 425" fill="none" opacity="1" stroke="#1f6286" stroke-dasharray="1.0,2.0,1.0,2.0" stroke-linecap="butt" stroke-linejoin="miter" stroke-width="1"/>
<path d="M500.57 517.5L680.57 517.5L680.57 517.5L680.57 532.5L680.57 532.5L500.57 532.5L500.57 532.5L500.57 517.5L500.57 517.5Z" fill="#878787" fill-rule="nonzero" opacity="1" stroke="#000000" stroke-linecap="butt" stroke-linejoin="miter" stroke-width="1"/>
<text fill="#ffffff" font-family="Helvetica" font-size="8" opacity="1" stroke="none" text-anchor="middle" transform="matrix(1 0 0 1 561.994 520)" x="0" y="0">
<tspan textLength="56.0117" x="29.5059" y="8">Fuzzy C-Means</tspan>
</text>
<path d="M680.57 545C720.523 545 740.5 525 740.5 485C740.5 445 733.833 425 720.5 425" fill="none" opacity="1" stroke="#1f6286" stroke-dasharray="1.0,2.0,1.0,2.0" stroke-linecap="butt" stroke-linejoin="miter" stroke-width="1"/>
<path d="M500.57 537.5L680.57 537.5L680.57 537.5L680.57 552.5L680.57 552.5L500.57 552.5L500.57 552.5L500.57 537.5L500.57 537.5Z" fill="#878787" fill-rule="nonzero" opacity="1" stroke="#000000" stroke-linecap="butt" stroke-linejoin="miter" stroke-width="1"/>
<text fill="#ffffff" font-family="Helvetica" font-size="8" opacity="1" stroke="none" text-anchor="middle" transform="matrix(1 0 0 1 570.879 540)" x="0" y="0">
<tspan textLength="38.2422" x="20.6211" y="8">Mean Shift</tspan>
</text>
<path d="M680.57 565C720.523 565 740.5 541.667 740.5 495C740.5 448.333 733.833 425 720.5 425" fill="none" opacity="1" stroke="#1f6286" stroke-dasharray="1.0,2.0,1.0,2.0" stroke-linecap="butt" stroke-linejoin="miter" stroke-width="1"/>
<path d="M500.57 557.5L680.57 557.5L680.57 557.5L680.57 572.5L680.57 572.5L500.57 572.5L500.57 572.5L500.57 557.5L500.57 557.5Z" fill="#878787" fill-rule="nonzero" opacity="1" stroke="#000000" stroke-linecap="butt" stroke-linejoin="miter" stroke-width="1"/>
<text fill="#ffffff" font-family="Helvetica" font-size="8" opacity="1" stroke="none" text-anchor="middle" transform="matrix(1 0 0 1 564.432 560)" x="0" y="0">
<tspan textLength="51.1367" x="27.0684" y="8">Agglomerative</tspan>
</text>
<path d="M502.57 737.5L682.57 737.5L682.57 737.5L682.57 752.5L682.57 752.5L502.57 752.5L502.57 752.5L502.57 737.5L502.57 737.5Z" fill="#000000" fill-rule="nonzero" opacity="0.25" stroke="#000000" stroke-linecap="butt" stroke-linejoin="miter" stroke-width="1"/>
<path d="M500.57 734.5L680.57 734.5L680.57 734.5L680.57 749.5L680.57 749.5L500.57 749.5L500.57 749.5L500.57 734.5L500.57 734.5Z" fill="#878787" fill-rule="nonzero" opacity="1" stroke="#000000" stroke-linecap="butt" stroke-linejoin="miter" stroke-width="1"/>
<text fill="#ffffff" font-family="Helvetica" font-size="8" opacity="1" stroke="none" text-anchor="middle" transform="matrix(1 0 0 1 525.082 737)" x="0" y="0">
<tspan textLength="129.836" x="66.418" y="8">Principal Component Analysis (PCA)</tspan>
</text>
<path d="M520.5 869.5C497.167 869.5 485.5 844.667 485.5 795C485.5 745.333 473.833 720.5 450.5 720.5" fill="none" opacity="1" stroke="#1f6286" stroke-dasharray="1.0,2.0,1.0,2.0" stroke-linecap="butt" stroke-linejoin="miter" stroke-width="1"/>
<path d="M522.5 862.5L702.5 862.5L702.5 862.5L702.5 882.5L702.5 882.5L522.5 882.5L522.5 882.5L522.5 862.5L522.5 862.5Z" fill="#000000" fill-rule="nonzero" opacity="0.25" stroke="#000000" stroke-linecap="butt" stroke-linejoin="miter" stroke-width="1"/>
<path d="M520.5 859.5L700.5 859.5L700.5 859.5L700.5 879.5L700.5 879.5L520.5 879.5L520.5 879.5L520.5 859.5L520.5 859.5Z" fill="#878787" fill-rule="nonzero" opacity="1" stroke="#000000" stroke-linecap="butt" stroke-linejoin="miter" stroke-width="1"/>
<text fill="#ffffff" font-family="Helvetica" font-size="8.8" opacity="1" stroke="none" text-anchor="middle" transform="matrix(1 0 0 1 592.877 863)" x="0" y="0">
<tspan textLength="34.2461" x="18.623" y="9">Boosting</tspan>
</text>
<path d="M520.5 894.5C497.167 894.5 485.5 865.5 485.5 807.5C485.5 749.5 473.833 720.5 450.5 720.5" fill="none" opacity="1" stroke="#1f6286" stroke-dasharray="1.0,2.0,1.0,2.0" stroke-linecap="butt" stroke-linejoin="miter" stroke-width="1"/>
<path d="M520.5 884.5L700.5 884.5L700.5 884.5L700.5 904.5L700.5 904.5L520.5 904.5L520.5 904.5L520.5 884.5L520.5 884.5Z" fill="#878787" fill-rule="nonzero" opacity="1" stroke="#000000" stroke-linecap="butt" stroke-linejoin="miter" stroke-width="1"/>
<text fill="#ffffff" font-family="Helvetica" font-size="8.8" opacity="1" stroke="none" text-anchor="middle" transform="matrix(1 0 0 1 593.852 888)" x="0" y="0">
<tspan textLength="32.2953" x="17.6477" y="9">Bagging</tspan>
</text>
<path d="M520.5 919.5C497.167 919.5 485.5 886.333 485.5 820C485.5 753.667 473.833 720.5 450.5 720.5" fill="none" opacity="1" stroke="#1f6286" stroke-dasharray="1.0,2.0,1.0,2.0" stroke-linecap="butt" stroke-linejoin="miter" stroke-width="1"/>
<path d="M520.5 909.5L700.5 909.5L700.5 909.5L700.5 929.5L700.5 929.5L520.5 929.5L520.5 929.5L520.5 909.5L520.5 909.5Z" fill="#878787" fill-rule="nonzero" opacity="1" stroke="#000000" stroke-linecap="butt" stroke-linejoin="miter" stroke-width="1"/>
<text fill="#ffffff" font-family="Helvetica" font-size="8.8" opacity="1" stroke="none" text-anchor="middle" transform="matrix(1 0 0 1 593.124 913)" x="0" y="0">
<tspan textLength="33.752" x="18.376" y="9">Stacking</tspan>
</text>
<path d="M235.5 831.5C250.5 831.5 258 821.333 258 801C258 780.667 265.5 770.5 280.5 770.5" fill="none" opacity="1" stroke="#1f6286" stroke-dasharray="1.0,2.0,1.0,2.0" stroke-linecap="butt" stroke-linejoin="miter" stroke-width="1"/>
<path d="M120.5 821.5L235.5 821.5L235.5 821.5L235.5 841.5L235.5 841.5L120.5 841.5L120.5 841.5L120.5 821.5L120.5 821.5Z" fill="#878787" fill-rule="nonzero" opacity="1" stroke="#000000" stroke-linecap="butt" stroke-linejoin="miter" stroke-width="1"/>
<text fill="#ffffff" font-family="Helvetica" font-size="8.8" opacity="1" stroke="none" text-anchor="middle" transform="matrix(1 0 0 1 155.987 825)" x="0" y="0">
<tspan textLength="44.0258" x="23.5129" y="9">Q-Learning</tspan>
</text>
<path d="M235.5 889.5C235.5 856.5 257.167 840 300.5 840C343.833 840 365.5 823.5 365.5 790.5" fill="none" opacity="1" stroke="#1f6286" stroke-linecap="butt" stroke-linejoin="miter" stroke-width="1"/>
<path d="M156.5 889.5L314.5 889.5C317.814 889.5 320.5 892.186 320.5 895.5L320.5 923.5C320.5 926.814 317.814 929.5 314.5 929.5L156.5 929.5C153.186 929.5 150.5 926.814 150.5 923.5L150.5 895.5C150.5 892.186 153.186 889.5 156.5 889.5Z" fill="#1f6286" fill-rule="nonzero" opacity="1" stroke="#000000" stroke-linecap="butt" stroke-linejoin="miter" stroke-width="1"/>
<text fill="#ffffff" font-family="Helvetica" font-size="9.6" opacity="1" stroke="none" text-anchor="middle" transform="matrix(1 0 0 1 194.444 904)" x="0" y="0">
<tspan textLength="81.1125" x="42.0563" y="9">Sentiment Analysis</tspan>
</text>
<path d="M156.5 939.5L314.5 939.5C317.814 939.5 320.5 942.186 320.5 945.5L320.5 973.5C320.5 976.814 317.814 979.5 314.5 979.5L156.5 979.5C153.186 979.5 150.5 976.814 150.5 973.5L150.5 945.5C150.5 942.186 153.186 939.5 156.5 939.5Z" fill="#1f6286" fill-rule="nonzero" opacity="1" stroke="#000000" stroke-linecap="butt" stroke-linejoin="miter" stroke-width="1"/>
<text fill="#ffffff" font-family="Helvetica" font-size="9.6" opacity="1" stroke="none" text-anchor="middle" transform="matrix(1 0 0 1 188.58 954)" x="0" y="0">
<tspan textLength="92.8406" x="47.9203" y="9">Collaborative Filtering</tspan>
</text>
<path d="M158.5 992.5L316.5 992.5C319.814 992.5 322.5 995.186 322.5 998.5L322.5 1026.5C322.5 1029.81 319.814 1032.5 316.5 1032.5L158.5 1032.5C155.186 1032.5 152.5 1029.81 152.5 1026.5L152.5 998.5C152.5 995.186 155.186 992.5 158.5 992.5Z" fill="#000000" fill-rule="nonzero" opacity="0.25" stroke="#000000" stroke-linecap="butt" stroke-linejoin="miter" stroke-width="1"/>
<path d="M156.5 989.5L314.5 989.5C317.814 989.5 320.5 992.186 320.5 995.5L320.5 1023.5C320.5 1026.81 317.814 1029.5 314.5 1029.5L156.5 1029.5C153.186 1029.5 150.5 1026.81 150.5 1023.5L150.5 995.5C150.5 992.186 153.186 989.5 156.5 989.5Z" fill="#1f6286" fill-rule="nonzero" opacity="1" stroke="#000000" stroke-linecap="butt" stroke-linejoin="miter" stroke-width="1"/>
<text fill="#ffffff" font-family="Helvetica" font-size="9.6" opacity="1" stroke="none" text-anchor="middle" transform="matrix(1 0 0 1 218.186 1004)" x="0" y="0">
<tspan textLength="33.6281" x="18.3141" y="9">Tagging</tspan>
</text>
<path d="M235.5 1079.5C235.5 1109.83 257.167 1125 300.5 1125C343.833 1125 365.5 1140.17 365.5 1170.5" fill="none" opacity="1" stroke="#1f6286" stroke-linecap="butt" stroke-linejoin="miter" stroke-width="1"/>
<path d="M156.5 1039.5L314.5 1039.5C317.814 1039.5 320.5 1042.19 320.5 1045.5L320.5 1073.5C320.5 1076.81 317.814 1079.5 314.5 1079.5L156.5 1079.5C153.186 1079.5 150.5 1076.81 150.5 1073.5L150.5 1045.5C150.5 1042.19 153.186 1039.5 156.5 1039.5Z" fill="#1f6286" fill-rule="nonzero" opacity="1" stroke="#000000" stroke-linecap="butt" stroke-linejoin="miter" stroke-width="1"/>
<text fill="#ffffff" font-family="Helvetica" font-size="9.6" opacity="1" stroke="none" text-anchor="middle" transform="matrix(1 0 0 1 213.655 1054)" x="0" y="0">
<tspan textLength="42.6891" x="22.8445" y="9">Prediction</tspan>
</text>
<text fill="#ffffff" font-family="Helvetica" font-size="12.8" opacity="1" stroke="none" text-anchor="middle" transform="matrix(1 0 0 1 153.7 865)" x="0" y="0">
<tspan textLength="62.6" x="32.8" y="12">Use Cases</tspan>
</text>
<text fill="#ffffff" font-family="Helvetica" font-size="12.8" opacity="1" stroke="none" text-anchor="middle" transform="matrix(1 0 0 1 395.059 1144)" x="0" y="0">
<tspan textLength="29.8813" x="16.4406" y="12">Tools</tspan>
</text>
<path d="M365.5 1200.5C365.5 1235.83 340.833 1253.5 291.5 1253.5C242.167 1253.5 217.5 1271.17 217.5 1306.5" fill="none" opacity="1" stroke="#1f6286" stroke-dasharray="3.0" stroke-linecap="butt" stroke-linejoin="miter" stroke-width="1"/>
<path d="M497 1152.5L603 1152.5C605.485 1152.5 607.5 1154.51 607.5 1157L607.5 1178C607.5 1180.49 605.485 1182.5 603 1182.5L497 1182.5C494.515 1182.5 492.5 1180.49 492.5 1178L492.5 1157C492.5 1154.51 494.515 1152.5 497 1152.5Z" fill="#000000" fill-rule="nonzero" opacity="0.25" stroke="#000000" stroke-linecap="butt" stroke-linejoin="miter" stroke-width="1"/>
<path d="M495 1149.5L601 1149.5C603.485 1149.5 605.5 1151.51 605.5 1154L605.5 1175C605.5 1177.49 603.485 1179.5 601 1179.5L495 1179.5C492.515 1179.5 490.5 1177.49 490.5 1175L490.5 1154C490.5 1151.51 492.515 1149.5 495 1149.5Z" fill="#878787" fill-rule="nonzero" opacity="1" stroke="#000000" stroke-linecap="butt" stroke-linejoin="miter" stroke-width="1"/>
<text fill="#ffffff" font-family="Helvetica" font-size="8.8" opacity="1" stroke="none" text-anchor="middle" transform="matrix(1 0 0 1 526.973 1158)" x="0" y="0">
<tspan textLength="42.0535" x="22.5268" y="9">scikit-learn</tspan>
</text>
<text fill="#000000" font-family="Helvetica" font-size="19.2" opacity="1" stroke="none" text-anchor="middle" transform="matrix(1 0 0 1 154.019 1316)" x="0" y="0">
<tspan textLength="125.963" x="64.4813" y="19">Deep Learning</tspan>
</text>
<path d="M287 1173.5L448 1173.5C450.485 1173.5 452.5 1175.51 452.5 1178L452.5 1199C452.5 1201.49 450.485 1203.5 448 1203.5L287 1203.5C284.515 1203.5 282.5 1201.49 282.5 1199L282.5 1178C282.5 1175.51 284.515 1173.5 287 1173.5Z" fill="#000000" fill-rule="nonzero" opacity="0.25" stroke="#000000" stroke-linecap="butt" stroke-linejoin="miter" stroke-width="1"/>
<path d="M285 1170.5L446 1170.5C448.485 1170.5 450.5 1172.51 450.5 1175L450.5 1196C450.5 1198.49 448.485 1200.5 446 1200.5L285 1200.5C282.515 1200.5 280.5 1198.49 280.5 1196L280.5 1175C280.5 1172.51 282.515 1170.5 285 1170.5Z" fill="#1f6286" fill-rule="nonzero" opacity="1" stroke="#000000" stroke-linecap="butt" stroke-linejoin="miter" stroke-width="1"/>
<text fill="#ffffff" font-family="Helvetica" font-size="9.6" opacity="1" stroke="none" text-anchor="middle" transform="matrix(1 0 0 1 326.586 1180)" x="0" y="0">
<tspan textLength="76.8281" x="39.9141" y="9">Important libraries</tspan>
</text>
<path d="M497 1192.5L603 1192.5C605.485 1192.5 607.5 1194.51 607.5 1197L607.5 1218C607.5 1220.49 605.485 1222.5 603 1222.5L497 1222.5C494.515 1222.5 492.5 1220.49 492.5 1218L492.5 1197C492.5 1194.51 494.515 1192.5 497 1192.5Z" fill="#000000" fill-rule="nonzero" opacity="0.25" stroke="#000000" stroke-linecap="butt" stroke-linejoin="miter" stroke-width="1"/>
<path d="M495 1189.5L601 1189.5C603.485 1189.5 605.5 1191.51 605.5 1194L605.5 1215C605.5 1217.49 603.485 1219.5 601 1219.5L495 1219.5C492.515 1219.5 490.5 1217.49 490.5 1215L490.5 1194C490.5 1191.51 492.515 1189.5 495 1189.5Z" fill="#878787" fill-rule="nonzero" opacity="1" stroke="#000000" stroke-linecap="butt" stroke-linejoin="miter" stroke-width="1"/>
<text fill="#ffffff" font-family="Helvetica" font-size="8.8" opacity="1" stroke="none" text-anchor="middle" transform="matrix(1 0 0 1 523.794 1198)" x="0" y="0">
<tspan textLength="48.4129" x="25.7064" y="9">spacy (NLP)</tspan>
</text>
<path d="M490.5 1204.5C477.167 1204.5 470.5 1201.33 470.5 1195C470.5 1188.67 463.833 1185.5 450.5 1185.5" fill="none" opacity="1" stroke="#1f6286" stroke-dasharray="1.0,2.0,1.0,2.0" stroke-linecap="butt" stroke-linejoin="miter" stroke-width="1"/>
<path d="M490.5 1164.5C477.167 1164.5 470.5 1168 470.5 1175C470.5 1182 463.833 1185.5 450.5 1185.5" fill="none" opacity="1" stroke="#1f6286" stroke-dasharray="1.0,2.0,1.0,2.0" stroke-linecap="butt" stroke-linejoin="miter" stroke-width="1"/>
<path d="M720.5 619.5C730.5 619.5 735.5 623.333 735.5 631C735.5 638.667 730.5 642.5 720.5 642.5C710.5 642.5 697.19 642.333 680.57 642" fill="none" opacity="1" stroke="#1f6286" stroke-dasharray="1.0,2.0,1.0,2.0" stroke-linecap="butt" stroke-linejoin="miter" stroke-width="1"/>
<path d="M500.57 634.5L680.57 634.5L680.57 634.5L680.57 649.5L680.57 649.5L500.57 649.5L500.57 649.5L500.57 634.5L500.57 634.5Z" fill="#878787" fill-rule="nonzero" opacity="1" stroke="#000000" stroke-linecap="butt" stroke-linejoin="miter" stroke-width="1"/>
<text fill="#ffffff" font-family="Helvetica" font-size="8" opacity="1" stroke="none" text-anchor="middle" transform="matrix(1 0 0 1 560.654 637)" x="0" y="0">
<tspan textLength="58.6914" x="30.8457" y="8">Apriori Algorithm</tspan>
</text>
<path d="M680.57 662C717.19 662 735.5 654.917 735.5 640.75C735.5 626.583 730.5 619.5 720.5 619.5" fill="none" opacity="1" stroke="#1f6286" stroke-dasharray="1.0,2.0,1.0,2.0" stroke-linecap="butt" stroke-linejoin="miter" stroke-width="1"/>
<path d="M500.57 654.5L680.57 654.5L680.57 654.5L680.57 669.5L680.57 669.5L500.57 669.5L500.57 669.5L500.57 654.5L500.57 654.5Z" fill="#878787" fill-rule="nonzero" opacity="1" stroke="#000000" stroke-linecap="butt" stroke-linejoin="miter" stroke-width="1"/>
<text fill="#ffffff" font-family="Helvetica" font-size="8" opacity="1" stroke="none" text-anchor="middle" transform="matrix(1 0 0 1 559.91 657)" x="0" y="0">
<tspan textLength="60.1797" x="31.5898" y="8">ECLAT algorithm</tspan>
</text>
<path d="M680.57 682C717.19 682 735.5 671.667 735.5 651C735.5 630.333 730.5 620 720.5 620" fill="none" opacity="1" stroke="#1f6286" stroke-dasharray="1.0,2.0,1.0,2.0" stroke-linecap="butt" stroke-linejoin="miter" stroke-width="1"/>
<path d="M502.57 677.5L682.57 677.5L682.57 677.5L682.57 692.5L682.57 692.5L502.57 692.5L502.57 692.5L502.57 677.5L502.57 677.5Z" fill="#000000" fill-rule="nonzero" opacity="0.25" stroke="#000000" stroke-linecap="butt" stroke-linejoin="miter" stroke-width="1"/>
<path d="M500.57 674.5L680.57 674.5L680.57 674.5L680.57 689.5L680.57 689.5L500.57 689.5L500.57 689.5L500.57 674.5L500.57 674.5Z" fill="#878787" fill-rule="nonzero" opacity="1" stroke="#000000" stroke-linecap="butt" stroke-linejoin="miter" stroke-width="1"/>
<text fill="#ffffff" font-family="Helvetica" font-size="8" opacity="1" stroke="none" text-anchor="middle" transform="matrix(1 0 0 1 573.84 677)" x="0" y="0">
<tspan textLength="32.3203" x="17.6602" y="8">FP Trees</tspan>
</text>
<path d="M720.5 719.5C730.5 719.5 735.5 726.583 735.5 740.75C735.5 754.917 717.19 762 680.57 762" fill="none" opacity="1" stroke="#1f6286" stroke-dasharray="1.0,2.0,1.0,2.0" stroke-linecap="butt" stroke-linejoin="miter" stroke-width="1"/>
<path d="M500.57 754.5L680.57 754.5L680.57 754.5L680.57 769.5L680.57 769.5L500.57 769.5L500.57 769.5L500.57 754.5L500.57 754.5Z" fill="#878787" fill-rule="nonzero" opacity="1" stroke="#000000" stroke-linecap="butt" stroke-linejoin="miter" stroke-width="1"/>
<text fill="#ffffff" font-family="Helvetica" font-size="8" opacity="1" stroke="none" text-anchor="middle" transform="matrix(1 0 0 1 555.982 757)" x="0" y="0">
<tspan textLength="68.0352" x="35.5176" y="8">Random Projection</tspan>
</text>
<path d="M680.57 782C717.19 782 735.5 771.583 735.5 750.75C735.5 729.917 730.5 719.5 720.5 719.5" fill="none" opacity="1" stroke="#1f6286" stroke-dasharray="1.0,2.0,1.0,2.0" stroke-linecap="butt" stroke-linejoin="miter" stroke-width="1"/>
<path d="M500.57 774.5L680.57 774.5L680.57 774.5L680.57 789.5L680.57 789.5L500.57 789.5L500.57 789.5L500.57 774.5L500.57 774.5Z" fill="#878787" fill-rule="nonzero" opacity="1" stroke="#000000" stroke-linecap="butt" stroke-linejoin="miter" stroke-width="1"/>
<text fill="#ffffff" font-family="Helvetica" font-size="8" opacity="1" stroke="none" text-anchor="middle" transform="matrix(1 0 0 1 581.336 777)" x="0" y="0">
<tspan textLength="17.3281" x="10.1641" y="8">NMF</tspan>
</text>
<path d="M680.57 802C717.19 802 735.5 788.25 735.5 760.75C735.5 733.25 730.5 719.5 720.5 719.5" fill="none" opacity="1" stroke="#1f6286" stroke-dasharray="1.0,2.0,1.0,2.0" stroke-linecap="butt" stroke-linejoin="miter" stroke-width="1"/>
<path d="M500.57 794.5L680.57 794.5L680.57 794.5L680.57 809.5L680.57 809.5L500.57 809.5L500.57 809.5L500.57 794.5L500.57 794.5Z" fill="#878787" fill-rule="nonzero" opacity="1" stroke="#000000" stroke-linecap="butt" stroke-linejoin="miter" stroke-width="1"/>
<text fill="#ffffff" font-family="Helvetica" font-size="8" opacity="1" stroke="none" text-anchor="middle" transform="matrix(1 0 0 1 578.219 797)" x="0" y="0">
<tspan textLength="23.5625" x="13.2812" y="8">T-SNE</tspan>
</text>
<path d="M680.57 822C717.19 822 735.5 804.917 735.5 770.75C735.5 736.583 730.5 719.5 720.5 719.5" fill="none" opacity="1" stroke="#1f6286" stroke-dasharray="1.0,2.0,1.0,2.0" stroke-linecap="butt" stroke-linejoin="miter" stroke-width="1"/>
<path d="M500.57 814.5L680.57 814.5L680.57 814.5L680.57 829.5L680.57 829.5L500.57 829.5L500.57 829.5L500.57 814.5L500.57 814.5Z" fill="#878787" fill-rule="nonzero" opacity="1" stroke="#000000" stroke-linecap="butt" stroke-linejoin="miter" stroke-width="1"/>
<text fill="#ffffff" font-family="Helvetica" font-size="8" opacity="1" stroke="none" text-anchor="middle" transform="matrix(1 0 0 1 578.443 817)" x="0" y="0">
<tspan textLength="23.1133" x="13.0566" y="8">UMAP</tspan>
</text>
<path d="M680.54 506.5C720.513 506.5 740.5 492.833 740.5 465.5C740.5 438.167 733.833 424.5 720.5 424.5" fill="none" opacity="1" stroke="#1f6286" stroke-dasharray="1.0,2.0,1.0,2.0" stroke-linecap="butt" stroke-linejoin="miter" stroke-width="1"/>
<path d="M500.54 499L680.54 499L680.54 499L680.54 514L680.54 514L500.54 514L500.54 514L500.54 499L500.54 499Z" fill="#878787" fill-rule="nonzero" opacity="1" stroke="#000000" stroke-linecap="butt" stroke-linejoin="miter" stroke-width="1"/>
<text fill="#ffffff" font-family="Helvetica" font-size="8" opacity="1" stroke="none" text-anchor="middle" transform="matrix(1 0 0 1 570.441 501)" x="0" y="0">
<tspan textLength="39.1172" x="21.0586" y="8">HDBSCAN</tspan>
</text>
<path d="M680.54 585C720.513 585 740.5 558.333 740.5 505C740.5 451.667 733.833 425 720.5 425" fill="none" opacity="1" stroke="#1f6286" stroke-dasharray="1.0,2.0,1.0,2.0" stroke-linecap="butt" stroke-linejoin="miter" stroke-width="1"/>
<path d="M500.54 577.5L680.54 577.5L680.54 577.5L680.54 592.5L680.54 592.5L500.54 592.5L500.54 592.5L500.54 577.5L500.54 577.5Z" fill="#878787" fill-rule="nonzero" opacity="1" stroke="#000000" stroke-linecap="butt" stroke-linejoin="miter" stroke-width="1"/>
<text fill="#ffffff" font-family="Helvetica" font-size="8" opacity="1" stroke="none" text-anchor="middle" transform="matrix(1 0 0 1 575.109 580)" x="0" y="0">
<tspan textLength="29.7812" x="16.3906" y="8">OPTICS</tspan>
</text>
<path d="M60.5 802C20.5 802 0.5 778.25 0.5 730.75C0.5 683.25 7.16667 659.5 20.5 659.5" fill="none" opacity="1" stroke="#1f6286" stroke-dasharray="1.0,2.0,1.0,2.0" stroke-linecap="butt" stroke-linejoin="miter" stroke-width="1"/>
<path d="M60.5 794.5L190.5 794.5L190.5 794.5L190.5 809.5L190.5 809.5L60.5 809.5L60.5 809.5L60.5 794.5L60.5 794.5Z" fill="#878787" fill-rule="nonzero" opacity="1" stroke="#000000" stroke-linecap="butt" stroke-linejoin="miter" stroke-width="1"/>
<text fill="#ffffff" font-family="Helvetica" font-size="8" opacity="1" stroke="none" text-anchor="middle" transform="matrix(1 0 0 1 79.8711 797)" x="0" y="0">
<tspan textLength="90.2578" x="46.6289" y="8">Gaussian Mixture Models</tspan>
</text>
<path d="M60.5 722C20.5 722 0.5 711.583 0.5 690.75C0.5 669.917 7.16667 659.5 20.5 659.5" fill="none" opacity="1" stroke="#1f6286" stroke-dasharray="1.0,2.0,1.0,2.0" stroke-linecap="butt" stroke-linejoin="miter" stroke-width="1"/>
<path d="M62.5 717.5L192.5 717.5L192.5 717.5L192.5 732.5L192.5 732.5L62.5 732.5L62.5 732.5L62.5 717.5L62.5 717.5Z" fill="#000000" fill-rule="nonzero" opacity="0.25" stroke="#000000" stroke-linecap="butt" stroke-linejoin="miter" stroke-width="1"/>
<path d="M60.5 714.5L190.5 714.5L190.5 714.5L190.5 729.5L190.5 729.5L60.5 729.5L60.5 729.5L60.5 714.5L60.5 714.5Z" fill="#878787" fill-rule="nonzero" opacity="1" stroke="#000000" stroke-linecap="butt" stroke-linejoin="miter" stroke-width="1"/>
<text fill="#ffffff" font-family="Helvetica" font-size="8" opacity="1" stroke="none" text-anchor="middle" transform="matrix(1 0 0 1 90.0938 717)" x="0" y="0">
<tspan textLength="69.8125" x="36.4062" y="8">Logistic Regression</tspan>
</text>
<path d="M60.5 682C23.8333 682 5.5 678.25 5.5 670.75C5.5 663.25 10.5 659.5 20.5 659.5" fill="none" opacity="1" stroke="#1f6286" stroke-dasharray="1.0,2.0,1.0,2.0" stroke-linecap="butt" stroke-linejoin="miter" stroke-width="1"/>
</g>
</g>
</svg>
