<?xml version="1.0" encoding="UTF-8" standalone="no"?>
<!DOCTYPE svg PUBLIC "-//W3C//DTD SVG 1.1//EN" "http://www.w3.org/Graphics/SVG/1.1/DTD/svg11.dtd">
<!-- Created with Vectornator (http://vectornator.io/) -->
<svg height="841.0px" stroke-miterlimit="10" style="fill-rule:nonzero;clip-rule:evenodd;stroke-linecap:round;stroke-linejoin:round;" version="1.1" viewBox="0 0 1206 841" width="1206.0px" xml:space="preserve" xmlns="http://www.w3.org/2000/svg" xmlns:xlink="http://www.w3.org/1999/xlink">
<defs/>
<g id="Untitled">
<g opacity="1">
<path d="M610.5 380.5C723.833 380.5 780.5 349.29 780.5 286.87" fill="none" opacity="1" stroke="#000000" stroke-linecap="butt" stroke-linejoin="miter" stroke-width="1"/>
<path d="M780.5 281.62L784 288.62L780.5 286.87L777 288.62L780.5 281.62Z" fill="#000000" fill-rule="nonzero" opacity="1" stroke="#000000" stroke-linecap="butt" stroke-linejoin="miter" stroke-width="1"/>
<path d="M490.5 380.5C383.833 380.5 330.5 349.29 330.5 286.87" fill="none" opacity="1" stroke="#000000" stroke-linecap="butt" stroke-linejoin="miter" stroke-width="1"/>
<path d="M330.5 281.62L334 288.62L330.5 286.87L327 288.62L330.5 281.62Z" fill="#000000" fill-rule="nonzero" opacity="1" stroke="#000000" stroke-linecap="butt" stroke-linejoin="miter" stroke-width="1"/>
<path d="M520.5 410.5C520.5 450.5 455.957 470.5 326.87 470.5" fill="none" opacity="1" stroke="#000000" stroke-linecap="butt" stroke-linejoin="miter" stroke-width="1"/>
<path d="M321.62 470.5L328.62 467L326.87 470.5L328.62 474L321.62 470.5Z" fill="#000000" fill-rule="nonzero" opacity="1" stroke="#000000" stroke-linecap="butt" stroke-linejoin="miter" stroke-width="1"/>
<path d="M550.5 410.5C550.5 410.5 550.5 451.71 550.5 534.13" fill="none" opacity="1" stroke="#000000" stroke-linecap="butt" stroke-linejoin="miter" stroke-width="1"/>
<path d="M550.5 539.38L547 532.38L550.5 534.13L554 532.38L550.5 539.38Z" fill="#000000" fill-rule="nonzero" opacity="1" stroke="#000000" stroke-linecap="butt" stroke-linejoin="miter" stroke-width="1"/>
<path d="M580.5 410.5C580.5 450.5 641.71 470.5 764.13 470.5" fill="none" opacity="1" stroke="#000000" stroke-linecap="butt" stroke-linejoin="miter" stroke-width="1"/>
<path d="M769.38 470.5L762.38 474L764.13 470.5L762.38 467L769.38 470.5Z" fill="#000000" fill-rule="nonzero" opacity="1" stroke="#000000" stroke-linecap="butt" stroke-linejoin="miter" stroke-width="1"/>
<path d="M499.5 350.5L601.5 350.5C606.471 350.5 610.5 354.529 610.5 359.5L610.5 401.5C610.5 406.471 606.471 410.5 601.5 410.5L499.5 410.5C494.529 410.5 490.5 406.471 490.5 401.5L490.5 359.5C490.5 354.529 494.529 350.5 499.5 350.5Z" fill="#1f6286" fill-rule="nonzero" opacity="1" stroke="#000000" stroke-linecap="butt" stroke-linejoin="miter" stroke-width="1"/>
<text fill="#ffffff" font-family="Helvetica" font-size="14.4" opacity="1" stroke="none" text-anchor="middle" transform="matrix(1 0 0 1 492.762 375)" x="0" y="0">
<tspan textLength="114.476" x="58.7379" y="14">Machine Learning</tspan>
</text>
<path d="M270.5 250.5C203.833 250.5 170.5 232.623 170.5 196.87" fill="none" opacity="1" stroke="#000000" stroke-linecap="butt" stroke-linejoin="miter" stroke-width="1"/>
<path d="M170.5 191.62L174 198.62L170.5 196.87L167 198.62L170.5 191.62Z" fill="#000000" fill-rule="nonzero" opacity="1" stroke="#000000" stroke-linecap="butt" stroke-linejoin="miter" stroke-width="1"/>
<path d="M390.5 250.5C447.167 250.5 475.5 232.623 475.5 196.87" fill="none" opacity="1" stroke="#000000" stroke-linecap="butt" stroke-linejoin="miter" stroke-width="1"/>
<path d="M475.5 191.62L479 198.62L475.5 196.87L472 198.62L475.5 191.62Z" fill="#000000" fill-rule="nonzero" opacity="1" stroke="#000000" stroke-linecap="butt" stroke-linejoin="miter" stroke-width="1"/>
<path d="M279.5 220.5L381.5 220.5C386.471 220.5 390.5 224.529 390.5 229.5L390.5 271.5C390.5 276.471 386.471 280.5 381.5 280.5L279.5 280.5C274.529 280.5 270.5 276.471 270.5 271.5L270.5 229.5C270.5 224.529 274.529 220.5 279.5 220.5Z" fill="#1f6286" fill-rule="nonzero" opacity="1" stroke="#000000" stroke-linecap="butt" stroke-linejoin="miter" stroke-width="1"/>
<text fill="#ffffff" font-family="Helvetica" font-size="11.2" opacity="1" stroke="none" text-anchor="middle" transform="matrix(1 0 0 1 278.632 246)" x="0" y="0">
<tspan textLength="102.736" x="52.868" y="11">Supervised Learning</tspan>
</text>
<path d="M780.5 220.5C780.5 220.5 780.5 195.957 780.5 146.87" fill="none" opacity="1" stroke="#000000" stroke-linecap="butt" stroke-linejoin="miter" stroke-width="1"/>
<path d="M780.5 141.62L784 148.62L780.5 146.87L777 148.62L780.5 141.62Z" fill="#000000" fill-rule="nonzero" opacity="1" stroke="#000000" stroke-linecap="butt" stroke-linejoin="miter" stroke-width="1"/>
<path d="M840.5 250.5C840.5 250.5 868.377 250.5 924.13 250.5" fill="none" opacity="1" stroke="#000000" stroke-linecap="butt" stroke-linejoin="miter" stroke-width="1"/>
<path d="M929.38 250.5L922.38 254L924.13 250.5L922.38 247L929.38 250.5Z" fill="#000000" fill-rule="nonzero" opacity="1" stroke="#000000" stroke-linecap="butt" stroke-linejoin="miter" stroke-width="1"/>
<path d="M810.5 220.5C810.5 167.167 845.043 140.5 914.13 140.5" fill="none" opacity="1" stroke="#000000" stroke-linecap="butt" stroke-linejoin="miter" stroke-width="1"/>
<path d="M919.38 140.5L912.38 144L914.13 140.5L912.38 137L919.38 140.5Z" fill="#000000" fill-rule="nonzero" opacity="1" stroke="#000000" stroke-linecap="butt" stroke-linejoin="miter" stroke-width="1"/>
<path d="M729.5 220.5L831.5 220.5C836.471 220.5 840.5 224.529 840.5 229.5L840.5 271.5C840.5 276.471 836.471 280.5 831.5 280.5L729.5 280.5C724.529 280.5 720.5 276.471 720.5 271.5L720.5 229.5C720.5 224.529 724.529 220.5 729.5 220.5Z" fill="#878787" fill-rule="nonzero" opacity="1" stroke="#000000" stroke-linecap="butt" stroke-linejoin="miter" stroke-width="1"/>
<text fill="#ffffff" font-family="Helvetica" font-size="11.2" opacity="1" stroke="none" text-anchor="middle" transform="matrix(1 0 0 1 722.409 246)" x="0" y="0">
<tspan textLength="115.183" x="59.0914" y="11">Unsupervised Learning</tspan>
</text>
<path d="M123.5 170.5C123.5 170.5 113.5 170.5 93.5 170.5" fill="none" opacity="1" stroke="#000000" stroke-linecap="butt" stroke-linejoin="miter" stroke-width="1"/>
<path d="M170.5 150.5C170.5 137.167 177.167 130.5 190.5 130.5C203.833 130.5 210.5 123.833 210.5 110.5" fill="none" opacity="1" stroke="#000000" stroke-linecap="butt" stroke-linejoin="miter" stroke-width="1"/>
<path d="M140.5 150.5C140.5 137.167 132.167 130.5 115.5 130.5C98.8333 130.5 90.5 123.833 90.5 110.5" fill="none" opacity="1" stroke="#000000" stroke-linecap="butt" stroke-linejoin="miter" stroke-width="1"/>
<path d="M129.658 150.5L237.658 150.5C240.971 150.5 243.658 153.186 243.658 156.5L243.658 184.5C243.658 187.814 240.971 190.5 237.658 190.5L129.658 190.5C126.344 190.5 123.658 187.814 123.658 184.5L123.658 156.5C123.658 153.186 126.344 150.5 129.658 150.5Z" fill="#1f6286" fill-rule="nonzero" opacity="1" stroke="#000000" stroke-linecap="butt" stroke-linejoin="miter" stroke-width="1"/>
<text fill="#ffffff" font-family="Helvetica" font-size="9.6" opacity="1" stroke="none" text-anchor="middle" transform="matrix(1 0 0 1 158.879 167)" x="0" y="0">
<tspan textLength="48.5578" x="25.7789" y="9">Regression</tspan>
</text>
<path d="M415.5 170.5C415.5 170.5 408.833 170.5 395.5 170.5" fill="none" opacity="1" stroke="#000000" stroke-linecap="butt" stroke-linejoin="miter" stroke-width="1"/>
<path d="M415.5 160.5C398.833 160.5 390.5 153.833 390.5 140.5C390.5 127.167 382.167 120.5 365.5 120.5" fill="none" opacity="1" stroke="#000000" stroke-linecap="butt" stroke-linejoin="miter" stroke-width="1"/>
<path d="M445.5 150.5C445.5 97.1667 428.833 70.5 395.5 70.5" fill="none" opacity="1" stroke="#000000" stroke-linecap="butt" stroke-linejoin="miter" stroke-width="1"/>
<path d="M505.5 150.5C505.5 133.833 513 125.5 528 125.5C543 125.5 550.54 117.03 550.62 100.09" fill="none" opacity="1" stroke="#000000" stroke-linecap="butt" stroke-linejoin="miter" stroke-width="1"/>
<path d="M475.5 150.5C475.5 150.5 475.5 117.167 475.5 50.5" fill="none" opacity="1" stroke="#000000" stroke-linecap="butt" stroke-linejoin="miter" stroke-width="1"/>
<path d="M421.5 150.5L529.5 150.5C532.814 150.5 535.5 153.186 535.5 156.5L535.5 184.5C535.5 187.814 532.814 190.5 529.5 190.5L421.5 190.5C418.186 190.5 415.5 187.814 415.5 184.5L415.5 156.5C415.5 153.186 418.186 150.5 421.5 150.5Z" fill="#1f6286" fill-rule="nonzero" opacity="1" stroke="#000000" stroke-linecap="butt" stroke-linejoin="miter" stroke-width="1"/>
<text fill="#ffffff" font-family="Helvetica" font-size="9.6" opacity="1" stroke="none" text-anchor="middle" transform="matrix(1 0 0 1 446.723 167)" x="0" y="0">
<tspan textLength="56.5547" x="29.7773" y="9">Classification</tspan>
</text>
<path d="M750.5 100.5C750.5 87.1667 743.833 80.5 730.5 80.5C717.167 80.5 710.5 73.8333 710.5 60.5" fill="none" opacity="1" stroke="#000000" stroke-linecap="butt" stroke-linejoin="miter" stroke-width="1"/>
<path d="M720.5 120.5C680.5 120.5 660.5 110.5 660.5 90.5" fill="none" opacity="1" stroke="#000000" stroke-linecap="butt" stroke-linejoin="miter" stroke-width="1"/>
<path d="M750.5 140.5C750.5 160.5 740.5 170.5 720.5 170.5" fill="none" opacity="1" stroke="#000000" stroke-linecap="butt" stroke-linejoin="miter" stroke-width="1"/>
<path d="M726.5 100.5L834.5 100.5C837.814 100.5 840.5 103.186 840.5 106.5L840.5 134.5C840.5 137.814 837.814 140.5 834.5 140.5L726.5 140.5C723.186 140.5 720.5 137.814 720.5 134.5L720.5 106.5C720.5 103.186 723.186 100.5 726.5 100.5Z" fill="#878787" fill-rule="nonzero" opacity="1" stroke="#000000" stroke-linecap="butt" stroke-linejoin="miter" stroke-width="1"/>
<text fill="#ffffff" font-family="Helvetica" font-size="9.6" opacity="1" stroke="none" text-anchor="middle" transform="matrix(1 0 0 1 758.391 117)" x="0" y="0">
<tspan textLength="43.2188" x="23.1094" y="9">Clustering</tspan>
</text>
<path d="M1020.5 230.5C1020.5 203.833 1027.17 190.5 1040.5 190.5" fill="none" opacity="1" stroke="#000000" stroke-linecap="butt" stroke-linejoin="miter" stroke-width="1"/>
<path d="M1050.5 240.5C1065.83 240.5 1073.5 237.167 1073.5 230.5C1073.5 223.833 1080.83 220.5 1095.5 220.5" fill="none" opacity="1" stroke="#000000" stroke-linecap="butt" stroke-linejoin="miter" stroke-width="1"/>
<path d="M1050.5 250.5C1050.5 250.5 1072.17 250.5 1115.5 250.5" fill="none" opacity="1" stroke="#000000" stroke-linecap="butt" stroke-linejoin="miter" stroke-width="1"/>
<path d="M1050.5 260.5C1067.17 260.5 1075.5 265.5 1075.5 275.5C1075.5 285.5 1083.83 290.5 1100.5 290.5" fill="none" opacity="1" stroke="#000000" stroke-linecap="butt" stroke-linejoin="miter" stroke-width="1"/>
<path d="M1020.5 270.5C1020.5 270.5 1020.5 280.5 1020.5 300.5" fill="none" opacity="1" stroke="#000000" stroke-linecap="butt" stroke-linejoin="miter" stroke-width="1"/>
<path d="M936.5 230.5L1044.5 230.5C1047.81 230.5 1050.5 233.186 1050.5 236.5L1050.5 264.5C1050.5 267.814 1047.81 270.5 1044.5 270.5L936.5 270.5C933.186 270.5 930.5 267.814 930.5 264.5L930.5 236.5C930.5 233.186 933.186 230.5 936.5 230.5Z" fill="#878787" fill-rule="nonzero" opacity="1" stroke="#000000" stroke-linecap="butt" stroke-linejoin="miter" stroke-width="1"/>
<text fill="#ffffff" font-family="Helvetica" font-size="9.6" opacity="1" stroke="none" text-anchor="middle" transform="matrix(1 0 0 1 935.841 247)" x="0" y="0">
<tspan textLength="108.319" x="55.6594" y="9">Dimensionality Reduction</tspan>
</text>
<path d="M926.5 120.5L1034.5 120.5C1037.81 120.5 1040.5 123.186 1040.5 126.5L1040.5 154.5C1040.5 157.814 1037.81 160.5 1034.5 160.5L926.5 160.5C923.186 160.5 920.5 157.814 920.5 154.5L920.5 126.5C920.5 123.186 923.186 120.5 926.5 120.5Z" fill="#878787" fill-rule="nonzero" opacity="1" stroke="#000000" stroke-linecap="butt" stroke-linejoin="miter" stroke-width="1"/>
<text fill="#ffffff" font-family="Helvetica" font-size="9.6" opacity="1" stroke="none" text-anchor="middle" transform="matrix(1 0 0 1 924.233 137)" x="0" y="0">
<tspan textLength="111.534" x="57.2672" y="9">Association Rule Learning</tspan>
</text>
<path d="M260.5 500.5C260.5 500.5 260.5 510.5 260.5 530.5" fill="none" opacity="1" stroke="#000000" stroke-linecap="butt" stroke-linejoin="miter" stroke-width="1"/>
<path d="M200.5 470.5C200.5 470.5 190.5 470.5 170.5 470.5" fill="none" opacity="1" stroke="#000000" stroke-linecap="butt" stroke-linejoin="miter" stroke-width="1"/>
<path d="M260.5 440.5C260.5 427.167 263.833 420.5 270.5 420.5C277.167 420.5 280.5 413.833 280.5 400.5" fill="none" opacity="1" stroke="#000000" stroke-linecap="butt" stroke-linejoin="miter" stroke-width="1"/>
<path d="M230.5 440.5C230.5 427.167 217.167 420.5 190.5 420.5" fill="none" opacity="1" stroke="#000000" stroke-linecap="butt" stroke-linejoin="miter" stroke-width="1"/>
<path d="M200.5 485.5C163.833 485.5 145.5 500.5 145.5 530.5" fill="none" opacity="1" stroke="#000000" stroke-linecap="butt" stroke-linejoin="miter" stroke-width="1"/>
<path d="M209.5 440.5L311.5 440.5C316.471 440.5 320.5 444.529 320.5 449.5L320.5 491.5C320.5 496.471 316.471 500.5 311.5 500.5L209.5 500.5C204.529 500.5 200.5 496.471 200.5 491.5L200.5 449.5C200.5 444.529 204.529 440.5 209.5 440.5Z" fill="#878787" fill-rule="nonzero" opacity="1" stroke="#000000" stroke-linecap="butt" stroke-linejoin="miter" stroke-width="1"/>
<text fill="#ffffff" font-family="Helvetica" font-size="11.2" opacity="1" stroke="none" text-anchor="middle" transform="matrix(1 0 0 1 200.232 466)" x="0" y="0">
<tspan textLength="119.536" x="61.268" y="11">Reinforcement Learning</tspan>
</text>
<path d="M830.5 440.5C830.5 400.5 855.043 380.5 904.13 380.5" fill="none" opacity="1" stroke="#000000" stroke-linecap="butt" stroke-linejoin="miter" stroke-width="1"/>
<path d="M909.38 380.5L902.38 384L904.13 380.5L902.38 377L909.38 380.5Z" fill="#000000" fill-rule="nonzero" opacity="1" stroke="#000000" stroke-linecap="butt" stroke-linejoin="miter" stroke-width="1"/>
<path d="M890.5 470.5C890.5 470.5 918.377 470.5 974.13 470.5" fill="none" opacity="1" stroke="#000000" stroke-linecap="butt" stroke-linejoin="miter" stroke-width="1"/>
<path d="M979.38 470.5L972.38 474L974.13 470.5L972.38 467L979.38 470.5Z" fill="#000000" fill-rule="nonzero" opacity="1" stroke="#000000" stroke-linecap="butt" stroke-linejoin="miter" stroke-width="1"/>
<path d="M830.5 500.5C830.5 540.5 855.043 560.5 904.13 560.5" fill="none" opacity="1" stroke="#000000" stroke-linecap="butt" stroke-linejoin="miter" stroke-width="1"/>
<path d="M909.38 560.5L902.38 564L904.13 560.5L902.38 557L909.38 560.5Z" fill="#000000" fill-rule="nonzero" opacity="1" stroke="#000000" stroke-linecap="butt" stroke-linejoin="miter" stroke-width="1"/>
<path d="M779.5 440.5L881.5 440.5C886.471 440.5 890.5 444.529 890.5 449.5L890.5 491.5C890.5 496.471 886.471 500.5 881.5 500.5L779.5 500.5C774.529 500.5 770.5 496.471 770.5 491.5L770.5 449.5C770.5 444.529 774.529 440.5 779.5 440.5Z" fill="#878787" fill-rule="nonzero" opacity="1" stroke="#000000" stroke-linecap="butt" stroke-linejoin="miter" stroke-width="1"/>
<text fill="#ffffff" font-family="Helvetica" font-size="11.2" opacity="1" stroke="none" text-anchor="middle" transform="matrix(1 0 0 1 781.746 466)" x="0" y="0">
<tspan textLength="96.507" x="49.7535" y="11">Ensemble Learning</tspan>
</text>
<path d="M490.5 570.5C350.5 570.5 280.5 591.71 280.5 634.13" fill="none" opacity="1" stroke="#000000" stroke-linecap="butt" stroke-linejoin="miter" stroke-width="1"/>
<path d="M280.5 639.38L277 632.38L280.5 634.13L284 632.38L280.5 639.38Z" fill="#000000" fill-rule="nonzero" opacity="1" stroke="#000000" stroke-linecap="butt" stroke-linejoin="miter" stroke-width="1"/>
<path d="M520.5 600.5C520.5 637.167 498.833 655.5 455.5 655.5C412.167 655.5 390.5 671.71 390.5 704.13" fill="none" opacity="1" stroke="#000000" stroke-linecap="butt" stroke-linejoin="miter" stroke-width="1"/>
<path d="M390.5 709.38L387 702.38L390.5 704.13L394 702.38L390.5 709.38Z" fill="#000000" fill-rule="nonzero" opacity="1" stroke="#000000" stroke-linecap="butt" stroke-linejoin="miter" stroke-width="1"/>
<path d="M550.5 600.5C550.5 600.5 550.5 635.043 550.5 704.13" fill="none" opacity="1" stroke="#000000" stroke-linecap="butt" stroke-linejoin="miter" stroke-width="1"/>
<path d="M550.5 709.38L547 702.38L550.5 704.13L554 702.38L550.5 709.38Z" fill="#000000" fill-rule="nonzero" opacity="1" stroke="#000000" stroke-linecap="butt" stroke-linejoin="miter" stroke-width="1"/>
<path d="M580.5 600.5C580.5 637.167 600.5 655.5 640.5 655.5C680.5 655.5 700.5 671.71 700.5 704.13" fill="none" opacity="1" stroke="#000000" stroke-linecap="butt" stroke-linejoin="miter" stroke-width="1"/>
<path d="M700.5 709.38L697 702.38L700.5 704.13L704 702.38L700.5 709.38Z" fill="#000000" fill-rule="nonzero" opacity="1" stroke="#000000" stroke-linecap="butt" stroke-linejoin="miter" stroke-width="1"/>
<path d="M610.5 570.5C743.833 570.5 810.5 591.71 810.5 634.13" fill="none" opacity="1" stroke="#000000" stroke-linecap="butt" stroke-linejoin="miter" stroke-width="1"/>
<path d="M810.5 639.38L807 632.38L810.5 634.13L814 632.38L810.5 639.38Z" fill="#000000" fill-rule="nonzero" opacity="1" stroke="#000000" stroke-linecap="butt" stroke-linejoin="miter" stroke-width="1"/>
<path d="M471.309 540.5L629.994 540.5C637.727 540.5 643.996 544.529 643.996 549.5L643.996 591.5C643.996 596.471 637.727 600.5 629.994 600.5L471.309 600.5C463.576 600.5 457.308 596.471 457.308 591.5L457.308 549.5C457.308 544.529 463.576 540.5 471.309 540.5Z" fill="#1f6286" fill-rule="nonzero" opacity="1" stroke="#000000" stroke-linecap="butt" stroke-linejoin="miter" stroke-width="1"/>
<text fill="#ffffff" font-family="Helvetica" font-size="11.2" opacity="1" stroke="none" text-anchor="middle" transform="matrix(1 0 0 1 459.416 566)" x="0" y="0">
<tspan textLength="181.169" x="92.0844" y="11">Neural Networks and Deep Learning</tspan>
</text>
<path d="M280.5 680.5C280.5 693.833 272.167 700.5 255.5 700.5C238.833 700.5 230.5 703.833 230.5 710.5" fill="none" opacity="1" stroke="#000000" stroke-linecap="butt" stroke-linejoin="miter" stroke-width="1"/>
<path d="M208.587 640.5L355.593 640.5C360.104 640.5 363.76 643.186 363.76 646.5L363.76 674.5C363.76 677.814 360.104 680.5 355.593 680.5L208.587 680.5C204.077 680.5 200.42 677.814 200.42 674.5L200.42 646.5C200.42 643.186 204.077 640.5 208.587 640.5Z" fill="#1f6286" fill-rule="nonzero" opacity="1" stroke="#000000" stroke-linecap="butt" stroke-linejoin="miter" stroke-width="1"/>
<text fill="#ffffff" font-family="Helvetica" font-size="9.6" opacity="1" stroke="none" text-anchor="middle" transform="matrix(1 0 0 1 199.173 657)" x="0" y="0">
<tspan textLength="161.653" x="82.3266" y="9">Convolutional Neural Networks (CNN)</tspan>
</text>
<path d="M193.5 710.5L267.5 710.5C269.157 710.5 270.5 711.843 270.5 713.5L270.5 727.5C270.5 729.157 269.157 730.5 267.5 730.5L193.5 730.5C191.843 730.5 190.5 729.157 190.5 727.5L190.5 713.5C190.5 711.843 191.843 710.5 193.5 710.5Z" fill="#ffffff" fill-rule="nonzero" opacity="1" stroke="#000000" stroke-linecap="butt" stroke-linejoin="miter" stroke-width="1"/>
<text fill="#000000" font-family="Helvetica" font-size="9.6" opacity="1" stroke="none" text-anchor="middle" transform="matrix(1 0 0 1 216.134 717)" x="0" y="0">
<tspan textLength="27.7313" x="15.3656" y="9">DCNN</tspan>
</text>
<path d="M360.5 750.5C360.5 763.833 355.5 770.5 345.5 770.5C335.5 770.5 330.5 777.167 330.5 790.5" fill="none" opacity="1" stroke="#000000" stroke-linecap="butt" stroke-linejoin="miter" stroke-width="1"/>
<path d="M390.5 750.5C390.5 750.5 390.5 773.833 390.5 820.5" fill="none" opacity="1" stroke="#000000" stroke-linecap="butt" stroke-linejoin="miter" stroke-width="1"/>
<path d="M420.5 750.5C420.5 763.833 425.5 770.5 435.5 770.5C445.5 770.5 450.5 777.167 450.5 790.5" fill="none" opacity="1" stroke="#000000" stroke-linecap="butt" stroke-linejoin="miter" stroke-width="1"/>
<path d="M311.303 711.141L443.47 711.141C447.526 711.141 450.813 713.827 450.813 717.141L450.813 745.141C450.813 748.455 447.526 751.141 443.47 751.141L311.303 751.141C307.248 751.141 303.96 748.455 303.96 745.141L303.96 717.141C303.96 713.827 307.248 711.141 311.303 711.141Z" fill="#1f6286" fill-rule="nonzero" opacity="1" stroke="#000000" stroke-linecap="butt" stroke-linejoin="miter" stroke-width="1"/>
<text fill="#ffffff" font-family="Helvetica" font-size="9.6" opacity="1" stroke="none" text-anchor="middle" transform="matrix(1 0 0 1 303.768 726.503)" x="0" y="0">
<tspan textLength="145.631" x="74.3156" y="9">Recurrent Neural Networks (RNN)</tspan>
</text>
<path d="M473.078 710.5L628.105 710.5C632.862 710.5 636.718 713.186 636.718 716.5L636.718 744.5C636.718 747.814 632.862 750.5 628.105 750.5L473.078 750.5C468.322 750.5 464.466 747.814 464.466 744.5L464.466 716.5C464.466 713.186 468.322 710.5 473.078 710.5Z" fill="#1f6286" fill-rule="nonzero" opacity="1" stroke="#000000" stroke-linecap="butt" stroke-linejoin="miter" stroke-width="1"/>
<text fill="#ffffff" font-family="Helvetica" font-size="9.6" opacity="1" stroke="none" text-anchor="middle" transform="matrix(1 0 0 1 465.17 727)" x="0" y="0">
<tspan textLength="169.659" x="86.3297" y="9">Generative Adversarial Networks (GAN)</tspan>
</text>
<path d="M646.5 710.5L754.5 710.5C757.814 710.5 760.5 713.186 760.5 716.5L760.5 744.5C760.5 747.814 757.814 750.5 754.5 750.5L646.5 750.5C643.186 750.5 640.5 747.814 640.5 744.5L640.5 716.5C640.5 713.186 643.186 710.5 646.5 710.5Z" fill="#878787" fill-rule="nonzero" opacity="1" stroke="#000000" stroke-linecap="butt" stroke-linejoin="miter" stroke-width="1"/>
<text fill="#ffffff" font-family="Helvetica" font-size="9.6" opacity="1" stroke="none" text-anchor="middle" transform="matrix(1 0 0 1 670.38 727)" x="0" y="0">
<tspan textLength="59.2406" x="31.1203" y="9">Autoencoders</tspan>
</text>
<path d="M756.5 640.5L864.5 640.5C867.814 640.5 870.5 643.186 870.5 646.5L870.5 674.5C870.5 677.814 867.814 680.5 864.5 680.5L756.5 680.5C753.186 680.5 750.5 677.814 750.5 674.5L750.5 646.5C750.5 643.186 753.186 640.5 756.5 640.5Z" fill="#878787" fill-rule="nonzero" opacity="1" stroke="#000000" stroke-linecap="butt" stroke-linejoin="miter" stroke-width="1"/>
<text fill="#ffffff" font-family="Helvetica" font-size="9.6" opacity="1" stroke="none" text-anchor="middle" transform="matrix(1 0 0 1 784.12 657)" x="0" y="0">
<tspan textLength="51.7594" x="27.3797" y="9">Perceptrons</tspan>
</text>
<path d="M916.5 360.5L1024.5 360.5C1027.81 360.5 1030.5 363.186 1030.5 366.5L1030.5 394.5C1030.5 397.814 1027.81 400.5 1024.5 400.5L916.5 400.5C913.186 400.5 910.5 397.814 910.5 394.5L910.5 366.5C910.5 363.186 913.186 360.5 916.5 360.5Z" fill="#878787" fill-rule="nonzero" opacity="1" stroke="#000000" stroke-linecap="butt" stroke-linejoin="miter" stroke-width="1"/>
<text fill="#ffffff" font-family="Helvetica" font-size="9.6" opacity="1" stroke="none" text-anchor="middle" transform="matrix(1 0 0 1 951.59 377)" x="0" y="0">
<tspan textLength="36.8203" x="19.9102" y="9">Stacking</tspan>
</text>
<path d="M1100.5 470.5C1133.83 470.5 1150.5 453.833 1150.5 420.5" fill="none" opacity="1" stroke="#000000" stroke-linecap="butt" stroke-linejoin="miter" stroke-width="1"/>
<path d="M986.5 450.5L1094.5 450.5C1097.81 450.5 1100.5 453.186 1100.5 456.5L1100.5 484.5C1100.5 487.814 1097.81 490.5 1094.5 490.5L986.5 490.5C983.186 490.5 980.5 487.814 980.5 484.5L980.5 456.5C980.5 453.186 983.186 450.5 986.5 450.5Z" fill="#878787" fill-rule="nonzero" opacity="1" stroke="#000000" stroke-linecap="butt" stroke-linejoin="miter" stroke-width="1"/>
<text fill="#ffffff" font-family="Helvetica" font-size="9.6" opacity="1" stroke="none" text-anchor="middle" transform="matrix(1 0 0 1 1022.38 467)" x="0" y="0">
<tspan textLength="35.2313" x="19.1156" y="9">Bagging</tspan>
</text>
<path d="M970.5 580.5C970.5 593.833 967.167 600.5 960.5 600.5C953.833 600.5 950.5 607.167 950.5 620.5" fill="none" opacity="1" stroke="#000000" stroke-linecap="butt" stroke-linejoin="miter" stroke-width="1"/>
<path d="M1000.5 580.5C1000.5 597.167 1010.5 605.5 1030.5 605.5C1050.5 605.5 1060.5 613.833 1060.5 630.5" fill="none" opacity="1" stroke="#000000" stroke-linecap="butt" stroke-linejoin="miter" stroke-width="1"/>
<path d="M1030.5 570.5C1047.17 570.5 1055.5 573.833 1055.5 580.5C1055.5 587.167 1063.83 590.5 1080.5 590.5" fill="none" opacity="1" stroke="#000000" stroke-linecap="butt" stroke-linejoin="miter" stroke-width="1"/>
<path d="M1030.5 550.5C1043.83 550.5 1050.5 547.167 1050.5 540.5C1050.5 533.833 1057.17 530.5 1070.5 530.5" fill="none" opacity="1" stroke="#000000" stroke-linecap="butt" stroke-linejoin="miter" stroke-width="1"/>
<path d="M916.5 540.5L1024.5 540.5C1027.81 540.5 1030.5 543.186 1030.5 546.5L1030.5 574.5C1030.5 577.814 1027.81 580.5 1024.5 580.5L916.5 580.5C913.186 580.5 910.5 577.814 910.5 574.5L910.5 546.5C910.5 543.186 913.186 540.5 916.5 540.5Z" fill="#878787" fill-rule="nonzero" opacity="1" stroke="#000000" stroke-linecap="butt" stroke-linejoin="miter" stroke-width="1"/>
<text fill="#ffffff" font-family="Helvetica" font-size="9.6" opacity="1" stroke="none" text-anchor="middle" transform="matrix(1 0 0 1 951.32 557)" x="0" y="0">
<tspan textLength="37.3594" x="20.1797" y="9">Boosting</tspan>
</text>
<path d="M293.5 790.5L367.5 790.5C369.157 790.5 370.5 791.843 370.5 793.5L370.5 807.5C370.5 809.157 369.157 810.5 367.5 810.5L293.5 810.5C291.843 810.5 290.5 809.157 290.5 807.5L290.5 793.5C290.5 791.843 291.843 790.5 293.5 790.5Z" fill="#ffffff" fill-rule="nonzero" opacity="1" stroke="#000000" stroke-linecap="butt" stroke-linejoin="miter" stroke-width="1"/>
<text fill="#000000" font-family="Helvetica" font-size="9.6" opacity="1" stroke="none" text-anchor="middle" transform="matrix(1 0 0 1 320.13 797)" x="0" y="0">
<tspan textLength="19.7391" x="11.3695" y="9">LSM</tspan>
</text>
<path d="M353.5 820.5L427.5 820.5C429.157 820.5 430.5 821.843 430.5 823.5L430.5 837.5C430.5 839.157 429.157 840.5 427.5 840.5L353.5 840.5C351.843 840.5 350.5 839.157 350.5 837.5L350.5 823.5C350.5 821.843 351.843 820.5 353.5 820.5Z" fill="#ffffff" fill-rule="nonzero" opacity="1" stroke="#000000" stroke-linecap="butt" stroke-linejoin="miter" stroke-width="1"/>
<text fill="#000000" font-family="Helvetica" font-size="9.6" opacity="1" stroke="none" text-anchor="middle" transform="matrix(1 0 0 1 377.198 827)" x="0" y="0">
<tspan textLength="25.6031" x="14.3016" y="9">LSTM</tspan>
</text>
<path d="M413.5 790.5L487.5 790.5C489.157 790.5 490.5 791.843 490.5 793.5L490.5 807.5C490.5 809.157 489.157 810.5 487.5 810.5L413.5 810.5C411.843 810.5 410.5 809.157 410.5 807.5L410.5 793.5C410.5 791.843 411.843 790.5 413.5 790.5Z" fill="#ffffff" fill-rule="nonzero" opacity="1" stroke="#000000" stroke-linecap="butt" stroke-linejoin="miter" stroke-width="1"/>
<text fill="#000000" font-family="Helvetica" font-size="9.6" opacity="1" stroke="none" text-anchor="middle" transform="matrix(1 0 0 1 439.334 797)" x="0" y="0">
<tspan textLength="21.3328" x="12.1664" y="9">GRU</tspan>
</text>
<path d="M700.5 770.5C700.5 757.167 700.5 753.833 700.5 760.5C700.5 767.167 700.5 763.833 700.5 750.5" fill="none" opacity="1" stroke="#000000" stroke-linecap="butt" stroke-linejoin="miter" stroke-width="1"/>
<path d="M663.5 770.5L737.5 770.5C739.157 770.5 740.5 771.843 740.5 773.5L740.5 787.5C740.5 789.157 739.157 790.5 737.5 790.5L663.5 790.5C661.843 790.5 660.5 789.157 660.5 787.5L660.5 773.5C660.5 771.843 661.843 770.5 663.5 770.5Z" fill="#ffffff" fill-rule="nonzero" opacity="1" stroke="#000000" stroke-linecap="butt" stroke-linejoin="miter" stroke-width="1"/>
<text fill="#000000" font-family="Helvetica" font-size="9.6" opacity="1" stroke="none" text-anchor="middle" transform="matrix(1 0 0 1 681.852 777)" x="0" y="0">
<tspan textLength="36.2953" x="19.6477" y="9">seq2seq</tspan>
</text>
<path d="M243.5 380.5L317.5 380.5C319.157 380.5 320.5 381.843 320.5 383.5L320.5 397.5C320.5 399.157 319.157 400.5 317.5 400.5L243.5 400.5C241.843 400.5 240.5 399.157 240.5 397.5L240.5 383.5C240.5 381.843 241.843 380.5 243.5 380.5Z" fill="#ffffff" fill-rule="nonzero" opacity="1" stroke="#000000" stroke-linecap="butt" stroke-linejoin="miter" stroke-width="1"/>
<text fill="#000000" font-family="Helvetica" font-size="9.6" opacity="1" stroke="none" text-anchor="middle" transform="matrix(1 0 0 1 255.986 387)" x="0" y="0">
<tspan textLength="48.0281" x="25.5141" y="9">Q-Learning</tspan>
</text>
<path d="M113.5 410.5L187.5 410.5C189.157 410.5 190.5 411.843 190.5 413.5L190.5 427.5C190.5 429.157 189.157 430.5 187.5 430.5L113.5 430.5C111.843 430.5 110.5 429.157 110.5 427.5L110.5 413.5C110.5 411.843 111.843 410.5 113.5 410.5Z" fill="#ffffff" fill-rule="nonzero" opacity="1" stroke="#000000" stroke-linecap="butt" stroke-linejoin="miter" stroke-width="1"/>
<text fill="#000000" font-family="Helvetica" font-size="9.6" opacity="1" stroke="none" text-anchor="middle" transform="matrix(1 0 0 1 139.334 417)" x="0" y="0">
<tspan textLength="21.3328" x="12.1664" y="9">DQN</tspan>
</text>
<path d="M93.5 460.5L167.5 460.5C169.157 460.5 170.5 461.843 170.5 463.5L170.5 477.5C170.5 479.157 169.157 480.5 167.5 480.5L93.5 480.5C91.8431 480.5 90.5 479.157 90.5 477.5L90.5 463.5C90.5 461.843 91.8431 460.5 93.5 460.5Z" fill="#ffffff" fill-rule="nonzero" opacity="1" stroke="#000000" stroke-linecap="butt" stroke-linejoin="miter" stroke-width="1"/>
<text fill="#000000" font-family="Helvetica" font-size="9.6" opacity="1" stroke="none" text-anchor="middle" transform="matrix(1 0 0 1 113.727 467)" x="0" y="0">
<tspan textLength="32.5453" x="17.7727" y="9">SARSA</tspan>
</text>
<path d="M93.5 530.5L197.5 530.5C199.157 530.5 200.5 531.843 200.5 533.5L200.5 547.5C200.5 549.157 199.157 550.5 197.5 550.5L93.5 550.5C91.8431 550.5 90.5 549.157 90.5 547.5L90.5 533.5C90.5 531.843 91.8431 530.5 93.5 530.5Z" fill="#ffffff" fill-rule="nonzero" opacity="1" stroke="#000000" stroke-linecap="butt" stroke-linejoin="miter" stroke-width="1"/>
<text fill="#000000" font-family="Helvetica" font-size="9.6" opacity="1" stroke="none" text-anchor="middle" transform="matrix(1 0 0 1 107.113 537)" x="0" y="0">
<tspan textLength="75.7734" x="39.3867" y="9">Genetic Algorithm</tspan>
</text>
<path d="M223.5 530.5L297.5 530.5C299.157 530.5 300.5 531.843 300.5 533.5L300.5 547.5C300.5 549.157 299.157 550.5 297.5 550.5L223.5 550.5C221.843 550.5 220.5 549.157 220.5 547.5L220.5 533.5C220.5 531.843 221.843 530.5 223.5 530.5Z" fill="#ffffff" fill-rule="nonzero" opacity="1" stroke="#000000" stroke-linecap="butt" stroke-linejoin="miter" stroke-width="1"/>
<text fill="#000000" font-family="Helvetica" font-size="9.6" opacity="1" stroke="none" text-anchor="middle" transform="matrix(1 0 0 1 250.662 537)" x="0" y="0">
<tspan textLength="18.675" x="10.8375" y="9">A3C</tspan>
</text>
<path d="M1103.5 400.5L1197.5 400.5C1199.16 400.5 1200.5 401.843 1200.5 403.5L1200.5 417.5C1200.5 419.157 1199.16 420.5 1197.5 420.5L1103.5 420.5C1101.84 420.5 1100.5 419.157 1100.5 417.5L1100.5 403.5C1100.5 401.843 1101.84 400.5 1103.5 400.5Z" fill="#ffffff" fill-rule="nonzero" opacity="1" stroke="#000000" stroke-linecap="butt" stroke-linejoin="miter" stroke-width="1"/>
<text fill="#000000" font-family="Helvetica" font-size="9.6" opacity="1" stroke="none" text-anchor="middle" transform="matrix(1 0 0 1 1116.92 407)" x="0" y="0">
<tspan textLength="66.1594" x="34.5797" y="9">Random Forest</tspan>
</text>
<path d="M1073.5 520.5L1147.5 520.5C1149.16 520.5 1150.5 521.843 1150.5 523.5L1150.5 537.5C1150.5 539.157 1149.16 540.5 1147.5 540.5L1073.5 540.5C1071.84 540.5 1070.5 539.157 1070.5 537.5L1070.5 523.5C1070.5 521.843 1071.84 520.5 1073.5 520.5Z" fill="#ffffff" fill-rule="nonzero" opacity="1" stroke="#000000" stroke-linecap="butt" stroke-linejoin="miter" stroke-width="1"/>
<text fill="#000000" font-family="Helvetica" font-size="9.6" opacity="1" stroke="none" text-anchor="middle" transform="matrix(1 0 0 1 1090.79 527)" x="0" y="0">
<tspan textLength="38.4188" x="20.7094" y="9">XGBoost</tspan>
</text>
<path d="M1083.5 580.5L1157.5 580.5C1159.16 580.5 1160.5 581.843 1160.5 583.5L1160.5 597.5C1160.5 599.157 1159.16 600.5 1157.5 600.5L1083.5 600.5C1081.84 600.5 1080.5 599.157 1080.5 597.5L1080.5 583.5C1080.5 581.843 1081.84 580.5 1083.5 580.5Z" fill="#ffffff" fill-rule="nonzero" opacity="1" stroke="#000000" stroke-linecap="butt" stroke-linejoin="miter" stroke-width="1"/>
<text fill="#000000" font-family="Helvetica" font-size="9.6" opacity="1" stroke="none" text-anchor="middle" transform="matrix(1 0 0 1 1098.66 587)" x="0" y="0">
<tspan textLength="42.6844" x="22.8422" y="9">LightGBM</tspan>
</text>
<path d="M1023.5 630.5L1097.5 630.5C1099.16 630.5 1100.5 631.843 1100.5 633.5L1100.5 647.5C1100.5 649.157 1099.16 650.5 1097.5 650.5L1023.5 650.5C1021.84 650.5 1020.5 649.157 1020.5 647.5L1020.5 633.5C1020.5 631.843 1021.84 630.5 1023.5 630.5Z" fill="#ffffff" fill-rule="nonzero" opacity="1" stroke="#000000" stroke-linecap="butt" stroke-linejoin="miter" stroke-width="1"/>
<text fill="#000000" font-family="Helvetica" font-size="9.6" opacity="1" stroke="none" text-anchor="middle" transform="matrix(1 0 0 1 1040.26 637)" x="0" y="0">
<tspan textLength="39.4875" x="21.2438" y="9">CatBoost</tspan>
</text>
<path d="M913.5 620.5L987.5 620.5C989.157 620.5 990.5 621.843 990.5 623.5L990.5 637.5C990.5 639.157 989.157 640.5 987.5 640.5L913.5 640.5C911.843 640.5 910.5 639.157 910.5 637.5L910.5 623.5C910.5 621.843 911.843 620.5 913.5 620.5Z" fill="#ffffff" fill-rule="nonzero" opacity="1" stroke="#000000" stroke-linecap="butt" stroke-linejoin="miter" stroke-width="1"/>
<text fill="#000000" font-family="Helvetica" font-size="9.6" opacity="1" stroke="none" text-anchor="middle" transform="matrix(1 0 0 1 929.185 627)" x="0" y="0">
<tspan textLength="41.6297" x="22.3148" y="9">AdaBoost</tspan>
</text>
<path d="M48.4791 70.5L118.279 70.5C122.267 70.5 125.5 73.1863 125.5 76.5L125.5 104.5C125.5 107.814 122.267 110.5 118.279 110.5L48.4791 110.5C44.4912 110.5 41.2583 107.814 41.2583 104.5L41.2583 76.5C41.2583 73.1863 44.4912 70.5 48.4791 70.5Z" fill="#ffffff" fill-rule="nonzero" opacity="1" stroke="#000000" stroke-linecap="butt" stroke-linejoin="miter" stroke-width="1"/>
<text fill="#000000" font-family="Helvetica" font-size="9.6" opacity="1" stroke="none" text-anchor="middle" transform="matrix(1 0 0 1 42.5039 87)" x="0" y="0">
<tspan textLength="77.9109" x="40.4555" y="9">Linear Regression</tspan>
</text>
<path d="M156.53 70.5L248.844 70.5C253.342 70.5 256.989 73.1863 256.989 76.5L256.989 104.5C256.989 107.814 253.342 110.5 248.844 110.5L156.53 110.5C152.032 110.5 148.385 107.814 148.385 104.5L148.385 76.5C148.385 73.1863 152.032 70.5 156.53 70.5Z" fill="#ffffff" fill-rule="nonzero" opacity="1" stroke="#000000" stroke-linecap="butt" stroke-linejoin="miter" stroke-width="1"/>
<text fill="#000000" font-family="Helvetica" font-size="9.6" opacity="1" stroke="none" text-anchor="middle" transform="matrix(1 0 0 1 152.37 87)" x="0" y="0">
<tspan textLength="98.1797" x="50.5898" y="9">Polynomial Regression</tspan>
</text>
<path d="M8.79443 150.5L102.798 150.5C107.379 150.5 111.092 153.186 111.092 156.5L111.092 184.5C111.092 187.814 107.379 190.5 102.798 190.5L8.79443 190.5C4.21354 190.5 0.5 187.814 0.5 184.5L0.5 156.5C0.5 153.186 4.21354 150.5 8.79443 150.5Z" fill="#ffffff" fill-rule="nonzero" opacity="1" stroke="#000000" stroke-linecap="butt" stroke-linejoin="miter" stroke-width="1"/>
<text fill="#000000" font-family="Helvetica" font-size="9.6" opacity="1" stroke="none" text-anchor="middle" transform="matrix(1 0 0 1 1.74788 164.848)" x="0" y="0">
<tspan textLength="104.592" x="53.7961" y="9">Ridge/Lasso Regression</tspan>
</text>
<path d="M318.5 160.5L392.5 160.5C394.157 160.5 395.5 161.843 395.5 163.5L395.5 177.5C395.5 179.157 394.157 180.5 392.5 180.5L318.5 180.5C316.843 180.5 315.5 179.157 315.5 177.5L315.5 163.5C315.5 161.843 316.843 160.5 318.5 160.5Z" fill="#ffffff" fill-rule="nonzero" opacity="1" stroke="#000000" stroke-linecap="butt" stroke-linejoin="miter" stroke-width="1"/>
<text fill="#000000" font-family="Helvetica" font-size="9.6" opacity="1" stroke="none" text-anchor="middle" transform="matrix(1 0 0 1 343.267 167)" x="0" y="0">
<tspan textLength="23.4656" x="13.2328" y="9">K-NN</tspan>
</text>
<path d="M288.5 110.5L362.5 110.5C364.157 110.5 365.5 111.843 365.5 113.5L365.5 127.5C365.5 129.157 364.157 130.5 362.5 130.5L288.5 130.5C286.843 130.5 285.5 129.157 285.5 127.5L285.5 113.5C285.5 111.843 286.843 110.5 288.5 110.5Z" fill="#ffffff" fill-rule="nonzero" opacity="1" stroke="#000000" stroke-linecap="butt" stroke-linejoin="miter" stroke-width="1"/>
<text fill="#000000" font-family="Helvetica" font-size="9.6" opacity="1" stroke="none" text-anchor="middle" transform="matrix(1 0 0 1 298.054 117)" x="0" y="0">
<tspan textLength="53.8922" x="28.4461" y="9">Naive Bayes</tspan>
</text>
<path d="M438.5 30.5L512.5 30.5C514.157 30.5 515.5 31.8431 515.5 33.5L515.5 47.5C515.5 49.1569 514.157 50.5 512.5 50.5L438.5 50.5C436.843 50.5 435.5 49.1569 435.5 47.5L435.5 33.5C435.5 31.8431 436.843 30.5 438.5 30.5Z" fill="#ffffff" fill-rule="nonzero" opacity="1" stroke="#000000" stroke-linecap="butt" stroke-linejoin="miter" stroke-width="1"/>
<text fill="#000000" font-family="Helvetica" font-size="9.6" opacity="1" stroke="none" text-anchor="middle" transform="matrix(1 0 0 1 464.598 37)" x="0" y="0">
<tspan textLength="20.8031" x="11.9016" y="9">SVM</tspan>
</text>
<path d="M504.575 60.5L574.187 60.5C578.539 60.5 582.067 63.1863 582.067 66.5L582.067 94.5C582.067 97.8137 578.539 100.5 574.187 100.5L504.575 100.5C500.223 100.5 496.695 97.8137 496.695 94.5L496.695 66.5C496.695 63.1863 500.223 60.5 504.575 60.5Z" fill="#ffffff" fill-rule="nonzero" opacity="1" stroke="#000000" stroke-linecap="butt" stroke-linejoin="miter" stroke-width="1"/>
<text fill="#000000" font-family="Helvetica" font-size="9.6" opacity="1" stroke="none" text-anchor="middle" transform="matrix(1 0 0 1 504.564 75.0135)" x="0" y="0">
<tspan textLength="63.5016" x="33.2508" y="9">Decision Trees</tspan>
</text>
<path d="M307.535 50.5L404.677 50.5C409.411 50.5 413.248 53.1863 413.248 56.5L413.248 84.5C413.248 87.8137 409.411 90.5 404.677 90.5L307.535 90.5C302.801 90.5 298.964 87.8137 298.964 84.5L298.964 56.5C298.964 53.1863 302.801 50.5 307.535 50.5Z" fill="#ffffff" fill-rule="nonzero" opacity="1" stroke="#000000" stroke-linecap="butt" stroke-linejoin="miter" stroke-width="1"/>
<text fill="#000000" font-family="Helvetica" font-size="9.6" opacity="1" stroke="none" text-anchor="middle" transform="matrix(1 0 0 1 311.523 64.3684)" x="0" y="0">
<tspan textLength="83.775" x="43.3875" y="9">Logistic Regression</tspan>
</text>
<path d="M673.5 40.5L747.5 40.5C749.157 40.5 750.5 41.8431 750.5 43.5L750.5 57.5C750.5 59.1569 749.157 60.5 747.5 60.5L673.5 60.5C671.843 60.5 670.5 59.1569 670.5 57.5L670.5 43.5C670.5 41.8431 671.843 40.5 673.5 40.5Z" fill="#ffffff" fill-rule="nonzero" opacity="1" stroke="#000000" stroke-linecap="butt" stroke-linejoin="miter" stroke-width="1"/>
<text fill="#000000" font-family="Helvetica" font-size="9.6" opacity="1" stroke="none" text-anchor="middle" transform="matrix(1 0 0 1 690.793 47)" x="0" y="0">
<tspan textLength="38.4141" x="20.707" y="9">K-Means</tspan>
</text>
<path d="M780.5 20.5C780.5 20.5 780.5 47.1667 780.5 100.5" fill="none" opacity="1" stroke="#000000" stroke-linecap="butt" stroke-linejoin="miter" stroke-width="1"/>
<path d="M743.5 0.5L817.5 0.5C819.157 0.5 820.5 1.84315 820.5 3.5L820.5 17.5C820.5 19.1569 819.157 20.5 817.5 20.5L743.5 20.5C741.843 20.5 740.5 19.1569 740.5 17.5L740.5 3.5C740.5 1.84315 741.843 0.5 743.5 0.5Z" fill="#ffffff" fill-rule="nonzero" opacity="1" stroke="#000000" stroke-linecap="butt" stroke-linejoin="miter" stroke-width="1"/>
<text fill="#000000" font-family="Helvetica" font-size="9.6" opacity="1" stroke="none" text-anchor="middle" transform="matrix(1 0 0 1 759.996 7)" x="0" y="0">
<tspan textLength="40.0078" x="21.5039" y="9">DBSCAN</tspan>
</text>
<path d="M855.5 60.5C855.5 73.8333 848 80.5 833 80.5C818 80.5 810.5 87.1667 810.5 100.5" fill="none" opacity="1" stroke="#000000" stroke-linecap="butt" stroke-linejoin="miter" stroke-width="1"/>
<path d="M813.5 40.5L897.5 40.5C899.157 40.5 900.5 41.8431 900.5 43.5L900.5 57.5C900.5 59.1569 899.157 60.5 897.5 60.5L813.5 60.5C811.843 60.5 810.5 59.1569 810.5 57.5L810.5 43.5C810.5 41.8431 811.843 40.5 813.5 40.5Z" fill="#ffffff" fill-rule="nonzero" opacity="1" stroke="#000000" stroke-linecap="butt" stroke-linejoin="miter" stroke-width="1"/>
<text fill="#000000" font-family="Helvetica" font-size="9.6" opacity="1" stroke="none" text-anchor="middle" transform="matrix(1 0 0 1 824.318 47)" x="0" y="0">
<tspan textLength="61.3641" x="32.182" y="9">Agglomerative</tspan>
</text>
<path d="M633.5 160.5L717.5 160.5C719.157 160.5 720.5 161.843 720.5 163.5L720.5 177.5C720.5 179.157 719.157 180.5 717.5 180.5L633.5 180.5C631.843 180.5 630.5 179.157 630.5 177.5L630.5 163.5C630.5 161.843 631.843 160.5 633.5 160.5Z" fill="#ffffff" fill-rule="nonzero" opacity="1" stroke="#000000" stroke-linecap="butt" stroke-linejoin="miter" stroke-width="1"/>
<text fill="#000000" font-family="Helvetica" font-size="9.6" opacity="1" stroke="none" text-anchor="middle" transform="matrix(1 0 0 1 641.393 167)" x="0" y="0">
<tspan textLength="67.2141" x="35.107" y="9">Fuzzy C-Means</tspan>
</text>
<path d="M618.5 70.5L702.5 70.5C704.157 70.5 705.5 71.8431 705.5 73.5L705.5 87.5C705.5 89.1569 704.157 90.5 702.5 90.5L618.5 90.5C616.843 90.5 615.5 89.1569 615.5 87.5L615.5 73.5C615.5 71.8431 616.843 70.5 618.5 70.5Z" fill="#ffffff" fill-rule="nonzero" opacity="1" stroke="#000000" stroke-linecap="butt" stroke-linejoin="miter" stroke-width="1"/>
<text fill="#000000" font-family="Helvetica" font-size="9.6" opacity="1" stroke="none" text-anchor="middle" transform="matrix(1 0 0 1 637.055 77)" x="0" y="0">
<tspan textLength="45.8906" x="24.4453" y="9">Mean Shift</tspan>
</text>
<path d="M1060.5 80.5C1027.17 80.5 1010.5 93.8333 1010.5 120.5" fill="none" opacity="1" stroke="#000000" stroke-linecap="butt" stroke-linejoin="miter" stroke-width="1"/>
<path d="M1063.5 70.5L1147.5 70.5C1149.16 70.5 1150.5 71.8431 1150.5 73.5L1150.5 87.5C1150.5 89.1569 1149.16 90.5 1147.5 90.5L1063.5 90.5C1061.84 90.5 1060.5 89.1569 1060.5 87.5L1060.5 73.5C1060.5 71.8431 1061.84 70.5 1063.5 70.5Z" fill="#ffffff" fill-rule="nonzero" opacity="1" stroke="#000000" stroke-linecap="butt" stroke-linejoin="miter" stroke-width="1"/>
<text fill="#000000" font-family="Helvetica" font-size="9.6" opacity="1" stroke="none" text-anchor="middle" transform="matrix(1 0 0 1 1091.66 77)" x="0" y="0">
<tspan textLength="26.6813" x="14.8406" y="9">Euclat</tspan>
</text>
<path d="M1080.5 140.5C1080.5 140.5 1067.17 140.5 1040.5 140.5" fill="none" opacity="1" stroke="#000000" stroke-linecap="butt" stroke-linejoin="miter" stroke-width="1"/>
<path d="M1083.5 130.5L1167.5 130.5C1169.16 130.5 1170.5 131.843 1170.5 133.5L1170.5 147.5C1170.5 149.157 1169.16 150.5 1167.5 150.5L1083.5 150.5C1081.84 150.5 1080.5 149.157 1080.5 147.5L1080.5 133.5C1080.5 131.843 1081.84 130.5 1083.5 130.5Z" fill="#ffffff" fill-rule="nonzero" opacity="1" stroke="#000000" stroke-linecap="butt" stroke-linejoin="miter" stroke-width="1"/>
<text fill="#000000" font-family="Helvetica" font-size="9.6" opacity="1" stroke="none" text-anchor="middle" transform="matrix(1 0 0 1 1111.13 137)" x="0" y="0">
<tspan textLength="27.7406" x="15.3703" y="9">Apriori</tspan>
</text>
<path d="M980.5 70.5C980.5 70.5 980.5 87.1667 980.5 120.5" fill="none" opacity="1" stroke="#000000" stroke-linecap="butt" stroke-linejoin="miter" stroke-width="1"/>
<path d="M938.5 50.5L1022.5 50.5C1024.16 50.5 1025.5 51.8431 1025.5 53.5L1025.5 67.5C1025.5 69.1569 1024.16 70.5 1022.5 70.5L938.5 70.5C936.843 70.5 935.5 69.1569 935.5 67.5L935.5 53.5C935.5 51.8431 936.843 50.5 938.5 50.5Z" fill="#ffffff" fill-rule="nonzero" opacity="1" stroke="#000000" stroke-linecap="butt" stroke-linejoin="miter" stroke-width="1"/>
<text fill="#000000" font-family="Helvetica" font-size="9.6" opacity="1" stroke="none" text-anchor="middle" transform="matrix(1 0 0 1 957.146 57)" x="0" y="0">
<tspan textLength="45.7078" x="24.3539" y="9">FP Growth</tspan>
</text>
<path d="M1043.5 180.5L1127.5 180.5C1129.16 180.5 1130.5 181.843 1130.5 183.5L1130.5 197.5C1130.5 199.157 1129.16 200.5 1127.5 200.5L1043.5 200.5C1041.84 200.5 1040.5 199.157 1040.5 197.5L1040.5 183.5C1040.5 181.843 1041.84 180.5 1043.5 180.5Z" fill="#ffffff" fill-rule="nonzero" opacity="1" stroke="#000000" stroke-linecap="butt" stroke-linejoin="miter" stroke-width="1"/>
<text fill="#000000" font-family="Helvetica" font-size="9.6" opacity="1" stroke="none" text-anchor="middle" transform="matrix(1 0 0 1 1072.2 187)" x="0" y="0">
<tspan textLength="25.6031" x="14.3016" y="9">t-SNE</tspan>
</text>
<path d="M1098.5 210.5L1182.5 210.5C1184.16 210.5 1185.5 211.843 1185.5 213.5L1185.5 227.5C1185.5 229.157 1184.16 230.5 1182.5 230.5L1098.5 230.5C1096.84 230.5 1095.5 229.157 1095.5 227.5L1095.5 213.5C1095.5 211.843 1096.84 210.5 1098.5 210.5Z" fill="#ffffff" fill-rule="nonzero" opacity="1" stroke="#000000" stroke-linecap="butt" stroke-linejoin="miter" stroke-width="1"/>
<text fill="#000000" font-family="Helvetica" font-size="9.6" opacity="1" stroke="none" text-anchor="middle" transform="matrix(1 0 0 1 1130.13 217)" x="0" y="0">
<tspan textLength="19.7391" x="11.3695" y="9">PCA</tspan>
</text>
<path d="M1118.5 240.5L1202.5 240.5C1204.16 240.5 1205.5 241.843 1205.5 243.5L1205.5 257.5C1205.5 259.157 1204.16 260.5 1202.5 260.5L1118.5 260.5C1116.84 260.5 1115.5 259.157 1115.5 257.5L1115.5 243.5C1115.5 241.843 1116.84 240.5 1118.5 240.5Z" fill="#ffffff" fill-rule="nonzero" opacity="1" stroke="#000000" stroke-linecap="butt" stroke-linejoin="miter" stroke-width="1"/>
<text fill="#000000" font-family="Helvetica" font-size="9.6" opacity="1" stroke="none" text-anchor="middle" transform="matrix(1 0 0 1 1150.93 247)" x="0" y="0">
<tspan textLength="18.1453" x="10.5727" y="9">LSA</tspan>
</text>
<path d="M1103.5 280.5L1187.5 280.5C1189.16 280.5 1190.5 281.843 1190.5 283.5L1190.5 297.5C1190.5 299.157 1189.16 300.5 1187.5 300.5L1103.5 300.5C1101.84 300.5 1100.5 299.157 1100.5 297.5L1100.5 283.5C1100.5 281.843 1101.84 280.5 1103.5 280.5Z" fill="#ffffff" fill-rule="nonzero" opacity="1" stroke="#000000" stroke-linecap="butt" stroke-linejoin="miter" stroke-width="1"/>
<text fill="#000000" font-family="Helvetica" font-size="9.6" opacity="1" stroke="none" text-anchor="middle" transform="matrix(1 0 0 1 1135.13 287)" x="0" y="0">
<tspan textLength="19.7391" x="11.3695" y="9">SVD</tspan>
</text>
<path d="M978.5 300.5L1062.5 300.5C1064.16 300.5 1065.5 301.843 1065.5 303.5L1065.5 317.5C1065.5 319.157 1064.16 320.5 1062.5 320.5L978.5 320.5C976.843 320.5 975.5 319.157 975.5 317.5L975.5 303.5C975.5 301.843 976.843 300.5 978.5 300.5Z" fill="#ffffff" fill-rule="nonzero" opacity="1" stroke="#000000" stroke-linecap="butt" stroke-linejoin="miter" stroke-width="1"/>
<text fill="#000000" font-family="Helvetica" font-size="9.6" opacity="1" stroke="none" text-anchor="middle" transform="matrix(1 0 0 1 1010.66 307)" x="0" y="0">
<tspan textLength="18.675" x="10.8375" y="9">LDA</tspan>
</text>
</g>
</g>
</svg>
