<?xml version="1.0" encoding="UTF-8" standalone="no"?>
<!DOCTYPE svg PUBLIC "-//W3C//DTD SVG 1.1//EN" "http://www.w3.org/Graphics/SVG/1.1/DTD/svg11.dtd">
<!-- Created with Vectornator (http://vectornator.io/) -->
<svg height="2071.0px" stroke-miterlimit="10" style="fill-rule:nonzero;clip-rule:evenodd;stroke-linecap:round;stroke-linejoin:round;" version="1.1" viewBox="0 0 852 2071" width="852.0px" xml:space="preserve" xmlns="http://www.w3.org/2000/svg" xmlns:xlink="http://www.w3.org/1999/xlink">
<g clip-path="url(#ArtboardFrame)" id="Untitled">
<path d="M659.134 32.7874L733.134 32.7874C734.791 32.7874 736.134 34.1305 736.134 35.7874L736.134 49.7874C736.134 51.4442 734.791 52.7874 733.134 52.7874L659.134 52.7874C657.477 52.7874 656.134 51.4442 656.134 49.7874L656.134 35.7874C656.134 34.1305 657.477 32.7874 659.134 32.7874Z" fill="#f45b69" fill-rule="nonzero" opacity="1" stroke="#028090" stroke-linecap="butt" stroke-linejoin="miter" stroke-width="1"/>
<text fill="#e4fde1" font-family="Verdana" font-size="8" opacity="1" stroke="none" text-anchor="middle" transform="matrix(1 0 0 1 673.661 37.2874)" x="0" y="0">
<tspan textLength="43.9453" x="23.4727" y="8">Must Know</tspan>
</text>
<path d="M754.134 32.7874L828.134 32.7874C829.791 32.7874 831.134 34.1305 831.134 35.7874L831.134 49.7874C831.134 51.4442 829.791 52.7874 828.134 52.7874L754.134 52.7874C752.477 52.7874 751.134 51.4442 751.134 49.7874L751.134 35.7874C751.134 34.1305 752.477 32.7874 754.134 32.7874Z" fill="#6d8764" fill-rule="nonzero" opacity="1" stroke="#3a5431" stroke-linecap="butt" stroke-linejoin="miter" stroke-width="1"/>
<text fill="#ffffff" font-family="Verdana" font-size="8" opacity="1" stroke="none" text-anchor="middle" transform="matrix(1 0 0 1 771.88 37.2874)" x="0" y="0">
<tspan textLength="37.5078" x="20.2539" y="8">Extended</tspan>
</text>
<path d="M350.134 250.287C237.467 218.621 161.134 217.787 121.134 247.787" fill="none" opacity="1" stroke="#000000" stroke-dasharray="3.0" stroke-linecap="butt" stroke-linejoin="miter" stroke-width="1"/>
<path d="M350.134 257.787C257.467 261.121 183.467 269.027 128.134 281.507" fill="none" opacity="1" stroke="#000000" stroke-dasharray="3.0" stroke-linecap="butt" stroke-linejoin="miter" stroke-width="1"/>
<path d="M401.074 271.287C361.114 285.621 334.211 299.454 320.364 312.787" fill="none" opacity="1" stroke="#000000" stroke-dasharray="3.0" stroke-linecap="butt" stroke-linejoin="miter" stroke-width="1"/>
<path d="M350.134 265.287C324.134 263.621 266.967 276.121 178.634 302.787" fill="none" opacity="1" stroke="#000000" stroke-dasharray="3.0" stroke-linecap="butt" stroke-linejoin="miter" stroke-width="1"/>
<path d="M424.384 272.787C448.884 292.787 453.634 347.787 438.634 437.787" fill="none" opacity="1" stroke="#000000" stroke-linecap="butt" stroke-linejoin="miter" stroke-width="1"/>
<path d="M25.3839 891.287L90.8839 891.287C92.1266 891.287 93.1339 892.295 93.1339 893.537L93.1339 904.037C93.1339 905.28 92.1266 906.287 90.8839 906.287L25.3839 906.287C24.1413 906.287 23.1339 905.28 23.1339 904.037L23.1339 893.537C23.1339 892.295 24.1413 891.287 25.3839 891.287Z" fill="#f45b69" fill-rule="nonzero" opacity="1" stroke="#028090" stroke-linecap="butt" stroke-linejoin="miter" stroke-width="1"/>
<text fill="#e4fde1" font-family="Verdana" font-size="6.4" opacity="1" stroke="none" text-anchor="middle" transform="matrix(1 0 0 1 48.7308 894.287)" x="0" y="0">
<tspan textLength="17.8063" x="10.4031" y="6">React</tspan>
</text>
<path d="M25.3839 911.787L90.8839 911.787C92.1266 911.787 93.1339 912.795 93.1339 914.037L93.1339 924.537C93.1339 925.78 92.1266 926.787 90.8839 926.787L25.3839 926.787C24.1413 926.787 23.1339 925.78 23.1339 924.537L23.1339 914.037C23.1339 912.795 24.1413 911.787 25.3839 911.787Z" fill="#6d8764" fill-rule="nonzero" opacity="1" stroke="#3a5431" stroke-linecap="butt" stroke-linejoin="miter" stroke-width="1"/>
<text fill="#ffffff" font-family="Verdana" font-size="6.4" opacity="1" stroke="none" text-anchor="middle" transform="matrix(1 0 0 1 47.6761 915.287)" x="0" y="0">
<tspan textLength="19.9156" x="11.4578" y="6">Vue.js</tspan>
</text>
<path d="M219.134 550.287L323.134 550.287C324.791 550.287 326.134 551.631 326.134 553.287L326.134 567.287C326.134 568.944 324.791 570.287 323.134 570.287L219.134 570.287C217.477 570.287 216.134 568.944 216.134 567.287L216.134 553.287C216.134 551.631 217.477 550.287 219.134 550.287Z" fill="#f45b69" fill-rule="nonzero" opacity="1" stroke="#028090" stroke-linecap="butt" stroke-linejoin="miter" stroke-width="1"/>
<text fill="#e4fde1" font-family="Verdana" font-size="8" opacity="1" stroke="none" text-anchor="middle" transform="matrix(1 0 0 1 233.409 555.287)" x="0" y="0">
<tspan textLength="74.4492" x="38.7246" y="8">Package Managers</tspan>
</text>
<path d="M29.1339 512.787L68.1339 512.787C69.7908 512.787 71.1339 514.131 71.1339 515.787L71.1339 529.787C71.1339 531.444 69.7908 532.787 68.1339 532.787L29.1339 532.787C27.4771 532.787 26.1339 531.444 26.1339 529.787L26.1339 515.787C26.1339 514.131 27.4771 512.787 29.1339 512.787Z" fill="#f45b69" fill-rule="nonzero" opacity="1" stroke="#028090" stroke-linecap="butt" stroke-linejoin="miter" stroke-width="1"/>
<text fill="#e4fde1" font-family="Verdana" font-size="6.4" opacity="1" stroke="none" text-anchor="middle" transform="matrix(1 0 0 1 41.5027 518.287)" x="0" y="0">
<tspan textLength="14.2625" x="8.63125" y="6">npm</tspan>
</text>
<path d="M34.1339 472.787L73.1339 472.787C74.7908 472.787 76.1339 474.131 76.1339 475.787L76.1339 489.787C76.1339 491.444 74.7908 492.787 73.1339 492.787L34.1339 492.787C32.4771 492.787 31.1339 491.444 31.1339 489.787L31.1339 475.787C31.1339 474.131 32.4771 472.787 34.1339 472.787Z" fill="#6d8764" fill-rule="nonzero" opacity="1" stroke="#3a5431" stroke-linecap="butt" stroke-linejoin="miter" stroke-width="1"/>
<text fill="#ffffff" font-family="Verdana" font-size="6.4" opacity="1" stroke="none" text-anchor="middle" transform="matrix(1 0 0 1 46.5714 478.287)" x="0" y="0">
<tspan textLength="14.125" x="8.5625" y="6">Yarn</tspan>
</text>
<path d="M81.1339 445.287L125.134 445.287C126.791 445.287 128.134 446.631 128.134 448.287L128.134 462.287C128.134 463.944 126.791 465.287 125.134 465.287L81.1339 465.287C79.4771 465.287 78.1339 463.944 78.1339 462.287L78.1339 448.287C78.1339 446.631 79.4771 445.287 81.1339 445.287Z" fill="#6d8764" fill-rule="nonzero" opacity="1" stroke="#3a5431" stroke-linecap="butt" stroke-linejoin="miter" stroke-width="1"/>
<text fill="#ffffff" font-family="Verdana" font-size="6.4" opacity="1" stroke="none" text-anchor="middle" transform="matrix(1 0 0 1 93.5089 451.287)" x="0" y="0">
<tspan textLength="18.25" x="10.625" y="6">pnpm</tspan>
</text>
<path d="M284.134 609.787L358.134 609.787C359.791 609.787 361.134 611.131 361.134 612.787L361.134 626.787C361.134 628.444 359.791 629.787 358.134 629.787L284.134 629.787C282.477 629.787 281.134 628.444 281.134 626.787L281.134 612.787C281.134 611.131 282.477 609.787 284.134 609.787Z" fill="#f45b69" fill-rule="nonzero" opacity="1" stroke="#028090" stroke-linecap="butt" stroke-linejoin="miter" stroke-width="1"/>
<text fill="#e4fde1" font-family="Verdana" font-size="8" opacity="1" stroke="none" text-anchor="middle" transform="matrix(1 0 0 1 299.194 614.287)" x="0" y="0">
<tspan textLength="42.8789" x="22.9395" y="8">Build Tools</tspan>
</text>
<path d="M59.8839 682.787L117.384 682.787C119.455 682.787 121.134 684.466 121.134 686.537L121.134 704.037C121.134 706.108 119.455 707.787 117.384 707.787L59.8839 707.787C57.8129 707.787 56.1339 706.108 56.1339 704.037L56.1339 686.537C56.1339 684.466 57.8129 682.787 59.8839 682.787Z" fill="#6d8764" fill-rule="nonzero" opacity="1" stroke="#3a5431" stroke-linecap="butt" stroke-linejoin="miter" stroke-width="1"/>
<text fill="#ffffff" font-family="Verdana" font-size="6.4" opacity="1" stroke="none" text-anchor="middle" transform="matrix(1 0 0 1 72.7449 691.287)" x="0" y="0">
<tspan textLength="31.7781" x="17.3891" y="6">ETHFiddle</tspan>
</text>
<path d="M629.134 542.787L733.134 542.787C734.791 542.787 736.134 544.131 736.134 545.787L736.134 559.787C736.134 561.444 734.791 562.787 733.134 562.787L629.134 562.787C627.477 562.787 626.134 561.444 626.134 559.787L626.134 545.787C626.134 544.131 627.477 542.787 629.134 542.787Z" fill="#f45b69" fill-rule="nonzero" opacity="1" stroke="#028090" stroke-linecap="butt" stroke-linejoin="miter" stroke-width="1"/>
<text fill="#e4fde1" font-family="Verdana" font-size="8" opacity="1" stroke="none" text-anchor="middle" transform="matrix(1 0 0 1 668.028 547.287)" x="0" y="0">
<tspan textLength="25.2109" x="14.1055" y="8">Truffle</tspan>
</text>
<path d="M59.3639 652.787L117.904 652.787C119.688 652.787 121.134 654.233 121.134 656.017L121.134 671.057C121.134 672.841 119.688 674.287 117.904 674.287L59.3639 674.287C57.58 674.287 56.1339 672.841 56.1339 671.057L56.1339 656.017C56.1339 654.233 57.58 652.787 59.3639 652.787Z" fill="#f45b69" fill-rule="nonzero" opacity="1" stroke="#028090" stroke-linecap="butt" stroke-linejoin="miter" stroke-width="1"/>
<text fill="#e4fde1" font-family="Verdana" font-size="6.4" opacity="1" stroke="none" text-anchor="middle" transform="matrix(1 0 0 1 71.7355 659.287)" x="0" y="0">
<tspan textLength="33.7969" x="18.3984" y="6">Remix IDE</tspan>
</text>
<path d="M533.384 472.787L593.884 472.787C595.127 472.787 596.134 473.795 596.134 475.037L596.134 485.537C596.134 486.78 595.127 487.787 593.884 487.787L533.384 487.787C532.141 487.787 531.134 486.78 531.134 485.537L531.134 475.037C531.134 473.795 532.141 472.787 533.384 472.787Z" fill="#f45b69" fill-rule="nonzero" opacity="1" stroke="#028090" stroke-linecap="butt" stroke-linejoin="miter" stroke-width="1"/>
<text fill="#e4fde1" font-family="Verdana" font-size="6.4" opacity="1" stroke="none" text-anchor="middle" transform="matrix(1 0 0 1 551.737 476.287)" x="0" y="0">
<tspan textLength="23.7938" x="13.3969" y="6">Solidity</tspan>
</text>
<path d="M608.384 472.787L668.884 472.787C670.127 472.787 671.134 473.795 671.134 475.037L671.134 485.537C671.134 486.78 670.127 487.787 668.884 487.787L608.384 487.787C607.141 487.787 606.134 486.78 606.134 485.537L606.134 475.037C606.134 473.795 607.141 472.787 608.384 472.787Z" fill="#f45b69" fill-rule="nonzero" opacity="1" stroke="#028090" stroke-linecap="butt" stroke-linejoin="miter" stroke-width="1"/>
<text fill="#e4fde1" font-family="Verdana" font-size="8" opacity="1" stroke="none" text-anchor="middle" transform="matrix(1 0 0 1 621.198 475.287)" x="0" y="0">
<tspan textLength="34.8711" x="18.9355" y="8">Ganache</tspan>
</text>
<path d="M683.384 472.787L743.884 472.787C745.127 472.787 746.134 473.795 746.134 475.037L746.134 485.537C746.134 486.78 745.127 487.787 743.884 487.787L683.384 487.787C682.141 487.787 681.134 486.78 681.134 485.537L681.134 475.037C681.134 473.795 682.141 472.787 683.384 472.787Z" fill="#6d8764" fill-rule="nonzero" opacity="1" stroke="#3a5431" stroke-linecap="butt" stroke-linejoin="miter" stroke-width="1"/>
<text fill="#ffffff" font-family="Verdana" font-size="6.4" opacity="1" stroke="none" text-anchor="middle" transform="matrix(1 0 0 1 703.381 476.287)" x="0" y="0">
<tspan textLength="20.5063" x="11.7531" y="6">Mocha</tspan>
</text>
<path d="M758.384 472.787L818.884 472.787C820.127 472.787 821.134 473.795 821.134 475.037L821.134 485.537C821.134 486.78 820.127 487.787 818.884 487.787L758.384 487.787C757.141 487.787 756.134 486.78 756.134 485.537L756.134 475.037C756.134 473.795 757.141 472.787 758.384 472.787Z" fill="#6d8764" fill-rule="nonzero" opacity="1" stroke="#3a5431" stroke-linecap="butt" stroke-linejoin="miter" stroke-width="1"/>
<text fill="#ffffff" font-family="Verdana" font-size="6.4" opacity="1" stroke="none" text-anchor="middle" transform="matrix(1 0 0 1 777.778 476.287)" x="0" y="0">
<tspan textLength="21.7125" x="12.3563" y="6">Drizzle</tspan>
</text>
<path d="M191.634 671.787L265.634 671.787C267.291 671.787 268.634 673.131 268.634 674.787L268.634 688.787C268.634 690.444 267.291 691.787 265.634 691.787L191.634 691.787C189.977 691.787 188.634 690.444 188.634 688.787L188.634 674.787C188.634 673.131 189.977 671.787 191.634 671.787Z" fill="#f45b69" fill-rule="nonzero" opacity="1" stroke="#028090" stroke-linecap="butt" stroke-linejoin="miter" stroke-width="1"/>
<text fill="#e4fde1" font-family="Verdana" font-size="8" opacity="1" stroke="none" text-anchor="middle" transform="matrix(1 0 0 1 218.181 676.287)" x="0" y="0">
<tspan textLength="20.9062" x="11.9531" y="8">IDE&#x27;s</tspan>
</text>
<path d="M86.6339 542.787L145.634 542.787C147.291 542.787 148.634 544.131 148.634 545.787L148.634 559.787C148.634 561.444 147.291 562.787 145.634 562.787L86.6339 562.787C84.9771 562.787 83.6339 561.444 83.6339 559.787L83.6339 545.787C83.6339 544.131 84.9771 542.787 86.6339 542.787Z" fill="#f45b69" fill-rule="nonzero" opacity="1" stroke="#028090" stroke-linecap="butt" stroke-linejoin="miter" stroke-width="1"/>
<text fill="#e4fde1" font-family="Verdana" font-size="6.4" opacity="1" stroke="none" text-anchor="middle" transform="matrix(1 0 0 1 103.737 548.287)" x="0" y="0">
<tspan textLength="23.7938" x="13.3969" y="6">Solidity</tspan>
</text>
<path d="M86.6339 572.787L145.634 572.787C147.291 572.787 148.634 574.131 148.634 575.787L148.634 589.787C148.634 591.444 147.291 592.787 145.634 592.787L86.6339 592.787C84.9771 592.787 83.6339 591.444 83.6339 589.787L83.6339 575.787C83.6339 574.131 84.9771 572.787 86.6339 572.787Z" fill="#6d8764" fill-rule="nonzero" opacity="1" stroke="#3a5431" stroke-linecap="butt" stroke-linejoin="miter" stroke-width="1"/>
<text fill="#ffffff" font-family="Verdana" font-size="6.4" opacity="1" stroke="none" text-anchor="middle" transform="matrix(1 0 0 1 106.389 578.287)" x="0" y="0">
<tspan textLength="18.4906" x="10.7453" y="6">Vyper</tspan>
</text>
<path d="M86.6339 602.787L145.634 602.787C147.291 602.787 148.634 604.131 148.634 605.787L148.634 619.787C148.634 621.444 147.291 622.787 145.634 622.787L86.6339 622.787C84.9771 622.787 83.6339 621.444 83.6339 619.787L83.6339 605.787C83.6339 604.131 84.9771 602.787 86.6339 602.787Z" fill="#6d8764" fill-rule="nonzero" opacity="1" stroke="#3a5431" stroke-linecap="butt" stroke-linejoin="miter" stroke-width="1"/>
<text fill="#ffffff" font-family="Verdana" font-size="6.4" opacity="1" stroke="none" text-anchor="middle" transform="matrix(1 0 0 1 102.989 608.287)" x="0" y="0">
<tspan textLength="25.2906" x="14.1453" y="6">Serpent</tspan>
</text>
<path d="M636.634 967.787L760.634 967.787C762.291 967.787 763.634 969.131 763.634 970.787L763.634 984.787C763.634 986.444 762.291 987.787 760.634 987.787L636.634 987.787C634.977 987.787 633.634 986.444 633.634 984.787L633.634 970.787C633.634 969.131 634.977 967.787 636.634 967.787Z" fill="#f45b69" fill-rule="nonzero" opacity="1" stroke="#028090" stroke-linecap="butt" stroke-linejoin="miter" stroke-width="1"/>
<text fill="#e4fde1" font-family="Verdana" font-size="8" opacity="1" stroke="none" text-anchor="middle" transform="matrix(1 0 0 1 659.456 972.287)" x="0" y="0">
<tspan textLength="78.3555" x="40.6777" y="8">Distributed Storage</tspan>
</text>
<path d="M549.134 833.787L673.134 833.787C674.791 833.787 676.134 835.131 676.134 836.787L676.134 850.787C676.134 852.444 674.791 853.787 673.134 853.787L549.134 853.787C547.477 853.787 546.134 852.444 546.134 850.787L546.134 836.787C546.134 835.131 547.477 833.787 549.134 833.787Z" fill="#f45b69" fill-rule="nonzero" opacity="1" stroke="#028090" stroke-linecap="butt" stroke-linejoin="miter" stroke-width="1"/>
<text fill="#e4fde1" font-family="Verdana" font-size="8" opacity="1" stroke="none" text-anchor="middle" transform="matrix(1 0 0 1 598.443 838.287)" x="0" y="0">
<tspan textLength="24.3828" x="13.6914" y="8">Infura</tspan>
</text>
<path d="M652.634 651.787L810.634 651.787C812.291 651.787 813.634 653.131 813.634 654.787L813.634 668.787C813.634 670.444 812.291 671.787 810.634 671.787L652.634 671.787C650.977 671.787 649.634 670.444 649.634 668.787L649.634 654.787C649.634 653.131 650.977 651.787 652.634 651.787Z" fill="#f45b69" fill-rule="nonzero" opacity="1" stroke="#028090" stroke-linecap="butt" stroke-linejoin="miter" stroke-width="1"/>
<text fill="#e4fde1" font-family="Verdana" font-size="8" opacity="1" stroke="none" text-anchor="middle" transform="matrix(1 0 0 1 710.136 656.287)" x="0" y="0">
<tspan textLength="42.9961" x="22.998" y="8">Dapp.tools</tspan>
</text>
<path d="M438.634 472.787C456.967 539.454 471.967 639.454 483.634 772.787C495.301 906.121 465.467 1112.79 394.134 1392.79" fill="none" opacity="1" stroke="#000000" stroke-linecap="butt" stroke-linejoin="miter" stroke-width="1"/>
<path d="M753.384 846.287L818.884 846.287C820.127 846.287 821.134 847.295 821.134 848.537L821.134 859.037C821.134 860.28 820.127 861.287 818.884 861.287L753.384 861.287C752.141 861.287 751.134 860.28 751.134 859.037L751.134 848.537C751.134 847.295 752.141 846.287 753.384 846.287Z" fill="#f45b69" fill-rule="nonzero" opacity="1" stroke="#028090" stroke-linecap="butt" stroke-linejoin="miter" stroke-width="1"/>
<text fill="#e4fde1" font-family="Verdana" font-size="6.4" opacity="1" stroke="none" text-anchor="middle" transform="matrix(1 0 0 1 772.92 849.287)" x="0" y="0">
<tspan textLength="25.4281" x="14.2141" y="6">Mainnet</tspan>
</text>
<path d="M753.384 886.287L818.884 886.287C820.127 886.287 821.134 887.295 821.134 888.537L821.134 899.037C821.134 900.28 820.127 901.287 818.884 901.287L753.384 901.287C752.141 901.287 751.134 900.28 751.134 899.037L751.134 888.537C751.134 887.295 752.141 886.287 753.384 886.287Z" fill="#f45b69" fill-rule="nonzero" opacity="1" stroke="#028090" stroke-linecap="butt" stroke-linejoin="miter" stroke-width="1"/>
<text fill="#e4fde1" font-family="Verdana" font-size="6.4" opacity="1" stroke="none" text-anchor="middle" transform="matrix(1 0 0 1 775.829 889.287)" x="0" y="0">
<tspan textLength="19.6094" x="11.3047" y="6">Kovan</tspan>
</text>
<path d="M753.384 906.287L818.884 906.287C820.127 906.287 821.134 907.295 821.134 908.537L821.134 919.037C821.134 920.28 820.127 921.287 818.884 921.287L753.384 921.287C752.141 921.287 751.134 920.28 751.134 919.037L751.134 908.537C751.134 907.295 752.141 906.287 753.384 906.287Z" fill="#6d8764" fill-rule="nonzero" opacity="1" stroke="#3a5431" stroke-linecap="butt" stroke-linejoin="miter" stroke-width="1"/>
<text fill="#ffffff" font-family="Verdana" font-size="6.4" opacity="1" stroke="none" text-anchor="middle" transform="matrix(1 0 0 1 772.857 909.287)" x="0" y="0">
<tspan textLength="25.5531" x="14.2766" y="6">Rinkeby</tspan>
</text>
<path d="M753.384 926.787L818.884 926.787C820.127 926.787 821.134 927.795 821.134 929.037L821.134 939.537C821.134 940.78 820.127 941.787 818.884 941.787L753.384 941.787C752.141 941.787 751.134 940.78 751.134 939.537L751.134 929.037C751.134 927.795 752.141 926.787 753.384 926.787Z" fill="#6d8764" fill-rule="nonzero" opacity="1" stroke="#3a5431" stroke-linecap="butt" stroke-linejoin="miter" stroke-width="1"/>
<text fill="#ffffff" font-family="Verdana" font-size="6.4" opacity="1" stroke="none" text-anchor="middle" transform="matrix(1 0 0 1 778.331 930.287)" x="0" y="0">
<tspan textLength="14.6063" x="8.80313" y="6">IPFS</tspan>
</text>
<path d="M753.384 866.287L818.884 866.287C820.127 866.287 821.134 867.295 821.134 868.537L821.134 879.037C821.134 880.28 820.127 881.287 818.884 881.287L753.384 881.287C752.141 881.287 751.134 880.28 751.134 879.037L751.134 868.537C751.134 867.295 752.141 866.287 753.384 866.287Z" fill="#f45b69" fill-rule="nonzero" opacity="1" stroke="#028090" stroke-linecap="butt" stroke-linejoin="miter" stroke-width="1"/>
<text fill="#e4fde1" font-family="Verdana" font-size="6.4" opacity="1" stroke="none" text-anchor="middle" transform="matrix(1 0 0 1 772.692 869.287)" x="0" y="0">
<tspan textLength="25.8844" x="14.4422" y="6">Ropsten</tspan>
</text>
<path d="M609.884 1047.79L637.384 1047.79C639.455 1047.79 641.134 1049.47 641.134 1051.54L641.134 1069.04C641.134 1071.11 639.455 1072.79 637.384 1072.79L609.884 1072.79C607.813 1072.79 606.134 1071.11 606.134 1069.04L606.134 1051.54C606.134 1049.47 607.813 1047.79 609.884 1047.79Z" fill="#f45b69" fill-rule="nonzero" opacity="1" stroke="#028090" stroke-linecap="butt" stroke-linejoin="miter" stroke-width="1"/>
<text fill="#e4fde1" font-family="Verdana" font-size="6.4" opacity="1" stroke="none" text-anchor="middle" transform="matrix(1 0 0 1 616.331 1056.29)" x="0" y="0">
<tspan textLength="14.6063" x="8.80313" y="6">IPFS</tspan>
</text>
<path d="M653.384 1047.79L680.884 1047.79C682.955 1047.79 684.634 1049.47 684.634 1051.54L684.634 1069.04C684.634 1071.11 682.955 1072.79 680.884 1072.79L653.384 1072.79C651.313 1072.79 649.634 1071.11 649.634 1069.04L649.634 1051.54C649.634 1049.47 651.313 1047.79 653.384 1047.79Z" fill="#6d8764" fill-rule="nonzero" opacity="1" stroke="#3a5431" stroke-linecap="butt" stroke-linejoin="miter" stroke-width="1"/>
<text fill="#ffffff" font-family="Verdana" font-size="6.4" opacity="1" stroke="none" text-anchor="middle" transform="matrix(1 0 0 1 661.646 1056.29)" x="0" y="0">
<tspan textLength="9.975" x="6.4875" y="6">Sia</tspan>
</text>
<path d="M747.384 1047.79L787.384 1047.79C789.455 1047.79 791.134 1049.47 791.134 1051.54L791.134 1069.04C791.134 1071.11 789.455 1072.79 787.384 1072.79L747.384 1072.79C745.313 1072.79 743.634 1071.11 743.634 1069.04L743.634 1051.54C743.634 1049.47 745.313 1047.79 747.384 1047.79Z" fill="#f45b69" fill-rule="nonzero" opacity="1" stroke="#028090" stroke-linecap="butt" stroke-linejoin="miter" stroke-width="1"/>
<text fill="#e4fde1" font-family="Verdana" font-size="6.4" opacity="1" stroke="none" text-anchor="middle" transform="matrix(1 0 0 1 754.251 1056.29)" x="0" y="0">
<tspan textLength="24.7656" x="13.8828" y="6">SWARM</tspan>
</text>
<path d="M361.134 619.787C387.801 608.454 426.791 636.447 478.104 703.767" fill="none" opacity="1" stroke="#000000" stroke-linecap="butt" stroke-linejoin="miter" stroke-width="1"/>
<path d="M271.134 570.287C277.801 578.621 287.801 584.454 301.134 587.787C314.467 591.121 321.134 598.454 321.134 609.787" fill="none" opacity="1" stroke="#000000" stroke-linecap="butt" stroke-linejoin="miter" stroke-width="1"/>
<path d="M228.634 671.787C236.967 652.454 252.801 647.621 276.134 657.287C299.467 666.954 314.467 657.787 321.134 629.787" fill="none" opacity="1" stroke="#000000" stroke-linecap="butt" stroke-linejoin="miter" stroke-width="1"/>
<path d="M513.634 702.787C493.967 662.787 493.634 635.121 512.634 619.787C531.634 604.454 545.224 603.787 553.404 617.787" fill="none" opacity="1" stroke="#000000" stroke-linecap="butt" stroke-linejoin="miter" stroke-width="1"/>
<path d="M243.634 550.287C188.634 538.621 154.467 529.454 141.134 522.787C127.801 516.121 104.467 516.121 71.1339 522.787" fill="none" opacity="1" stroke="#000000" stroke-dasharray="3.0" stroke-linecap="butt" stroke-linejoin="miter" stroke-width="1"/>
<path d="M271.134 550.287C251.134 545.287 234.467 539.454 221.134 532.787C207.801 526.121 191.134 517.787 171.134 507.787C151.134 497.787 119.467 489.454 76.1339 482.787" fill="none" opacity="1" stroke="#000000" stroke-dasharray="3.0" stroke-linecap="butt" stroke-linejoin="miter" stroke-width="1"/>
<path d="M271.134 550.287C257.801 531.954 239.467 519.454 216.134 512.787C192.801 506.121 177.801 495.787 171.134 481.787C164.467 467.787 150.134 460.621 128.134 460.287" fill="none" opacity="1" stroke="#000000" stroke-dasharray="3.0" stroke-linecap="butt" stroke-linejoin="miter" stroke-width="1"/>
<path d="M281.134 614.787C247.801 613.454 224.467 605.787 211.134 591.787C197.801 577.787 176.967 564.787 148.634 552.787" fill="none" opacity="1" stroke="#000000" stroke-dasharray="3.0" stroke-linecap="butt" stroke-linejoin="miter" stroke-width="1"/>
<path d="M281.134 619.787C247.801 621.787 222.801 617.454 206.134 606.787C189.467 596.121 170.301 588.121 148.634 582.787" fill="none" opacity="1" stroke="#000000" stroke-dasharray="3.0" stroke-linecap="butt" stroke-linejoin="miter" stroke-width="1"/>
<path d="M281.134 624.787C241.134 630.121 216.134 629.121 206.134 621.787C196.134 614.454 176.967 611.454 148.634 612.787" fill="none" opacity="1" stroke="#000000" stroke-dasharray="3.0" stroke-linecap="butt" stroke-linejoin="miter" stroke-width="1"/>
<path d="M188.634 676.787C163.634 667.454 141.134 663.037 121.134 663.537" fill="none" opacity="1" stroke="#000000" stroke-dasharray="3.0" stroke-linecap="butt" stroke-linejoin="miter" stroke-width="1"/>
<path d="M188.634 681.787C188.634 681.787 166.134 686.287 121.134 695.287" fill="none" opacity="1" stroke="#000000" stroke-dasharray="3.0" stroke-linecap="butt" stroke-linejoin="miter" stroke-width="1"/>
<path d="M563.634 617.787C563.301 601.121 582.801 592.787 622.134 592.787C661.467 592.787 681.134 582.787 681.134 562.787" fill="none" opacity="1" stroke="#000000" stroke-linecap="butt" stroke-linejoin="miter" stroke-width="1"/>
<path d="M519.014 745.457C547.094 763.677 577.801 793.121 611.134 833.787" fill="none" opacity="1" stroke="#000000" stroke-linecap="butt" stroke-linejoin="miter" stroke-width="1"/>
<path d="M653.634 542.787C651.967 529.454 636.467 521.121 607.134 517.787C577.801 514.454 563.301 504.454 563.634 487.787" fill="none" opacity="1" stroke="#000000" stroke-dasharray="3.0" stroke-linecap="butt" stroke-linejoin="miter" stroke-width="1"/>
<path d="M670.134 543.787C670.801 529.787 665.801 521.121 655.134 517.787C644.467 514.454 638.967 504.454 638.634 487.787" fill="none" opacity="1" stroke="#000000" stroke-dasharray="3.0" stroke-linecap="butt" stroke-linejoin="miter" stroke-width="1"/>
<path d="M692.134 544.447C692.134 530.007 695.634 521.121 702.634 517.787C709.634 514.454 713.301 504.454 713.634 487.787" fill="none" opacity="1" stroke="#000000" stroke-dasharray="3.0" stroke-linecap="butt" stroke-linejoin="miter" stroke-width="1"/>
<path d="M708.634 542.787C718.301 522.787 732.801 512.787 752.134 512.787C771.467 512.787 783.634 504.454 788.634 487.787" fill="none" opacity="1" stroke="#000000" stroke-dasharray="3.0" stroke-linecap="butt" stroke-linejoin="miter" stroke-width="1"/>
<path d="M676.134 838.787C692.801 837.121 706.134 839.287 716.134 845.287C726.134 851.287 737.801 854.121 751.134 853.787" fill="none" opacity="1" stroke="#000000" stroke-dasharray="3.0" stroke-linecap="butt" stroke-linejoin="miter" stroke-width="1"/>
<path d="M676.134 843.787C692.801 845.454 706.134 850.954 716.134 860.287C726.134 869.621 737.801 874.121 751.134 873.787" fill="none" opacity="1" stroke="#000000" stroke-dasharray="3.0" stroke-linecap="butt" stroke-linejoin="miter" stroke-width="1"/>
<path d="M676.134 848.787C692.801 853.787 706.134 862.621 716.134 875.287C726.134 887.954 737.801 894.287 751.134 894.287" fill="none" opacity="1" stroke="#000000" stroke-dasharray="3.0" stroke-linecap="butt" stroke-linejoin="miter" stroke-width="1"/>
<path d="M643.634 853.787C643.301 875.454 651.134 890.954 667.134 900.287C683.134 909.621 711.134 914.121 751.134 913.787" fill="none" opacity="1" stroke="#000000" stroke-dasharray="3.0" stroke-linecap="butt" stroke-linejoin="miter" stroke-width="1"/>
<path d="M611.134 853.787C611.134 882.121 622.801 902.621 646.134 915.287C669.467 927.954 704.467 934.287 751.134 934.287" fill="none" opacity="1" stroke="#000000" stroke-dasharray="3.0" stroke-linecap="butt" stroke-linejoin="miter" stroke-width="1"/>
<path d="M254.134 906.787C378.801 910.787 453.141 926.454 477.154 953.787" fill="none" opacity="1" stroke="#000000" stroke-linecap="butt" stroke-linejoin="miter" stroke-width="1"/>
<path d="M731.634 651.787C691.301 642.454 654.467 641.954 621.134 650.287C587.801 658.621 568.634 659.454 563.634 652.787" fill="none" opacity="1" stroke="#000000" stroke-dasharray="3.0" stroke-linecap="butt" stroke-linejoin="miter" stroke-width="1"/>
<path d="M487.954 745.457C490.074 770.344 501.134 812.787 521.134 872.787C541.134 932.787 578.634 967.787 633.634 977.787" fill="none" opacity="1" stroke="#000000" stroke-linecap="butt" stroke-linejoin="miter" stroke-width="1"/>
<path d="M666.134 987.787C666.134 997.787 659.467 1006.12 646.134 1012.79C632.801 1019.45 625.301 1031.12 623.634 1047.79" fill="none" opacity="1" stroke="#000000" stroke-dasharray="3.0" stroke-linecap="butt" stroke-linejoin="miter" stroke-width="1"/>
<path d="M731.134 987.787C731.134 1004.45 732.801 1016.12 736.134 1022.79C739.467 1029.45 749.884 1037.79 767.384 1047.79" fill="none" opacity="1" stroke="#000000" stroke-dasharray="3.0" stroke-linecap="butt" stroke-linejoin="miter" stroke-width="1"/>
<path d="M698.634 987.787C693.634 1004.45 691.134 1016.12 691.134 1022.79C691.134 1029.45 683.134 1037.79 667.134 1047.79" fill="none" opacity="1" stroke="#000000" stroke-dasharray="3.0" stroke-linecap="butt" stroke-linejoin="miter" stroke-width="1"/>
<path d="M171.184 735.787L264.084 735.787C265.492 735.787 266.634 736.929 266.634 738.337L266.634 750.237C266.634 751.646 265.492 752.787 264.084 752.787L171.184 752.787C169.776 752.787 168.634 751.646 168.634 750.237L168.634 738.337C168.634 736.929 169.776 735.787 171.184 735.787Z" fill="#f45b69" fill-rule="nonzero" opacity="1" stroke="#028090" stroke-linecap="butt" stroke-linejoin="miter" stroke-width="1"/>
<text fill="#e4fde1" font-family="Verdana" font-size="6.4" opacity="1" stroke="none" text-anchor="middle" transform="matrix(1 0 0 1 193.976 740.287)" x="0" y="0">
<tspan textLength="47.3156" x="25.1578" y="6">Ethereum EVM</tspan>
</text>
<path d="M171.634 792.787L263.634 792.787C265.291 792.787 266.634 794.131 266.634 795.787L266.634 809.787C266.634 811.444 265.291 812.787 263.634 812.787L171.634 812.787C169.977 812.787 168.634 811.444 168.634 809.787L168.634 795.787C168.634 794.131 169.977 792.787 171.634 792.787Z" fill="#f45b69" fill-rule="nonzero" opacity="1" stroke="#028090" stroke-linecap="butt" stroke-linejoin="miter" stroke-width="1"/>
<text fill="#e4fde1" font-family="Verdana" font-size="6.4" opacity="1" stroke="none" text-anchor="middle" transform="matrix(1 0 0 1 188.526 798.287)" x="0" y="0">
<tspan textLength="58.2156" x="30.6078" y="6">Deployed contract</tspan>
</text>
<path d="M514.134 1632.79L593.134 1632.79C594.791 1632.79 596.134 1634.13 596.134 1635.79L596.134 1649.79C596.134 1651.44 594.791 1652.79 593.134 1652.79L514.134 1652.79C512.477 1652.79 511.134 1651.44 511.134 1649.79L511.134 1635.79C511.134 1634.13 512.477 1632.79 514.134 1632.79Z" fill="#6d8764" fill-rule="nonzero" opacity="1" stroke="#3a5431" stroke-linecap="butt" stroke-linejoin="miter" stroke-width="1"/>
<text fill="#ffffff" font-family="Verdana" font-size="8" opacity="1" stroke="none" text-anchor="middle" transform="matrix(1 0 0 1 545.378 1637.29)" x="0" y="0">
<tspan textLength="16.5117" x="9.75586" y="8">ENS</tspan>
</text>
<path d="M437.134 1782.79L525.134 1782.79C528.448 1782.79 531.134 1785.47 531.134 1788.79L531.134 1816.79C531.134 1820.1 528.448 1822.79 525.134 1822.79L437.134 1822.79C433.82 1822.79 431.134 1820.1 431.134 1816.79L431.134 1788.79C431.134 1785.47 433.82 1782.79 437.134 1782.79Z" fill="#6d8764" fill-rule="nonzero" opacity="1" stroke="#3a5431" stroke-linecap="butt" stroke-linejoin="miter" stroke-width="1"/>
<text fill="#ffffff" font-family="Verdana" font-size="6.4" opacity="1" stroke="none" text-anchor="middle" transform="matrix(1 0 0 1 441.62 1798.29)" x="0" y="0">
<tspan textLength="78.0281" x="40.5141" y="6">Ethereum Name Service</tspan>
</text>
<path d="M642.634 1772.79L751.634 1772.79C754.119 1772.79 756.134 1774.8 756.134 1777.29L756.134 1798.29C756.134 1800.77 754.119 1802.79 751.634 1802.79L642.634 1802.79C640.149 1802.79 638.134 1800.77 638.134 1798.29L638.134 1777.29C638.134 1774.8 640.149 1772.79 642.634 1772.79Z" fill="#6d8764" fill-rule="nonzero" opacity="1" stroke="#3a5431" stroke-linecap="butt" stroke-linejoin="miter" stroke-width="1"/>
<text fill="#ffffff" font-family="Verdana" font-size="6.4" opacity="1" stroke="none" text-anchor="middle" transform="matrix(1 0 0 1 682.956 1783.29)" x="0" y="0">
<tspan textLength="27.3563" x="15.1781" y="6">Resolver</tspan>
</text>
<path d="M544.704 1652.79C508.991 1692.79 488.541 1736.12 483.354 1782.79" fill="none" opacity="1" stroke="#000000" stroke-dasharray="3.0" stroke-linecap="butt" stroke-linejoin="miter" stroke-width="1"/>
<path d="M557.564 1652.79C573.277 1692.79 612.067 1732.79 673.934 1772.79" fill="none" opacity="1" stroke="#000000" stroke-dasharray="3.0" stroke-linecap="butt" stroke-linejoin="miter" stroke-width="1"/>
<path d="M25.3839 871.287L90.8839 871.287C92.1266 871.287 93.1339 872.295 93.1339 873.537L93.1339 884.037C93.1339 885.28 92.1266 886.287 90.8839 886.287L25.3839 886.287C24.1413 886.287 23.1339 885.28 23.1339 884.037L23.1339 873.537C23.1339 872.295 24.1413 871.287 25.3839 871.287Z" fill="#f45b69" fill-rule="nonzero" opacity="1" stroke="#028090" stroke-linecap="butt" stroke-linejoin="miter" stroke-width="1"/>
<text fill="#e4fde1" font-family="Verdana" font-size="6.4" opacity="1" stroke="none" text-anchor="middle" transform="matrix(1 0 0 1 46.7777 874.287)" x="0" y="0">
<tspan textLength="21.7125" x="12.3563" y="6">Drizzle</tspan>
</text>
<path d="M172.234 818.787L263.034 818.787C265.022 818.787 266.634 820.399 266.634 822.387L266.634 839.187C266.634 841.176 265.022 842.787 263.034 842.787L172.234 842.787C170.246 842.787 168.634 841.176 168.634 839.187L168.634 822.387C168.634 820.399 170.246 818.787 172.234 818.787Z" fill="#6d8764" fill-rule="nonzero" opacity="1" stroke="#3a5431" stroke-linecap="butt" stroke-linejoin="miter" stroke-width="1"/>
<text fill="#ffffff" font-family="Verdana" font-size="6.4" opacity="1" stroke="none" text-anchor="middle" transform="matrix(1 0 0 1 211.906 826.287)" x="0" y="0">
<tspan textLength="11.4563" x="7.22813" y="6">ABI</tspan>
</text>
<path d="M676.984 360.287L775.284 360.287C776.858 360.287 778.134 361.563 778.134 363.137L778.134 376.437C778.134 378.011 776.858 379.287 775.284 379.287L676.984 379.287C675.41 379.287 674.134 378.011 674.134 376.437L674.134 363.137C674.134 361.563 675.41 360.287 676.984 360.287Z" fill="#6d8764" fill-rule="nonzero" opacity="1" stroke="#3a5431" stroke-linecap="butt" stroke-linejoin="miter" stroke-width="1"/>
<text fill="#ffffff" font-family="Verdana" font-size="8" opacity="1" stroke="none" text-anchor="middle" transform="matrix(1 0 0 1 698.642 364.287)" x="0" y="0">
<tspan textLength="53.9844" x="28.4922" y="8">Basic Web2.0</tspan>
</text>
<path d="M676.984 424.787L775.284 424.787C776.858 424.787 778.134 426.063 778.134 427.637L778.134 440.937C778.134 442.511 776.858 443.787 775.284 443.787L676.984 443.787C675.41 443.787 674.134 442.511 674.134 440.937L674.134 427.637C674.134 426.063 675.41 424.787 676.984 424.787Z" fill="#f45b69" fill-rule="nonzero" opacity="1" stroke="#028090" stroke-linecap="butt" stroke-linejoin="miter" stroke-width="1"/>
<text fill="#e4fde1" font-family="Verdana" font-size="8" opacity="1" stroke="none" text-anchor="middle" transform="matrix(1 0 0 1 705.062 429.287)" x="0" y="0">
<tspan textLength="41.1445" x="22.0723" y="8">JavaScript</tspan>
</text>
<path d="M676.984 392.287L775.284 392.287C776.858 392.287 778.134 393.563 778.134 395.137L778.134 408.437C778.134 410.011 776.858 411.287 775.284 411.287L676.984 411.287C675.41 411.287 674.134 410.011 674.134 408.437L674.134 395.137C674.134 393.563 675.41 392.287 676.984 392.287Z" fill="#f45b69" fill-rule="nonzero" opacity="1" stroke="#028090" stroke-linecap="butt" stroke-linejoin="miter" stroke-width="1"/>
<text fill="#e4fde1" font-family="Verdana" font-size="8" opacity="1" stroke="none" text-anchor="middle" transform="matrix(1 0 0 1 711.788 396.287)" x="0" y="0">
<tspan textLength="27.6914" x="15.3457" y="8">Python</tspan>
</text>
<path d="M501.134 437.787C574.467 392.454 632.134 369.787 674.134 369.787" fill="none" opacity="1" stroke="#000000" stroke-dasharray="3.0" stroke-linecap="butt" stroke-linejoin="miter" stroke-width="1"/>
<path d="M501.134 447.577C581.134 437.717 638.801 422.454 674.134 401.787" fill="none" opacity="1" stroke="#000000" stroke-dasharray="3.0" stroke-linecap="butt" stroke-linejoin="miter" stroke-width="1"/>
<path d="M501.134 464.037C581.134 449.871 637.801 439.454 671.134 432.787" fill="none" opacity="1" stroke="#000000" stroke-dasharray="3.0" stroke-linecap="butt" stroke-linejoin="miter" stroke-width="1"/>
<path d="M121.134 722.387C141.134 728.987 163.634 717.121 188.634 686.787" fill="none" opacity="1" stroke="#000000" stroke-dasharray="3.0" stroke-linecap="butt" stroke-linejoin="miter" stroke-width="1"/>
<path d="M698.884 1047.79L726.384 1047.79C728.455 1047.79 730.134 1049.47 730.134 1051.54L730.134 1069.04C730.134 1071.11 728.455 1072.79 726.384 1072.79L698.884 1072.79C696.813 1072.79 695.134 1071.11 695.134 1069.04L695.134 1051.54C695.134 1049.47 696.813 1047.79 698.884 1047.79Z" fill="#6d8764" fill-rule="nonzero" opacity="1" stroke="#3a5431" stroke-linecap="butt" stroke-linejoin="miter" stroke-width="1"/>
<text fill="#ffffff" font-family="Verdana" font-size="6.4" opacity="1" stroke="none" text-anchor="middle" transform="matrix(1 0 0 1 702.87 1056.29)" x="0" y="0">
<tspan textLength="19.5281" x="11.2641" y="6">Storej</tspan>
</text>
<path d="M716.734 987.987C711.667 1004.52 709.134 1016.12 709.134 1022.79C709.134 1029.45 710.301 1037.79 712.634 1047.79" fill="none" opacity="1" stroke="#000000" stroke-dasharray="3.0" stroke-linecap="butt" stroke-linejoin="miter" stroke-width="1"/>
<path d="M598.634 634.157C626.967 633.244 644.467 627.787 651.134 617.787C657.801 607.787 675.301 604.454 703.634 607.787" fill="none" opacity="1" stroke="#000000" stroke-linecap="butt" stroke-linejoin="miter" stroke-width="1"/>
<path d="M437.534 702.787L534.734 702.787C538.269 702.787 541.134 705.653 541.134 709.187L541.134 739.057C541.134 742.592 538.269 745.457 534.734 745.457L437.534 745.457C433.999 745.457 431.134 742.592 431.134 739.057L431.134 709.187C431.134 705.653 433.999 702.787 437.534 702.787Z" fill="#ffff88" fill-rule="nonzero" opacity="1" stroke="#36393d" stroke-linecap="butt" stroke-linejoin="miter" stroke-width="1"/>
<text fill="#000000" font-family="Helvetica" font-size="9.6" opacity="1" stroke="none" text-anchor="middle" transform="matrix(1 0 0 1 452.013 718.287)" x="0" y="0">
<tspan textLength="67.2422" x="35.1211" y="9">Step 2: General</tspan>
</text>
<path d="M467.134 952.787L545.134 952.787C548.448 952.787 551.134 955.474 551.134 958.787L551.134 986.787C551.134 990.101 548.448 992.787 545.134 992.787L467.134 992.787C463.82 992.787 461.134 990.101 461.134 986.787L461.134 958.787C461.134 955.474 463.82 952.787 467.134 952.787Z" fill="#ffff88" fill-rule="nonzero" opacity="1" stroke="#36393d" stroke-linecap="butt" stroke-linejoin="miter" stroke-width="1"/>
<text fill="#000000" font-family="Verdana" font-size="11.2" opacity="1" stroke="none" text-anchor="middle" transform="matrix(1 0 0 1 462.827 965.287)" x="0" y="0">
<tspan textLength="85.6133" x="44.3066" y="11">Step 3: Keep...</tspan>
</text>
<path d="M171.634 762.787L263.634 762.787C265.291 762.787 266.634 764.131 266.634 765.787L266.634 779.787C266.634 781.444 265.291 782.787 263.634 782.787L200.228 782.787L171.634 782.787C169.977 782.787 168.634 781.444 168.634 779.787L168.634 765.787C168.634 764.131 169.977 762.787 171.634 762.787Z" fill="#6d8764" fill-rule="nonzero" opacity="1" stroke="#3a5431" stroke-linecap="butt" stroke-linejoin="miter" stroke-width="1"/>
<text fill="#ffffff" font-family="Helvetica" font-size="9.6" opacity="1" stroke="none" text-anchor="middle" transform="matrix(1 0 0 1 196.027 767.287)" x="0" y="0">
<tspan textLength="43.2141" x="23.107" y="9">Json RPC</tspan>
</text>
<path d="M394.134 726.027C394.134 726.027 389.801 726.281 381.134 726.787" fill="none" opacity="1" stroke="#028090" stroke-linecap="butt" stroke-linejoin="miter" stroke-width="1"/>
<path d="M266.634 748.537C282.967 724.704 297.801 714.487 311.134 717.887" fill="none" opacity="1" stroke="#000000" stroke-dasharray="3.0" stroke-linecap="butt" stroke-linejoin="miter" stroke-width="1"/>
<path d="M266.634 777.787C276.301 754.454 297.801 736.454 331.134 723.787" fill="none" opacity="1" stroke="#000000" stroke-dasharray="3.0" stroke-linecap="butt" stroke-linejoin="miter" stroke-width="1"/>
<path d="M266.634 802.787C289.634 789.454 307.801 764.787 321.134 728.787" fill="none" opacity="1" stroke="#000000" stroke-dasharray="3.0" stroke-linecap="butt" stroke-linejoin="miter" stroke-width="1"/>
<path d="M266.634 824.787L282.154 817.187C288.141 814.254 293.491 810.431 298.204 805.717L304.674 799.247C308.981 794.941 312.187 789.624 314.294 783.297L317.974 772.277C320.081 765.951 321.134 759.454 321.134 752.787L321.134 728.787" fill="none" opacity="1" stroke="#000000" stroke-dasharray="3.0" stroke-linecap="butt" stroke-linejoin="miter" stroke-width="1"/>
<path d="M93.1339 878.787C118.467 874.787 145.984 879.121 175.684 891.787" fill="none" opacity="1" stroke="#000000" stroke-dasharray="3.0" stroke-linecap="butt" stroke-linejoin="miter" stroke-width="1"/>
<path d="M93.1339 898.787C111.801 908.121 128.801 911.707 144.134 909.547" fill="none" opacity="1" stroke="#000000" stroke-dasharray="3.0" stroke-linecap="butt" stroke-linejoin="miter" stroke-width="1"/>
<path d="M93.1339 919.287C118.467 928.287 146.491 925.787 177.204 911.787" fill="none" opacity="1" stroke="#000000" stroke-dasharray="3.0" stroke-linecap="butt" stroke-linejoin="miter" stroke-width="1"/>
<path d="M147.134 891.787L251.134 891.787C252.791 891.787 254.134 893.131 254.134 894.787L254.134 908.787C254.134 910.444 252.791 911.787 251.134 911.787L147.134 911.787C145.477 911.787 144.134 910.444 144.134 908.787L144.134 894.787C144.134 893.131 145.477 891.787 147.134 891.787Z" fill="#f45b69" fill-rule="nonzero" opacity="1" stroke="#028090" stroke-linecap="butt" stroke-linejoin="miter" stroke-width="1"/>
<text fill="#e4fde1" font-family="Verdana" font-size="8" opacity="1" stroke="none" text-anchor="middle" transform="matrix(1 0 0 1 179.134 896.287)" x="0" y="0">
<tspan textLength="39" x="21" y="8">Front End</tspan>
</text>
<path d="M326.134 996.317C326.134 996.317 371.134 990.434 461.134 978.667" fill="none" opacity="1" stroke="#000000" stroke-linecap="butt" stroke-linejoin="miter" stroke-width="1"/>
<path d="M79.6339 1172.79L162.634 1172.79C165.948 1172.79 168.634 1175.47 168.634 1178.79L168.634 1206.79C168.634 1210.1 165.948 1212.79 162.634 1212.79L79.6339 1212.79C76.3202 1212.79 73.6339 1210.1 73.6339 1206.79L73.6339 1178.79C73.6339 1175.47 76.3202 1172.79 79.6339 1172.79Z" fill="#6d8764" fill-rule="nonzero" opacity="1" stroke="#3a5431" stroke-linecap="butt" stroke-linejoin="miter" stroke-width="1"/>
<text fill="#ffffff" font-family="Helvetica" font-size="9.6" opacity="1" stroke="none" text-anchor="middle" transform="matrix(1 0 0 1 88.148 1181.73)" x="0" y="0">
<tspan textLength="62.9719" x="32.9859" y="9">Known Attacks
</tspan>
<tspan textLength="43.7672" x="32.9859" y="20">Repeating</tspan>
</text>
<path d="M46.1339 1092.79L139.634 1092.79C142.119 1092.79 144.134 1094.8 144.134 1097.29L144.134 1118.29C144.134 1120.77 142.119 1122.79 139.634 1122.79L46.1339 1122.79C43.6486 1122.79 41.6339 1120.77 41.6339 1118.29L41.6339 1097.29C41.6339 1094.8 43.6486 1092.79 46.1339 1092.79Z" fill="#f45b69" fill-rule="nonzero" opacity="1" stroke="#028090" stroke-linecap="butt" stroke-linejoin="miter" stroke-width="1"/>
<text fill="#e4fde1" font-family="Helvetica" font-size="9.6" opacity="1" stroke="none" text-anchor="middle" transform="matrix(1 0 0 1 56.7042 1102.29)" x="0" y="0">
<tspan textLength="71.8594" x="37.4297" y="9">Checklist Testing</tspan>
</text>
<path d="M115.634 1242.79L196.634 1242.79C199.119 1242.79 201.134 1244.8 201.134 1247.29L201.134 1268.29C201.134 1270.77 199.119 1272.79 196.634 1272.79L115.634 1272.79C113.149 1272.79 111.134 1270.77 111.134 1268.29L111.134 1247.29C111.134 1244.8 113.149 1242.79 115.634 1242.79Z" fill="#f45b69" fill-rule="nonzero" opacity="1" stroke="#028090" stroke-linecap="butt" stroke-linejoin="miter" stroke-width="1"/>
<text fill="#e4fde1" font-family="Helvetica" font-size="9.6" opacity="1" stroke="none" text-anchor="middle" transform="matrix(1 0 0 1 135.63 1252.29)" x="0" y="0">
<tspan textLength="40.0078" x="21.5039" y="9">Overview</tspan>
</text>
<path d="M339.634 1102.79L420.634 1102.79C423.119 1102.79 425.134 1104.8 425.134 1107.29L425.134 1128.29C425.134 1130.77 423.119 1132.79 420.634 1132.79L339.634 1132.79C337.149 1132.79 335.134 1130.77 335.134 1128.29L335.134 1107.29C335.134 1104.8 337.149 1102.79 339.634 1102.79Z" fill="#f45b69" fill-rule="nonzero" opacity="1" stroke="#028090" stroke-linecap="butt" stroke-linejoin="miter" stroke-width="1"/>
<text fill="#e4fde1" font-family="Helvetica" font-size="9.6" opacity="1" stroke="none" text-anchor="middle" transform="matrix(1 0 0 1 354.556 1112.29)" x="0" y="0">
<tspan textLength="50.1563" x="26.5781" y="9">TX Analysis</tspan>
</text>
<path d="M49.1539 1024.29L140.114 1024.29C142.058 1024.29 143.634 1025.86 143.634 1027.81L143.634 1044.27C143.634 1046.21 142.058 1047.79 140.114 1047.79L49.1539 1047.79C47.2099 1047.79 45.6339 1046.21 45.6339 1044.27L45.6339 1027.81C45.6339 1025.86 47.2099 1024.29 49.1539 1024.29Z" fill="#6d8764" fill-rule="nonzero" opacity="1" stroke="#3a5431" stroke-linecap="butt" stroke-linejoin="miter" stroke-width="1"/>
<text fill="#ffffff" font-family="Helvetica" font-size="9.6" opacity="1" stroke="none" text-anchor="middle" transform="matrix(1 0 0 1 76.2285 1030.29)" x="0" y="0">
<tspan textLength="36.8109" x="19.9055" y="9">Forensic</tspan>
</text>
<path d="M168.634 1192.79C210.301 1146.12 248.024 1086.79 281.804 1014.79" fill="none" opacity="1" stroke="#000000" stroke-dasharray="3.0" stroke-linecap="butt" stroke-linejoin="miter" stroke-width="1"/>
<path d="M144.134 1107.79C175.467 1104.45 219.167 1073.45 275.234 1014.79" fill="none" opacity="1" stroke="#000000" stroke-dasharray="3.0" stroke-linecap="butt" stroke-linejoin="miter" stroke-width="1"/>
<path d="M201.134 1257.79C234.467 1221.12 247.801 1189.45 241.134 1162.79C234.467 1136.12 250.134 1086.79 288.134 1014.79" fill="none" opacity="1" stroke="#000000" stroke-dasharray="3.0" stroke-linecap="butt" stroke-linejoin="miter" stroke-width="1"/>
<path d="M380.134 1102.79C380.134 1069.45 357.507 1040.12 312.254 1014.79" fill="none" opacity="1" stroke="#000000" stroke-dasharray="3.0" stroke-linecap="butt" stroke-linejoin="miter" stroke-width="1"/>
<path d="M254.184 987.787L322.084 987.787C324.321 987.787 326.134 989.601 326.134 991.837L326.134 1010.74C326.134 1012.97 324.321 1014.79 322.084 1014.79L254.184 1014.79C251.947 1014.79 250.134 1012.97 250.134 1010.74L250.134 991.837C250.134 989.601 251.947 987.787 254.184 987.787Z" fill="#f45b69" fill-rule="nonzero" opacity="1" stroke="#028090" stroke-linecap="butt" stroke-linejoin="miter" stroke-width="1"/>
<text fill="#e4fde1" font-family="Helvetica" font-size="9.6" opacity="1" stroke="none" text-anchor="middle" transform="matrix(1 0 0 1 270.295 995.287)" x="0" y="0">
<tspan textLength="34.6781" x="18.8391" y="9">Security</tspan>
</text>
<path d="M143.634 1036.04C175.301 1019.2 197.801 1009.29 211.134 1006.29C224.467 1003.29 237.467 1001.73 250.134 1001.62" fill="none" opacity="1" stroke="#000000" stroke-dasharray="3.0" stroke-linecap="butt" stroke-linejoin="miter" stroke-width="1"/>
<path d="M346.904 1392.79L441.364 1392.79C444.551 1392.79 447.134 1395.37 447.134 1398.56L447.134 1425.52C447.134 1428.7 444.551 1431.29 441.364 1431.29L346.904 1431.29C343.717 1431.29 341.134 1428.7 341.134 1425.52L341.134 1398.56C341.134 1395.37 343.717 1392.79 346.904 1392.79Z" fill="#ffff88" fill-rule="nonzero" opacity="1" stroke="#36393d" stroke-linecap="butt" stroke-linejoin="miter" stroke-width="1"/>
<text fill="#000000" font-family="Helvetica" font-size="9.6" opacity="1" stroke="none" text-anchor="middle" transform="matrix(1 0 0 1 353.882 1406.29)" x="0" y="0">
<tspan textLength="81.6422" x="42.3211" y="9">Step 4: DeFi in use</tspan>
</text>
<path d="M255.634 1643.54L345.634 1643.54C348.119 1643.54 350.134 1645.55 350.134 1648.04L350.134 1669.04C350.134 1671.52 348.119 1673.54 345.634 1673.54L255.634 1673.54C253.149 1673.54 251.134 1671.52 251.134 1669.04L251.134 1648.04C251.134 1645.55 253.149 1643.54 255.634 1643.54Z" fill="#f45b69" fill-rule="nonzero" opacity="1" stroke="#028090" stroke-linecap="butt" stroke-linejoin="miter" stroke-width="1"/>
<text fill="#e4fde1" font-family="Helvetica" font-size="9.6" opacity="1" stroke="none" text-anchor="middle" transform="matrix(1 0 0 1 266.317 1647.54)" x="0" y="0">
<tspan textLength="65.6344" x="34.3172" y="9">Research Base
</tspan>
<tspan textLength="32.5453" x="35.6508" y="20"> Check </tspan>
</text>
<path d="M266.634 1212.79L375.634 1212.79C378.119 1212.79 380.134 1214.8 380.134 1217.29L380.134 1238.29C380.134 1240.77 378.119 1242.79 375.634 1242.79L266.634 1242.79C264.149 1242.79 262.134 1240.77 262.134 1238.29L262.134 1217.29C262.134 1214.8 264.149 1212.79 266.634 1212.79Z" fill="#f45b69" fill-rule="nonzero" opacity="1" stroke="#028090" stroke-linecap="butt" stroke-linejoin="miter" stroke-width="1"/>
<text fill="#e4fde1" font-family="Helvetica" font-size="9.6" opacity="1" stroke="none" text-anchor="middle" transform="matrix(1 0 0 1 280.071 1222.29)" x="0" y="0">
<tspan textLength="81.1266" x="42.0633" y="9">The Scope of Audit</tspan>
</text>
<path d="M762.384 1442.79L809.884 1442.79C812.369 1442.79 814.384 1444.8 814.384 1447.29L814.384 1468.29C814.384 1470.77 812.369 1472.79 809.884 1472.79L762.384 1472.79C759.899 1472.79 757.884 1470.77 757.884 1468.29L757.884 1447.29C757.884 1444.8 759.899 1442.79 762.384 1442.79Z" fill="#f45b69" fill-rule="nonzero" opacity="1" stroke="#028090" stroke-linecap="butt" stroke-linejoin="miter" stroke-width="1"/>
<text fill="#e4fde1" font-family="Helvetica" font-size="9.6" opacity="1" stroke="none" text-anchor="middle" transform="matrix(1 0 0 1 769.457 1452.29)" x="0" y="0">
<tspan textLength="32.3531" x="17.6766" y="9">NFT (s)</tspan>
</text>
<path d="M645.634 1462.79L704.634 1462.79C707.119 1462.79 709.134 1464.8 709.134 1467.29L709.134 1488.29C709.134 1490.77 707.119 1492.79 704.634 1492.79L645.634 1492.79C643.149 1492.79 641.134 1490.77 641.134 1488.29L641.134 1467.29C641.134 1464.8 643.149 1462.79 645.634 1462.79Z" fill="#f45b69" fill-rule="nonzero" opacity="1" stroke="#028090" stroke-linecap="butt" stroke-linejoin="miter" stroke-width="1"/>
<text fill="#e4fde1" font-family="Helvetica" font-size="9.6" opacity="1" stroke="none" text-anchor="middle" transform="matrix(1 0 0 1 649.818 1472.29)" x="0" y="0">
<tspan textLength="49.6313" x="26.3156" y="9">Stable Coin</tspan>
</text>
<path d="M24.6339 1401.29L66.6339 1401.29C69.1192 1401.29 71.1339 1403.3 71.1339 1405.79L71.1339 1426.79C71.1339 1429.27 69.1192 1431.29 66.6339 1431.29L24.6339 1431.29C22.1486 1431.29 20.1339 1429.27 20.1339 1426.79L20.1339 1405.79C20.1339 1403.3 22.1486 1401.29 24.6339 1401.29Z" fill="#f45b69" fill-rule="nonzero" opacity="1" stroke="#028090" stroke-linecap="butt" stroke-linejoin="miter" stroke-width="1"/>
<text fill="#e4fde1" font-family="Helvetica" font-size="9.6" opacity="1" stroke="none" text-anchor="middle" transform="matrix(1 0 0 1 35.7644 1410.29)" x="0" y="0">
<tspan textLength="19.7391" x="11.3695" y="9">DEX</tspan>
</text>
<path d="M173.134 1482.79L209.634 1482.79C212.119 1482.79 214.134 1484.8 214.134 1487.29L214.134 1508.29C214.134 1510.77 212.119 1512.79 209.634 1512.79L173.134 1512.79C170.649 1512.79 168.634 1510.77 168.634 1508.29L168.634 1487.29C168.634 1484.8 170.649 1482.79 173.134 1482.79Z" fill="#f45b69" fill-rule="nonzero" opacity="1" stroke="#028090" stroke-linecap="butt" stroke-linejoin="miter" stroke-width="1"/>
<text fill="#e4fde1" font-family="Helvetica" font-size="9.6" opacity="1" stroke="none" text-anchor="middle" transform="matrix(1 0 0 1 180.232 1492.29)" x="0" y="0">
<tspan textLength="20.8031" x="11.9016" y="9">MEV</tspan>
</text>
<path d="M668.634 1151.79L783.634 1151.79C786.119 1151.79 788.134 1153.8 788.134 1156.29L788.134 1177.29C788.134 1179.77 786.119 1181.79 783.634 1181.79L668.634 1181.79C666.149 1181.79 664.134 1179.77 664.134 1177.29L664.134 1156.29C664.134 1153.8 666.149 1151.79 668.634 1151.79Z" fill="#6d8764" fill-rule="nonzero" opacity="1" stroke="#3a5431" stroke-linecap="butt" stroke-linejoin="miter" stroke-width="1"/>
<text fill="#ffffff" font-family="Helvetica" font-size="9.6" opacity="1" stroke="none" text-anchor="middle" transform="matrix(1 0 0 1 696.818 1161.29)" x="0" y="0">
<tspan textLength="57.6328" x="30.3164" y="9">Ethereum 2.0</tspan>
</text>
<path d="M165.634 1702.79L276.634 1702.79C279.119 1702.79 281.134 1704.8 281.134 1707.29L281.134 1728.29C281.134 1730.77 279.119 1732.79 276.634 1732.79L165.634 1732.79C163.149 1732.79 161.134 1730.77 161.134 1728.29L161.134 1707.29C161.134 1704.8 163.149 1702.79 165.634 1702.79Z" fill="#6d8764" fill-rule="nonzero" opacity="1" stroke="#3a5431" stroke-linecap="butt" stroke-linejoin="miter" stroke-width="1"/>
<text fill="#ffffff" font-family="Helvetica" font-size="9.6" opacity="1" stroke="none" text-anchor="middle" transform="matrix(1 0 0 1 189.957 1712.29)" x="0" y="0">
<tspan textLength="61.3547" x="32.1773" y="9">Best Practices</tspan>
</text>
<path d="M271.134 1462.79L360.884 1462.79C363.369 1462.79 365.384 1464.8 365.384 1467.29L365.384 1488.29C365.384 1490.77 363.369 1492.79 360.884 1492.79L271.134 1492.79C268.649 1492.79 266.634 1490.77 266.634 1488.29L266.634 1467.29C266.634 1464.8 268.649 1462.79 271.134 1462.79Z" fill="#f45b69" fill-rule="nonzero" opacity="1" stroke="#028090" stroke-linecap="butt" stroke-linejoin="miter" stroke-width="1"/>
<text fill="#e4fde1" font-family="Helvetica" font-size="9.6" opacity="1" stroke="none" text-anchor="middle" transform="matrix(1 0 0 1 282.543 1472.29)" x="0" y="0">
<tspan textLength="66.1828" x="34.5914" y="9">L1/L2 Solutions</tspan>
</text>
<path d="M233.134 1702.79C238.467 1696.12 252.467 1686.12 275.134 1672.79" fill="none" opacity="1" stroke="#000000" stroke-dasharray="3.0" stroke-linecap="butt" stroke-linejoin="miter" stroke-width="1"/>
<path d="M706.134 1502.79L769.634 1502.79C772.119 1502.79 774.134 1504.8 774.134 1507.29L774.134 1528.29C774.134 1530.77 772.119 1532.79 769.634 1532.79L706.134 1532.79C703.649 1532.79 701.634 1530.77 701.634 1528.29L701.634 1507.29C701.634 1504.8 703.649 1502.79 706.134 1502.79Z" fill="#f45b69" fill-rule="nonzero" opacity="1" stroke="#028090" stroke-linecap="butt" stroke-linejoin="miter" stroke-width="1"/>
<text fill="#e4fde1" font-family="Helvetica" font-size="9.6" opacity="1" stroke="none" text-anchor="middle" transform="matrix(1 0 0 1 720.03 1512.29)" x="0" y="0">
<tspan textLength="35.2078" x="19.1039" y="9">Farming</tspan>
</text>
<path d="M605.634 1412.79L658.134 1412.79C660.619 1412.79 662.634 1414.8 662.634 1417.29L662.634 1438.29C662.634 1440.77 660.619 1442.79 658.134 1442.79L605.634 1442.79C603.149 1442.79 601.134 1440.77 601.134 1438.29L601.134 1417.29C601.134 1414.8 603.149 1412.79 605.634 1412.79Z" fill="#f45b69" fill-rule="nonzero" opacity="1" stroke="#028090" stroke-linecap="butt" stroke-linejoin="miter" stroke-width="1"/>
<text fill="#e4fde1" font-family="Helvetica" font-size="9.6" opacity="1" stroke="none" text-anchor="middle" transform="matrix(1 0 0 1 614.55 1422.29)" x="0" y="0">
<tspan textLength="34.1672" x="18.5836" y="9">Lending</tspan>
</text>
<path d="M698.634 1312.79L783.634 1312.79C787.776 1312.79 791.134 1316.15 791.134 1320.29L791.134 1355.29C791.134 1359.43 787.776 1362.79 783.634 1362.79L698.634 1362.79C694.492 1362.79 691.134 1359.43 691.134 1355.29L691.134 1320.29C691.134 1316.15 694.492 1312.79 698.634 1312.79Z" fill="#f45b69" fill-rule="nonzero" opacity="1" stroke="#028090" stroke-linecap="butt" stroke-linejoin="miter" stroke-width="1"/>
<text fill="#e4fde1" font-family="Helvetica" font-size="9.6" opacity="1" stroke="none" text-anchor="middle" transform="matrix(1 0 0 1 703.35 1326.79)" x="0" y="0">
<tspan textLength="22.9359" x="39.1172" y="9">DeFi 
</tspan>
<tspan textLength="72.5672" x="39.1172" y="20">implementations </tspan>
</text>
<path d="M168.634 1487.38C103.634 1457.65 81.0506 1414.45 100.884 1357.79" fill="none" opacity="1" stroke="#000000" stroke-dasharray="3.0" stroke-linecap="butt" stroke-linejoin="miter" stroke-width="1"/>
<path d="M302.604 1462.79C254.957 1409.45 205.094 1374.45 153.014 1357.79" fill="none" opacity="1" stroke="#000000" stroke-dasharray="3.0" stroke-linecap="butt" stroke-linejoin="miter" stroke-width="1"/>
<path d="M647.264 1412.79C647.177 1399.45 664.224 1382.79 698.404 1362.79" fill="none" opacity="1" stroke="#000000" stroke-dasharray="3.0" stroke-linecap="butt" stroke-linejoin="miter" stroke-width="1"/>
<path d="M679.494 1462.79C687.254 1436.12 702.897 1402.79 726.424 1362.79" fill="none" opacity="1" stroke="#000000" stroke-dasharray="3.0" stroke-linecap="butt" stroke-linejoin="miter" stroke-width="1"/>
<path d="M787.494 1442.79C789.921 1416.12 780.877 1389.45 760.364 1362.79" fill="none" opacity="1" stroke="#000000" stroke-dasharray="3.0" stroke-linecap="butt" stroke-linejoin="miter" stroke-width="1"/>
<path d="M738.504 1362.79C733.591 1409.45 732.987 1456.12 736.694 1502.79" fill="none" opacity="1" stroke="#000000" stroke-dasharray="3.0" stroke-linecap="butt" stroke-linejoin="miter" stroke-width="1"/>
<path d="M412.984 1392.79C471.751 1332.79 519.467 1301.12 556.134 1297.79C592.801 1294.45 622.031 1276.12 643.824 1242.79" fill="none" opacity="1" stroke="#000000" stroke-linecap="butt" stroke-linejoin="miter" stroke-width="1"/>
<path d="M595.634 1212.79L711.634 1212.79C714.119 1212.79 716.134 1214.8 716.134 1217.29L716.134 1238.29C716.134 1240.77 714.119 1242.79 711.634 1242.79L595.634 1242.79C593.149 1242.79 591.134 1240.77 591.134 1238.29L591.134 1217.29C591.134 1214.8 593.149 1212.79 595.634 1212.79Z" fill="#6d8764" fill-rule="nonzero" opacity="1" stroke="#3a5431" stroke-linecap="butt" stroke-linejoin="miter" stroke-width="1"/>
<text fill="#ffffff" font-family="Helvetica" font-size="9.6" opacity="1" stroke="none" text-anchor="middle" transform="matrix(1 0 0 1 612.548 1222.29)" x="0" y="0">
<tspan textLength="82.1719" x="42.5859" y="9">Ethereum in Future</tspan>
</text>
<path d="M665.424 1212.79C675.897 1199.45 687.481 1189.12 700.174 1181.79" fill="none" opacity="1" stroke="#000000" stroke-dasharray="3.0" stroke-linecap="butt" stroke-linejoin="miter" stroke-width="1"/>
<path d="M691.134 1345.14C611.134 1356.9 529.801 1379.2 447.134 1412.04" fill="none" opacity="1" stroke="#000000" stroke-linecap="butt" stroke-linejoin="miter" stroke-width="1"/>
<path d="M156.134 1348.85C232.801 1358.14 296.107 1372.79 346.054 1392.79" fill="none" opacity="1" stroke="#000000" stroke-linecap="butt" stroke-linejoin="miter" stroke-width="1"/>
<path d="M171.884 1432.79L237.884 1432.79C240.369 1432.79 242.384 1434.8 242.384 1437.29L242.384 1458.29C242.384 1460.77 240.369 1462.79 237.884 1462.79L171.884 1462.79C169.399 1462.79 167.384 1460.77 167.384 1458.29L167.384 1437.29C167.384 1434.8 169.399 1432.79 171.884 1432.79Z" fill="#f45b69" fill-rule="nonzero" opacity="1" stroke="#028090" stroke-linecap="butt" stroke-linejoin="miter" stroke-width="1"/>
<text fill="#e4fde1" font-family="Helvetica" font-size="9.6" opacity="1" stroke="none" text-anchor="middle" transform="matrix(1 0 0 1 178.752 1442.29)" x="0" y="0">
<tspan textLength="51.7641" x="27.382" y="9">Side Chains</tspan>
</text>
<path d="M204.884 1432.79C202.384 1406.12 187.801 1396.12 161.134 1402.79C134.467 1409.45 116.134 1394.45 106.134 1357.79" fill="none" opacity="1" stroke="#000000" stroke-dasharray="3.0" stroke-linecap="butt" stroke-linejoin="miter" stroke-width="1"/>
<path d="M339.634 122.787L420.634 122.787C423.119 122.787 425.134 124.802 425.134 127.287L425.134 148.287C425.134 150.773 423.119 152.787 420.634 152.787L339.634 152.787C337.149 152.787 335.134 150.773 335.134 148.287L335.134 127.287C335.134 124.802 337.149 122.787 339.634 122.787Z" fill="#f45b69" fill-rule="nonzero" opacity="1" stroke="#028090" stroke-linecap="butt" stroke-linejoin="miter" stroke-width="1"/>
<text fill="#e4fde1" font-family="Helvetica" font-size="9.6" opacity="1" stroke="none" text-anchor="middle" transform="matrix(1 0 0 1 -469.36 1083.77)" x="0" y="0">
<tspan textLength="58.6828" x="32.175" y="9">Elliptic Curve 
</tspan>
<tspan textLength="57.6281" x="30.8414" y="20">Cryptograpgy</tspan>
</text>
<path d="M183.634 122.787L264.634 122.787C267.119 122.787 269.134 124.802 269.134 127.287L269.134 148.287C269.134 150.773 267.119 152.787 264.634 152.787L183.634 152.787C181.149 152.787 179.134 150.773 179.134 148.287L179.134 127.287C179.134 124.802 181.149 122.787 183.634 122.787Z" fill="#f45b69" fill-rule="nonzero" opacity="1" stroke="#028090" stroke-linecap="butt" stroke-linejoin="miter" stroke-width="1"/>
<text fill="#e4fde1" font-family="Helvetica" font-size="9.6" opacity="1" stroke="none" text-anchor="middle" transform="matrix(1 0 0 1 200.161 132.287)" x="0" y="0">
<tspan textLength="46.9453" x="24.9727" y="9">Bitcoin WP</tspan>
</text>
<path d="M135.634 173.537L217.634 173.537C220.119 173.537 222.134 175.552 222.134 178.037L222.134 199.037C222.134 201.523 220.119 203.537 217.634 203.537L135.634 203.537C133.149 203.537 131.134 201.523 131.134 199.037L131.134 178.037C131.134 175.552 133.149 173.537 135.634 173.537Z" fill="#f45b69" fill-rule="nonzero" opacity="1" stroke="#028090" stroke-linecap="butt" stroke-linejoin="miter" stroke-width="1"/>
<text fill="#e4fde1" font-family="Helvetica" font-size="9.6" opacity="1" stroke="none" text-anchor="middle" transform="matrix(1 0 0 1 137.514 177.537)" x="0" y="0">
<tspan textLength="75.2391" x="39.1195" y="9">Distributed ledger
</tspan>
<tspan textLength="26.4891" x="39.1195" y="20"> (DLT)</tspan>
</text>
<path d="M35.6339 233.537L116.634 233.537C119.119 233.537 121.134 235.552 121.134 238.037L121.134 259.037C121.134 261.523 119.119 263.537 116.634 263.537L35.6339 263.537C33.1486 263.537 31.1339 261.523 31.1339 259.037L31.1339 238.037C31.1339 235.552 33.1486 233.537 35.6339 233.537Z" fill="#f45b69" fill-rule="nonzero" opacity="1" stroke="#028090" stroke-linecap="butt" stroke-linejoin="miter" stroke-width="1"/>
<text fill="#e4fde1" font-family="Helvetica" font-size="9.6" opacity="1" stroke="none" text-anchor="middle" transform="matrix(1 0 0 1 39.691 237.537)" x="0" y="0">
<tspan textLength="69.8859" x="37.7766" y="9">Basics of Smart 
</tspan>
<tspan textLength="36.2813" x="36.443" y="20">Contract</tspan>
</text>
<path d="M34.1339 272.787L122.134 272.787C125.448 272.787 128.134 275.474 128.134 278.787L128.134 306.787C128.134 310.101 125.448 312.787 122.134 312.787L34.1339 312.787C30.8202 312.787 28.1339 310.101 28.1339 306.787L28.1339 278.787C28.1339 275.474 30.8202 272.787 34.1339 272.787Z" fill="#f45b69" fill-rule="nonzero" opacity="1" stroke="#028090" stroke-linecap="butt" stroke-linejoin="miter" stroke-width="1"/>
<text fill="#e4fde1" font-family="Helvetica" font-size="9.6" opacity="1" stroke="none" text-anchor="middle" transform="matrix(1 0 0 1 41.6722 281.726)" x="0" y="0">
<tspan textLength="66.6984" x="37.7953" y="9">Ethereum High 
</tspan>
<tspan textLength="69.9234" x="36.4617" y="20">Level languages</tspan>
</text>
<path d="M139.634 302.787L217.634 302.787C220.948 302.787 223.634 305.474 223.634 308.787L223.634 336.787C223.634 340.101 220.948 342.787 217.634 342.787L139.634 342.787C136.32 342.787 133.634 340.101 133.634 336.787L133.634 308.787C133.634 305.474 136.32 302.787 139.634 302.787Z" fill="#f45b69" fill-rule="nonzero" opacity="1" stroke="#028090" stroke-linecap="butt" stroke-linejoin="miter" stroke-width="1"/>
<text fill="#e4fde1" font-family="Helvetica" font-size="9.6" opacity="1" stroke="none" text-anchor="middle" transform="matrix(1 0 0 1 144.858 311.787)" x="0" y="0">
<tspan textLength="55.4906" x="35.1094" y="9">Life Cycle of 
</tspan>
<tspan textLength="64.5516" x="33.7758" y="20">Smart Contract</tspan>
</text>
<path d="M256.634 314.037L353.634 314.037C357.776 314.037 361.134 317.395 361.134 321.537L361.134 356.537C361.134 360.68 357.776 364.037 353.634 364.037L256.634 364.037C252.492 364.037 249.134 360.68 249.134 356.537L249.134 321.537C249.134 317.395 252.492 314.037 256.634 314.037Z" fill="#f45b69" fill-rule="nonzero" opacity="1" stroke="#028090" stroke-linecap="butt" stroke-linejoin="miter" stroke-width="1"/>
<text fill="#e4fde1" font-family="Helvetica" font-size="9.6" opacity="1" stroke="none" text-anchor="middle" transform="matrix(1 0 0 1 264.149 322.537)" x="0" y="0">
<tspan textLength="78.9703" x="42.3188" y="9">Compiling, testing 
</tspan>
<tspan textLength="64.0453" x="42.3188" y="20">and Deploying 
</tspan>
<tspan textLength="64.5516" x="40.9852" y="31">Smart Contract</tspan>
</text>
<path d="M726.966 268.547L813.466 268.547C817.194 268.547 820.216 271.569 820.216 275.297L820.216 306.797C820.216 310.525 817.194 313.547 813.466 313.547L726.966 313.547C723.238 313.547 720.216 310.525 720.216 306.797L720.216 275.297C720.216 271.569 723.238 268.547 726.966 268.547Z" fill="#f45b69" fill-rule="nonzero" opacity="1" stroke="#028090" stroke-linecap="butt" stroke-linejoin="miter" stroke-width="1"/>
<text fill="#e4fde1" font-family="Helvetica" font-size="9.6" opacity="1" stroke="none" text-anchor="middle" transform="matrix(1 0 0 1 735.1 274.547)" x="0" y="0">
<tspan textLength="67.2328" x="36.45" y="9">Interacting with 
</tspan>
<tspan textLength="43.2281" x="36.45" y="20">Deployed 
</tspan>
<tspan textLength="62.4188" x="35.1164" y="31">Smart contract</tspan>
</text>
<path d="M408.194 242.787C408.194 242.787 394.724 229.454 367.784 202.787" fill="none" opacity="1" stroke="#000000" stroke-linecap="butt" stroke-linejoin="miter" stroke-width="1"/>
<path d="M371.884 152.787C371.884 152.787 368.217 159.454 360.884 172.787" fill="none" opacity="1" stroke="#000000" stroke-dasharray="3.0" stroke-linecap="butt" stroke-linejoin="miter" stroke-width="1"/>
<path d="M269.134 137.787C297.134 154.454 314.467 176.121 321.134 202.787" fill="none" opacity="1" stroke="#000000" stroke-dasharray="3.0" stroke-linecap="butt" stroke-linejoin="miter" stroke-width="1"/>
<path d="M222.134 195.867C248.134 200.481 269.967 201.341 287.634 198.447" fill="none" opacity="1" stroke="#000000" stroke-dasharray="3.0" stroke-linecap="butt" stroke-linejoin="miter" stroke-width="1"/>
<path d="M292.134 172.787L413.134 172.787C415.619 172.787 417.634 174.802 417.634 177.287L417.634 198.287C417.634 200.773 415.619 202.787 413.134 202.787L292.134 202.787C289.649 202.787 287.634 200.773 287.634 198.287L287.634 177.287C287.634 174.802 289.649 172.787 292.134 172.787Z" fill="#f45b69" fill-rule="nonzero" opacity="1" stroke="#028090" stroke-linecap="butt" stroke-linejoin="miter" stroke-width="1"/>
<text fill="#e4fde1" font-family="Verdana" font-size="8" opacity="1" stroke="none" text-anchor="middle" transform="matrix(1 0 0 1 331.269 182.287)" x="0" y="0">
<tspan textLength="42.7305" x="22.8652" y="8">Blockchain</tspan>
</text>
<text fill="#e4fde1" font-family="Verdana" font-size="8" opacity="1" stroke="none" text-anchor="middle" transform="matrix(1 0 0 1 351.003 127.787)" x="0" y="0">
<tspan textLength="55.2617" x="30.5371" y="8">Elliptic Curve 
</tspan>
<tspan textLength="54.4922" x="29.1309" y="18">Cryptograpgy</tspan>
</text>
<path d="M550.634 98.5374L636.634 98.5374C639.119 98.5374 641.134 100.552 641.134 103.037L641.134 124.037C641.134 126.523 639.119 128.537 636.634 128.537L550.634 128.537C548.149 128.537 546.134 126.523 546.134 124.037L546.134 103.037C546.134 100.552 548.149 98.5374 550.634 98.5374Z" fill="#f45b69" fill-rule="nonzero" opacity="1" stroke="#028090" stroke-linecap="butt" stroke-linejoin="miter" stroke-width="1"/>
<text fill="#e4fde1" font-family="Helvetica" font-size="9.6" opacity="1" stroke="none" text-anchor="middle" transform="matrix(1 0 0 1 556.469 102.537)" x="0" y="0">
<tspan textLength="71.3297" x="37.1648" y="9">Ethereum Virtual
</tspan>
<tspan textLength="68.8172" x="37.1648" y="20"> Machine (EVM)</tspan>
</text>
<path d="M670.134 92.7874L764.134 92.7874C767.448 92.7874 770.134 95.4737 770.134 98.7874L770.134 126.787C770.134 130.101 767.448 132.787 764.134 132.787L670.134 132.787C666.82 132.787 664.134 130.101 664.134 126.787L664.134 98.7874C664.134 95.4737 666.82 92.7874 670.134 92.7874Z" fill="#f45b69" fill-rule="nonzero" opacity="1" stroke="#028090" stroke-linecap="butt" stroke-linejoin="miter" stroke-width="1"/>
<text fill="#e4fde1" font-family="Helvetica" font-size="9.6" opacity="1" stroke="none" text-anchor="middle" transform="matrix(1 0 0 1 672.153 101.787)" x="0" y="0">
<tspan textLength="86.9625" x="46.3148" y="9">Ethereum Networks 
</tspan>
<tspan textLength="78.2578" x="44.9813" y="20">(Mainnet, TestNet)</tspan>
</text>
<path d="M519.934 312.787L644.834 312.787C648.313 312.787 651.134 315.608 651.134 319.087L651.134 348.487C651.134 351.967 648.313 354.787 644.834 354.787L519.934 354.787C516.455 354.787 513.634 351.967 513.634 348.487L513.634 319.087C513.634 315.608 516.455 312.787 519.934 312.787Z" fill="#f45b69" fill-rule="nonzero" opacity="1" stroke="#028090" stroke-linecap="butt" stroke-linejoin="miter" stroke-width="1"/>
<text fill="#e4fde1" font-family="Helvetica" font-size="9.6" opacity="1" stroke="none" text-anchor="middle" transform="matrix(1 0 0 1 524.77 322.758)" x="0" y="0">
<tspan textLength="112.228" x="58.9477" y="9"> Wallets, Addresses, Gas, 
</tspan>
<tspan textLength="88.0406" x="57.6141" y="20">private &amp; public keys</tspan>
</text>
<path d="M701.134 142.787L819.134 142.787C822.448 142.787 825.134 145.474 825.134 148.787L825.134 176.787C825.134 180.101 822.448 182.787 819.134 182.787L701.134 182.787C697.82 182.787 695.134 180.101 695.134 176.787L695.134 148.787C695.134 145.474 697.82 142.787 701.134 142.787Z" fill="#f45b69" fill-rule="nonzero" opacity="1" stroke="#028090" stroke-linecap="butt" stroke-linejoin="miter" stroke-width="1"/>
<text fill="#e4fde1" font-family="Helvetica" font-size="9.6" opacity="1" stroke="none" text-anchor="middle" transform="matrix(1 0 0 1 709.277 151.726)" x="0" y="0">
<tspan textLength="98.7141" x="52.1906" y="9">Ethereum transactions 
</tspan>
<tspan textLength="69.9" x="50.857" y="20">with using wallet</tspan>
</text>
<path d="M739.134 202.787L832.134 202.787C835.447 202.787 838.134 205.474 838.134 208.787L838.134 236.787C838.134 240.101 835.447 242.787 832.134 242.787L739.134 242.787C735.82 242.787 733.134 240.101 733.134 236.787L733.134 208.787C733.134 205.474 735.82 202.787 739.134 202.787Z" fill="#f45b69" fill-rule="nonzero" opacity="1" stroke="#028090" stroke-linecap="butt" stroke-linejoin="miter" stroke-width="1"/>
<text fill="#e4fde1" font-family="Helvetica" font-size="9.6" opacity="1" stroke="none" text-anchor="middle" transform="matrix(1 0 0 1 731.842 211.726)" x="0" y="0">
<tspan textLength="104.583" x="55.125" y="9">Ethereum clients/Nodes 
</tspan>
<tspan textLength="36.825" x="53.7914" y="20">e.g Geth</tspan>
</text>
<path d="M653.134 272.787C625.134 246.121 640.577 199.454 699.464 132.787" fill="none" opacity="1" stroke="#000000" stroke-dasharray="3.0" stroke-linecap="butt" stroke-linejoin="miter" stroke-width="1"/>
<path d="M617.184 264.787C572.484 250.121 562.961 204.454 588.614 127.787" fill="none" opacity="1" stroke="#000000" stroke-dasharray="3.0" stroke-linecap="butt" stroke-linejoin="miter" stroke-width="1"/>
<path d="M664.134 268.287C682.134 224.621 702.634 196.121 725.634 182.787" fill="none" opacity="1" stroke="#000000" stroke-dasharray="3.0" stroke-linecap="butt" stroke-linejoin="miter" stroke-width="1"/>
<path d="M664.134 273.787C695.467 253.121 716.134 241.307 726.134 238.347" fill="none" opacity="1" stroke="#000000" stroke-dasharray="3.0" stroke-linecap="butt" stroke-linejoin="miter" stroke-width="1"/>
<path d="M595.084 312.787C599.117 306.121 598.651 296.787 593.684 284.787" fill="none" opacity="1" stroke="#000000" stroke-dasharray="3.0" stroke-linecap="butt" stroke-linejoin="miter" stroke-width="1"/>
<path d="M721.134 278.497C707.801 275.357 688.801 273.787 664.134 273.787" fill="none" opacity="1" stroke="#000000" stroke-dasharray="3.0" stroke-linecap="butt" stroke-linejoin="miter" stroke-width="1"/>
<path d="M354.634 242.787L494.134 242.787C496.619 242.787 498.634 244.802 498.634 247.287L498.634 268.287C498.634 270.773 496.619 272.787 494.134 272.787L354.634 272.787C352.149 272.787 350.134 270.773 350.134 268.287L350.134 247.287C350.134 244.802 352.149 242.787 354.634 242.787Z" fill="#f45b69" fill-rule="nonzero" opacity="1" stroke="#028090" stroke-linecap="butt" stroke-linejoin="miter" stroke-width="1"/>
<text fill="#e4fde1" font-family="Verdana" font-size="8" opacity="1" stroke="none" text-anchor="middle" transform="matrix(1 0 0 1 390.806 252.287)" x="0" y="0">
<tspan textLength="65.6562" x="34.3281" y="8">Smart Contracts</tspan>
</text>
<path d="M517.434 262.787L660.834 262.787C662.656 262.787 664.134 264.265 664.134 266.087L664.134 281.487C664.134 283.31 662.656 284.787 660.834 284.787L517.434 284.787C515.611 284.787 514.134 283.31 514.134 281.487L514.134 266.087C514.134 264.265 515.611 262.787 517.434 262.787Z" fill="#f45b69" fill-rule="nonzero" opacity="1" stroke="#028090" stroke-linecap="butt" stroke-linejoin="miter" stroke-width="1"/>
<text fill="#e4fde1" font-family="Verdana" font-size="8" opacity="1" stroke="none" text-anchor="middle" transform="matrix(1 0 0 1 569.103 268.287)" x="0" y="0">
<tspan textLength="39.0625" x="21.0312" y="8">Ethereum</tspan>
</text>
<path d="M317.094 1212.79C299.121 1146.12 289.547 1080.12 288.374 1014.79" fill="none" opacity="1" stroke="#000000" stroke-dasharray="3.0" stroke-linecap="butt" stroke-linejoin="miter" stroke-width="1"/>
<path d="M315.434 714.127L389.834 714.127C392.209 714.127 394.134 716.053 394.134 718.427L394.134 738.487C394.134 740.862 392.209 742.787 389.834 742.787L315.434 742.787C313.059 742.787 311.134 740.862 311.134 738.487L311.134 718.427C311.134 716.053 313.059 714.127 315.434 714.127Z" fill="#f45b69" fill-rule="nonzero" opacity="1" stroke="#028090" stroke-linecap="butt" stroke-linejoin="miter" stroke-width="1"/>
<text fill="#e4fde1" font-family="Verdana" font-size="8" opacity="1" stroke="none" text-anchor="middle" transform="matrix(1 0 0 1 335.671 723.287)" x="0" y="0">
<tspan textLength="33.9258" x="18.4629" y="8">Backend</tspan>
</text>
<path d="M431.134 725.907C431.134 725.907 418.801 726.307 394.134 727.107" fill="none" opacity="1" stroke="#000000" stroke-linecap="butt" stroke-linejoin="miter" stroke-width="1"/>
<path d="M535.634 1151.79L606.634 1151.79C609.119 1151.79 611.134 1153.8 611.134 1156.29L611.134 1177.29C611.134 1179.77 609.119 1181.79 606.634 1181.79L535.634 1181.79C533.149 1181.79 531.134 1179.77 531.134 1177.29L531.134 1156.29C531.134 1153.8 533.149 1151.79 535.634 1151.79Z" fill="#f45b69" fill-rule="nonzero" opacity="1" stroke="#028090" stroke-linecap="butt" stroke-linejoin="miter" stroke-width="1"/>
<text fill="#e4fde1" font-family="Helvetica" font-size="9.6" opacity="1" stroke="none" text-anchor="middle" transform="matrix(1 0 0 1 552.219 1161.29)" x="0" y="0">
<tspan textLength="36.8297" x="19.9148" y="9">EIP1559</tspan>
</text>
<path d="M622.384 1212.79C599.551 1199.45 585.737 1189.12 580.944 1181.79" fill="none" opacity="1" stroke="#000000" stroke-dasharray="3.0" stroke-linecap="butt" stroke-linejoin="miter" stroke-width="1"/>
<path d="M191.686 373.537L276.086 373.537C280.394 373.537 283.886 377.03 283.886 381.337L283.886 417.737C283.886 422.045 280.394 425.537 276.086 425.537L191.686 425.537C187.378 425.537 183.886 422.045 183.886 417.737L183.886 381.337C183.886 377.03 187.378 373.537 191.686 373.537Z" fill="#f45b69" fill-rule="nonzero" opacity="1" stroke="#028090" stroke-linecap="butt" stroke-linejoin="miter" stroke-width="1"/>
<text fill="#e4fde1" font-family="Helvetica" font-size="9.6" opacity="1" stroke="none" text-anchor="middle" transform="matrix(1 0 0 1 186.052 383.037)" x="0" y="0">
<tspan textLength="92.6672" x="49.1672" y="9">GIT - Version Control 
</tspan>
<tspan textLength="83.2313" x="49.1672" y="20">(GitHub, Bitbucket, 
</tspan>
<tspan textLength="31.4813" x="47.8336" y="31">GitLab)</tspan>
</text>
<path d="M200.033 443.787L278.333 443.787C281.564 443.787 284.183 446.407 284.183 449.637L284.183 476.937C284.183 480.168 281.564 482.787 278.333 482.787L200.033 482.787C196.802 482.787 194.183 480.168 194.183 476.937L194.183 449.637C194.183 446.407 196.802 443.787 200.033 443.787Z" fill="#f45b69" fill-rule="nonzero" opacity="1" stroke="#028090" stroke-linecap="butt" stroke-linejoin="miter" stroke-width="1"/>
<text fill="#e4fde1" font-family="Helvetica" font-size="9.6" opacity="1" stroke="none" text-anchor="middle" transform="matrix(1 0 0 1 206.75 452.287)" x="0" y="0">
<tspan textLength="61.8656" x="32.4328" y="9">HTTP/HTTPS,
</tspan>
<tspan textLength="59.7563" x="32.4328" y="20"> RPC protocol</tspan>
</text>
<path d="M281.134 398.787C321.134 409.454 354.467 425.787 381.134 447.787" fill="none" opacity="1" stroke="#000000" stroke-dasharray="3.0" stroke-linecap="butt" stroke-linejoin="miter" stroke-width="1"/>
<path d="M285.134 448.207C315.801 437.927 350.467 437.787 389.134 447.787" fill="none" opacity="1" stroke="#000000" stroke-dasharray="3.0" stroke-linecap="butt" stroke-linejoin="miter" stroke-width="1"/>
<path d="M381.384 437.787L495.884 437.787C498.783 437.787 501.134 440.138 501.134 443.037L501.134 467.537C501.134 470.437 498.783 472.787 495.884 472.787L381.384 472.787C378.484 472.787 376.134 470.437 376.134 467.537L376.134 443.037C376.134 440.138 378.484 437.787 381.384 437.787Z" fill="#ffff88" fill-rule="nonzero" opacity="1" stroke="#36393d" stroke-linecap="butt" stroke-linejoin="miter" stroke-width="1"/>
<text fill="#000000" font-family="Verdana" font-size="8" opacity="1" stroke="none" text-anchor="middle" transform="matrix(1 0 0 1 409.782 450.287)" x="0" y="0">
<tspan textLength="57.7031" x="30.3516" y="8">Step 1: Basics</tspan>
</text>
<path d="M526.914 262.787C526.914 262.787 517.487 261.121 498.634 257.787" fill="none" opacity="1" stroke="#000000" stroke-linecap="butt" stroke-linejoin="miter" stroke-width="1"/>
<path d="M403.254 1552.79C403.254 1552.79 400.214 1512.29 394.134 1431.29" fill="none" opacity="1" stroke="#000000" stroke-linecap="butt" stroke-linejoin="miter" stroke-width="1"/>
<path d="M354.384 1552.79L455.134 1552.79C458.448 1552.79 461.134 1555.47 461.134 1558.79L461.134 1586.79C461.134 1590.1 458.448 1592.79 455.134 1592.79L354.384 1592.79C351.07 1592.79 348.384 1590.1 348.384 1586.79L348.384 1558.79C348.384 1555.47 351.07 1552.79 354.384 1552.79Z" fill="#ffff88" fill-rule="nonzero" opacity="1" stroke="#36393d" stroke-linecap="butt" stroke-linejoin="miter" stroke-width="1"/>
<text fill="#000000" font-family="Helvetica" font-size="9.6" opacity="1" stroke="none" text-anchor="middle" transform="matrix(1 0 0 1 361.675 1567.29)" x="0" y="0">
<tspan textLength="85.9172" x="44.4586" y="9">Step 5: Professional</tspan>
</text>
<path d="M60.6339 1327.79L151.634 1327.79C154.119 1327.79 156.134 1329.8 156.134 1332.29L156.134 1353.29C156.134 1355.77 154.119 1357.79 151.634 1357.79L60.6339 1357.79C58.1486 1357.79 56.1339 1355.77 56.1339 1353.29L56.1339 1332.29C56.1339 1329.8 58.1486 1327.79 60.6339 1327.79Z" fill="#f45b69" fill-rule="nonzero" opacity="1" stroke="#028090" stroke-linecap="butt" stroke-linejoin="miter" stroke-width="1"/>
<text fill="#e4fde1" font-family="Helvetica" font-size="9.6" opacity="1" stroke="none" text-anchor="middle" transform="matrix(1 0 0 1 93.0925 1337.29)" x="0" y="0">
<tspan textLength="25.0828" x="14.0414" y="9">Chain</tspan>
</text>
<path d="M51.6939 1401.29C53.9873 1395.62 51.1339 1389.45 43.1339 1382.79C35.1339 1376.12 43.6339 1367.79 68.6339 1357.79" fill="none" opacity="1" stroke="#000000" stroke-dasharray="3.0" stroke-linecap="butt" stroke-linejoin="miter" stroke-width="1"/>
<path d="M300.634 1642.79C307.634 1622.79 317.801 1614.45 331.134 1617.79C344.467 1621.12 361.857 1612.79 383.304 1592.79" fill="none" opacity="1" stroke="#000000" stroke-linecap="butt" stroke-linejoin="miter" stroke-width="1"/>
<path d="M532.364 1632.79C532.364 1632.79 504.007 1619.45 447.294 1592.79" fill="none" opacity="1" stroke="#000000" stroke-linecap="butt" stroke-linejoin="miter" stroke-width="1"/>
<path d="M24.1839 715.787L137.084 715.787C139.321 715.787 141.134 717.601 141.134 719.837L141.134 738.737C141.134 740.974 139.321 742.787 137.084 742.787L24.1839 742.787C21.9472 742.787 20.1339 740.974 20.1339 738.737L20.1339 719.837C20.1339 717.601 21.9472 715.787 24.1839 715.787Z" fill="#6d8764" fill-rule="nonzero" opacity="1" stroke="#3a5431" stroke-linecap="butt" stroke-linejoin="miter" stroke-width="1"/>
<text fill="#ffffff" font-family="Verdana" font-size="6.4" opacity="1" stroke="none" text-anchor="middle" transform="matrix(1 0 0 1 47.7902 725.287)" x="0" y="0">
<tspan textLength="65.6875" x="34.3438" y="6">labs.superblock.com</tspan>
</text>
<path d="M397.094 1592.79C353.121 1699.45 341.134 1772.79 361.134 1812.79C381.134 1852.79 394.467 1882.79 401.134 1902.79C407.801 1922.79 404.791 1974.02 392.104 2056.5" fill="none" opacity="1" stroke="#000000" stroke-linecap="butt" stroke-linejoin="miter" stroke-width="1"/>
<path d="M391.304 2061.69L388.914 2054.23L392.104 2056.5L395.824 2055.3L391.304 2061.69Z" fill="#ffffff" fill-rule="nonzero" opacity="1" stroke="#ffffff" stroke-linecap="butt" stroke-linejoin="miter" stroke-width="1"/>
<path d="M0.133927 63.7874L850.134 63.7874" fill="none" opacity="1" stroke="#000000" stroke-linecap="butt" stroke-linejoin="miter" stroke-width="1"/>
<path d="M216.134 1972.79L336.134 1972.79L336.134 2032.79L293.334 2032.79L273.734 2062.79L253.334 2032.79L216.134 2032.79L216.134 1972.79Z" fill="none" opacity="1" stroke="#000000" stroke-linecap="butt" stroke-linejoin="miter" stroke-width="1"/>
<path d="M708.134 592.787L786.634 592.787C789.119 592.787 791.134 594.802 791.134 597.287L791.134 618.287C791.134 620.773 789.119 622.787 786.634 622.787L708.134 622.787C705.649 622.787 703.634 620.773 703.634 618.287L703.634 597.287C703.634 594.802 705.649 592.787 708.134 592.787Z" fill="#f45b69" fill-rule="nonzero" opacity="1" stroke="#028090" stroke-linecap="butt" stroke-linejoin="miter" stroke-width="1"/>
<text fill="#ffffff" font-family="Helvetica" font-size="9.6" opacity="1" stroke="none" text-anchor="middle" transform="matrix(1 0 0 1 728.76 602.287)" x="0" y="0">
<tspan textLength="35.7469" x="19.3734" y="9">HardHat</tspan>
</text>
<path d="M490.014 520.538L563.254 520.538C567.606 520.538 571.134 524.066 571.134 528.418L571.134 565.158C571.134 569.51 567.606 573.038 563.254 573.038L490.014 573.038C485.662 573.038 482.134 569.51 482.134 565.158L482.134 528.418C482.134 524.066 485.662 520.538 490.014 520.538Z" fill="#f45b69" fill-rule="nonzero" opacity="1" stroke="#028090" stroke-linecap="butt" stroke-linejoin="miter" stroke-width="1"/>
<text fill="#e4fde1" font-family="Helvetica" font-size="9.6" opacity="1" stroke="none" text-anchor="middle" transform="matrix(1 0 0 1 487.519 530.287)" x="0" y="0">
<tspan textLength="75.2297" x="40.4484" y="9">Rare  (Check the 
</tspan>
<tspan textLength="42.15" x="40.4484" y="20">list below 
</tspan>
<tspan textLength="60.8344" x="39.1148" y="31">the RoadMap)</tspan>
</text>
<path d="M561.134 622.787L561.134 602.787C561.134 596.121 557.801 592.787 551.134 592.787L537.134 592.787C530.467 592.787 527.051 589.454 526.884 582.787L526.634 572.787" fill="none" opacity="1" stroke="#000000" stroke-linecap="butt" stroke-linejoin="miter" stroke-width="1"/>
<path d="M533.884 617.787L593.384 617.787C596.283 617.787 598.634 620.138 598.634 623.037L598.634 647.537C598.634 650.437 596.283 652.787 593.384 652.787L533.884 652.787C530.984 652.787 528.634 650.437 528.634 647.537L528.634 623.037C528.634 620.138 530.984 617.787 533.884 617.787Z" fill="#f45b69" fill-rule="nonzero" opacity="1" stroke="#028090" stroke-linecap="butt" stroke-linejoin="miter" stroke-width="1"/>
<text fill="#e4fde1" font-family="Verdana" font-size="8" opacity="1" stroke="none" text-anchor="middle" transform="matrix(1 0 0 1 539.163 630.287)" x="0" y="0">
<tspan textLength="48.9414" x="25.9707" y="8">Frameworks</tspan>
</text>
<path d="M467.408 152.787L542.408 152.787C546.55 152.787 549.908 156.145 549.908 160.287L549.908 195.287C549.908 199.43 546.55 202.787 542.408 202.787L467.408 202.787C463.266 202.787 459.908 199.43 459.908 195.287L459.908 160.287C459.908 156.145 463.266 152.787 467.408 152.787Z" fill="#f45b69" fill-rule="nonzero" opacity="1" stroke="#028090" stroke-linecap="butt" stroke-linejoin="miter" stroke-width="1"/>
<text fill="#000000" font-family="Helvetica" font-size="9.6" opacity="1" stroke="none" text-anchor="middle" transform="matrix(1 0 0 1 467.124 166.787)" x="0" y="0">
<tspan textLength="72.5672" x="39.1172" y="9">ERC20 ERC721 
</tspan>
<tspan textLength="40.9172" x="37.7836" y="20">ERC1155</tspan>
</text>
<path d="M581.354 262.787C567.207 242.787 551.134 234.454 533.134 237.787C515.134 241.121 506.134 229.454 506.134 202.787" fill="none" opacity="1" stroke="#000000" stroke-dasharray="3.0" stroke-linecap="butt" stroke-linejoin="miter" stroke-width="1"/>
<path d="M106.134 1528.79L84.6739 1472.14C82.3139 1465.9 81.1339 1459.45 81.1339 1452.79L81.1339 1357.79" fill="none" opacity="1" stroke="#000000" stroke-dasharray="3.0" stroke-linecap="butt" stroke-linejoin="miter" stroke-width="1"/>
<path d="M27.6339 1502.79L136.634 1502.79C139.119 1502.79 141.134 1504.8 141.134 1507.29L141.134 1528.29C141.134 1530.77 139.119 1532.79 136.634 1532.79L27.6339 1532.79C25.1486 1532.79 23.1339 1530.77 23.1339 1528.29L23.1339 1507.29C23.1339 1504.8 25.1486 1502.79 27.6339 1502.79Z" fill="#f45b69" fill-rule="nonzero" opacity="1" stroke="#028090" stroke-linecap="butt" stroke-linejoin="miter" stroke-width="1"/>
<text fill="#000000" font-family="Helvetica" font-size="9.6" opacity="1" stroke="none" text-anchor="middle" transform="matrix(1 0 0 1 36.805 1512.29)" x="0" y="0">
<tspan textLength="89.6578" x="46.3289" y="9">BSC/Polygon/Solana</tspan>
</text>
<path d="M273.884 1572.79L308.384 1572.79C310.869 1572.79 312.884 1574.8 312.884 1577.29L312.884 1598.29C312.884 1600.77 310.869 1602.79 308.384 1602.79L273.884 1602.79C271.399 1602.79 269.384 1600.77 269.384 1598.29L269.384 1577.29C269.384 1574.8 271.399 1572.79 273.884 1572.79Z" fill="#f45b69" fill-rule="nonzero" opacity="1" stroke="#028090" stroke-linecap="butt" stroke-linejoin="miter" stroke-width="1"/>
<text fill="#000000" font-family="Helvetica" font-size="9.6" opacity="1" stroke="none" text-anchor="middle" transform="matrix(1 0 0 1 274.628 1582.29)" x="0" y="0">
<tspan textLength="32.0109" x="17.5055" y="9">Plasma</tspan>
</text>
<path d="M195.134 1583.54L247.134 1583.54C249.619 1583.54 251.634 1585.55 251.634 1588.04L251.634 1609.04C251.634 1611.52 249.619 1613.54 247.134 1613.54L195.134 1613.54C192.649 1613.54 190.634 1611.52 190.634 1609.04L190.634 1588.04C190.634 1585.55 192.649 1583.54 195.134 1583.54Z" fill="#f45b69" fill-rule="nonzero" opacity="1" stroke="#028090" stroke-linecap="butt" stroke-linejoin="miter" stroke-width="1"/>
<text fill="#000000" font-family="Helvetica" font-size="9.6" opacity="1" stroke="none" text-anchor="middle" transform="matrix(1 0 0 1 199.353 1587.54)" x="0" y="0">
<tspan textLength="25.0828" x="23.1141" y="9">State 
</tspan>
<tspan textLength="40.5609" x="21.7805" y="20">Channels</tspan>
</text>
<path d="M46.1339 1602.79L97.1339 1602.79C99.6192 1602.79 101.634 1604.8 101.634 1607.29L101.634 1628.29C101.634 1630.77 99.6192 1632.79 97.1339 1632.79L46.1339 1632.79C43.6486 1632.79 41.6339 1630.77 41.6339 1628.29L41.6339 1607.29C41.6339 1604.8 43.6486 1602.79 46.1339 1602.79Z" fill="#f45b69" fill-rule="nonzero" opacity="1" stroke="#028090" stroke-linecap="butt" stroke-linejoin="miter" stroke-width="1"/>
<text fill="#000000" font-family="Helvetica" font-size="9.6" opacity="1" stroke="none" text-anchor="middle" transform="matrix(1 0 0 1 47.8941 1612.29)" x="0" y="0">
<tspan textLength="47.4797" x="25.2398" y="9">ZK-Rollups</tspan>
</text>
<path d="M46.1339 1653.54L97.1339 1653.54C99.6192 1653.54 101.634 1655.55 101.634 1658.04L101.634 1679.04C101.634 1681.52 99.6192 1683.54 97.1339 1683.54L46.1339 1683.54C43.6486 1683.54 41.6339 1681.52 41.6339 1679.04L41.6339 1658.04C41.6339 1655.55 43.6486 1653.54 46.1339 1653.54Z" fill="#f45b69" fill-rule="nonzero" opacity="1" stroke="#028090" stroke-linecap="butt" stroke-linejoin="miter" stroke-width="1"/>
<text fill="#000000" font-family="Helvetica" font-size="9.6" opacity="1" stroke="none" text-anchor="middle" transform="matrix(1 0 0 1 47.7324 1657.54)" x="0" y="0">
<tspan textLength="44.8031" x="25.2352" y="9">Optimistic 
</tspan>
<tspan textLength="32.0156" x="23.9016" y="20">Rollups</tspan>
</text>
<path d="M291.134 1572.79L310.834 1541.27C314.367 1535.61 316.124 1529.45 316.104 1522.79L316.014 1492.79" fill="none" opacity="1" stroke="#000000" stroke-dasharray="3.0" stroke-linecap="butt" stroke-linejoin="miter" stroke-width="1"/>
<path d="M229.124 1584.8L237.624 1562.15C239.964 1555.91 244.297 1551.73 250.624 1549.63L261.644 1545.95C267.971 1543.84 273.491 1540.43 278.204 1535.72L284.674 1529.25C288.981 1524.94 290.454 1519.52 289.094 1513L285.104 1493.78" fill="none" opacity="1" stroke="#000000" stroke-dasharray="3.0" stroke-linecap="butt" stroke-linejoin="miter" stroke-width="1"/>
<path d="M161.134 1567.79L201.184 1563.79C207.817 1563.12 212.801 1561.12 216.134 1557.79L218.634 1555.29C220.301 1553.62 222.187 1549.62 224.294 1543.3L237.974 1502.28C240.081 1495.95 244.331 1491.85 250.724 1489.97L266.634 1485.29" fill="none" opacity="1" stroke="#000000" stroke-dasharray="3.0" stroke-linecap="butt" stroke-linejoin="miter" stroke-width="1"/>
<path d="M139.384 1552.79L172.884 1552.79C175.369 1552.79 177.384 1554.8 177.384 1557.29L177.384 1578.29C177.384 1580.77 175.369 1582.79 172.884 1582.79L139.384 1582.79C136.899 1582.79 134.884 1580.77 134.884 1578.29L134.884 1557.29C134.884 1554.8 136.899 1552.79 139.384 1552.79Z" fill="#f45b69" fill-rule="nonzero" opacity="1" stroke="#028090" stroke-linecap="butt" stroke-linejoin="miter" stroke-width="1"/>
<text fill="#000000" font-family="Helvetica" font-size="9.6" opacity="1" stroke="none" text-anchor="middle" transform="matrix(1 0 0 1 139.626 1562.29)" x="0" y="0">
<tspan textLength="32.0156" x="17.5078" y="9">Rollups</tspan>
</text>
<path d="M69.6339 1602.79L76.1539 1591.46C79.4739 1585.68 84.3439 1581.89 90.7639 1580.1L134.884 1567.79" fill="none" opacity="1" stroke="#000000" stroke-dasharray="3.0" stroke-linecap="butt" stroke-linejoin="miter" stroke-width="1"/>
<path d="M101.634 1667.79L111.444 1665.27C117.904 1663.61 123.217 1660.18 127.384 1654.98L138.884 1640.6C143.051 1635.39 145.851 1629.53 147.284 1623.02L156.134 1582.79" fill="none" opacity="1" stroke="#000000" stroke-dasharray="3.0" stroke-linecap="butt" stroke-linejoin="miter" stroke-width="1"/>
<path d="M605.734 702.787L698.284 702.787C699.858 702.787 701.134 704.063 701.134 705.637L701.134 718.937C701.134 720.511 699.858 721.787 698.284 721.787L605.734 721.787C604.16 721.787 602.884 720.511 602.884 718.937L602.884 705.637C602.884 704.063 604.16 702.787 605.734 702.787Z" fill="#f45b69" fill-rule="nonzero" opacity="1" stroke="#028090" stroke-linecap="butt" stroke-linejoin="miter" stroke-width="1"/>
<text fill="#000000" font-family="Helvetica" font-size="9.6" opacity="1" stroke="none" text-anchor="middle" transform="matrix(1 0 0 1 634.293 706.287)" x="0" y="0">
<tspan textLength="34.6828" x="18.8414" y="9">Brownie</tspan>
</text>
<path d="M629.184 702.787L581.134 682.787L570.084 652.787" fill="none" opacity="1" stroke="#000000" stroke-dasharray="3.0" stroke-linecap="butt" stroke-linejoin="miter" stroke-width="1"/>
<text fill="#000000" font-family="Helvetica" font-size="9.6" opacity="1" stroke="none" text-anchor="middle" transform="matrix(1 0 0 1 220.596 1995.53)" x="0" y="0">
<tspan textLength="109.388" x="56.1938" y="9">May the force be with you</tspan>
</text>
<text fill="#000000" font-family="Helvetica" font-size="34.6" opacity="1" stroke="none" text-anchor="middle" transform="matrix(1 0 0 1 283.714 10.4458)" x="0" y="0">
<tspan textLength="240.375" x="121.688" y="34">DeFi Developer</tspan>
</text>
</g>
</svg>
