<?xml version="1.0" encoding="UTF-8" standalone="no"?>
<!DOCTYPE svg PUBLIC "-//W3C//DTD SVG 1.1//EN" "http://www.w3.org/Graphics/SVG/1.1/DTD/svg11.dtd">
<!-- Created with Vectornator (http://vectornator.io/) -->
<svg height="1986.0px" stroke-miterlimit="10" style="fill-rule:nonzero;clip-rule:evenodd;stroke-linecap:round;stroke-linejoin:round;" version="1.1" viewBox="0 0 787 1986" width="787.0px" xml:space="preserve" xmlns="http://www.w3.org/2000/svg" xmlns:xlink="http://www.w3.org/1999/xlink">
<defs/>
<g id="Untitled">
<g opacity="1">
<path d="M376.5 50.5C376.5 70.5 373.833 80.5 368.5 80.5C363.167 80.5 360.5 90.5 360.5 110.5" fill="none" opacity="1" stroke="#b5739d" stroke-linecap="butt" stroke-linejoin="miter" stroke-width="1"/>
<text fill="#000000" font-family="Helvetica" font-size="9.6" opacity="1" stroke="none" text-anchor="middle" transform="matrix(1 0 0 1 305.652 20)" x="0" y="0">
<tspan textLength="140.695" x="71.8477" y="9">Rust Web Developer Roadmap...</tspan>
</text>
<path d="M360.5 130.5C360.5 153.833 365.667 165.5 376 165.5C386.333 165.5 391.5 177.167 391.5 200.5" fill="none" opacity="1" stroke="#b5739d" stroke-linecap="butt" stroke-linejoin="miter" stroke-width="1"/>
<text fill="#000000" font-family="Helvetica" font-size="9.6" opacity="1" stroke="none" text-anchor="middle" transform="matrix(1 0 0 1 310.371 115)" x="0" y="0">
<tspan textLength="99.2578" x="51.1289" y="9">Learn the Prerequisites</tspan>
</text>
<path d="M391.5 220.5C391.5 220.5 391.5 223.833 391.5 230.5" fill="none" opacity="1" stroke="#b5739d" stroke-linecap="butt" stroke-linejoin="miter" stroke-width="1"/>
<path d="M351.5 210.5C336.833 210.5 329.5 207.667 329.5 202C329.5 196.333 318.86 193.5 297.58 193.5" fill="none" opacity="1" stroke="#b5739d" stroke-dasharray="3.0" stroke-linecap="butt" stroke-linejoin="miter" stroke-width="1"/>
<path d="M351.5 210.5C282.167 210.5 247.497 212.167 247.49 215.5" fill="none" opacity="1" stroke="#b5739d" stroke-dasharray="3.0" stroke-linecap="butt" stroke-linejoin="miter" stroke-width="1"/>
<path d="M351.5 210.5C320.833 210.5 305.5 213.833 305.5 220.5C305.5 227.167 296.333 230.5 278 230.5C259.667 230.5 250.5 231.167 250.5 232.5C250.5 233.833 248.507 234.5 244.52 234.5" fill="none" opacity="1" stroke="#b5739d" stroke-dasharray="3.0" stroke-linecap="butt" stroke-linejoin="miter" stroke-width="1"/>
<path d="M354.5 200.5L428.5 200.5C430.157 200.5 431.5 201.843 431.5 203.5L431.5 217.5C431.5 219.157 430.157 220.5 428.5 220.5L354.5 220.5C352.843 220.5 351.5 219.157 351.5 217.5L351.5 203.5C351.5 201.843 352.843 200.5 354.5 200.5Z" fill="#fff2cc" fill-rule="nonzero" opacity="1" stroke="#d6b656" stroke-linecap="butt" stroke-linejoin="miter" stroke-width="1"/>
<text fill="#000000" font-family="Helvetica" font-size="9.6" opacity="1" stroke="none" text-anchor="middle" transform="matrix(1 0 0 1 381.13 205)" x="0" y="0">
<tspan textLength="19.7391" x="11.3695" y="9">Rust</tspan>
</text>
<path d="M391.5 250.5C391.5 250.5 391.5 253.833 391.5 260.5" fill="none" opacity="1" stroke="#b5739d" stroke-linecap="butt" stroke-linejoin="miter" stroke-width="1"/>
<path d="M431.5 240.5C453.167 240.5 464 238.833 464 235.5C464 232.167 474.833 230.5 496.5 230.5" fill="none" opacity="1" stroke="#b5739d" stroke-dasharray="3.0" stroke-linecap="butt" stroke-linejoin="miter" stroke-width="1"/>
<path d="M354.5 230.5L428.5 230.5C430.157 230.5 431.5 231.843 431.5 233.5L431.5 247.5C431.5 249.157 430.157 250.5 428.5 250.5L354.5 250.5C352.843 250.5 351.5 249.157 351.5 247.5L351.5 233.5C351.5 231.843 352.843 230.5 354.5 230.5Z" fill="#fff2cc" fill-rule="nonzero" opacity="1" stroke="#d6b656" stroke-linecap="butt" stroke-linejoin="miter" stroke-width="1"/>
<text fill="#000000" font-family="Helvetica" font-size="9.6" opacity="1" stroke="none" text-anchor="middle" transform="matrix(1 0 0 1 375.791 235)" x="0" y="0">
<tspan textLength="30.4172" x="16.7086" y="9">Rustup</tspan>
</text>
<path d="M391.5 280.5C391.5 280.5 391.5 283.833 391.5 290.5" fill="none" opacity="1" stroke="#b5739d" stroke-linecap="butt" stroke-linejoin="miter" stroke-width="1"/>
<path d="M431.5 270.5C454.367 270.5 465.8 276 465.8 287C465.8 298 471.75 303.5 483.65 303.5C495.55 303.5 501.513 296.577 501.54 282.73" fill="none" opacity="1" stroke="#b5739d" stroke-dasharray="3.0" stroke-linecap="butt" stroke-linejoin="miter" stroke-width="1"/>
<path d="M431.5 270.5C454.833 270.5 466.5 274.583 466.5 282.75C466.5 290.917 478.167 295 501.5 295" fill="none" opacity="1" stroke="#b5739d" stroke-dasharray="3.0" stroke-linecap="butt" stroke-linejoin="miter" stroke-width="1"/>
<path d="M431.5 270.5C454.833 270.5 466.5 269.75 466.5 268.25C466.5 266.75 478.487 266 502.46 266" fill="none" opacity="1" stroke="#b5739d" stroke-dasharray="3.0" stroke-linecap="butt" stroke-linejoin="miter" stroke-width="1"/>
<path d="M354.5 260.5L428.5 260.5C430.157 260.5 431.5 261.843 431.5 263.5L431.5 277.5C431.5 279.157 430.157 280.5 428.5 280.5L354.5 280.5C352.843 280.5 351.5 279.157 351.5 277.5L351.5 263.5C351.5 261.843 352.843 260.5 354.5 260.5Z" fill="#fff2cc" fill-rule="nonzero" opacity="1" stroke="#d6b656" stroke-linecap="butt" stroke-linejoin="miter" stroke-width="1"/>
<text fill="#000000" font-family="Helvetica" font-size="9.6" opacity="1" stroke="none" text-anchor="middle" transform="matrix(1 0 0 1 377.927 265)" x="0" y="0">
<tspan textLength="26.1469" x="14.5734" y="9">Cargo</tspan>
</text>
<path d="M391.5 310.5C391.5 330.5 384.417 340.5 370.25 340.5C356.083 340.5 349 350.5 349 370.5" fill="none" opacity="1" stroke="#b5739d" stroke-linecap="butt" stroke-linejoin="miter" stroke-width="1"/>
<path d="M351.5 300.5C338.167 300.5 331.5 299.45 331.5 297.35C331.5 295.25 314.827 294.19 281.48 294.17" fill="none" opacity="1" stroke="#b5739d" stroke-dasharray="3.0" stroke-linecap="butt" stroke-linejoin="miter" stroke-width="1"/>
<path d="M351.5 300.5C338.167 300.5 331.5 305.5 331.5 315.5C331.5 325.5 337.5 330.5 349.5 330.5C361.5 330.5 367.5 331.5 367.5 333.5C367.5 335.5 357.767 336.5 338.3 336.5C318.833 336.5 309.1 329.5 309.1 315.5" fill="none" opacity="1" stroke="#b5739d" stroke-dasharray="3.0" stroke-linecap="butt" stroke-linejoin="miter" stroke-width="1"/>
<path d="M354.5 290.5L428.5 290.5C430.157 290.5 431.5 291.843 431.5 293.5L431.5 307.5C431.5 309.157 430.157 310.5 428.5 310.5L354.5 310.5C352.843 310.5 351.5 309.157 351.5 307.5L351.5 293.5C351.5 291.843 352.843 290.5 354.5 290.5Z" fill="#fff2cc" fill-rule="nonzero" opacity="1" stroke="#d6b656" stroke-linecap="butt" stroke-linejoin="miter" stroke-width="1"/>
<text fill="#000000" font-family="Helvetica" font-size="9.6" opacity="1" stroke="none" text-anchor="middle" transform="matrix(1 0 0 1 376.862 295)" x="0" y="0">
<tspan textLength="28.275" x="15.6375" y="9">Crates</tspan>
</text>
<path d="M349 390.5C349 404.7 369.917 411.8 411.75 411.8C453.583 411.8 474.5 418.867 474.5 433" fill="none" opacity="1" stroke="#b5739d" stroke-linecap="butt" stroke-linejoin="miter" stroke-width="1"/>
<path d="M446.5 380.5C477.367 380.5 492.8 371.667 492.8 354C492.8 336.333 507.867 327.5 538 327.5" fill="none" opacity="1" stroke="#b5739d" stroke-dasharray="3.0" stroke-linecap="butt" stroke-linejoin="miter" stroke-width="1"/>
<path d="M446.5 380.5C477.367 380.5 492.8 374.667 492.8 363C492.8 351.333 507.867 345.5 538 345.5" fill="none" opacity="1" stroke="#b5739d" stroke-dasharray="3.0" stroke-linecap="butt" stroke-linejoin="miter" stroke-width="1"/>
<path d="M446.5 380.5C477.7 380.5 493.3 380.833 493.3 381.5C493.3 382.167 508.867 382.5 540 382.5" fill="none" opacity="1" stroke="#b5739d" stroke-dasharray="3.0" stroke-linecap="butt" stroke-linejoin="miter" stroke-width="1"/>
<path d="M446.5 380.5C507.833 380.5 538.513 376.5 538.54 368.5" fill="none" opacity="1" stroke="#b5739d" stroke-dasharray="3.0" stroke-linecap="butt" stroke-linejoin="miter" stroke-width="1"/>
<path d="M254.5 370.5L443.5 370.5C445.157 370.5 446.5 371.843 446.5 373.5L446.5 387.5C446.5 389.157 445.157 390.5 443.5 390.5L254.5 390.5C252.843 390.5 251.5 389.157 251.5 387.5L251.5 373.5C251.5 371.843 252.843 370.5 254.5 370.5Z" fill="#fff2cc" fill-rule="nonzero" opacity="1" stroke="#d6b656" stroke-linecap="butt" stroke-linejoin="miter" stroke-width="1"/>
<text fill="#000000" font-family="Helvetica" font-size="9.6" opacity="1" stroke="none" text-anchor="middle" transform="matrix(1 0 0 1 292.173 375)" x="0" y="0">
<tspan textLength="113.653" x="58.3266" y="9">General Development Skill</tspan>
</text>
<path d="M319.5 530.5C319.5 553.833 306.5 565.5 280.5 565.5C254.5 565.5 241.5 577.167 241.5 600.5" fill="none" opacity="1" stroke="#b5739d" stroke-linecap="butt" stroke-linejoin="miter" stroke-width="1"/>
<path d="M518.5 443C536.5 443 545.5 437.583 545.5 426.75C545.5 415.917 554.5 410.5 572.5 410.5" fill="none" opacity="1" stroke="#b5739d" stroke-linecap="butt" stroke-linejoin="miter" stroke-width="1"/>
<path d="M518.5 443C541.833 443 553.5 446.333 553.5 453C553.5 459.667 565.167 463 588.5 463" fill="none" opacity="1" stroke="#b5739d" stroke-linecap="butt" stroke-linejoin="miter" stroke-width="1"/>
<path d="M433.5 433L515.5 433C517.157 433 518.5 434.343 518.5 436L518.5 450C518.5 451.657 517.157 453 515.5 453L433.5 453C431.843 453 430.5 451.657 430.5 450L430.5 436C430.5 434.343 431.843 433 433.5 433Z" fill="#647687" fill-rule="nonzero" opacity="1" stroke="#314354" stroke-linecap="butt" stroke-linejoin="miter" stroke-width="1"/>
<text fill="#ffffff" font-family="Helvetica" font-size="9.6" opacity="1" stroke="none" text-anchor="middle" transform="matrix(1 0 0 1 466.53 437)" x="0" y="0">
<tspan textLength="14.9391" x="8.96953" y="9">CLI</tspan>
</text>
<path d="M575.5 400.5L657.5 400.5C659.157 400.5 660.5 401.843 660.5 403.5L660.5 417.5C660.5 419.157 659.157 420.5 657.5 420.5L575.5 420.5C573.843 420.5 572.5 419.157 572.5 417.5L572.5 403.5C572.5 401.843 573.843 400.5 575.5 400.5Z" fill="#dae8fc" fill-rule="nonzero" opacity="1" stroke="#6c8ebf" stroke-linecap="butt" stroke-linejoin="miter" stroke-width="1"/>
<text fill="#000000" font-family="Helvetica" font-size="9.6" opacity="1" stroke="none" text-anchor="middle" transform="matrix(1 0 0 1 607.195 405)" x="0" y="0">
<tspan textLength="17.6109" x="10.3055" y="9">clap</tspan>
</text>
<path d="M591.5 453L673.5 453C675.157 453 676.5 454.343 676.5 456L676.5 470C676.5 471.657 675.157 473 673.5 473L591.5 473C589.843 473 588.5 471.657 588.5 470L588.5 456C588.5 454.343 589.843 453 591.5 453Z" fill="#fff2cc" fill-rule="nonzero" opacity="1" stroke="#d6b656" stroke-linecap="butt" stroke-linejoin="miter" stroke-width="1"/>
<text fill="#000000" font-family="Helvetica" font-size="9.6" opacity="1" stroke="none" text-anchor="middle" transform="matrix(1 0 0 1 613.592 457)" x="0" y="0">
<tspan textLength="36.8156" x="19.9078" y="9">structopt</tspan>
</text>
<path d="M241.5 620.5C241.5 640.5 258.833 650.5 293.5 650.5C328.167 650.5 345.5 660.5 345.5 680.5" fill="none" opacity="1" stroke="#b5739d" stroke-linecap="butt" stroke-linejoin="miter" stroke-width="1"/>
<path d="M166.5 610.5C150.5 610.5 142.5 578.833 142.5 515.5C142.5 452.167 134.5 420.5 118.5 420.5" fill="none" opacity="1" stroke="#b5739d" stroke-linecap="butt" stroke-linejoin="miter" stroke-width="1"/>
<path d="M166.5 610.5C147.167 610.5 137.5 585.917 137.5 536.75C137.5 487.583 127.833 463 108.5 463" fill="none" opacity="1" stroke="#b5739d" stroke-linecap="butt" stroke-linejoin="miter" stroke-width="1"/>
<path d="M166.5 610.5C147.167 610.5 137.5 596.333 137.5 568C137.5 539.667 127.833 525.5 108.5 525.5" fill="none" opacity="1" stroke="#b5739d" stroke-linecap="butt" stroke-linejoin="miter" stroke-width="1"/>
<path d="M166.5 610.5C147.167 610.5 137.5 605.5 137.5 595.5C137.5 585.5 127.833 580.5 108.5 580.5" fill="none" opacity="1" stroke="#b5739d" stroke-linecap="butt" stroke-linejoin="miter" stroke-width="1"/>
<path d="M166.5 610.5C145.167 610.5 134.5 625.5 134.5 655.5C134.5 685.5 123.833 700.5 102.5 700.5" fill="none" opacity="1" stroke="#b5739d" stroke-linecap="butt" stroke-linejoin="miter" stroke-width="1"/>
<path d="M166.5 610.5C147.167 610.5 137.5 633.833 137.5 680.5C137.5 727.167 127.833 750.5 108.5 750.5" fill="none" opacity="1" stroke="#b5739d" stroke-linecap="butt" stroke-linejoin="miter" stroke-width="1"/>
<path d="M166.5 610.5C151.833 610.5 144.5 640.5 144.5 700.5C144.5 760.5 137.167 790.5 122.5 790.5" fill="none" opacity="1" stroke="#b5739d" stroke-linecap="butt" stroke-linejoin="miter" stroke-width="1"/>
<path d="M169.5 600.5L313.5 600.5C315.157 600.5 316.5 601.843 316.5 603.5L316.5 617.5C316.5 619.157 315.157 620.5 313.5 620.5L169.5 620.5C167.843 620.5 166.5 619.157 166.5 617.5L166.5 603.5C166.5 601.843 167.843 600.5 169.5 600.5Z" fill="#647687" fill-rule="nonzero" opacity="1" stroke="#314354" stroke-linecap="butt" stroke-linejoin="miter" stroke-width="1"/>
<text fill="#ffffff" font-family="Helvetica" font-size="9.6" opacity="1" stroke="none" text-anchor="middle" transform="matrix(1 0 0 1 203.479 605)" x="0" y="0">
<tspan textLength="75.0422" x="39.0211" y="9">Web Frameworks</tspan>
</text>
<path d="M33.5 410.5L115.5 410.5C117.157 410.5 118.5 411.843 118.5 413.5L118.5 427.5C118.5 429.157 117.157 430.5 115.5 430.5L33.5 430.5C31.8431 430.5 30.5 429.157 30.5 427.5L30.5 413.5C30.5 411.843 31.8431 410.5 33.5 410.5Z" fill="#fff2cc" fill-rule="nonzero" opacity="1" stroke="#d6b656" stroke-linecap="butt" stroke-linejoin="miter" stroke-width="1"/>
<text fill="#000000" font-family="Helvetica" font-size="9.6" opacity="1" stroke="none" text-anchor="middle" transform="matrix(1 0 0 1 53.7266 415)" x="0" y="0">
<tspan textLength="40.5469" x="21.7734" y="9">actix-web</tspan>
</text>
<path d="M23.5 453L105.5 453C107.157 453 108.5 454.343 108.5 456L108.5 470C108.5 471.657 107.157 473 105.5 473L23.5 473C21.8431 473 20.5 471.657 20.5 470L20.5 456C20.5 454.343 21.8431 453 23.5 453Z" fill="#ffffff" fill-rule="nonzero" opacity="1" stroke="#000000" stroke-linecap="butt" stroke-linejoin="miter" stroke-width="1"/>
<text fill="#000000" font-family="Helvetica" font-size="9.6" opacity="1" stroke="none" text-anchor="middle" transform="matrix(1 0 0 1 47.9898 457)" x="0" y="0">
<tspan textLength="32.0203" x="17.5102" y="9">gotham</tspan>
</text>
<path d="M23.5 515.5L105.5 515.5C107.157 515.5 108.5 516.843 108.5 518.5L108.5 532.5C108.5 534.157 107.157 535.5 105.5 535.5L23.5 535.5C21.8431 535.5 20.5 534.157 20.5 532.5L20.5 518.5C20.5 516.843 21.8431 515.5 23.5 515.5Z" fill="#ffffff" fill-rule="nonzero" opacity="1" stroke="#000000" stroke-linecap="butt" stroke-linejoin="miter" stroke-width="1"/>
<text fill="#000000" font-family="Helvetica" font-size="9.6" opacity="1" stroke="none" text-anchor="middle" transform="matrix(1 0 0 1 51.7281 520)" x="0" y="0">
<tspan textLength="24.5438" x="13.7719" y="9">nickel</tspan>
</text>
<path d="M23.5 570.5L105.5 570.5C107.157 570.5 108.5 571.843 108.5 573.5L108.5 587.5C108.5 589.157 107.157 590.5 105.5 590.5L23.5 590.5C21.8431 590.5 20.5 589.157 20.5 587.5L20.5 573.5C20.5 571.843 21.8431 570.5 23.5 570.5Z" fill="#dae8fc" fill-rule="nonzero" opacity="1" stroke="#6c8ebf" stroke-linecap="butt" stroke-linejoin="miter" stroke-width="1"/>
<text fill="#000000" font-family="Helvetica" font-size="9.6" opacity="1" stroke="none" text-anchor="middle" transform="matrix(1 0 0 1 50.9289 575)" x="0" y="0">
<tspan textLength="26.1422" x="14.5711" y="9">rocket</tspan>
</text>
<path d="M17.5 690.5L99.5 690.5C101.157 690.5 102.5 691.843 102.5 693.5L102.5 707.5C102.5 709.157 101.157 710.5 99.5 710.5L17.5 710.5C15.8431 710.5 14.5 709.157 14.5 707.5L14.5 693.5C14.5 691.843 15.8431 690.5 17.5 690.5Z" fill="#dae8fc" fill-rule="nonzero" opacity="1" stroke="#6c8ebf" stroke-linecap="butt" stroke-linejoin="miter" stroke-width="1"/>
<text fill="#000000" font-family="Helvetica" font-size="9.6" opacity="1" stroke="none" text-anchor="middle" transform="matrix(1 0 0 1 50.2609 695)" x="0" y="0">
<tspan textLength="15.4781" x="9.23906" y="9">tide</tspan>
</text>
<path d="M23.5 740.5L105.5 740.5C107.157 740.5 108.5 741.843 108.5 743.5L108.5 757.5C108.5 759.157 107.157 760.5 105.5 760.5L23.5 760.5C21.8431 760.5 20.5 759.157 20.5 757.5L20.5 743.5C20.5 741.843 21.8431 740.5 23.5 740.5Z" fill="#dae8fc" fill-rule="nonzero" opacity="1" stroke="#6c8ebf" stroke-linecap="butt" stroke-linejoin="miter" stroke-width="1"/>
<text fill="#000000" font-family="Helvetica" font-size="9.6" opacity="1" stroke="none" text-anchor="middle" transform="matrix(1 0 0 1 52.2625 745)" x="0" y="0">
<tspan textLength="23.475" x="13.2375" y="9">axum</tspan>
</text>
<path d="M37.5 780.5L119.5 780.5C121.157 780.5 122.5 781.843 122.5 783.5L122.5 797.5C122.5 799.157 121.157 800.5 119.5 800.5L37.5 800.5C35.8431 800.5 34.5 799.157 34.5 797.5L34.5 783.5C34.5 781.843 35.8431 780.5 37.5 780.5Z" fill="#dae8fc" fill-rule="nonzero" opacity="1" stroke="#6c8ebf" stroke-linecap="butt" stroke-linejoin="miter" stroke-width="1"/>
<text fill="#000000" font-family="Helvetica" font-size="9.6" opacity="1" stroke="none" text-anchor="middle" transform="matrix(1 0 0 1 67.5961 785)" x="0" y="0">
<tspan textLength="20.8078" x="11.9039" y="9">warp</tspan>
</text>
<path d="M345.5 700.5C345.5 700.5 345.5 730.5 345.5 790.5" fill="none" opacity="1" stroke="#b5739d" stroke-linecap="butt" stroke-linejoin="miter" stroke-width="1"/>
<path d="M389.5 690.5C402.833 690.5 409.5 685.5 409.5 675.5C409.5 665.5 406 660.5 399 660.5C392 660.5 388.5 656.333 388.5 648C388.5 639.667 395.167 635.5 408.5 635.5" fill="none" opacity="1" stroke="#b5739d" stroke-linecap="butt" stroke-linejoin="miter" stroke-width="1"/>
<path d="M389.5 690.5C402.833 690.5 409.5 688.833 409.5 685.5C409.5 682.167 412.833 680.5 419.5 680.5" fill="none" opacity="1" stroke="#b5739d" stroke-linecap="butt" stroke-linejoin="miter" stroke-width="1"/>
<path d="M304.5 680.5L386.5 680.5C388.157 680.5 389.5 681.843 389.5 683.5L389.5 697.5C389.5 699.157 388.157 700.5 386.5 700.5L304.5 700.5C302.843 700.5 301.5 699.157 301.5 697.5L301.5 683.5C301.5 681.843 302.843 680.5 304.5 680.5Z" fill="#647687" fill-rule="nonzero" opacity="1" stroke="#314354" stroke-linecap="butt" stroke-linejoin="miter" stroke-width="1"/>
<text fill="#ffffff" font-family="Helvetica" font-size="9.6" opacity="1" stroke="none" text-anchor="middle" transform="matrix(1 0 0 1 333.802 685)" x="0" y="0">
<tspan textLength="22.3969" x="12.6984" y="9">ORM</tspan>
</text>
<path d="M411.5 620.5L493.5 620.5C495.157 620.5 496.5 621.843 496.5 623.5L496.5 637.5C496.5 639.157 495.157 640.5 493.5 640.5L411.5 640.5C409.843 640.5 408.5 639.157 408.5 637.5L408.5 623.5C408.5 621.843 409.843 620.5 411.5 620.5Z" fill="#fff2cc" fill-rule="nonzero" opacity="1" stroke="#d6b656" stroke-linecap="butt" stroke-linejoin="miter" stroke-width="1"/>
<text fill="#000000" font-family="Helvetica" font-size="9.6" opacity="1" stroke="none" text-anchor="middle" transform="matrix(1 0 0 1 439.459 625)" x="0" y="0">
<tspan textLength="25.0828" x="14.0414" y="9">diesel</tspan>
</text>
<path d="M422.5 670.5L504.5 670.5C506.157 670.5 507.5 671.843 507.5 673.5L507.5 687.5C507.5 689.157 506.157 690.5 504.5 690.5L422.5 690.5C420.843 690.5 419.5 689.157 419.5 687.5L419.5 673.5C419.5 671.843 420.843 670.5 422.5 670.5Z" fill="#ffffff" fill-rule="nonzero" opacity="1" stroke="#000000" stroke-linecap="butt" stroke-linejoin="miter" stroke-width="1"/>
<text fill="#000000" font-family="Helvetica" font-size="9.6" opacity="1" stroke="none" text-anchor="middle" transform="matrix(1 0 0 1 446.732 675)" x="0" y="0">
<tspan textLength="32.5359" x="17.768" y="9">rustorm</tspan>
</text>
<path d="M375.5 900.5C375.5 933.833 356 950.5 317 950.5C278 950.5 258.5 967.167 258.5 1000.5" fill="none" opacity="1" stroke="#b5739d" stroke-linecap="butt" stroke-linejoin="miter" stroke-width="1"/>
<path d="M389.5 800.5C426.5 800.5 445 787.167 445 760.5C445 733.833 463.5 720.5 500.5 720.5" fill="none" opacity="1" stroke="#b5739d" stroke-linecap="butt" stroke-linejoin="miter" stroke-width="1"/>
<path d="M389.5 800.5C438.833 800.5 463.5 813.833 463.5 840.5" fill="none" opacity="1" stroke="#b5739d" stroke-linecap="butt" stroke-linejoin="miter" stroke-width="1"/>
<path d="M301.5 790.5L389.5 790.5L389.5 790.5L389.5 810.5L389.5 810.5L301.5 810.5L301.5 810.5L301.5 790.5L301.5 790.5Z" fill="#647687" fill-rule="nonzero" opacity="1" stroke="#314354" stroke-linecap="butt" stroke-linejoin="miter" stroke-width="1"/>
<text fill="#ffffff" font-family="Helvetica" font-size="9.6" opacity="1" stroke="none" text-anchor="middle" transform="matrix(1 0 0 1 322.052 795)" x="0" y="0">
<tspan textLength="45.8953" x="24.4477" y="9">Databases</tspan>
</text>
<path d="M588.5 720.5C619.167 720.5 634.5 702.167 634.5 665.5C634.5 628.833 649.833 610.5 680.5 610.5" fill="none" opacity="1" stroke="#b5739d" stroke-linecap="butt" stroke-linejoin="miter" stroke-width="1"/>
<path d="M588.5 720.5C625.167 720.5 643.5 710.5 643.5 690.5C643.5 670.5 661.833 660.5 698.5 660.5" fill="none" opacity="1" stroke="#b5739d" stroke-linecap="butt" stroke-linejoin="miter" stroke-width="1"/>
<path d="M588.5 720.5C625.167 720.5 643.5 718.833 643.5 715.5C643.5 712.167 661.833 710.5 698.5 710.5" fill="none" opacity="1" stroke="#b5739d" stroke-linecap="butt" stroke-linejoin="miter" stroke-width="1"/>
<path d="M588.5 720.5C625.167 720.5 643.5 727.167 643.5 740.5C643.5 753.833 661.833 760.5 698.5 760.5" fill="none" opacity="1" stroke="#b5739d" stroke-linecap="butt" stroke-linejoin="miter" stroke-width="1"/>
<path d="M588.5 720.5C621.167 720.5 637.5 733.833 637.5 760.5C637.5 787.167 653.833 800.5 686.5 800.5" fill="none" opacity="1" stroke="#b5739d" stroke-linecap="butt" stroke-linejoin="miter" stroke-width="1"/>
<path d="M503.5 710.5L585.5 710.5C587.157 710.5 588.5 711.843 588.5 713.5L588.5 727.5C588.5 729.157 587.157 730.5 585.5 730.5L503.5 730.5C501.843 730.5 500.5 729.157 500.5 727.5L500.5 713.5C500.5 711.843 501.843 710.5 503.5 710.5Z" fill="#ffffff" fill-rule="nonzero" opacity="1" stroke="#000000" stroke-linecap="butt" stroke-linejoin="miter" stroke-width="1"/>
<text fill="#000000" font-family="Helvetica" font-size="9.6" opacity="1" stroke="none" text-anchor="middle" transform="matrix(1 0 0 1 522.653 715)" x="0" y="0">
<tspan textLength="42.6938" x="22.8469" y="9">Relational</tspan>
</text>
<path d="M463.5 860.5C463.5 873.833 475.417 880.5 499.25 880.5C523.083 880.5 535 877.167 535 870.5C535 863.833 544.167 860.5 562.5 860.5" fill="none" opacity="1" stroke="#b5739d" stroke-linecap="butt" stroke-linejoin="miter" stroke-width="1"/>
<path d="M463.5 860.5C463.5 887.167 496.5 900.5 562.5 900.5" fill="none" opacity="1" stroke="#b5739d" stroke-linecap="butt" stroke-linejoin="miter" stroke-width="1"/>
<path d="M463.5 860.5C463.5 913.833 496.5 940.5 562.5 940.5" fill="none" opacity="1" stroke="#b5739d" stroke-linecap="butt" stroke-linejoin="miter" stroke-width="1"/>
<path d="M422.5 840.5L504.5 840.5C506.157 840.5 507.5 841.843 507.5 843.5L507.5 857.5C507.5 859.157 506.157 860.5 504.5 860.5L422.5 860.5C420.843 860.5 419.5 859.157 419.5 857.5L419.5 843.5C419.5 841.843 420.843 840.5 422.5 840.5Z" fill="#ffffff" fill-rule="nonzero" opacity="1" stroke="#000000" stroke-linecap="butt" stroke-linejoin="miter" stroke-width="1"/>
<text fill="#000000" font-family="Helvetica" font-size="9.6" opacity="1" stroke="none" text-anchor="middle" transform="matrix(1 0 0 1 447.259 845)" x="0" y="0">
<tspan textLength="31.4813" x="17.2406" y="9">NoSQL</tspan>
</text>
<path d="M683.5 600.5L765.5 600.5C767.157 600.5 768.5 601.843 768.5 603.5L768.5 617.5C768.5 619.157 767.157 620.5 765.5 620.5L683.5 620.5C681.843 620.5 680.5 619.157 680.5 617.5L680.5 603.5C680.5 601.843 681.843 600.5 683.5 600.5Z" fill="#ffffff" fill-rule="nonzero" opacity="1" stroke="#000000" stroke-linecap="butt" stroke-linejoin="miter" stroke-width="1"/>
<text fill="#000000" font-family="Helvetica" font-size="9.6" opacity="1" stroke="none" text-anchor="middle" transform="matrix(1 0 0 1 707.997 605)" x="0" y="0">
<tspan textLength="32.0063" x="17.5031" y="9">MySQL</tspan>
</text>
<path d="M701.5 650.5L783.5 650.5C785.157 650.5 786.5 651.843 786.5 653.5L786.5 667.5C786.5 669.157 785.157 670.5 783.5 670.5L701.5 670.5C699.843 670.5 698.5 669.157 698.5 667.5L698.5 653.5C698.5 651.843 699.843 650.5 701.5 650.5Z" fill="#ffffff" fill-rule="nonzero" opacity="1" stroke="#000000" stroke-linecap="butt" stroke-linejoin="miter" stroke-width="1"/>
<text fill="#000000" font-family="Helvetica" font-size="9.6" opacity="1" stroke="none" text-anchor="middle" transform="matrix(1 0 0 1 715.853 655)" x="0" y="0">
<tspan textLength="52.2938" x="27.6469" y="9">PostgreSQL</tspan>
</text>
<path d="M701.5 700.5L783.5 700.5C785.157 700.5 786.5 701.843 786.5 703.5L786.5 717.5C786.5 719.157 785.157 720.5 783.5 720.5L701.5 720.5C699.843 720.5 698.5 719.157 698.5 717.5L698.5 703.5C698.5 701.843 699.843 700.5 701.5 700.5Z" fill="#ffffff" fill-rule="nonzero" opacity="1" stroke="#000000" stroke-linecap="butt" stroke-linejoin="miter" stroke-width="1"/>
<text fill="#000000" font-family="Helvetica" font-size="9.6" opacity="1" stroke="none" text-anchor="middle" transform="matrix(1 0 0 1 723.33 705)" x="0" y="0">
<tspan textLength="37.3406" x="20.1703" y="9">MariaDB</tspan>
</text>
<path d="M701.5 750.5L783.5 750.5C785.157 750.5 786.5 751.843 786.5 753.5L786.5 767.5C786.5 769.157 785.157 770.5 783.5 770.5L701.5 770.5C699.843 770.5 698.5 769.157 698.5 767.5L698.5 753.5C698.5 751.843 699.843 750.5 701.5 750.5Z" fill="#ffffff" fill-rule="nonzero" opacity="1" stroke="#000000" stroke-linecap="butt" stroke-linejoin="miter" stroke-width="1"/>
<text fill="#000000" font-family="Helvetica" font-size="9.6" opacity="1" stroke="none" text-anchor="middle" transform="matrix(1 0 0 1 729.993 755)" x="0" y="0">
<tspan textLength="24.0141" x="13.507" y="9">Sqlite</tspan>
</text>
<path d="M689.5 790.5L783.5 790.5C785.157 790.5 786.5 791.843 786.5 793.5L786.5 807.5C786.5 809.157 785.157 810.5 783.5 810.5L689.5 810.5C687.843 810.5 686.5 809.157 686.5 807.5L686.5 793.5C686.5 791.843 687.843 790.5 689.5 790.5Z" fill="#ffffff" fill-rule="nonzero" opacity="1" stroke="#000000" stroke-linecap="butt" stroke-linejoin="miter" stroke-width="1"/>
<text fill="#000000" font-family="Helvetica" font-size="9.6" opacity="1" stroke="none" text-anchor="middle" transform="matrix(1 0 0 1 706.389 795)" x="0" y="0">
<tspan textLength="59.2219" x="31.1109" y="9">CockroachDB</tspan>
</text>
<path d="M565.5 850.5L647.5 850.5C649.157 850.5 650.5 851.843 650.5 853.5L650.5 867.5C650.5 869.157 649.157 870.5 647.5 870.5L565.5 870.5C563.843 870.5 562.5 869.157 562.5 867.5L562.5 853.5C562.5 851.843 563.843 850.5 565.5 850.5Z" fill="#ffffff" fill-rule="nonzero" opacity="1" stroke="#000000" stroke-linecap="butt" stroke-linejoin="miter" stroke-width="1"/>
<text fill="#000000" font-family="Helvetica" font-size="9.6" opacity="1" stroke="none" text-anchor="middle" transform="matrix(1 0 0 1 584.655 855)" x="0" y="0">
<tspan textLength="42.6891" x="22.8445" y="9">MongoDB</tspan>
</text>
<path d="M565.5 890.5L647.5 890.5C649.157 890.5 650.5 891.843 650.5 893.5L650.5 907.5C650.5 909.157 649.157 910.5 647.5 910.5L565.5 910.5C563.843 910.5 562.5 909.157 562.5 907.5L562.5 893.5C562.5 891.843 563.843 890.5 565.5 890.5Z" fill="#ffffff" fill-rule="nonzero" opacity="1" stroke="#000000" stroke-linecap="butt" stroke-linejoin="miter" stroke-width="1"/>
<text fill="#000000" font-family="Helvetica" font-size="9.6" opacity="1" stroke="none" text-anchor="middle" transform="matrix(1 0 0 1 593.728 895)" x="0" y="0">
<tspan textLength="24.5438" x="13.7719" y="9">Redis</tspan>
</text>
<path d="M565.5 930.5L647.5 930.5C649.157 930.5 650.5 931.843 650.5 933.5L650.5 947.5C650.5 949.157 649.157 950.5 647.5 950.5L565.5 950.5C563.843 950.5 562.5 949.157 562.5 947.5L562.5 933.5C562.5 931.843 563.843 930.5 565.5 930.5Z" fill="#ffffff" fill-rule="nonzero" opacity="1" stroke="#000000" stroke-linecap="butt" stroke-linejoin="miter" stroke-width="1"/>
<text fill="#000000" font-family="Helvetica" font-size="9.6" opacity="1" stroke="none" text-anchor="middle" transform="matrix(1 0 0 1 585.996 935)" x="0" y="0">
<tspan textLength="40.0078" x="21.5039" y="9">RocksDB</tspan>
</text>
<path d="M258.5 1020.5C258.5 1033.83 271.833 1040.5 298.5 1040.5C325.167 1040.5 338.5 1033.83 338.5 1020.5C338.5 1007.17 351.833 1000.5 378.5 1000.5C405.167 1000.5 418.5 1007.17 418.5 1020.5" fill="none" opacity="1" stroke="#b5739d" stroke-linecap="butt" stroke-linejoin="miter" stroke-width="1"/>
<path d="M214.5 1010.5C190.5 1010.5 178.5 1000.5 178.5 980.5C178.5 960.5 166.5 950.5 142.5 950.5" fill="none" opacity="1" stroke="#b5739d" stroke-linecap="butt" stroke-linejoin="miter" stroke-width="1"/>
<path d="M214.5 1010.5C187.167 1010.5 173.5 1012.17 173.5 1015.5C173.5 1018.83 159.833 1020.5 132.5 1020.5" fill="none" opacity="1" stroke="#b5739d" stroke-linecap="butt" stroke-linejoin="miter" stroke-width="1"/>
<path d="M217.5 1000.5L299.5 1000.5C301.157 1000.5 302.5 1001.84 302.5 1003.5L302.5 1017.5C302.5 1019.16 301.157 1020.5 299.5 1020.5L217.5 1020.5C215.843 1020.5 214.5 1019.16 214.5 1017.5L214.5 1003.5C214.5 1001.84 215.843 1000.5 217.5 1000.5Z" fill="#647687" fill-rule="nonzero" opacity="1" stroke="#314354" stroke-linecap="butt" stroke-linejoin="miter" stroke-width="1"/>
<text fill="#ffffff" font-family="Helvetica" font-size="9.6" opacity="1" stroke="none" text-anchor="middle" transform="matrix(1 0 0 1 240.389 1005)" x="0" y="0">
<tspan textLength="35.2219" x="19.1109" y="9">Caching</tspan>
</text>
<path d="M57.5 940.5L139.5 940.5C141.157 940.5 142.5 941.843 142.5 943.5L142.5 957.5C142.5 959.157 141.157 960.5 139.5 960.5L57.5 960.5C55.8431 960.5 54.5 959.157 54.5 957.5L54.5 943.5C54.5 941.843 55.8431 940.5 57.5 940.5Z" fill="#fff2cc" fill-rule="nonzero" opacity="1" stroke="#d6b656" stroke-linecap="butt" stroke-linejoin="miter" stroke-width="1"/>
<text fill="#000000" font-family="Helvetica" font-size="9.6" opacity="1" stroke="none" text-anchor="middle" transform="matrix(1 0 0 1 87.5961 945)" x="0" y="0">
<tspan textLength="20.8078" x="11.9039" y="9">redis</tspan>
</text>
<path d="M47.5 1010.5L129.5 1010.5C131.157 1010.5 132.5 1011.84 132.5 1013.5L132.5 1027.5C132.5 1029.16 131.157 1030.5 129.5 1030.5L47.5 1030.5C45.8431 1030.5 44.5 1029.16 44.5 1027.5L44.5 1013.5C44.5 1011.84 45.8431 1010.5 47.5 1010.5Z" fill="#ffffff" fill-rule="nonzero" opacity="1" stroke="#000000" stroke-linecap="butt" stroke-linejoin="miter" stroke-width="1"/>
<text fill="#000000" font-family="Helvetica" font-size="9.6" opacity="1" stroke="none" text-anchor="middle" transform="matrix(1 0 0 1 79.1945 1015)" x="0" y="0">
<tspan textLength="17.6109" x="10.3055" y="9">sled</tspan>
</text>
<path d="M418.5 1040.5C418.5 1070.5 391.167 1085.5 336.5 1085.5C281.833 1085.5 254.5 1100.5 254.5 1130.5" fill="none" opacity="1" stroke="#b5739d" stroke-linecap="butt" stroke-linejoin="miter" stroke-width="1"/>
<path d="M462.5 1030.5C475.833 1030.5 482.5 1038.83 482.5 1055.5C482.5 1072.17 476.833 1080.5 465.5 1080.5C454.167 1080.5 448.5 1093.83 448.5 1120.5" fill="none" opacity="1" stroke="#b5739d" stroke-linecap="butt" stroke-linejoin="miter" stroke-width="1"/>
<path d="M462.5 1030.5C462.5 1030.5 473.167 1030.5 494.5 1030.5" fill="none" opacity="1" stroke="#b5739d" stroke-linecap="butt" stroke-linejoin="miter" stroke-width="1"/>
<path d="M377.5 1020.5L459.5 1020.5C461.157 1020.5 462.5 1021.84 462.5 1023.5L462.5 1037.5C462.5 1039.16 461.157 1040.5 459.5 1040.5L377.5 1040.5C375.843 1040.5 374.5 1039.16 374.5 1037.5L374.5 1023.5C374.5 1021.84 375.843 1020.5 377.5 1020.5Z" fill="#647687" fill-rule="nonzero" opacity="1" stroke="#314354" stroke-linecap="butt" stroke-linejoin="miter" stroke-width="1"/>
<text fill="#ffffff" font-family="Helvetica" font-size="9.6" opacity="1" stroke="none" text-anchor="middle" transform="matrix(1 0 0 1 400.916 1025)" x="0" y="0">
<tspan textLength="34.1672" x="18.5836" y="9">Logging</tspan>
</text>
<path d="M634.5 1030.5C652.5 1030.5 661.5 1015.5 661.5 985.5C661.5 955.5 670.5 940.5 688.5 940.5" fill="none" opacity="1" stroke="#b5739d" stroke-linecap="butt" stroke-linejoin="miter" stroke-width="1"/>
<path d="M634.5 1030.5C652.5 1030.5 661.5 1022.17 661.5 1005.5C661.5 988.833 670.5 980.5 688.5 980.5" fill="none" opacity="1" stroke="#b5739d" stroke-linecap="butt" stroke-linejoin="miter" stroke-width="1"/>
<path d="M634.5 1030.5C652.5 1030.5 661.5 1027.17 661.5 1020.5C661.5 1013.83 670.5 1010.5 688.5 1010.5" fill="none" opacity="1" stroke="#b5739d" stroke-linecap="butt" stroke-linejoin="miter" stroke-width="1"/>
<path d="M634.5 1030.5C650.033 1030.5 657.8 1043.83 657.8 1070.5C657.8 1097.17 665.533 1110.5 681 1110.5" fill="none" opacity="1" stroke="#b5739d" stroke-linecap="butt" stroke-linejoin="miter" stroke-width="1"/>
<path d="M634.5 1030.5C649.833 1030.5 657.5 1052.17 657.5 1095.5C657.5 1138.83 665.167 1160.5 680.5 1160.5" fill="none" opacity="1" stroke="#b5739d" stroke-linecap="butt" stroke-linejoin="miter" stroke-width="1"/>
<path d="M634.5 1030.5C650.033 1030.5 657.8 1058.83 657.8 1115.5C657.8 1172.17 665.533 1200.5 681 1200.5" fill="none" opacity="1" stroke="#b5739d" stroke-linecap="butt" stroke-linejoin="miter" stroke-width="1"/>
<path d="M497.5 1020.5L631.5 1020.5C633.157 1020.5 634.5 1021.84 634.5 1023.5L634.5 1037.5C634.5 1039.16 633.157 1040.5 631.5 1040.5L497.5 1040.5C495.843 1040.5 494.5 1039.16 494.5 1037.5L494.5 1023.5C494.5 1021.84 495.843 1020.5 497.5 1020.5Z" fill="#ffffff" fill-rule="nonzero" opacity="1" stroke="#000000" stroke-linecap="butt" stroke-linejoin="miter" stroke-width="1"/>
<text fill="#000000" font-family="Helvetica" font-size="9.6" opacity="1" stroke="none" text-anchor="middle" transform="matrix(1 0 0 1 528.255 1025)" x="0" y="0">
<tspan textLength="71.4891" x="37.2445" y="9">Log Frameworks</tspan>
</text>
<path d="M448.5 1140.5C448.5 1153.83 464.5 1160.5 496.5 1160.5" fill="none" opacity="1" stroke="#b5739d" stroke-linecap="butt" stroke-linejoin="miter" stroke-width="1"/>
<path d="M387.5 1120.5L509.5 1120.5C511.157 1120.5 512.5 1121.84 512.5 1123.5L512.5 1137.5C512.5 1139.16 511.157 1140.5 509.5 1140.5L387.5 1140.5C385.843 1140.5 384.5 1139.16 384.5 1137.5L384.5 1123.5C384.5 1121.84 385.843 1120.5 387.5 1120.5Z" fill="#ffffff" fill-rule="nonzero" opacity="1" stroke="#000000" stroke-linecap="butt" stroke-linejoin="miter" stroke-width="1"/>
<text fill="#000000" font-family="Helvetica" font-size="9.6" opacity="1" stroke="none" text-anchor="middle" transform="matrix(1 0 0 1 415.188 1125)" x="0" y="0">
<tspan textLength="65.625" x="34.3125" y="9">Error Reporting</tspan>
</text>
<path d="M455.5 1160.5L537.5 1160.5C539.157 1160.5 540.5 1161.84 540.5 1163.5L540.5 1177.5C540.5 1179.16 539.157 1180.5 537.5 1180.5L455.5 1180.5C453.843 1180.5 452.5 1179.16 452.5 1177.5L452.5 1163.5C452.5 1161.84 453.843 1160.5 455.5 1160.5Z" fill="#fff2cc" fill-rule="nonzero" opacity="1" stroke="#d6b656" stroke-linecap="butt" stroke-linejoin="miter" stroke-width="1"/>
<text fill="#000000" font-family="Helvetica" font-size="9.6" opacity="1" stroke="none" text-anchor="middle" transform="matrix(1 0 0 1 482.929 1165)" x="0" y="0">
<tspan textLength="26.1422" x="14.5711" y="9">sentry</tspan>
</text>
<path d="M691.5 930.5L773.5 930.5C775.157 930.5 776.5 931.843 776.5 933.5L776.5 947.5C776.5 949.157 775.157 950.5 773.5 950.5L691.5 950.5C689.843 950.5 688.5 949.157 688.5 947.5L688.5 933.5C688.5 931.843 689.843 930.5 691.5 930.5Z" fill="#fff2cc" fill-rule="nonzero" opacity="1" stroke="#d6b656" stroke-linecap="butt" stroke-linejoin="miter" stroke-width="1"/>
<text fill="#000000" font-family="Helvetica" font-size="9.6" opacity="1" stroke="none" text-anchor="middle" transform="matrix(1 0 0 1 725.595 935)" x="0" y="0">
<tspan textLength="12.8109" x="7.90547" y="9">log</tspan>
</text>
<path d="M691.5 970.5L773.5 970.5C775.157 970.5 776.5 971.843 776.5 973.5L776.5 987.5C776.5 989.157 775.157 990.5 773.5 990.5L691.5 990.5C689.843 990.5 688.5 989.157 688.5 987.5L688.5 973.5C688.5 971.843 689.843 970.5 691.5 970.5Z" fill="#fff2cc" fill-rule="nonzero" opacity="1" stroke="#d6b656" stroke-linecap="butt" stroke-linejoin="miter" stroke-width="1"/>
<text fill="#000000" font-family="Helvetica" font-size="9.6" opacity="1" stroke="none" text-anchor="middle" transform="matrix(1 0 0 1 708.248 975)" x="0" y="0">
<tspan textLength="47.5031" x="25.2516" y="9">env_logger</tspan>
</text>
<path d="M691.5 1000.5L773.5 1000.5C775.157 1000.5 776.5 1001.84 776.5 1003.5L776.5 1017.5C776.5 1019.16 775.157 1020.5 773.5 1020.5L691.5 1020.5C689.843 1020.5 688.5 1019.16 688.5 1017.5L688.5 1003.5C688.5 1001.84 689.843 1000.5 691.5 1000.5Z" fill="#ffffff" fill-rule="nonzero" opacity="1" stroke="#000000" stroke-linecap="butt" stroke-linejoin="miter" stroke-width="1"/>
<text fill="#000000" font-family="Helvetica" font-size="9.6" opacity="1" stroke="none" text-anchor="middle" transform="matrix(1 0 0 1 707.452 1005)" x="0" y="0">
<tspan textLength="49.0969" x="26.0484" y="9">flexi_logger</tspan>
</text>
<path d="M684 1100.5L766 1100.5C767.657 1100.5 769 1101.84 769 1103.5L769 1117.5C769 1119.16 767.657 1120.5 766 1120.5L684 1120.5C682.343 1120.5 681 1119.16 681 1117.5L681 1103.5C681 1101.84 682.343 1100.5 684 1100.5Z" fill="#ffffff" fill-rule="nonzero" opacity="1" stroke="#000000" stroke-linecap="butt" stroke-linejoin="miter" stroke-width="1"/>
<text fill="#000000" font-family="Helvetica" font-size="9.6" opacity="1" stroke="none" text-anchor="middle" transform="matrix(1 0 0 1 716.195 1105)" x="0" y="0">
<tspan textLength="17.6109" x="10.3055" y="9">slog</tspan>
</text>
<path d="M683.5 1150.5L765.5 1150.5C767.157 1150.5 768.5 1151.84 768.5 1153.5L768.5 1167.5C768.5 1169.16 767.157 1170.5 765.5 1170.5L683.5 1170.5C681.843 1170.5 680.5 1169.16 680.5 1167.5L680.5 1153.5C680.5 1151.84 681.843 1150.5 683.5 1150.5Z" fill="#ffffff" fill-rule="nonzero" opacity="1" stroke="#000000" stroke-linecap="butt" stroke-linejoin="miter" stroke-width="1"/>
<text fill="#000000" font-family="Helvetica" font-size="9.6" opacity="1" stroke="none" text-anchor="middle" transform="matrix(1 0 0 1 715.729 1155)" x="0" y="0">
<tspan textLength="16.5422" x="9.77109" y="9">fern</tspan>
</text>
<path d="M684 1190.5L766 1190.5C767.657 1190.5 769 1191.84 769 1193.5L769 1207.5C769 1209.16 767.657 1210.5 766 1210.5L684 1210.5C682.343 1210.5 681 1209.16 681 1207.5L681 1193.5C681 1191.84 682.343 1190.5 684 1190.5Z" fill="#ffffff" fill-rule="nonzero" opacity="1" stroke="#000000" stroke-linecap="butt" stroke-linejoin="miter" stroke-width="1"/>
<text fill="#000000" font-family="Helvetica" font-size="9.6" opacity="1" stroke="none" text-anchor="middle" transform="matrix(1 0 0 1 711.927 1195)" x="0" y="0">
<tspan textLength="26.1469" x="14.5734" y="9">log4rs</tspan>
</text>
<path d="M254.5 1150.5C254.5 1198.83 293.333 1223 371 1223C448.667 1223 487.5 1247.17 487.5 1295.5" fill="none" opacity="1" stroke="#b5739d" stroke-linecap="butt" stroke-linejoin="miter" stroke-width="1"/>
<path d="M184.5 1140.5C152.5 1140.5 136.5 1133.83 136.5 1120.5C136.5 1107.17 120.5 1100.5 88.5 1100.5" fill="none" opacity="1" stroke="#b5739d" stroke-linecap="butt" stroke-linejoin="miter" stroke-width="1"/>
<path d="M184.5 1140.5C156.167 1140.5 142 1142.17 142 1145.5C142 1148.83 127.833 1150.5 99.5 1150.5" fill="none" opacity="1" stroke="#b5739d" stroke-linecap="butt" stroke-linejoin="miter" stroke-width="1"/>
<path d="M184.5 1140.5C155.833 1140.5 141.5 1150.5 141.5 1170.5C141.5 1190.5 127.167 1200.5 98.5 1200.5" fill="none" opacity="1" stroke="#b5739d" stroke-linecap="butt" stroke-linejoin="miter" stroke-width="1"/>
<path d="M187.5 1130.5L321.5 1130.5C323.157 1130.5 324.5 1131.84 324.5 1133.5L324.5 1147.5C324.5 1149.16 323.157 1150.5 321.5 1150.5L187.5 1150.5C185.843 1150.5 184.5 1149.16 184.5 1147.5L184.5 1133.5C184.5 1131.84 185.843 1130.5 187.5 1130.5Z" fill="#647687" fill-rule="nonzero" opacity="1" stroke="#314354" stroke-linecap="butt" stroke-linejoin="miter" stroke-width="1"/>
<text fill="#ffffff" font-family="Helvetica" font-size="9.6" opacity="1" stroke="none" text-anchor="middle" transform="matrix(1 0 0 1 212.396 1135)" x="0" y="0">
<tspan textLength="83.2078" x="43.1039" y="9">GRPC Frameworks</tspan>
</text>
<path d="M3.5 1090.5L85.5 1090.5C87.1569 1090.5 88.5 1091.84 88.5 1093.5L88.5 1107.5C88.5 1109.16 87.1569 1110.5 85.5 1110.5L3.5 1110.5C1.84315 1110.5 0.5 1109.16 0.5 1107.5L0.5 1093.5C0.5 1091.84 1.84315 1090.5 3.5 1090.5Z" fill="#ffffff" fill-rule="nonzero" opacity="1" stroke="#000000" stroke-linecap="butt" stroke-linejoin="miter" stroke-width="1"/>
<text fill="#000000" font-family="Helvetica" font-size="9.6" opacity="1" stroke="none" text-anchor="middle" transform="matrix(1 0 0 1 34.6625 1095)" x="0" y="0">
<tspan textLength="18.675" x="10.8375" y="9">grpc</tspan>
</text>
<path d="M14.5 1140.5L96.5 1140.5C98.1569 1140.5 99.5 1141.84 99.5 1143.5L99.5 1157.5C99.5 1159.16 98.1569 1160.5 96.5 1160.5L14.5 1160.5C12.8431 1160.5 11.5 1159.16 11.5 1157.5L11.5 1143.5C11.5 1141.84 12.8431 1140.5 14.5 1140.5Z" fill="#ffffff" fill-rule="nonzero" opacity="1" stroke="#000000" stroke-linecap="butt" stroke-linejoin="miter" stroke-width="1"/>
<text fill="#000000" font-family="Helvetica" font-size="9.6" opacity="1" stroke="none" text-anchor="middle" transform="matrix(1 0 0 1 41.9266 1145)" x="0" y="0">
<tspan textLength="26.1469" x="14.5734" y="9">grpcio</tspan>
</text>
<path d="M13.5 1190.5L95.5 1190.5C97.1569 1190.5 98.5 1191.84 98.5 1193.5L98.5 1207.5C98.5 1209.16 97.1569 1210.5 95.5 1210.5L13.5 1210.5C11.8431 1210.5 10.5 1209.16 10.5 1207.5L10.5 1193.5C10.5 1191.84 11.8431 1190.5 13.5 1190.5Z" fill="#dae8fc" fill-rule="nonzero" opacity="1" stroke="#6c8ebf" stroke-linecap="butt" stroke-linejoin="miter" stroke-width="1"/>
<text fill="#000000" font-family="Helvetica" font-size="9.6" opacity="1" stroke="none" text-anchor="middle" transform="matrix(1 0 0 1 43.8609 1195)" x="0" y="0">
<tspan textLength="20.2781" x="11.6391" y="9">tonic</tspan>
</text>
<path d="M487.5 1315.5C487.5 1328.83 455.167 1335.5 390.5 1335.5C325.833 1335.5 293.5 1342.17 293.5 1355.5" fill="none" opacity="1" stroke="#b5739d" stroke-linecap="butt" stroke-linejoin="miter" stroke-width="1"/>
<path d="M572.5 1305.5C623.167 1305.5 648.5 1315.5 648.5 1335.5" fill="none" opacity="1" stroke="#b5739d" stroke-linecap="butt" stroke-linejoin="miter" stroke-width="1"/>
<path d="M405.5 1295.5L569.5 1295.5C571.157 1295.5 572.5 1296.84 572.5 1298.5L572.5 1312.5C572.5 1314.16 571.157 1315.5 569.5 1315.5L405.5 1315.5C403.843 1315.5 402.5 1314.16 402.5 1312.5L402.5 1298.5C402.5 1296.84 403.843 1295.5 405.5 1295.5Z" fill="#647687" fill-rule="nonzero" opacity="1" stroke="#314354" stroke-linecap="butt" stroke-linejoin="miter" stroke-width="1"/>
<text fill="#ffffff" font-family="Helvetica" font-size="9.6" opacity="1" stroke="none" text-anchor="middle" transform="matrix(1 0 0 1 437.13 1300)" x="0" y="0">
<tspan textLength="99.7406" x="51.3703" y="9">JSON-RPC Framework</tspan>
</text>
<path d="M601.5 1335.5L695.5 1335.5C697.157 1335.5 698.5 1336.84 698.5 1338.5L698.5 1352.5C698.5 1354.16 697.157 1355.5 695.5 1355.5L601.5 1355.5C599.843 1355.5 598.5 1354.16 598.5 1352.5L598.5 1338.5C598.5 1336.84 599.843 1335.5 601.5 1335.5Z" fill="#dae8fc" fill-rule="nonzero" opacity="1" stroke="#6c8ebf" stroke-linecap="butt" stroke-linejoin="miter" stroke-width="1"/>
<text fill="#000000" font-family="Helvetica" font-size="9.6" opacity="1" stroke="none" text-anchor="middle" transform="matrix(1 0 0 1 621.591 1340)" x="0" y="0">
<tspan textLength="52.8188" x="27.9094" y="9">jsonrpc-core</tspan>
</text>
<path d="M293.5 1375.5C293.5 1388.83 321.833 1395.5 378.5 1395.5C435.167 1395.5 463.5 1402.17 463.5 1415.5" fill="none" opacity="1" stroke="#b5739d" stroke-linecap="butt" stroke-linejoin="miter" stroke-width="1"/>
<path d="M208.5 1365.5C164.5 1365.5 142.5 1372.17 142.5 1385.5" fill="none" opacity="1" stroke="#b5739d" stroke-linecap="butt" stroke-linejoin="miter" stroke-width="1"/>
<path d="M211.5 1355.5L375.5 1355.5C377.157 1355.5 378.5 1356.84 378.5 1358.5L378.5 1372.5C378.5 1374.16 377.157 1375.5 375.5 1375.5L211.5 1375.5C209.843 1375.5 208.5 1374.16 208.5 1372.5L208.5 1358.5C208.5 1356.84 209.843 1355.5 211.5 1355.5Z" fill="#647687" fill-rule="nonzero" opacity="1" stroke="#314354" stroke-linecap="butt" stroke-linejoin="miter" stroke-width="1"/>
<text fill="#ffffff" font-family="Helvetica" font-size="9.6" opacity="1" stroke="none" text-anchor="middle" transform="matrix(1 0 0 1 248.096 1360)" x="0" y="0">
<tspan textLength="89.8078" x="46.4039" y="9">GraphQL Framework</tspan>
</text>
<path d="M101.5 1385.5L183.5 1385.5C185.157 1385.5 186.5 1386.84 186.5 1388.5L186.5 1402.5C186.5 1404.16 185.157 1405.5 183.5 1405.5L101.5 1405.5C99.8431 1405.5 98.5 1404.16 98.5 1402.5L98.5 1388.5C98.5 1386.84 99.8431 1385.5 101.5 1385.5Z" fill="#fff2cc" fill-rule="nonzero" opacity="1" stroke="#d6b656" stroke-linecap="butt" stroke-linejoin="miter" stroke-width="1"/>
<text fill="#000000" font-family="Helvetica" font-size="9.6" opacity="1" stroke="none" text-anchor="middle" transform="matrix(1 0 0 1 127.591 1390)" x="0" y="0">
<tspan textLength="28.8188" x="15.9094" y="9">juniper</tspan>
</text>
<path d="M463.5 1435.5C463.5 1448.83 434.167 1455.5 375.5 1455.5C316.833 1455.5 287.5 1462.17 287.5 1475.5" fill="none" opacity="1" stroke="#b5739d" stroke-linecap="butt" stroke-linejoin="miter" stroke-width="1"/>
<path d="M518.5 1425.5C545.167 1425.5 558.5 1422.17 558.5 1415.5C558.5 1408.83 571.833 1405.5 598.5 1405.5" fill="none" opacity="1" stroke="#b5739d" stroke-linecap="butt" stroke-linejoin="miter" stroke-width="1"/>
<path d="M518.5 1425.5C545.367 1425.5 558.8 1441.33 558.8 1473C558.8 1504.67 572.2 1520.5 599 1520.5" fill="none" opacity="1" stroke="#b5739d" stroke-linecap="butt" stroke-linejoin="miter" stroke-width="1"/>
<path d="M411.5 1415.5L515.5 1415.5C517.157 1415.5 518.5 1416.84 518.5 1418.5L518.5 1432.5C518.5 1434.16 517.157 1435.5 515.5 1435.5L411.5 1435.5C409.843 1435.5 408.5 1434.16 408.5 1432.5L408.5 1418.5C408.5 1416.84 409.843 1415.5 411.5 1415.5Z" fill="#647687" fill-rule="nonzero" opacity="1" stroke="#314354" stroke-linecap="butt" stroke-linejoin="miter" stroke-width="1"/>
<text fill="#ffffff" font-family="Helvetica" font-size="9.6" opacity="1" stroke="none" text-anchor="middle" transform="matrix(1 0 0 1 434.547 1420)" x="0" y="0">
<tspan textLength="56.9063" x="29.9531" y="9">HTTP Clients</tspan>
</text>
<path d="M601.5 1395.5L683.5 1395.5C685.157 1395.5 686.5 1396.84 686.5 1398.5L686.5 1412.5C686.5 1414.16 685.157 1415.5 683.5 1415.5L601.5 1415.5C599.843 1415.5 598.5 1414.16 598.5 1412.5L598.5 1398.5C598.5 1396.84 599.843 1395.5 601.5 1395.5Z" fill="#fff2cc" fill-rule="nonzero" opacity="1" stroke="#d6b656" stroke-linecap="butt" stroke-linejoin="miter" stroke-width="1"/>
<text fill="#000000" font-family="Helvetica" font-size="9.6" opacity="1" stroke="none" text-anchor="middle" transform="matrix(1 0 0 1 625.193 1400)" x="0" y="0">
<tspan textLength="33.6141" x="18.307" y="9">reqwest</tspan>
</text>
<path d="M602 1510.5L687 1510.5C688.657 1510.5 690 1511.84 690 1513.5L690 1527.5C690 1529.16 688.657 1530.5 687 1530.5L602 1530.5C600.343 1530.5 599 1529.16 599 1527.5L599 1513.5C599 1511.84 600.343 1510.5 602 1510.5Z" fill="#ffffff" fill-rule="nonzero" opacity="1" stroke="#000000" stroke-linecap="butt" stroke-linejoin="miter" stroke-width="1"/>
<text fill="#000000" font-family="Helvetica" font-size="9.6" opacity="1" stroke="none" text-anchor="middle" transform="matrix(1 0 0 1 636.266 1515)" x="0" y="0">
<tspan textLength="15.4688" x="9.23438" y="9">curl</tspan>
</text>
<path d="M287.5 1495.5C287.5 1522.17 319.833 1535.5 384.5 1535.5C449.167 1535.5 481.5 1548.83 481.5 1575.5" fill="none" opacity="1" stroke="#b5739d" stroke-linecap="butt" stroke-linejoin="miter" stroke-width="1"/>
<path d="M243.5 1485.5C224.5 1485.5 215 1489.67 215 1498C215 1506.33 205.5 1510.5 186.5 1510.5" fill="none" opacity="1" stroke="#b5739d" stroke-linecap="butt" stroke-linejoin="miter" stroke-width="1"/>
<path d="M246.5 1475.5L328.5 1475.5C330.157 1475.5 331.5 1476.84 331.5 1478.5L331.5 1492.5C331.5 1494.16 330.157 1495.5 328.5 1495.5L246.5 1495.5C244.843 1495.5 243.5 1494.16 243.5 1492.5L243.5 1478.5C243.5 1476.84 244.843 1475.5 246.5 1475.5Z" fill="#647687" fill-rule="nonzero" opacity="1" stroke="#314354" stroke-linecap="butt" stroke-linejoin="miter" stroke-width="1"/>
<text fill="#ffffff" font-family="Helvetica" font-size="9.6" opacity="1" stroke="none" text-anchor="middle" transform="matrix(1 0 0 1 271.791 1480)" x="0" y="0">
<tspan textLength="30.4172" x="16.7086" y="9">Testing</tspan>
</text>
<path d="M101.5 1495.5L183.5 1495.5C185.157 1495.5 186.5 1496.84 186.5 1498.5L186.5 1512.5C186.5 1514.16 185.157 1515.5 183.5 1515.5L101.5 1515.5C99.8431 1515.5 98.5 1514.16 98.5 1512.5L98.5 1498.5C98.5 1496.84 99.8431 1495.5 101.5 1495.5Z" fill="#fff2cc" fill-rule="nonzero" opacity="1" stroke="#d6b656" stroke-linecap="butt" stroke-linejoin="miter" stroke-width="1"/>
<text fill="#000000" font-family="Helvetica" font-size="9.6" opacity="1" stroke="none" text-anchor="middle" transform="matrix(1 0 0 1 129.191 1500)" x="0" y="0">
<tspan textLength="25.6172" x="14.3086" y="9">Inbuilt</tspan>
</text>
<path d="M481.5 1595.5C481.5 1608.83 452 1615.5 393 1615.5C334 1615.5 304.5 1622.17 304.5 1635.5" fill="none" opacity="1" stroke="#b5739d" stroke-linecap="butt" stroke-linejoin="miter" stroke-width="1"/>
<path d="M548.5 1585.5C567.833 1585.5 577.5 1590.5 577.5 1600.5C577.5 1610.5 587.167 1615.5 606.5 1615.5" fill="none" opacity="1" stroke="#b5739d" stroke-linecap="butt" stroke-linejoin="miter" stroke-width="1"/>
<path d="M417.5 1575.5L545.5 1575.5C547.157 1575.5 548.5 1576.84 548.5 1578.5L548.5 1592.5C548.5 1594.16 547.157 1595.5 545.5 1595.5L417.5 1595.5C415.843 1595.5 414.5 1594.16 414.5 1592.5L414.5 1578.5C414.5 1576.84 415.843 1575.5 417.5 1575.5Z" fill="#647687" fill-rule="nonzero" opacity="1" stroke="#314354" stroke-linecap="butt" stroke-linejoin="miter" stroke-width="1"/>
<text fill="#ffffff" font-family="Helvetica" font-size="9.6" opacity="1" stroke="none" text-anchor="middle" transform="matrix(1 0 0 1 446.045 1580)" x="0" y="0">
<tspan textLength="69.9094" x="36.4547" y="9">Task Scheduling</tspan>
</text>
<path d="M609.5 1605.5L691.5 1605.5C693.157 1605.5 694.5 1606.84 694.5 1608.5L694.5 1622.5C694.5 1624.16 693.157 1625.5 691.5 1625.5L609.5 1625.5C607.843 1625.5 606.5 1624.16 606.5 1622.5L606.5 1608.5C606.5 1606.84 607.843 1605.5 609.5 1605.5Z" fill="#ffffff" fill-rule="nonzero" opacity="1" stroke="#000000" stroke-linecap="butt" stroke-linejoin="miter" stroke-width="1"/>
<text fill="#000000" font-family="Helvetica" font-size="9.6" opacity="1" stroke="none" text-anchor="middle" transform="matrix(1 0 0 1 631.33 1610)" x="0" y="0">
<tspan textLength="37.3406" x="20.1703" y="9">clokwerk</tspan>
</text>
<path d="M368.5 1795.5C368.5 1852.17 372 1880.5 379 1880.5C386 1880.5 389.5 1908.83 389.5 1965.5" fill="none" opacity="1" stroke="#b5739d" stroke-linecap="butt" stroke-linejoin="miter" stroke-width="1"/>
<path d="M448.5 1785.5C486.5 1785.5 505.5 1772.17 505.5 1745.5C505.5 1718.83 524.5 1705.5 562.5 1705.5" fill="none" opacity="1" stroke="#b5739d" stroke-linecap="butt" stroke-linejoin="miter" stroke-width="1"/>
<path d="M448.5 1785.5C499.167 1785.5 524.5 1780.5 524.5 1770.5C524.5 1760.5 549.833 1755.5 600.5 1755.5" fill="none" opacity="1" stroke="#b5739d" stroke-linecap="butt" stroke-linejoin="miter" stroke-width="1"/>
<path d="M448.5 1785.5C498.5 1785.5 523.5 1789.67 523.5 1798C523.5 1806.33 548.5 1810.5 598.5 1810.5" fill="none" opacity="1" stroke="#b5739d" stroke-linecap="butt" stroke-linejoin="miter" stroke-width="1"/>
<path d="M448.5 1785.5C495.167 1785.5 518.5 1798.83 518.5 1825.5C518.5 1852.17 541.833 1865.5 588.5 1865.5" fill="none" opacity="1" stroke="#b5739d" stroke-linecap="butt" stroke-linejoin="miter" stroke-width="1"/>
<path d="M291.5 1775.5L445.5 1775.5C447.157 1775.5 448.5 1776.84 448.5 1778.5L448.5 1792.5C448.5 1794.16 447.157 1795.5 445.5 1795.5L291.5 1795.5C289.843 1795.5 288.5 1794.16 288.5 1792.5L288.5 1778.5C288.5 1776.84 289.843 1775.5 291.5 1775.5Z" fill="#647687" fill-rule="nonzero" opacity="1" stroke="#314354" stroke-linecap="butt" stroke-linejoin="miter" stroke-width="1"/>
<text fill="#ffffff" font-family="Helvetica" font-size="9.6" opacity="1" stroke="none" text-anchor="middle" transform="matrix(1 0 0 1 323.977 1780)" x="0" y="0">
<tspan textLength="88.0453" x="45.5227" y="9">Good to know crates</tspan>
</text>
<path d="M304.5 1655.5C304.5 1695.5 315.167 1715.5 336.5 1715.5C357.833 1715.5 368.5 1735.5 368.5 1775.5" fill="none" opacity="1" stroke="#b5739d" stroke-linecap="butt" stroke-linejoin="miter" stroke-width="1"/>
<path d="M219.5 1645.5C195.167 1645.5 183 1637.17 183 1620.5C183 1603.83 170.833 1595.5 146.5 1595.5" fill="none" opacity="1" stroke="#b5739d" stroke-linecap="butt" stroke-linejoin="miter" stroke-width="1"/>
<path d="M219.5 1645.5C187.167 1645.5 171 1648.83 171 1655.5C171 1662.17 154.833 1665.5 122.5 1665.5" fill="none" opacity="1" stroke="#b5739d" stroke-linecap="butt" stroke-linejoin="miter" stroke-width="1"/>
<path d="M219.5 1645.5C187.167 1645.5 171 1658.83 171 1685.5C171 1712.17 154.833 1725.5 122.5 1725.5" fill="none" opacity="1" stroke="#b5739d" stroke-linecap="butt" stroke-linejoin="miter" stroke-width="1"/>
<path d="M219.5 1645.5C194.167 1645.5 181.5 1665.5 181.5 1705.5C181.5 1745.5 161.833 1765.5 122.5 1765.5" fill="none" opacity="1" stroke="#b5739d" stroke-linecap="butt" stroke-linejoin="miter" stroke-width="1"/>
<path d="M219.5 1645.5C203.5 1645.5 195.5 1671.33 195.5 1723C195.5 1774.67 187.5 1800.5 171.5 1800.5" fill="none" opacity="1" stroke="#9673a6" stroke-linecap="butt" stroke-linejoin="miter" stroke-width="1"/>
<path d="M222.5 1635.5L386.5 1635.5C388.157 1635.5 389.5 1636.84 389.5 1638.5L389.5 1652.5C389.5 1654.16 388.157 1655.5 386.5 1655.5L222.5 1655.5C220.843 1655.5 219.5 1654.16 219.5 1652.5L219.5 1638.5C219.5 1636.84 220.843 1635.5 222.5 1635.5Z" fill="#647687" fill-rule="nonzero" opacity="1" stroke="#314354" stroke-linecap="butt" stroke-linejoin="miter" stroke-width="1"/>
<text fill="#ffffff" font-family="Helvetica" font-size="9.6" opacity="1" stroke="none" text-anchor="middle" transform="matrix(1 0 0 1 255.173 1640)" x="0" y="0">
<tspan textLength="97.6547" x="50.3273" y="9">Frontend Development</tspan>
</text>
<path d="M61.5 1585.5L143.5 1585.5C145.157 1585.5 146.5 1586.84 146.5 1588.5L146.5 1602.5C146.5 1604.16 145.157 1605.5 143.5 1605.5L61.5 1605.5C59.8431 1605.5 58.5 1604.16 58.5 1602.5L58.5 1588.5C58.5 1586.84 59.8431 1585.5 61.5 1585.5Z" fill="#dae8fc" fill-rule="nonzero" opacity="1" stroke="#6c8ebf" stroke-linecap="butt" stroke-linejoin="miter" stroke-width="1"/>
<text fill="#000000" font-family="Helvetica" font-size="9.6" opacity="1" stroke="none" text-anchor="middle" transform="matrix(1 0 0 1 93.4641 1590)" x="0" y="0">
<tspan textLength="17.0719" x="10.0359" y="9">yew</tspan>
</text>
<path d="M17.5 1650.5L119.5 1650.5C121.157 1650.5 122.5 1651.84 122.5 1653.5L122.5 1667.5C122.5 1669.16 121.157 1670.5 119.5 1670.5L17.5 1670.5C15.8431 1670.5 14.5 1669.16 14.5 1667.5L14.5 1653.5C14.5 1651.84 15.8431 1650.5 17.5 1650.5Z" fill="#dae8fc" fill-rule="nonzero" opacity="1" stroke="#6c8ebf" stroke-linecap="butt" stroke-linejoin="miter" stroke-width="1"/>
<text fill="#000000" font-family="Helvetica" font-size="9.6" opacity="1" stroke="none" text-anchor="middle" transform="matrix(1 0 0 1 36.7836 1655)" x="0" y="0">
<tspan textLength="62.4328" x="32.7164" y="9">wasm-bindgen</tspan>
</text>
<path d="M37.5 1715.5L119.5 1715.5C121.157 1715.5 122.5 1716.84 122.5 1718.5L122.5 1732.5C122.5 1734.16 121.157 1735.5 119.5 1735.5L37.5 1735.5C35.8431 1735.5 34.5 1734.16 34.5 1732.5L34.5 1718.5C34.5 1716.84 35.8431 1715.5 37.5 1715.5Z" fill="#ffffff" fill-rule="nonzero" opacity="1" stroke="#000000" stroke-linecap="butt" stroke-linejoin="miter" stroke-width="1"/>
<text fill="#000000" font-family="Helvetica" font-size="9.6" opacity="1" stroke="none" text-anchor="middle" transform="matrix(1 0 0 1 65.7352 1720)" x="0" y="0">
<tspan textLength="24.5297" x="13.7648" y="9">js-sys</tspan>
</text>
<path d="M37.5 1755.5L119.5 1755.5C121.157 1755.5 122.5 1756.84 122.5 1758.5L122.5 1772.5C122.5 1774.16 121.157 1775.5 119.5 1775.5L37.5 1775.5C35.8431 1775.5 34.5 1774.16 34.5 1772.5L34.5 1758.5C34.5 1756.84 35.8431 1755.5 37.5 1755.5Z" fill="#ffffff" fill-rule="nonzero" opacity="1" stroke="#000000" stroke-linecap="butt" stroke-linejoin="miter" stroke-width="1"/>
<text fill="#000000" font-family="Helvetica" font-size="9.6" opacity="1" stroke="none" text-anchor="middle" transform="matrix(1 0 0 1 60.3961 1760)" x="0" y="0">
<tspan textLength="35.2078" x="19.1039" y="9">web-sys</tspan>
</text>
<path d="M591.5 1855.5L673.5 1855.5C675.157 1855.5 676.5 1856.84 676.5 1858.5L676.5 1872.5C676.5 1874.16 675.157 1875.5 673.5 1875.5L591.5 1875.5C589.843 1875.5 588.5 1874.16 588.5 1872.5L588.5 1858.5C588.5 1856.84 589.843 1855.5 591.5 1855.5Z" fill="#ffffff" fill-rule="nonzero" opacity="1" stroke="#000000" stroke-linecap="butt" stroke-linejoin="miter" stroke-width="1"/>
<text fill="#000000" font-family="Helvetica" font-size="9.6" opacity="1" stroke="none" text-anchor="middle" transform="matrix(1 0 0 1 621.329 1860)" x="0" y="0">
<tspan textLength="21.3422" x="12.1711" y="9">lettre</tspan>
</text>
<path d="M601.5 1800.5L683.5 1800.5C685.157 1800.5 686.5 1801.84 686.5 1803.5L686.5 1817.5C686.5 1819.16 685.157 1820.5 683.5 1820.5L601.5 1820.5C599.843 1820.5 598.5 1819.16 598.5 1817.5L598.5 1803.5C598.5 1801.84 599.843 1800.5 601.5 1800.5Z" fill="#fff2cc" fill-rule="nonzero" opacity="1" stroke="#d6b656" stroke-linecap="butt" stroke-linejoin="miter" stroke-width="1"/>
<text fill="#000000" font-family="Helvetica" font-size="9.6" opacity="1" stroke="none" text-anchor="middle" transform="matrix(1 0 0 1 632.393 1805)" x="0" y="0">
<tspan textLength="19.2141" x="11.107" y="9">r2d2</tspan>
</text>
<path d="M603.5 1745.5L685.5 1745.5C687.157 1745.5 688.5 1746.84 688.5 1748.5L688.5 1762.5C688.5 1764.16 687.157 1765.5 685.5 1765.5L603.5 1765.5C601.843 1765.5 600.5 1764.16 600.5 1762.5L600.5 1748.5C600.5 1746.84 601.843 1745.5 603.5 1745.5Z" fill="#fff2cc" fill-rule="nonzero" opacity="1" stroke="#d6b656" stroke-linecap="butt" stroke-linejoin="miter" stroke-width="1"/>
<text fill="#000000" font-family="Helvetica" font-size="9.6" opacity="1" stroke="none" text-anchor="middle" transform="matrix(1 0 0 1 631.993 1750)" x="0" y="0">
<tspan textLength="24.0141" x="13.507" y="9">serde</tspan>
</text>
<path d="M565.5 1695.5L647.5 1695.5C649.157 1695.5 650.5 1696.84 650.5 1698.5L650.5 1712.5C650.5 1714.16 649.157 1715.5 647.5 1715.5L565.5 1715.5C563.843 1715.5 562.5 1714.16 562.5 1712.5L562.5 1698.5C562.5 1696.84 563.843 1695.5 565.5 1695.5Z" fill="#ffffff" fill-rule="nonzero" opacity="1" stroke="#000000" stroke-linecap="butt" stroke-linejoin="miter" stroke-width="1"/>
<text fill="#000000" font-family="Helvetica" font-size="9.6" opacity="1" stroke="none" text-anchor="middle" transform="matrix(1 0 0 1 587.857 1700)" x="0" y="0">
<tspan textLength="36.2859" x="19.643" y="9">validator</tspan>
</text>
<text fill="#000000" font-family="Helvetica" font-size="9.6" opacity="1" stroke="none" text-anchor="middle" transform="matrix(1 0 0 1 332.166 1970)" x="0" y="0">
<tspan textLength="113.667" x="58.3336" y="9">Learn more &amp; hack around</tspan>
</text>
<path d="M654.5 1875.5C654.5 1875.5 658.84 1875.5 667.52 1875.5" fill="none" opacity="1" stroke="#b5739d" stroke-linecap="butt" stroke-linejoin="miter" stroke-width="1"/>
<path d="M66.5 1090.5C66.5 1090.5 59.1667 1090.5 44.5 1090.5" fill="none" opacity="1" stroke="#b5739d" stroke-linecap="butt" stroke-linejoin="miter" stroke-width="1"/>
<path d="M625 30.5L764 30.5C765.657 30.5 767 31.8431 767 33.5L767 47.5C767 49.1569 765.657 50.5 764 50.5L625 50.5C623.343 50.5 622 49.1569 622 47.5L622 33.5C622 31.8431 623.343 30.5 625 30.5Z" fill="#fff2cc" fill-rule="nonzero" opacity="1" stroke="#d6b656" stroke-linecap="butt" stroke-linejoin="miter" stroke-width="1"/>
<text fill="#000000" font-family="Helvetica" font-size="9.6" opacity="1" stroke="none" text-anchor="middle" transform="matrix(1 0 0 1 650.781 35)" x="0" y="0">
<tspan textLength="86.4375" x="44.7188" y="9">Personal must know</tspan>
</text>
<path d="M625 60.5L764 60.5C765.657 60.5 767 61.8431 767 63.5L767 77.5C767 79.1569 765.657 80.5 764 80.5L625 80.5C623.343 80.5 622 79.1569 622 77.5L622 63.5C622 61.8431 623.343 60.5 625 60.5Z" fill="#dae8fc" fill-rule="nonzero" opacity="1" stroke="#6c8ebf" stroke-linecap="butt" stroke-linejoin="miter" stroke-width="1"/>
<text fill="#000000" font-family="Helvetica" font-size="9.6" opacity="1" stroke="none" text-anchor="middle" transform="matrix(1 0 0 1 664.382 65)" x="0" y="0">
<tspan textLength="59.2359" x="31.118" y="9">Good to know</tspan>
</text>
<path d="M625 90.5L764 90.5C765.657 90.5 767 91.8431 767 93.5L767 107.5C767 109.157 765.657 110.5 764 110.5L625 110.5C623.343 110.5 622 109.157 622 107.5L622 93.5C622 91.8431 623.343 90.5 625 90.5Z" fill="#647687" fill-rule="nonzero" opacity="1" stroke="#314354" stroke-linecap="butt" stroke-linejoin="miter" stroke-width="1"/>
<text fill="#ffffff" font-family="Helvetica" font-size="9.6" opacity="1" stroke="none" text-anchor="middle" transform="matrix(1 0 0 1 663.053 95)" x="0" y="0">
<tspan textLength="61.8938" x="32.4469" y="9">Tools/Libraries</tspan>
</text>
<text fill="#000000" font-family="Helvetica" font-size="8.8" opacity="1" stroke="none" text-anchor="start" transform="matrix(1 0 0 1 541 321)" x="0" y="0">
<tspan textLength="14.6652" x="0" y="9">GIT</tspan>
</text>
<text fill="#000000" font-family="Helvetica" font-size="8.8" opacity="1" stroke="none" text-anchor="start" transform="matrix(1 0 0 1 541 341)" x="0" y="0">
<tspan textLength="112.982" x="0" y="9">Data Structures &amp; Algorithms</tspan>
</text>
<text fill="#000000" font-family="Helvetica" font-size="8.8" opacity="1" stroke="none" text-anchor="start" transform="matrix(1 0 0 1 541 361)" x="0" y="0">
<tspan textLength="147.718" x="0" y="9">Basic Authentication, OAuth, JWT, etc</tspan>
</text>
<text fill="#000000" font-family="Helvetica" font-size="8.8" opacity="1" stroke="none" text-anchor="start" transform="matrix(1 0 0 1 542 381)" x="0" y="0">
<tspan textLength="75.4961" x="0" y="9">SQL Fundamentals</tspan>
</text>
<text fill="#000000" font-family="Helvetica" font-size="8.8" opacity="1" stroke="none" text-anchor="start" transform="matrix(1 0 0 1 149 189)" x="0" y="0">
<tspan textLength="102.094" x="0" y="9">Rust Language, The Book</tspan>
</text>
<text fill="#000000" font-family="Helvetica" font-size="8.8" opacity="1" stroke="none" text-anchor="start" transform="matrix(1 0 0 1 149 210)" x="0" y="0">
<tspan textLength="67.0055" x="0" y="9">Rustlings Course</tspan>
</text>
<text fill="#000000" font-family="Helvetica" font-size="8.8" opacity="1" stroke="none" text-anchor="start" transform="matrix(1 0 0 1 149 230)" x="0" y="0">
<tspan textLength="67.491" x="0" y="9">Rust By Example</tspan>
</text>
<text fill="#000000" font-family="Helvetica" font-size="8.8" opacity="1" stroke="none" text-anchor="start" transform="matrix(1 0 0 1 498 215)" x="0" y="0">
<tspan textLength="123.57" x="0" y="9">curl https://sh.rustup.rs -sSf | sh</tspan>
</text>
<text fill="#000000" font-family="Helvetica" font-size="8.8" opacity="1" stroke="none" text-anchor="start" transform="matrix(1 0 0 1 502 278)" x="0" y="0">
<tspan textLength="64.0793" x="0" y="9">The Cargo Book</tspan>
</text>
<text fill="#000000" font-family="Helvetica" font-size="8.8" opacity="1" stroke="none" text-anchor="start" transform="matrix(1 0 0 1 148 290)" x="0" y="0">
<tspan textLength="100.753" x="0" y="9">Package registry like npm</tspan>
</text>
<text fill="#000000" font-family="Helvetica" font-size="8.8" opacity="1" stroke="none" text-anchor="start" transform="matrix(1 0 0 1 503 294)" x="0" y="0">
<tspan textLength="103.224" x="0" y="9">Dependency management</tspan>
</text>
<text fill="#000000" font-family="Helvetica" font-size="8.8" opacity="1" stroke="none" text-anchor="start" transform="matrix(1 0 0 1 149 311)" x="0" y="0">
<tspan textLength="124.257" x="0" y="9">Publishing a new package/crate</tspan>
</text>
<text fill="#000000" font-family="Helvetica" font-size="8.8" opacity="1" stroke="none" text-anchor="start" transform="matrix(1 0 0 1 502 262)" x="0" y="0">
<tspan textLength="88.0559" x="0" y="9">Create a new package</tspan>
</text>
<text fill="#000000" font-family="Helvetica" font-size="8.8" opacity="1" stroke="none" text-anchor="start" transform="matrix(1 0 0 1 150 252)" x="0" y="0">
<tspan textLength="79.2258" x="0" y="9">Async Programming</tspan>
</text>
<path d="M351.5 211.5C324.833 211.5 311.5 216.333 311.5 226C311.5 235.667 304.833 240.5 291.5 240.5C278.167 240.5 271.5 243.183 271.5 248.55C271.5 253.917 265.553 256.603 253.66 256.61" fill="none" opacity="1" stroke="#b5739d" stroke-dasharray="3.0" stroke-linecap="butt" stroke-linejoin="miter" stroke-width="1"/>
<path d="M585.5 495.5L667.5 495.5C669.157 495.5 670.5 496.843 670.5 498.5L670.5 512.5C670.5 514.157 669.157 515.5 667.5 515.5L585.5 515.5C583.843 515.5 582.5 514.157 582.5 512.5L582.5 498.5C582.5 496.843 583.843 495.5 585.5 495.5Z" fill="#dae8fc" fill-rule="nonzero" opacity="1" stroke="#6c8ebf" stroke-linecap="butt" stroke-linejoin="miter" stroke-width="1"/>
<text fill="#000000" font-family="Helvetica" font-size="9.6" opacity="1" stroke="none" text-anchor="middle" transform="matrix(1 0 0 1 616.393 500)" x="0" y="0">
<tspan textLength="19.2141" x="11.107" y="9">argh</tspan>
</text>
<path d="M518.5 443C539.833 443 550.5 453.417 550.5 474.25C550.5 495.083 561.167 505.5 582.5 505.5" fill="none" opacity="1" stroke="#b5739d" stroke-linecap="butt" stroke-linejoin="miter" stroke-width="1"/>
<path d="M278.5 510.5L360.5 510.5C362.157 510.5 363.5 511.843 363.5 513.5L363.5 527.5C363.5 529.157 362.157 530.5 360.5 530.5L278.5 530.5C276.843 530.5 275.5 529.157 275.5 527.5L275.5 513.5C275.5 511.843 276.843 510.5 278.5 510.5Z" fill="#647687" fill-rule="nonzero" opacity="1" stroke="#314354" stroke-linecap="butt" stroke-linejoin="miter" stroke-width="1"/>
<text fill="#ffffff" font-family="Helvetica" font-size="9.6" opacity="1" stroke="none" text-anchor="middle" transform="matrix(1 0 0 1 288.578 515)" x="0" y="0">
<tspan textLength="60.8438" x="31.9219" y="9">Authentication</tspan>
</text>
<path d="M474.5 453C474.5 472.2 448.667 481.8 397 481.8C345.333 481.8 319.5 491.367 319.5 510.5" fill="none" opacity="1" stroke="#b5739d" stroke-linecap="butt" stroke-linejoin="miter" stroke-width="1"/>
<path d="M363.5 520.5C380.5 520.5 389 517.167 389 510.5C389 503.833 397.5 500.5 414.5 500.5" fill="none" opacity="1" stroke="#b5739d" stroke-linecap="butt" stroke-linejoin="miter" stroke-width="1"/>
<path d="M417.5 490.5L499.5 490.5C501.157 490.5 502.5 491.843 502.5 493.5L502.5 507.5C502.5 509.157 501.157 510.5 499.5 510.5L417.5 510.5C415.843 510.5 414.5 509.157 414.5 507.5L414.5 493.5C414.5 491.843 415.843 490.5 417.5 490.5Z" fill="#fff2cc" fill-rule="nonzero" opacity="1" stroke="#d6b656" stroke-linecap="butt" stroke-linejoin="miter" stroke-width="1"/>
<text fill="#000000" font-family="Helvetica" font-size="9.6" opacity="1" stroke="none" text-anchor="middle" transform="matrix(1 0 0 1 428.647 495)" x="0" y="0">
<tspan textLength="58.7063" x="30.8531" y="9">jsonwebtoken</tspan>
</text>
<path d="M416.5 535.5L498.5 535.5C500.157 535.5 501.5 536.843 501.5 538.5L501.5 552.5C501.5 554.157 500.157 555.5 498.5 555.5L416.5 555.5C414.843 555.5 413.5 554.157 413.5 552.5L413.5 538.5C413.5 536.843 414.843 535.5 416.5 535.5Z" fill="#fff2cc" fill-rule="nonzero" opacity="1" stroke="#d6b656" stroke-linecap="butt" stroke-linejoin="miter" stroke-width="1"/>
<text fill="#000000" font-family="Helvetica" font-size="9.6" opacity="1" stroke="none" text-anchor="middle" transform="matrix(1 0 0 1 440.725 540)" x="0" y="0">
<tspan textLength="32.55" x="17.775" y="9">cookies</tspan>
</text>
<path d="M363.5 520.5C380.167 520.5 388.5 524.667 388.5 533C388.5 541.333 396.833 545.5 413.5 545.5" fill="none" opacity="1" stroke="#b5739d" stroke-linecap="butt" stroke-linejoin="miter" stroke-width="1"/>
<path d="M695.5 1050.5L777.5 1050.5C779.157 1050.5 780.5 1051.84 780.5 1053.5L780.5 1067.5C780.5 1069.16 779.157 1070.5 777.5 1070.5L695.5 1070.5C693.843 1070.5 692.5 1069.16 692.5 1067.5L692.5 1053.5C692.5 1051.84 693.843 1050.5 695.5 1050.5Z" fill="#ffffff" fill-rule="nonzero" opacity="1" stroke="#000000" stroke-linecap="butt" stroke-linejoin="miter" stroke-width="1"/>
<text fill="#000000" font-family="Helvetica" font-size="9.6" opacity="1" stroke="none" text-anchor="middle" transform="matrix(1 0 0 1 721.593 1055)" x="0" y="0">
<tspan textLength="28.8141" x="15.907" y="9">tracing</tspan>
</text>
<path d="M634.5 1030.5C653.833 1030.5 663.5 1036.33 663.5 1048C663.5 1059.67 673.167 1065.5 692.5 1065.5" fill="none" opacity="1" stroke="#b5739d" stroke-linecap="butt" stroke-linejoin="miter" stroke-width="1"/>
<path d="M603.5 1445.5L688.5 1445.5C690.157 1445.5 691.5 1446.84 691.5 1448.5L691.5 1462.5C691.5 1464.16 690.157 1465.5 688.5 1465.5L603.5 1465.5C601.843 1465.5 600.5 1464.16 600.5 1462.5L600.5 1448.5C600.5 1446.84 601.843 1445.5 603.5 1445.5Z" fill="#ffffff" fill-rule="nonzero" opacity="1" stroke="#000000" stroke-linecap="butt" stroke-linejoin="miter" stroke-width="1"/>
<text fill="#000000" font-family="Helvetica" font-size="9.6" opacity="1" stroke="none" text-anchor="middle" transform="matrix(1 0 0 1 633.993 1450)" x="0" y="0">
<tspan textLength="24.0141" x="13.507" y="9">hyper</tspan>
</text>
<path d="M518.5 1425.5C545.833 1425.5 559.5 1430.5 559.5 1440.5C559.5 1450.5 573.167 1455.5 600.5 1455.5" fill="none" opacity="1" stroke="#b5739d" stroke-linecap="butt" stroke-linejoin="miter" stroke-width="1"/>
<path d="M331.5 880.5L419.5 880.5L419.5 880.5L419.5 900.5L419.5 900.5L331.5 900.5L331.5 900.5L331.5 880.5L331.5 880.5Z" fill="#647687" fill-rule="nonzero" opacity="1" stroke="#314354" stroke-linecap="butt" stroke-linejoin="miter" stroke-width="1"/>
<text fill="#ffffff" font-family="Helvetica" font-size="9.6" opacity="1" stroke="none" text-anchor="middle" transform="matrix(1 0 0 1 343.779 885)" x="0" y="0">
<tspan textLength="62.4422" x="32.7211" y="9">Date and Time</tspan>
</text>
<path d="M345.5 810.5C345.5 833.833 350.5 845.5 360.5 845.5C370.5 845.5 375.5 857.167 375.5 880.5" fill="none" opacity="1" stroke="#b5739d" stroke-linecap="butt" stroke-linejoin="miter" stroke-width="1"/>
<path d="M174.5 850.5L256.5 850.5C258.157 850.5 259.5 851.843 259.5 853.5L259.5 867.5C259.5 869.157 258.157 870.5 256.5 870.5L174.5 870.5C172.843 870.5 171.5 869.157 171.5 867.5L171.5 853.5C171.5 851.843 172.843 850.5 174.5 850.5Z" fill="#fff2cc" fill-rule="nonzero" opacity="1" stroke="#d6b656" stroke-linecap="butt" stroke-linejoin="miter" stroke-width="1"/>
<text fill="#000000" font-family="Helvetica" font-size="9.6" opacity="1" stroke="none" text-anchor="middle" transform="matrix(1 0 0 1 200.323 855)" x="0" y="0">
<tspan textLength="29.3531" x="16.1766" y="9">chrono</tspan>
</text>
<path d="M331.5 890.5C307.5 890.5 295.5 885.5 295.5 875.5C295.5 865.5 283.5 860.5 259.5 860.5" fill="none" opacity="1" stroke="#b5739d" stroke-linecap="butt" stroke-linejoin="miter" stroke-width="1"/>
<path d="M548.5 1585.5C583.833 1585.5 601.5 1583 601.5 1578C601.5 1573 606 1570.5 615 1570.5C624 1570.5 628.5 1568.83 628.5 1565.5" fill="none" opacity="1" stroke="#b5739d" stroke-linecap="butt" stroke-linejoin="miter" stroke-width="1"/>
<path d="M625 1555.5L707 1555.5C708.657 1555.5 710 1556.84 710 1558.5L710 1572.5C710 1574.16 708.657 1575.5 707 1575.5L625 1575.5C623.343 1575.5 622 1574.16 622 1572.5L622 1558.5C622 1556.84 623.343 1555.5 625 1555.5Z" fill="#ffffff" fill-rule="nonzero" opacity="1" stroke="#000000" stroke-linecap="butt" stroke-linejoin="miter" stroke-width="1"/>
<text fill="#000000" font-family="Helvetica" font-size="9.6" opacity="1" stroke="none" text-anchor="middle" transform="matrix(1 0 0 1 642.26 1560)" x="0" y="0">
<tspan textLength="47.4797" x="25.2398" y="9">delay-timer</tspan>
</text>
<path d="M86.5 1795.5L168.5 1795.5C170.157 1795.5 171.5 1796.84 171.5 1798.5L171.5 1812.5C171.5 1814.16 170.157 1815.5 168.5 1815.5L86.5 1815.5C84.8431 1815.5 83.5 1814.16 83.5 1812.5L83.5 1798.5C83.5 1796.84 84.8431 1795.5 86.5 1795.5Z" fill="#ffffff" fill-rule="nonzero" opacity="1" stroke="#000000" stroke-linecap="butt" stroke-linejoin="miter" stroke-width="1"/>
<text fill="#000000" font-family="Helvetica" font-size="9.6" opacity="1" stroke="none" text-anchor="middle" transform="matrix(1 0 0 1 117.925 1800)" x="0" y="0">
<tspan textLength="18.15" x="10.575" y="9">gloo</tspan>
</text>
</g>
</g>
</svg>
