<?xml version="1.0" encoding="UTF-8" standalone="no"?>
<!DOCTYPE svg PUBLIC "-//W3C//DTD SVG 1.1//EN" "http://www.w3.org/Graphics/SVG/1.1/DTD/svg11.dtd">
<!-- Created with Vectornator (http://vectornator.io/) -->
<svg height="4228.0px" stroke-miterlimit="10" style="fill-rule:nonzero;clip-rule:evenodd;stroke-linecap:round;stroke-linejoin:round;" version="1.1" viewBox="0 0 1636 4228" width="1636.0px" xml:space="preserve" xmlns="http://www.w3.org/2000/svg" xmlns:xlink="http://www.w3.org/1999/xlink">
<defs/>
<clipPath id="ArtboardFrame">
<rect height="4228" width="1636" x="0" y="0"/>
</clipPath>
<g clip-path="url(#ArtboardFrame)" id="Untitled">
<g opacity="1">
<path d="M610.5 180.5L610.5 181.4L620.5 181.42L630.5 181.03L640.5 181.16L650.5 181.26L660.5 180.96L670.5 180.39L680.5 179.81L690.5 180.55L700.5 180.55L710.5 181.02L720.5 181.29L730.5 179.5L740.5 180.63L750.5 180.47L760.5 180.91L770.5 179.56L780.5 180.44L790.5 180.66L800.5 181.16L810.5 180.1L820.5 180.87L830.5 181.25L840.5 180.26L850.5 179.69L860.5 180.5L860.39 180.5L860.44 188.5L860.5 196.5L860.32 204.5L860.65 212.5L860.5 220.5L860.5 220.96L850.5 221.14L840.5 220.41L830.5 220.22L820.5 220.28L810.5 220.52L800.5 220.79L790.5 221.25L780.5 220.96L770.5 220.43L760.5 219.62L750.5 219.59L740.5 219.94L730.5 220.58L720.5 219.85L710.5 221.47L700.5 219.98L690.5 219.85L680.5 220.47L670.5 219.9L660.5 221.07L650.5 221.17L640.5 219.93L630.5 221.13L620.5 220.96L610.5 220.5L610.17 220.5L610.75 212.5L610.23 204.5L610.53 196.5L610.8 188.5L610.5 180.5L610.5 180.5Z" fill="#ffffff" fill-rule="nonzero" opacity="1" stroke="#002a55" stroke-linecap="round" stroke-linejoin="round" stroke-width="2"/>
<text fill="#000000" font-family="ComicSansMS" font-size="9.6" opacity="1" stroke="none" text-anchor="middle" transform="matrix(1 0 0 1 693.363 192.606)" x="0" y="0">
<tspan textLength="83.2734" x="43.1367" y="11">Clean architecture</tspan>
</text>
<path d="M610.5 240.5L610.5 239.54L620.5 239.87L630.5 241.05L640.5 239.69L650.5 239.58L660.5 241.22L670.5 240.48L680.5 239.74L690.5 240.54L700.5 241.25L710.5 239.92L720.5 241.4L730.5 240.48L740.5 240.43L750.5 240.79L760.5 239.81L770.5 240.08L780.5 241.23L790.5 240.4L800.5 240.36L810.5 241L820.5 241.28L830.5 240.68L840.5 240.06L850.5 240.23L860.5 240.5L860.43 240.5L860.56 248.5L860.63 256.5L860.51 264.5L860.79 272.5L860.5 280.5L860.5 281.14L850.5 281.37L840.5 281L830.5 280.15L820.5 280.45L810.5 280.9L800.5 281.05L790.5 281.42L780.5 281.31L770.5 281.36L760.5 280.92L750.5 279.73L740.5 280.11L730.5 280.27L720.5 280.11L710.5 280.56L700.5 279.72L690.5 279.81L680.5 281L670.5 280.41L660.5 280.43L650.5 280.3L640.5 280.38L630.5 281.05L620.5 280.93L610.5 280.5L610.37 280.5L610.35 272.5L610.17 264.5L610.3 256.5L610.3 248.5L610.5 240.5L610.5 240.5Z" fill="#ffffff" fill-rule="nonzero" opacity="1" stroke="#002a55" stroke-linecap="round" stroke-linejoin="round" stroke-width="2"/>
<text fill="#ff0000" font-family="ComicSansMS" font-size="9.6" opacity="1" stroke="none" text-anchor="middle" transform="matrix(1 0 0 1 696.286 252.606)" x="0" y="0">
<tspan textLength="77.4281" x="40.2141" y="11">SOLID principles</tspan>
</text>
<text fill="#26bbe1" font-family="ComicSansMS" font-size="11.2" opacity="1" stroke="none" text-anchor="start" transform="matrix(1 0 0 1 607.806 26.2148)" x="0" y="0">
<tspan textLength="250.551" x="0" y="12">1 Sharpen your software engineering foundation</tspan>
</text>
<path d="M950.5 556.5L950.5 556.42L960.5 556.91L970.5 555.8L980.5 557.33L990.5 556.88L1000.5 556.26L1010.5 557.3L1020.5 555.98L1030.5 556.87L1040.5 556.03L1050.5 556.15L1060.5 557.18L1070.5 556.61L1080.5 556.23L1090.5 556.58L1100.5 556.7L1110.5 557.36L1120.5 555.52L1130.5 557.42L1140.5 557.09L1150.5 555.89L1160.5 556.41L1170.5 556.93L1180.5 556.2L1190.5 556.69L1200.5 556.5L1200.71 556.5L1200.57 564.5L1200.28 572.5L1200.18 580.5L1200.33 588.5L1200.5 596.5L1200.5 597.19L1190.5 595.75L1180.5 596.05L1170.5 595.91L1160.5 596.34L1150.5 597.03L1140.5 597.2L1130.5 597.5L1120.5 596.26L1110.5 596.7L1100.5 597.23L1090.5 597.34L1080.5 597.39L1070.5 597.18L1060.5 595.6L1050.5 597.2L1040.5 596.28L1030.5 596.15L1020.5 596.14L1010.5 596.54L1000.5 597.44L990.5 596.77L980.5 595.65L970.5 597.27L960.5 597.18L950.5 596.5L950.5 596.5L950.8 588.5L950.48 580.5L950.21 572.5L950.23 564.5L950.5 556.5L950.5 556.5Z" fill="#ffffff" fill-rule="nonzero" opacity="1" stroke="#002a55" stroke-linecap="round" stroke-linejoin="round" stroke-width="2"/>
<text fill="#ff0000" font-family="ComicSansMS" font-size="11.2" opacity="1" stroke="none" text-anchor="middle" transform="matrix(1 0 0 1 1049.02 567.541)" x="0" y="0">
<tspan textLength="51.9695" x="27.4848" y="12">creational</tspan>
</text>
<path d="M620.5 556.5L620.5 556.05L630.5 555.53L640.5 555.89L650.5 556.09L660.5 555.52L670.5 556.14L680.5 557.22L690.5 556.64L700.5 555.85L710.5 555.69L720.5 555.53L730.5 556.4L740.5 557.34L750.5 556.33L760.5 555.54L770.5 556.12L780.5 556.81L790.5 555.51L800.5 555.93L810.5 556.44L820.5 556.79L830.5 556.37L840.5 557.07L850.5 555.65L860.5 555.87L870.5 556.5L870.61 556.5L870.33 564.5L870.49 572.5L870.52 580.5L870.65 588.5L870.5 596.5L870.5 596.28L860.5 597.16L850.5 596.91L840.5 596.57L830.5 596.13L820.5 596.4L810.5 597.25L800.5 595.53L790.5 596.41L780.5 597.26L770.5 596.39L760.5 595.64L750.5 595.5L740.5 596.7L730.5 596.14L720.5 597.32L710.5 595.58L700.5 595.84L690.5 595.57L680.5 597.45L670.5 596.53L660.5 596.77L650.5 595.98L640.5 597.35L630.5 596.45L620.5 596.5L620.21 596.5L620.38 588.5L620.25 580.5L620.68 572.5L620.59 564.5L620.5 556.5L620.5 556.5Z" fill="#ffffff" fill-rule="nonzero" opacity="1" stroke="#002a55" stroke-linecap="round" stroke-linejoin="round" stroke-width="2"/>
<text fill="#ff0000" font-family="ComicSansMS" font-size="11.2" opacity="1" stroke="none" text-anchor="middle" transform="matrix(1 0 0 1 718.181 567.541)" x="0" y="0">
<tspan textLength="53.6375" x="28.3187" y="12">behavioral</tspan>
</text>
<path d="M240.5 556.5L240.5 556.56L250.5 555.55L260.5 556.07L270.5 555.93L280.5 556.62L290.5 556.76L300.5 557.25L310.5 556.74L320.5 555.94L330.5 556.46L340.5 556.72L350.5 556.94L360.5 557.47L370.5 556.87L380.5 556.89L390.5 556.18L400.5 556.7L410.5 555.63L420.5 557.18L430.5 556.23L440.5 556.99L450.5 556.9L460.5 555.79L470.5 555.92L480.5 556.06L490.5 556.5L490.5 556.5L490.29 564.5L490.41 572.5L490.82 580.5L490.56 588.5L490.5 596.5L490.5 595.92L480.5 596.83L470.5 595.59L460.5 596.81L450.5 596.95L440.5 595.89L430.5 597.39L420.5 596.37L410.5 597.36L400.5 596.94L390.5 596.3L380.5 597.32L370.5 596.56L360.5 596.51L350.5 595.83L340.5 596.49L330.5 596.09L320.5 596.74L310.5 596.45L300.5 595.88L290.5 595.51L280.5 597.03L270.5 596.5L260.5 596.73L250.5 596.48L240.5 596.5L240.62 596.5L240.75 588.5L240.43 580.5L240.53 572.5L240.83 564.5L240.5 556.5L240.5 556.5Z" fill="#ffffff" fill-rule="nonzero" opacity="1" stroke="#002a55" stroke-linecap="round" stroke-linejoin="round" stroke-width="2"/>
<text fill="#ff0000" font-family="ComicSansMS" font-size="11.2" opacity="1" stroke="none" text-anchor="middle" transform="matrix(1 0 0 1 338.515 567.541)" x="0" y="0">
<tspan textLength="52.9703" x="27.9852" y="12">structural</tspan>
</text>
<path d="M950.5 663.5L950.5 663.91L960.5 664.01L970.5 662.9L980.5 662.69L990.5 664.49L1000.5 664.42L1010.5 664.24L1020.5 662.71L1030.5 663.36L1040.5 663.38L1050.5 663.19L1060.5 664.39L1070.5 664.22L1080.5 663.07L1090.5 663.07L1100.5 663.26L1110.5 663.22L1120.5 662.51L1130.5 664.3L1140.5 663.6L1150.5 663.64L1160.5 663.48L1170.5 664.08L1180.5 663.88L1190.5 662.72L1200.5 663.5L1200.57 663.5L1200.46 671.5L1200.8 679.5L1200.57 687.5L1200.58 695.5L1200.5 703.5L1200.5 704.42L1190.5 703.81L1180.5 704.27L1170.5 703.5L1160.5 703.34L1150.5 703.01L1140.5 704.44L1130.5 704.42L1120.5 704.23L1110.5 702.62L1100.5 704.25L1090.5 704.46L1080.5 703.97L1070.5 703.88L1060.5 702.85L1050.5 702.8L1040.5 704.2L1030.5 702.98L1020.5 704.12L1010.5 704.05L1000.5 702.65L990.5 703.18L980.5 703.02L970.5 703.5L960.5 702.81L950.5 703.5L950.41 703.5L950.39 695.5L950.73 687.5L950.38 679.5L950.35 671.5L950.5 663.5L950.5 663.5Z" fill="#ffffff" fill-rule="nonzero" opacity="1" stroke="#002a55" stroke-linecap="round" stroke-linejoin="round" stroke-width="2"/>
<text fill="#ff0000" font-family="ComicSansMS" font-size="11.2" opacity="1" stroke="none" text-anchor="middle" transform="matrix(1 0 0 1 1056.61 674.541)" x="0" y="0">
<tspan textLength="36.7719" x="19.8859" y="12">builder</tspan>
</text>
<path d="M950.5 733.5L950.5 732.77L960.5 732.97L970.5 733.35L980.5 732.97L990.5 732.69L1000.5 732.98L1010.5 734.34L1020.5 734.05L1030.5 733.47L1040.5 734.47L1050.5 733.32L1060.5 733.04L1070.5 733.99L1080.5 733.36L1090.5 732.6L1100.5 733.65L1110.5 732.7L1120.5 732.54L1130.5 733.81L1140.5 733.22L1150.5 733.54L1160.5 733.88L1170.5 733.85L1180.5 734.39L1190.5 734.06L1200.5 733.5L1200.41 733.5L1200.77 741.5L1200.57 749.5L1200.44 757.5L1200.63 765.5L1200.5 773.5L1200.5 773.31L1190.5 772.86L1180.5 773.97L1170.5 773L1160.5 773.13L1150.5 772.79L1140.5 773.38L1130.5 773.07L1120.5 772.7L1110.5 773.18L1100.5 774.11L1090.5 773.36L1080.5 773.85L1070.5 773.46L1060.5 774.37L1050.5 773.05L1040.5 773.04L1030.5 774.49L1020.5 772.9L1010.5 772.58L1000.5 773.18L990.5 772.59L980.5 772.83L970.5 774.07L960.5 773.68L950.5 773.5L950.56 773.5L950.62 765.5L950.44 757.5L950.83 749.5L950.56 741.5L950.5 733.5L950.5 733.5Z" fill="#ffffff" fill-rule="nonzero" opacity="1" stroke="#002a55" stroke-linecap="round" stroke-linejoin="round" stroke-width="2"/>
<text fill="#ff0000" font-family="ComicSansMS" font-size="11.2" opacity="1" stroke="none" text-anchor="middle" transform="matrix(1 0 0 1 1055.22 744.541)" x="0" y="0">
<tspan textLength="39.5555" x="21.2777" y="12">factory</tspan>
</text>
<path d="M950.5 803.5L950.5 804L960.5 802.95L970.5 803.81L980.5 803.8L990.5 802.9L1000.5 802.83L1010.5 803.96L1020.5 802.73L1030.5 803.65L1040.5 803.13L1050.5 802.87L1060.5 802.83L1070.5 802.7L1080.5 803.99L1090.5 804.24L1100.5 804.21L1110.5 803.7L1120.5 803.87L1130.5 802.94L1140.5 803.08L1150.5 804.22L1160.5 804.24L1170.5 802.77L1180.5 802.81L1190.5 803.01L1200.5 803.5L1200.35 803.5L1200.31 811.5L1200.5 819.5L1200.26 827.5L1200.46 835.5L1200.5 843.5L1200.5 843.71L1190.5 842.69L1180.5 842.86L1170.5 843.72L1160.5 843.13L1150.5 842.88L1140.5 843.13L1130.5 844.28L1120.5 844.29L1110.5 844.47L1100.5 844.13L1090.5 844.3L1080.5 843.31L1070.5 843.16L1060.5 844.06L1050.5 844.27L1040.5 843.43L1030.5 842.87L1020.5 844.09L1010.5 844.04L1000.5 844.48L990.5 842.91L980.5 843.09L970.5 843.42L960.5 844.05L950.5 843.5L950.45 843.5L950.83 835.5L950.3 827.5L950.8 819.5L950.74 811.5L950.5 803.5L950.5 803.5Z" fill="#ffffff" fill-rule="nonzero" opacity="1" stroke="#002a55" stroke-linecap="round" stroke-linejoin="round" stroke-width="2"/>
<text fill="#ff0000" font-family="ComicSansMS" font-size="11.2" opacity="1" stroke="none" text-anchor="middle" transform="matrix(1 0 0 1 1049.17 814.541)" x="0" y="0">
<tspan textLength="51.6578" x="27.3289" y="12">prototype</tspan>
</text>
<path d="M950.5 873.5L950.5 874.37L960.5 874.28L970.5 873.19L980.5 874.1L990.5 872.98L1000.5 873.78L1010.5 872.97L1020.5 872.93L1030.5 873.47L1040.5 872.97L1050.5 873.81L1060.5 872.68L1070.5 874.36L1080.5 874.45L1090.5 872.73L1100.5 873.02L1110.5 873.58L1120.5 873.3L1130.5 873.6L1140.5 872.65L1150.5 873.53L1160.5 872.95L1170.5 872.75L1180.5 872.78L1190.5 874.06L1200.5 873.5L1200.59 873.5L1200.6 881.5L1200.34 889.5L1200.62 897.5L1200.53 905.5L1200.5 913.5L1200.5 913.35L1190.5 913.03L1180.5 912.94L1170.5 914.34L1160.5 912.92L1150.5 913.43L1140.5 914.39L1130.5 913.47L1120.5 912.51L1110.5 914.45L1100.5 913.51L1090.5 913.39L1080.5 913.36L1070.5 913.37L1060.5 913.72L1050.5 912.67L1040.5 912.66L1030.5 913.58L1020.5 914.14L1010.5 913.78L1000.5 913.68L990.5 914.24L980.5 912.6L970.5 912.95L960.5 912.88L950.5 913.5L950.45 913.5L950.57 905.5L950.54 897.5L950.62 889.5L950.49 881.5L950.5 873.5L950.5 873.5Z" fill="#ffffff" fill-rule="nonzero" opacity="1" stroke="#002a55" stroke-linecap="round" stroke-linejoin="round" stroke-width="2"/>
<text fill="#ff0000" font-family="ComicSansMS" font-size="11.2" opacity="1" stroke="none" text-anchor="middle" transform="matrix(1 0 0 1 1048.62 884.541)" x="0" y="0">
<tspan textLength="52.768" x="27.884" y="12">singletone</tspan>
</text>
<path d="M950.5 955.5L950.5 956.28L960.5 954.73L970.5 954.88L980.5 955.18L990.5 955.14L1000.5 955.42L1010.5 956.33L1020.5 955.33L1030.5 955.78L1040.5 956.24L1050.5 955.28L1060.5 954.65L1070.5 955.54L1080.5 956.42L1090.5 954.65L1100.5 954.52L1110.5 955.26L1120.5 956.32L1130.5 955.59L1140.5 956.05L1150.5 955.35L1160.5 956.19L1170.5 955.99L1180.5 955.58L1190.5 954.77L1200.5 955.5L1200.36 955.5L1200.41 963.5L1200.69 971.5L1200.38 979.5L1200.23 987.5L1200.5 995.5L1200.5 995.76L1190.5 996.08L1180.5 996.32L1170.5 995.34L1160.5 995.39L1150.5 994.94L1140.5 994.95L1130.5 995.49L1120.5 995.02L1110.5 996.37L1100.5 995.31L1090.5 995.57L1080.5 995.23L1070.5 996.03L1060.5 996.35L1050.5 995.46L1040.5 995.95L1030.5 995.16L1020.5 995.79L1010.5 995.74L1000.5 996.1L990.5 994.67L980.5 995.87L970.5 996.36L960.5 995.58L950.5 995.5L950.62 995.5L950.17 987.5L950.8 979.5L950.64 971.5L950.83 963.5L950.5 955.5L950.5 955.5Z" fill="#ffffff" fill-rule="nonzero" opacity="1" stroke="#002a55" stroke-linecap="round" stroke-linejoin="round" stroke-width="2"/>
<text fill="#ff0000" font-family="ComicSansMS" font-size="11.2" opacity="1" stroke="none" text-anchor="middle" transform="matrix(1 0 0 1 1036.11 966.541)" x="0" y="0">
<tspan textLength="77.782" x="40.391" y="12">service locator</tspan>
</text>
<path d="M630.5 663.5L630.5 663.04L640.5 663.93L650.5 662.85L660.5 663.87L670.5 662.79L680.5 662.6L690.5 662.74L700.5 664.05L710.5 662.76L720.5 663.3L730.5 663.7L740.5 664.01L750.5 663.28L760.5 664.3L770.5 664.18L780.5 662.74L790.5 662.56L800.5 662.73L810.5 663.26L820.5 662.82L830.5 663.58L840.5 662.62L850.5 664.08L860.5 663.03L870.5 663.22L880.5 663.5L880.7 663.5L880.42 671.5L880.27 679.5L880.66 687.5L880.81 695.5L880.5 703.5L880.5 702.7L870.5 703.95L860.5 703.85L850.5 702.67L840.5 704.01L830.5 702.69L820.5 704.31L810.5 703.27L800.5 703.71L790.5 703.46L780.5 704.39L770.5 704.49L760.5 703.44L750.5 702.95L740.5 703.15L730.5 702.89L720.5 703.2L710.5 704.37L700.5 703.64L690.5 702.86L680.5 703.56L670.5 703.88L660.5 704.03L650.5 704.42L640.5 703.28L630.5 703.5L630.79 703.5L630.81 695.5L630.21 687.5L630.18 679.5L630.46 671.5L630.5 663.5L630.5 663.5Z" fill="#ffffff" fill-rule="nonzero" opacity="1" stroke="#002a55" stroke-linecap="round" stroke-linejoin="round" stroke-width="2"/>
<text fill="#ff0000" font-family="ComicSansMS" font-size="11.2" opacity="1" stroke="none" text-anchor="middle" transform="matrix(1 0 0 1 732.485 674.541)" x="0" y="0">
<tspan textLength="45.0297" x="24.0148" y="12">strategy</tspan>
</text>
<path d="M630.5 733.5L630.5 733.35L640.5 733.2L650.5 733.4L660.5 732.67L670.5 734.03L680.5 732.89L690.5 732.57L700.5 732.78L710.5 733.27L720.5 733.7L730.5 733.53L740.5 732.75L750.5 733.28L760.5 734.27L770.5 732.78L780.5 733.11L790.5 734.01L800.5 734.42L810.5 733.94L820.5 734.4L830.5 734.43L840.5 734.03L850.5 733.27L860.5 733.31L870.5 733.74L880.5 733.5L880.35 733.5L880.26 741.5L880.72 749.5L880.8 757.5L880.36 765.5L880.5 773.5L880.5 773.51L870.5 773.67L860.5 773.3L850.5 773.76L840.5 772.86L830.5 773.05L820.5 774.26L810.5 772.99L800.5 772.66L790.5 773.42L780.5 773.54L770.5 774.25L760.5 772.89L750.5 773.24L740.5 773.3L730.5 773.33L720.5 774.07L710.5 773.29L700.5 773.84L690.5 773.73L680.5 773.63L670.5 773.51L660.5 772.5L650.5 774.3L640.5 774.09L630.5 773.5L630.31 773.5L630.83 765.5L630.3 757.5L630.4 749.5L630.5 741.5L630.5 733.5L630.5 733.5Z" fill="#ffffff" fill-rule="nonzero" opacity="1" stroke="#002a55" stroke-linecap="round" stroke-linejoin="round" stroke-width="2"/>
<text fill="#ff0000" font-family="ComicSansMS" font-size="11.2" opacity="1" stroke="none" text-anchor="middle" transform="matrix(1 0 0 1 733.893 744.541)" x="0" y="0">
<tspan textLength="42.2133" x="22.6066" y="12">iterator</tspan>
</text>
<path d="M630.5 805.5L630.5 804.71L640.5 806.24L650.5 805.31L660.5 805.11L670.5 805.59L680.5 804.76L690.5 804.6L700.5 804.61L710.5 806.49L720.5 806.11L730.5 805.91L740.5 805.29L750.5 805.37L760.5 805.09L770.5 805.64L780.5 804.85L790.5 805L800.5 804.55L810.5 806.2L820.5 805.22L830.5 804.7L840.5 804.62L850.5 806.37L860.5 806.05L870.5 805.36L880.5 805.5L880.22 805.5L880.56 813.5L880.52 821.5L880.24 829.5L880.21 837.5L880.5 845.5L880.5 846.4L870.5 844.59L860.5 846.05L850.5 845.3L840.5 844.68L830.5 845.37L820.5 845.66L810.5 844.77L800.5 845.2L790.5 845.17L780.5 845.5L770.5 845.31L760.5 845.17L750.5 845.88L740.5 846.09L730.5 845.63L720.5 846.14L710.5 844.84L700.5 845.76L690.5 845.34L680.5 844.99L670.5 845.74L660.5 844.96L650.5 845.37L640.5 844.66L630.5 845.5L630.61 845.5L630.68 837.5L630.74 829.5L630.33 821.5L630.81 813.5L630.5 805.5L630.5 805.5Z" fill="#ffffff" fill-rule="nonzero" opacity="1" stroke="#002a55" stroke-linecap="round" stroke-linejoin="round" stroke-width="2"/>
<text fill="#ff0000" font-family="ComicSansMS" font-size="11.2" opacity="1" stroke="none" text-anchor="middle" transform="matrix(1 0 0 1 731.766 816.541)" x="0" y="0">
<tspan textLength="46.468" x="24.734" y="12">observer</tspan>
</text>
<path d="M630.5 865.5L630.5 865.22L640.5 866.4L650.5 864.72L660.5 866.09L670.5 865.78L680.5 865.18L690.5 865.17L700.5 865.72L710.5 864.58L720.5 865L730.5 865.22L740.5 864.8L750.5 864.8L760.5 865.25L770.5 865.64L780.5 865.81L790.5 864.85L800.5 865.57L810.5 865.27L820.5 865L830.5 864.78L840.5 864.91L850.5 865.09L860.5 865.93L870.5 864.86L880.5 865.5L880.37 865.5L880.74 873.5L880.37 881.5L880.74 889.5L880.26 897.5L880.5 905.5L880.5 904.83L870.5 904.51L860.5 905.99L850.5 905.63L840.5 906.02L830.5 905.49L820.5 905.04L810.5 904.51L800.5 906.15L790.5 905.93L780.5 906.06L770.5 906.14L760.5 905.19L750.5 905.51L740.5 905.8L730.5 906.2L720.5 904.96L710.5 905.91L700.5 904.98L690.5 905.25L680.5 906.27L670.5 906.39L660.5 905.16L650.5 904.76L640.5 905.18L630.5 905.5L630.44 905.5L630.27 897.5L630.64 889.5L630.35 881.5L630.19 873.5L630.5 865.5L630.5 865.5Z" fill="#ffffff" fill-rule="nonzero" opacity="1" stroke="#002a55" stroke-linecap="round" stroke-linejoin="round" stroke-width="2"/>
<text fill="#ff0000" font-family="ComicSansMS" font-size="11.2" opacity="1" stroke="none" text-anchor="middle" transform="matrix(1 0 0 1 731.391 876.541)" x="0" y="0">
<tspan textLength="47.2172" x="25.1086" y="12">command</tspan>
</text>
<path d="M240.5 663.5L240.5 664.46L250.5 663.43L260.5 662.77L270.5 662.56L280.5 662.53L290.5 662.57L300.5 664.05L310.5 664.14L320.5 664.4L330.5 663.01L340.5 664.34L350.5 664.03L360.5 662.85L370.5 663.34L380.5 664.09L390.5 663.54L400.5 663.38L410.5 664L420.5 663.49L430.5 662.99L440.5 663.92L450.5 662.99L460.5 663.76L470.5 664.39L480.5 663.3L490.5 663.5L490.3 663.5L490.42 671.5L490.72 679.5L490.67 687.5L490.47 695.5L490.5 703.5L490.5 703.09L480.5 704.47L470.5 702.55L460.5 704.21L450.5 703.45L440.5 702.86L430.5 704.44L420.5 703.77L410.5 703.94L400.5 704.03L390.5 703.55L380.5 703.38L370.5 703.83L360.5 702.72L350.5 704.03L340.5 702.79L330.5 703.7L320.5 703.99L310.5 703.2L300.5 703.04L290.5 703.43L280.5 703.37L270.5 702.82L260.5 703.46L250.5 703.51L240.5 703.5L240.61 703.5L240.7 695.5L240.7 687.5L240.65 679.5L240.74 671.5L240.5 663.5L240.5 663.5Z" fill="#ffffff" fill-rule="nonzero" opacity="1" stroke="#002a55" stroke-linecap="round" stroke-linejoin="round" stroke-width="2"/>
<text fill="#ff0000" font-family="ComicSansMS" font-size="11.2" opacity="1" stroke="none" text-anchor="middle" transform="matrix(1 0 0 1 346.636 674.541)" x="0" y="0">
<tspan textLength="36.7281" x="19.8641" y="12">Facade</tspan>
</text>
<path d="M240.5 725.5L240.5 726.07L250.5 725.4L260.5 724.6L270.5 724.96L280.5 726.27L290.5 726.27L300.5 726.48L310.5 725.13L320.5 726.43L330.5 725.97L340.5 725.48L350.5 725.84L360.5 724.94L370.5 725.56L380.5 726.29L390.5 725.76L400.5 725.91L410.5 726.19L420.5 724.92L430.5 726.28L440.5 725.45L450.5 724.83L460.5 725.8L470.5 726.12L480.5 726.04L490.5 725.5L490.19 725.5L490.73 733.5L490.64 741.5L490.24 749.5L490.42 757.5L490.5 765.5L490.5 765.15L480.5 765.5L470.5 765.48L460.5 764.85L450.5 764.7L440.5 766.46L430.5 765.86L420.5 765.33L410.5 766.37L400.5 766.24L390.5 764.92L380.5 766.18L370.5 765.83L360.5 765.74L350.5 764.9L340.5 764.98L330.5 765.94L320.5 765.11L310.5 764.76L300.5 764.72L290.5 764.79L280.5 765.04L270.5 766.26L260.5 764.73L250.5 765.62L240.5 765.5L240.26 765.5L240.55 757.5L240.18 749.5L240.44 741.5L240.64 733.5L240.5 725.5L240.5 725.5Z" fill="#ffffff" fill-rule="nonzero" opacity="1" stroke="#002a55" stroke-linecap="round" stroke-linejoin="round" stroke-width="2"/>
<text fill="#ff0000" font-family="ComicSansMS" font-size="11.2" opacity="1" stroke="none" text-anchor="middle" transform="matrix(1 0 0 1 350.15 736.541)" x="0" y="0">
<tspan textLength="29.7008" x="16.3504" y="12">proxy</tspan>
</text>
<path d="M240.5 795.5L240.5 794.8L250.5 795.43L260.5 794.99L270.5 795.75L280.5 794.63L290.5 796.29L300.5 796.29L310.5 795.36L320.5 794.67L330.5 795.39L340.5 796.28L350.5 795.39L360.5 796L370.5 796.08L380.5 796.13L390.5 796.26L400.5 796.36L410.5 795.4L420.5 794.54L430.5 796.35L440.5 795.1L450.5 794.91L460.5 794.56L470.5 795.61L480.5 794.73L490.5 795.5L490.46 795.5L490.35 803.5L490.56 811.5L490.41 819.5L490.39 827.5L490.5 835.5L490.5 835.24L480.5 834.89L470.5 835.19L460.5 836.41L450.5 835.72L440.5 836.01L430.5 835.78L420.5 835.21L410.5 835.69L400.5 834.7L390.5 835.3L380.5 835.07L370.5 835.25L360.5 835.97L350.5 835.02L340.5 834.62L330.5 834.75L320.5 835.46L310.5 835.38L300.5 835.75L290.5 835.34L280.5 835.5L270.5 834.51L260.5 836.15L250.5 834.95L240.5 835.5L240.46 835.5L240.43 827.5L240.82 819.5L240.23 811.5L240.18 803.5L240.5 795.5L240.5 795.5Z" fill="#ffffff" fill-rule="nonzero" opacity="1" stroke="#002a55" stroke-linecap="round" stroke-linejoin="round" stroke-width="2"/>
<text fill="#ff0000" font-family="ComicSansMS" font-size="11.2" opacity="1" stroke="none" text-anchor="middle" transform="matrix(1 0 0 1 343.357 806.541)" x="0" y="0">
<tspan textLength="43.2852" x="23.1426" y="12">Adapter</tspan>
</text>
<path d="M240.5 865.5L240.5 865.15L250.5 864.62L260.5 865.81L270.5 866.36L280.5 865.88L290.5 865.06L300.5 865.68L310.5 865.63L320.5 866.35L330.5 864.87L340.5 864.91L350.5 866.48L360.5 864.59L370.5 864.89L380.5 864.63L390.5 864.69L400.5 864.55L410.5 866.28L420.5 864.85L430.5 865.39L440.5 865.43L450.5 865.6L460.5 865.46L470.5 865.63L480.5 864.71L490.5 865.5L490.62 865.5L490.4 873.5L490.69 881.5L490.66 889.5L490.81 897.5L490.5 905.5L490.5 905.73L480.5 904.92L470.5 906.05L460.5 904.72L450.5 904.89L440.5 905.41L430.5 904.72L420.5 904.8L410.5 905.65L400.5 906.4L390.5 905.76L380.5 905.96L370.5 905.56L360.5 906.43L350.5 906.04L340.5 905.33L330.5 905.79L320.5 904.95L310.5 906.06L300.5 905.84L290.5 905.85L280.5 905.58L270.5 904.5L260.5 905.94L250.5 906.4L240.5 905.5L240.64 905.5L240.67 897.5L240.41 889.5L240.83 881.5L240.35 873.5L240.5 865.5L240.5 865.5Z" fill="#ffffff" fill-rule="nonzero" opacity="1" stroke="#002a55" stroke-linecap="round" stroke-linejoin="round" stroke-width="2"/>
<text fill="#ff0000" font-family="ComicSansMS" font-size="11.2" opacity="1" stroke="none" text-anchor="middle" transform="matrix(1 0 0 1 338.239 876.541)" x="0" y="0">
<tspan textLength="53.5227" x="28.2613" y="12">Decorator</tspan>
</text>
<path d="M648.5 2345.5L648.5 2345.01L658.5 2345.06L668.5 2344.64L678.5 2345L688.5 2345.58L698.5 2345.12L708.5 2346.39L718.5 2344.74L728.5 2345.83L738.5 2345.36L748.5 2344.84L758.5 2345.33L768.5 2345.5L778.5 2346.47L788.5 2344.9L798.5 2346.05L808.5 2345.02L818.5 2346.04L828.5 2345.9L838.5 2346.33L848.5 2344.55L858.5 2346.34L868.5 2345.89L878.5 2344.67L888.5 2345.38L898.5 2345.5L898.2 2345.5L898.33 2353.5L898.47 2361.5L898.68 2369.5L898.46 2377.5L898.5 2385.5L898.5 2386.28L888.5 2385.96L878.5 2384.7L868.5 2385.49L858.5 2385.93L848.5 2386.02L838.5 2385.69L828.5 2385.12L818.5 2385.62L808.5 2385.95L798.5 2386.27L788.5 2385.98L778.5 2385.4L768.5 2385.99L758.5 2386.43L748.5 2386.03L738.5 2385.11L728.5 2386.43L718.5 2386.13L708.5 2385.68L698.5 2385.21L688.5 2384.77L678.5 2385.56L668.5 2386.2L658.5 2385.95L648.5 2385.5L648.73 2385.5L648.66 2377.5L648.36 2369.5L648.72 2361.5L648.46 2353.5L648.5 2345.5L648.5 2345.5Z" fill="#ffffff" fill-rule="nonzero" opacity="1" stroke="#002a55" stroke-linecap="round" stroke-linejoin="round" stroke-width="2"/>
<text fill="#ff0000" font-family="ComicSansMS" font-size="11.2" opacity="1" stroke="none" text-anchor="middle" transform="matrix(1 0 0 1 737.12 2356.54)" x="0" y="0">
<tspan textLength="71.7609" x="37.3805" y="12">microservices</tspan>
</text>
<path d="M648.5 2425.5L648.5 2424.84L658.5 2425.03L668.5 2424.67L678.5 2426.3L688.5 2426.4L698.5 2424.98L708.5 2425.43L718.5 2425.34L728.5 2425.71L738.5 2426.14L748.5 2425.61L758.5 2424.9L768.5 2424.71L778.5 2424.75L788.5 2425.16L798.5 2425.55L808.5 2424.74L818.5 2425.4L828.5 2424.93L838.5 2426.32L848.5 2425.15L858.5 2425.22L868.5 2425.31L878.5 2426.44L888.5 2425.75L898.5 2425.5L898.77 2425.5L898.58 2433.5L898.26 2441.5L898.22 2449.5L898.82 2457.5L898.5 2465.5L898.5 2464.57L888.5 2466.17L878.5 2466.05L868.5 2465.98L858.5 2464.82L848.5 2464.97L838.5 2465.73L828.5 2466.45L818.5 2466.23L808.5 2465.09L798.5 2466.18L788.5 2465.41L778.5 2464.51L768.5 2466.14L758.5 2466.49L748.5 2464.63L738.5 2466.45L728.5 2465.7L718.5 2465.47L708.5 2465.13L698.5 2464.99L688.5 2465.69L678.5 2465.17L668.5 2465.56L658.5 2465.14L648.5 2465.5L648.74 2465.5L648.17 2457.5L648.17 2449.5L648.7 2441.5L648.6 2433.5L648.5 2425.5L648.5 2425.5Z" fill="#ffffff" fill-rule="nonzero" opacity="1" stroke="#002a55" stroke-linecap="round" stroke-linejoin="round" stroke-width="2"/>
<text fill="#ff0000" font-family="ComicSansMS" font-size="11.2" opacity="1" stroke="none" text-anchor="middle" transform="matrix(1 0 0 1 695.601 2436.54)" x="0" y="0">
<tspan textLength="154.798" x="78.8992" y="12">service oriented architecture</tspan>
</text>
<path d="M648.5 2505.5L648.5 2505.99L658.5 2506.38L668.5 2505.44L678.5 2505.34L688.5 2504.92L698.5 2505.8L708.5 2505.83L718.5 2504.95L728.5 2505.4L738.5 2506.18L748.5 2505.63L758.5 2506.02L768.5 2505.03L778.5 2505.82L788.5 2504.64L798.5 2504.77L808.5 2505.62L818.5 2504.81L828.5 2504.85L838.5 2505.37L848.5 2505.46L858.5 2506.46L868.5 2505.38L878.5 2504.74L888.5 2504.89L898.5 2505.5L898.45 2505.5L898.61 2513.5L898.27 2521.5L898.62 2529.5L898.52 2537.5L898.5 2545.5L898.5 2545.36L888.5 2544.5L878.5 2544.55L868.5 2545.74L858.5 2544.58L848.5 2544.58L838.5 2544.69L828.5 2546.23L818.5 2545.2L808.5 2545.32L798.5 2546.44L788.5 2545.81L778.5 2545.38L768.5 2545.5L758.5 2545.11L748.5 2544.77L738.5 2545.13L728.5 2546.35L718.5 2545.51L708.5 2546.45L698.5 2545.64L688.5 2545.95L678.5 2546.01L668.5 2545.82L658.5 2545.98L648.5 2545.5L648.27 2545.5L648.19 2537.5L648.35 2529.5L648.24 2521.5L648.36 2513.5L648.5 2505.5L648.5 2505.5Z" fill="#ffffff" fill-rule="nonzero" opacity="1" stroke="#002a55" stroke-linecap="round" stroke-linejoin="round" stroke-width="2"/>
<text fill="#ff0000" font-family="ComicSansMS" font-size="11.2" opacity="1" stroke="none" text-anchor="middle" transform="matrix(1 0 0 1 718.766 2516.54)" x="0" y="0">
<tspan textLength="108.467" x="55.7336" y="12">layered architecture</tspan>
</text>
<path d="M648.5 2667.5L648.5 2668.19L658.5 2667.03L668.5 2667.18L678.5 2667.83L688.5 2666.81L698.5 2666.75L708.5 2667.21L718.5 2667.84L728.5 2666.77L738.5 2668.07L748.5 2667.2L758.5 2666.69L768.5 2667.14L778.5 2667.52L788.5 2667.19L798.5 2667.93L808.5 2667.09L818.5 2666.5L828.5 2668.4L838.5 2667.42L848.5 2668.34L858.5 2668L868.5 2667.83L878.5 2667.86L888.5 2667.14L898.5 2667.5L898.6 2667.5L898.19 2675.5L898.48 2683.5L898.78 2691.5L898.25 2699.5L898.5 2707.5L898.5 2706.74L888.5 2707.06L878.5 2707.99L868.5 2708.4L858.5 2708.04L848.5 2708.49L838.5 2708.14L828.5 2707.39L818.5 2707.17L808.5 2708.1L798.5 2707.57L788.5 2708.21L778.5 2708.28L768.5 2707.11L758.5 2706.5L748.5 2706.9L738.5 2708.09L728.5 2707.06L718.5 2706.57L708.5 2706.84L698.5 2706.89L688.5 2707.02L678.5 2707.29L668.5 2706.83L658.5 2707.94L648.5 2707.5L648.75 2707.5L648.83 2699.5L648.27 2691.5L648.43 2683.5L648.48 2675.5L648.5 2667.5L648.5 2667.5Z" fill="#ffffff" fill-rule="nonzero" opacity="1" stroke="#002a55" stroke-linecap="round" stroke-linejoin="round" stroke-width="2"/>
<text fill="#ff0000" font-family="ComicSansMS" font-size="11.2" opacity="1" stroke="none" text-anchor="middle" transform="matrix(1 0 0 1 738.55 2678.54)" x="0" y="0">
<tspan textLength="68.9008" x="35.9504" y="12">client/server</tspan>
</text>
<path d="M648.5 2745.5L648.5 2746.04L658.5 2745.19L668.5 2745.64L678.5 2745.56L688.5 2745.75L698.5 2745.54L708.5 2746.24L718.5 2745.5L728.5 2745.19L738.5 2744.7L748.5 2744.88L758.5 2745.21L768.5 2746.32L778.5 2745.72L788.5 2744.93L798.5 2744.62L808.5 2745.14L818.5 2744.82L828.5 2744.53L838.5 2745.78L848.5 2745.21L858.5 2746.48L868.5 2745.59L878.5 2745.56L888.5 2745.46L898.5 2745.5L898.73 2745.5L898.4 2753.5L898.59 2761.5L898.65 2769.5L898.72 2777.5L898.5 2785.5L898.5 2786.35L888.5 2785.24L878.5 2784.72L868.5 2785.47L858.5 2786L848.5 2786.17L838.5 2785.32L828.5 2785.12L818.5 2785.54L808.5 2784.88L798.5 2785.11L788.5 2785.34L778.5 2785.71L768.5 2786.44L758.5 2786.19L748.5 2785.01L738.5 2785.06L728.5 2786.41L718.5 2784.72L708.5 2785.13L698.5 2785.05L688.5 2784.85L678.5 2785.89L668.5 2784.68L658.5 2784.66L648.5 2785.5L648.52 2785.5L648.76 2777.5L648.72 2769.5L648.24 2761.5L648.32 2753.5L648.5 2745.5L648.5 2745.5Z" fill="#ffffff" fill-rule="nonzero" opacity="1" stroke="#002a55" stroke-linecap="round" stroke-linejoin="round" stroke-width="2"/>
<text fill="#ff0000" font-family="ComicSansMS" font-size="11.2" opacity="1" stroke="none" text-anchor="middle" transform="matrix(1 0 0 1 761.043 2756.54)" x="0" y="0">
<tspan textLength="23.9148" x="13.4574" y="12">MVC</tspan>
</text>
<path d="M648.5 2585.5L648.5 2586.35L658.5 2584.74L668.5 2584.74L678.5 2585.97L688.5 2584.73L698.5 2585.32L708.5 2586.31L718.5 2585.8L728.5 2584.98L738.5 2584.77L748.5 2586.03L758.5 2585.72L768.5 2585.65L778.5 2585.7L788.5 2584.97L798.5 2586.32L808.5 2585.28L818.5 2585.39L828.5 2586.08L838.5 2586.12L848.5 2586.37L858.5 2585.21L868.5 2584.52L878.5 2585.25L888.5 2584.58L898.5 2585.5L898.6 2585.5L898.49 2593.5L898.64 2601.5L898.76 2609.5L898.83 2617.5L898.5 2625.5L898.5 2625.92L888.5 2626.08L878.5 2625.92L868.5 2625.09L858.5 2625.87L848.5 2626.45L838.5 2625.4L828.5 2625.96L818.5 2625.3L808.5 2624.59L798.5 2624.62L788.5 2625.2L778.5 2625.96L768.5 2625.47L758.5 2624.88L748.5 2625.48L738.5 2624.5L728.5 2624.99L718.5 2625.14L708.5 2625.85L698.5 2624.52L688.5 2624.7L678.5 2626.04L668.5 2625.08L658.5 2624.92L648.5 2625.5L648.18 2625.5L648.82 2617.5L648.83 2609.5L648.5 2601.5L648.56 2593.5L648.5 2585.5L648.5 2585.5Z" fill="#ffffff" fill-rule="nonzero" opacity="1" stroke="#002a55" stroke-linecap="round" stroke-linejoin="round" stroke-width="2"/>
<text fill="#ff0000" font-family="ComicSansMS" font-size="11.2" opacity="1" stroke="none" text-anchor="middle" transform="matrix(1 0 0 1 737.103 2596.54)" x="0" y="0">
<tspan textLength="71.7937" x="37.3969" y="12">domain driven</tspan>
</text>
<path d="M648.5 3235.5L648.5 3235.44L658.5 3234.58L668.5 3236.02L678.5 3235.83L688.5 3234.71L698.5 3235L708.5 3234.9L718.5 3236.48L728.5 3235.6L738.5 3234.57L748.5 3234.92L758.5 3236.01L768.5 3236.3L778.5 3235.61L788.5 3235.84L798.5 3235.24L808.5 3235.58L818.5 3235.4L828.5 3235.38L838.5 3235.99L848.5 3234.61L858.5 3235L868.5 3235.14L878.5 3235.27L888.5 3234.57L898.5 3235.5L898.27 3235.5L898.5 3243.5L898.35 3251.5L898.23 3259.5L898.8 3267.5L898.5 3275.5L898.5 3275.59L888.5 3275.79L878.5 3275.04L868.5 3275.72L858.5 3275.79L848.5 3276.26L838.5 3275.55L828.5 3276.05L818.5 3276.45L808.5 3275.32L798.5 3274.91L788.5 3274.7L778.5 3275.42L768.5 3275.83L758.5 3274.73L748.5 3275.68L738.5 3275.05L728.5 3276.38L718.5 3275.21L708.5 3276.18L698.5 3276.29L688.5 3275.37L678.5 3274.9L668.5 3274.93L658.5 3274.62L648.5 3275.5L648.82 3275.5L648.32 3267.5L648.74 3259.5L648.49 3251.5L648.24 3243.5L648.5 3235.5L648.5 3235.5Z" fill="#ffffff" fill-rule="nonzero" opacity="1" stroke="#002a55" stroke-linecap="round" stroke-linejoin="round" stroke-width="2"/>
<text fill="#ff0000" font-family="ComicSansMS" font-size="11.2" opacity="1" stroke="none" text-anchor="middle" transform="matrix(1 0 0 1 735.274 3246.54)" x="0" y="0">
<tspan textLength="75.4523" x="39.2262" y="12">event sourcing</tspan>
</text>
<path d="M648.5 3175.5L648.5 3176.15L658.5 3174.67L668.5 3176.32L678.5 3176.41L688.5 3176.15L698.5 3175.03L708.5 3175.47L718.5 3176.24L728.5 3174.79L738.5 3174.82L748.5 3174.82L758.5 3176.06L768.5 3175.59L778.5 3175.68L788.5 3174.76L798.5 3174.67L808.5 3175.67L818.5 3175.26L828.5 3176.03L838.5 3176.47L848.5 3175.62L858.5 3175.64L868.5 3174.92L878.5 3176.43L888.5 3176.14L898.5 3175.5L898.76 3175.5L898.32 3183.5L898.56 3191.5L898.25 3199.5L898.65 3207.5L898.5 3215.5L898.5 3215.59L888.5 3214.87L878.5 3216.12L868.5 3216.47L858.5 3216.45L848.5 3215.41L838.5 3215.24L828.5 3216.38L818.5 3216.4L808.5 3216.47L798.5 3214.57L788.5 3215.7L778.5 3215.21L768.5 3214.72L758.5 3215.16L748.5 3214.95L738.5 3215.93L728.5 3215.71L718.5 3214.67L708.5 3216.23L698.5 3215.02L688.5 3216.08L678.5 3214.99L668.5 3214.85L658.5 3215.98L648.5 3215.5L648.62 3215.5L648.27 3207.5L648.55 3199.5L648.32 3191.5L648.4 3183.5L648.5 3175.5L648.5 3175.5Z" fill="#ffffff" fill-rule="nonzero" opacity="1" stroke="#002a55" stroke-linecap="round" stroke-linejoin="round" stroke-width="2"/>
<text fill="#ff0000" font-family="ComicSansMS" font-size="11.2" opacity="1" stroke="none" text-anchor="middle" transform="matrix(1 0 0 1 702.037 3186.54)" x="0" y="0">
<tspan textLength="141.925" x="72.4625" y="12">message stream processing</tspan>
</text>
<path d="M648.5 3307.5L648.5 3307.21L658.5 3307.17L668.5 3307.29L678.5 3306.91L688.5 3307.7L698.5 3307.97L708.5 3308.05L718.5 3308.27L728.5 3307.3L738.5 3306.53L748.5 3306.73L758.5 3306.81L768.5 3307.8L778.5 3308.08L788.5 3306.95L798.5 3308.5L808.5 3307.72L818.5 3308.39L828.5 3306.93L838.5 3306.71L848.5 3306.88L858.5 3306.81L868.5 3307.07L878.5 3306.65L888.5 3307.96L898.5 3307.5L898.56 3307.5L898.47 3315.5L898.81 3323.5L898.63 3331.5L898.6 3339.5L898.5 3347.5L898.5 3347.48L888.5 3348.27L878.5 3348.09L868.5 3348.31L858.5 3347.04L848.5 3347.07L838.5 3348.39L828.5 3347.78L818.5 3347.23L808.5 3346.7L798.5 3347.25L788.5 3347.71L778.5 3347.42L768.5 3348.24L758.5 3347.87L748.5 3347.93L738.5 3348L728.5 3347.15L718.5 3346.59L708.5 3347.18L698.5 3348.17L688.5 3347.28L678.5 3348.19L668.5 3348.26L658.5 3346.83L648.5 3347.5L648.48 3347.5L648.55 3339.5L648.67 3331.5L648.32 3323.5L648.51 3315.5L648.5 3307.5L648.5 3307.5Z" fill="#ffffff" fill-rule="nonzero" opacity="1" stroke="#002a55" stroke-linecap="round" stroke-linejoin="round" stroke-width="2"/>
<text fill="#ff0000" font-family="ComicSansMS" font-size="11.2" opacity="1" stroke="none" text-anchor="middle" transform="matrix(1 0 0 1 751.945 3318.54)" x="0" y="0">
<tspan textLength="42.1094" x="22.5547" y="12">pub/sub</tspan>
</text>
<path d="M648.5 3375.5L648.5 3375.94L658.5 3375.72L668.5 3374.64L678.5 3376.02L688.5 3375.94L698.5 3375.65L708.5 3376.14L718.5 3376.03L728.5 3375.47L738.5 3375.51L748.5 3375.77L758.5 3375.54L768.5 3376.43L778.5 3375.5L788.5 3375.79L798.5 3374.74L808.5 3375.9L818.5 3376.45L828.5 3374.98L838.5 3375.79L848.5 3376.07L858.5 3374.55L868.5 3374.5L878.5 3374.71L888.5 3375.33L898.5 3375.5L898.72 3375.5L898.59 3383.5L898.41 3391.5L898.72 3399.5L898.46 3407.5L898.5 3415.5L898.5 3415.77L888.5 3416.45L878.5 3414.68L868.5 3415.7L858.5 3416.3L848.5 3416.2L838.5 3415.11L828.5 3415.11L818.5 3415.06L808.5 3416L798.5 3414.51L788.5 3415.42L778.5 3416.26L768.5 3415.27L758.5 3414.77L748.5 3415.47L738.5 3415.28L728.5 3415.01L718.5 3416.48L708.5 3416.02L698.5 3415.12L688.5 3415.05L678.5 3415.54L668.5 3415.39L658.5 3414.6L648.5 3415.5L648.39 3415.5L648.69 3407.5L648.27 3399.5L648.55 3391.5L648.17 3383.5L648.5 3375.5L648.5 3375.5Z" fill="#ffffff" fill-rule="nonzero" opacity="1" stroke="#002a55" stroke-linecap="round" stroke-linejoin="round" stroke-width="2"/>
<text fill="#ff0000" font-family="ComicSansMS" font-size="11.2" opacity="1" stroke="none" text-anchor="middle" transform="matrix(1 0 0 1 699.965 3386.54)" x="0" y="0">
<tspan textLength="146.07" x="74.5352" y="12">remote procedure call (RPC)</tspan>
</text>
<path d="M648.5 3445.5L648.5 3444.84L658.5 3444.92L668.5 3445.17L678.5 3446.05L688.5 3445.46L698.5 3445.68L708.5 3446.35L718.5 3446.15L728.5 3445.13L738.5 3445.16L748.5 3444.53L758.5 3445.2L768.5 3445.75L778.5 3444.56L788.5 3446.15L798.5 3444.75L808.5 3445.96L818.5 3444.89L828.5 3445.03L838.5 3446.41L848.5 3444.52L858.5 3445.45L868.5 3445.38L878.5 3445.67L888.5 3446.24L898.5 3445.5L898.51 3445.5L898.24 3453.5L898.57 3461.5L898.41 3469.5L898.7 3477.5L898.5 3485.5L898.5 3486.29L888.5 3485.94L878.5 3486.23L868.5 3484.87L858.5 3484.87L848.5 3485.01L838.5 3485.5L828.5 3485.68L818.5 3485.94L808.5 3485.95L798.5 3486.28L788.5 3485.96L778.5 3485.66L768.5 3485.4L758.5 3485.1L748.5 3486.33L738.5 3484.72L728.5 3485.48L718.5 3484.84L708.5 3484.57L698.5 3485.34L688.5 3486.07L678.5 3485.61L668.5 3486.14L658.5 3485.83L648.5 3485.5L648.78 3485.5L648.69 3477.5L648.34 3469.5L648.33 3461.5L648.31 3453.5L648.5 3445.5L648.5 3445.5Z" fill="#ffffff" fill-rule="nonzero" opacity="1" stroke="#002a55" stroke-linecap="round" stroke-linejoin="round" stroke-width="2"/>
<text fill="#ff0000" font-family="ComicSansMS" font-size="11.2" opacity="1" stroke="none" text-anchor="middle" transform="matrix(1 0 0 1 714.096 3456.54)" x="0" y="0">
<tspan textLength="117.808" x="60.4039" y="12">Enterprise service bus</tspan>
</text>
<path d="M648.5 3846.5L648.5 3846.76L658.5 3847.03L668.5 3847.33L678.5 3847.06L688.5 3847.45L698.5 3846.76L708.5 3847.37L718.5 3846.89L728.5 3847.2L738.5 3845.88L748.5 3846.61L758.5 3846.18L768.5 3846.11L778.5 3846.42L788.5 3847.05L798.5 3846.74L808.5 3846.37L818.5 3846.09L828.5 3846.37L838.5 3846.35L848.5 3846.79L858.5 3847.01L868.5 3847.47L878.5 3845.79L888.5 3847.4L898.5 3846.5L898.63 3846.5L898.8 3854.5L898.36 3862.5L898.51 3870.5L898.78 3878.5L898.5 3886.5L898.5 3886.8L888.5 3886.09L878.5 3885.61L868.5 3885.84L858.5 3885.55L848.5 3886.83L838.5 3886.17L828.5 3886.53L818.5 3885.51L808.5 3886.36L798.5 3886.44L788.5 3885.64L778.5 3887.46L768.5 3885.93L758.5 3887.3L748.5 3886.17L738.5 3885.71L728.5 3887.29L718.5 3885.53L708.5 3886.46L698.5 3885.68L688.5 3886.46L678.5 3886.99L668.5 3887.42L658.5 3887.22L648.5 3886.5L648.32 3886.5L648.74 3878.5L648.83 3870.5L648.71 3862.5L648.4 3854.5L648.5 3846.5L648.5 3846.5Z" fill="#ffffff" fill-rule="nonzero" opacity="1" stroke="#002a55" stroke-linecap="round" stroke-linejoin="round" stroke-width="2"/>
<text fill="#ff0000" font-family="ComicSansMS" font-size="11.2" opacity="1" stroke="none" text-anchor="middle" transform="matrix(1 0 0 1 760.846 3857.54)" x="0" y="0">
<tspan textLength="24.3086" x="13.6543" y="12">UML</tspan>
</text>
<path d="M648.5 3976.5L648.5 3977.24L658.5 3976.59L668.5 3976.79L678.5 3975.92L688.5 3976.11L698.5 3976.47L708.5 3975.86L718.5 3975.59L728.5 3975.57L738.5 3975.63L748.5 3975.77L758.5 3976.43L768.5 3976.76L778.5 3976.8L788.5 3975.63L798.5 3976.67L808.5 3976.76L818.5 3977.38L828.5 3975.89L838.5 3975.65L848.5 3977.39L858.5 3975.76L868.5 3976.83L878.5 3976.82L888.5 3977.19L898.5 3976.5L898.24 3976.5L898.32 3984.5L898.8 3992.5L898.83 4000.5L898.75 4008.5L898.5 4016.5L898.5 4016.08L888.5 4017.16L878.5 4016.39L868.5 4016.06L858.5 4017L848.5 4015.77L838.5 4016.79L828.5 4017.32L818.5 4016.73L808.5 4016.41L798.5 4016L788.5 4015.99L778.5 4016.31L768.5 4016.06L758.5 4016.21L748.5 4016.4L738.5 4016.41L728.5 4017.45L718.5 4016.83L708.5 4016.43L698.5 4016.93L688.5 4015.57L678.5 4016.01L668.5 4016.61L658.5 4016.56L648.5 4016.5L648.35 4016.5L648.37 4008.5L648.65 4000.5L648.22 3992.5L648.22 3984.5L648.5 3976.5L648.5 3976.5Z" fill="#ffffff" fill-rule="nonzero" opacity="1" stroke="#002a55" stroke-linecap="round" stroke-linejoin="round" stroke-width="2"/>
<text fill="#ff0000" font-family="ComicSansMS" font-size="11.2" opacity="1" stroke="none" text-anchor="middle" transform="matrix(1 0 0 1 761.942 3987.54)" x="0" y="0">
<tspan textLength="22.1156" x="12.5578" y="12">ERD</tspan>
</text>
<path d="M648.5 3916.5L648.5 3916.63L658.5 3916.01L668.5 3916.12L678.5 3916.64L688.5 3915.6L698.5 3916.12L708.5 3915.92L718.5 3915.54L728.5 3917.47L738.5 3916.06L748.5 3916.56L758.5 3916.01L768.5 3917.38L778.5 3916.64L788.5 3916.81L798.5 3916.68L808.5 3915.93L818.5 3916.75L828.5 3915.77L838.5 3916.67L848.5 3916.61L858.5 3916.32L868.5 3916.27L878.5 3917.27L888.5 3917.28L898.5 3916.5L898.66 3916.5L898.62 3924.5L898.63 3932.5L898.21 3940.5L898.77 3948.5L898.5 3956.5L898.5 3957.13L888.5 3957.26L878.5 3955.53L868.5 3955.93L858.5 3956.01L848.5 3956.22L838.5 3955.94L828.5 3957.02L818.5 3957.4L808.5 3957.36L798.5 3956.85L788.5 3956.14L778.5 3957.11L768.5 3955.6L758.5 3955.63L748.5 3957.49L738.5 3957.35L728.5 3955.55L718.5 3956.31L708.5 3957.29L698.5 3956.05L688.5 3956.96L678.5 3955.6L668.5 3956.1L658.5 3956.98L648.5 3956.5L648.53 3956.5L648.35 3948.5L648.79 3940.5L648.36 3932.5L648.63 3924.5L648.5 3916.5L648.5 3916.5Z" fill="#ffffff" fill-rule="nonzero" opacity="1" stroke="#002a55" stroke-linecap="round" stroke-linejoin="round" stroke-width="2"/>
<text fill="#ff0000" font-family="ComicSansMS" font-size="11.2" opacity="1" stroke="none" text-anchor="middle" transform="matrix(1 0 0 1 727.161 3927.54)" x="0" y="0">
<tspan textLength="91.6781" x="47.3391" y="12">sequence diagram</tspan>
</text>
<path d="M648.5 4046.5L648.5 4046.23L658.5 4047.28L668.5 4045.63L678.5 4046.07L688.5 4046.82L698.5 4046.93L708.5 4047.32L718.5 4047.32L728.5 4046.77L738.5 4046.13L748.5 4046.78L758.5 4046.34L768.5 4047.26L778.5 4046.59L788.5 4047.15L798.5 4046.63L808.5 4045.54L818.5 4046.65L828.5 4046.9L838.5 4046.07L848.5 4046.67L858.5 4045.77L868.5 4047.39L878.5 4046.9L888.5 4047.27L898.5 4046.5L898.72 4046.5L898.44 4054.5L898.27 4062.5L898.43 4070.5L898.26 4078.5L898.5 4086.5L898.5 4087.07L888.5 4086.02L878.5 4086.34L868.5 4086.04L858.5 4086.28L848.5 4087.35L838.5 4086.54L828.5 4087.46L818.5 4087.3L808.5 4087L798.5 4086.96L788.5 4085.54L778.5 4087.4L768.5 4087.16L758.5 4085.55L748.5 4086.59L738.5 4087.49L728.5 4085.65L718.5 4085.93L708.5 4085.95L698.5 4086.14L688.5 4086.7L678.5 4086.91L668.5 4086.18L658.5 4085.92L648.5 4086.5L648.24 4086.5L648.63 4078.5L648.59 4070.5L648.74 4062.5L648.26 4054.5L648.5 4046.5L648.5 4046.5Z" fill="#ffffff" fill-rule="nonzero" opacity="1" stroke="#002a55" stroke-linecap="round" stroke-linejoin="round" stroke-width="2"/>
<text fill="#ff0000" font-family="ComicSansMS" font-size="11.2" opacity="1" stroke="none" text-anchor="middle" transform="matrix(1 0 0 1 726.234 4057.54)" x="0" y="0">
<tspan textLength="93.532" x="48.266" y="12">data flow diagram</tspan>
</text>
<path d="M648.5 4116.5L648.5 4115.61L658.5 4117.22L668.5 4117.13L678.5 4116.11L688.5 4115.71L698.5 4116.99L708.5 4116.21L718.5 4116.6L728.5 4115.6L738.5 4116.06L748.5 4117.09L758.5 4115.53L768.5 4116.66L778.5 4116.52L788.5 4116.48L798.5 4116.13L808.5 4116.32L818.5 4116.35L828.5 4116.96L838.5 4115.62L848.5 4116.87L858.5 4116.96L868.5 4116.67L878.5 4116.65L888.5 4116.11L898.5 4116.5L898.28 4116.5L898.25 4124.5L898.17 4132.5L898.45 4140.5L898.35 4148.5L898.5 4156.5L898.5 4156.99L888.5 4156.27L878.5 4155.84L868.5 4155.94L858.5 4155.93L848.5 4157.22L838.5 4157.14L828.5 4155.78L818.5 4157.3L808.5 4156.26L798.5 4156.3L788.5 4156.01L778.5 4155.9L768.5 4157.13L758.5 4156.27L748.5 4157.24L738.5 4157.18L728.5 4156.62L718.5 4155.73L708.5 4157.49L698.5 4156.77L688.5 4156.44L678.5 4156.39L668.5 4155.57L658.5 4155.52L648.5 4156.5L648.58 4156.5L648.45 4148.5L648.83 4140.5L648.67 4132.5L648.26 4124.5L648.5 4116.5L648.5 4116.5Z" fill="#ffffff" fill-rule="nonzero" opacity="1" stroke="#002a55" stroke-linecap="round" stroke-linejoin="round" stroke-width="2"/>
<text fill="#ff0000" font-family="ComicSansMS" font-size="11.2" opacity="1" stroke="none" text-anchor="middle" transform="matrix(1 0 0 1 721.998 4127.54)" x="0" y="0">
<tspan textLength="102.003" x="52.5016" y="12">interaction diagram</tspan>
</text>
<path d="M648.5 4186.5L648.5 4185.64L658.5 4187.27L668.5 4186.23L678.5 4186.24L688.5 4187.38L698.5 4186.67L708.5 4185.53L718.5 4187.07L728.5 4187.26L738.5 4186.06L748.5 4186.9L758.5 4186.44L768.5 4187.24L778.5 4186L788.5 4186.5L798.5 4186.44L808.5 4187.37L818.5 4185.88L828.5 4187.32L838.5 4186.76L848.5 4186.69L858.5 4186.67L868.5 4186.23L878.5 4186.31L888.5 4186.83L898.5 4186.5L898.58 4186.5L898.43 4194.5L898.48 4202.5L898.57 4210.5L898.25 4218.5L898.5 4226.5L898.5 4226.17L888.5 4227.06L878.5 4227.22L868.5 4227.08L858.5 4226.5L848.5 4227.32L838.5 4226.95L828.5 4226.26L818.5 4227.43L808.5 4226.19L798.5 4225.85L788.5 4225.84L778.5 4227.12L768.5 4226.03L758.5 4226.12L748.5 4226.81L738.5 4226.99L728.5 4226.38L718.5 4227.04L708.5 4225.92L698.5 4227L688.5 4226.53L678.5 4226.75L668.5 4227.33L658.5 4226.62L648.5 4226.5L648.25 4226.5L648.19 4218.5L648.82 4210.5L648.25 4202.5L648.82 4194.5L648.5 4186.5L648.5 4186.5Z" fill="#ffffff" fill-rule="nonzero" opacity="1" stroke="#002a55" stroke-linecap="round" stroke-linejoin="round" stroke-width="2"/>
<text fill="#ff0000" font-family="ComicSansMS" font-size="11.2" opacity="1" stroke="none" text-anchor="middle" transform="matrix(1 0 0 1 737.995 4197.54)" x="0" y="0">
<tspan textLength="70.0109" x="36.5055" y="12">class diagram</tspan>
</text>
<text fill="#26bbe1" font-family="ComicSansMS" font-size="11.2" opacity="1" stroke="none" text-anchor="start" transform="matrix(1 0 0 1 705.005 436.845)" x="0" y="0">
<tspan textLength="93.2531" x="0" y="12">2 Design patterns</tspan>
</text>
<path d="M740.5 50.5L739.63 50.5L739.67 60.48L739.71 70.45L739.68 80.43L739.68 90.41L739.77 100.38L739.75 110.36L739.74 120.33L740.9 130.31L740.56 140.29L740.5 150.26" fill="none" opacity="1" stroke="#000000" stroke-dasharray="6.0" stroke-linecap="round" stroke-linejoin="round" stroke-width="2"/>
<path d="M740.5 158.26L740.29 158.19L740.06 156.7L739.24 155L738.68 153.39L738.15 151.79L737.83 150.26L737.83 150L738.9 150.15L739.97 149.94L741.03 150.38L742.1 150.12L743.17 150.26L742.86 150.16L742.8 151.92L741.92 153.4L741.3 154.98L740.85 156.6L740.5 158.26Z" fill="#000000" fill-rule="nonzero" opacity="1" stroke="#000000" stroke-linecap="round" stroke-linejoin="round" stroke-width="2"/>
<path d="M800.5 470.5L800.39 470.02L810.02 472.26L819.88 475.44L829.33 476.92L839.34 480.71L848.72 481.88L858.49 484.69L868.15 487.03L877.55 488.3L887.54 492.02L897.03 493.66L906.89 496.83L916.51 498.98L925.93 500.35L935.83 503.7L945.18 504.75L954.79 506.87L964.48 509.35L974.54 513.36L983.93 514.57L993.56 516.82L1003.2 519.08L1012.75 520.96L1022.64 524.26L1032.16 526.01L1041.9 528.69L1051.66 531.43L1061.3 533.7L1070.81 535.42L1080.55 538.1" fill="none" opacity="1" stroke="#000000" stroke-dasharray="6.0" stroke-linecap="round" stroke-linejoin="round" stroke-width="2"/>
<path d="M1088.33 539.98L1088.32 539.87L1086.62 539.87L1084.94 539.98L1083.26 540.16L1081.61 540.63L1079.92 540.69L1080.11 540.74L1080.28 539.68L1080.68 538.68L1080.81 537.61L1080.87 536.53L1081.18 535.51L1081.22 535.58L1082.53 536.28L1083.98 537.21L1085.48 538.21L1086.87 539.04L1088.33 539.98Z" fill="#000000" fill-rule="nonzero" opacity="1" stroke="#000000" stroke-linecap="round" stroke-linejoin="round" stroke-width="2"/>
<path d="M750.5 470.5L750.66 470.5L751.33 480.46L751.46 490.42L750.12 500.38L749.85 510.34L751.11 520.3L750.5 530.26" fill="none" opacity="1" stroke="#000000" stroke-dasharray="6.0" stroke-linecap="round" stroke-linejoin="round" stroke-width="2"/>
<path d="M750.5 538.26L750.66 538.32L749.84 536.62L749.2 534.99L748.64 533.38L748.43 531.88L747.83 530.26L747.83 530.11L748.9 530.58L749.97 530.03L751.03 530.57L752.1 530.17L753.17 530.26L752.95 530.19L752.47 531.81L752.22 533.5L751.56 535.06L751.11 536.69L750.5 538.26Z" fill="#000000" fill-rule="nonzero" opacity="1" stroke="#000000" stroke-linecap="round" stroke-linejoin="round" stroke-width="2"/>
<path d="M710.5 470.5L710.42 470.15L701.03 473.59L691.07 474.54L681.46 477.02L671.99 480.14L662.01 480.97L652.64 484.52L642.86 486.25L632.89 487.14L623.46 490.44L613.54 491.56L603.85 493.68L594.49 497.27L584.84 499.58L574.9 500.62L565.36 503.39L555.61 505.28L546.18 508.54L536.11 508.99L526.79 512.76L516.8 513.58L507.43 517.12L497.72 519.17L487.91 520.77L478.45 523.91L468.73 525.91L458.68 526.48L449.08 528.97L439.3 530.72L429.8 533.68L420.07 535.67L410.48 538.25" fill="none" opacity="1" stroke="#000000" stroke-dasharray="6.0" stroke-linecap="round" stroke-linejoin="round" stroke-width="2"/>
<path d="M402.68 540.01L402.73 540.1L404.04 538.99L405.41 538.01L407.1 537.53L408.39 536.41L409.9 535.64L410.12 535.69L410.36 536.74L410.68 537.8L410.31 538.7L410.57 539.75L411.07 540.85L411.09 541.07L409.38 540.53L407.72 540.53L406.03 540.28L404.35 540.08L402.68 540.01Z" fill="#000000" fill-rule="nonzero" opacity="1" stroke="#000000" stroke-linecap="round" stroke-linejoin="round" stroke-width="2"/>
<path d="M720.5 400.5L688.36 381.94C682.587 378.607 682.587 375.273 688.36 371.94L716.84 355.5C722.613 352.167 728.387 348.833 734.16 345.5L762.64 329.06C768.413 325.727 768.413 322.393 762.64 319.06L730.5 300.5" fill="none" opacity="1" stroke="#002a55" stroke-dasharray="6.0" stroke-linecap="butt" stroke-linejoin="miter" stroke-width="2"/>
<text fill="#002a55" font-family="ComicSansMS" font-size="11.2" opacity="1" stroke="none" text-anchor="start" transform="matrix(1 0 0 1 1077 592.541)" x="0" y="0">
<tspan textLength="2.78906" x="0" y="12">.</tspan>
</text>
<text fill="#002a55" font-family="ComicSansMS" font-size="11.2" opacity="1" stroke="none" text-anchor="start" transform="matrix(1 0 0 1 1077 624.541)" x="0" y="0">
<tspan textLength="2.78906" x="0" y="12">.</tspan>
</text>
<text fill="#002a55" font-family="ComicSansMS" font-size="11.2" opacity="1" stroke="none" text-anchor="start" transform="matrix(1 0 0 1 1077 614.541)" x="0" y="0">
<tspan textLength="2.78906" x="0" y="12">.</tspan>
</text>
<text fill="#002a55" font-family="ComicSansMS" font-size="11.2" opacity="1" stroke="none" text-anchor="start" transform="matrix(1 0 0 1 1077 604.541)" x="0" y="0">
<tspan textLength="2.78906" x="0" y="12">.</tspan>
</text>
<text fill="#002a55" font-family="ComicSansMS" font-size="11.2" opacity="1" stroke="none" text-anchor="start" transform="matrix(1 0 0 1 1077 583.541)" x="0" y="0">
<tspan textLength="2.78906" x="0" y="12">.</tspan>
</text>
<text fill="#002a55" font-family="ComicSansMS" font-size="11.2" opacity="1" stroke="none" text-anchor="start" transform="matrix(1 0 0 1 742 623.541)" x="0" y="0">
<tspan textLength="2.78906" x="0" y="12">.</tspan>
</text>
<text fill="#002a55" font-family="ComicSansMS" font-size="11.2" opacity="1" stroke="none" text-anchor="start" transform="matrix(1 0 0 1 742 613.541)" x="0" y="0">
<tspan textLength="2.78906" x="0" y="12">.</tspan>
</text>
<text fill="#002a55" font-family="ComicSansMS" font-size="11.2" opacity="1" stroke="none" text-anchor="start" transform="matrix(1 0 0 1 742 603.541)" x="0" y="0">
<tspan textLength="2.78906" x="0" y="12">.</tspan>
</text>
<text fill="#002a55" font-family="ComicSansMS" font-size="11.2" opacity="1" stroke="none" text-anchor="start" transform="matrix(1 0 0 1 742 595.541)" x="0" y="0">
<tspan textLength="2.78906" x="0" y="12">.</tspan>
</text>
<text fill="#002a55" font-family="ComicSansMS" font-size="11.2" opacity="1" stroke="none" text-anchor="start" transform="matrix(1 0 0 1 742 586.541)" x="0" y="0">
<tspan textLength="2.78906" x="0" y="12">.</tspan>
</text>
<text fill="#002a55" font-family="ComicSansMS" font-size="11.2" opacity="1" stroke="none" text-anchor="start" transform="matrix(1 0 0 1 342 610.541)" x="0" y="0">
<tspan textLength="2.78906" x="0" y="12">.</tspan>
</text>
<text fill="#002a55" font-family="ComicSansMS" font-size="11.2" opacity="1" stroke="none" text-anchor="start" transform="matrix(1 0 0 1 342 600.541)" x="0" y="0">
<tspan textLength="2.78906" x="0" y="12">.</tspan>
</text>
<text fill="#002a55" font-family="ComicSansMS" font-size="11.2" opacity="1" stroke="none" text-anchor="start" transform="matrix(1 0 0 1 342 592.541)" x="0" y="0">
<tspan textLength="2.78906" x="0" y="12">.</tspan>
</text>
<text fill="#002a55" font-family="ComicSansMS" font-size="11.2" opacity="1" stroke="none" text-anchor="start" transform="matrix(1 0 0 1 342 621.541)" x="0" y="0">
<tspan textLength="2.78906" x="0" y="12">.</tspan>
</text>
<text fill="#002a55" font-family="ComicSansMS" font-size="11.2" opacity="1" stroke="none" text-anchor="start" transform="matrix(1 0 0 1 342 583.541)" x="0" y="0">
<tspan textLength="2.78906" x="0" y="12">.</tspan>
</text>
<text fill="#26bbe1" font-family="ComicSansMS" font-size="11.2" opacity="1" stroke="none" text-anchor="start" transform="matrix(1 0 0 1 587 2210.54)" x="0" y="0">
<tspan textLength="218.952" x="0" y="12">8 learn the famous architectural patterns</tspan>
</text>
<path d="M720.5 1180.5L648.72 1139.06C642.947 1135.73 642.947 1132.39 648.72 1129.06L706.84 1095.5C712.613 1092.17 718.387 1088.83 724.16 1085.5L782.28 1051.94C788.053 1048.61 788.053 1045.27 782.28 1041.94L710.5 1000.5" fill="none" opacity="1" stroke="#002a55" stroke-dasharray="6.0" stroke-linecap="butt" stroke-linejoin="miter" stroke-width="2"/>
<path d="M768.5 2245.5L768.17 2245.5L768.46 2255.47L769.49 2265.43L767.63 2275.4L769.43 2285.37L768.68 2295.33L768.7 2305.3L768.5 2315.26" fill="none" opacity="1" stroke="#000000" stroke-dasharray="6.0" stroke-linecap="round" stroke-linejoin="round" stroke-width="2"/>
<path d="M768.5 2323.26L768.71 2323.33L767.77 2321.6L767.58 2320.11L767.09 2318.53L766.54 2316.92L765.83 2315.26L765.83 2315.04L766.9 2315.04L767.97 2315.11L769.03 2315.42L770.1 2315.56L771.17 2315.26L771.2 2315.27L770.73 2316.9L769.94 2318.41L769.7 2320.11L769.15 2321.7L768.5 2323.26Z" fill="#000000" fill-rule="nonzero" opacity="1" stroke="#000000" stroke-linecap="round" stroke-linejoin="round" stroke-width="2"/>
<text fill="#26bbe1" font-family="ComicSansMS" font-size="11.2" opacity="1" stroke="none" text-anchor="start" transform="matrix(1 0 0 1 654 3024.54)" x="0" y="0">
<tspan textLength="134.159" x="0" y="12">9 communication patterns</tspan>
</text>
<path d="M778.5 2985.5L706.72 2944.06C700.947 2940.73 700.947 2937.39 706.72 2934.06L764.84 2900.5C770.613 2897.17 776.387 2893.83 782.16 2890.5L840.28 2856.94C846.053 2853.61 846.053 2850.27 840.28 2846.94L768.5 2805.5" fill="none" opacity="1" stroke="#002a55" stroke-dasharray="6.0" stroke-linecap="butt" stroke-linejoin="miter" stroke-width="2"/>
<path d="M768.5 3055.5L768.55 3055.5L768.2 3065.47L768.93 3075.45L769.25 3085.42L769.19 3095.4L768.76 3105.37L767.77 3115.34L769.05 3125.32L768.36 3135.29L768.5 3145.26" fill="none" opacity="1" stroke="#000000" stroke-dasharray="6.0" stroke-linecap="round" stroke-linejoin="round" stroke-width="2"/>
<path d="M768.5 3153.26L768.57 3153.29L767.84 3151.62L767.5 3150.09L767.11 3148.53L766.67 3146.97L765.83 3145.26L765.83 3145.4L766.9 3145.28L767.97 3145.22L769.03 3145.22L770.1 3145.39L771.17 3145.26L771.05 3145.22L770.45 3146.8L770.3 3148.53L769.87 3150.16L768.8 3151.59L768.5 3153.26Z" fill="#000000" fill-rule="nonzero" opacity="1" stroke="#000000" stroke-linecap="round" stroke-linejoin="round" stroke-width="2"/>
<text fill="#26bbe1" font-family="ComicSansMS" font-size="11.2" opacity="1" stroke="none" text-anchor="start" transform="matrix(1 0 0 1 657 3705.54)" x="0" y="0">
<tspan textLength="148.914" x="0" y="12">10 software design diagrams</tspan>
</text>
<path d="M778.5 3675.5L715.38 3639.06C709.607 3635.73 709.607 3632.39 715.38 3629.06L764.84 3600.5C770.613 3597.17 776.387 3593.83 782.16 3590.5L831.62 3561.94C837.393 3558.61 837.393 3555.27 831.62 3551.94L768.5 3515.5" fill="none" opacity="1" stroke="#002a55" stroke-dasharray="6.0" stroke-linecap="butt" stroke-linejoin="miter" stroke-width="2"/>
<path d="M768.5 3745.5L769.28 3745.5L767.78 3755.47L767.96 3765.43L769.26 3775.4L769.06 3785.37L768.81 3795.33L768.96 3805.3L768.5 3815.26" fill="none" opacity="1" stroke="#000000" stroke-dasharray="6.0" stroke-linecap="round" stroke-linejoin="round" stroke-width="2"/>
<path d="M768.5 3823.26L768.61 3823.3L768.1 3821.71L767.62 3820.13L766.92 3818.47L766.14 3816.79L765.83 3815.26L765.83 3815.28L766.9 3815.13L767.97 3815.44L769.03 3815.16L770.1 3815.4L771.17 3815.26L771.06 3815.23L770.89 3816.95L770.09 3818.46L769.52 3820.05L768.88 3821.61L768.5 3823.26Z" fill="#000000" fill-rule="nonzero" opacity="1" stroke="#000000" stroke-linecap="round" stroke-linejoin="round" stroke-width="2"/>
<text fill="#ff0000" font-family="ComicSansMS" font-size="11.2" opacity="1" stroke="none" text-anchor="start" transform="matrix(1 0 0 1 952 174.541)" x="0" y="0">
<tspan textLength="291.517" x="0" y="12">first you need to sharpen you&#x27;re engineering foundation
</tspan>
</text>
<text fill="#ff0000" font-family="ComicSansMS" font-size="11.2" opacity="1" stroke="none" text-anchor="start" transform="matrix(1 0 0 1 973 423.541)" x="0" y="0">
<tspan textLength="259.596" x="0" y="12">Learn about the famous design pattern so you can
</tspan>
<tspan textLength="334.064" x="0" y="27">solve most of the problems you face in a better engineering way</tspan>
</text>
<path d="M585.5 1230.5L585.5 1230.23L595.5 1230.57L605.5 1230.84L615.5 1229.8L625.5 1229.94L635.5 1230.32L645.5 1230.17L655.5 1231.43L665.5 1230.86L675.5 1230.54L685.5 1230.57L695.5 1230.35L705.5 1231L715.5 1230.29L725.5 1230.82L735.5 1229.76L745.5 1229.83L755.5 1229.54L765.5 1230.6L775.5 1229.61L785.5 1230.63L795.5 1231.46L805.5 1229.52L815.5 1231.45L825.5 1229.68L835.5 1229.57L845.5 1230.94L855.5 1230.27L865.5 1231.22L875.5 1229.55L885.5 1230.3L895.5 1231.09L905.5 1231.01L915.5 1230.74L925.5 1230.27L935.5 1230.19L945.5 1230.5L945.75 1230.5L944.91 1240.5L945.08 1250.5L945.58 1260.5L945.57 1270.5L945.05 1280.5L945.5 1290.5L945.5 1290.98L935.5 1291.23L925.5 1291.29L915.5 1290.52L905.5 1290.59L895.5 1289.67L885.5 1291.12L875.5 1291.46L865.5 1290.31L855.5 1291.41L845.5 1291.2L835.5 1290.94L825.5 1289.64L815.5 1291.35L805.5 1291.14L795.5 1290.48L785.5 1290.57L775.5 1290.08L765.5 1290.86L755.5 1289.58L745.5 1289.95L735.5 1289.65L725.5 1291.5L715.5 1289.83L705.5 1290.56L695.5 1290.89L685.5 1290.15L675.5 1290.74L665.5 1290.26L655.5 1289.84L645.5 1290.33L635.5 1290.92L625.5 1289.81L615.5 1290.77L605.5 1290.19L595.5 1291.23L585.5 1290.5L586.13 1290.5L585.21 1280.5L585.99 1270.5L585.33 1260.5L585.85 1250.5L585.38 1240.5L585.5 1230.5L585.5 1230.5Z" fill="#ffffff" fill-rule="nonzero" opacity="1" stroke="#000000" stroke-linecap="round" stroke-linejoin="round" stroke-width="2"/>
<text fill="#000000" font-family="ComicSansMS" font-size="9.6" opacity="1" stroke="none" text-anchor="middle" transform="matrix(1 0 0 1 677.255 1252.61)" x="0" y="0">
<tspan textLength="175.491" x="89.2453" y="11">3 Learn TDD (test driven development)</tspan>
</text>
<text fill="#ff0000" font-family="ComicSansMS" font-size="11.2" opacity="1" stroke="none" text-anchor="start" transform="matrix(1 0 0 1 1062 1224.54)" x="0" y="0">
<tspan textLength="441.547" x="0" y="12">try to learn about TDD by creating a mini project that you can implement TDD roles.
</tspan>
<tspan textLength="391.027" x="0" y="27">writing in TDD will make you learn how to write better clean testable code.
</tspan>
<tspan textLength="251.519" x="0" y="42">So it this step try to write more and more code.
</tspan>
<tspan textLength="248.161" x="0" y="57">Try to implement mini packages/project in TDD</tspan>
</text>
<path d="M589 1430.5L589 1429.81L599 1431.19L609 1429.92L619 1430.83L629 1430.69L639 1431.1L649 1430.9L659 1431.14L669 1430.68L679 1430.02L689 1431.01L699 1431.29L709 1430.7L719 1431.08L729 1430.88L739 1430.82L749 1430.87L759 1430.46L769 1430.03L779 1430.02L789 1429.61L799 1429.78L809 1430.47L819 1430.9L829 1431.27L839 1430.84L849 1430.35L859 1431.09L869 1431.19L879 1431.37L889 1431.26L899 1430.22L909 1430.4L919 1430.31L929 1430.25L939 1430.37L949 1430.5L948.76 1430.5L949.33 1440.5L948.27 1450.5L948.03 1460.5L949.71 1470.5L949.22 1480.5L949 1490.5L949 1490.19L939 1489.91L929 1490.36L919 1490.19L909 1490.35L899 1491.38L889 1491.18L879 1489.7L869 1490.8L859 1489.66L849 1489.94L839 1489.62L829 1490.55L819 1490.48L809 1491.19L799 1491.46L789 1489.65L779 1490.87L769 1489.68L759 1489.8L749 1490.82L739 1490.13L729 1490.44L719 1491.39L709 1489.5L699 1490.02L689 1490.4L679 1491.09L669 1491.06L659 1490.49L649 1491.02L639 1490.57L629 1490.27L619 1490.12L609 1489.88L599 1490.64L589 1490.5L588.86 1490.5L589.88 1480.5L589.92 1470.5L589.15 1460.5L589.1 1450.5L588.6 1440.5L589 1430.5L589 1430.5Z" fill="#ffffff" fill-rule="nonzero" opacity="1" stroke="#000000" stroke-linecap="round" stroke-linejoin="round" stroke-width="2"/>
<text fill="#000000" font-family="ComicSansMS" font-size="9.6" opacity="1" stroke="none" text-anchor="middle" transform="matrix(1 0 0 1 670.359 1452.61)" x="0" y="0">
<tspan textLength="197.283" x="100.141" y="11">4 Read more and more open-source projects</tspan>
</text>
<text fill="#ff0000" font-family="ComicSansMS" font-size="11.2" opacity="1" stroke="none" text-anchor="start" transform="matrix(1 0 0 1 119.753 1440.51)" x="0" y="0">
<tspan textLength="389.009" x="0" y="12">Reading others code is the best way you can learn how to write clean code.
</tspan>
<tspan textLength="404.217" x="0" y="27">If you&#x27;re an open-source developer, you can check your favorite framework&#x27;s
</tspan>
<tspan textLength="440.787" x="0" y="42">codebase. You can even start exploring the code of the packages you use frequently.
</tspan>
<tspan textLength="431.681" x="0" y="57">At this step, github should be the most opened website on your browser history ;) </tspan>
</text>
<path d="M589 1600.5L589 1600.7L599 1599.72L609 1600.01L619 1601.18L629 1600.11L639 1601.08L649 1601.06L659 1599.58L669 1600.75L679 1600.32L689 1599.51L699 1600.46L709 1601.02L719 1600.23L729 1601.02L739 1600.95L749 1600.59L759 1600.65L769 1600.43L779 1599.75L789 1599.72L799 1601.06L809 1600.06L819 1600.82L829 1601.12L839 1600.03L849 1599.72L859 1601.03L869 1601.32L879 1601.29L889 1600.26L899 1601.46L909 1600.62L919 1599.75L929 1601.47L939 1599.65L949 1600.5L948.66 1600.5L949.76 1610.5L948.24 1620.5L948 1630.5L949.65 1640.5L948.55 1650.5L949 1660.5L949 1660.95L939 1659.82L929 1659.77L919 1661.37L909 1660.67L899 1660.26L889 1659.78L879 1659.59L869 1660.13L859 1659.63L849 1660.51L839 1659.88L829 1660.68L819 1659.57L809 1660.17L799 1660.58L789 1660.73L779 1661.34L769 1661.36L759 1660.6L749 1660.34L739 1659.71L729 1660.31L719 1660.64L709 1660.38L699 1661.43L689 1659.76L679 1661.31L669 1659.69L659 1661.27L649 1660.21L639 1660.55L629 1659.8L619 1661.31L609 1659.61L599 1661.31L589 1660.5L588.41 1660.5L588.2 1650.5L589.62 1640.5L588.07 1630.5L588.3 1620.5L588.19 1610.5L589 1600.5L589 1600.5Z" fill="#ffffff" fill-rule="nonzero" opacity="1" stroke="#000000" stroke-linecap="round" stroke-linejoin="round" stroke-width="2"/>
<text fill="#000000" font-family="ComicSansMS" font-size="9.6" opacity="1" stroke="none" text-anchor="middle" transform="matrix(1 0 0 1 631.403 1622.61)" x="0" y="0">
<tspan textLength="275.194" x="139.097" y="11">5 Try to write unit tests/refactor one of your old codebases.</tspan>
</text>
<text fill="#ff0000" font-family="ComicSansMS" font-size="11.2" opacity="1" stroke="none" text-anchor="start" transform="matrix(1 0 0 1 1032 1589.54)" x="0" y="0">
<tspan textLength="275.723" x="0" y="12">Writing unit tests for your old un-covered codebase.
</tspan>
<tspan textLength="302.98" x="0" y="27">At this step you can pick one of your old projects and try 
</tspan>
<tspan textLength="359.264" x="0" y="42">to write unit tests for it. For sure you&#x27;ll find many functions/classes
</tspan>
<tspan textLength="449.526" x="0" y="57">that are not testable at all, here start detecting these areas and start refactoring it.
</tspan>
</text>
<path d="M590.5 1790.5L590.5 1790.96L600.5 1791.14L610.5 1790.31L620.5 1790.84L630.5 1790.6L640.5 1791.18L650.5 1790.72L660.5 1789.91L670.5 1790.18L680.5 1791.24L690.5 1791.24L700.5 1790.51L710.5 1791.07L720.5 1790.89L730.5 1790.96L740.5 1791.04L750.5 1790.55L760.5 1789.7L770.5 1789.57L780.5 1789.52L790.5 1790.84L800.5 1789.72L810.5 1790.84L820.5 1790.4L830.5 1789.93L840.5 1790.46L850.5 1790.3L860.5 1790.31L870.5 1791.22L880.5 1790.95L890.5 1790.24L900.5 1790.74L910.5 1791.39L920.5 1790.01L930.5 1791.46L940.5 1790.35L950.5 1790.5L950.54 1790.5L950.99 1800.5L951.18 1810.5L950.63 1820.5L949.89 1830.5L950.04 1840.5L950.5 1850.5L950.5 1849.87L940.5 1850.32L930.5 1850.41L920.5 1851.07L910.5 1850.88L900.5 1851.29L890.5 1851.36L880.5 1850.16L870.5 1851.04L860.5 1851.08L850.5 1849.57L840.5 1851.03L830.5 1850.99L820.5 1850.34L810.5 1851.02L800.5 1850.01L790.5 1850.82L780.5 1850.05L770.5 1851.15L760.5 1851.21L750.5 1850.99L740.5 1850.91L730.5 1850.1L720.5 1850.86L710.5 1851.03L700.5 1851.45L690.5 1850.9L680.5 1849.81L670.5 1850.93L660.5 1851.38L650.5 1850.22L640.5 1849.65L630.5 1850.2L620.5 1851.39L610.5 1849.6L600.5 1849.75L590.5 1850.5L589.53 1850.5L589.6 1840.5L591.22 1830.5L589.73 1820.5L589.67 1810.5L591.27 1800.5L590.5 1790.5L590.5 1790.5Z" fill="#ffffff" fill-rule="nonzero" opacity="1" stroke="#000000" stroke-linecap="round" stroke-linejoin="round" stroke-width="2"/>
<text fill="#000000" font-family="ComicSansMS" font-size="9.6" opacity="1" stroke="none" text-anchor="middle" transform="matrix(1 0 0 1 656.401 1812.61)" x="0" y="0">
<tspan textLength="227.198" x="115.099" y="11">6 Start contributing to some open-source projects</tspan>
</text>
<text fill="#ff0000" font-family="ComicSansMS" font-size="11.2" opacity="1" stroke="none" text-anchor="start" transform="matrix(1 0 0 1 112 1774.54)" x="0" y="0">
<tspan textLength="160.497" x="0" y="12">This can be done in many ways:
</tspan>
<tspan textLength="321.945" x="0" y="27">a. you can start by exploring your beloved packages on github.
</tspan>
<tspan textLength="259.481" x="0" y="42">you&#x27;ll find some issues created by the community.
</tspan>
<tspan textLength="210.35" x="0" y="57">Try to contribute and solve these issues
</tspan>
<tspan textLength="343.509" x="0" y="72">b. You can check some improvement in the code and start applying
</tspan>
<tspan textLength="102.905" x="0" y="87">some enhancements
</tspan>
<tspan textLength="315.607" x="0" y="102">c. You can write more unit tests and raise the code coverage</tspan>
</text>
<path d="M589.5 1990.5L589.5 1990.43L599.5 1990.95L609.5 1989.6L619.5 1990.18L629.5 1990.28L639.5 1990.1L649.5 1991.29L659.5 1989.59L669.5 1990.91L679.5 1990.72L689.5 1990.88L699.5 1991.35L709.5 1989.82L719.5 1989.62L729.5 1989.6L739.5 1990.95L749.5 1990.64L759.5 1990.63L769.5 1991.18L779.5 1989.68L789.5 1990.17L799.5 1989.87L809.5 1990.75L819.5 1991.1L829.5 1990.63L839.5 1991.1L849.5 1990.8L859.5 1989.85L869.5 1990.86L879.5 1990.29L889.5 1991.2L899.5 1991.48L909.5 1990.75L919.5 1990.39L929.5 1990.15L939.5 1989.72L949.5 1990.5L949.98 1990.5L949.74 2000.5L949.82 2010.5L948.75 2020.5L949.45 2030.5L950.48 2040.5L948.97 2050.5L949.62 2060.5L949.5 2070.5L949.5 2070.89L939.5 2070.88L929.5 2070.08L919.5 2069.96L909.5 2070.92L899.5 2069.73L889.5 2071.48L879.5 2069.63L869.5 2070.51L859.5 2071.47L849.5 2070.61L839.5 2070.01L829.5 2070.41L819.5 2071.17L809.5 2070.15L799.5 2071.11L789.5 2070.17L779.5 2070.39L769.5 2070.08L759.5 2071.16L749.5 2070.73L739.5 2070.98L729.5 2070.84L719.5 2070.81L709.5 2069.92L699.5 2070.38L689.5 2071.15L679.5 2070.68L669.5 2070.73L659.5 2070.85L649.5 2069.55L639.5 2070.21L629.5 2070.9L619.5 2070.89L609.5 2071.12L599.5 2070.02L589.5 2070.5L589.31 2070.5L589.86 2060.5L590.28 2050.5L590.37 2040.5L589.95 2030.5L588.81 2020.5L589.66 2010.5L590.38 2000.5L589.5 1990.5L589.5 1990.5Z" fill="#ffffff" fill-rule="nonzero" opacity="1" stroke="#000000" stroke-linecap="round" stroke-linejoin="round" stroke-width="2"/>
<text fill="#000000" font-family="ComicSansMS" font-size="9.6" opacity="1" stroke="none" text-anchor="middle" transform="matrix(1 0 0 1 637.837 2022.61)" x="0" y="0">
<tspan textLength="262.327" x="132.663" y="11">7 At this step, you&#x27;ll need to join a team that does really...</tspan>
</text>
<text fill="#ff0000" font-family="ComicSansMS" font-size="11.2" opacity="1" stroke="none" text-anchor="start" transform="matrix(1 0 0 1 1007 1994.54)" x="0" y="0">
<tspan textLength="422.51" x="0" y="12">At this step you&#x27;ll really need to join a team that has at least one good architect
</tspan>
<tspan textLength="487.763" x="0" y="27">that can help you/review your code. Always remember &quot;architecture is being learnt by doing!&quot;
</tspan>
<tspan textLength="447.699" x="0" y="42">The most hard part at this step is gaining the trust from the people around to let you
</tspan>
<tspan textLength="290.899" x="0" y="57">lead the design and the implementation of the projects.</tspan>
</text>
</g>
</g>
</svg>
