<?xml version="1.0" encoding="UTF-8" standalone="no"?>
<!DOCTYPE svg PUBLIC "-//W3C//DTD SVG 1.1//EN" "http://www.w3.org/Graphics/SVG/1.1/DTD/svg11.dtd">
<!-- Created with Vectornator (http://vectornator.io/) -->
<svg height="2607.5pt" stroke-miterlimit="10" style="fill-rule:nonzero;clip-rule:evenodd;stroke-linecap:round;stroke-linejoin:round;" version="1.1" viewBox="0 0 1261.25 2607.5" width="1261.25pt" xml:space="preserve" xmlns="http://www.w3.org/2000/svg" xmlns:xlink="http://www.w3.org/1999/xlink">
<defs/>
<clipPath id="ArtboardFrame">
<rect height="2607.5" width="1261.25" x="0" y="0"/>
</clipPath>
<g clip-path="url(#ArtboardFrame)" id="Untitled">
<g opacity="1">
<text fill="#000000" font-family="Verdana" font-size="12.8" opacity="1" stroke="none" text-anchor="middle" transform="matrix(1.5 0 0 1.5 509.989 16)" x="0" y="0">
<tspan textLength="146.681" x="74.8406" y="13">Vue Developer in 2018</tspan>
</text>
<text fill="#000000" font-family="Verdana" font-size="8" opacity="1" stroke="none" text-anchor="middle" transform="matrix(1.5 0 0 1.5 536.43 134)" x="0" y="0">
<tspan textLength="66.0938" x="34.5469" y="8">Learn the Basics</tspan>
</text>
<path d="M585.25 150.75C585.417 160.583 591.5 173 603.5 188C615.5 203 621.083 220.583 620.25 240.75" fill="none" opacity="1" stroke="#000000" stroke-linecap="butt" stroke-linejoin="miter" stroke-width="1.5"/>
<path d="M620.25 45.75C597.083 65.5833 585.417 93.0833 585.25 128.25" fill="none" opacity="1" stroke="#000000" stroke-linecap="butt" stroke-linejoin="miter" stroke-width="1.5"/>
<path d="M527.75 240.5L713.75 240.5C716.235 240.5 718.25 242.515 718.25 245L718.25 266C718.25 268.485 716.235 270.5 713.75 270.5L527.75 270.5C525.265 270.5 523.25 268.485 523.25 266L523.25 245C523.25 242.515 525.265 240.5 527.75 240.5Z" fill="#35495e" fill-rule="nonzero" opacity="1" stroke="#000000" stroke-linecap="butt" stroke-linejoin="miter" stroke-width="1.5"/>
<text fill="#ffffff" font-family="Verdana" font-size="8" opacity="1" stroke="none" text-anchor="middle" transform="matrix(1.5 0 0 1.5 603.397 251)" x="0" y="0">
<tspan textLength="22.1367" x="12.5684" y="8">HTML</tspan>
</text>
<path d="M527.75 278L713.75 278C716.235 278 718.25 280.015 718.25 282.5L718.25 303.5C718.25 305.985 716.235 308 713.75 308L527.75 308C525.265 308 523.25 305.985 523.25 303.5L523.25 282.5C523.25 280.015 525.265 278 527.75 278Z" fill="#35495e" fill-rule="nonzero" opacity="1" stroke="#000000" stroke-linecap="butt" stroke-linejoin="miter" stroke-width="1.5"/>
<text fill="#ffffff" font-family="Verdana" font-size="8" opacity="1" stroke="none" text-anchor="middle" transform="matrix(1.5 0 0 1.5 607.672 288)" x="0" y="0">
<tspan textLength="16.4375" x="9.71875" y="8">CSS</tspan>
</text>
<path d="M527.75 315.5L713.75 315.5C716.235 315.5 718.25 317.515 718.25 320L718.25 341C718.25 343.485 716.235 345.5 713.75 345.5L527.75 345.5C525.265 345.5 523.25 343.485 523.25 341L523.25 320C523.25 317.515 525.265 315.5 527.75 315.5Z" fill="#35495e" fill-rule="nonzero" opacity="1" stroke="#000000" stroke-linecap="butt" stroke-linejoin="miter" stroke-width="1.5"/>
<text fill="#ffffff" font-family="Verdana" font-size="8" opacity="1" stroke="none" text-anchor="middle" transform="matrix(1.5 0 0 1.5 592.82 326)" x="0" y="0">
<tspan textLength="36.9062" x="19.9531" y="8">JS Basics</tspan>
</text>
<text fill="#000000" font-family="Verdana" font-size="6.4" opacity="1" stroke="none" text-anchor="middle" transform="matrix(1.5 0 0 1.5 267.991 182)" x="0" y="0">
<tspan textLength="98.0125" x="50.5063" y="6">Learn the basics of HTML&lt;br&gt;</tspan>
</text>
<text fill="#000000" font-family="Verdana" font-size="6.4" opacity="1" stroke="none" text-anchor="middle" transform="matrix(1.5 0 0 1.5 320.196 201)" x="0" y="0">
<tspan textLength="67.0719" x="35.0359" y="6">Semantic HTML&lt;br&gt;</tspan>
</text>
<text fill="#000000" font-family="Verdana" font-size="6.4" opacity="1" stroke="none" text-anchor="middle" transform="matrix(1.5 0 0 1.5 71.6601 219)" x="0" y="0">
<tspan textLength="214.453" x="108.727" y="6">Dividing page into sections and structuring the DOM properly&lt;br&gt;</tspan>
</text>
<path d="M522.75 248.25C504.583 213.083 470.417 191.833 420.25 184.5" fill="none" opacity="1" stroke="#000000" stroke-dasharray="4.5" stroke-linecap="butt" stroke-linejoin="miter" stroke-width="1.5"/>
<path d="M522.75 255.75C494.583 225.583 460.417 208.083 420.25 203.25" fill="none" opacity="1" stroke="#000000" stroke-dasharray="4.5" stroke-linecap="butt" stroke-linejoin="miter" stroke-width="1.5"/>
<path d="M522.75 263.25C484.583 236.083 450.417 222.333 420.25 222" fill="none" opacity="1" stroke="#000000" stroke-dasharray="4.5" stroke-linecap="butt" stroke-linejoin="miter" stroke-width="1.5"/>
<text fill="#000000" font-family="Verdana" font-size="6.4" opacity="1" stroke="none" text-anchor="middle" transform="matrix(1.5 0 0 1.5 814.91 242)" x="0" y="0">
<tspan textLength="93.4531" x="48.2266" y="6">Learn the basics of CSS&lt;br&gt;</tspan>
</text>
<text fill="#000000" font-family="Verdana" font-size="6.4" opacity="1" stroke="none" text-anchor="middle" transform="matrix(1.5 0 0 1.5 810.267 260)" x="0" y="0">
<tspan textLength="71.6438" x="37.3219" y="6">Grid and Flexbox&lt;br&gt;</tspan>
</text>
<text fill="#000000" font-family="Verdana" font-size="6.4" opacity="1" stroke="none" text-anchor="middle" transform="matrix(1.5 0 0 1.5 826.997 279)" x="0" y="0">
<tspan textLength="155.338" x="79.1688" y="6">Responsive Web Design and Media Queries&lt;br&gt;</tspan>
</text>
<path d="M717.75 285.75C739.583 258.583 770.417 244.833 810.25 244.5" fill="none" opacity="1" stroke="#000000" stroke-dasharray="4.5" stroke-linecap="butt" stroke-linejoin="miter" stroke-width="1.5"/>
<path d="M717.75 293.25C749.583 273.083 780.417 262.667 810.25 262" fill="none" opacity="1" stroke="#000000" stroke-dasharray="4.5" stroke-linecap="butt" stroke-linejoin="miter" stroke-width="1.5"/>
<path d="M717.75 300.75C759.583 288.583 790.417 282.333 810.25 282" fill="none" opacity="1" stroke="#000000" stroke-dasharray="4.5" stroke-linecap="butt" stroke-linejoin="miter" stroke-width="1.5"/>
<text fill="#000000" font-family="Verdana" font-size="6.4" opacity="1" stroke="none" text-anchor="middle" transform="matrix(1.5 0 0 1.5 232.86 294)" x="0" y="0">
<tspan textLength="90.8531" x="46.9266" y="6">Syntax and basic operations</tspan>
</text>
<text fill="#000000" font-family="Verdana" font-size="6.4" opacity="1" stroke="none" text-anchor="middle" transform="matrix(1.5 0 0 1.5 273.602 314)" x="0" y="0">
<tspan textLength="76.5313" x="39.7656" y="6">DOM manipulation&lt;br&gt;</tspan>
</text>
<text fill="#000000" font-family="Verdana" font-size="6.4" opacity="1" stroke="none" text-anchor="middle" transform="matrix(1.5 0 0 1.5 170.676 332)" x="0" y="0">
<tspan textLength="137.766" x="70.3828" y="6">Hoisting, Event Bubbling, Prototyping&lt;br&gt;</tspan>
</text>
<text fill="#000000" font-family="Verdana" font-size="6.4" opacity="1" stroke="none" text-anchor="middle" transform="matrix(1.5 0 0 1.5 310.816 350)" x="0" y="0">
<tspan textLength="54.9125" x="28.9563" y="6">AJAX (XHR)&lt;br&gt;</tspan>
</text>
<text fill="#000000" font-family="Verdana" font-size="6.4" opacity="1" stroke="none" text-anchor="middle" transform="matrix(1.5 0 0 1.5 178.961 369)" x="0" y="0">
<tspan textLength="132.719" x="67.8594" y="6">ECMA Script 6+, learn new features&lt;br&gt;</tspan>
</text>
<path d="M522.75 323.25C484.583 298.083 440.417 289.333 390.25 297" fill="none" opacity="1" stroke="#000000" stroke-dasharray="4.5" stroke-linecap="butt" stroke-linejoin="miter" stroke-width="1.5"/>
<path d="M522.75 323.25C474.583 308.083 430.417 305.583 390.25 315.75" fill="none" opacity="1" stroke="#000000" stroke-dasharray="4.5" stroke-linecap="butt" stroke-linejoin="miter" stroke-width="1.5"/>
<path d="M522.75 330.75C474.583 320.583 430.417 321.833 390.25 334.5" fill="none" opacity="1" stroke="#000000" stroke-dasharray="4.5" stroke-linecap="butt" stroke-linejoin="miter" stroke-width="1.5"/>
<path d="M522.75 338.25C474.583 333.083 430.417 337.667 390.25 352" fill="none" opacity="1" stroke="#000000" stroke-dasharray="4.5" stroke-linecap="butt" stroke-linejoin="miter" stroke-width="1.5"/>
<path d="M522.75 338.25C464.583 343.083 420.417 354.333 390.25 372" fill="none" opacity="1" stroke="#000000" stroke-dasharray="4.5" stroke-linecap="butt" stroke-linejoin="miter" stroke-width="1.5"/>
<path d="M595.25 525.5L841.25 525.5C843.735 525.5 845.75 527.515 845.75 530L845.75 551C845.75 553.485 843.735 555.5 841.25 555.5L595.25 555.5C592.765 555.5 590.75 553.485 590.75 551L590.75 530C590.75 527.515 592.765 525.5 595.25 525.5Z" fill="#35495e" fill-rule="nonzero" opacity="1" stroke="#000000" stroke-linecap="butt" stroke-linejoin="miter" stroke-width="1.5"/>
<text fill="#ffffff" font-family="Verdana" font-size="8" opacity="1" stroke="none" text-anchor="middle" transform="matrix(1.5 0 0 1.5 634.394 536)" x="0" y="0">
<tspan textLength="110.809" x="56.9043" y="8">General Development Skills</tspan>
</text>
<path d="M620.25 345.75C617.083 385.583 633 415.5 668 435.5C703 455.5 719.583 485.583 717.75 525.75" fill="none" opacity="1" stroke="#000000" stroke-linecap="butt" stroke-linejoin="miter" stroke-width="1.5"/>
<text fill="#000000" font-family="Verdana" font-size="6.4" opacity="1" stroke="none" text-anchor="middle" transform="matrix(1.5 0 0 1.5 223.41 489)" x="0" y="0">
<tspan textLength="123.453" x="63.2266" y="6">GIT - Version Control (GitHub, GitLab)</tspan>
</text>
<text fill="#000000" font-family="Verdana" font-size="6.4" opacity="1" stroke="none" text-anchor="middle" transform="matrix(1.5 0 0 1.5 339.43 512)" x="0" y="0">
<tspan textLength="54.7594" x="28.8797" y="6">HTTP(S) protocol</tspan>
</text>
<text fill="#000000" font-family="Verdana" font-size="6.4" opacity="1" stroke="none" text-anchor="middle" transform="matrix(1.5 0 0 1.5 277.037 534)" x="0" y="0">
<tspan textLength="91.95" x="47.475" y="6">Learn to search for solutions</tspan>
</text>
<text fill="#000000" font-family="Verdana" font-size="6.4" opacity="1" stroke="none" text-anchor="middle" transform="matrix(1.5 0 0 1.5 260.608 579)" x="0" y="0">
<tspan textLength="101.856" x="52.4281" y="6">Data Structures and Algorithms</tspan>
</text>
<text fill="#000000" font-family="Verdana" font-size="6.4" opacity="1" stroke="none" text-anchor="middle" transform="matrix(1.5 0 0 1.5 345.306 602)" x="0" y="0">
<tspan textLength="50.925" x="26.9625" y="6">Design patterns</tspan>
</text>
<path d="M590.25 533.25C547.083 498.083 495.417 484.333 435.25 492" fill="none" opacity="1" stroke="#000000" stroke-dasharray="4.5" stroke-linecap="butt" stroke-linejoin="miter" stroke-width="1.5"/>
<path d="M590.25 533.25C547.083 513.083 495.417 506.833 435.25 514.5" fill="none" opacity="1" stroke="#000000" stroke-dasharray="4.5" stroke-linecap="butt" stroke-linejoin="miter" stroke-width="1.5"/>
<path d="M590.25 540.75C537.083 520.583 485.417 519.333 435.25 537" fill="none" opacity="1" stroke="#000000" stroke-dasharray="4.5" stroke-linecap="butt" stroke-linejoin="miter" stroke-width="1.5"/>
<path d="M590.25 548.25C527.083 543.083 475.417 554.333 435.25 582" fill="none" opacity="1" stroke="#000000" stroke-dasharray="4.5" stroke-linecap="butt" stroke-linejoin="miter" stroke-width="1.5"/>
<path d="M590.25 548.25C527.083 548.083 475.417 566.833 435.25 604.5" fill="none" opacity="1" stroke="#000000" stroke-dasharray="4.5" stroke-linecap="butt" stroke-linejoin="miter" stroke-width="1.5"/>
<path d="M636.13 705.5L729.87 705.5C732.979 705.5 735.5 708.021 735.5 711.13L735.5 737.37C735.5 740.479 732.979 743 729.87 743L636.13 743C633.021 743 630.5 740.479 630.5 737.37L630.5 711.13C630.5 708.021 633.021 705.5 636.13 705.5Z" fill="#35495e" fill-rule="nonzero" opacity="1" stroke="#000000" stroke-linecap="butt" stroke-linejoin="miter" stroke-width="1.5"/>
<text fill="#ffffff" font-family="Verdana" font-size="11.2" opacity="1" stroke="none" text-anchor="middle" transform="matrix(1.5 0 0 1.5 667.184 717.5)" x="0" y="0">
<tspan textLength="21.0875" x="12.0437" y="11">Vue</tspan>
</text>
<path d="M717.75 555.75C718.583 585.583 713 608 701 623C689 638 682.917 665.583 682.75 705.75" fill="none" opacity="1" stroke="#000000" stroke-linecap="butt" stroke-linejoin="miter" stroke-width="1.5"/>
<path d="M417.5 1095.75L573.5 1095.75C575.985 1095.75 578 1097.76 578 1100.25L578 1121.25C578 1123.74 575.985 1125.75 573.5 1125.75L417.5 1125.75C415.015 1125.75 413 1123.74 413 1121.25L413 1100.25C413 1097.76 415.015 1095.75 417.5 1095.75Z" fill="#35495e" fill-rule="nonzero" opacity="1" stroke="#000000" stroke-linecap="butt" stroke-linejoin="miter" stroke-width="1.5"/>
<text fill="#ffffff" font-family="Verdana" font-size="8" opacity="1" stroke="none" text-anchor="middle" transform="matrix(1.5 0 0 1.5 438.938 1106)" x="0" y="0">
<tspan textLength="76.082" x="39.541" y="8">State Management</tspan>
</text>
<path d="M33.88 1178L237.12 1178C238.987 1178 240.5 1179.51 240.5 1181.38L240.5 1197.12C240.5 1198.99 238.987 1200.5 237.12 1200.5L33.88 1200.5C32.0133 1200.5 30.5 1198.99 30.5 1197.12L30.5 1181.38C30.5 1179.51 32.0133 1178 33.88 1178Z" fill="#42b883" fill-rule="nonzero" opacity="1" stroke="#000000" stroke-linecap="butt" stroke-linejoin="miter" stroke-width="1.5"/>
<text fill="#ffffff" font-family="Verdana" font-size="6.4" opacity="1" stroke="none" text-anchor="middle" transform="matrix(1.5 0 0 1.5 123.122 1187)" x="0" y="0">
<tspan textLength="15.8375" x="9.41875" y="6">Vuex</tspan>
</text>
<path d="M27.5 1347L183.5 1347C185.985 1347 188 1349.01 188 1351.5L188 1372.5C188 1374.99 185.985 1377 183.5 1377L27.5 1377C25.0147 1377 23 1374.99 23 1372.5L23 1351.5C23 1349.01 25.0147 1347 27.5 1347Z" fill="#42b883" fill-rule="nonzero" opacity="1" stroke="#000000" stroke-linecap="butt" stroke-linejoin="miter" stroke-width="1.5"/>
<text fill="#ffffff" font-family="Verdana" font-size="8" opacity="1" stroke="none" text-anchor="middle" transform="matrix(1.5 0 0 1.5 38.8701 1357)" x="0" y="0">
<tspan textLength="88.8398" x="45.9199" y="8">Data persistence&lt;br&gt;</tspan>
</text>
<path d="M3.88 1452L102.12 1452C103.987 1452 105.5 1453.51 105.5 1455.38L105.5 1471.12C105.5 1472.99 103.987 1474.5 102.12 1474.5L3.88 1474.5C2.01328 1474.5 0.5 1472.99 0.5 1471.12L0.5 1455.38C0.5 1453.51 2.01328 1452 3.88 1452Z" fill="#42b883" fill-rule="nonzero" opacity="1" stroke="#000000" stroke-linecap="butt" stroke-linejoin="miter" stroke-width="1.5"/>
<text fill="#ffffff" font-family="Verdana" font-size="6.4" opacity="1" stroke="none" text-anchor="middle" transform="matrix(1.5 0 0 1.5 23.7508 1460)" x="0" y="0">
<tspan textLength="39.6656" x="21.3328" y="6">vuex-persist</tspan>
</text>
<path d="M125.45 1452.5L220.55 1452.5C223.284 1452.5 225.5 1454.72 225.5 1457.45L225.5 1480.55C225.5 1483.28 223.284 1485.5 220.55 1485.5L125.45 1485.5C122.716 1485.5 120.5 1483.28 120.5 1480.55L120.5 1457.45C120.5 1454.72 122.716 1452.5 125.45 1452.5Z" fill="#42b883" fill-rule="nonzero" opacity="1" stroke="#000000" stroke-linecap="butt" stroke-linejoin="miter" stroke-width="1.5"/>
<text fill="#ffffff" font-family="Verdana" font-size="6.4" opacity="1" stroke="none" text-anchor="middle" transform="matrix(1.5 0 0 1.5 124.875 1466)" x="0" y="0">
<tspan textLength="63.5" x="33.25" y="6">vuex-persistedstate</tspan>
</text>
<path d="M312.5 761.75L468.5 761.75C470.985 761.75 473 763.765 473 766.25L473 787.25C473 789.735 470.985 791.75 468.5 791.75L312.5 791.75C310.015 791.75 308 789.735 308 787.25L308 766.25C308 763.765 310.015 761.75 312.5 761.75Z" fill="#42b883" fill-rule="nonzero" opacity="1" stroke="#000000" stroke-linecap="butt" stroke-linejoin="miter" stroke-width="1.5"/>
<text fill="#ffffff" font-family="Verdana" font-size="8" opacity="1" stroke="none" text-anchor="middle" transform="matrix(1.5 0 0 1.5 334.663 772)" x="0" y="0">
<tspan textLength="74.4492" x="38.7246" y="8">Package Managers</tspan>
</text>
<path d="M183.88 668L244.62 668C246.487 668 248 669.513 248 671.38L248 687.12C248 688.987 246.487 690.5 244.62 690.5L183.88 690.5C182.013 690.5 180.5 688.987 180.5 687.12L180.5 671.38C180.5 669.513 182.013 668 183.88 668Z" fill="#42b883" fill-rule="nonzero" opacity="1" stroke="#000000" stroke-linecap="butt" stroke-linejoin="miter" stroke-width="1.5"/>
<text fill="#ffffff" font-family="Verdana" font-size="6.4" opacity="1" stroke="none" text-anchor="middle" transform="matrix(1.5 0 0 1.5 203.803 677)" x="0" y="0">
<tspan textLength="14.2625" x="8.63125" y="6">npm</tspan>
</text>
<path d="M266.38 668L327.12 668C328.987 668 330.5 669.513 330.5 671.38L330.5 687.12C330.5 688.987 328.987 690.5 327.12 690.5L266.38 690.5C264.513 690.5 263 688.987 263 687.12L263 671.38C263 669.513 264.513 668 266.38 668Z" fill="#42b883" fill-rule="nonzero" opacity="1" stroke="#000000" stroke-linecap="butt" stroke-linejoin="miter" stroke-width="1.5"/>
<text fill="#ffffff" font-family="Verdana" font-size="6.4" opacity="1" stroke="none" text-anchor="middle" transform="matrix(1.5 0 0 1.5 273.011 677)" x="0" y="0">
<tspan textLength="31.3188" x="17.1594" y="6">Yarn&lt;br&gt;</tspan>
</text>
<path d="M410 851L521 851C523.485 851 525.5 853.015 525.5 855.5L525.5 876.5C525.5 878.985 523.485 881 521 881L410 881C407.515 881 405.5 878.985 405.5 876.5L405.5 855.5C405.5 853.015 407.515 851 410 851Z" fill="#35495e" fill-rule="nonzero" opacity="1" stroke="#000000" stroke-linecap="butt" stroke-linejoin="miter" stroke-width="1.5"/>
<text fill="#ffffff" font-family="Verdana" font-size="8" opacity="1" stroke="none" text-anchor="middle" transform="matrix(1.5 0 0 1.5 417.722 861)" x="0" y="0">
<tspan textLength="64.3711" x="33.6855" y="8">Build Tools&lt;br&gt;</tspan>
</text>
<path d="M781.25 863L877.25 863C879.735 863 881.75 865.015 881.75 867.5L881.75 888.5C881.75 890.985 879.735 893 877.25 893L781.25 893C778.765 893 776.75 890.985 776.75 888.5L776.75 867.5C776.75 865.015 778.765 863 781.25 863Z" fill="#35495e" fill-rule="nonzero" opacity="1" stroke="#000000" stroke-linecap="butt" stroke-linejoin="miter" stroke-width="1.5"/>
<text fill="#ffffff" font-family="Verdana" font-size="8" opacity="1" stroke="none" text-anchor="middle" transform="matrix(1.5 0 0 1.5 793.065 873)" x="0" y="0">
<tspan textLength="49.2461" x="26.123" y="8">Styling&lt;br&gt;</tspan>
</text>
<path d="M927.5 750.5L1083.5 750.5C1085.99 750.5 1088 752.515 1088 755L1088 776C1088 778.485 1085.99 780.5 1083.5 780.5L927.5 780.5C925.015 780.5 923 778.485 923 776L923 755C923 752.515 925.015 750.5 927.5 750.5Z" fill="#42b883" fill-rule="nonzero" opacity="1" stroke="#000000" stroke-linecap="butt" stroke-linejoin="miter" stroke-width="1.5"/>
<text fill="#ffffff" font-family="Verdana" font-size="8" opacity="1" stroke="none" text-anchor="middle" transform="matrix(1.5 0 0 1.5 935.596 761)" x="0" y="0">
<tspan textLength="92.5391" x="47.7695" y="8">CSS Preprocessor&lt;br&gt;</tspan>
</text>
<path d="M71.38 945.5L162.12 945.5C163.987 945.5 165.5 947.013 165.5 948.88L165.5 964.62C165.5 966.487 163.987 968 162.12 968L71.38 968C69.5133 968 68 966.487 68 964.62L68 948.88C68 947.013 69.5133 945.5 71.38 945.5Z" fill="#42b883" fill-rule="nonzero" opacity="1" stroke="#000000" stroke-linecap="butt" stroke-linejoin="miter" stroke-width="1.5"/>
<text fill="#ffffff" font-family="Verdana" font-size="6.4" opacity="1" stroke="none" text-anchor="middle" transform="matrix(1.5 0 0 1.5 88.3656 954)" x="0" y="0">
<tspan textLength="37.5125" x="20.2563" y="6">npm scripts</tspan>
</text>
<path d="M783.88 645.5L874.62 645.5C876.487 645.5 878 647.013 878 648.88L878 664.62C878 666.487 876.487 668 874.62 668L783.88 668C782.013 668 780.5 666.487 780.5 664.62L780.5 648.88C780.5 647.013 782.013 645.5 783.88 645.5Z" fill="#42b883" fill-rule="nonzero" opacity="1" stroke="#000000" stroke-linecap="butt" stroke-linejoin="miter" stroke-width="1.5"/>
<text fill="#ffffff" font-family="Verdana" font-size="6.4" opacity="1" stroke="none" text-anchor="middle" transform="matrix(1.5 0 0 1.5 790.116 654)" x="0" y="0">
<tspan textLength="52.5125" x="27.7563" y="6">Sass/SCSS&lt;br&gt;</tspan>
</text>
<path d="M896.38 645.5L987.12 645.5C988.987 645.5 990.5 647.013 990.5 648.88L990.5 664.62C990.5 666.487 988.987 668 987.12 668L896.38 668C894.513 668 893 666.487 893 664.62L893 648.88C893 647.013 894.513 645.5 896.38 645.5Z" fill="#42b883" fill-rule="nonzero" opacity="1" stroke="#000000" stroke-linecap="butt" stroke-linejoin="miter" stroke-width="1.5"/>
<text fill="#ffffff" font-family="Verdana" font-size="6.4" opacity="1" stroke="none" text-anchor="middle" transform="matrix(1.5 0 0 1.5 908.659 654)" x="0" y="0">
<tspan textLength="43.7875" x="23.3938" y="6">PostCSS&lt;br&gt;</tspan>
</text>
<path d="M271.25 944L382.25 944C384.735 944 386.75 946.015 386.75 948.5L386.75 969.5C386.75 971.985 384.735 974 382.25 974L271.25 974C268.765 974 266.75 971.985 266.75 969.5L266.75 948.5C266.75 946.015 268.765 944 271.25 944Z" fill="#42b883" fill-rule="nonzero" opacity="1" stroke="#000000" stroke-linecap="butt" stroke-linejoin="miter" stroke-width="1.5"/>
<text fill="#ffffff" font-family="Verdana" font-size="8" opacity="1" stroke="none" text-anchor="middle" transform="matrix(1.5 0 0 1.5 269.732 954)" x="0" y="0">
<tspan textLength="75.0234" x="39.0117" y="8">Task Runners&lt;br&gt;</tspan>
</text>
<path d="M113.38 780.5L204.12 780.5C205.987 780.5 207.5 782.013 207.5 783.88L207.5 799.62C207.5 801.487 205.987 803 204.12 803L113.38 803C111.513 803 110 801.487 110 799.62L110 783.88C110 782.013 111.513 780.5 113.38 780.5Z" fill="#42b883" fill-rule="nonzero" opacity="1" stroke="#000000" stroke-linecap="butt" stroke-linejoin="miter" stroke-width="1.5"/>
<text fill="#ffffff" font-family="Verdana" font-size="6.4" opacity="1" stroke="none" text-anchor="middle" transform="matrix(1.5 0 0 1.5 136.423 789)" x="0" y="0">
<tspan textLength="28.7688" x="15.8844" y="6">Webpack</tspan>
</text>
<path d="M1032.5 863L1188.5 863C1190.99 863 1193 865.015 1193 867.5L1193 888.5C1193 890.985 1190.99 893 1188.5 893L1032.5 893C1030.01 893 1028 890.985 1028 888.5L1028 867.5C1028 865.015 1030.01 863 1032.5 863Z" fill="#42b883" fill-rule="nonzero" opacity="1" stroke="#000000" stroke-linecap="butt" stroke-linejoin="miter" stroke-width="1.5"/>
<text fill="#ffffff" font-family="Verdana" font-size="8" opacity="1" stroke="none" text-anchor="middle" transform="matrix(1.5 0 0 1.5 1043.24 873)" x="0" y="0">
<tspan textLength="89.6836" x="46.3418" y="8">CSS Frameworks&lt;br&gt;</tspan>
</text>
<path d="M957.88 962.75L1086.12 962.75C1087.99 962.75 1089.5 964.263 1089.5 966.13L1089.5 981.87C1089.5 983.737 1087.99 985.25 1086.12 985.25L957.88 985.25C956.013 985.25 954.5 983.737 954.5 981.87L954.5 966.13C954.5 964.263 956.013 962.75 957.88 962.75Z" fill="#42b883" fill-rule="nonzero" opacity="1" stroke="#000000" stroke-linecap="butt" stroke-linejoin="miter" stroke-width="1.5"/>
<text fill="#ffffff" font-family="Verdana" font-size="6.4" opacity="1" stroke="none" text-anchor="middle" transform="matrix(1.5 0 0 1.5 990.419 971)" x="0" y="0">
<tspan textLength="42.775" x="22.8875" y="6">Tailwind&lt;br&gt;</tspan>
</text>
<path d="M804.5 1958L900.5 1958C902.985 1958 905 1960.01 905 1962.5L905 1983.5C905 1985.99 902.985 1988 900.5 1988L804.5 1988C802.015 1988 800 1985.99 800 1983.5L800 1962.5C800 1960.01 802.015 1958 804.5 1958Z" fill="#35495e" fill-rule="nonzero" opacity="1" stroke="#000000" stroke-linecap="butt" stroke-linejoin="miter" stroke-width="1.5"/>
<text fill="#ffffff" font-family="Verdana" font-size="8" opacity="1" stroke="none" text-anchor="middle" transform="matrix(1.5 0 0 1.5 814.582 1968)" x="0" y="0">
<tspan textLength="49.8906" x="26.4453" y="8">Testing&lt;br&gt;</tspan>
</text>
<path d="M361.25 1672L457.25 1672C459.735 1672 461.75 1674.01 461.75 1676.5L461.75 1697.5C461.75 1699.99 459.735 1702 457.25 1702L361.25 1702C358.765 1702 356.75 1699.99 356.75 1697.5L356.75 1676.5C356.75 1674.01 358.765 1672 361.25 1672Z" fill="#35495e" fill-rule="nonzero" opacity="1" stroke="#000000" stroke-linecap="butt" stroke-linejoin="miter" stroke-width="1.5"/>
<text fill="#ffffff" font-family="Verdana" font-size="8" opacity="1" stroke="none" text-anchor="middle" transform="matrix(1.5 0 0 1.5 361.183 1682)" x="0" y="0">
<tspan textLength="65.0898" x="34.0449" y="8">API Clients&lt;br&gt;</tspan>
</text>
<path d="M316.25 2425.25L502.25 2425.25C504.735 2425.25 506.75 2427.26 506.75 2429.75L506.75 2450.75C506.75 2453.24 504.735 2455.25 502.25 2455.25L316.25 2455.25C313.765 2455.25 311.75 2453.24 311.75 2450.75L311.75 2429.75C311.75 2427.26 313.765 2425.25 316.25 2425.25Z" fill="#35495e" fill-rule="nonzero" opacity="1" stroke="#000000" stroke-linecap="butt" stroke-linejoin="miter" stroke-width="1.5"/>
<text fill="#ffffff" font-family="Verdana" font-size="8" opacity="1" stroke="none" text-anchor="middle" transform="matrix(1.5 0 0 1.5 325.781 2435)" x="0" y="0">
<tspan textLength="111.625" x="57.3125" y="8">Server Side Rendering&lt;br&gt;</tspan>
</text>
<path d="M938.75 1388L1124.75 1388C1127.24 1388 1129.25 1390.01 1129.25 1392.5L1129.25 1413.5C1129.25 1415.99 1127.24 1418 1124.75 1418L938.75 1418C936.265 1418 934.25 1415.99 934.25 1413.5L934.25 1392.5C934.25 1390.01 936.265 1388 938.75 1388Z" fill="#35495e" fill-rule="nonzero" opacity="1" stroke="#000000" stroke-linecap="butt" stroke-linejoin="miter" stroke-width="1.5"/>
<text fill="#ffffff" font-family="Verdana" font-size="8" opacity="1" stroke="none" text-anchor="middle" transform="matrix(1.5 0 0 1.5 971.857 1398)" x="0" y="0">
<tspan textLength="79.5234" x="41.2617" y="8">Type Checkers&lt;br&gt;</tspan>
</text>
<path d="M740 1050.5L851 1050.5C853.485 1050.5 855.5 1052.51 855.5 1055L855.5 1076C855.5 1078.49 853.485 1080.5 851 1080.5L740 1080.5C737.515 1080.5 735.5 1078.49 735.5 1076L735.5 1055C735.5 1052.51 737.515 1050.5 740 1050.5Z" fill="#42b883" fill-rule="nonzero" opacity="1" stroke="#000000" stroke-linecap="butt" stroke-linejoin="miter" stroke-width="1.5"/>
<text fill="#ffffff" font-family="Verdana" font-size="8" opacity="1" stroke="none" text-anchor="middle" transform="matrix(1.5 0 0 1.5 750.062 1061)" x="0" y="0">
<tspan textLength="59.918" x="31.459" y="8">CSS in JS&lt;br&gt;</tspan>
</text>
<path d="M670.25 850.75C670.75 863.917 664.25 893 650.75 938C637.25 983 648 1070.5 683 1200.5C718 1330.5 718 1475.5 683 1635.5C648 1795.5 645.5 1958 675.5 2123C705.5 2288 715 2400.5 704 2460.5" fill="none" opacity="1" stroke="#000000" stroke-linecap="butt" stroke-linejoin="miter" stroke-width="1.5"/>
<path d="M705.5 2460.5C685.5 2540.5 701.667 2582.25 754 2585.75" fill="none" opacity="1" stroke="#000000" stroke-dasharray="4.5" stroke-linecap="butt" stroke-linejoin="miter" stroke-width="1.5"/>
<path d="M776 2564.75L954.5 2564.75C966.098 2564.75 975.5 2574.15 975.5 2585.75L975.5 2585.75C975.5 2597.35 966.098 2606.75 954.5 2606.75L776 2606.75C764.402 2606.75 755 2597.35 755 2585.75L755 2585.75C755 2574.15 764.402 2564.75 776 2564.75Z" fill="none" opacity="1" stroke="#000000" stroke-linecap="butt" stroke-linejoin="miter" stroke-width="1.5"/>
<text fill="#000000" font-family="Verdana" font-size="11.2" opacity="1" stroke="none" text-anchor="middle" transform="matrix(1.5 0 0 1.5 753.503 2579.5)" x="0" y="0">
<tspan textLength="148.662" x="75.8312" y="11">[Not supported by viewer]</tspan>
</text>
<path d="M888.88 1148L1032.12 1148C1033.99 1148 1035.5 1149.51 1035.5 1151.38L1035.5 1167.12C1035.5 1168.99 1033.99 1170.5 1032.12 1170.5L888.88 1170.5C887.013 1170.5 885.5 1168.99 885.5 1167.12L885.5 1151.38C885.5 1149.51 887.013 1148 888.88 1148Z" fill="#42b883" fill-rule="nonzero" opacity="1" stroke="#000000" stroke-linecap="butt" stroke-linejoin="miter" stroke-width="1.5"/>
<text fill="#ffffff" font-family="Verdana" font-size="6.4" opacity="1" stroke="none" text-anchor="middle" transform="matrix(1.5 0 0 1.5 891.51 1157)" x="0" y="0">
<tspan textLength="92.6531" x="47.8266" y="6">Single File Components&lt;br&gt;</tspan>
</text>
<path d="M15.88 1776.25L106.62 1776.25C108.487 1776.25 110 1777.76 110 1779.63L110 1795.37C110 1797.24 108.487 1798.75 106.62 1798.75L15.88 1798.75C14.0133 1798.75 12.5 1797.24 12.5 1795.37L12.5 1779.63C12.5 1777.76 14.0133 1776.25 15.88 1776.25Z" fill="#42b883" fill-rule="nonzero" opacity="1" stroke="#000000" stroke-linecap="butt" stroke-linejoin="miter" stroke-width="1.5"/>
<text fill="#ffffff" font-family="Verdana" font-size="6.4" opacity="1" stroke="none" text-anchor="middle" transform="matrix(1.5 0 0 1.5 29.1898 1785)" x="0" y="0">
<tspan textLength="43.7469" x="23.3734" y="6">fetch (native)</tspan>
</text>
<path d="M15.88 1836.25L106.62 1836.25C108.487 1836.25 110 1837.76 110 1839.63L110 1855.37C110 1857.24 108.487 1858.75 106.62 1858.75L15.88 1858.75C14.0133 1858.75 12.5 1857.24 12.5 1855.37L12.5 1839.63C12.5 1837.76 14.0133 1836.25 15.88 1836.25Z" fill="#42b883" fill-rule="nonzero" opacity="1" stroke="#000000" stroke-linecap="butt" stroke-linejoin="miter" stroke-width="1.5"/>
<text fill="#ffffff" font-family="Verdana" font-size="6.4" opacity="1" stroke="none" text-anchor="middle" transform="matrix(1.5 0 0 1.5 49.0453 1845)" x="0" y="0">
<tspan textLength="16.6063" x="9.80313" y="6">axios</tspan>
</text>
<path d="M858.88 1508L969.12 1508C970.987 1508 972.5 1509.51 972.5 1511.38L972.5 1527.12C972.5 1528.99 970.987 1530.5 969.12 1530.5L858.88 1530.5C857.013 1530.5 855.5 1528.99 855.5 1527.12L855.5 1511.38C855.5 1509.51 857.013 1508 858.88 1508Z" fill="#42b883" fill-rule="nonzero" opacity="1" stroke="#000000" stroke-linecap="butt" stroke-linejoin="miter" stroke-width="1.5"/>
<text fill="#ffffff" font-family="Verdana" font-size="6.4" opacity="1" stroke="none" text-anchor="middle" transform="matrix(1.5 0 0 1.5 888.285 1516)" x="0" y="0">
<tspan textLength="34.9531" x="18.9766" y="6">Prop Types</tspan>
</text>
<path d="M990.13 1508L1080.87 1508C1082.74 1508 1084.25 1509.51 1084.25 1511.38L1084.25 1527.12C1084.25 1528.99 1082.74 1530.5 1080.87 1530.5L990.13 1530.5C988.263 1530.5 986.75 1528.99 986.75 1527.12L986.75 1511.38C986.75 1509.51 988.263 1508 990.13 1508Z" fill="#42b883" fill-rule="nonzero" opacity="1" stroke="#000000" stroke-linecap="butt" stroke-linejoin="miter" stroke-width="1.5"/>
<text fill="#ffffff" font-family="Verdana" font-size="6.4" opacity="1" stroke="none" text-anchor="middle" transform="matrix(1.5 0 0 1.5 1010.79 1516)" x="0" y="0">
<tspan textLength="33.6125" x="18.3063" y="6">TypeScript</tspan>
</text>
<path d="M986.38 1814L1077.12 1814C1078.99 1814 1080.5 1815.51 1080.5 1817.38L1080.5 1833.12C1080.5 1834.99 1078.99 1836.5 1077.12 1836.5L986.38 1836.5C984.513 1836.5 983 1834.99 983 1833.12L983 1817.38C983 1815.51 984.513 1814 986.38 1814Z" fill="#42b883" fill-rule="nonzero" opacity="1" stroke="#000000" stroke-linecap="butt" stroke-linejoin="miter" stroke-width="1.5"/>
<text fill="#ffffff" font-family="Verdana" font-size="6.4" opacity="1" stroke="none" text-anchor="middle" transform="matrix(1.5 0 0 1.5 1022.57 1823)" x="0" y="0">
<tspan textLength="12.5781" x="7.78906" y="6">Jest</tspan>
</text>
<path d="M986.38 1881.5L1077.12 1881.5C1078.99 1881.5 1080.5 1883.01 1080.5 1884.88L1080.5 1900.62C1080.5 1902.49 1078.99 1904 1077.12 1904L986.38 1904C984.513 1904 983 1902.49 983 1900.62L983 1884.88C983 1883.01 984.513 1881.5 986.38 1881.5Z" fill="#42b883" fill-rule="nonzero" opacity="1" stroke="#000000" stroke-linecap="butt" stroke-linejoin="miter" stroke-width="1.5"/>
<text fill="#ffffff" font-family="Verdana" font-size="6.4" opacity="1" stroke="none" text-anchor="middle" transform="matrix(1.5 0 0 1.5 1015.83 1890)" x="0" y="0">
<tspan textLength="20.8906" x="11.9453" y="6">Karma</tspan>
</text>
<path d="M986.38 1847L1077.12 1847C1078.99 1847 1080.5 1848.51 1080.5 1850.38L1080.5 1866.12C1080.5 1867.99 1078.99 1869.5 1077.12 1869.5L986.38 1869.5C984.513 1869.5 983 1867.99 983 1866.12L983 1850.38C983 1848.51 984.513 1847 986.38 1847Z" fill="#42b883" fill-rule="nonzero" opacity="1" stroke="#000000" stroke-linecap="butt" stroke-linejoin="miter" stroke-width="1.5"/>
<text fill="#ffffff" font-family="Verdana" font-size="6.4" opacity="1" stroke="none" text-anchor="middle" transform="matrix(1.5 0 0 1.5 999.354 1856)" x="0" y="0">
<tspan textLength="43.5281" x="23.2641" y="6">Vue Test Utils</tspan>
</text>
<path d="M758.75 2145.5L877.25 2145.5C879.735 2145.5 881.75 2147.51 881.75 2150L881.75 2171C881.75 2173.49 879.735 2175.5 877.25 2175.5L758.75 2175.5C756.265 2175.5 754.25 2173.49 754.25 2171L754.25 2150C754.25 2147.51 756.265 2145.5 758.75 2145.5Z" fill="#42b883" fill-rule="nonzero" opacity="1" stroke="#000000" stroke-linecap="butt" stroke-linejoin="miter" stroke-width="1.5"/>
<text fill="#ffffff" font-family="Verdana" font-size="8" opacity="1" stroke="none" text-anchor="middle" transform="matrix(1.5 0 0 1.5 767.07 2156)" x="0" y="0">
<tspan textLength="67.9062" x="35.4531" y="8">E2E Testing&lt;br&gt;</tspan>
</text>
<path d="M1076.38 2156L1189.62 2156C1191.49 2156 1193 2157.51 1193 2159.38L1193 2175.12C1193 2176.99 1191.49 2178.5 1189.62 2178.5L1076.38 2178.5C1074.51 2178.5 1073 2176.99 1073 2175.12L1073 2159.38C1073 2157.51 1074.51 2156 1076.38 2156Z" fill="#42b883" fill-rule="nonzero" opacity="1" stroke="#000000" stroke-linecap="butt" stroke-linejoin="miter" stroke-width="1.5"/>
<text fill="#ffffff" font-family="Verdana" font-size="6.4" opacity="1" stroke="none" text-anchor="middle" transform="matrix(1.5 0 0 1.5 1113.91 2165)" x="0" y="0">
<tspan textLength="25.4563" x="14.2281" y="6">Cypress</tspan>
</text>
<path d="M1076.38 2216L1189.62 2216C1191.49 2216 1193 2217.51 1193 2219.38L1193 2235.12C1193 2236.99 1191.49 2238.5 1189.62 2238.5L1076.38 2238.5C1074.51 2238.5 1073 2236.99 1073 2235.12L1073 2219.38C1073 2217.51 1074.51 2216 1076.38 2216Z" fill="#42b883" fill-rule="nonzero" opacity="1" stroke="#000000" stroke-linecap="butt" stroke-linejoin="miter" stroke-width="1.5"/>
<text fill="#ffffff" font-family="Verdana" font-size="6.4" opacity="1" stroke="none" text-anchor="middle" transform="matrix(1.5 0 0 1.5 1102.79 2225)" x="0" y="0">
<tspan textLength="39.6188" x="21.3094" y="6">Cucumber.js</tspan>
</text>
<path d="M1076.38 2186L1189.62 2186C1191.49 2186 1193 2187.51 1193 2189.38L1193 2205.12C1193 2206.99 1191.49 2208.5 1189.62 2208.5L1076.38 2208.5C1074.51 2208.5 1073 2206.99 1073 2205.12L1073 2189.38C1073 2187.51 1074.51 2186 1076.38 2186Z" fill="#42b883" fill-rule="nonzero" opacity="1" stroke="#000000" stroke-linecap="butt" stroke-linejoin="miter" stroke-width="1.5"/>
<text fill="#ffffff" font-family="Verdana" font-size="6.4" opacity="1" stroke="none" text-anchor="middle" transform="matrix(1.5 0 0 1.5 1108.57 2195)" x="0" y="0">
<tspan textLength="32.575" x="17.7875" y="6">Puppeteer</tspan>
</text>
<path d="M56.38 2428.75L147.12 2428.75C148.987 2428.75 150.5 2430.26 150.5 2432.13L150.5 2447.87C150.5 2449.74 148.987 2451.25 147.12 2451.25L56.38 2451.25C54.5133 2451.25 53 2449.74 53 2447.87L53 2432.13C53 2430.26 54.5133 2428.75 56.38 2428.75Z" fill="#42b883" fill-rule="nonzero" opacity="1" stroke="#000000" stroke-linecap="butt" stroke-linejoin="miter" stroke-width="1.5"/>
<text fill="#ffffff" font-family="Verdana" font-size="6.4" opacity="1" stroke="none" text-anchor="middle" transform="matrix(1.5 0 0 1.5 83.7406 2437)" x="0" y="0">
<tspan textLength="23.0125" x="13.0063" y="6">Nuxt.js</tspan>
</text>
<path d="M658.25 836.5C658.25 826.973 665.973 819.25 675.5 819.25C685.027 819.25 692.75 826.973 692.75 836.5C692.75 846.027 685.027 853.75 675.5 853.75C665.973 853.75 658.25 846.027 658.25 836.5Z" fill="#ffffff" fill-rule="nonzero" opacity="1" stroke="#000000" stroke-linecap="butt" stroke-linejoin="miter" stroke-width="1.5"/>
<path d="M525.25 865.75C565.417 848.917 609.583 838.917 657.75 835.75" fill="none" opacity="1" stroke="#000000" stroke-linecap="butt" stroke-linejoin="miter" stroke-width="1.5"/>
<path d="M635.25 928.5C635.25 918.973 642.973 911.25 652.5 911.25C662.027 911.25 669.75 918.973 669.75 928.5C669.75 938.027 662.027 945.75 652.5 945.75C642.973 945.75 635.25 938.027 635.25 928.5Z" fill="#ffffff" fill-rule="nonzero" opacity="1" stroke="#000000" stroke-linecap="butt" stroke-linejoin="miter" stroke-width="1.5"/>
<path d="M651.25 1142.5C651.25 1132.97 658.973 1125.25 668.5 1125.25C678.027 1125.25 685.75 1132.97 685.75 1142.5C685.75 1152.03 678.027 1159.75 668.5 1159.75C658.973 1159.75 651.25 1152.03 651.25 1142.5Z" fill="#ffffff" fill-rule="nonzero" opacity="1" stroke="#000000" stroke-linecap="butt" stroke-linejoin="miter" stroke-width="1.5"/>
<path d="M692.25 1408.5C692.25 1398.97 699.973 1391.25 709.5 1391.25C719.027 1391.25 726.75 1398.97 726.75 1408.5C726.75 1418.03 719.027 1425.75 709.5 1425.75C699.973 1425.75 692.25 1418.03 692.25 1408.5Z" fill="#ffffff" fill-rule="nonzero" opacity="1" stroke="#000000" stroke-linecap="butt" stroke-linejoin="miter" stroke-width="1.5"/>
<path d="M654.25 1705.5C654.25 1695.97 661.973 1688.25 671.5 1688.25C681.027 1688.25 688.75 1695.97 688.75 1705.5C688.75 1715.03 681.027 1722.75 671.5 1722.75C661.973 1722.75 654.25 1715.03 654.25 1705.5Z" fill="#ffffff" fill-rule="nonzero" opacity="1" stroke="#000000" stroke-linecap="butt" stroke-linejoin="miter" stroke-width="1.5"/>
<path d="M668.25 2136.5C668.25 2126.97 675.973 2119.25 685.5 2119.25C695.027 2119.25 702.75 2126.97 702.75 2136.5C702.75 2146.03 695.027 2153.75 685.5 2153.75C675.973 2153.75 668.25 2146.03 668.25 2136.5Z" fill="#ffffff" fill-rule="nonzero" opacity="1" stroke="#000000" stroke-linecap="butt" stroke-linejoin="miter" stroke-width="1.5"/>
<path d="M644.25 1960.5C644.25 1950.97 651.973 1943.25 661.5 1943.25C671.027 1943.25 678.75 1950.97 678.75 1960.5C678.75 1970.03 671.027 1977.75 661.5 1977.75C651.973 1977.75 644.25 1970.03 644.25 1960.5Z" fill="#ffffff" fill-rule="nonzero" opacity="1" stroke="#000000" stroke-linecap="butt" stroke-linejoin="miter" stroke-width="1.5"/>
<path d="M681.25 2224.5C681.25 2214.97 688.973 2207.25 698.5 2207.25C708.027 2207.25 715.75 2214.97 715.75 2224.5C715.75 2234.03 708.027 2241.75 698.5 2241.75C688.973 2241.75 681.25 2234.03 681.25 2224.5Z" fill="#ffffff" fill-rule="nonzero" opacity="1" stroke="#000000" stroke-linecap="butt" stroke-linejoin="miter" stroke-width="1.5"/>
<path d="M390.25 792C400.417 804.333 415.5 813 435.5 818C455.5 823 465.417 833.917 465.25 850.75" fill="none" opacity="1" stroke="#000000" stroke-linecap="butt" stroke-linejoin="miter" stroke-width="1.5"/>
<path d="M326.5 944.5C339.167 915.167 363 907.75 398 922.25C433 936.75 455.417 922.917 465.25 880.75" fill="none" opacity="1" stroke="#000000" stroke-linecap="butt" stroke-linejoin="miter" stroke-width="1.5"/>
<path d="M669 928.25C703.333 927.75 725.5 919.25 735.5 902.75C745.5 886.25 759.167 878.083 776.5 878.25" fill="none" opacity="1" stroke="#000000" stroke-linecap="butt" stroke-linejoin="miter" stroke-width="1.5"/>
<path d="M349 762C326.667 744.333 300.5 735.5 270.5 735.5C240.5 735.5 221.667 720.583 214 690.75" fill="none" opacity="1" stroke="#000000" stroke-dasharray="4.5" stroke-linecap="butt" stroke-linejoin="miter" stroke-width="1.5"/>
<path d="M390.25 762C370.417 744.333 350 733 329 728C308 723 297.167 710.583 296.5 690.75" fill="none" opacity="1" stroke="#000000" stroke-dasharray="4.5" stroke-linecap="butt" stroke-linejoin="miter" stroke-width="1.5"/>
<path d="M405.25 858.25C355.417 856.417 320.5 845 300.5 824C280.5 803 249.583 792.333 207.75 792" fill="none" opacity="1" stroke="#000000" stroke-dasharray="4.5" stroke-linecap="butt" stroke-linejoin="miter" stroke-width="1.5"/>
<path d="M266.5 952C229.167 937.667 195.417 939.333 165.25 957" fill="none" opacity="1" stroke="#000000" stroke-dasharray="4.5" stroke-linecap="butt" stroke-linejoin="miter" stroke-width="1.5"/>
<path d="M829 863.25C828.667 838.083 858 825.5 917 825.5C976 825.5 1005.42 810.583 1005.25 780.75" fill="none" opacity="1" stroke="#000000" stroke-linecap="butt" stroke-linejoin="miter" stroke-width="1.5"/>
<path d="M881.5 878.25C924.167 863.083 955.5 860.5 975.5 870.5C995.5 880.5 1012.92 883.083 1027.75 878.25" fill="none" opacity="1" stroke="#000000" stroke-linecap="butt" stroke-linejoin="miter" stroke-width="1.5"/>
<path d="M802.75 893.25C797.917 918.083 800.5 940.5 810.5 960.5C820.5 980.5 815.417 1010.58 795.25 1050.75" fill="none" opacity="1" stroke="#000000" stroke-linecap="butt" stroke-linejoin="miter" stroke-width="1.5"/>
<path d="M964 750.75C961.667 730.583 938.5 718 894.5 713C850.5 708 828.667 693.083 829 668.25" fill="none" opacity="1" stroke="#000000" stroke-dasharray="4.5" stroke-linecap="butt" stroke-linejoin="miter" stroke-width="1.5"/>
<path d="M989 752C990 731 982.5 718 966.5 713C950.5 708 942.167 693.083 941.5 668.25" fill="none" opacity="1" stroke="#000000" stroke-dasharray="4.5" stroke-linecap="butt" stroke-linejoin="miter" stroke-width="1.5"/>
<path d="M1079 895.75C1041 908.917 1018.08 931.833 1010.25 964.5" fill="none" opacity="1" stroke="#000000" stroke-dasharray="4.5" stroke-linecap="butt" stroke-linejoin="miter" stroke-width="1.5"/>
<path d="M495.5 1125.5C485.5 1165.5 503 1178.25 548 1163.75C593 1149.25 627.5 1142 651.5 1142" fill="none" opacity="1" stroke="#000000" stroke-linecap="butt" stroke-linejoin="miter" stroke-width="1.5"/>
<path d="M412.75 1118.25C387.917 1118.08 360.5 1130 330.5 1154C300.5 1178 270.417 1189.83 240.25 1189.5" fill="none" opacity="1" stroke="#000000" stroke-dasharray="4.5" stroke-linecap="butt" stroke-linejoin="miter" stroke-width="1.5"/>
<path d="M105.25 1347C105.417 1319.33 101.75 1298 94.25 1283C86.75 1268 82.9167 1240.58 82.75 1200.75" fill="none" opacity="1" stroke="#000000" stroke-linecap="butt" stroke-linejoin="miter" stroke-width="1.5"/>
<path d="M52.75 1452C52.9167 1444.33 54.75 1435.5 58.25 1425.5C61.75 1415.5 63.6667 1399.33 64 1377" fill="none" opacity="1" stroke="#000000" stroke-dasharray="4.5" stroke-linecap="butt" stroke-linejoin="miter" stroke-width="1.5"/>
<path d="M172.75 1452C172.917 1444.33 168.75 1435.5 160.25 1425.5C151.75 1415.5 147.167 1399.33 146.5 1377" fill="none" opacity="1" stroke="#000000" stroke-dasharray="4.5" stroke-linecap="butt" stroke-linejoin="miter" stroke-width="1.5"/>
<path d="M461.5 1687C484.167 1682.67 515.5 1684.75 555.5 1693.25C595.5 1701.75 628.333 1705.92 654 1705.75" fill="none" opacity="1" stroke="#000000" stroke-linecap="butt" stroke-linejoin="miter" stroke-width="1.5"/>
<path d="M110.25 1787C127.083 1783 145.5 1781 165.5 1781C185.5 1781 201.667 1780.5 214 1779.5" fill="none" opacity="1" stroke="#000000" stroke-dasharray="4.5" stroke-linecap="butt" stroke-linejoin="miter" stroke-width="1.5"/>
<path d="M110.25 1847C137.083 1848 155.5 1839.75 165.5 1822.25C175.5 1804.75 191.667 1795.5 214 1794.5" fill="none" opacity="1" stroke="#000000" stroke-dasharray="4.5" stroke-linecap="butt" stroke-linejoin="miter" stroke-width="1.5"/>
<path d="M825.25 1080.75C825.417 1132.58 845.417 1158.83 885.25 1159.5" fill="none" opacity="1" stroke="#000000" stroke-dasharray="4.5" stroke-linecap="butt" stroke-linejoin="miter" stroke-width="1.5"/>
<path d="M726.5 1409.5C782.5 1390.17 851.667 1388.08 934 1403.25" fill="none" opacity="1" stroke="#000000" stroke-linecap="butt" stroke-linejoin="miter" stroke-width="1.5"/>
<path d="M982.75 1418.25C982.917 1433.08 973 1445.5 953 1455.5C933 1465.5 920 1483.08 914 1508.25" fill="none" opacity="1" stroke="#000000" stroke-dasharray="4.5" stroke-linecap="butt" stroke-linejoin="miter" stroke-width="1.5"/>
<path d="M1031.5 1418.25C1024.17 1443.08 1023 1460.5 1028 1470.5C1033 1480.5 1035.42 1493.08 1035.25 1508.25" fill="none" opacity="1" stroke="#000000" stroke-dasharray="4.5" stroke-linecap="butt" stroke-linejoin="miter" stroke-width="1.5"/>
<path d="M686.5 2047C709.167 2046.67 725.5 2034.25 735.5 2009.75C745.5 1985.25 767.083 1973.08 800.25 1973.25" fill="none" opacity="1" stroke="#000000" stroke-linecap="butt" stroke-linejoin="miter" stroke-width="1.5"/>
<path d="M852.75 1988.25C852.583 2033.08 845.5 2058 831.5 2063C817.5 2068 812.917 2095.58 817.75 2145.75" fill="none" opacity="1" stroke="#000000" stroke-linecap="butt" stroke-linejoin="miter" stroke-width="1.5"/>
<path d="M879 1958.25C879 1958.25 913.583 1914.08 982.75 1825.75" fill="none" opacity="1" stroke="#000000" stroke-dasharray="4.5" stroke-linecap="butt" stroke-linejoin="miter" stroke-width="1.5"/>
<path d="M905.25 1965.75C922.083 1945.58 933 1933 938 1928C943 1923 957.917 1911.42 982.75 1893.25" fill="none" opacity="1" stroke="#000000" stroke-dasharray="4.5" stroke-linecap="butt" stroke-linejoin="miter" stroke-width="1.5"/>
<path d="M900.5 1958C910.5 1943 920.5 1928 930.5 1913C940.5 1898 957.917 1879.75 982.75 1858.25" fill="none" opacity="1" stroke="#000000" stroke-dasharray="4.5" stroke-linecap="butt" stroke-linejoin="miter" stroke-width="1.5"/>
<path d="M882.5 2153C944.5 2138 985.5 2136.75 1005.5 2149.25C1025.5 2161.75 1048 2168 1073 2168" fill="none" opacity="1" stroke="#000000" stroke-dasharray="4.5" stroke-linecap="butt" stroke-linejoin="miter" stroke-width="1.5"/>
<path d="M881.5 2160.75C934.167 2150.58 972.377 2154 996.13 2171C1019.88 2188 1045.42 2196.67 1072.75 2197" fill="none" opacity="1" stroke="#000000" stroke-dasharray="4.5" stroke-linecap="butt" stroke-linejoin="miter" stroke-width="1.5"/>
<path d="M881.5 2168.25C932.167 2163.08 967.377 2171.5 987.13 2193.5C1006.88 2215.5 1035.42 2226.67 1072.75 2227" fill="none" opacity="1" stroke="#000000" stroke-dasharray="4.5" stroke-linecap="butt" stroke-linejoin="miter" stroke-width="1.5"/>
<path d="M506.5 2440.75C549.167 2439.92 575.5 2403.5 585.5 2331.5C595.5 2259.5 627.083 2223.83 680.25 2224.5" fill="none" opacity="1" stroke="#000000" stroke-linecap="butt" stroke-linejoin="miter" stroke-width="1.5"/>
<path d="M150.25 2439.5C190.417 2443.5 218 2443.25 233 2438.75C248 2434.25 274.167 2432.42 311.5 2433.25" fill="none" opacity="1" stroke="#000000" stroke-dasharray="4.5" stroke-linecap="butt" stroke-linejoin="miter" stroke-width="1.5"/>
<text fill="#000000" font-family="Verdana" font-size="6.4" opacity="1" stroke="none" text-anchor="middle" transform="matrix(1.5 0 0 1.5 60.4484 23)" x="0" y="0">
<tspan textLength="172.069" x="87.5344" y="6">github.com/flaviocopes/vue-developer-roadmap&lt;br&gt;</tspan>
</text>
<text fill="#000000" font-family="Verdana" font-size="6.4" opacity="1" stroke="none" text-anchor="middle" transform="matrix(1.5 0 0 1.5 348.968 557)" x="0" y="0">
<tspan textLength="48.7094" x="25.8547" y="6">Terminal usage</tspan>
</text>
<path d="M590.25 540.75C537.083 530.583 485.417 536.833 435.25 559.5" fill="none" opacity="1" stroke="#000000" stroke-dasharray="4.5" stroke-linecap="butt" stroke-linejoin="miter" stroke-width="1.5"/>
<path d="M233 1966.25L419 1966.25C421.485 1966.25 423.5 1968.26 423.5 1970.75L423.5 1991.75C423.5 1994.24 421.485 1996.25 419 1996.25L233 1996.25C230.515 1996.25 228.5 1994.24 228.5 1991.75L228.5 1970.75C228.5 1968.26 230.515 1966.25 233 1966.25Z" fill="#35495e" fill-rule="nonzero" opacity="1" stroke="#000000" stroke-linecap="butt" stroke-linejoin="miter" stroke-width="1.5"/>
<text fill="#ffffff" font-family="Verdana" font-size="8" opacity="1" stroke="none" text-anchor="middle" transform="matrix(1.5 0 0 1.5 264.5 1976)" x="0" y="0">
<tspan textLength="82" x="42.5" y="8">Utility Libraries&lt;br&gt;</tspan>
</text>
<path d="M40.63 2024.75L131.37 2024.75C133.237 2024.75 134.75 2026.26 134.75 2028.13L134.75 2043.87C134.75 2045.74 133.237 2047.25 131.37 2047.25L40.63 2047.25C38.7633 2047.25 37.25 2045.74 37.25 2043.87L37.25 2028.13C37.25 2026.26 38.7633 2024.75 40.63 2024.75Z" fill="#42b883" fill-rule="nonzero" opacity="1" stroke="#000000" stroke-linecap="butt" stroke-linejoin="miter" stroke-width="1.5"/>
<text fill="#ffffff" font-family="Verdana" font-size="6.4" opacity="1" stroke="none" text-anchor="middle" transform="matrix(1.5 0 0 1.5 69.0031 2033)" x="0" y="0">
<tspan textLength="22.6625" x="12.8313" y="6">Lodash</tspan>
</text>
<path d="M40.63 2054.75L131.37 2054.75C133.237 2054.75 134.75 2056.26 134.75 2058.13L134.75 2073.87C134.75 2075.74 133.237 2077.25 131.37 2077.25L40.63 2077.25C38.7633 2077.25 37.25 2075.74 37.25 2073.87L37.25 2058.13C37.25 2056.26 38.7633 2054.75 40.63 2054.75Z" fill="#42b883" fill-rule="nonzero" opacity="1" stroke="#000000" stroke-linecap="butt" stroke-linejoin="miter" stroke-width="1.5"/>
<text fill="#ffffff" font-family="Verdana" font-size="6.4" opacity="1" stroke="none" text-anchor="middle" transform="matrix(1.5 0 0 1.5 67.0844 2063)" x="0" y="0">
<tspan textLength="25.8875" x="14.4438" y="6">Moment</tspan>
</text>
<path d="M884 1635.5L984.5 1635.5C986.985 1635.5 989 1637.51 989 1640L989 1661C989 1663.49 986.985 1665.5 984.5 1665.5L884 1665.5C881.515 1665.5 879.5 1663.49 879.5 1661L879.5 1640C879.5 1637.51 881.515 1635.5 884 1635.5Z" fill="#35495e" fill-rule="nonzero" opacity="1" stroke="#000000" stroke-linecap="butt" stroke-linejoin="miter" stroke-width="1.5"/>
<text fill="#ffffff" font-family="Verdana" font-size="8" opacity="1" stroke="none" text-anchor="middle" transform="matrix(1.5 0 0 1.5 910.49 1645)" x="0" y="0">
<tspan textLength="30.6797" x="16.8398" y="8">Routing</tspan>
</text>
<path d="M1124.38 1601L1257.12 1601C1258.99 1601 1260.5 1602.51 1260.5 1604.38L1260.5 1620.12C1260.5 1621.99 1258.99 1623.5 1257.12 1623.5L1124.38 1623.5C1122.51 1623.5 1121 1621.99 1121 1620.12L1121 1604.38C1121 1602.51 1122.51 1601 1124.38 1601Z" fill="#42b883" fill-rule="nonzero" opacity="1" stroke="#000000" stroke-linecap="butt" stroke-linejoin="miter" stroke-width="1.5"/>
<text fill="#ffffff" font-family="Verdana" font-size="6.4" opacity="1" stroke="none" text-anchor="middle" transform="matrix(1.5 0 0 1.5 1165.28 1610)" x="0" y="0">
<tspan textLength="34.2875" x="18.6438" y="6">vue-router</tspan>
</text>
<path d="M681.25 1547.5C681.25 1537.97 688.973 1530.25 698.5 1530.25C708.027 1530.25 715.75 1537.97 715.75 1547.5C715.75 1557.03 708.027 1564.75 698.5 1564.75C688.973 1564.75 681.25 1557.03 681.25 1547.5Z" fill="#ffffff" fill-rule="nonzero" opacity="1" stroke="#000000" stroke-linecap="butt" stroke-linejoin="miter" stroke-width="1.5"/>
<path d="M716.5 1548.25C749.167 1548.42 770.5 1565.5 780.5 1599.5C790.5 1633.5 823.333 1650.58 879 1650.75" fill="none" opacity="1" stroke="#000000" stroke-linecap="butt" stroke-linejoin="miter" stroke-width="1.5"/>
<path d="M989 1643.25C1020 1643.08 1043 1638 1058 1628C1073 1618 1094.17 1612.67 1121.5 1612" fill="none" opacity="1" stroke="#000000" stroke-dasharray="4.5" stroke-linecap="butt" stroke-linejoin="miter" stroke-width="1.5"/>
<path d="M652.25 2047.5C652.25 2037.97 659.973 2030.25 669.5 2030.25C679.027 2030.25 686.75 2037.97 686.75 2047.5C686.75 2057.03 679.027 2064.75 669.5 2064.75C659.973 2064.75 652.25 2057.03 652.25 2047.5Z" fill="#ffffff" fill-rule="nonzero" opacity="1" stroke="#000000" stroke-linecap="butt" stroke-linejoin="miter" stroke-width="1.5"/>
<path d="M424 1980.75C481.667 1980.58 525.5 1977 555.5 1970C585.5 1963 615 1959.92 644 1960.75" fill="none" opacity="1" stroke="#000000" stroke-linecap="butt" stroke-linejoin="miter" stroke-width="1.5"/>
<path d="M135.25 2035.75C164.917 2036.42 194.75 2034 224.75 2028.5C254.75 2023 272.417 2012.08 277.75 1995.75" fill="none" opacity="1" stroke="#000000" stroke-dasharray="4.5" stroke-linecap="butt" stroke-linejoin="miter" stroke-width="1.5"/>
<path d="M135.25 2065.75C174.917 2066.42 213.25 2061.5 250.25 2051C287.25 2040.5 305.583 2022.08 305.25 1995.75" fill="none" opacity="1" stroke="#000000" stroke-dasharray="4.5" stroke-linecap="butt" stroke-linejoin="miter" stroke-width="1.5"/>
<path d="M782.75 2295.5L878.75 2295.5C881.235 2295.5 883.25 2297.51 883.25 2300L883.25 2321C883.25 2323.49 881.235 2325.5 878.75 2325.5L782.75 2325.5C780.265 2325.5 778.25 2323.49 778.25 2321L778.25 2300C778.25 2297.51 780.265 2295.5 782.75 2295.5Z" fill="#35495e" fill-rule="nonzero" opacity="1" stroke="#000000" stroke-linecap="butt" stroke-linejoin="miter" stroke-width="1.5"/>
<text fill="#ffffff" font-family="Verdana" font-size="8" opacity="1" stroke="none" text-anchor="middle" transform="matrix(1.5 0 0 1.5 790.763 2306)" x="0" y="0">
<tspan textLength="54.3164" x="28.6582" y="8">Desktop&lt;br&gt;</tspan>
</text>
<path d="M978.88 2307.5L1137.12 2307.5C1138.99 2307.5 1140.5 2309.01 1140.5 2310.88L1140.5 2326.62C1140.5 2328.49 1138.99 2330 1137.12 2330L978.88 2330C977.013 2330 975.5 2328.49 975.5 2326.62L975.5 2310.88C975.5 2309.01 977.013 2307.5 978.88 2307.5Z" fill="#42b883" fill-rule="nonzero" opacity="1" stroke="#000000" stroke-linecap="butt" stroke-linejoin="miter" stroke-width="1.5"/>
<text fill="#ffffff" font-family="Verdana" font-size="6.4" opacity="1" stroke="none" text-anchor="middle" transform="matrix(1.5 0 0 1.5 1038.9 2316)" x="0" y="0">
<tspan textLength="26.1375" x="14.5688" y="6">Electron</tspan>
</text>
<path d="M780.5 2312C780.5 2312 749.167 2312.42 686.5 2313.25" fill="none" opacity="1" stroke="#000000" stroke-linecap="butt" stroke-linejoin="miter" stroke-width="1.5"/>
<path d="M975.25 2318.25C975.25 2318.25 944.417 2313.25 882.75 2303.25" fill="none" opacity="1" stroke="#000000" stroke-dasharray="4.5" stroke-linecap="butt" stroke-linejoin="miter" stroke-width="1.5"/>
<path d="M162.13 1535.75L305.37 1535.75C307.237 1535.75 308.75 1537.26 308.75 1539.13L308.75 1554.87C308.75 1556.74 307.237 1558.25 305.37 1558.25L162.13 1558.25C160.263 1558.25 158.75 1556.74 158.75 1554.87L158.75 1539.13C158.75 1537.26 160.263 1535.75 162.13 1535.75Z" fill="#42b883" fill-rule="nonzero" opacity="1" stroke="#000000" stroke-linecap="butt" stroke-linejoin="miter" stroke-width="1.5"/>
<text fill="#ffffff" font-family="Verdana" font-size="6.4" opacity="1" stroke="none" text-anchor="middle" transform="matrix(1.5 0 0 1.5 177.22 1544)" x="0" y="0">
<tspan textLength="75.0406" x="39.0203" y="6">vuex-shared-mutations</tspan>
</text>
<path d="M720.29 1494.93L720.25 1494.5" fill="none" opacity="1" stroke="#000000" stroke-linecap="butt" stroke-linejoin="miter" stroke-width="1.5"/>
<path d="M1076.38 2124.5L1189.62 2124.5C1191.49 2124.5 1193 2126.01 1193 2127.88L1193 2143.62C1193 2145.49 1191.49 2147 1189.62 2147L1076.38 2147C1074.51 2147 1073 2145.49 1073 2143.62L1073 2127.88C1073 2126.01 1074.51 2124.5 1076.38 2124.5Z" fill="#42b883" fill-rule="nonzero" opacity="1" stroke="#000000" stroke-linecap="butt" stroke-linejoin="miter" stroke-width="1.5"/>
<text fill="#ffffff" font-family="Verdana" font-size="6.4" opacity="1" stroke="none" text-anchor="middle" transform="matrix(1.5 0 0 1.5 1111.12 2133)" x="0" y="0">
<tspan textLength="29.8375" x="16.4188" y="6">Selenium</tspan>
</text>
<path d="M882.5 2145.5C924.5 2125.5 958 2119 983 2126C1008 2133 1038 2136.5 1073 2136.5" fill="none" opacity="1" stroke="#000000" stroke-dasharray="4.5" stroke-linecap="butt" stroke-linejoin="miter" stroke-width="1.5"/>
<path d="M315.13 1469L458.37 1469C460.237 1469 461.75 1470.51 461.75 1472.38L461.75 1488.12C461.75 1489.99 460.237 1491.5 458.37 1491.5L315.13 1491.5C313.263 1491.5 311.75 1489.99 311.75 1488.12L311.75 1472.38C311.75 1470.51 313.263 1469 315.13 1469Z" fill="#42b883" fill-rule="nonzero" opacity="1" stroke="#000000" stroke-linecap="butt" stroke-linejoin="miter" stroke-width="1.5"/>
<text fill="#ffffff" font-family="Verdana" font-size="6.4" opacity="1" stroke="none" text-anchor="middle" transform="matrix(1.5 0 0 1.5 342.015 1478)" x="0" y="0">
<tspan textLength="58.6469" x="30.8234" y="6">vuex-loading&lt;br&gt;</tspan>
</text>
<path d="M271.5 1535.75C271.833 1452.25 261.75 1395.5 241.25 1365.5C220.75 1335.5 198 1313 173 1298C148 1283 135.417 1250.58 135.25 1200.75" fill="none" opacity="1" stroke="#000000" stroke-dasharray="4.5" stroke-linecap="butt" stroke-linejoin="miter" stroke-width="1.5"/>
<path d="M33.88 1148L237.12 1148C238.987 1148 240.5 1149.51 240.5 1151.38L240.5 1167.12C240.5 1168.99 238.987 1170.5 237.12 1170.5L33.88 1170.5C32.0133 1170.5 30.5 1168.99 30.5 1167.12L30.5 1151.38C30.5 1149.51 32.0133 1148 33.88 1148Z" fill="#42b883" fill-rule="nonzero" opacity="1" stroke="#000000" stroke-linecap="butt" stroke-linejoin="miter" stroke-width="1.5"/>
<text fill="#ffffff" font-family="Verdana" font-size="6.4" opacity="1" stroke="none" text-anchor="middle" transform="matrix(1.5 0 0 1.5 93.843 1157)" x="0" y="0">
<tspan textLength="56.2094" x="29.6047" y="6">Component State</tspan>
</text>
<path d="M412.75 1110.75C377.917 1110.58 348 1118.75 323 1135.25C298 1151.75 270.417 1159.83 240.25 1159.5" fill="none" opacity="1" stroke="#000000" stroke-dasharray="4.5" stroke-linecap="butt" stroke-linejoin="miter" stroke-width="1.5"/>
<path d="M218.75 1772.5L314.75 1772.5C317.235 1772.5 319.25 1774.51 319.25 1777L319.25 1798C319.25 1800.49 317.235 1802.5 314.75 1802.5L218.75 1802.5C216.265 1802.5 214.25 1800.49 214.25 1798L214.25 1777C214.25 1774.51 216.265 1772.5 218.75 1772.5Z" fill="#42b883" fill-rule="nonzero" opacity="1" stroke="#000000" stroke-linecap="butt" stroke-linejoin="miter" stroke-width="1.5"/>
<text fill="#ffffff" font-family="Verdana" font-size="8" opacity="1" stroke="none" text-anchor="middle" transform="matrix(1.5 0 0 1.5 234.616 1782)" x="0" y="0">
<tspan textLength="42.5117" x="22.7559" y="8">REST&lt;br&gt;</tspan>
</text>
<path d="M435.5 1765L531.5 1765C533.985 1765 536 1767.01 536 1769.5L536 1790.5C536 1792.99 533.985 1795 531.5 1795L435.5 1795C433.015 1795 431 1792.99 431 1790.5L431 1769.5C431 1767.01 433.015 1765 435.5 1765Z" fill="#42b883" fill-rule="nonzero" opacity="1" stroke="#000000" stroke-linecap="butt" stroke-linejoin="miter" stroke-width="1.5"/>
<text fill="#ffffff" font-family="Verdana" font-size="8" opacity="1" stroke="none" text-anchor="middle" transform="matrix(1.5 0 0 1.5 440.572 1775)" x="0" y="0">
<tspan textLength="56.5703" x="29.7852" y="8">GraphQL&lt;br&gt;</tspan>
</text>
<path d="M273.88 1881.5L372.12 1881.5C373.987 1881.5 375.5 1883.01 375.5 1884.88L375.5 1900.62C375.5 1902.49 373.987 1904 372.12 1904L273.88 1904C272.013 1904 270.5 1902.49 270.5 1900.62L270.5 1884.88C270.5 1883.01 272.013 1881.5 273.88 1881.5Z" fill="#42b883" fill-rule="nonzero" opacity="1" stroke="#000000" stroke-linecap="butt" stroke-linejoin="miter" stroke-width="1.5"/>
<text fill="#ffffff" font-family="Verdana" font-size="6.4" opacity="1" stroke="none" text-anchor="middle" transform="matrix(1.5 0 0 1.5 308.767 1890)" x="0" y="0">
<tspan textLength="19.6438" x="11.3219" y="6">Apollo</tspan>
</text>
<path d="M382.75 1702C382.917 1714.67 363.75 1724.25 325.25 1730.75C286.75 1737.25 267.167 1751 266.5 1772" fill="none" opacity="1" stroke="#000000" stroke-linecap="butt" stroke-linejoin="miter" stroke-width="1.5"/>
<path d="M435.25 1702C435.417 1717.67 443.5 1728 459.5 1733C475.5 1738 483.667 1748.5 484 1764.5" fill="none" opacity="1" stroke="#000000" stroke-linecap="butt" stroke-linejoin="miter" stroke-width="1.5"/>
<path d="M322.75 1882C322.917 1857.67 345.5 1839 390.5 1826C435.5 1813 457.917 1802.5 457.75 1794.5" fill="none" opacity="1" stroke="#000000" stroke-dasharray="4.5" stroke-linecap="butt" stroke-linejoin="miter" stroke-width="1.5"/>
<path d="M286.25 2209.25L382.25 2209.25C384.735 2209.25 386.75 2211.26 386.75 2213.75L386.75 2234.75C386.75 2237.24 384.735 2239.25 382.25 2239.25L286.25 2239.25C283.765 2239.25 281.75 2237.24 281.75 2234.75L281.75 2213.75C281.75 2211.26 283.765 2209.25 286.25 2209.25Z" fill="#35495e" fill-rule="nonzero" opacity="1" stroke="#000000" stroke-linecap="butt" stroke-linejoin="miter" stroke-width="1.5"/>
<text fill="#ffffff" font-family="Verdana" font-size="8" opacity="1" stroke="none" text-anchor="middle" transform="matrix(1.5 0 0 1.5 304.309 2219)" x="0" y="0">
<tspan textLength="38.9219" x="20.9609" y="8">i18n&lt;br&gt;</tspan>
</text>
<path d="M386.5 2224.5C449.167 2223.83 503 2209 548 2180C593 2151 632.917 2136.67 667.75 2137" fill="none" opacity="1" stroke="#000000" stroke-linecap="butt" stroke-linejoin="miter" stroke-width="1.5"/>
<path d="M194.38 2340.5L307.62 2340.5C309.487 2340.5 311 2342.01 311 2343.88L311 2359.62C311 2361.49 309.487 2363 307.62 2363L194.38 2363C192.513 2363 191 2361.49 191 2359.62L191 2343.88C191 2342.01 192.513 2340.5 194.38 2340.5Z" fill="#42b883" fill-rule="nonzero" opacity="1" stroke="#000000" stroke-linecap="butt" stroke-linejoin="miter" stroke-width="1.5"/>
<text fill="#ffffff" font-family="Verdana" font-size="6.4" opacity="1" stroke="none" text-anchor="middle" transform="matrix(1.5 0 0 1.5 205.752 2349)" x="0" y="0">
<tspan textLength="60.3313" x="31.6656" y="6">&lt;p&gt;vue-i18n&lt;/p&gt;</tspan>
</text>
<path d="M251.5 2340.75C254.167 2312.58 264.25 2296 281.75 2291C299.25 2286 307.917 2268.83 307.75 2239.5" fill="none" opacity="1" stroke="#000000" stroke-dasharray="4.5" stroke-linecap="butt" stroke-linejoin="miter" stroke-width="1.5"/>
<path d="M366.25 1469C313.417 1440 284.25 1408 278.75 1373C273.25 1338 250.5 1315.5 210.5 1305.5C170.5 1295.5 146.057 1260.5 137.17 1200.5" fill="none" opacity="1" stroke="#000000" stroke-dasharray="4.5" stroke-linecap="butt" stroke-linejoin="miter" stroke-width="1.5"/>
<path d="M687.25 2312.5C687.25 2302.97 694.973 2295.25 704.5 2295.25C714.027 2295.25 721.75 2302.97 721.75 2312.5C721.75 2322.03 714.027 2329.75 704.5 2329.75C694.973 2329.75 687.25 2322.03 687.25 2312.5Z" fill="#ffffff" fill-rule="nonzero" opacity="1" stroke="#000000" stroke-linecap="butt" stroke-linejoin="miter" stroke-width="1.5"/>
<path d="M682.75 743.25C682.75 743.25 680.25 768.25 675.25 818.25" fill="none" opacity="1" stroke="#000000" stroke-linecap="butt" stroke-linejoin="miter" stroke-width="1.5"/>
</g>
</g>
</svg>
